<svg width="344" height="300" viewBox="0 0 344 300" fill="none" xmlns="http://www.w3.org/2000/svg">
<rect width="344" height="300" rx="12" fill="white"/>
<g filter="url(#filter0_i_2200_4964)">
<rect x="20" y="20" width="44" height="44" rx="8" fill="#EF5237"/>
<g clip-path="url(#clip0_2200_4964)">
<path d="M51 34.5001V39.0001C51 39.199 50.921 39.3898 50.7803 39.5305C50.6397 39.6711 50.4489 39.7501 50.25 39.7501H45.75C45.6016 39.7502 45.4565 39.7063 45.333 39.6239C45.2096 39.5415 45.1133 39.4243 45.0565 39.2872C44.9997 39.1501 44.9849 38.9992 45.0139 38.8536C45.0428 38.7081 45.1144 38.5744 45.2194 38.4695L46.9359 36.7501C45.5551 35.4271 43.7183 34.6856 41.8059 34.6792H41.7638C39.8041 34.6753 37.9218 35.4432 36.5241 36.8167C36.3808 36.9504 36.191 37.0227 35.9951 37.0182C35.7992 37.0138 35.6128 36.9328 35.4759 36.7926C35.3389 36.6525 35.2623 36.4643 35.2623 36.2684C35.2623 36.0725 35.339 35.8843 35.4759 35.7442C37.1479 34.1107 39.3897 33.1917 41.7271 33.1817C44.0646 33.1717 46.3142 34.0716 48 35.6908L49.7213 33.9695C49.8262 33.8651 49.9598 33.7942 50.105 33.7656C50.2503 33.7369 50.4007 33.7519 50.5375 33.8087C50.6742 33.8654 50.7911 33.9614 50.8734 34.0844C50.9557 34.2074 50.9997 34.3521 51 34.5001ZM47.4759 47.1836C46.0867 48.5404 44.2253 49.3056 42.2834 49.318C40.3415 49.3304 38.4705 48.5891 37.0641 47.2501L38.7806 45.5336C38.8866 45.4288 38.959 45.2949 38.9885 45.1488C39.0181 45.0028 39.0035 44.8513 38.9465 44.7136C38.8896 44.5759 38.7929 44.4582 38.6689 44.3757C38.5448 44.2932 38.399 44.2494 38.25 44.2501H33.75C33.5511 44.2501 33.3603 44.3291 33.2197 44.4698C33.079 44.6104 33 44.8012 33 45.0001V49.5001C32.9999 49.6486 33.0438 49.7937 33.1262 49.9171C33.2086 50.0406 33.3258 50.1368 33.4629 50.1936C33.6 50.2504 33.7509 50.2653 33.8965 50.2363C34.042 50.2073 34.1757 50.1358 34.2806 50.0308L36 48.3095C37.6614 49.913 39.8785 50.8119 42.1875 50.8183H42.2372C44.5885 50.8243 46.8476 49.9038 48.525 48.2561C48.662 48.1159 48.7387 47.9278 48.7387 47.7318C48.7387 47.5359 48.662 47.3477 48.5251 47.2076C48.3881 47.0675 48.2018 46.9865 48.0059 46.982C47.81 46.9775 47.6201 47.0499 47.4769 47.1836H47.4759Z" fill="white"/>
</g>
</g>
<path d="M290.479 55.4219C288.369 55.4219 286.553 54.8711 285.029 53.7695C283.506 52.668 282.328 51.1094 281.496 49.0938C280.676 47.0781 280.266 44.6875 280.266 41.9219C280.266 39.1445 280.676 36.748 281.496 34.7324C282.328 32.7051 283.506 31.1406 285.029 30.0391C286.553 28.9375 288.369 28.3867 290.479 28.3867C292.588 28.3867 294.404 28.9375 295.928 30.0391C297.463 31.1406 298.641 32.7051 299.461 34.7324C300.281 36.748 300.691 39.1445 300.691 41.9219C300.691 44.6875 300.281 47.084 299.461 49.1113C298.641 51.127 297.463 52.6855 295.928 53.7871C294.404 54.877 292.588 55.4219 290.479 55.4219ZM290.479 51.5898C292.283 51.5898 293.701 50.7285 294.732 49.0059C295.775 47.2832 296.297 44.9219 296.297 41.9219C296.297 38.8984 295.775 36.5254 294.732 34.8027C293.701 33.0801 292.283 32.2188 290.479 32.2188C288.674 32.2188 287.25 33.0801 286.207 34.8027C285.176 36.5254 284.66 38.8984 284.66 41.9219C284.66 44.9219 285.176 47.2832 286.207 49.0059C287.25 50.7285 288.674 51.5898 290.479 51.5898ZM303.381 55V51.4668L312.891 43.1523C314.215 41.9688 315.258 40.9141 316.02 39.9883C316.781 39.0625 317.162 37.9609 317.162 36.6836C317.162 35.3125 316.746 34.2285 315.914 33.4316C315.094 32.623 313.975 32.2188 312.557 32.2188C311.021 32.2188 309.82 32.7051 308.953 33.6777C308.098 34.6387 307.67 35.957 307.67 37.6328H303.363C303.363 35.793 303.738 34.1816 304.488 32.7988C305.238 31.4043 306.299 30.3203 307.67 29.5469C309.053 28.7734 310.682 28.3867 312.557 28.3867C314.291 28.3867 315.832 28.7266 317.18 29.4062C318.539 30.0742 319.6 31.0176 320.361 32.2363C321.135 33.4434 321.521 34.8555 321.521 36.4727C321.521 38.2539 321.023 39.8418 320.027 41.2363C319.043 42.6309 317.619 44.1426 315.756 45.7715L309.709 51.1328V51.168H321.645V55H303.381Z" fill="#CCCCCC"/>
<path d="M26.3672 203.234C24.6224 203.234 23.2454 202.795 22.2363 201.916C21.2337 201.031 20.7324 199.82 20.7324 198.283H22.9004C22.9069 199.24 23.2129 199.989 23.8184 200.529C24.4303 201.07 25.2799 201.34 26.3672 201.34C27.3568 201.34 28.1478 201.132 28.7402 200.715C29.3392 200.292 29.6387 199.725 29.6387 199.016C29.6387 198.456 29.4238 198.003 28.9941 197.658C28.571 197.307 27.8548 197.01 26.8457 196.77L25.2539 196.389C23.7826 196.037 22.7083 195.549 22.0312 194.924C21.3607 194.292 21.0254 193.472 21.0254 192.463C21.0254 191.61 21.2402 190.865 21.6699 190.227C22.0996 189.589 22.7018 189.094 23.4766 188.742C24.2578 188.391 25.1693 188.215 26.2109 188.215C27.7799 188.215 29.0267 188.625 29.9512 189.445C30.8822 190.266 31.3704 191.385 31.416 192.805H29.3164C29.2643 191.965 28.9583 191.307 28.3984 190.832C27.8385 190.35 27.0996 190.109 26.1816 190.109C25.3027 190.109 24.5833 190.321 24.0234 190.744C23.4635 191.161 23.1836 191.698 23.1836 192.355C23.1836 192.883 23.3984 193.312 23.8281 193.645C24.2578 193.97 24.9707 194.253 25.9668 194.494L27.5391 194.865C28.9974 195.21 30.0716 195.708 30.7617 196.359C31.4583 197.01 31.8066 197.857 31.8066 198.898C31.8066 199.771 31.582 200.533 31.1328 201.184C30.6836 201.835 30.0521 202.339 29.2383 202.697C28.4245 203.055 27.4674 203.234 26.3672 203.234ZM33.8379 207.082V205.344H34.9512C35.2767 205.344 35.5404 205.249 35.7422 205.061C35.9505 204.878 36.1328 204.576 36.2891 204.152L36.7578 202.932L32.7734 192.688H34.9805L37.041 198.342C37.1777 198.726 37.3112 199.113 37.4414 199.504C37.5716 199.888 37.6986 200.272 37.8223 200.656C37.946 200.272 38.0729 199.888 38.2031 199.504C38.3398 199.113 38.4766 198.726 38.6133 198.342L40.6445 192.688H42.8223L38.1348 204.807C37.5553 206.324 36.5592 207.082 35.1465 207.082H33.8379ZM46.2891 197.062V203H44.2285V192.688H46.25V194.24C46.9531 193.068 47.9915 192.482 49.3652 192.482C50.0749 192.482 50.7096 192.639 51.2695 192.951C51.8359 193.257 52.2819 193.713 52.6074 194.318C52.9329 194.924 53.0957 195.676 53.0957 196.574V203H51.0352V196.828C51.0352 196.001 50.8366 195.38 50.4395 194.963C50.0423 194.54 49.4889 194.328 48.7793 194.328C48.0762 194.328 47.4837 194.546 47.002 194.982C46.5267 195.412 46.2891 196.105 46.2891 197.062ZM59.834 203.234C58.8509 203.234 57.9883 203.007 57.2461 202.551C56.5104 202.095 55.9375 201.464 55.5273 200.656C55.1172 199.842 54.9121 198.911 54.9121 197.863C54.9121 196.802 55.1172 195.865 55.5273 195.051C55.944 194.237 56.5202 193.602 57.2559 193.146C57.9915 192.684 58.8509 192.453 59.834 192.453C60.6543 192.453 61.3867 192.616 62.0312 192.941C62.6823 193.26 63.2096 193.703 63.6133 194.27C64.0169 194.836 64.2611 195.484 64.3457 196.213H62.2949C62.1908 195.633 61.9303 195.158 61.5137 194.787C61.097 194.416 60.5404 194.23 59.8438 194.23C58.9518 194.23 58.2552 194.559 57.7539 195.217C57.2526 195.874 57.002 196.757 57.002 197.863C57.002 198.957 57.2526 199.829 57.7539 200.48C58.2552 201.132 58.9518 201.457 59.8438 201.457C60.5534 201.457 61.1003 201.278 61.4844 200.92C61.8685 200.555 62.1289 200.07 62.2656 199.465H64.3457C64.2676 200.181 64.0267 200.826 63.623 201.398C63.2194 201.965 62.6921 202.414 62.041 202.746C61.39 203.072 60.6543 203.234 59.834 203.234ZM71.0352 203V188.449H80.8203V190.354H73.2031V194.641H80.2539V196.525H73.2031V201.096H80.8203V203H71.0352ZM85.6445 203L81.7188 192.688H83.9258L85.9766 198.342C86.1198 198.745 86.2565 199.149 86.3867 199.553C86.5169 199.956 86.6471 200.357 86.7773 200.754C86.9076 200.357 87.0378 199.956 87.168 199.553C87.2982 199.149 87.4316 198.745 87.5684 198.342L89.5898 192.688H91.7676L87.832 203H85.6445ZM97.1875 203.234C96.1654 203.234 95.2865 203.003 94.5508 202.541C93.8216 202.079 93.2585 201.444 92.8613 200.637C92.4707 199.823 92.2754 198.898 92.2754 197.863C92.2754 196.815 92.4805 195.884 92.8906 195.07C93.3008 194.257 93.8672 193.618 94.5898 193.156C95.3125 192.688 96.1426 192.453 97.0801 192.453C98.0566 192.453 98.903 192.681 99.6191 193.137C100.342 193.592 100.902 194.227 101.299 195.041C101.696 195.848 101.895 196.783 101.895 197.844V198.4H94.3066C94.3457 199.331 94.6126 200.083 95.1074 200.656C95.6087 201.229 96.3118 201.516 97.2168 201.516C97.8939 201.516 98.4505 201.363 98.8867 201.057C99.3229 200.751 99.6126 200.354 99.7559 199.865H101.738C101.615 200.529 101.338 201.115 100.908 201.623C100.485 202.131 99.9512 202.528 99.3066 202.814C98.6686 203.094 97.9622 203.234 97.1875 203.234ZM94.3262 196.838H99.8828C99.7982 196.018 99.5085 195.37 99.0137 194.895C98.5189 194.413 97.8809 194.172 97.0996 194.172C96.3184 194.172 95.6803 194.413 95.1855 194.895C94.6973 195.37 94.4108 196.018 94.3262 196.838ZM103.682 203V192.688H105.654V194.357H105.693C105.882 193.791 106.178 193.352 106.582 193.039C106.992 192.72 107.526 192.561 108.184 192.561C108.34 192.561 108.483 192.567 108.613 192.58C108.743 192.593 108.851 192.603 108.936 192.609V194.533C108.857 194.514 108.717 194.494 108.516 194.475C108.314 194.449 108.092 194.436 107.852 194.436C107.272 194.436 106.774 194.637 106.357 195.041C105.947 195.445 105.742 196.066 105.742 196.906V203H103.682ZM110.83 207.082V205.344H111.943C112.269 205.344 112.533 205.249 112.734 205.061C112.943 204.878 113.125 204.576 113.281 204.152L113.75 202.932L109.766 192.688H111.973L114.033 198.342C114.17 198.726 114.303 199.113 114.434 199.504C114.564 199.888 114.691 200.272 114.814 200.656C114.938 200.272 115.065 199.888 115.195 199.504C115.332 199.113 115.469 198.726 115.605 198.342L117.637 192.688H119.814L115.127 204.807C114.548 206.324 113.551 207.082 112.139 207.082H110.83ZM123.486 203L120.293 192.688H122.451L123.633 196.906C123.809 197.531 123.975 198.169 124.131 198.82C124.294 199.471 124.453 200.116 124.609 200.754C124.779 200.116 124.945 199.471 125.107 198.82C125.277 198.169 125.446 197.531 125.615 196.906L126.816 192.688H128.779L129.961 196.906C130.137 197.525 130.306 198.156 130.469 198.801C130.632 199.445 130.794 200.083 130.957 200.715C131.113 200.083 131.27 199.445 131.426 198.801C131.589 198.156 131.758 197.525 131.934 196.906L133.125 192.688H135.303L132.109 203H129.961L128.652 198.508C128.503 197.987 128.356 197.453 128.213 196.906C128.076 196.359 127.939 195.816 127.803 195.275C127.66 195.816 127.516 196.359 127.373 196.906C127.236 197.453 127.09 197.987 126.934 198.508L125.605 203H123.486ZM138.77 197.062V203H136.709V188.449H138.77V194.172C139.479 193.046 140.505 192.482 141.846 192.482C142.555 192.482 143.19 192.639 143.75 192.951C144.316 193.257 144.762 193.713 145.088 194.318C145.413 194.924 145.576 195.676 145.576 196.574V203H143.516V196.828C143.516 196.001 143.317 195.38 142.92 194.963C142.523 194.54 141.969 194.328 141.26 194.328C140.557 194.328 139.964 194.546 139.482 194.982C139.007 195.412 138.77 196.105 138.77 197.062ZM152.305 203.234C151.283 203.234 150.404 203.003 149.668 202.541C148.939 202.079 148.376 201.444 147.979 200.637C147.588 199.823 147.393 198.898 147.393 197.863C147.393 196.815 147.598 195.884 148.008 195.07C148.418 194.257 148.984 193.618 149.707 193.156C150.43 192.688 151.26 192.453 152.197 192.453C153.174 192.453 154.02 192.681 154.736 193.137C155.459 193.592 156.019 194.227 156.416 195.041C156.813 195.848 157.012 196.783 157.012 197.844V198.4H149.424C149.463 199.331 149.73 200.083 150.225 200.656C150.726 201.229 151.429 201.516 152.334 201.516C153.011 201.516 153.568 201.363 154.004 201.057C154.44 200.751 154.73 200.354 154.873 199.865H156.855C156.732 200.529 156.455 201.115 156.025 201.623C155.602 202.131 155.068 202.528 154.424 202.814C153.786 203.094 153.079 203.234 152.305 203.234ZM149.443 196.838H155C154.915 196.018 154.626 195.37 154.131 194.895C153.636 194.413 152.998 194.172 152.217 194.172C151.436 194.172 150.798 194.413 150.303 194.895C149.814 195.37 149.528 196.018 149.443 196.838ZM158.799 203V192.688H160.771V194.357H160.811C160.999 193.791 161.296 193.352 161.699 193.039C162.109 192.72 162.643 192.561 163.301 192.561C163.457 192.561 163.6 192.567 163.73 192.58C163.861 192.593 163.968 192.603 164.053 192.609V194.533C163.975 194.514 163.835 194.494 163.633 194.475C163.431 194.449 163.21 194.436 162.969 194.436C162.389 194.436 161.891 194.637 161.475 195.041C161.064 195.445 160.859 196.066 160.859 196.906V203H158.799ZM169.844 203.234C168.822 203.234 167.943 203.003 167.207 202.541C166.478 202.079 165.915 201.444 165.518 200.637C165.127 199.823 164.932 198.898 164.932 197.863C164.932 196.815 165.137 195.884 165.547 195.07C165.957 194.257 166.523 193.618 167.246 193.156C167.969 192.688 168.799 192.453 169.736 192.453C170.713 192.453 171.559 192.681 172.275 193.137C172.998 193.592 173.558 194.227 173.955 195.041C174.352 195.848 174.551 196.783 174.551 197.844V198.4H166.963C167.002 199.331 167.269 200.083 167.764 200.656C168.265 201.229 168.968 201.516 169.873 201.516C170.55 201.516 171.107 201.363 171.543 201.057C171.979 200.751 172.269 200.354 172.412 199.865H174.395C174.271 200.529 173.994 201.115 173.564 201.623C173.141 202.131 172.607 202.528 171.963 202.814C171.325 203.094 170.618 203.234 169.844 203.234ZM166.982 196.838H172.539C172.454 196.018 172.165 195.37 171.67 194.895C171.175 194.413 170.537 194.172 169.756 194.172C168.975 194.172 168.337 194.413 167.842 194.895C167.354 195.37 167.067 196.018 166.982 196.838ZM177.451 203.166C177.074 203.166 176.751 203.036 176.484 202.775C176.224 202.508 176.094 202.183 176.094 201.799C176.094 201.421 176.224 201.099 176.484 200.832C176.751 200.565 177.074 200.432 177.451 200.432C177.835 200.432 178.158 200.565 178.418 200.832C178.685 201.099 178.818 201.421 178.818 201.799C178.818 202.183 178.685 202.508 178.418 202.775C178.158 203.036 177.835 203.166 177.451 203.166Z" fill="#1A1A1A"/>
<path d="M21.0117 235V224.814H24.6621C25.724 224.814 26.5648 225.092 27.1846 225.648C27.8089 226.2 28.1211 226.952 28.1211 227.904C28.1211 228.538 27.9753 229.087 27.6836 229.552C27.3965 230.012 26.9886 230.37 26.46 230.625C25.9359 230.876 25.3184 231.001 24.6074 231.001H22.2422V235H21.0117ZM22.2422 229.907H24.6211C25.3275 229.907 25.8835 229.729 26.2891 229.374C26.6992 229.014 26.9043 228.524 26.9043 227.904C26.9043 227.285 26.6992 226.797 26.2891 226.441C25.8835 226.086 25.3275 225.908 24.6211 225.908H22.2422V229.907ZM32.0859 235.137C31.6029 235.137 31.1585 235.032 30.7529 234.822C30.3519 234.608 30.0306 234.289 29.7891 233.865C29.5521 233.437 29.4336 232.904 29.4336 232.266V227.781H30.5957V232.184C30.5957 232.808 30.7461 233.28 31.0469 233.599C31.3477 233.913 31.7669 234.07 32.3047 234.07C32.8333 234.07 33.2822 233.909 33.6514 233.585C34.0205 233.261 34.2051 232.735 34.2051 232.006V227.781H35.3672V235H34.2324V233.94C33.9818 234.351 33.6742 234.654 33.3096 234.85C32.9495 235.041 32.5417 235.137 32.0859 235.137ZM39.6055 235.164C39.0905 235.164 38.6234 235.08 38.2041 234.911C37.7848 234.743 37.4453 234.487 37.1855 234.146C36.9258 233.799 36.7799 233.364 36.748 232.84H37.8965C37.9785 233.724 38.5391 234.166 39.5781 234.166C40.0794 234.166 40.4736 234.061 40.7607 233.852C41.0524 233.642 41.1982 233.378 41.1982 233.059C41.1982 232.785 41.098 232.566 40.8975 232.402C40.6969 232.238 40.4349 232.12 40.1113 232.047L38.9492 231.773C37.5911 231.454 36.9121 230.771 36.9121 229.723C36.9121 229.312 37.0215 228.95 37.2402 228.636C37.4635 228.317 37.7712 228.068 38.1631 227.891C38.5596 227.708 39.0153 227.617 39.5303 227.617C40.0316 227.617 40.4805 227.713 40.877 227.904C41.278 228.091 41.5947 228.358 41.8271 228.704C42.0641 229.05 42.1895 229.463 42.2031 229.941H41.0684C41.0638 229.559 40.9225 229.242 40.6445 228.991C40.3665 228.741 39.9951 228.615 39.5303 228.615C39.0882 228.615 38.735 228.722 38.4707 228.937C38.2064 229.151 38.0742 229.413 38.0742 229.723C38.0742 229.996 38.1745 230.217 38.375 230.386C38.5755 230.55 38.849 230.673 39.1953 230.755L40.3574 231.028C41.0501 231.192 41.5583 231.438 41.8818 231.767C42.2054 232.09 42.3672 232.512 42.3672 233.031C42.3672 233.478 42.2464 233.861 42.0049 234.18C41.7633 234.499 41.4329 234.743 41.0137 234.911C40.599 235.08 40.1296 235.164 39.6055 235.164ZM44.8965 230.775V235H43.7344V224.814H44.8965V228.793C45.1471 228.401 45.4502 228.112 45.8057 227.925C46.1657 227.738 46.569 227.645 47.0156 227.645C47.5033 227.645 47.9476 227.752 48.3486 227.966C48.7497 228.175 49.0687 228.492 49.3057 228.916C49.5472 229.34 49.668 229.873 49.668 230.516V235H48.5059V230.598C48.5059 229.973 48.3555 229.504 48.0547 229.189C47.7585 228.87 47.3392 228.711 46.7969 228.711C46.2728 228.711 45.8239 228.873 45.4502 229.196C45.0811 229.52 44.8965 230.046 44.8965 230.775ZM54.9453 237.857V236.832H55.6562C56.0846 236.832 56.4105 236.543 56.6338 235.964L57.0303 234.938L54.2344 227.781H55.4922L57.0508 231.938C57.151 232.206 57.249 232.478 57.3447 232.751C57.445 233.02 57.5407 233.289 57.6318 233.558C57.7275 233.289 57.8232 233.02 57.9189 232.751C58.0192 232.478 58.1195 232.206 58.2197 231.938L59.751 227.781H60.9883L57.6592 236.34C57.4723 236.823 57.2057 237.197 56.8594 237.461C56.513 237.725 56.112 237.857 55.6562 237.857H54.9453ZM64.7617 235.164C64.0964 235.164 63.5107 235.005 63.0049 234.686C62.5036 234.362 62.1117 233.918 61.8291 233.353C61.5511 232.787 61.4121 232.138 61.4121 231.404C61.4121 230.666 61.5511 230.012 61.8291 229.442C62.1117 228.873 62.5036 228.426 63.0049 228.103C63.5107 227.779 64.0964 227.617 64.7617 227.617C65.4316 227.617 66.0173 227.779 66.5186 228.103C67.0199 228.426 67.4095 228.873 67.6875 229.442C67.9701 230.012 68.1113 230.666 68.1113 231.404C68.1113 232.138 67.9701 232.787 67.6875 233.353C67.4095 233.918 67.0199 234.362 66.5186 234.686C66.0173 235.005 65.4316 235.164 64.7617 235.164ZM64.7617 234.111C65.4453 234.111 65.9785 233.865 66.3613 233.373C66.7441 232.876 66.9355 232.22 66.9355 231.404C66.9355 230.579 66.7419 229.919 66.3545 229.422C65.9717 228.921 65.4408 228.67 64.7617 228.67C64.0827 228.67 63.5495 228.918 63.1621 229.415C62.7793 229.912 62.5879 230.575 62.5879 231.404C62.5879 232.225 62.7793 232.881 63.1621 233.373C63.5449 233.865 64.0781 234.111 64.7617 234.111ZM72.1172 235.137C71.6341 235.137 71.1898 235.032 70.7842 234.822C70.3831 234.608 70.0618 234.289 69.8203 233.865C69.5833 233.437 69.4648 232.904 69.4648 232.266V227.781H70.627V232.184C70.627 232.808 70.7773 233.28 71.0781 233.599C71.3789 233.913 71.7982 234.07 72.3359 234.07C72.8646 234.07 73.3135 233.909 73.6826 233.585C74.0518 233.261 74.2363 232.735 74.2363 232.006V227.781H75.3984V235H74.2637V233.94C74.013 234.351 73.7054 234.654 73.3408 234.85C72.9808 235.041 72.5729 235.137 72.1172 235.137ZM77.1211 235V227.781H78.2285V228.916H78.2559C78.388 228.542 78.5977 228.242 78.8848 228.014C79.1719 227.786 79.541 227.672 79.9922 227.672C80.097 227.672 80.1927 227.676 80.2793 227.686C80.3704 227.695 80.4388 227.704 80.4844 227.713V228.875C80.4388 228.861 80.3499 228.845 80.2178 228.827C80.0902 228.804 79.9421 228.793 79.7734 228.793C79.3724 228.793 79.0238 228.934 78.7275 229.217C78.4313 229.499 78.2832 229.946 78.2832 230.557V235H77.1211ZM85.1328 235V227.781H86.2676V228.95C86.4954 228.526 86.7985 228.203 87.1768 227.979C87.555 227.756 87.9652 227.645 88.4072 227.645C88.8994 227.645 89.3301 227.77 89.6992 228.021C90.0684 228.271 90.3281 228.579 90.4785 228.943C90.6745 228.574 90.9684 228.267 91.3604 228.021C91.7523 227.77 92.2171 227.645 92.7549 227.645C93.1969 227.645 93.598 227.74 93.958 227.932C94.3226 228.123 94.612 228.412 94.8262 228.8C95.0449 229.187 95.1543 229.677 95.1543 230.27V235H93.9922V230.27C93.9922 229.709 93.835 229.31 93.5205 229.073C93.2061 228.832 92.8415 228.711 92.4268 228.711C91.8981 228.711 91.4811 228.873 91.1758 229.196C90.875 229.515 90.7246 229.919 90.7246 230.406V235H89.5625V230.146C89.5625 229.714 89.4167 229.367 89.125 229.107C88.8379 228.843 88.4756 228.711 88.0381 228.711C87.7373 228.711 87.4525 228.782 87.1836 228.923C86.9193 229.064 86.7051 229.276 86.541 229.559C86.377 229.837 86.2949 230.183 86.2949 230.598V235H85.1328ZM99.8574 235.164C99.151 235.164 98.5472 235.002 98.0459 234.679C97.5492 234.355 97.1686 233.911 96.9043 233.346C96.64 232.776 96.5078 232.129 96.5078 231.404C96.5078 230.671 96.6468 230.019 96.9248 229.449C97.2028 228.88 97.5879 228.433 98.0801 228.109C98.5723 227.781 99.1374 227.617 99.7754 227.617C100.445 227.617 101.026 227.777 101.519 228.096C102.011 228.415 102.389 228.859 102.653 229.429C102.922 229.998 103.057 230.657 103.057 231.404V231.726H97.6562C97.6836 232.432 97.8864 233.006 98.2646 233.448C98.6429 233.89 99.1738 234.111 99.8574 234.111C100.372 234.111 100.792 233.993 101.115 233.756C101.443 233.519 101.662 233.214 101.771 232.84H102.934C102.842 233.3 102.653 233.706 102.366 234.057C102.079 234.403 101.719 234.674 101.286 234.87C100.858 235.066 100.382 235.164 99.8574 235.164ZM97.6699 230.728H101.895C101.831 230.094 101.61 229.59 101.231 229.217C100.853 228.843 100.368 228.656 99.7754 228.656C99.1829 228.656 98.6999 228.843 98.3262 229.217C97.9525 229.59 97.7337 230.094 97.6699 230.728ZM105.545 230.775V235H104.383V227.781H105.518V228.841C105.768 228.431 106.074 228.13 106.434 227.938C106.798 227.743 107.208 227.645 107.664 227.645C108.152 227.645 108.596 227.752 108.997 227.966C109.398 228.175 109.717 228.492 109.954 228.916C110.196 229.34 110.316 229.873 110.316 230.516V235H109.154V230.598C109.154 229.973 109.004 229.504 108.703 229.189C108.407 228.87 107.988 228.711 107.445 228.711C106.921 228.711 106.472 228.873 106.099 229.196C105.729 229.52 105.545 230.046 105.545 230.775ZM114.691 235.137C114.208 235.137 113.764 235.032 113.358 234.822C112.957 234.608 112.636 234.289 112.395 233.865C112.158 233.437 112.039 232.904 112.039 232.266V227.781H113.201V232.184C113.201 232.808 113.352 233.28 113.652 233.599C113.953 233.913 114.372 234.07 114.91 234.07C115.439 234.07 115.888 233.909 116.257 233.585C116.626 233.261 116.811 232.735 116.811 232.006V227.781H117.973V235H116.838V233.94C116.587 234.351 116.28 234.654 115.915 234.85C115.555 235.041 115.147 235.137 114.691 235.137ZM123.195 235V227.781H124.357V235H123.195ZM123.776 226.373C123.558 226.373 123.371 226.296 123.216 226.141C123.061 225.986 122.983 225.799 122.983 225.58C122.983 225.361 123.061 225.174 123.216 225.02C123.371 224.865 123.558 224.787 123.776 224.787C123.995 224.787 124.182 224.865 124.337 225.02C124.492 225.174 124.569 225.361 124.569 225.58C124.569 225.799 124.492 225.986 124.337 226.141C124.182 226.296 123.995 226.373 123.776 226.373ZM127.242 230.775V235H126.08V227.781H127.215V228.841C127.465 228.431 127.771 228.13 128.131 227.938C128.495 227.743 128.906 227.645 129.361 227.645C129.849 227.645 130.293 227.752 130.694 227.966C131.095 228.175 131.414 228.492 131.651 228.916C131.893 229.34 132.014 229.873 132.014 230.516V235H130.852V230.598C130.852 229.973 130.701 229.504 130.4 229.189C130.104 228.87 129.685 228.711 129.143 228.711C128.618 228.711 128.17 228.873 127.796 229.196C127.427 229.52 127.242 230.046 127.242 230.775ZM136.252 235.164C135.737 235.164 135.27 235.08 134.851 234.911C134.431 234.743 134.092 234.487 133.832 234.146C133.572 233.799 133.426 233.364 133.395 232.84H134.543C134.625 233.724 135.186 234.166 136.225 234.166C136.726 234.166 137.12 234.061 137.407 233.852C137.699 233.642 137.845 233.378 137.845 233.059C137.845 232.785 137.744 232.566 137.544 232.402C137.343 232.238 137.081 232.12 136.758 232.047L135.596 231.773C134.238 231.454 133.559 230.771 133.559 229.723C133.559 229.312 133.668 228.95 133.887 228.636C134.11 228.317 134.418 228.068 134.81 227.891C135.206 227.708 135.662 227.617 136.177 227.617C136.678 227.617 137.127 227.713 137.523 227.904C137.924 228.091 138.241 228.358 138.474 228.704C138.711 229.05 138.836 229.463 138.85 229.941H137.715C137.71 229.559 137.569 229.242 137.291 228.991C137.013 228.741 136.642 228.615 136.177 228.615C135.735 228.615 135.382 228.722 135.117 228.937C134.853 229.151 134.721 229.413 134.721 229.723C134.721 229.996 134.821 230.217 135.021 230.386C135.222 230.55 135.495 230.673 135.842 230.755L137.004 231.028C137.697 231.192 138.205 231.438 138.528 231.767C138.852 232.09 139.014 232.512 139.014 233.031C139.014 233.478 138.893 233.861 138.651 234.18C138.41 234.499 138.079 234.743 137.66 234.911C137.245 235.08 136.776 235.164 136.252 235.164ZM143.669 227.781V228.779H142.206V233.25C142.206 233.528 142.263 233.724 142.377 233.838C142.495 233.947 142.703 234.002 142.999 234.002H143.669V235H142.89C141.659 235 141.044 234.458 141.044 233.373V228.779H139.759V227.781H141.044V225.812H142.206V227.781H143.669ZM147.285 235.109C146.57 235.109 145.97 234.925 145.487 234.556C145.009 234.187 144.77 233.642 144.77 232.922C144.77 232.507 144.849 232.17 145.009 231.91C145.173 231.65 145.389 231.448 145.658 231.302C145.932 231.151 146.239 231.037 146.581 230.96C146.927 230.882 147.281 230.821 147.641 230.775C148.101 230.712 148.463 230.664 148.728 230.632C148.992 230.6 149.179 230.548 149.288 230.475C149.402 230.402 149.459 230.274 149.459 230.092V230.023C149.459 229.632 149.318 229.308 149.035 229.053C148.757 228.798 148.365 228.67 147.859 228.67C147.358 228.67 146.946 228.793 146.622 229.039C146.303 229.281 146.13 229.581 146.103 229.941H144.92C144.943 229.499 145.079 229.107 145.33 228.766C145.581 228.419 145.923 228.146 146.355 227.945C146.788 227.745 147.29 227.645 147.859 227.645C148.702 227.645 149.37 227.863 149.862 228.301C150.359 228.734 150.607 229.308 150.607 230.023V235H149.459V233.975H149.432C149.345 234.148 149.217 234.323 149.049 234.501C148.88 234.674 148.652 234.82 148.365 234.938C148.083 235.052 147.723 235.109 147.285 235.109ZM147.449 234.07C147.923 234.07 148.308 233.986 148.604 233.817C148.901 233.644 149.117 233.421 149.254 233.147C149.391 232.874 149.459 232.58 149.459 232.266V231.363C149.372 231.445 149.142 231.521 148.769 231.589C148.395 231.653 148.001 231.714 147.586 231.773C147.308 231.81 147.044 231.874 146.793 231.965C146.547 232.051 146.346 232.177 146.191 232.341C146.036 232.5 145.959 232.717 145.959 232.99C145.959 233.327 146.091 233.592 146.355 233.783C146.624 233.975 146.989 234.07 147.449 234.07ZM153.492 230.775V235H152.33V227.781H153.465V228.841C153.715 228.431 154.021 228.13 154.381 227.938C154.745 227.743 155.156 227.645 155.611 227.645C156.099 227.645 156.543 227.752 156.944 227.966C157.345 228.175 157.664 228.492 157.901 228.916C158.143 229.34 158.264 229.873 158.264 230.516V235H157.102V230.598C157.102 229.973 156.951 229.504 156.65 229.189C156.354 228.87 155.935 228.711 155.393 228.711C154.868 228.711 154.42 228.873 154.046 229.196C153.677 229.52 153.492 230.046 153.492 230.775ZM163.138 227.781V228.779H161.675V233.25C161.675 233.528 161.732 233.724 161.846 233.838C161.964 233.947 162.172 234.002 162.468 234.002H163.138V235H162.358C161.128 235 160.513 234.458 160.513 233.373V228.779H159.228V227.781H160.513V225.812H161.675V227.781H163.138ZM165.51 224.814V235H164.348V224.814H165.51ZM167.355 237.857V236.832H168.066C168.495 236.832 168.821 236.543 169.044 235.964L169.44 234.938L166.645 227.781H167.902L169.461 231.938C169.561 232.206 169.659 232.478 169.755 232.751C169.855 233.02 169.951 233.289 170.042 233.558C170.138 233.289 170.233 233.02 170.329 232.751C170.429 232.478 170.53 232.206 170.63 231.938L172.161 227.781H173.398L170.069 236.34C169.882 236.823 169.616 237.197 169.27 237.461C168.923 237.725 168.522 237.857 168.066 237.857H167.355ZM181.116 227.781V228.779H179.653V233.25C179.653 233.528 179.71 233.724 179.824 233.838C179.943 233.947 180.15 234.002 180.446 234.002H181.116V235H180.337C179.106 235 178.491 234.458 178.491 233.373V228.779H177.206V227.781H178.491V225.812H179.653V227.781H181.116ZM185.17 235.164C184.505 235.164 183.919 235.005 183.413 234.686C182.912 234.362 182.52 233.918 182.237 233.353C181.959 232.787 181.82 232.138 181.82 231.404C181.82 230.666 181.959 230.012 182.237 229.442C182.52 228.873 182.912 228.426 183.413 228.103C183.919 227.779 184.505 227.617 185.17 227.617C185.84 227.617 186.425 227.779 186.927 228.103C187.428 228.426 187.818 228.873 188.096 229.442C188.378 230.012 188.52 230.666 188.52 231.404C188.52 232.138 188.378 232.787 188.096 233.353C187.818 233.918 187.428 234.362 186.927 234.686C186.425 235.005 185.84 235.164 185.17 235.164ZM185.17 234.111C185.854 234.111 186.387 233.865 186.77 233.373C187.152 232.876 187.344 232.22 187.344 231.404C187.344 230.579 187.15 229.919 186.763 229.422C186.38 228.921 185.849 228.67 185.17 228.67C184.491 228.67 183.958 228.918 183.57 229.415C183.188 229.912 182.996 230.575 182.996 231.404C182.996 232.225 183.188 232.881 183.57 233.373C183.953 233.865 184.486 234.111 185.17 234.111ZM193.428 237.857V236.832H194.139C194.567 236.832 194.893 236.543 195.116 235.964L195.513 234.938L192.717 227.781H193.975L195.533 231.938C195.633 232.206 195.731 232.478 195.827 232.751C195.927 233.02 196.023 233.289 196.114 233.558C196.21 233.289 196.306 233.02 196.401 232.751C196.502 232.478 196.602 232.206 196.702 231.938L198.233 227.781H199.471L196.142 236.34C195.955 236.823 195.688 237.197 195.342 237.461C194.995 237.725 194.594 237.857 194.139 237.857H193.428ZM203.244 235.164C202.579 235.164 201.993 235.005 201.487 234.686C200.986 234.362 200.594 233.918 200.312 233.353C200.034 232.787 199.895 232.138 199.895 231.404C199.895 230.666 200.034 230.012 200.312 229.442C200.594 228.873 200.986 228.426 201.487 228.103C201.993 227.779 202.579 227.617 203.244 227.617C203.914 227.617 204.5 227.779 205.001 228.103C205.502 228.426 205.892 228.873 206.17 229.442C206.452 230.012 206.594 230.666 206.594 231.404C206.594 232.138 206.452 232.787 206.17 233.353C205.892 233.918 205.502 234.362 205.001 234.686C204.5 235.005 203.914 235.164 203.244 235.164ZM203.244 234.111C203.928 234.111 204.461 233.865 204.844 233.373C205.227 232.876 205.418 232.22 205.418 231.404C205.418 230.579 205.224 229.919 204.837 229.422C204.454 228.921 203.923 228.67 203.244 228.67C202.565 228.67 202.032 228.918 201.645 229.415C201.262 229.912 201.07 230.575 201.07 231.404C201.07 232.225 201.262 232.881 201.645 233.373C202.027 233.865 202.561 234.111 203.244 234.111ZM210.6 235.137C210.117 235.137 209.672 235.032 209.267 234.822C208.866 234.608 208.544 234.289 208.303 233.865C208.066 233.437 207.947 232.904 207.947 232.266V227.781H209.109V232.184C209.109 232.808 209.26 233.28 209.561 233.599C209.861 233.913 210.281 234.07 210.818 234.07C211.347 234.07 211.796 233.909 212.165 233.585C212.534 233.261 212.719 232.735 212.719 232.006V227.781H213.881V235H212.746V233.94C212.495 234.351 212.188 234.654 211.823 234.85C211.463 235.041 211.055 235.137 210.6 235.137ZM215.604 235V227.781H216.711V228.916H216.738C216.87 228.542 217.08 228.242 217.367 228.014C217.654 227.786 218.023 227.672 218.475 227.672C218.579 227.672 218.675 227.676 218.762 227.686C218.853 227.695 218.921 227.704 218.967 227.713V228.875C218.921 228.861 218.832 228.845 218.7 228.827C218.573 228.804 218.424 228.793 218.256 228.793C217.855 228.793 217.506 228.934 217.21 229.217C216.914 229.499 216.766 229.946 216.766 230.557V235H215.604ZM226.596 235.164C225.93 235.164 225.345 235.005 224.839 234.686C224.338 234.362 223.946 233.918 223.663 233.353C223.385 232.787 223.246 232.138 223.246 231.404C223.246 230.666 223.385 230.012 223.663 229.442C223.946 228.873 224.338 228.426 224.839 228.103C225.345 227.779 225.93 227.617 226.596 227.617C227.143 227.617 227.632 227.727 228.065 227.945C228.498 228.16 228.852 228.456 229.125 228.834C229.403 229.212 229.574 229.645 229.638 230.133H228.462C228.375 229.709 228.175 229.36 227.86 229.087C227.55 228.809 227.129 228.67 226.596 228.67C225.917 228.67 225.383 228.918 224.996 229.415C224.613 229.912 224.422 230.575 224.422 231.404C224.422 232.225 224.613 232.881 224.996 233.373C225.379 233.865 225.912 234.111 226.596 234.111C227.138 234.111 227.553 233.979 227.84 233.715C228.127 233.446 228.327 233.09 228.441 232.648H229.638C229.574 233.122 229.403 233.551 229.125 233.934C228.852 234.312 228.496 234.613 228.059 234.836C227.626 235.055 227.138 235.164 226.596 235.164ZM233.596 235.137C233.113 235.137 232.668 235.032 232.263 234.822C231.862 234.608 231.54 234.289 231.299 233.865C231.062 233.437 230.943 232.904 230.943 232.266V227.781H232.105V232.184C232.105 232.808 232.256 233.28 232.557 233.599C232.857 233.913 233.277 234.07 233.814 234.07C234.343 234.07 234.792 233.909 235.161 233.585C235.53 233.261 235.715 232.735 235.715 232.006V227.781H236.877V235H235.742V233.94C235.492 234.351 235.184 234.654 234.819 234.85C234.459 235.041 234.051 235.137 233.596 235.137ZM241.115 235.164C240.6 235.164 240.133 235.08 239.714 234.911C239.295 234.743 238.955 234.487 238.695 234.146C238.436 233.799 238.29 233.364 238.258 232.84H239.406C239.488 233.724 240.049 234.166 241.088 234.166C241.589 234.166 241.983 234.061 242.271 233.852C242.562 233.642 242.708 233.378 242.708 233.059C242.708 232.785 242.608 232.566 242.407 232.402C242.207 232.238 241.945 232.12 241.621 232.047L240.459 231.773C239.101 231.454 238.422 230.771 238.422 229.723C238.422 229.312 238.531 228.95 238.75 228.636C238.973 228.317 239.281 228.068 239.673 227.891C240.069 227.708 240.525 227.617 241.04 227.617C241.541 227.617 241.99 227.713 242.387 227.904C242.788 228.091 243.104 228.358 243.337 228.704C243.574 229.05 243.699 229.463 243.713 229.941H242.578C242.574 229.559 242.432 229.242 242.154 228.991C241.876 228.741 241.505 228.615 241.04 228.615C240.598 228.615 240.245 228.722 239.98 228.937C239.716 229.151 239.584 229.413 239.584 229.723C239.584 229.996 239.684 230.217 239.885 230.386C240.085 230.55 240.359 230.673 240.705 230.755L241.867 231.028C242.56 231.192 243.068 231.438 243.392 231.767C243.715 232.09 243.877 232.512 243.877 233.031C243.877 233.478 243.756 233.861 243.515 234.18C243.273 234.499 242.943 234.743 242.523 234.911C242.109 235.08 241.639 235.164 241.115 235.164ZM248.532 227.781V228.779H247.069V233.25C247.069 233.528 247.126 233.724 247.24 233.838C247.359 233.947 247.566 234.002 247.862 234.002H248.532V235H247.753C246.522 235 245.907 234.458 245.907 233.373V228.779H244.622V227.781H245.907V225.812H247.069V227.781H248.532ZM252.586 235.164C251.921 235.164 251.335 235.005 250.829 234.686C250.328 234.362 249.936 233.918 249.653 233.353C249.375 232.787 249.236 232.138 249.236 231.404C249.236 230.666 249.375 230.012 249.653 229.442C249.936 228.873 250.328 228.426 250.829 228.103C251.335 227.779 251.921 227.617 252.586 227.617C253.256 227.617 253.841 227.779 254.343 228.103C254.844 228.426 255.234 228.873 255.512 229.442C255.794 230.012 255.936 230.666 255.936 231.404C255.936 232.138 255.794 232.787 255.512 233.353C255.234 233.918 254.844 234.362 254.343 234.686C253.841 235.005 253.256 235.164 252.586 235.164ZM252.586 234.111C253.27 234.111 253.803 233.865 254.186 233.373C254.568 232.876 254.76 232.22 254.76 231.404C254.76 230.579 254.566 229.919 254.179 229.422C253.796 228.921 253.265 228.67 252.586 228.67C251.907 228.67 251.374 228.918 250.986 229.415C250.604 229.912 250.412 230.575 250.412 231.404C250.412 232.225 250.604 232.881 250.986 233.373C251.369 233.865 251.902 234.111 252.586 234.111ZM257.289 235V227.781H258.424V228.95C258.652 228.526 258.955 228.203 259.333 227.979C259.711 227.756 260.121 227.645 260.563 227.645C261.056 227.645 261.486 227.77 261.855 228.021C262.225 228.271 262.484 228.579 262.635 228.943C262.831 228.574 263.125 228.267 263.517 228.021C263.909 227.77 264.373 227.645 264.911 227.645C265.353 227.645 265.754 227.74 266.114 227.932C266.479 228.123 266.768 228.412 266.982 228.8C267.201 229.187 267.311 229.677 267.311 230.27V235H266.148V230.27C266.148 229.709 265.991 229.31 265.677 229.073C265.362 228.832 264.998 228.711 264.583 228.711C264.054 228.711 263.637 228.873 263.332 229.196C263.031 229.515 262.881 229.919 262.881 230.406V235H261.719V230.146C261.719 229.714 261.573 229.367 261.281 229.107C260.994 228.843 260.632 228.711 260.194 228.711C259.894 228.711 259.609 228.782 259.34 228.923C259.076 229.064 258.861 229.276 258.697 229.559C258.533 229.837 258.451 230.183 258.451 230.598V235H257.289ZM23.8418 255.164C23.1764 255.164 22.5908 255.005 22.085 254.686C21.5837 254.362 21.1917 253.918 20.9092 253.353C20.6312 252.787 20.4922 252.138 20.4922 251.404C20.4922 250.666 20.6312 250.012 20.9092 249.442C21.1917 248.873 21.5837 248.426 22.085 248.103C22.5908 247.779 23.1764 247.617 23.8418 247.617C24.3887 247.617 24.8786 247.727 25.3115 247.945C25.7445 248.16 26.0977 248.456 26.3711 248.834C26.6491 249.212 26.82 249.645 26.8838 250.133H25.708C25.6214 249.709 25.4209 249.36 25.1064 249.087C24.7965 248.809 24.375 248.67 23.8418 248.67C23.1628 248.67 22.6296 248.918 22.2422 249.415C21.8594 249.912 21.668 250.575 21.668 251.404C21.668 252.225 21.8594 252.881 22.2422 253.373C22.625 253.865 23.1582 254.111 23.8418 254.111C24.3841 254.111 24.7988 253.979 25.0859 253.715C25.373 253.446 25.5736 253.09 25.6875 252.648H26.8838C26.82 253.122 26.6491 253.551 26.3711 253.934C26.0977 254.312 25.7422 254.613 25.3047 254.836C24.8717 255.055 24.3841 255.164 23.8418 255.164ZM30.8418 255.137C30.3587 255.137 29.9144 255.032 29.5088 254.822C29.1077 254.608 28.7865 254.289 28.5449 253.865C28.3079 253.437 28.1895 252.904 28.1895 252.266V247.781H29.3516V252.184C29.3516 252.808 29.502 253.28 29.8027 253.599C30.1035 253.913 30.5228 254.07 31.0605 254.07C31.5892 254.07 32.0381 253.909 32.4072 253.585C32.7764 253.261 32.9609 252.735 32.9609 252.006V247.781H34.123V255H32.9883V253.94C32.7376 254.351 32.43 254.654 32.0654 254.85C31.7054 255.041 31.2975 255.137 30.8418 255.137ZM38.3613 255.164C37.8464 255.164 37.3792 255.08 36.96 254.911C36.5407 254.743 36.2012 254.487 35.9414 254.146C35.6816 253.799 35.5358 253.364 35.5039 252.84H36.6523C36.7344 253.724 37.2949 254.166 38.334 254.166C38.8353 254.166 39.2295 254.061 39.5166 253.852C39.8083 253.642 39.9541 253.378 39.9541 253.059C39.9541 252.785 39.8538 252.566 39.6533 252.402C39.4528 252.238 39.1908 252.12 38.8672 252.047L37.7051 251.773C36.347 251.454 35.668 250.771 35.668 249.723C35.668 249.312 35.7773 248.95 35.9961 248.636C36.2194 248.317 36.527 248.068 36.9189 247.891C37.3154 247.708 37.7712 247.617 38.2861 247.617C38.7874 247.617 39.2363 247.713 39.6328 247.904C40.0339 248.091 40.3506 248.358 40.583 248.704C40.82 249.05 40.9453 249.463 40.959 249.941H39.8242C39.8197 249.559 39.6784 249.242 39.4004 248.991C39.1224 248.741 38.751 248.615 38.2861 248.615C37.8441 248.615 37.4909 248.722 37.2266 248.937C36.9622 249.151 36.8301 249.413 36.8301 249.723C36.8301 249.996 36.9303 250.217 37.1309 250.386C37.3314 250.55 37.6048 250.673 37.9512 250.755L39.1133 251.028C39.806 251.192 40.3141 251.438 40.6377 251.767C40.9613 252.09 41.123 252.512 41.123 253.031C41.123 253.478 41.0023 253.861 40.7607 254.18C40.5192 254.499 40.1888 254.743 39.7695 254.911C39.3548 255.08 38.8854 255.164 38.3613 255.164ZM45.7783 247.781V248.779H44.3154V253.25C44.3154 253.528 44.3724 253.724 44.4863 253.838C44.6048 253.947 44.8122 254.002 45.1084 254.002H45.7783V255H44.999C43.7686 255 43.1533 254.458 43.1533 253.373V248.779H41.8682V247.781H43.1533V245.812H44.3154V247.781H45.7783ZM49.832 255.164C49.1667 255.164 48.5811 255.005 48.0752 254.686C47.5739 254.362 47.182 253.918 46.8994 253.353C46.6214 252.787 46.4824 252.138 46.4824 251.404C46.4824 250.666 46.6214 250.012 46.8994 249.442C47.182 248.873 47.5739 248.426 48.0752 248.103C48.5811 247.779 49.1667 247.617 49.832 247.617C50.502 247.617 51.0876 247.779 51.5889 248.103C52.0902 248.426 52.4798 248.873 52.7578 249.442C53.0404 250.012 53.1816 250.666 53.1816 251.404C53.1816 252.138 53.0404 252.787 52.7578 253.353C52.4798 253.918 52.0902 254.362 51.5889 254.686C51.0876 255.005 50.502 255.164 49.832 255.164ZM49.832 254.111C50.5156 254.111 51.0488 253.865 51.4316 253.373C51.8145 252.876 52.0059 252.22 52.0059 251.404C52.0059 250.579 51.8122 249.919 51.4248 249.422C51.042 248.921 50.5111 248.67 49.832 248.67C49.153 248.67 48.6198 248.918 48.2324 249.415C47.8496 249.912 47.6582 250.575 47.6582 251.404C47.6582 252.225 47.8496 252.881 48.2324 253.373C48.6152 253.865 49.1484 254.111 49.832 254.111ZM54.5352 255V247.781H55.6699V248.95C55.8978 248.526 56.2008 248.203 56.5791 247.979C56.9574 247.756 57.3675 247.645 57.8096 247.645C58.3018 247.645 58.7324 247.77 59.1016 248.021C59.4707 248.271 59.7305 248.579 59.8809 248.943C60.0768 248.574 60.3708 248.267 60.7627 248.021C61.1546 247.77 61.6195 247.645 62.1572 247.645C62.5993 247.645 63.0003 247.74 63.3604 247.932C63.7249 248.123 64.0143 248.412 64.2285 248.8C64.4473 249.187 64.5566 249.677 64.5566 250.27V255H63.3945V250.27C63.3945 249.709 63.2373 249.31 62.9229 249.073C62.6084 248.832 62.2438 248.711 61.8291 248.711C61.3005 248.711 60.8835 248.873 60.5781 249.196C60.2773 249.515 60.127 249.919 60.127 250.406V255H58.9648V250.146C58.9648 249.714 58.819 249.367 58.5273 249.107C58.2402 248.843 57.8779 248.711 57.4404 248.711C57.1396 248.711 56.8548 248.782 56.5859 248.923C56.3216 249.064 56.1074 249.276 55.9434 249.559C55.7793 249.837 55.6973 250.183 55.6973 250.598V255H54.5352ZM69.2598 255.164C68.5534 255.164 67.9495 255.002 67.4482 254.679C66.9515 254.355 66.571 253.911 66.3066 253.346C66.0423 252.776 65.9102 252.129 65.9102 251.404C65.9102 250.671 66.0492 250.019 66.3271 249.449C66.6051 248.88 66.9902 248.433 67.4824 248.109C67.9746 247.781 68.5397 247.617 69.1777 247.617C69.8477 247.617 70.4287 247.777 70.9209 248.096C71.4131 248.415 71.7913 248.859 72.0557 249.429C72.3245 249.998 72.459 250.657 72.459 251.404V251.726H67.0586C67.0859 252.432 67.2887 253.006 67.667 253.448C68.0452 253.89 68.5762 254.111 69.2598 254.111C69.7747 254.111 70.194 253.993 70.5176 253.756C70.8457 253.519 71.0645 253.214 71.1738 252.84H72.3359C72.2448 253.3 72.0557 253.706 71.7686 254.057C71.4814 254.403 71.1214 254.674 70.6885 254.87C70.2601 255.066 69.7839 255.164 69.2598 255.164ZM67.0723 250.728H71.2969C71.2331 250.094 71.012 249.59 70.6338 249.217C70.2555 248.843 69.7702 248.656 69.1777 248.656C68.5853 248.656 68.1022 248.843 67.7285 249.217C67.3548 249.59 67.1361 250.094 67.0723 250.728ZM73.7852 255V247.781H74.8926V248.916H74.9199C75.0521 248.542 75.2617 248.242 75.5488 248.014C75.8359 247.786 76.2051 247.672 76.6562 247.672C76.7611 247.672 76.8568 247.676 76.9434 247.686C77.0345 247.695 77.1029 247.704 77.1484 247.713V248.875C77.1029 248.861 77.014 248.845 76.8818 248.827C76.7542 248.804 76.6061 248.793 76.4375 248.793C76.0365 248.793 75.6878 248.934 75.3916 249.217C75.0954 249.499 74.9473 249.946 74.9473 250.557V255H73.7852ZM83.3828 255L81.1406 247.781H82.3574L83.2666 250.953C83.3942 251.391 83.515 251.837 83.6289 252.293C83.7474 252.749 83.8659 253.2 83.9844 253.646C84.1029 253.2 84.2214 252.749 84.3398 252.293C84.4583 251.837 84.5814 251.391 84.709 250.953L85.625 247.781H86.7734L87.6758 250.953C87.7988 251.386 87.9173 251.828 88.0312 252.279C88.1497 252.73 88.2682 253.175 88.3867 253.612C88.5052 253.175 88.6237 252.73 88.7422 252.279C88.8607 251.828 88.9837 251.386 89.1113 250.953L90.041 247.781H91.2578L89.0156 255H87.7988L86.8486 251.719C86.7347 251.322 86.6253 250.919 86.5205 250.509C86.4157 250.094 86.3086 249.684 86.1992 249.278C86.0944 249.684 85.9873 250.094 85.8779 250.509C85.7686 250.919 85.6569 251.322 85.543 251.719L84.5723 255H83.3828ZM95.0449 255.164C94.3385 255.164 93.7347 255.002 93.2334 254.679C92.7367 254.355 92.3561 253.911 92.0918 253.346C91.8275 252.776 91.6953 252.129 91.6953 251.404C91.6953 250.671 91.8343 250.019 92.1123 249.449C92.3903 248.88 92.7754 248.433 93.2676 248.109C93.7598 247.781 94.3249 247.617 94.9629 247.617C95.6328 247.617 96.2139 247.777 96.7061 248.096C97.1982 248.415 97.5765 248.859 97.8408 249.429C98.1097 249.998 98.2441 250.657 98.2441 251.404V251.726H92.8438C92.8711 252.432 93.0739 253.006 93.4521 253.448C93.8304 253.89 94.3613 254.111 95.0449 254.111C95.5599 254.111 95.9792 253.993 96.3027 253.756C96.6309 253.519 96.8496 253.214 96.959 252.84H98.1211C98.0299 253.3 97.8408 253.706 97.5537 254.057C97.2666 254.403 96.9066 254.674 96.4736 254.87C96.0452 255.066 95.569 255.164 95.0449 255.164ZM92.8574 250.728H97.082C97.0182 250.094 96.7972 249.59 96.4189 249.217C96.0407 248.843 95.5553 248.656 94.9629 248.656C94.3704 248.656 93.8874 248.843 93.5137 249.217C93.14 249.59 92.9212 250.094 92.8574 250.728ZM103.002 255.137C102.533 255.137 102.1 255.036 101.703 254.836C101.307 254.631 100.979 254.321 100.719 253.906H100.705V255H99.5703V244.814H100.732V248.848H100.746C100.979 248.442 101.295 248.141 101.696 247.945C102.097 247.745 102.533 247.645 103.002 247.645C103.631 247.645 104.18 247.802 104.649 248.116C105.119 248.431 105.483 248.87 105.743 249.436C106.003 249.996 106.133 250.648 106.133 251.391C106.133 252.129 106.003 252.781 105.743 253.346C105.483 253.906 105.119 254.346 104.649 254.665C104.18 254.979 103.631 255.137 103.002 255.137ZM102.824 254.091C103.449 254.091 103.959 253.863 104.355 253.407C104.757 252.947 104.957 252.275 104.957 251.391C104.957 250.507 104.757 249.834 104.355 249.374C103.959 248.914 103.449 248.684 102.824 248.684C102.154 248.684 101.621 248.932 101.225 249.429C100.833 249.921 100.637 250.575 100.637 251.391C100.637 252.206 100.833 252.86 101.225 253.353C101.621 253.845 102.154 254.091 102.824 254.091ZM110.002 255.164C109.487 255.164 109.02 255.08 108.601 254.911C108.181 254.743 107.842 254.487 107.582 254.146C107.322 253.799 107.176 253.364 107.145 252.84H108.293C108.375 253.724 108.936 254.166 109.975 254.166C110.476 254.166 110.87 254.061 111.157 253.852C111.449 253.642 111.595 253.378 111.595 253.059C111.595 252.785 111.494 252.566 111.294 252.402C111.093 252.238 110.831 252.12 110.508 252.047L109.346 251.773C107.988 251.454 107.309 250.771 107.309 249.723C107.309 249.312 107.418 248.95 107.637 248.636C107.86 248.317 108.168 248.068 108.56 247.891C108.956 247.708 109.412 247.617 109.927 247.617C110.428 247.617 110.877 247.713 111.273 247.904C111.674 248.091 111.991 248.358 112.224 248.704C112.461 249.05 112.586 249.463 112.6 249.941H111.465C111.46 249.559 111.319 249.242 111.041 248.991C110.763 248.741 110.392 248.615 109.927 248.615C109.485 248.615 109.132 248.722 108.867 248.937C108.603 249.151 108.471 249.413 108.471 249.723C108.471 249.996 108.571 250.217 108.771 250.386C108.972 250.55 109.245 250.673 109.592 250.755L110.754 251.028C111.447 251.192 111.955 251.438 112.278 251.767C112.602 252.09 112.764 252.512 112.764 253.031C112.764 253.478 112.643 253.861 112.401 254.18C112.16 254.499 111.829 254.743 111.41 254.911C110.995 255.08 110.526 255.164 110.002 255.164ZM117.419 247.781V248.779H115.956V253.25C115.956 253.528 116.013 253.724 116.127 253.838C116.245 253.947 116.453 254.002 116.749 254.002H117.419V255H116.64C115.409 255 114.794 254.458 114.794 253.373V248.779H113.509V247.781H114.794V245.812H115.956V247.781H117.419ZM121.473 255.164C120.807 255.164 120.222 255.005 119.716 254.686C119.215 254.362 118.823 253.918 118.54 253.353C118.262 252.787 118.123 252.138 118.123 251.404C118.123 250.666 118.262 250.012 118.54 249.442C118.823 248.873 119.215 248.426 119.716 248.103C120.222 247.779 120.807 247.617 121.473 247.617C122.143 247.617 122.728 247.779 123.229 248.103C123.731 248.426 124.12 248.873 124.398 249.442C124.681 250.012 124.822 250.666 124.822 251.404C124.822 252.138 124.681 252.787 124.398 253.353C124.12 253.918 123.731 254.362 123.229 254.686C122.728 255.005 122.143 255.164 121.473 255.164ZM121.473 254.111C122.156 254.111 122.689 253.865 123.072 253.373C123.455 252.876 123.646 252.22 123.646 251.404C123.646 250.579 123.453 249.919 123.065 249.422C122.683 248.921 122.152 248.67 121.473 248.67C120.794 248.67 120.26 248.918 119.873 249.415C119.49 249.912 119.299 250.575 119.299 251.404C119.299 252.225 119.49 252.881 119.873 253.373C120.256 253.865 120.789 254.111 121.473 254.111ZM126.176 255V247.781H127.283V248.916H127.311C127.443 248.542 127.652 248.242 127.939 248.014C128.227 247.786 128.596 247.672 129.047 247.672C129.152 247.672 129.247 247.676 129.334 247.686C129.425 247.695 129.493 247.704 129.539 247.713V248.875C129.493 248.861 129.405 248.845 129.272 248.827C129.145 248.804 128.997 248.793 128.828 248.793C128.427 248.793 128.078 248.934 127.782 249.217C127.486 249.499 127.338 249.946 127.338 250.557V255H126.176ZM133.531 255.164C132.825 255.164 132.221 255.002 131.72 254.679C131.223 254.355 130.842 253.911 130.578 253.346C130.314 252.776 130.182 252.129 130.182 251.404C130.182 250.671 130.321 250.019 130.599 249.449C130.877 248.88 131.262 248.433 131.754 248.109C132.246 247.781 132.811 247.617 133.449 247.617C134.119 247.617 134.7 247.777 135.192 248.096C135.685 248.415 136.063 248.859 136.327 249.429C136.596 249.998 136.73 250.657 136.73 251.404V251.726H131.33C131.357 252.432 131.56 253.006 131.938 253.448C132.317 253.89 132.848 254.111 133.531 254.111C134.046 254.111 134.465 253.993 134.789 253.756C135.117 253.519 135.336 253.214 135.445 252.84H136.607C136.516 253.3 136.327 253.706 136.04 254.057C135.753 254.403 135.393 254.674 134.96 254.87C134.532 255.066 134.055 255.164 133.531 255.164ZM131.344 250.728H135.568C135.505 250.094 135.284 249.59 134.905 249.217C134.527 248.843 134.042 248.656 133.449 248.656C132.857 248.656 132.374 248.843 132 249.217C131.626 249.59 131.408 250.094 131.344 250.728ZM137.578 256.921L138.18 253.578H139.424L138.426 256.921H137.578ZM144.688 257.857V256.832H145.398C145.827 256.832 146.153 256.543 146.376 255.964L146.772 254.938L143.977 247.781H145.234L146.793 251.938C146.893 252.206 146.991 252.478 147.087 252.751C147.187 253.02 147.283 253.289 147.374 253.558C147.47 253.289 147.565 253.02 147.661 252.751C147.761 252.478 147.862 252.206 147.962 251.938L149.493 247.781H150.73L147.401 256.34C147.215 256.823 146.948 257.197 146.602 257.461C146.255 257.725 145.854 257.857 145.398 257.857H144.688ZM154.504 255.164C153.839 255.164 153.253 255.005 152.747 254.686C152.246 254.362 151.854 253.918 151.571 253.353C151.293 252.787 151.154 252.138 151.154 251.404C151.154 250.666 151.293 250.012 151.571 249.442C151.854 248.873 152.246 248.426 152.747 248.103C153.253 247.779 153.839 247.617 154.504 247.617C155.174 247.617 155.759 247.779 156.261 248.103C156.762 248.426 157.152 248.873 157.43 249.442C157.712 250.012 157.854 250.666 157.854 251.404C157.854 252.138 157.712 252.787 157.43 253.353C157.152 253.918 156.762 254.362 156.261 254.686C155.759 255.005 155.174 255.164 154.504 255.164ZM154.504 254.111C155.188 254.111 155.721 253.865 156.104 253.373C156.486 252.876 156.678 252.22 156.678 251.404C156.678 250.579 156.484 249.919 156.097 249.422C155.714 248.921 155.183 248.67 154.504 248.67C153.825 248.67 153.292 248.918 152.904 249.415C152.521 249.912 152.33 250.575 152.33 251.404C152.33 252.225 152.521 252.881 152.904 253.373C153.287 253.865 153.82 254.111 154.504 254.111ZM161.859 255.137C161.376 255.137 160.932 255.032 160.526 254.822C160.125 254.608 159.804 254.289 159.562 253.865C159.326 253.437 159.207 252.904 159.207 252.266V247.781H160.369V252.184C160.369 252.808 160.52 253.28 160.82 253.599C161.121 253.913 161.54 254.07 162.078 254.07C162.607 254.07 163.056 253.909 163.425 253.585C163.794 253.261 163.979 252.735 163.979 252.006V247.781H165.141V255H164.006V253.94C163.755 254.351 163.448 254.654 163.083 254.85C162.723 255.041 162.315 255.137 161.859 255.137ZM166.863 255V247.781H167.971V248.916H167.998C168.13 248.542 168.34 248.242 168.627 248.014C168.914 247.786 169.283 247.672 169.734 247.672C169.839 247.672 169.935 247.676 170.021 247.686C170.113 247.695 170.181 247.704 170.227 247.713V248.875C170.181 248.861 170.092 248.845 169.96 248.827C169.832 248.804 169.684 248.793 169.516 248.793C169.115 248.793 168.766 248.934 168.47 249.217C168.174 249.499 168.025 249.946 168.025 250.557V255H166.863ZM175.025 255V244.814H178.676C179.738 244.814 180.578 245.092 181.198 245.648C181.823 246.2 182.135 246.952 182.135 247.904C182.135 248.538 181.989 249.087 181.697 249.552C181.41 250.012 181.002 250.37 180.474 250.625C179.95 250.876 179.332 251.001 178.621 251.001H176.256V255H175.025ZM176.256 249.907H178.635C179.341 249.907 179.897 249.729 180.303 249.374C180.713 249.014 180.918 248.524 180.918 247.904C180.918 247.285 180.713 246.797 180.303 246.441C179.897 246.086 179.341 245.908 178.635 245.908H176.256V249.907ZM187.829 255.164C186.931 255.164 186.134 254.938 185.437 254.487C184.739 254.036 184.192 253.416 183.796 252.628C183.399 251.835 183.201 250.93 183.201 249.914C183.201 248.889 183.399 247.982 183.796 247.193C184.192 246.4 184.739 245.778 185.437 245.327C186.134 244.876 186.931 244.65 187.829 244.65C188.731 244.65 189.529 244.876 190.222 245.327C190.919 245.778 191.466 246.4 191.862 247.193C192.259 247.982 192.457 248.889 192.457 249.914C192.457 250.93 192.259 251.835 191.862 252.628C191.466 253.416 190.919 254.036 190.222 254.487C189.529 254.938 188.731 255.164 187.829 255.164ZM187.829 254.016C188.444 254.016 189.009 253.858 189.524 253.544C190.039 253.225 190.452 252.76 190.762 252.149C191.072 251.539 191.227 250.794 191.227 249.914C191.227 249.03 191.072 248.283 190.762 247.672C190.452 247.057 190.039 246.592 189.524 246.277C189.009 245.958 188.444 245.799 187.829 245.799C187.214 245.799 186.649 245.958 186.134 246.277C185.619 246.592 185.206 247.057 184.896 247.672C184.587 248.283 184.432 249.03 184.432 249.914C184.432 250.794 184.587 251.539 184.896 252.149C185.206 252.76 185.619 253.225 186.134 253.544C186.649 253.858 187.214 254.016 187.829 254.016ZM197.447 255.164C196.663 255.164 195.984 255.025 195.41 254.747C194.836 254.465 194.392 254.066 194.077 253.551C193.763 253.036 193.605 252.425 193.605 251.719H194.863C194.863 252.448 195.089 253.018 195.54 253.428C195.996 253.838 196.632 254.043 197.447 254.043C198.19 254.043 198.785 253.881 199.231 253.558C199.683 253.234 199.908 252.799 199.908 252.252C199.908 251.828 199.756 251.484 199.45 251.22C199.145 250.955 198.625 250.732 197.892 250.55L196.75 250.27C195.711 250.014 194.961 249.673 194.501 249.244C194.041 248.816 193.811 248.255 193.811 247.562C193.811 246.975 193.954 246.464 194.241 246.031C194.533 245.594 194.943 245.254 195.472 245.013C196 244.771 196.618 244.65 197.324 244.65C198.386 244.65 199.231 244.935 199.86 245.505C200.494 246.07 200.824 246.842 200.852 247.822H199.635C199.598 247.184 199.37 246.685 198.951 246.325C198.532 245.961 197.976 245.778 197.283 245.778C196.622 245.778 196.08 245.94 195.656 246.264C195.237 246.583 195.027 246.995 195.027 247.501C195.027 247.897 195.182 248.221 195.492 248.472C195.807 248.718 196.333 248.934 197.071 249.121L198.227 249.408C199.22 249.654 199.954 250.003 200.428 250.454C200.902 250.905 201.139 251.486 201.139 252.197C201.139 252.785 200.984 253.302 200.674 253.749C200.368 254.196 199.938 254.544 199.382 254.795C198.83 255.041 198.186 255.164 197.447 255.164ZM202.055 256.921L202.656 253.578H203.9L202.902 256.921H202.055ZM211.311 255.109C210.595 255.109 209.996 254.925 209.513 254.556C209.034 254.187 208.795 253.642 208.795 252.922C208.795 252.507 208.875 252.17 209.034 251.91C209.198 251.65 209.415 251.448 209.684 251.302C209.957 251.151 210.265 251.037 210.606 250.96C210.953 250.882 211.306 250.821 211.666 250.775C212.126 250.712 212.489 250.664 212.753 250.632C213.017 250.6 213.204 250.548 213.313 250.475C213.427 250.402 213.484 250.274 213.484 250.092V250.023C213.484 249.632 213.343 249.308 213.061 249.053C212.783 248.798 212.391 248.67 211.885 248.67C211.383 248.67 210.971 248.793 210.647 249.039C210.328 249.281 210.155 249.581 210.128 249.941H208.945C208.968 249.499 209.105 249.107 209.355 248.766C209.606 248.419 209.948 248.146 210.381 247.945C210.814 247.745 211.315 247.645 211.885 247.645C212.728 247.645 213.396 247.863 213.888 248.301C214.384 248.734 214.633 249.308 214.633 250.023V255H213.484V253.975H213.457C213.37 254.148 213.243 254.323 213.074 254.501C212.906 254.674 212.678 254.82 212.391 254.938C212.108 255.052 211.748 255.109 211.311 255.109ZM211.475 254.07C211.949 254.07 212.334 253.986 212.63 253.817C212.926 253.644 213.143 253.421 213.279 253.147C213.416 252.874 213.484 252.58 213.484 252.266V251.363C213.398 251.445 213.168 251.521 212.794 251.589C212.42 251.653 212.026 251.714 211.611 251.773C211.333 251.81 211.069 251.874 210.818 251.965C210.572 252.051 210.372 252.177 210.217 252.341C210.062 252.5 209.984 252.717 209.984 252.99C209.984 253.327 210.117 253.592 210.381 253.783C210.65 253.975 211.014 254.07 211.475 254.07ZM217.518 250.775V255H216.355V247.781H217.49V248.841C217.741 248.431 218.046 248.13 218.406 247.938C218.771 247.743 219.181 247.645 219.637 247.645C220.124 247.645 220.569 247.752 220.97 247.966C221.371 248.175 221.69 248.492 221.927 248.916C222.168 249.34 222.289 249.873 222.289 250.516V255H221.127V250.598C221.127 249.973 220.977 249.504 220.676 249.189C220.38 248.87 219.96 248.711 219.418 248.711C218.894 248.711 218.445 248.873 218.071 249.196C217.702 249.52 217.518 250.046 217.518 250.775ZM226.773 255.137C226.149 255.137 225.6 254.979 225.126 254.665C224.657 254.346 224.292 253.906 224.032 253.346C223.772 252.781 223.643 252.129 223.643 251.391C223.643 250.648 223.772 249.996 224.032 249.436C224.292 248.87 224.657 248.431 225.126 248.116C225.6 247.802 226.149 247.645 226.773 247.645C227.243 247.645 227.678 247.745 228.079 247.945C228.48 248.141 228.797 248.442 229.029 248.848H229.043V244.814H230.205V255H229.07V253.906H229.057C228.797 254.321 228.469 254.631 228.072 254.836C227.676 255.036 227.243 255.137 226.773 255.137ZM226.951 254.091C227.621 254.091 228.152 253.845 228.544 253.353C228.94 252.86 229.139 252.206 229.139 251.391C229.139 250.575 228.94 249.921 228.544 249.429C228.152 248.932 227.621 248.684 226.951 248.684C226.327 248.684 225.814 248.914 225.413 249.374C225.017 249.834 224.818 250.507 224.818 251.391C224.818 252.275 225.017 252.947 225.413 253.407C225.814 253.863 226.327 254.091 226.951 254.091ZM238.579 247.781V248.779H237.116V253.25C237.116 253.528 237.173 253.724 237.287 253.838C237.406 253.947 237.613 254.002 237.909 254.002H238.579V255H237.8C236.569 255 235.954 254.458 235.954 253.373V248.779H234.669V247.781H235.954V245.812H237.116V247.781H238.579ZM240.951 250.775V255H239.789V244.814H240.951V248.793C241.202 248.401 241.505 248.112 241.86 247.925C242.22 247.738 242.624 247.645 243.07 247.645C243.558 247.645 244.002 247.752 244.403 247.966C244.804 248.175 245.123 248.492 245.36 248.916C245.602 249.34 245.723 249.873 245.723 250.516V255H244.561V250.598C244.561 249.973 244.41 249.504 244.109 249.189C243.813 248.87 243.394 248.711 242.852 248.711C242.327 248.711 241.879 248.873 241.505 249.196C241.136 249.52 240.951 250.046 240.951 250.775ZM247.445 255V247.781H248.607V255H247.445ZM248.026 246.373C247.808 246.373 247.621 246.296 247.466 246.141C247.311 245.986 247.233 245.799 247.233 245.58C247.233 245.361 247.311 245.174 247.466 245.02C247.621 244.865 247.808 244.787 248.026 244.787C248.245 244.787 248.432 244.865 248.587 245.02C248.742 245.174 248.819 245.361 248.819 245.58C248.819 245.799 248.742 245.986 248.587 246.141C248.432 246.296 248.245 246.373 248.026 246.373ZM250.33 255V247.781H251.438V248.916H251.465C251.597 248.542 251.807 248.242 252.094 248.014C252.381 247.786 252.75 247.672 253.201 247.672C253.306 247.672 253.402 247.676 253.488 247.686C253.579 247.695 253.648 247.704 253.693 247.713V248.875C253.648 248.861 253.559 248.845 253.427 248.827C253.299 248.804 253.151 248.793 252.982 248.793C252.581 248.793 252.233 248.934 251.937 249.217C251.64 249.499 251.492 249.946 251.492 250.557V255H250.33ZM257.467 255.137C256.842 255.137 256.293 254.979 255.819 254.665C255.35 254.346 254.985 253.906 254.726 253.346C254.466 252.781 254.336 252.129 254.336 251.391C254.336 250.648 254.466 249.996 254.726 249.436C254.985 248.87 255.35 248.431 255.819 248.116C256.293 247.802 256.842 247.645 257.467 247.645C257.936 247.645 258.371 247.745 258.772 247.945C259.174 248.141 259.49 248.442 259.723 248.848H259.736V244.814H260.898V255H259.764V253.906H259.75C259.49 254.321 259.162 254.631 258.766 254.836C258.369 255.036 257.936 255.137 257.467 255.137ZM257.645 254.091C258.314 254.091 258.845 253.845 259.237 253.353C259.634 252.86 259.832 252.206 259.832 251.391C259.832 250.575 259.634 249.921 259.237 249.429C258.845 248.932 258.314 248.684 257.645 248.684C257.02 248.684 256.507 248.914 256.106 249.374C255.71 249.834 255.512 250.507 255.512 251.391C255.512 252.275 255.71 252.947 256.106 253.407C256.507 253.863 257.02 254.091 257.645 254.091ZM266.989 250.297V251.391H262.532V250.297H266.989ZM268.623 257.857V247.781H269.758V248.848H269.771C270.004 248.442 270.325 248.141 270.735 247.945C271.146 247.745 271.585 247.645 272.055 247.645C272.684 247.645 273.233 247.802 273.702 248.116C274.172 248.431 274.536 248.87 274.796 249.436C275.056 249.996 275.186 250.648 275.186 251.391C275.186 252.129 275.056 252.781 274.796 253.346C274.536 253.906 274.172 254.346 273.702 254.665C273.233 254.979 272.684 255.137 272.055 255.137C271.585 255.137 271.157 255.036 270.77 254.836C270.382 254.631 270.059 254.321 269.799 253.906H269.785V257.857H268.623ZM271.877 254.091C272.501 254.091 273.012 253.863 273.408 253.407C273.809 252.947 274.01 252.275 274.01 251.391C274.01 250.507 273.809 249.834 273.408 249.374C273.012 248.914 272.501 248.684 271.877 248.684C271.207 248.684 270.674 248.932 270.277 249.429C269.885 249.921 269.689 250.575 269.689 251.391C269.689 252.206 269.885 252.86 270.277 253.353C270.674 253.845 271.207 254.091 271.877 254.091ZM278.809 255.109C278.093 255.109 277.494 254.925 277.011 254.556C276.532 254.187 276.293 253.642 276.293 252.922C276.293 252.507 276.373 252.17 276.532 251.91C276.696 251.65 276.913 251.448 277.182 251.302C277.455 251.151 277.763 251.037 278.104 250.96C278.451 250.882 278.804 250.821 279.164 250.775C279.624 250.712 279.987 250.664 280.251 250.632C280.515 250.6 280.702 250.548 280.812 250.475C280.925 250.402 280.982 250.274 280.982 250.092V250.023C280.982 249.632 280.841 249.308 280.559 249.053C280.281 248.798 279.889 248.67 279.383 248.67C278.882 248.67 278.469 248.793 278.146 249.039C277.826 249.281 277.653 249.581 277.626 249.941H276.443C276.466 249.499 276.603 249.107 276.854 248.766C277.104 248.419 277.446 248.146 277.879 247.945C278.312 247.745 278.813 247.645 279.383 247.645C280.226 247.645 280.894 247.863 281.386 248.301C281.882 248.734 282.131 249.308 282.131 250.023V255H280.982V253.975H280.955C280.868 254.148 280.741 254.323 280.572 254.501C280.404 254.674 280.176 254.82 279.889 254.938C279.606 255.052 279.246 255.109 278.809 255.109ZM278.973 254.07C279.447 254.07 279.832 253.986 280.128 253.817C280.424 253.644 280.641 253.421 280.777 253.147C280.914 252.874 280.982 252.58 280.982 252.266V251.363C280.896 251.445 280.666 251.521 280.292 251.589C279.918 251.653 279.524 251.714 279.109 251.773C278.831 251.81 278.567 251.874 278.316 251.965C278.07 252.051 277.87 252.177 277.715 252.341C277.56 252.5 277.482 252.717 277.482 252.99C277.482 253.327 277.615 253.592 277.879 253.783C278.148 253.975 278.512 254.07 278.973 254.07ZM283.854 255V247.781H284.961V248.916H284.988C285.12 248.542 285.33 248.242 285.617 248.014C285.904 247.786 286.273 247.672 286.725 247.672C286.829 247.672 286.925 247.676 287.012 247.686C287.103 247.695 287.171 247.704 287.217 247.713V248.875C287.171 248.861 287.082 248.845 286.95 248.827C286.823 248.804 286.674 248.793 286.506 248.793C286.105 248.793 285.756 248.934 285.46 249.217C285.164 249.499 285.016 249.946 285.016 250.557V255H283.854ZM291.735 247.781V248.779H290.272V253.25C290.272 253.528 290.329 253.724 290.443 253.838C290.562 253.947 290.769 254.002 291.065 254.002H291.735V255H290.956C289.726 255 289.11 254.458 289.11 253.373V248.779H287.825V247.781H289.11V245.812H290.272V247.781H291.735ZM293.41 257.857V256.832H294.121C294.549 256.832 294.875 256.543 295.099 255.964L295.495 254.938L292.699 247.781H293.957L295.516 251.938C295.616 252.206 295.714 252.478 295.81 252.751C295.91 253.02 296.006 253.289 296.097 253.558C296.192 253.289 296.288 253.02 296.384 252.751C296.484 252.478 296.584 252.206 296.685 251.938L298.216 247.781H299.453L296.124 256.34C295.937 256.823 295.671 257.197 295.324 257.461C294.978 257.725 294.577 257.857 294.121 257.857H293.41ZM23.0625 275.109C22.347 275.109 21.7477 274.925 21.2646 274.556C20.7861 274.187 20.5469 273.642 20.5469 272.922C20.5469 272.507 20.6266 272.17 20.7861 271.91C20.9502 271.65 21.1667 271.448 21.4355 271.302C21.709 271.151 22.0166 271.037 22.3584 270.96C22.7048 270.882 23.0579 270.821 23.418 270.775C23.8783 270.712 24.2406 270.664 24.5049 270.632C24.7692 270.6 24.9561 270.548 25.0654 270.475C25.1794 270.402 25.2363 270.274 25.2363 270.092V270.023C25.2363 269.632 25.0951 269.308 24.8125 269.053C24.5345 268.798 24.1426 268.67 23.6367 268.67C23.1354 268.67 22.723 268.793 22.3994 269.039C22.0804 269.281 21.9072 269.581 21.8799 269.941H20.6973C20.7201 269.499 20.8568 269.107 21.1074 268.766C21.3581 268.419 21.6999 268.146 22.1328 267.945C22.5658 267.745 23.0671 267.645 23.6367 267.645C24.4798 267.645 25.1475 267.863 25.6396 268.301C26.1364 268.734 26.3848 269.308 26.3848 270.023V275H25.2363V273.975H25.209C25.1224 274.148 24.9948 274.323 24.8262 274.501C24.6576 274.674 24.4297 274.82 24.1426 274.938C23.86 275.052 23.5 275.109 23.0625 275.109ZM23.2266 274.07C23.7005 274.07 24.0856 273.986 24.3818 273.817C24.6781 273.644 24.8945 273.421 25.0312 273.147C25.168 272.874 25.2363 272.58 25.2363 272.266V271.363C25.1497 271.445 24.9196 271.521 24.5459 271.589C24.1722 271.653 23.778 271.714 23.3633 271.773C23.0853 271.81 22.821 271.874 22.5703 271.965C22.3242 272.051 22.1237 272.177 21.9688 272.341C21.8138 272.5 21.7363 272.717 21.7363 272.99C21.7363 273.327 21.8685 273.592 22.1328 273.783C22.4017 273.975 22.7663 274.07 23.2266 274.07ZM28.1074 277.857V267.781H29.2422V268.848H29.2559C29.4883 268.442 29.8096 268.141 30.2197 267.945C30.6299 267.745 31.0697 267.645 31.5391 267.645C32.168 267.645 32.7171 267.802 33.1865 268.116C33.6559 268.431 34.0205 268.87 34.2803 269.436C34.54 269.996 34.6699 270.648 34.6699 271.391C34.6699 272.129 34.54 272.781 34.2803 273.346C34.0205 273.906 33.6559 274.346 33.1865 274.665C32.7171 274.979 32.168 275.137 31.5391 275.137C31.0697 275.137 30.6413 275.036 30.2539 274.836C29.8665 274.631 29.543 274.321 29.2832 273.906H29.2695V277.857H28.1074ZM31.3613 274.091C31.9857 274.091 32.4961 273.863 32.8926 273.407C33.2936 272.947 33.4941 272.275 33.4941 271.391C33.4941 270.507 33.2936 269.834 32.8926 269.374C32.4961 268.914 31.9857 268.684 31.3613 268.684C30.6914 268.684 30.1582 268.932 29.7617 269.429C29.3698 269.921 29.1738 270.575 29.1738 271.391C29.1738 272.206 29.3698 272.86 29.7617 273.353C30.1582 273.845 30.6914 274.091 31.3613 274.091ZM36.0234 277.857V267.781H37.1582V268.848H37.1719C37.4043 268.442 37.7256 268.141 38.1357 267.945C38.5459 267.745 38.9857 267.645 39.4551 267.645C40.084 267.645 40.6331 267.802 41.1025 268.116C41.5719 268.431 41.9365 268.87 42.1963 269.436C42.4561 269.996 42.5859 270.648 42.5859 271.391C42.5859 272.129 42.4561 272.781 42.1963 273.346C41.9365 273.906 41.5719 274.346 41.1025 274.665C40.6331 274.979 40.084 275.137 39.4551 275.137C38.9857 275.137 38.5573 275.036 38.1699 274.836C37.7826 274.631 37.459 274.321 37.1992 273.906H37.1855V277.857H36.0234ZM39.2773 274.091C39.9017 274.091 40.4121 273.863 40.8086 273.407C41.2096 272.947 41.4102 272.275 41.4102 271.391C41.4102 270.507 41.2096 269.834 40.8086 269.374C40.4121 268.914 39.9017 268.684 39.2773 268.684C38.6074 268.684 38.0742 268.932 37.6777 269.429C37.2858 269.921 37.0898 270.575 37.0898 271.391C37.0898 272.206 37.2858 272.86 37.6777 273.353C38.0742 273.845 38.6074 274.091 39.2773 274.091ZM46.4551 275.164C45.9401 275.164 45.473 275.08 45.0537 274.911C44.6344 274.743 44.2949 274.487 44.0352 274.146C43.7754 273.799 43.6296 273.364 43.5977 272.84H44.7461C44.8281 273.724 45.3887 274.166 46.4277 274.166C46.929 274.166 47.3232 274.061 47.6104 273.852C47.902 273.642 48.0479 273.378 48.0479 273.059C48.0479 272.785 47.9476 272.566 47.7471 272.402C47.5465 272.238 47.2845 272.12 46.9609 272.047L45.7988 271.773C44.4408 271.454 43.7617 270.771 43.7617 269.723C43.7617 269.312 43.8711 268.95 44.0898 268.636C44.3132 268.317 44.6208 268.068 45.0127 267.891C45.4092 267.708 45.8649 267.617 46.3799 267.617C46.8812 267.617 47.3301 267.713 47.7266 267.904C48.1276 268.091 48.4443 268.358 48.6768 268.704C48.9137 269.05 49.0391 269.463 49.0527 269.941H47.918C47.9134 269.559 47.7721 269.242 47.4941 268.991C47.2161 268.741 46.8447 268.615 46.3799 268.615C45.9378 268.615 45.5846 268.722 45.3203 268.937C45.056 269.151 44.9238 269.413 44.9238 269.723C44.9238 269.996 45.0241 270.217 45.2246 270.386C45.4251 270.55 45.6986 270.673 46.0449 270.755L47.207 271.028C47.8997 271.192 48.4079 271.438 48.7314 271.767C49.055 272.09 49.2168 272.512 49.2168 273.031C49.2168 273.478 49.096 273.861 48.8545 274.18C48.613 274.499 48.2826 274.743 47.8633 274.911C47.4486 275.08 46.9792 275.164 46.4551 275.164ZM55.2461 264.814V275H54.084V264.814H55.2461ZM56.9688 275V267.781H58.1309V275H56.9688ZM57.5498 266.373C57.3311 266.373 57.1442 266.296 56.9893 266.141C56.8343 265.986 56.7568 265.799 56.7568 265.58C56.7568 265.361 56.8343 265.174 56.9893 265.02C57.1442 264.865 57.3311 264.787 57.5498 264.787C57.7686 264.787 57.9554 264.865 58.1104 265.02C58.2653 265.174 58.3428 265.361 58.3428 265.58C58.3428 265.799 58.2653 265.986 58.1104 266.141C57.9554 266.296 57.7686 266.373 57.5498 266.373ZM59.8535 275V264.814H61.0156V271.028H61.0293L64.3857 267.781H65.8896L62.7109 270.871L66.1221 275H64.6455L61.8223 271.603L61.0156 272.334V275H59.8535ZM69.6289 275.164C68.9225 275.164 68.3187 275.002 67.8174 274.679C67.3206 274.355 66.9401 273.911 66.6758 273.346C66.4115 272.776 66.2793 272.129 66.2793 271.404C66.2793 270.671 66.4183 270.019 66.6963 269.449C66.9743 268.88 67.3594 268.433 67.8516 268.109C68.3438 267.781 68.9089 267.617 69.5469 267.617C70.2168 267.617 70.7979 267.777 71.29 268.096C71.7822 268.415 72.1605 268.859 72.4248 269.429C72.6937 269.998 72.8281 270.657 72.8281 271.404V271.726H67.4277C67.4551 272.432 67.6579 273.006 68.0361 273.448C68.4144 273.89 68.9453 274.111 69.6289 274.111C70.1439 274.111 70.5632 273.993 70.8867 273.756C71.2148 273.519 71.4336 273.214 71.543 272.84H72.7051C72.6139 273.3 72.4248 273.706 72.1377 274.057C71.8506 274.403 71.4906 274.674 71.0576 274.87C70.6292 275.066 70.153 275.164 69.6289 275.164ZM67.4414 270.728H71.666C71.6022 270.094 71.3812 269.59 71.0029 269.217C70.6247 268.843 70.1393 268.656 69.5469 268.656C68.9544 268.656 68.4714 268.843 68.0977 269.217C67.724 269.59 67.5052 270.094 67.4414 270.728ZM77.1348 265.908V264.814H84.9961V265.908H81.6875V275H80.457V265.908H77.1348ZM86.8281 275.109C86.1126 275.109 85.5133 274.925 85.0303 274.556C84.5518 274.187 84.3125 273.642 84.3125 272.922C84.3125 272.507 84.3923 272.17 84.5518 271.91C84.7158 271.65 84.9323 271.448 85.2012 271.302C85.4746 271.151 85.7822 271.037 86.124 270.96C86.4704 270.882 86.8236 270.821 87.1836 270.775C87.6439 270.712 88.0062 270.664 88.2705 270.632C88.5348 270.6 88.7217 270.548 88.8311 270.475C88.945 270.402 89.002 270.274 89.002 270.092V270.023C89.002 269.632 88.8607 269.308 88.5781 269.053C88.3001 268.798 87.9082 268.67 87.4023 268.67C86.901 268.67 86.4886 268.793 86.165 269.039C85.846 269.281 85.6729 269.581 85.6455 269.941H84.4629C84.4857 269.499 84.6224 269.107 84.873 268.766C85.1237 268.419 85.4655 268.146 85.8984 267.945C86.3314 267.745 86.8327 267.645 87.4023 267.645C88.2454 267.645 88.9131 267.863 89.4053 268.301C89.902 268.734 90.1504 269.308 90.1504 270.023V275H89.002V273.975H88.9746C88.888 274.148 88.7604 274.323 88.5918 274.501C88.4232 274.674 88.1953 274.82 87.9082 274.938C87.6257 275.052 87.2656 275.109 86.8281 275.109ZM86.9922 274.07C87.4661 274.07 87.8512 273.986 88.1475 273.817C88.4437 273.644 88.6602 273.421 88.7969 273.147C88.9336 272.874 89.002 272.58 89.002 272.266V271.363C88.9154 271.445 88.6852 271.521 88.3115 271.589C87.9378 271.653 87.5436 271.714 87.1289 271.773C86.8509 271.81 86.5866 271.874 86.3359 271.965C86.0898 272.051 85.8893 272.177 85.7344 272.341C85.5794 272.5 85.502 272.717 85.502 272.99C85.502 273.327 85.6341 273.592 85.8984 273.783C86.1673 273.975 86.5319 274.07 86.9922 274.07ZM93.0352 264.814V275H91.873V264.814H93.0352ZM96.959 275.109C96.2435 275.109 95.6442 274.925 95.1611 274.556C94.6826 274.187 94.4434 273.642 94.4434 272.922C94.4434 272.507 94.5231 272.17 94.6826 271.91C94.8467 271.65 95.0632 271.448 95.332 271.302C95.6055 271.151 95.9131 271.037 96.2549 270.96C96.6012 270.882 96.9544 270.821 97.3145 270.775C97.7747 270.712 98.137 270.664 98.4014 270.632C98.6657 270.6 98.8525 270.548 98.9619 270.475C99.0758 270.402 99.1328 270.274 99.1328 270.092V270.023C99.1328 269.632 98.9915 269.308 98.709 269.053C98.431 268.798 98.0391 268.67 97.5332 268.67C97.0319 268.67 96.6195 268.793 96.2959 269.039C95.9769 269.281 95.8037 269.581 95.7764 269.941H94.5938C94.6165 269.499 94.7533 269.107 95.0039 268.766C95.2546 268.419 95.5964 268.146 96.0293 267.945C96.4622 267.745 96.9635 267.645 97.5332 267.645C98.3763 267.645 99.0439 267.863 99.5361 268.301C100.033 268.734 100.281 269.308 100.281 270.023V275H99.1328V273.975H99.1055C99.0189 274.148 98.8913 274.323 98.7227 274.501C98.554 274.674 98.3262 274.82 98.0391 274.938C97.7565 275.052 97.3965 275.109 96.959 275.109ZM97.123 274.07C97.597 274.07 97.9821 273.986 98.2783 273.817C98.5745 273.644 98.791 273.421 98.9277 273.147C99.0645 272.874 99.1328 272.58 99.1328 272.266V271.363C99.0462 271.445 98.8161 271.521 98.4424 271.589C98.0687 271.653 97.6745 271.714 97.2598 271.773C96.9818 271.81 96.7174 271.874 96.4668 271.965C96.2207 272.051 96.0202 272.177 95.8652 272.341C95.7103 272.5 95.6328 272.717 95.6328 272.99C95.6328 273.327 95.765 273.592 96.0293 273.783C96.2982 273.975 96.6628 274.07 97.123 274.07ZM105.436 275.137C104.966 275.137 104.533 275.036 104.137 274.836C103.74 274.631 103.412 274.321 103.152 273.906H103.139V275H102.004V264.814H103.166V268.848H103.18C103.412 268.442 103.729 268.141 104.13 267.945C104.531 267.745 104.966 267.645 105.436 267.645C106.064 267.645 106.614 267.802 107.083 268.116C107.552 268.431 107.917 268.87 108.177 269.436C108.437 269.996 108.566 270.648 108.566 271.391C108.566 272.129 108.437 272.781 108.177 273.346C107.917 273.906 107.552 274.346 107.083 274.665C106.614 274.979 106.064 275.137 105.436 275.137ZM105.258 274.091C105.882 274.091 106.393 273.863 106.789 273.407C107.19 272.947 107.391 272.275 107.391 271.391C107.391 270.507 107.19 269.834 106.789 269.374C106.393 268.914 105.882 268.684 105.258 268.684C104.588 268.684 104.055 268.932 103.658 269.429C103.266 269.921 103.07 270.575 103.07 271.391C103.07 272.206 103.266 272.86 103.658 273.353C104.055 273.845 104.588 274.091 105.258 274.091ZM112.189 275.109C111.474 275.109 110.875 274.925 110.392 274.556C109.913 274.187 109.674 273.642 109.674 272.922C109.674 272.507 109.754 272.17 109.913 271.91C110.077 271.65 110.294 271.448 110.562 271.302C110.836 271.151 111.144 271.037 111.485 270.96C111.832 270.882 112.185 270.821 112.545 270.775C113.005 270.712 113.368 270.664 113.632 270.632C113.896 270.6 114.083 270.548 114.192 270.475C114.306 270.402 114.363 270.274 114.363 270.092V270.023C114.363 269.632 114.222 269.308 113.939 269.053C113.661 268.798 113.27 268.67 112.764 268.67C112.262 268.67 111.85 268.793 111.526 269.039C111.207 269.281 111.034 269.581 111.007 269.941H109.824C109.847 269.499 109.984 269.107 110.234 268.766C110.485 268.419 110.827 268.146 111.26 267.945C111.693 267.745 112.194 267.645 112.764 267.645C113.607 267.645 114.274 267.863 114.767 268.301C115.263 268.734 115.512 269.308 115.512 270.023V275H114.363V273.975H114.336C114.249 274.148 114.122 274.323 113.953 274.501C113.785 274.674 113.557 274.82 113.27 274.938C112.987 275.052 112.627 275.109 112.189 275.109ZM112.354 274.07C112.827 274.07 113.213 273.986 113.509 273.817C113.805 273.644 114.021 273.421 114.158 273.147C114.295 272.874 114.363 272.58 114.363 272.266V271.363C114.277 271.445 114.047 271.521 113.673 271.589C113.299 271.653 112.905 271.714 112.49 271.773C112.212 271.81 111.948 271.874 111.697 271.965C111.451 272.051 111.251 272.177 111.096 272.341C110.941 272.5 110.863 272.717 110.863 272.99C110.863 273.327 110.995 273.592 111.26 273.783C111.529 273.975 111.893 274.07 112.354 274.07ZM120.386 267.781V268.779H118.923V273.25C118.923 273.528 118.98 273.724 119.094 273.838C119.212 273.947 119.42 274.002 119.716 274.002H120.386V275H119.606C118.376 275 117.761 274.458 117.761 273.373V268.779H116.476V267.781H117.761V265.812H118.923V267.781H120.386ZM121.117 276.921L121.719 273.578H122.963L121.965 276.921H121.117ZM131.467 275H128.322V264.814H131.604C132.592 264.814 133.44 265.017 134.146 265.423C134.857 265.828 135.402 266.412 135.78 267.173C136.159 267.929 136.348 268.834 136.348 269.887C136.348 270.949 136.156 271.862 135.773 272.628C135.391 273.389 134.835 273.975 134.105 274.385C133.381 274.795 132.501 275 131.467 275ZM129.553 273.906H131.385C132.652 273.906 133.59 273.549 134.201 272.833C134.812 272.113 135.117 271.131 135.117 269.887C135.117 268.656 134.816 267.686 134.215 266.975C133.618 266.264 132.72 265.908 131.521 265.908H129.553V273.906ZM140.805 275.164C140.098 275.164 139.494 275.002 138.993 274.679C138.496 274.355 138.116 273.911 137.852 273.346C137.587 272.776 137.455 272.129 137.455 271.404C137.455 270.671 137.594 270.019 137.872 269.449C138.15 268.88 138.535 268.433 139.027 268.109C139.52 267.781 140.085 267.617 140.723 267.617C141.393 267.617 141.974 267.777 142.466 268.096C142.958 268.415 143.336 268.859 143.601 269.429C143.869 269.998 144.004 270.657 144.004 271.404V271.726H138.604C138.631 272.432 138.834 273.006 139.212 273.448C139.59 273.89 140.121 274.111 140.805 274.111C141.32 274.111 141.739 273.993 142.062 273.756C142.391 273.519 142.609 273.214 142.719 272.84H143.881C143.79 273.3 143.601 273.706 143.313 274.057C143.026 274.403 142.666 274.674 142.233 274.87C141.805 275.066 141.329 275.164 140.805 275.164ZM138.617 270.728H142.842C142.778 270.094 142.557 269.59 142.179 269.217C141.8 268.843 141.315 268.656 140.723 268.656C140.13 268.656 139.647 268.843 139.273 269.217C138.9 269.59 138.681 270.094 138.617 270.728ZM146.492 264.814V275H145.33V264.814H146.492ZM148.215 275V267.781H149.377V275H148.215ZM148.796 266.373C148.577 266.373 148.39 266.296 148.235 266.141C148.08 265.986 148.003 265.799 148.003 265.58C148.003 265.361 148.08 265.174 148.235 265.02C148.39 264.865 148.577 264.787 148.796 264.787C149.015 264.787 149.201 264.865 149.356 265.02C149.511 265.174 149.589 265.361 149.589 265.58C149.589 265.799 149.511 265.986 149.356 266.141C149.201 266.296 149.015 266.373 148.796 266.373ZM153.232 275L150.443 267.781H151.701L153.26 271.938C153.365 272.215 153.465 272.493 153.561 272.771C153.656 273.045 153.75 273.321 153.841 273.599C153.937 273.321 154.032 273.045 154.128 272.771C154.224 272.493 154.322 272.215 154.422 271.938L155.96 267.781H157.197L154.408 275H153.232ZM160.971 275.164C160.264 275.164 159.66 275.002 159.159 274.679C158.662 274.355 158.282 273.911 158.018 273.346C157.753 272.776 157.621 272.129 157.621 271.404C157.621 270.671 157.76 270.019 158.038 269.449C158.316 268.88 158.701 268.433 159.193 268.109C159.686 267.781 160.251 267.617 160.889 267.617C161.559 267.617 162.14 267.777 162.632 268.096C163.124 268.415 163.502 268.859 163.767 269.429C164.035 269.998 164.17 270.657 164.17 271.404V271.726H158.77C158.797 272.432 159 273.006 159.378 273.448C159.756 273.89 160.287 274.111 160.971 274.111C161.486 274.111 161.905 273.993 162.229 273.756C162.557 273.519 162.775 273.214 162.885 272.84H164.047C163.956 273.3 163.767 273.706 163.479 274.057C163.192 274.403 162.832 274.674 162.399 274.87C161.971 275.066 161.495 275.164 160.971 275.164ZM158.783 270.728H163.008C162.944 270.094 162.723 269.59 162.345 269.217C161.966 268.843 161.481 268.656 160.889 268.656C160.296 268.656 159.813 268.843 159.439 269.217C159.066 269.59 158.847 270.094 158.783 270.728ZM165.496 275V267.781H166.604V268.916H166.631C166.763 268.542 166.973 268.242 167.26 268.014C167.547 267.786 167.916 267.672 168.367 267.672C168.472 267.672 168.568 267.676 168.654 267.686C168.745 267.695 168.814 267.704 168.859 267.713V268.875C168.814 268.861 168.725 268.845 168.593 268.827C168.465 268.804 168.317 268.793 168.148 268.793C167.747 268.793 167.399 268.934 167.103 269.217C166.806 269.499 166.658 269.946 166.658 270.557V275H165.496ZM172.852 275.164C172.186 275.164 171.601 275.005 171.095 274.686C170.593 274.362 170.201 273.918 169.919 273.353C169.641 272.787 169.502 272.138 169.502 271.404C169.502 270.666 169.641 270.012 169.919 269.442C170.201 268.873 170.593 268.426 171.095 268.103C171.601 267.779 172.186 267.617 172.852 267.617C173.521 267.617 174.107 267.779 174.608 268.103C175.11 268.426 175.499 268.873 175.777 269.442C176.06 270.012 176.201 270.666 176.201 271.404C176.201 272.138 176.06 272.787 175.777 273.353C175.499 273.918 175.11 274.362 174.608 274.686C174.107 275.005 173.521 275.164 172.852 275.164ZM172.852 274.111C173.535 274.111 174.068 273.865 174.451 273.373C174.834 272.876 175.025 272.22 175.025 271.404C175.025 270.579 174.832 269.919 174.444 269.422C174.062 268.921 173.531 268.67 172.852 268.67C172.173 268.67 171.639 268.918 171.252 269.415C170.869 269.912 170.678 270.575 170.678 271.404C170.678 272.225 170.869 272.881 171.252 273.373C171.635 273.865 172.168 274.111 172.852 274.111ZM180.535 275.164C179.87 275.164 179.284 275.005 178.778 274.686C178.277 274.362 177.885 273.918 177.603 273.353C177.325 272.787 177.186 272.138 177.186 271.404C177.186 270.666 177.325 270.012 177.603 269.442C177.885 268.873 178.277 268.426 178.778 268.103C179.284 267.779 179.87 267.617 180.535 267.617C181.205 267.617 181.791 267.779 182.292 268.103C182.793 268.426 183.183 268.873 183.461 269.442C183.743 270.012 183.885 270.666 183.885 271.404C183.885 272.138 183.743 272.787 183.461 273.353C183.183 273.918 182.793 274.362 182.292 274.686C181.791 275.005 181.205 275.164 180.535 275.164ZM180.535 274.111C181.219 274.111 181.752 273.865 182.135 273.373C182.518 272.876 182.709 272.22 182.709 271.404C182.709 270.579 182.515 269.919 182.128 269.422C181.745 268.921 181.214 268.67 180.535 268.67C179.856 268.67 179.323 268.918 178.936 269.415C178.553 269.912 178.361 270.575 178.361 271.404C178.361 272.225 178.553 272.881 178.936 273.373C179.318 273.865 179.852 274.111 180.535 274.111ZM184.76 276.921L185.361 273.578H186.605L185.607 276.921H184.76ZM194.016 275.109C193.3 275.109 192.701 274.925 192.218 274.556C191.739 274.187 191.5 273.642 191.5 272.922C191.5 272.507 191.58 272.17 191.739 271.91C191.903 271.65 192.12 271.448 192.389 271.302C192.662 271.151 192.97 271.037 193.312 270.96C193.658 270.882 194.011 270.821 194.371 270.775C194.831 270.712 195.194 270.664 195.458 270.632C195.722 270.6 195.909 270.548 196.019 270.475C196.132 270.402 196.189 270.274 196.189 270.092V270.023C196.189 269.632 196.048 269.308 195.766 269.053C195.488 268.798 195.096 268.67 194.59 268.67C194.089 268.67 193.676 268.793 193.353 269.039C193.034 269.281 192.86 269.581 192.833 269.941H191.65C191.673 269.499 191.81 269.107 192.061 268.766C192.311 268.419 192.653 268.146 193.086 267.945C193.519 267.745 194.02 267.645 194.59 267.645C195.433 267.645 196.101 267.863 196.593 268.301C197.09 268.734 197.338 269.308 197.338 270.023V275H196.189V273.975H196.162C196.076 274.148 195.948 274.323 195.779 274.501C195.611 274.674 195.383 274.82 195.096 274.938C194.813 275.052 194.453 275.109 194.016 275.109ZM194.18 274.07C194.654 274.07 195.039 273.986 195.335 273.817C195.631 273.644 195.848 273.421 195.984 273.147C196.121 272.874 196.189 272.58 196.189 272.266V271.363C196.103 271.445 195.873 271.521 195.499 271.589C195.125 271.653 194.731 271.714 194.316 271.773C194.038 271.81 193.774 271.874 193.523 271.965C193.277 272.051 193.077 272.177 192.922 272.341C192.767 272.5 192.689 272.717 192.689 272.99C192.689 273.327 192.822 273.592 193.086 273.783C193.355 273.975 193.719 274.07 194.18 274.07ZM200.223 270.775V275H199.061V267.781H200.195V268.841C200.446 268.431 200.751 268.13 201.111 267.938C201.476 267.743 201.886 267.645 202.342 267.645C202.829 267.645 203.274 267.752 203.675 267.966C204.076 268.175 204.395 268.492 204.632 268.916C204.873 269.34 204.994 269.873 204.994 270.516V275H203.832V270.598C203.832 269.973 203.682 269.504 203.381 269.189C203.085 268.87 202.665 268.711 202.123 268.711C201.599 268.711 201.15 268.873 200.776 269.196C200.407 269.52 200.223 270.046 200.223 270.775ZM209.479 275.137C208.854 275.137 208.305 274.979 207.831 274.665C207.362 274.346 206.997 273.906 206.737 273.346C206.478 272.781 206.348 272.129 206.348 271.391C206.348 270.648 206.478 269.996 206.737 269.436C206.997 268.87 207.362 268.431 207.831 268.116C208.305 267.802 208.854 267.645 209.479 267.645C209.948 267.645 210.383 267.745 210.784 267.945C211.185 268.141 211.502 268.442 211.734 268.848H211.748V264.814H212.91V275H211.775V273.906H211.762C211.502 274.321 211.174 274.631 210.777 274.836C210.381 275.036 209.948 275.137 209.479 275.137ZM209.656 274.091C210.326 274.091 210.857 273.845 211.249 273.353C211.646 272.86 211.844 272.206 211.844 271.391C211.844 270.575 211.646 269.921 211.249 269.429C210.857 268.932 210.326 268.684 209.656 268.684C209.032 268.684 208.519 268.914 208.118 269.374C207.722 269.834 207.523 270.507 207.523 271.391C207.523 272.275 207.722 272.947 208.118 273.407C208.519 273.863 209.032 274.091 209.656 274.091ZM218.283 275V264.814H219.514V270.037C219.801 269.718 220.09 269.401 220.382 269.087C220.674 268.772 220.967 268.456 221.264 268.137L224.354 264.814H225.98L221.845 269.224L225.98 275H224.524L220.997 270.064L219.514 271.664V275H218.283ZM229.439 275.164C228.733 275.164 228.129 275.002 227.628 274.679C227.131 274.355 226.751 273.911 226.486 273.346C226.222 272.776 226.09 272.129 226.09 271.404C226.09 270.671 226.229 270.019 226.507 269.449C226.785 268.88 227.17 268.433 227.662 268.109C228.154 267.781 228.719 267.617 229.357 267.617C230.027 267.617 230.608 267.777 231.101 268.096C231.593 268.415 231.971 268.859 232.235 269.429C232.504 269.998 232.639 270.657 232.639 271.404V271.726H227.238C227.266 272.432 227.468 273.006 227.847 273.448C228.225 273.89 228.756 274.111 229.439 274.111C229.954 274.111 230.374 273.993 230.697 273.756C231.025 273.519 231.244 273.214 231.354 272.84H232.516C232.424 273.3 232.235 273.706 231.948 274.057C231.661 274.403 231.301 274.674 230.868 274.87C230.44 275.066 229.964 275.164 229.439 275.164ZM227.252 270.728H231.477C231.413 270.094 231.192 269.59 230.813 269.217C230.435 268.843 229.95 268.656 229.357 268.656C228.765 268.656 228.282 268.843 227.908 269.217C227.535 269.59 227.316 270.094 227.252 270.728ZM236.945 275.164C236.239 275.164 235.635 275.002 235.134 274.679C234.637 274.355 234.257 273.911 233.992 273.346C233.728 272.776 233.596 272.129 233.596 271.404C233.596 270.671 233.735 270.019 234.013 269.449C234.291 268.88 234.676 268.433 235.168 268.109C235.66 267.781 236.225 267.617 236.863 267.617C237.533 267.617 238.114 267.777 238.606 268.096C239.099 268.415 239.477 268.859 239.741 269.429C240.01 269.998 240.145 270.657 240.145 271.404V271.726H234.744C234.771 272.432 234.974 273.006 235.353 273.448C235.731 273.89 236.262 274.111 236.945 274.111C237.46 274.111 237.88 273.993 238.203 273.756C238.531 273.519 238.75 273.214 238.859 272.84H240.021C239.93 273.3 239.741 273.706 239.454 274.057C239.167 274.403 238.807 274.674 238.374 274.87C237.946 275.066 237.469 275.164 236.945 275.164ZM234.758 270.728H238.982C238.919 270.094 238.698 269.59 238.319 269.217C237.941 268.843 237.456 268.656 236.863 268.656C236.271 268.656 235.788 268.843 235.414 269.217C235.04 269.59 234.822 270.094 234.758 270.728ZM244.622 267.781V268.779H243.159V273.25C243.159 273.528 243.216 273.724 243.33 273.838C243.449 273.947 243.656 274.002 243.952 274.002H244.622V275H243.843C242.612 275 241.997 274.458 241.997 273.373V268.779H240.712V267.781H241.997V265.812H243.159V267.781H244.622ZM248.238 275.109C247.523 275.109 246.924 274.925 246.44 274.556C245.962 274.187 245.723 273.642 245.723 272.922C245.723 272.507 245.802 272.17 245.962 271.91C246.126 271.65 246.342 271.448 246.611 271.302C246.885 271.151 247.192 271.037 247.534 270.96C247.881 270.882 248.234 270.821 248.594 270.775C249.054 270.712 249.416 270.664 249.681 270.632C249.945 270.6 250.132 270.548 250.241 270.475C250.355 270.402 250.412 270.274 250.412 270.092V270.023C250.412 269.632 250.271 269.308 249.988 269.053C249.71 268.798 249.318 268.67 248.812 268.67C248.311 268.67 247.899 268.793 247.575 269.039C247.256 269.281 247.083 269.581 247.056 269.941H245.873C245.896 269.499 246.033 269.107 246.283 268.766C246.534 268.419 246.876 268.146 247.309 267.945C247.742 267.745 248.243 267.645 248.812 267.645C249.656 267.645 250.323 267.863 250.815 268.301C251.312 268.734 251.561 269.308 251.561 270.023V275H250.412V273.975H250.385C250.298 274.148 250.171 274.323 250.002 274.501C249.833 274.674 249.605 274.82 249.318 274.938C249.036 275.052 248.676 275.109 248.238 275.109ZM248.402 274.07C248.876 274.07 249.261 273.986 249.558 273.817C249.854 273.644 250.07 273.421 250.207 273.147C250.344 272.874 250.412 272.58 250.412 272.266V271.363C250.326 271.445 250.095 271.521 249.722 271.589C249.348 271.653 248.954 271.714 248.539 271.773C248.261 271.81 247.997 271.874 247.746 271.965C247.5 272.051 247.299 272.177 247.145 272.341C246.99 272.5 246.912 272.717 246.912 272.99C246.912 273.327 247.044 273.592 247.309 273.783C247.577 273.975 247.942 274.07 248.402 274.07ZM253.96 275.116C253.723 275.116 253.52 275.034 253.352 274.87C253.188 274.701 253.105 274.499 253.105 274.262C253.105 274.02 253.188 273.817 253.352 273.653C253.52 273.489 253.723 273.407 253.96 273.407C254.201 273.407 254.404 273.489 254.568 273.653C254.732 273.817 254.814 274.02 254.814 274.262C254.814 274.499 254.732 274.701 254.568 274.87C254.404 275.034 254.201 275.116 253.96 275.116Z" fill="#666666"/>
<defs>
<filter id="filter0_i_2200_4964" x="20" y="20" width="44" height="44" filterUnits="userSpaceOnUse" color-interpolation-filters="sRGB">
<feFlood flood-opacity="0" result="BackgroundImageFix"/>
<feBlend mode="normal" in="SourceGraphic" in2="BackgroundImageFix" result="shape"/>
<feColorMatrix in="SourceAlpha" type="matrix" values="0 0 0 0 0 0 0 0 0 0 0 0 0 0 0 0 0 0 127 0" result="hardAlpha"/>
<feOffset dy="-2"/>
<feComposite in2="hardAlpha" operator="arithmetic" k2="-1" k3="1"/>
<feColorMatrix type="matrix" values="0 0 0 0 0.914756 0 0 0 0 0.190557 0 0 0 0 0.0660133 0 0 0 1 0"/>
<feBlend mode="normal" in2="shape" result="effect1_innerShadow_2200_4964"/>
</filter>
<clipPath id="clip0_2200_4964">
<rect width="24" height="24" fill="white" transform="translate(30 30)"/>
</clipPath>
</defs>
</svg>
