<svg width="344" height="300" viewBox="0 0 344 300" fill="none" xmlns="http://www.w3.org/2000/svg">
<rect width="344" height="300" rx="12" fill="white"/>
<g filter="url(#filter0_i_2200_4954)">
<rect x="20" y="20" width="44" height="44" rx="8" fill="#EF5237"/>
<g clipPath="url(#clip0_2200_4954)">
<path d="M50.97 36.2017L42.72 31.6876C42.4996 31.5658 42.2518 31.502 42 31.502C41.7482 31.502 41.5004 31.5658 41.28 31.6876L33.03 36.2036C32.7944 36.3325 32.5977 36.5223 32.4605 36.7532C32.3233 36.984 32.2506 37.2475 32.25 37.5161V46.4823C32.2506 46.7509 32.3233 47.0144 32.4605 47.2452C32.5977 47.4761 32.7944 47.6659 33.03 47.7948L41.28 52.3108C41.5004 52.4326 41.7482 52.4965 42 52.4965C42.2518 52.4965 42.4996 52.4326 42.72 52.3108L50.97 47.7948C51.2056 47.6659 51.4023 47.4761 51.5395 47.2452C51.6767 47.0144 51.7494 46.7509 51.75 46.4823V37.517C51.7499 37.248 51.6774 36.9839 51.5402 36.7525C51.403 36.5211 51.206 36.3308 50.97 36.2017ZM42 41.2501L34.4672 37.1251L42 33.0001L49.5328 37.1251L42 41.2501ZM42.75 50.5914V42.5467L50.25 38.4423V46.4823L42.75 50.5914Z" fill="white"/>
</g>
</g>
<path d="M298.479 55.4219C296.369 55.4219 294.553 54.8711 293.029 53.7695C291.506 52.668 290.328 51.1094 289.496 49.0938C288.676 47.0781 288.266 44.6875 288.266 41.9219C288.266 39.1445 288.676 36.748 289.496 34.7324C290.328 32.7051 291.506 31.1406 293.029 30.0391C294.553 28.9375 296.369 28.3867 298.479 28.3867C300.588 28.3867 302.404 28.9375 303.928 30.0391C305.463 31.1406 306.641 32.7051 307.461 34.7324C308.281 36.748 308.691 39.1445 308.691 41.9219C308.691 44.6875 308.281 47.084 307.461 49.1113C306.641 51.127 305.463 52.6855 303.928 53.7871C302.404 54.877 300.588 55.4219 298.479 55.4219ZM298.479 51.5898C300.283 51.5898 301.701 50.7285 302.732 49.0059C303.775 47.2832 304.297 44.9219 304.297 41.9219C304.297 38.8984 303.775 36.5254 302.732 34.8027C301.701 33.0801 300.283 32.2188 298.479 32.2188C296.674 32.2188 295.25 33.0801 294.207 34.8027C293.176 36.5254 292.66 38.8984 292.66 41.9219C292.66 44.9219 293.176 47.2832 294.207 49.0059C295.25 50.7285 296.674 51.5898 298.479 51.5898ZM321.488 28.8086V55H317.006V33.2031H316.971L310.695 37.2637V33.0098L317.199 28.8086H321.488Z" fill="#CCCCCC"/>
<path d="M27.5781 223.234C26.2435 223.234 25.0651 222.919 24.043 222.287C23.0208 221.656 22.2233 220.777 21.6504 219.65C21.0775 218.524 20.791 217.219 20.791 215.734C20.791 214.237 21.0775 212.925 21.6504 211.799C22.2233 210.673 23.0176 209.794 24.0332 209.162C25.0553 208.531 26.237 208.215 27.5781 208.215C28.6393 208.215 29.5996 208.423 30.459 208.84C31.3249 209.257 32.041 209.846 32.6074 210.607C33.1738 211.363 33.5417 212.258 33.7109 213.293H31.5039C31.2891 212.303 30.8301 211.542 30.127 211.008C29.4303 210.467 28.5872 210.197 27.5977 210.197C26.6406 210.197 25.8171 210.428 25.127 210.891C24.4368 211.353 23.903 212.001 23.5254 212.834C23.1543 213.667 22.9688 214.634 22.9688 215.734C22.9688 216.835 23.1543 217.798 23.5254 218.625C23.8965 219.452 24.4271 220.096 25.1172 220.559C25.8138 221.021 26.6406 221.252 27.5977 221.252C28.5807 221.252 29.4206 220.985 30.1172 220.451C30.8203 219.917 31.2858 219.159 31.5137 218.176H33.7109C33.5417 219.204 33.1738 220.1 32.6074 220.861C32.041 221.617 31.3249 222.202 30.459 222.619C29.5996 223.029 28.6393 223.234 27.5781 223.234ZM40.0684 223.234C39.0853 223.234 38.2227 223.007 37.4805 222.551C36.7383 222.095 36.1589 221.464 35.7422 220.656C35.332 219.849 35.127 218.918 35.127 217.863C35.127 216.796 35.332 215.858 35.7422 215.051C36.1589 214.237 36.7383 213.602 37.4805 213.146C38.2227 212.684 39.0853 212.453 40.0684 212.453C41.0514 212.453 41.9108 212.684 42.6465 213.146C43.3887 213.602 43.9648 214.237 44.375 215.051C44.7917 215.858 45 216.796 45 217.863C45 218.918 44.7917 219.849 44.375 220.656C43.9648 221.464 43.3887 222.095 42.6465 222.551C41.9108 223.007 41.0514 223.234 40.0684 223.234ZM40.0684 221.457C40.9538 221.457 41.6504 221.132 42.1582 220.48C42.666 219.829 42.9199 218.957 42.9199 217.863C42.9199 216.757 42.6628 215.874 42.1484 215.217C41.6406 214.559 40.9473 214.23 40.0684 214.23C39.1895 214.23 38.4928 214.559 37.9785 215.217C37.4707 215.868 37.2168 216.75 37.2168 217.863C37.2168 218.964 37.4707 219.839 37.9785 220.49C38.4863 221.135 39.1829 221.457 40.0684 221.457ZM48.8867 217.062V223H46.8262V212.688H48.8477V214.24C49.5508 213.068 50.5892 212.482 51.9629 212.482C52.6725 212.482 53.3073 212.639 53.8672 212.951C54.4336 213.257 54.8796 213.713 55.2051 214.318C55.5306 214.924 55.6934 215.676 55.6934 216.574V223H53.6328V216.828C53.6328 216.001 53.4342 215.38 53.0371 214.963C52.64 214.54 52.0866 214.328 51.377 214.328C50.6738 214.328 50.0814 214.546 49.5996 214.982C49.1243 215.412 48.8867 216.105 48.8867 217.062ZM63.0176 212.688V214.387H60.918V223H58.8574V214.387H57.0117V212.688H58.8574V211.018C58.8574 210.204 59.1113 209.572 59.6191 209.123C60.1335 208.674 60.8561 208.449 61.7871 208.449H63.0176V210.148H62.1094C61.6732 210.148 61.3639 210.24 61.1816 210.422C61.0059 210.604 60.918 210.913 60.918 211.35V212.688H63.0176ZM64.5801 223V212.688H66.6406V223H64.5801ZM65.6055 210.91C65.2409 210.91 64.9316 210.79 64.6777 210.549C64.4303 210.301 64.3066 210.002 64.3066 209.65C64.3066 209.292 64.4303 208.993 64.6777 208.752C64.9316 208.505 65.2409 208.381 65.6055 208.381C65.9701 208.381 66.2793 208.505 66.5332 208.752C66.7871 208.993 66.9141 209.292 66.9141 209.65C66.9141 210.002 66.7871 210.301 66.5332 210.549C66.2793 210.79 65.9701 210.91 65.6055 210.91ZM73.4766 227.219C72.2135 227.219 71.1816 226.939 70.3809 226.379C69.5801 225.819 69.1113 225.035 68.9746 224.025H71.0352C71.1654 224.527 71.4486 224.904 71.8848 225.158C72.321 225.412 72.8516 225.539 73.4766 225.539C74.3099 225.539 74.9609 225.314 75.4297 224.865C75.8984 224.416 76.1328 223.775 76.1328 222.941V221.379H76.123C75.765 221.978 75.3125 222.421 74.7656 222.707C74.2253 222.993 73.6165 223.137 72.9395 223.137C72.041 223.137 71.2565 222.912 70.5859 222.463C69.9154 222.007 69.3945 221.382 69.0234 220.588C68.6523 219.787 68.4668 218.863 68.4668 217.814C68.4668 216.766 68.6523 215.842 69.0234 215.041C69.401 214.24 69.9251 213.615 70.5957 213.166C71.2663 212.71 72.0443 212.482 72.9297 212.482C73.6003 212.482 74.2155 212.626 74.7754 212.912C75.3353 213.199 75.7878 213.648 76.1328 214.26H76.1426V212.688H78.1738V222.863C78.1738 223.905 77.9622 224.745 77.5391 225.383C77.1159 226.021 76.5495 226.486 75.8398 226.779C75.1302 227.072 74.3424 227.219 73.4766 227.219ZM73.3594 221.369C74.2383 221.369 74.9382 221.047 75.459 220.402C75.9863 219.751 76.25 218.885 76.25 217.805C76.25 216.724 75.9863 215.861 75.459 215.217C74.9382 214.566 74.2383 214.24 73.3594 214.24C72.526 214.24 71.849 214.546 71.3281 215.158C70.8138 215.764 70.5566 216.646 70.5566 217.805C70.5566 218.964 70.8138 219.849 71.3281 220.461C71.849 221.066 72.526 221.369 73.3594 221.369ZM84.2285 223.205C83.5254 223.205 82.8906 223.052 82.3242 222.746C81.7643 222.434 81.3184 221.975 80.9863 221.369C80.6608 220.764 80.498 220.012 80.498 219.113V212.688H82.5586V218.859C82.5586 219.686 82.7572 220.311 83.1543 220.734C83.5514 221.151 84.1081 221.359 84.8242 221.359C85.5208 221.359 86.1068 221.145 86.582 220.715C87.0638 220.279 87.3047 219.582 87.3047 218.625V212.688H89.3652V223H87.3438V221.447C86.6406 222.619 85.6022 223.205 84.2285 223.205ZM91.6895 223V212.688H93.6621V214.357H93.7012C93.89 213.791 94.1862 213.352 94.5898 213.039C95 212.72 95.5339 212.561 96.1914 212.561C96.3477 212.561 96.4909 212.567 96.6211 212.58C96.7513 212.593 96.8587 212.603 96.9434 212.609V214.533C96.8652 214.514 96.7253 214.494 96.5234 214.475C96.3216 214.449 96.1003 214.436 95.8594 214.436C95.2799 214.436 94.7819 214.637 94.3652 215.041C93.9551 215.445 93.75 216.066 93.75 216.906V223H91.6895ZM102.734 223.234C101.712 223.234 100.833 223.003 100.098 222.541C99.3685 222.079 98.8053 221.444 98.4082 220.637C98.0176 219.823 97.8223 218.898 97.8223 217.863C97.8223 216.815 98.0273 215.884 98.4375 215.07C98.8477 214.257 99.4141 213.618 100.137 213.156C100.859 212.688 101.689 212.453 102.627 212.453C103.604 212.453 104.45 212.681 105.166 213.137C105.889 213.592 106.449 214.227 106.846 215.041C107.243 215.848 107.441 216.783 107.441 217.844V218.4H99.8535C99.8926 219.331 100.16 220.083 100.654 220.656C101.156 221.229 101.859 221.516 102.764 221.516C103.441 221.516 103.997 221.363 104.434 221.057C104.87 220.751 105.16 220.354 105.303 219.865H107.285C107.161 220.529 106.885 221.115 106.455 221.623C106.032 222.131 105.498 222.528 104.854 222.814C104.215 223.094 103.509 223.234 102.734 223.234ZM99.873 216.838H105.43C105.345 216.018 105.055 215.37 104.561 214.895C104.066 214.413 103.428 214.172 102.646 214.172C101.865 214.172 101.227 214.413 100.732 214.895C100.244 215.37 99.9577 216.018 99.873 216.838ZM120.312 223.234C119.023 223.234 117.874 222.919 116.865 222.287C115.856 221.656 115.062 220.777 114.482 219.65C113.91 218.524 113.623 217.219 113.623 215.734C113.623 214.243 113.91 212.935 114.482 211.809C115.062 210.676 115.856 209.794 116.865 209.162C117.874 208.531 119.023 208.215 120.312 208.215C121.608 208.215 122.76 208.531 123.77 209.162C124.779 209.794 125.57 210.676 126.143 211.809C126.722 212.935 127.012 214.243 127.012 215.734C127.012 217.219 126.722 218.524 126.143 219.65C125.57 220.777 124.779 221.656 123.77 222.287C122.76 222.919 121.608 223.234 120.312 223.234ZM120.312 221.252C121.152 221.252 121.914 221.04 122.598 220.617C123.281 220.188 123.825 219.562 124.229 218.742C124.632 217.915 124.834 216.913 124.834 215.734C124.834 214.549 124.632 213.544 124.229 212.717C123.825 211.89 123.281 211.265 122.598 210.842C121.914 210.412 121.152 210.197 120.312 210.197C119.479 210.197 118.721 210.412 118.037 210.842C117.354 211.265 116.81 211.89 116.406 212.717C116.003 213.544 115.801 214.549 115.801 215.734C115.801 216.913 116.003 217.915 116.406 218.742C116.81 219.562 117.354 220.188 118.037 220.617C118.721 221.04 119.479 221.252 120.312 221.252ZM131.035 217.062V223H128.975V212.688H130.996V214.24C131.699 213.068 132.738 212.482 134.111 212.482C134.821 212.482 135.456 212.639 136.016 212.951C136.582 213.257 137.028 213.713 137.354 214.318C137.679 214.924 137.842 215.676 137.842 216.574V223H135.781V216.828C135.781 216.001 135.583 215.38 135.186 214.963C134.788 214.54 134.235 214.328 133.525 214.328C132.822 214.328 132.23 214.546 131.748 214.982C131.273 215.412 131.035 216.105 131.035 217.062ZM144.58 223.234C143.597 223.234 142.734 223.007 141.992 222.551C141.257 222.095 140.684 221.464 140.273 220.656C139.863 219.842 139.658 218.911 139.658 217.863C139.658 216.802 139.863 215.865 140.273 215.051C140.69 214.237 141.266 213.602 142.002 213.146C142.738 212.684 143.597 212.453 144.58 212.453C145.4 212.453 146.133 212.616 146.777 212.941C147.428 213.26 147.956 213.703 148.359 214.27C148.763 214.836 149.007 215.484 149.092 216.213H147.041C146.937 215.633 146.676 215.158 146.26 214.787C145.843 214.416 145.286 214.23 144.59 214.23C143.698 214.23 143.001 214.559 142.5 215.217C141.999 215.874 141.748 216.757 141.748 217.863C141.748 218.957 141.999 219.829 142.5 220.48C143.001 221.132 143.698 221.457 144.59 221.457C145.299 221.457 145.846 221.278 146.23 220.92C146.615 220.555 146.875 220.07 147.012 219.465H149.092C149.014 220.181 148.773 220.826 148.369 221.398C147.965 221.965 147.438 222.414 146.787 222.746C146.136 223.072 145.4 223.234 144.58 223.234ZM155.254 223.234C154.232 223.234 153.353 223.003 152.617 222.541C151.888 222.079 151.325 221.444 150.928 220.637C150.537 219.823 150.342 218.898 150.342 217.863C150.342 216.815 150.547 215.884 150.957 215.07C151.367 214.257 151.934 213.618 152.656 213.156C153.379 212.688 154.209 212.453 155.146 212.453C156.123 212.453 156.969 212.681 157.686 213.137C158.408 213.592 158.968 214.227 159.365 215.041C159.762 215.848 159.961 216.783 159.961 217.844V218.4H152.373C152.412 219.331 152.679 220.083 153.174 220.656C153.675 221.229 154.378 221.516 155.283 221.516C155.96 221.516 156.517 221.363 156.953 221.057C157.389 220.751 157.679 220.354 157.822 219.865H159.805C159.681 220.529 159.404 221.115 158.975 221.623C158.551 222.131 158.018 222.528 157.373 222.814C156.735 223.094 156.029 223.234 155.254 223.234ZM152.393 216.838H157.949C157.865 216.018 157.575 215.37 157.08 214.895C156.585 214.413 155.947 214.172 155.166 214.172C154.385 214.172 153.747 214.413 153.252 214.895C152.764 215.37 152.477 216.018 152.393 216.838ZM162.861 223.166C162.484 223.166 162.161 223.036 161.895 222.775C161.634 222.508 161.504 222.183 161.504 221.799C161.504 221.421 161.634 221.099 161.895 220.832C162.161 220.565 162.484 220.432 162.861 220.432C163.245 220.432 163.568 220.565 163.828 220.832C164.095 221.099 164.229 221.421 164.229 221.799C164.229 222.183 164.095 222.508 163.828 222.775C163.568 223.036 163.245 223.166 162.861 223.166Z" fill="#1A1A1A"/>
<path d="M24.375 255.164C23.5911 255.164 22.9121 255.025 22.3379 254.747C21.7637 254.465 21.3193 254.066 21.0049 253.551C20.6904 253.036 20.5332 252.425 20.5332 251.719H21.791C21.791 252.448 22.0166 253.018 22.4678 253.428C22.9235 253.838 23.5592 254.043 24.375 254.043C25.1178 254.043 25.7126 253.881 26.1592 253.558C26.6104 253.234 26.8359 252.799 26.8359 252.252C26.8359 251.828 26.6833 251.484 26.3779 251.22C26.0726 250.955 25.5531 250.732 24.8193 250.55L23.6777 250.27C22.6387 250.014 21.889 249.673 21.4287 249.244C20.9684 248.816 20.7383 248.255 20.7383 247.562C20.7383 246.975 20.8818 246.464 21.1689 246.031C21.4606 245.594 21.8708 245.254 22.3994 245.013C22.9281 244.771 23.5456 244.65 24.252 244.65C25.3138 244.65 26.1592 244.935 26.7881 245.505C27.4215 246.07 27.752 246.842 27.7793 247.822H26.5625C26.526 247.184 26.2982 246.685 25.8789 246.325C25.4596 245.961 24.9036 245.778 24.2109 245.778C23.5501 245.778 23.0078 245.94 22.584 246.264C22.1647 246.583 21.9551 246.995 21.9551 247.501C21.9551 247.897 22.11 248.221 22.4199 248.472C22.7344 248.718 23.2607 248.934 23.999 249.121L25.1543 249.408C26.1478 249.654 26.8815 250.003 27.3555 250.454C27.8294 250.905 28.0664 251.486 28.0664 252.197C28.0664 252.785 27.9115 253.302 27.6016 253.749C27.2962 254.196 26.8656 254.544 26.3096 254.795C25.7581 255.041 25.1133 255.164 24.375 255.164ZM32.4414 255.164C31.735 255.164 31.1312 255.002 30.6299 254.679C30.1331 254.355 29.7526 253.911 29.4883 253.346C29.224 252.776 29.0918 252.129 29.0918 251.404C29.0918 250.671 29.2308 250.019 29.5088 249.449C29.7868 248.88 30.1719 248.433 30.6641 248.109C31.1562 247.781 31.7214 247.617 32.3594 247.617C33.0293 247.617 33.6104 247.777 34.1025 248.096C34.5947 248.415 34.973 248.859 35.2373 249.429C35.5062 249.998 35.6406 250.657 35.6406 251.404V251.726H30.2402C30.2676 252.432 30.4704 253.006 30.8486 253.448C31.2269 253.89 31.7578 254.111 32.4414 254.111C32.9564 254.111 33.3757 253.993 33.6992 253.756C34.0273 253.519 34.2461 253.214 34.3555 252.84H35.5176C35.4264 253.3 35.2373 253.706 34.9502 254.057C34.6631 254.403 34.3031 254.674 33.8701 254.87C33.4417 255.066 32.9655 255.164 32.4414 255.164ZM30.2539 250.728H34.4785C34.4147 250.094 34.1937 249.59 33.8154 249.217C33.4372 248.843 32.9518 248.656 32.3594 248.656C31.7669 248.656 31.2839 248.843 30.9102 249.217C30.5365 249.59 30.3177 250.094 30.2539 250.728ZM40.1182 247.781V248.779H38.6553V253.25C38.6553 253.528 38.7122 253.724 38.8262 253.838C38.9447 253.947 39.152 254.002 39.4482 254.002H40.1182V255H39.3389C38.1084 255 37.4932 254.458 37.4932 253.373V248.779H36.208V247.781H37.4932V245.812H38.6553V247.781H40.1182ZM47.4805 255.137C46.9974 255.137 46.5531 255.032 46.1475 254.822C45.7464 254.608 45.4251 254.289 45.1836 253.865C44.9466 253.437 44.8281 252.904 44.8281 252.266V247.781H45.9902V252.184C45.9902 252.808 46.1406 253.28 46.4414 253.599C46.7422 253.913 47.1615 254.07 47.6992 254.07C48.2279 254.07 48.6768 253.909 49.0459 253.585C49.415 253.261 49.5996 252.735 49.5996 252.006V247.781H50.7617V255H49.627V253.94C49.3763 254.351 49.0687 254.654 48.7041 254.85C48.3441 255.041 47.9362 255.137 47.4805 255.137ZM52.4844 257.857V247.781H53.6191V248.848H53.6328C53.8652 248.442 54.1865 248.141 54.5967 247.945C55.0068 247.745 55.4466 247.645 55.916 247.645C56.5449 247.645 57.0941 247.802 57.5635 248.116C58.0329 248.431 58.3975 248.87 58.6572 249.436C58.917 249.996 59.0469 250.648 59.0469 251.391C59.0469 252.129 58.917 252.781 58.6572 253.346C58.3975 253.906 58.0329 254.346 57.5635 254.665C57.0941 254.979 56.5449 255.137 55.916 255.137C55.4466 255.137 55.0182 255.036 54.6309 254.836C54.2435 254.631 53.9199 254.321 53.6602 253.906H53.6465V257.857H52.4844ZM55.7383 254.091C56.3626 254.091 56.873 253.863 57.2695 253.407C57.6706 252.947 57.8711 252.275 57.8711 251.391C57.8711 250.507 57.6706 249.834 57.2695 249.374C56.873 248.914 56.3626 248.684 55.7383 248.684C55.0684 248.684 54.5352 248.932 54.1387 249.429C53.7467 249.921 53.5508 250.575 53.5508 251.391C53.5508 252.206 53.7467 252.86 54.1387 253.353C54.5352 253.845 55.0684 254.091 55.7383 254.091ZM63.9551 257.857V256.832H64.666C65.0944 256.832 65.4202 256.543 65.6436 255.964L66.04 254.938L63.2441 247.781H64.502L66.0605 251.938C66.1608 252.206 66.2588 252.478 66.3545 252.751C66.4548 253.02 66.5505 253.289 66.6416 253.558C66.7373 253.289 66.833 253.02 66.9287 252.751C67.029 252.478 67.1292 252.206 67.2295 251.938L68.7607 247.781H69.998L66.6689 256.34C66.4821 256.823 66.2155 257.197 65.8691 257.461C65.5228 257.725 65.1217 257.857 64.666 257.857H63.9551ZM73.7715 255.164C73.1061 255.164 72.5205 255.005 72.0146 254.686C71.5133 254.362 71.1214 253.918 70.8389 253.353C70.5609 252.787 70.4219 252.138 70.4219 251.404C70.4219 250.666 70.5609 250.012 70.8389 249.442C71.1214 248.873 71.5133 248.426 72.0146 248.103C72.5205 247.779 73.1061 247.617 73.7715 247.617C74.4414 247.617 75.027 247.779 75.5283 248.103C76.0296 248.426 76.4193 248.873 76.6973 249.442C76.9798 250.012 77.1211 250.666 77.1211 251.404C77.1211 252.138 76.9798 252.787 76.6973 253.353C76.4193 253.918 76.0296 254.362 75.5283 254.686C75.027 255.005 74.4414 255.164 73.7715 255.164ZM73.7715 254.111C74.4551 254.111 74.9883 253.865 75.3711 253.373C75.7539 252.876 75.9453 252.22 75.9453 251.404C75.9453 250.579 75.7516 249.919 75.3643 249.422C74.9814 248.921 74.4505 248.67 73.7715 248.67C73.0924 248.67 72.5592 248.918 72.1719 249.415C71.7891 249.912 71.5977 250.575 71.5977 251.404C71.5977 252.225 71.7891 252.881 72.1719 253.373C72.5547 253.865 73.0879 254.111 73.7715 254.111ZM81.127 255.137C80.6439 255.137 80.1995 255.032 79.7939 254.822C79.3929 254.608 79.0716 254.289 78.8301 253.865C78.5931 253.437 78.4746 252.904 78.4746 252.266V247.781H79.6367V252.184C79.6367 252.808 79.7871 253.28 80.0879 253.599C80.3887 253.913 80.8079 254.07 81.3457 254.07C81.8743 254.07 82.3232 253.909 82.6924 253.585C83.0615 253.261 83.2461 252.735 83.2461 252.006V247.781H84.4082V255H83.2734V253.94C83.0228 254.351 82.7152 254.654 82.3506 254.85C81.9906 255.041 81.5827 255.137 81.127 255.137ZM86.1309 255V247.781H87.2383V248.916H87.2656C87.3978 248.542 87.6074 248.242 87.8945 248.014C88.1816 247.786 88.5508 247.672 89.002 247.672C89.1068 247.672 89.2025 247.676 89.2891 247.686C89.3802 247.695 89.4486 247.704 89.4941 247.713V248.875C89.4486 248.861 89.3597 248.845 89.2275 248.827C89.0999 248.804 88.9518 248.793 88.7832 248.793C88.3822 248.793 88.0335 248.934 87.7373 249.217C87.4411 249.499 87.293 249.946 87.293 250.557V255H86.1309ZM97.123 255.164C96.4167 255.164 95.8128 255.002 95.3115 254.679C94.8148 254.355 94.4342 253.911 94.1699 253.346C93.9056 252.776 93.7734 252.129 93.7734 251.404C93.7734 250.671 93.9124 250.019 94.1904 249.449C94.4684 248.88 94.8535 248.433 95.3457 248.109C95.8379 247.781 96.403 247.617 97.041 247.617C97.7109 247.617 98.292 247.777 98.7842 248.096C99.2764 248.415 99.6546 248.859 99.9189 249.429C100.188 249.998 100.322 250.657 100.322 251.404V251.726H94.9219C94.9492 252.432 95.152 253.006 95.5303 253.448C95.9085 253.89 96.4395 254.111 97.123 254.111C97.638 254.111 98.0573 253.993 98.3809 253.756C98.709 253.519 98.9277 253.214 99.0371 252.84H100.199C100.108 253.3 99.9189 253.706 99.6318 254.057C99.3447 254.403 98.9847 254.674 98.5518 254.87C98.1234 255.066 97.6471 255.164 97.123 255.164ZM94.9355 250.728H99.1602C99.0964 250.094 98.8753 249.59 98.4971 249.217C98.1188 248.843 97.6335 248.656 97.041 248.656C96.4486 248.656 95.9655 248.843 95.5918 249.217C95.2181 249.59 94.9993 250.094 94.9355 250.728ZM102.811 250.775V255H101.648V247.781H102.783V248.841C103.034 248.431 103.339 248.13 103.699 247.938C104.064 247.743 104.474 247.645 104.93 247.645C105.417 247.645 105.862 247.752 106.263 247.966C106.664 248.175 106.983 248.492 107.22 248.916C107.461 249.34 107.582 249.873 107.582 250.516V255H106.42V250.598C106.42 249.973 106.27 249.504 105.969 249.189C105.673 248.87 105.253 248.711 104.711 248.711C104.187 248.711 103.738 248.873 103.364 249.196C102.995 249.52 102.811 250.046 102.811 250.775ZM112.456 247.781V248.779H110.993V253.25C110.993 253.528 111.05 253.724 111.164 253.838C111.283 253.947 111.49 254.002 111.786 254.002H112.456V255H111.677C110.446 255 109.831 254.458 109.831 253.373V248.779H108.546V247.781H109.831V245.812H110.993V247.781H112.456ZM113.666 255V247.781H114.828V255H113.666ZM114.247 246.373C114.028 246.373 113.841 246.296 113.687 246.141C113.532 245.986 113.454 245.799 113.454 245.58C113.454 245.361 113.532 245.174 113.687 245.02C113.841 244.865 114.028 244.787 114.247 244.787C114.466 244.787 114.653 244.865 114.808 245.02C114.963 245.174 115.04 245.361 115.04 245.58C115.04 245.799 114.963 245.986 114.808 246.141C114.653 246.296 114.466 246.373 114.247 246.373ZM116.551 255V247.781H117.658V248.916H117.686C117.818 248.542 118.027 248.242 118.314 248.014C118.602 247.786 118.971 247.672 119.422 247.672C119.527 247.672 119.622 247.676 119.709 247.686C119.8 247.695 119.868 247.704 119.914 247.713V248.875C119.868 248.861 119.78 248.845 119.647 248.827C119.52 248.804 119.372 248.793 119.203 248.793C118.802 248.793 118.453 248.934 118.157 249.217C117.861 249.499 117.713 249.946 117.713 250.557V255H116.551ZM123.906 255.164C123.2 255.164 122.596 255.002 122.095 254.679C121.598 254.355 121.217 253.911 120.953 253.346C120.689 252.776 120.557 252.129 120.557 251.404C120.557 250.671 120.696 250.019 120.974 249.449C121.252 248.88 121.637 248.433 122.129 248.109C122.621 247.781 123.186 247.617 123.824 247.617C124.494 247.617 125.075 247.777 125.567 248.096C126.06 248.415 126.438 248.859 126.702 249.429C126.971 249.998 127.105 250.657 127.105 251.404V251.726H121.705C121.732 252.432 121.935 253.006 122.313 253.448C122.692 253.89 123.223 254.111 123.906 254.111C124.421 254.111 124.84 253.993 125.164 253.756C125.492 253.519 125.711 253.214 125.82 252.84H126.982C126.891 253.3 126.702 253.706 126.415 254.057C126.128 254.403 125.768 254.674 125.335 254.87C124.907 255.066 124.43 255.164 123.906 255.164ZM121.719 250.728H125.943C125.88 250.094 125.659 249.59 125.28 249.217C124.902 248.843 124.417 248.656 123.824 248.656C123.232 248.656 122.749 248.843 122.375 249.217C122.001 249.59 121.783 250.094 121.719 250.728ZM131.932 257.857V247.781H133.066V248.848H133.08C133.312 248.442 133.634 248.141 134.044 247.945C134.454 247.745 134.894 247.645 135.363 247.645C135.992 247.645 136.541 247.802 137.011 248.116C137.48 248.431 137.845 248.87 138.104 249.436C138.364 249.996 138.494 250.648 138.494 251.391C138.494 252.129 138.364 252.781 138.104 253.346C137.845 253.906 137.48 254.346 137.011 254.665C136.541 254.979 135.992 255.137 135.363 255.137C134.894 255.137 134.465 255.036 134.078 254.836C133.691 254.631 133.367 254.321 133.107 253.906H133.094V257.857H131.932ZM135.186 254.091C135.81 254.091 136.32 253.863 136.717 253.407C137.118 252.947 137.318 252.275 137.318 251.391C137.318 250.507 137.118 249.834 136.717 249.374C136.32 248.914 135.81 248.684 135.186 248.684C134.516 248.684 133.982 248.932 133.586 249.429C133.194 249.921 132.998 250.575 132.998 251.391C132.998 252.206 133.194 252.86 133.586 253.353C133.982 253.845 134.516 254.091 135.186 254.091ZM139.848 255V247.781H140.955V248.916H140.982C141.115 248.542 141.324 248.242 141.611 248.014C141.898 247.786 142.268 247.672 142.719 247.672C142.824 247.672 142.919 247.676 143.006 247.686C143.097 247.695 143.165 247.704 143.211 247.713V248.875C143.165 248.861 143.076 248.845 142.944 248.827C142.817 248.804 142.669 248.793 142.5 248.793C142.099 248.793 141.75 248.934 141.454 249.217C141.158 249.499 141.01 249.946 141.01 250.557V255H139.848ZM147.203 255.164C146.538 255.164 145.952 255.005 145.446 254.686C144.945 254.362 144.553 253.918 144.271 253.353C143.993 252.787 143.854 252.138 143.854 251.404C143.854 250.666 143.993 250.012 144.271 249.442C144.553 248.873 144.945 248.426 145.446 248.103C145.952 247.779 146.538 247.617 147.203 247.617C147.873 247.617 148.459 247.779 148.96 248.103C149.461 248.426 149.851 248.873 150.129 249.442C150.411 250.012 150.553 250.666 150.553 251.404C150.553 252.138 150.411 252.787 150.129 253.353C149.851 253.918 149.461 254.362 148.96 254.686C148.459 255.005 147.873 255.164 147.203 255.164ZM147.203 254.111C147.887 254.111 148.42 253.865 148.803 253.373C149.186 252.876 149.377 252.22 149.377 251.404C149.377 250.579 149.183 249.919 148.796 249.422C148.413 248.921 147.882 248.67 147.203 248.67C146.524 248.67 145.991 248.918 145.604 249.415C145.221 249.912 145.029 250.575 145.029 251.404C145.029 252.225 145.221 252.881 145.604 253.373C145.986 253.865 146.52 254.111 147.203 254.111ZM154.668 255.137C154.044 255.137 153.494 254.979 153.021 254.665C152.551 254.346 152.187 253.906 151.927 253.346C151.667 252.781 151.537 252.129 151.537 251.391C151.537 250.648 151.667 249.996 151.927 249.436C152.187 248.87 152.551 248.431 153.021 248.116C153.494 247.802 154.044 247.645 154.668 247.645C155.137 247.645 155.573 247.745 155.974 247.945C156.375 248.141 156.691 248.442 156.924 248.848H156.938V244.814H158.1V255H156.965V253.906H156.951C156.691 254.321 156.363 254.631 155.967 254.836C155.57 255.036 155.137 255.137 154.668 255.137ZM154.846 254.091C155.516 254.091 156.047 253.845 156.438 253.353C156.835 252.86 157.033 252.206 157.033 251.391C157.033 250.575 156.835 249.921 156.438 249.429C156.047 248.932 155.516 248.684 154.846 248.684C154.221 248.684 153.709 248.914 153.308 249.374C152.911 249.834 152.713 250.507 152.713 251.391C152.713 252.275 152.911 252.947 153.308 253.407C153.709 253.863 154.221 254.091 154.846 254.091ZM162.475 255.137C161.992 255.137 161.547 255.032 161.142 254.822C160.741 254.608 160.419 254.289 160.178 253.865C159.941 253.437 159.822 252.904 159.822 252.266V247.781H160.984V252.184C160.984 252.808 161.135 253.28 161.436 253.599C161.736 253.913 162.156 254.07 162.693 254.07C163.222 254.07 163.671 253.909 164.04 253.585C164.409 253.261 164.594 252.735 164.594 252.006V247.781H165.756V255H164.621V253.94C164.37 254.351 164.063 254.654 163.698 254.85C163.338 255.041 162.93 255.137 162.475 255.137ZM170.459 255.164C169.794 255.164 169.208 255.005 168.702 254.686C168.201 254.362 167.809 253.918 167.526 253.353C167.248 252.787 167.109 252.138 167.109 251.404C167.109 250.666 167.248 250.012 167.526 249.442C167.809 248.873 168.201 248.426 168.702 248.103C169.208 247.779 169.794 247.617 170.459 247.617C171.006 247.617 171.496 247.727 171.929 247.945C172.362 248.16 172.715 248.456 172.988 248.834C173.266 249.212 173.437 249.645 173.501 250.133H172.325C172.239 249.709 172.038 249.36 171.724 249.087C171.414 248.809 170.992 248.67 170.459 248.67C169.78 248.67 169.247 248.918 168.859 249.415C168.477 249.912 168.285 250.575 168.285 251.404C168.285 252.225 168.477 252.881 168.859 253.373C169.242 253.865 169.775 254.111 170.459 254.111C171.001 254.111 171.416 253.979 171.703 253.715C171.99 253.446 172.191 253.09 172.305 252.648H173.501C173.437 253.122 173.266 253.551 172.988 253.934C172.715 254.312 172.359 254.613 171.922 254.836C171.489 255.055 171.001 255.164 170.459 255.164ZM177.958 247.781V248.779H176.495V253.25C176.495 253.528 176.552 253.724 176.666 253.838C176.785 253.947 176.992 254.002 177.288 254.002H177.958V255H177.179C175.948 255 175.333 254.458 175.333 253.373V248.779H174.048V247.781H175.333V245.812H176.495V247.781H177.958ZM185.648 255.164C184.983 255.164 184.397 255.005 183.892 254.686C183.39 254.362 182.998 253.918 182.716 253.353C182.438 252.787 182.299 252.138 182.299 251.404C182.299 250.666 182.438 250.012 182.716 249.442C182.998 248.873 183.39 248.426 183.892 248.103C184.397 247.779 184.983 247.617 185.648 247.617C186.195 247.617 186.685 247.727 187.118 247.945C187.551 248.16 187.904 248.456 188.178 248.834C188.456 249.212 188.627 249.645 188.69 250.133H187.515C187.428 249.709 187.228 249.36 186.913 249.087C186.603 248.809 186.182 248.67 185.648 248.67C184.969 248.67 184.436 248.918 184.049 249.415C183.666 249.912 183.475 250.575 183.475 251.404C183.475 252.225 183.666 252.881 184.049 253.373C184.432 253.865 184.965 254.111 185.648 254.111C186.191 254.111 186.605 253.979 186.893 253.715C187.18 253.446 187.38 253.09 187.494 252.648H188.69C188.627 253.122 188.456 253.551 188.178 253.934C187.904 254.312 187.549 254.613 187.111 254.836C186.678 255.055 186.191 255.164 185.648 255.164ZM192.266 255.109C191.55 255.109 190.951 254.925 190.468 254.556C189.989 254.187 189.75 253.642 189.75 252.922C189.75 252.507 189.83 252.17 189.989 251.91C190.153 251.65 190.37 251.448 190.639 251.302C190.912 251.151 191.22 251.037 191.562 250.96C191.908 250.882 192.261 250.821 192.621 250.775C193.081 250.712 193.444 250.664 193.708 250.632C193.972 250.6 194.159 250.548 194.269 250.475C194.382 250.402 194.439 250.274 194.439 250.092V250.023C194.439 249.632 194.298 249.308 194.016 249.053C193.738 248.798 193.346 248.67 192.84 248.67C192.339 248.67 191.926 248.793 191.603 249.039C191.284 249.281 191.11 249.581 191.083 249.941H189.9C189.923 249.499 190.06 249.107 190.311 248.766C190.561 248.419 190.903 248.146 191.336 247.945C191.769 247.745 192.27 247.645 192.84 247.645C193.683 247.645 194.351 247.863 194.843 248.301C195.34 248.734 195.588 249.308 195.588 250.023V255H194.439V253.975H194.412C194.326 254.148 194.198 254.323 194.029 254.501C193.861 254.674 193.633 254.82 193.346 254.938C193.063 255.052 192.703 255.109 192.266 255.109ZM192.43 254.07C192.904 254.07 193.289 253.986 193.585 253.817C193.881 253.644 194.098 253.421 194.234 253.147C194.371 252.874 194.439 252.58 194.439 252.266V251.363C194.353 251.445 194.123 251.521 193.749 251.589C193.375 251.653 192.981 251.714 192.566 251.773C192.288 251.81 192.024 251.874 191.773 251.965C191.527 252.051 191.327 252.177 191.172 252.341C191.017 252.5 190.939 252.717 190.939 252.99C190.939 253.327 191.072 253.592 191.336 253.783C191.605 253.975 191.969 254.07 192.43 254.07ZM200.462 247.781V248.779H198.999V253.25C198.999 253.528 199.056 253.724 199.17 253.838C199.288 253.947 199.496 254.002 199.792 254.002H200.462V255H199.683C198.452 255 197.837 254.458 197.837 253.373V248.779H196.552V247.781H197.837V245.812H198.999V247.781H200.462ZM204.078 255.109C203.363 255.109 202.763 254.925 202.28 254.556C201.802 254.187 201.562 253.642 201.562 252.922C201.562 252.507 201.642 252.17 201.802 251.91C201.966 251.65 202.182 251.448 202.451 251.302C202.725 251.151 203.032 251.037 203.374 250.96C203.72 250.882 204.074 250.821 204.434 250.775C204.894 250.712 205.256 250.664 205.521 250.632C205.785 250.6 205.972 250.548 206.081 250.475C206.195 250.402 206.252 250.274 206.252 250.092V250.023C206.252 249.632 206.111 249.308 205.828 249.053C205.55 248.798 205.158 248.67 204.652 248.67C204.151 248.67 203.739 248.793 203.415 249.039C203.096 249.281 202.923 249.581 202.896 249.941H201.713C201.736 249.499 201.872 249.107 202.123 248.766C202.374 248.419 202.715 248.146 203.148 247.945C203.581 247.745 204.083 247.645 204.652 247.645C205.495 247.645 206.163 247.863 206.655 248.301C207.152 248.734 207.4 249.308 207.4 250.023V255H206.252V253.975H206.225C206.138 254.148 206.01 254.323 205.842 254.501C205.673 254.674 205.445 254.82 205.158 254.938C204.876 255.052 204.516 255.109 204.078 255.109ZM204.242 254.07C204.716 254.07 205.101 253.986 205.397 253.817C205.694 253.644 205.91 253.421 206.047 253.147C206.184 252.874 206.252 252.58 206.252 252.266V251.363C206.165 251.445 205.935 251.521 205.562 251.589C205.188 251.653 204.794 251.714 204.379 251.773C204.101 251.81 203.837 251.874 203.586 251.965C203.34 252.051 203.139 252.177 202.984 252.341C202.829 252.5 202.752 252.717 202.752 252.99C202.752 253.327 202.884 253.592 203.148 253.783C203.417 253.975 203.782 254.07 204.242 254.07ZM210.285 244.814V255H209.123V244.814H210.285ZM214.988 255.164C214.323 255.164 213.737 255.005 213.231 254.686C212.73 254.362 212.338 253.918 212.056 253.353C211.778 252.787 211.639 252.138 211.639 251.404C211.639 250.666 211.778 250.012 212.056 249.442C212.338 248.873 212.73 248.426 213.231 248.103C213.737 247.779 214.323 247.617 214.988 247.617C215.658 247.617 216.244 247.779 216.745 248.103C217.246 248.426 217.636 248.873 217.914 249.442C218.197 250.012 218.338 250.666 218.338 251.404C218.338 252.138 218.197 252.787 217.914 253.353C217.636 253.918 217.246 254.362 216.745 254.686C216.244 255.005 215.658 255.164 214.988 255.164ZM214.988 254.111C215.672 254.111 216.205 253.865 216.588 253.373C216.971 252.876 217.162 252.22 217.162 251.404C217.162 250.579 216.968 249.919 216.581 249.422C216.198 248.921 215.667 248.67 214.988 248.67C214.309 248.67 213.776 248.918 213.389 249.415C213.006 249.912 212.814 250.575 212.814 251.404C212.814 252.225 213.006 252.881 213.389 253.373C213.771 253.865 214.305 254.111 214.988 254.111ZM222.713 257.953C221.902 257.953 221.216 257.766 220.655 257.393C220.095 257.019 219.769 256.477 219.678 255.766H220.867C220.972 256.153 221.188 256.442 221.517 256.634C221.849 256.83 222.248 256.928 222.713 256.928C223.342 256.928 223.836 256.759 224.196 256.422C224.556 256.089 224.736 255.615 224.736 255V253.906H224.729C224.465 254.326 224.137 254.635 223.745 254.836C223.358 255.036 222.927 255.137 222.453 255.137C221.829 255.137 221.28 254.979 220.806 254.665C220.336 254.346 219.972 253.906 219.712 253.346C219.452 252.781 219.322 252.129 219.322 251.391C219.322 250.648 219.452 249.996 219.712 249.436C219.972 248.87 220.336 248.431 220.806 248.116C221.28 247.802 221.829 247.645 222.453 247.645C222.923 247.645 223.358 247.745 223.759 247.945C224.164 248.141 224.493 248.463 224.743 248.909H224.75V247.781H225.885V255C225.885 255.711 225.737 256.283 225.44 256.716C225.149 257.149 224.761 257.463 224.278 257.659C223.795 257.855 223.273 257.953 222.713 257.953ZM222.631 254.091C223.301 254.091 223.832 253.845 224.224 253.353C224.62 252.86 224.818 252.206 224.818 251.391C224.818 250.575 224.62 249.921 224.224 249.429C223.832 248.932 223.301 248.684 222.631 248.684C222.007 248.684 221.494 248.914 221.093 249.374C220.696 249.834 220.498 250.507 220.498 251.391C220.498 252.275 220.696 252.947 221.093 253.407C221.494 253.863 222.007 254.091 222.631 254.091ZM227.129 256.921L227.73 253.578H228.975L227.977 256.921H227.129ZM234.184 255V247.781H235.318V248.95C235.546 248.526 235.849 248.203 236.228 247.979C236.606 247.756 237.016 247.645 237.458 247.645C237.95 247.645 238.381 247.77 238.75 248.021C239.119 248.271 239.379 248.579 239.529 248.943C239.725 248.574 240.019 248.267 240.411 248.021C240.803 247.77 241.268 247.645 241.806 247.645C242.248 247.645 242.649 247.74 243.009 247.932C243.373 248.123 243.663 248.412 243.877 248.8C244.096 249.187 244.205 249.677 244.205 250.27V255H243.043V250.27C243.043 249.709 242.886 249.31 242.571 249.073C242.257 248.832 241.892 248.711 241.478 248.711C240.949 248.711 240.532 248.873 240.227 249.196C239.926 249.515 239.775 249.919 239.775 250.406V255H238.613V250.146C238.613 249.714 238.467 249.367 238.176 249.107C237.889 248.843 237.526 248.711 237.089 248.711C236.788 248.711 236.503 248.782 236.234 248.923C235.97 249.064 235.756 249.276 235.592 249.559C235.428 249.837 235.346 250.183 235.346 250.598V255H234.184ZM248.908 255.164C248.243 255.164 247.657 255.005 247.151 254.686C246.65 254.362 246.258 253.918 245.976 253.353C245.698 252.787 245.559 252.138 245.559 251.404C245.559 250.666 245.698 250.012 245.976 249.442C246.258 248.873 246.65 248.426 247.151 248.103C247.657 247.779 248.243 247.617 248.908 247.617C249.578 247.617 250.164 247.779 250.665 248.103C251.166 248.426 251.556 248.873 251.834 249.442C252.117 250.012 252.258 250.666 252.258 251.404C252.258 252.138 252.117 252.787 251.834 253.353C251.556 253.918 251.166 254.362 250.665 254.686C250.164 255.005 249.578 255.164 248.908 255.164ZM248.908 254.111C249.592 254.111 250.125 253.865 250.508 253.373C250.891 252.876 251.082 252.22 251.082 251.404C251.082 250.579 250.888 249.919 250.501 249.422C250.118 248.921 249.587 248.67 248.908 248.67C248.229 248.67 247.696 248.918 247.309 249.415C246.926 249.912 246.734 250.575 246.734 251.404C246.734 252.225 246.926 252.881 247.309 253.373C247.691 253.865 248.225 254.111 248.908 254.111ZM256.373 255.137C255.749 255.137 255.2 254.979 254.726 254.665C254.256 254.346 253.892 253.906 253.632 253.346C253.372 252.781 253.242 252.129 253.242 251.391C253.242 250.648 253.372 249.996 253.632 249.436C253.892 248.87 254.256 248.431 254.726 248.116C255.2 247.802 255.749 247.645 256.373 247.645C256.842 247.645 257.278 247.745 257.679 247.945C258.08 248.141 258.396 248.442 258.629 248.848H258.643V244.814H259.805V255H258.67V253.906H258.656C258.396 254.321 258.068 254.631 257.672 254.836C257.275 255.036 256.842 255.137 256.373 255.137ZM256.551 254.091C257.221 254.091 257.752 253.845 258.144 253.353C258.54 252.86 258.738 252.206 258.738 251.391C258.738 250.575 258.54 249.921 258.144 249.429C257.752 248.932 257.221 248.684 256.551 248.684C255.926 248.684 255.414 248.914 255.013 249.374C254.616 249.834 254.418 250.507 254.418 251.391C254.418 252.275 254.616 252.947 255.013 253.407C255.414 253.863 255.926 254.091 256.551 254.091ZM261.527 255V247.781H262.689V255H261.527ZM262.108 246.373C261.89 246.373 261.703 246.296 261.548 246.141C261.393 245.986 261.315 245.799 261.315 245.58C261.315 245.361 261.393 245.174 261.548 245.02C261.703 244.865 261.89 244.787 262.108 244.787C262.327 244.787 262.514 244.865 262.669 245.02C262.824 245.174 262.901 245.361 262.901 245.58C262.901 245.799 262.824 245.986 262.669 246.141C262.514 246.296 262.327 246.373 262.108 246.373ZM267.563 247.781V248.779H266.101V255H264.938V248.779H263.653V247.781H264.938V246.496C264.938 245.981 265.109 245.573 265.451 245.272C265.793 244.967 266.256 244.814 266.839 244.814H267.563V245.812H266.948C266.643 245.812 266.424 245.879 266.292 246.011C266.164 246.143 266.101 246.364 266.101 246.674V247.781H267.563ZM268.705 255V247.781H269.867V255H268.705ZM269.286 246.373C269.067 246.373 268.881 246.296 268.726 246.141C268.571 245.986 268.493 245.799 268.493 245.58C268.493 245.361 268.571 245.174 268.726 245.02C268.881 244.865 269.067 244.787 269.286 244.787C269.505 244.787 269.692 244.865 269.847 245.02C270.002 245.174 270.079 245.361 270.079 245.58C270.079 245.799 270.002 245.986 269.847 246.141C269.692 246.296 269.505 246.373 269.286 246.373ZM274.57 255.164C273.864 255.164 273.26 255.002 272.759 254.679C272.262 254.355 271.882 253.911 271.617 253.346C271.353 252.776 271.221 252.129 271.221 251.404C271.221 250.671 271.36 250.019 271.638 249.449C271.916 248.88 272.301 248.433 272.793 248.109C273.285 247.781 273.85 247.617 274.488 247.617C275.158 247.617 275.739 247.777 276.231 248.096C276.724 248.415 277.102 248.859 277.366 249.429C277.635 249.998 277.77 250.657 277.77 251.404V251.726H272.369C272.396 252.432 272.599 253.006 272.978 253.448C273.356 253.89 273.887 254.111 274.57 254.111C275.085 254.111 275.505 253.993 275.828 253.756C276.156 253.519 276.375 253.214 276.484 252.84H277.646C277.555 253.3 277.366 253.706 277.079 254.057C276.792 254.403 276.432 254.674 275.999 254.87C275.571 255.066 275.094 255.164 274.57 255.164ZM272.383 250.728H276.607C276.544 250.094 276.323 249.59 275.944 249.217C275.566 248.843 275.081 248.656 274.488 248.656C273.896 248.656 273.413 248.843 273.039 249.217C272.665 249.59 272.447 250.094 272.383 250.728ZM279.096 255V247.781H280.203V248.916H280.23C280.363 248.542 280.572 248.242 280.859 248.014C281.146 247.786 281.516 247.672 281.967 247.672C282.072 247.672 282.167 247.676 282.254 247.686C282.345 247.695 282.413 247.704 282.459 247.713V248.875C282.413 248.861 282.325 248.845 282.192 248.827C282.065 248.804 281.917 248.793 281.748 248.793C281.347 248.793 280.998 248.934 280.702 249.217C280.406 249.499 280.258 249.946 280.258 250.557V255H279.096ZM286.123 255.164C285.608 255.164 285.141 255.08 284.722 254.911C284.302 254.743 283.963 254.487 283.703 254.146C283.443 253.799 283.298 253.364 283.266 252.84H284.414C284.496 253.724 285.057 254.166 286.096 254.166C286.597 254.166 286.991 254.061 287.278 253.852C287.57 253.642 287.716 253.378 287.716 253.059C287.716 252.785 287.616 252.566 287.415 252.402C287.215 252.238 286.952 252.12 286.629 252.047L285.467 251.773C284.109 251.454 283.43 250.771 283.43 249.723C283.43 249.312 283.539 248.95 283.758 248.636C283.981 248.317 284.289 248.068 284.681 247.891C285.077 247.708 285.533 247.617 286.048 247.617C286.549 247.617 286.998 247.713 287.395 247.904C287.796 248.091 288.112 248.358 288.345 248.704C288.582 249.05 288.707 249.463 288.721 249.941H287.586C287.581 249.559 287.44 249.242 287.162 248.991C286.884 248.741 286.513 248.615 286.048 248.615C285.606 248.615 285.253 248.722 284.988 248.937C284.724 249.151 284.592 249.413 284.592 249.723C284.592 249.996 284.692 250.217 284.893 250.386C285.093 250.55 285.367 250.673 285.713 250.755L286.875 251.028C287.568 251.192 288.076 251.438 288.399 251.767C288.723 252.09 288.885 252.512 288.885 253.031C288.885 253.478 288.764 253.861 288.522 254.18C288.281 254.499 287.951 254.743 287.531 254.911C287.117 255.08 286.647 255.164 286.123 255.164ZM289.773 256.921L290.375 253.578H291.619L290.621 256.921H289.773ZM299.029 255.109C298.314 255.109 297.715 254.925 297.231 254.556C296.753 254.187 296.514 253.642 296.514 252.922C296.514 252.507 296.593 252.17 296.753 251.91C296.917 251.65 297.133 251.448 297.402 251.302C297.676 251.151 297.983 251.037 298.325 250.96C298.672 250.882 299.025 250.821 299.385 250.775C299.845 250.712 300.207 250.664 300.472 250.632C300.736 250.6 300.923 250.548 301.032 250.475C301.146 250.402 301.203 250.274 301.203 250.092V250.023C301.203 249.632 301.062 249.308 300.779 249.053C300.501 248.798 300.109 248.67 299.604 248.67C299.102 248.67 298.69 248.793 298.366 249.039C298.047 249.281 297.874 249.581 297.847 249.941H296.664C296.687 249.499 296.824 249.107 297.074 248.766C297.325 248.419 297.667 248.146 298.1 247.945C298.533 247.745 299.034 247.645 299.604 247.645C300.447 247.645 301.114 247.863 301.606 248.301C302.103 248.734 302.352 249.308 302.352 250.023V255H301.203V253.975H301.176C301.089 254.148 300.962 254.323 300.793 254.501C300.624 254.674 300.396 254.82 300.109 254.938C299.827 255.052 299.467 255.109 299.029 255.109ZM299.193 254.07C299.667 254.07 300.052 253.986 300.349 253.817C300.645 253.644 300.861 253.421 300.998 253.147C301.135 252.874 301.203 252.58 301.203 252.266V251.363C301.117 251.445 300.886 251.521 300.513 251.589C300.139 251.653 299.745 251.714 299.33 251.773C299.052 251.81 298.788 251.874 298.537 251.965C298.291 252.051 298.09 252.177 297.936 252.341C297.781 252.5 297.703 252.717 297.703 252.99C297.703 253.327 297.835 253.592 298.1 253.783C298.368 253.975 298.733 254.07 299.193 254.07ZM305.236 250.775V255H304.074V247.781H305.209V248.841C305.46 248.431 305.765 248.13 306.125 247.938C306.49 247.743 306.9 247.645 307.355 247.645C307.843 247.645 308.287 247.752 308.688 247.966C309.09 248.175 309.409 248.492 309.646 248.916C309.887 249.34 310.008 249.873 310.008 250.516V255H308.846V250.598C308.846 249.973 308.695 249.504 308.395 249.189C308.098 248.87 307.679 248.711 307.137 248.711C306.613 248.711 306.164 248.873 305.79 249.196C305.421 249.52 305.236 250.046 305.236 250.775ZM314.492 255.137C313.868 255.137 313.319 254.979 312.845 254.665C312.375 254.346 312.011 253.906 311.751 253.346C311.491 252.781 311.361 252.129 311.361 251.391C311.361 250.648 311.491 249.996 311.751 249.436C312.011 248.87 312.375 248.431 312.845 248.116C313.319 247.802 313.868 247.645 314.492 247.645C314.962 247.645 315.397 247.745 315.798 247.945C316.199 248.141 316.516 248.442 316.748 248.848H316.762V244.814H317.924V255H316.789V253.906H316.775C316.516 254.321 316.188 254.631 315.791 254.836C315.395 255.036 314.962 255.137 314.492 255.137ZM314.67 254.091C315.34 254.091 315.871 253.845 316.263 253.353C316.659 252.86 316.857 252.206 316.857 251.391C316.857 250.575 316.659 249.921 316.263 249.429C315.871 248.932 315.34 248.684 314.67 248.684C314.046 248.684 313.533 248.914 313.132 249.374C312.735 249.834 312.537 250.507 312.537 251.391C312.537 252.275 312.735 252.947 313.132 253.407C313.533 253.863 314.046 254.091 314.67 254.091ZM23.623 275.137C22.9987 275.137 22.4495 274.979 21.9756 274.665C21.5062 274.346 21.1416 273.906 20.8818 273.346C20.6221 272.781 20.4922 272.129 20.4922 271.391C20.4922 270.648 20.6221 269.996 20.8818 269.436C21.1416 268.87 21.5062 268.431 21.9756 268.116C22.4495 267.802 22.9987 267.645 23.623 267.645C24.0924 267.645 24.5277 267.745 24.9287 267.945C25.3298 268.141 25.6465 268.442 25.8789 268.848H25.8926V264.814H27.0547V275H25.9199V273.906H25.9062C25.6465 274.321 25.3184 274.631 24.9219 274.836C24.5254 275.036 24.0924 275.137 23.623 275.137ZM23.8008 274.091C24.4707 274.091 25.0016 273.845 25.3936 273.353C25.79 272.86 25.9883 272.206 25.9883 271.391C25.9883 270.575 25.79 269.921 25.3936 269.429C25.0016 268.932 24.4707 268.684 23.8008 268.684C23.1764 268.684 22.6637 268.914 22.2627 269.374C21.8662 269.834 21.668 270.507 21.668 271.391C21.668 272.275 21.8662 272.947 22.2627 273.407C22.6637 273.863 23.1764 274.091 23.8008 274.091ZM28.9004 277.857V276.832H29.6113C30.0397 276.832 30.3656 276.543 30.5889 275.964L30.9854 274.938L28.1895 267.781H29.4473L31.0059 271.938C31.1061 272.206 31.2041 272.478 31.2998 272.751C31.4001 273.02 31.4958 273.289 31.5869 273.558C31.6826 273.289 31.7783 273.02 31.874 272.751C31.9743 272.478 32.0745 272.206 32.1748 271.938L33.7061 267.781H34.9434L31.6143 276.34C31.4274 276.823 31.1608 277.197 30.8145 277.461C30.4681 277.725 30.0671 277.857 29.6113 277.857H28.9004ZM37.1719 270.775V275H36.0098V267.781H37.1445V268.841C37.3952 268.431 37.7005 268.13 38.0605 267.938C38.4251 267.743 38.8353 267.645 39.291 267.645C39.7786 267.645 40.223 267.752 40.624 267.966C41.0251 268.175 41.3441 268.492 41.5811 268.916C41.8226 269.34 41.9434 269.873 41.9434 270.516V275H40.7812V270.598C40.7812 269.973 40.6309 269.504 40.3301 269.189C40.0339 268.87 39.6146 268.711 39.0723 268.711C38.5482 268.711 38.0993 268.873 37.7256 269.196C37.3564 269.52 37.1719 270.046 37.1719 270.775ZM45.8672 275.109C45.1517 275.109 44.5524 274.925 44.0693 274.556C43.5908 274.187 43.3516 273.642 43.3516 272.922C43.3516 272.507 43.4313 272.17 43.5908 271.91C43.7549 271.65 43.9714 271.448 44.2402 271.302C44.5137 271.151 44.8213 271.037 45.1631 270.96C45.5094 270.882 45.8626 270.821 46.2227 270.775C46.6829 270.712 47.0452 270.664 47.3096 270.632C47.5739 270.6 47.7607 270.548 47.8701 270.475C47.984 270.402 48.041 270.274 48.041 270.092V270.023C48.041 269.632 47.8997 269.308 47.6172 269.053C47.3392 268.798 46.9473 268.67 46.4414 268.67C45.9401 268.67 45.5277 268.793 45.2041 269.039C44.8851 269.281 44.7119 269.581 44.6846 269.941H43.502C43.5247 269.499 43.6615 269.107 43.9121 268.766C44.1628 268.419 44.5046 268.146 44.9375 267.945C45.3704 267.745 45.8717 267.645 46.4414 267.645C47.2845 267.645 47.9521 267.863 48.4443 268.301C48.9411 268.734 49.1895 269.308 49.1895 270.023V275H48.041V273.975H48.0137C47.9271 274.148 47.7995 274.323 47.6309 274.501C47.4622 274.674 47.2344 274.82 46.9473 274.938C46.6647 275.052 46.3047 275.109 45.8672 275.109ZM46.0312 274.07C46.5052 274.07 46.8903 273.986 47.1865 273.817C47.4827 273.644 47.6992 273.421 47.8359 273.147C47.9727 272.874 48.041 272.58 48.041 272.266V271.363C47.9544 271.445 47.7243 271.521 47.3506 271.589C46.9769 271.653 46.5827 271.714 46.168 271.773C45.89 271.81 45.6257 271.874 45.375 271.965C45.1289 272.051 44.9284 272.177 44.7734 272.341C44.6185 272.5 44.541 272.717 44.541 272.99C44.541 273.327 44.6732 273.592 44.9375 273.783C45.2064 273.975 45.571 274.07 46.0312 274.07ZM50.9121 275V267.781H52.0469V268.95C52.2747 268.526 52.5778 268.203 52.9561 267.979C53.3343 267.756 53.7445 267.645 54.1865 267.645C54.6787 267.645 55.1094 267.77 55.4785 268.021C55.8477 268.271 56.1074 268.579 56.2578 268.943C56.4538 268.574 56.7477 268.267 57.1396 268.021C57.5316 267.77 57.9964 267.645 58.5342 267.645C58.9762 267.645 59.3773 267.74 59.7373 267.932C60.1019 268.123 60.3913 268.412 60.6055 268.8C60.8242 269.187 60.9336 269.677 60.9336 270.27V275H59.7715V270.27C59.7715 269.709 59.6143 269.31 59.2998 269.073C58.9854 268.832 58.6208 268.711 58.2061 268.711C57.6774 268.711 57.2604 268.873 56.9551 269.196C56.6543 269.515 56.5039 269.919 56.5039 270.406V275H55.3418V270.146C55.3418 269.714 55.196 269.367 54.9043 269.107C54.6172 268.843 54.2549 268.711 53.8174 268.711C53.5166 268.711 53.2318 268.782 52.9629 268.923C52.6986 269.064 52.4844 269.276 52.3203 269.559C52.1562 269.837 52.0742 270.183 52.0742 270.598V275H50.9121ZM62.6562 275V267.781H63.8184V275H62.6562ZM63.2373 266.373C63.0186 266.373 62.8317 266.296 62.6768 266.141C62.5218 265.986 62.4443 265.799 62.4443 265.58C62.4443 265.361 62.5218 265.174 62.6768 265.02C62.8317 264.865 63.0186 264.787 63.2373 264.787C63.4561 264.787 63.6429 264.865 63.7979 265.02C63.9528 265.174 64.0303 265.361 64.0303 265.58C64.0303 265.799 63.9528 265.986 63.7979 266.141C63.6429 266.296 63.4561 266.373 63.2373 266.373ZM68.5215 275.164C67.8561 275.164 67.2705 275.005 66.7646 274.686C66.2633 274.362 65.8714 273.918 65.5889 273.353C65.3109 272.787 65.1719 272.138 65.1719 271.404C65.1719 270.666 65.3109 270.012 65.5889 269.442C65.8714 268.873 66.2633 268.426 66.7646 268.103C67.2705 267.779 67.8561 267.617 68.5215 267.617C69.0684 267.617 69.5583 267.727 69.9912 267.945C70.4242 268.16 70.7773 268.456 71.0508 268.834C71.3288 269.212 71.4997 269.645 71.5635 270.133H70.3877C70.3011 269.709 70.1006 269.36 69.7861 269.087C69.4762 268.809 69.0547 268.67 68.5215 268.67C67.8424 268.67 67.3092 268.918 66.9219 269.415C66.5391 269.912 66.3477 270.575 66.3477 271.404C66.3477 272.225 66.5391 272.881 66.9219 273.373C67.3047 273.865 67.8379 274.111 68.5215 274.111C69.0638 274.111 69.4785 273.979 69.7656 273.715C70.0527 273.446 70.2533 273.09 70.3672 272.648H71.5635C71.4997 273.122 71.3288 273.551 71.0508 273.934C70.7773 274.312 70.4219 274.613 69.9844 274.836C69.5514 275.055 69.0638 275.164 68.5215 275.164ZM76.3691 277.857V267.781H77.5039V268.848H77.5176C77.75 268.442 78.0713 268.141 78.4814 267.945C78.8916 267.745 79.3314 267.645 79.8008 267.645C80.4297 267.645 80.9788 267.802 81.4482 268.116C81.9176 268.431 82.2822 268.87 82.542 269.436C82.8018 269.996 82.9316 270.648 82.9316 271.391C82.9316 272.129 82.8018 272.781 82.542 273.346C82.2822 273.906 81.9176 274.346 81.4482 274.665C80.9788 274.979 80.4297 275.137 79.8008 275.137C79.3314 275.137 78.903 275.036 78.5156 274.836C78.1283 274.631 77.8047 274.321 77.5449 273.906H77.5312V277.857H76.3691ZM79.623 274.091C80.2474 274.091 80.7578 273.863 81.1543 273.407C81.5553 272.947 81.7559 272.275 81.7559 271.391C81.7559 270.507 81.5553 269.834 81.1543 269.374C80.7578 268.914 80.2474 268.684 79.623 268.684C78.9531 268.684 78.4199 268.932 78.0234 269.429C77.6315 269.921 77.4355 270.575 77.4355 271.391C77.4355 272.206 77.6315 272.86 78.0234 273.353C78.4199 273.845 78.9531 274.091 79.623 274.091ZM84.2852 275V267.781H85.3926V268.916H85.4199C85.5521 268.542 85.7617 268.242 86.0488 268.014C86.3359 267.786 86.7051 267.672 87.1562 267.672C87.2611 267.672 87.3568 267.676 87.4434 267.686C87.5345 267.695 87.6029 267.704 87.6484 267.713V268.875C87.6029 268.861 87.514 268.845 87.3818 268.827C87.2542 268.804 87.1061 268.793 86.9375 268.793C86.5365 268.793 86.1878 268.934 85.8916 269.217C85.5954 269.499 85.4473 269.946 85.4473 270.557V275H84.2852ZM88.7969 275V267.781H89.959V275H88.7969ZM89.3779 266.373C89.1592 266.373 88.9723 266.296 88.8174 266.141C88.6624 265.986 88.585 265.799 88.585 265.58C88.585 265.361 88.6624 265.174 88.8174 265.02C88.9723 264.865 89.1592 264.787 89.3779 264.787C89.5967 264.787 89.7835 264.865 89.9385 265.02C90.0934 265.174 90.1709 265.361 90.1709 265.58C90.1709 265.799 90.0934 265.986 89.9385 266.141C89.7835 266.296 89.5967 266.373 89.3779 266.373ZM94.6621 275.164C93.9967 275.164 93.4111 275.005 92.9053 274.686C92.404 274.362 92.012 273.918 91.7295 273.353C91.4515 272.787 91.3125 272.138 91.3125 271.404C91.3125 270.666 91.4515 270.012 91.7295 269.442C92.012 268.873 92.404 268.426 92.9053 268.103C93.4111 267.779 93.9967 267.617 94.6621 267.617C95.209 267.617 95.6989 267.727 96.1318 267.945C96.5648 268.16 96.918 268.456 97.1914 268.834C97.4694 269.212 97.6403 269.645 97.7041 270.133H96.5283C96.4417 269.709 96.2412 269.36 95.9268 269.087C95.6169 268.809 95.1953 268.67 94.6621 268.67C93.9831 268.67 93.4499 268.918 93.0625 269.415C92.6797 269.912 92.4883 270.575 92.4883 271.404C92.4883 272.225 92.6797 272.881 93.0625 273.373C93.4453 273.865 93.9785 274.111 94.6621 274.111C95.2044 274.111 95.6191 273.979 95.9062 273.715C96.1934 273.446 96.3939 273.09 96.5078 272.648H97.7041C97.6403 273.122 97.4694 273.551 97.1914 273.934C96.918 274.312 96.5625 274.613 96.125 274.836C95.6921 275.055 95.2044 275.164 94.6621 275.164ZM99.0098 275V267.781H100.172V275H99.0098ZM99.5908 266.373C99.3721 266.373 99.1852 266.296 99.0303 266.141C98.8753 265.986 98.7979 265.799 98.7979 265.58C98.7979 265.361 98.8753 265.174 99.0303 265.02C99.1852 264.865 99.3721 264.787 99.5908 264.787C99.8096 264.787 99.9964 264.865 100.151 265.02C100.306 265.174 100.384 265.361 100.384 265.58C100.384 265.799 100.306 265.986 100.151 266.141C99.9964 266.296 99.8096 266.373 99.5908 266.373ZM103.057 270.775V275H101.895V267.781H103.029V268.841C103.28 268.431 103.585 268.13 103.945 267.938C104.31 267.743 104.72 267.645 105.176 267.645C105.663 267.645 106.108 267.752 106.509 267.966C106.91 268.175 107.229 268.492 107.466 268.916C107.707 269.34 107.828 269.873 107.828 270.516V275H106.666V270.598C106.666 269.973 106.516 269.504 106.215 269.189C105.919 268.87 105.499 268.711 104.957 268.711C104.433 268.711 103.984 268.873 103.61 269.196C103.241 269.52 103.057 270.046 103.057 270.775ZM112.572 277.953C111.761 277.953 111.075 277.766 110.515 277.393C109.954 277.019 109.628 276.477 109.537 275.766H110.727C110.831 276.153 111.048 276.442 111.376 276.634C111.709 276.83 112.107 276.928 112.572 276.928C113.201 276.928 113.696 276.759 114.056 276.422C114.416 276.089 114.596 275.615 114.596 275V273.906H114.589C114.325 274.326 113.996 274.635 113.604 274.836C113.217 275.036 112.786 275.137 112.312 275.137C111.688 275.137 111.139 274.979 110.665 274.665C110.196 274.346 109.831 273.906 109.571 273.346C109.312 272.781 109.182 272.129 109.182 271.391C109.182 270.648 109.312 269.996 109.571 269.436C109.831 268.87 110.196 268.431 110.665 268.116C111.139 267.802 111.688 267.645 112.312 267.645C112.782 267.645 113.217 267.745 113.618 267.945C114.024 268.141 114.352 268.463 114.603 268.909H114.609V267.781H115.744V275C115.744 275.711 115.596 276.283 115.3 276.716C115.008 277.149 114.621 277.463 114.138 277.659C113.655 277.855 113.133 277.953 112.572 277.953ZM112.49 274.091C113.16 274.091 113.691 273.845 114.083 273.353C114.479 272.86 114.678 272.206 114.678 271.391C114.678 270.575 114.479 269.921 114.083 269.429C113.691 268.932 113.16 268.684 112.49 268.684C111.866 268.684 111.353 268.914 110.952 269.374C110.556 269.834 110.357 270.507 110.357 271.391C110.357 272.275 110.556 272.947 110.952 273.407C111.353 273.863 111.866 274.091 112.49 274.091ZM120.967 275V267.781H122.129V275H120.967ZM121.548 266.373C121.329 266.373 121.142 266.296 120.987 266.141C120.832 265.986 120.755 265.799 120.755 265.58C120.755 265.361 120.832 265.174 120.987 265.02C121.142 264.865 121.329 264.787 121.548 264.787C121.767 264.787 121.953 264.865 122.108 265.02C122.263 265.174 122.341 265.361 122.341 265.58C122.341 265.799 122.263 265.986 122.108 266.141C121.953 266.296 121.767 266.373 121.548 266.373ZM125.014 270.775V275H123.852V267.781H124.986V268.841C125.237 268.431 125.542 268.13 125.902 267.938C126.267 267.743 126.677 267.645 127.133 267.645C127.62 267.645 128.065 267.752 128.466 267.966C128.867 268.175 129.186 268.492 129.423 268.916C129.664 269.34 129.785 269.873 129.785 270.516V275H128.623V270.598C128.623 269.973 128.473 269.504 128.172 269.189C127.876 268.87 127.456 268.711 126.914 268.711C126.39 268.711 125.941 268.873 125.567 269.196C125.198 269.52 125.014 270.046 125.014 270.775ZM137.988 275.164C137.323 275.164 136.737 275.005 136.231 274.686C135.73 274.362 135.338 273.918 135.056 273.353C134.778 272.787 134.639 272.138 134.639 271.404C134.639 270.666 134.778 270.012 135.056 269.442C135.338 268.873 135.73 268.426 136.231 268.103C136.737 267.779 137.323 267.617 137.988 267.617C138.658 267.617 139.244 267.779 139.745 268.103C140.246 268.426 140.636 268.873 140.914 269.442C141.197 270.012 141.338 270.666 141.338 271.404C141.338 272.138 141.197 272.787 140.914 273.353C140.636 273.918 140.246 274.362 139.745 274.686C139.244 275.005 138.658 275.164 137.988 275.164ZM137.988 274.111C138.672 274.111 139.205 273.865 139.588 273.373C139.971 272.876 140.162 272.22 140.162 271.404C140.162 270.579 139.968 269.919 139.581 269.422C139.198 268.921 138.667 268.67 137.988 268.67C137.309 268.67 136.776 268.918 136.389 269.415C136.006 269.912 135.814 270.575 135.814 271.404C135.814 272.225 136.006 272.881 136.389 273.373C136.771 273.865 137.305 274.111 137.988 274.111ZM143.854 270.775V275H142.691V267.781H143.826V268.841C144.077 268.431 144.382 268.13 144.742 267.938C145.107 267.743 145.517 267.645 145.973 267.645C146.46 267.645 146.905 267.752 147.306 267.966C147.707 268.175 148.026 268.492 148.263 268.916C148.504 269.34 148.625 269.873 148.625 270.516V275H147.463V270.598C147.463 269.973 147.312 269.504 147.012 269.189C146.715 268.87 146.296 268.711 145.754 268.711C145.23 268.711 144.781 268.873 144.407 269.196C144.038 269.52 143.854 270.046 143.854 270.775ZM153.328 275.164C152.622 275.164 152.018 275.002 151.517 274.679C151.02 274.355 150.639 273.911 150.375 273.346C150.111 272.776 149.979 272.129 149.979 271.404C149.979 270.671 150.118 270.019 150.396 269.449C150.674 268.88 151.059 268.433 151.551 268.109C152.043 267.781 152.608 267.617 153.246 267.617C153.916 267.617 154.497 267.777 154.989 268.096C155.481 268.415 155.86 268.859 156.124 269.429C156.393 269.998 156.527 270.657 156.527 271.404V271.726H151.127C151.154 272.432 151.357 273.006 151.735 273.448C152.114 273.89 152.645 274.111 153.328 274.111C153.843 274.111 154.262 273.993 154.586 273.756C154.914 273.519 155.133 273.214 155.242 272.84H156.404C156.313 273.3 156.124 273.706 155.837 274.057C155.55 274.403 155.19 274.674 154.757 274.87C154.328 275.066 153.852 275.164 153.328 275.164ZM151.141 270.728H155.365C155.301 270.094 155.08 269.59 154.702 269.217C154.324 268.843 153.839 268.656 153.246 268.656C152.654 268.656 152.171 268.843 151.797 269.217C151.423 269.59 151.204 270.094 151.141 270.728ZM164.334 275.164C163.669 275.164 163.083 275.005 162.577 274.686C162.076 274.362 161.684 273.918 161.401 273.353C161.123 272.787 160.984 272.138 160.984 271.404C160.984 270.666 161.123 270.012 161.401 269.442C161.684 268.873 162.076 268.426 162.577 268.103C163.083 267.779 163.669 267.617 164.334 267.617C164.881 267.617 165.371 267.727 165.804 267.945C166.237 268.16 166.59 268.456 166.863 268.834C167.141 269.212 167.312 269.645 167.376 270.133H166.2C166.114 269.709 165.913 269.36 165.599 269.087C165.289 268.809 164.867 268.67 164.334 268.67C163.655 268.67 163.122 268.918 162.734 269.415C162.352 269.912 162.16 270.575 162.16 271.404C162.16 272.225 162.352 272.881 162.734 273.373C163.117 273.865 163.65 274.111 164.334 274.111C164.876 274.111 165.291 273.979 165.578 273.715C165.865 273.446 166.066 273.09 166.18 272.648H167.376C167.312 273.122 167.141 273.551 166.863 273.934C166.59 274.312 166.234 274.613 165.797 274.836C165.364 275.055 164.876 275.164 164.334 275.164ZM171.662 275.164C170.956 275.164 170.352 275.002 169.851 274.679C169.354 274.355 168.973 273.911 168.709 273.346C168.445 272.776 168.312 272.129 168.312 271.404C168.312 270.671 168.451 270.019 168.729 269.449C169.007 268.88 169.393 268.433 169.885 268.109C170.377 267.781 170.942 267.617 171.58 267.617C172.25 267.617 172.831 267.777 173.323 268.096C173.815 268.415 174.194 268.859 174.458 269.429C174.727 269.998 174.861 270.657 174.861 271.404V271.726H169.461C169.488 272.432 169.691 273.006 170.069 273.448C170.448 273.89 170.979 274.111 171.662 274.111C172.177 274.111 172.596 273.993 172.92 273.756C173.248 273.519 173.467 273.214 173.576 272.84H174.738C174.647 273.3 174.458 273.706 174.171 274.057C173.884 274.403 173.524 274.674 173.091 274.87C172.662 275.066 172.186 275.164 171.662 275.164ZM169.475 270.728H173.699C173.635 270.094 173.414 269.59 173.036 269.217C172.658 268.843 172.173 268.656 171.58 268.656C170.988 268.656 170.505 268.843 170.131 269.217C169.757 269.59 169.538 270.094 169.475 270.728ZM177.35 270.775V275H176.188V267.781H177.322V268.841C177.573 268.431 177.878 268.13 178.238 267.938C178.603 267.743 179.013 267.645 179.469 267.645C179.956 267.645 180.401 267.752 180.802 267.966C181.203 268.175 181.522 268.492 181.759 268.916C182 269.34 182.121 269.873 182.121 270.516V275H180.959V270.598C180.959 269.973 180.809 269.504 180.508 269.189C180.212 268.87 179.792 268.711 179.25 268.711C178.726 268.711 178.277 268.873 177.903 269.196C177.534 269.52 177.35 270.046 177.35 270.775ZM186.995 267.781V268.779H185.532V273.25C185.532 273.528 185.589 273.724 185.703 273.838C185.822 273.947 186.029 274.002 186.325 274.002H186.995V275H186.216C184.985 275 184.37 274.458 184.37 273.373V268.779H183.085V267.781H184.37V265.812H185.532V267.781H186.995ZM188.205 275V267.781H189.312V268.916H189.34C189.472 268.542 189.682 268.242 189.969 268.014C190.256 267.786 190.625 267.672 191.076 267.672C191.181 267.672 191.277 267.676 191.363 267.686C191.454 267.695 191.523 267.704 191.568 267.713V268.875C191.523 268.861 191.434 268.845 191.302 268.827C191.174 268.804 191.026 268.793 190.857 268.793C190.456 268.793 190.108 268.934 189.812 269.217C189.515 269.499 189.367 269.946 189.367 270.557V275H188.205ZM194.699 275.109C193.984 275.109 193.384 274.925 192.901 274.556C192.423 274.187 192.184 273.642 192.184 272.922C192.184 272.507 192.263 272.17 192.423 271.91C192.587 271.65 192.803 271.448 193.072 271.302C193.346 271.151 193.653 271.037 193.995 270.96C194.341 270.882 194.695 270.821 195.055 270.775C195.515 270.712 195.877 270.664 196.142 270.632C196.406 270.6 196.593 270.548 196.702 270.475C196.816 270.402 196.873 270.274 196.873 270.092V270.023C196.873 269.632 196.732 269.308 196.449 269.053C196.171 268.798 195.779 268.67 195.273 268.67C194.772 268.67 194.36 268.793 194.036 269.039C193.717 269.281 193.544 269.581 193.517 269.941H192.334C192.357 269.499 192.493 269.107 192.744 268.766C192.995 268.419 193.337 268.146 193.77 267.945C194.202 267.745 194.704 267.645 195.273 267.645C196.117 267.645 196.784 267.863 197.276 268.301C197.773 268.734 198.021 269.308 198.021 270.023V275H196.873V273.975H196.846C196.759 274.148 196.632 274.323 196.463 274.501C196.294 274.674 196.066 274.82 195.779 274.938C195.497 275.052 195.137 275.109 194.699 275.109ZM194.863 274.07C195.337 274.07 195.722 273.986 196.019 273.817C196.315 273.644 196.531 273.421 196.668 273.147C196.805 272.874 196.873 272.58 196.873 272.266V271.363C196.786 271.445 196.556 271.521 196.183 271.589C195.809 271.653 195.415 271.714 195 271.773C194.722 271.81 194.458 271.874 194.207 271.965C193.961 272.051 193.76 272.177 193.605 272.341C193.451 272.5 193.373 272.717 193.373 272.99C193.373 273.327 193.505 273.592 193.77 273.783C194.038 273.975 194.403 274.07 194.863 274.07ZM200.906 264.814V275H199.744V264.814H200.906ZM208.33 275.109C207.615 275.109 207.015 274.925 206.532 274.556C206.054 274.187 205.814 273.642 205.814 272.922C205.814 272.507 205.894 272.17 206.054 271.91C206.218 271.65 206.434 271.448 206.703 271.302C206.977 271.151 207.284 271.037 207.626 270.96C207.972 270.882 208.326 270.821 208.686 270.775C209.146 270.712 209.508 270.664 209.772 270.632C210.037 270.6 210.224 270.548 210.333 270.475C210.447 270.402 210.504 270.274 210.504 270.092V270.023C210.504 269.632 210.363 269.308 210.08 269.053C209.802 268.798 209.41 268.67 208.904 268.67C208.403 268.67 207.991 268.793 207.667 269.039C207.348 269.281 207.175 269.581 207.147 269.941H205.965C205.988 269.499 206.124 269.107 206.375 268.766C206.626 268.419 206.967 268.146 207.4 267.945C207.833 267.745 208.335 267.645 208.904 267.645C209.747 267.645 210.415 267.863 210.907 268.301C211.404 268.734 211.652 269.308 211.652 270.023V275H210.504V273.975H210.477C210.39 274.148 210.262 274.323 210.094 274.501C209.925 274.674 209.697 274.82 209.41 274.938C209.128 275.052 208.768 275.109 208.33 275.109ZM208.494 274.07C208.968 274.07 209.353 273.986 209.649 273.817C209.946 273.644 210.162 273.421 210.299 273.147C210.436 272.874 210.504 272.58 210.504 272.266V271.363C210.417 271.445 210.187 271.521 209.813 271.589C209.44 271.653 209.046 271.714 208.631 271.773C208.353 271.81 208.089 271.874 207.838 271.965C207.592 272.051 207.391 272.177 207.236 272.341C207.081 272.5 207.004 272.717 207.004 272.99C207.004 273.327 207.136 273.592 207.4 273.783C207.669 273.975 208.034 274.07 208.494 274.07ZM216.137 275.137C215.512 275.137 214.963 274.979 214.489 274.665C214.02 274.346 213.655 273.906 213.396 273.346C213.136 272.781 213.006 272.129 213.006 271.391C213.006 270.648 213.136 269.996 213.396 269.436C213.655 268.87 214.02 268.431 214.489 268.116C214.963 267.802 215.512 267.645 216.137 267.645C216.606 267.645 217.041 267.745 217.442 267.945C217.843 268.141 218.16 268.442 218.393 268.848H218.406V264.814H219.568V275H218.434V273.906H218.42C218.16 274.321 217.832 274.631 217.436 274.836C217.039 275.036 216.606 275.137 216.137 275.137ZM216.314 274.091C216.984 274.091 217.515 273.845 217.907 273.353C218.304 272.86 218.502 272.206 218.502 271.391C218.502 270.575 218.304 269.921 217.907 269.429C217.515 268.932 216.984 268.684 216.314 268.684C215.69 268.684 215.177 268.914 214.776 269.374C214.38 269.834 214.182 270.507 214.182 271.391C214.182 272.275 214.38 272.947 214.776 273.407C215.177 273.863 215.69 274.091 216.314 274.091ZM221.291 275V267.781H222.426V268.95C222.654 268.526 222.957 268.203 223.335 267.979C223.713 267.756 224.123 267.645 224.565 267.645C225.058 267.645 225.488 267.77 225.857 268.021C226.227 268.271 226.486 268.579 226.637 268.943C226.833 268.574 227.127 268.267 227.519 268.021C227.91 267.77 228.375 267.645 228.913 267.645C229.355 267.645 229.756 267.74 230.116 267.932C230.481 268.123 230.77 268.412 230.984 268.8C231.203 269.187 231.312 269.677 231.312 270.27V275H230.15V270.27C230.15 269.709 229.993 269.31 229.679 269.073C229.364 268.832 229 268.711 228.585 268.711C228.056 268.711 227.639 268.873 227.334 269.196C227.033 269.515 226.883 269.919 226.883 270.406V275H225.721V270.146C225.721 269.714 225.575 269.367 225.283 269.107C224.996 268.843 224.634 268.711 224.196 268.711C223.896 268.711 223.611 268.782 223.342 268.923C223.077 269.064 222.863 269.276 222.699 269.559C222.535 269.837 222.453 270.183 222.453 270.598V275H221.291ZM233.035 275V267.781H234.197V275H233.035ZM233.616 266.373C233.397 266.373 233.211 266.296 233.056 266.141C232.901 265.986 232.823 265.799 232.823 265.58C232.823 265.361 232.901 265.174 233.056 265.02C233.211 264.865 233.397 264.787 233.616 264.787C233.835 264.787 234.022 264.865 234.177 265.02C234.332 265.174 234.409 265.361 234.409 265.58C234.409 265.799 234.332 265.986 234.177 266.141C234.022 266.296 233.835 266.373 233.616 266.373ZM237.082 270.775V275H235.92V267.781H237.055V268.841C237.305 268.431 237.611 268.13 237.971 267.938C238.335 267.743 238.745 267.645 239.201 267.645C239.689 267.645 240.133 267.752 240.534 267.966C240.935 268.175 241.254 268.492 241.491 268.916C241.733 269.34 241.854 269.873 241.854 270.516V275H240.691V270.598C240.691 269.973 240.541 269.504 240.24 269.189C239.944 268.87 239.525 268.711 238.982 268.711C238.458 268.711 238.009 268.873 237.636 269.196C237.267 269.52 237.082 270.046 237.082 270.775ZM249.838 275.137C249.214 275.137 248.664 274.979 248.19 274.665C247.721 274.346 247.356 273.906 247.097 273.346C246.837 272.781 246.707 272.129 246.707 271.391C246.707 270.648 246.837 269.996 247.097 269.436C247.356 268.87 247.721 268.431 248.19 268.116C248.664 267.802 249.214 267.645 249.838 267.645C250.307 267.645 250.743 267.745 251.144 267.945C251.545 268.141 251.861 268.442 252.094 268.848H252.107V264.814H253.27V275H252.135V273.906H252.121C251.861 274.321 251.533 274.631 251.137 274.836C250.74 275.036 250.307 275.137 249.838 275.137ZM250.016 274.091C250.686 274.091 251.216 273.845 251.608 273.353C252.005 272.86 252.203 272.206 252.203 271.391C252.203 270.575 252.005 269.921 251.608 269.429C251.216 268.932 250.686 268.684 250.016 268.684C249.391 268.684 248.879 268.914 248.478 269.374C248.081 269.834 247.883 270.507 247.883 271.391C247.883 272.275 248.081 272.947 248.478 273.407C248.879 273.863 249.391 274.091 250.016 274.091ZM257.193 275.109C256.478 275.109 255.879 274.925 255.396 274.556C254.917 274.187 254.678 273.642 254.678 272.922C254.678 272.507 254.757 272.17 254.917 271.91C255.081 271.65 255.298 271.448 255.566 271.302C255.84 271.151 256.147 271.037 256.489 270.96C256.836 270.882 257.189 270.821 257.549 270.775C258.009 270.712 258.371 270.664 258.636 270.632C258.9 270.6 259.087 270.548 259.196 270.475C259.31 270.402 259.367 270.274 259.367 270.092V270.023C259.367 269.632 259.226 269.308 258.943 269.053C258.665 268.798 258.273 268.67 257.768 268.67C257.266 268.67 256.854 268.793 256.53 269.039C256.211 269.281 256.038 269.581 256.011 269.941H254.828C254.851 269.499 254.988 269.107 255.238 268.766C255.489 268.419 255.831 268.146 256.264 267.945C256.697 267.745 257.198 267.645 257.768 267.645C258.611 267.645 259.278 267.863 259.771 268.301C260.267 268.734 260.516 269.308 260.516 270.023V275H259.367V273.975H259.34C259.253 274.148 259.126 274.323 258.957 274.501C258.788 274.674 258.561 274.82 258.273 274.938C257.991 275.052 257.631 275.109 257.193 275.109ZM257.357 274.07C257.831 274.07 258.216 273.986 258.513 273.817C258.809 273.644 259.025 273.421 259.162 273.147C259.299 272.874 259.367 272.58 259.367 272.266V271.363C259.281 271.445 259.05 271.521 258.677 271.589C258.303 271.653 257.909 271.714 257.494 271.773C257.216 271.81 256.952 271.874 256.701 271.965C256.455 272.051 256.255 272.177 256.1 272.341C255.945 272.5 255.867 272.717 255.867 272.99C255.867 273.327 255.999 273.592 256.264 273.783C256.533 273.975 256.897 274.07 257.357 274.07ZM264.754 275.164C264.239 275.164 263.772 275.08 263.353 274.911C262.933 274.743 262.594 274.487 262.334 274.146C262.074 273.799 261.928 273.364 261.896 272.84H263.045C263.127 273.724 263.688 274.166 264.727 274.166C265.228 274.166 265.622 274.061 265.909 273.852C266.201 273.642 266.347 273.378 266.347 273.059C266.347 272.785 266.246 272.566 266.046 272.402C265.845 272.238 265.583 272.12 265.26 272.047L264.098 271.773C262.74 271.454 262.061 270.771 262.061 269.723C262.061 269.312 262.17 268.95 262.389 268.636C262.612 268.317 262.92 268.068 263.312 267.891C263.708 267.708 264.164 267.617 264.679 267.617C265.18 267.617 265.629 267.713 266.025 267.904C266.426 268.091 266.743 268.358 266.976 268.704C267.213 269.05 267.338 269.463 267.352 269.941H266.217C266.212 269.559 266.071 269.242 265.793 268.991C265.515 268.741 265.144 268.615 264.679 268.615C264.237 268.615 263.883 268.722 263.619 268.937C263.355 269.151 263.223 269.413 263.223 269.723C263.223 269.996 263.323 270.217 263.523 270.386C263.724 270.55 263.997 270.673 264.344 270.755L265.506 271.028C266.199 271.192 266.707 271.438 267.03 271.767C267.354 272.09 267.516 272.512 267.516 273.031C267.516 273.478 267.395 273.861 267.153 274.18C266.912 274.499 266.581 274.743 266.162 274.911C265.747 275.08 265.278 275.164 264.754 275.164ZM270.045 270.775V275H268.883V264.814H270.045V268.793C270.296 268.401 270.599 268.112 270.954 267.925C271.314 267.738 271.717 267.645 272.164 267.645C272.652 267.645 273.096 267.752 273.497 267.966C273.898 268.175 274.217 268.492 274.454 268.916C274.696 269.34 274.816 269.873 274.816 270.516V275H273.654V270.598C273.654 269.973 273.504 269.504 273.203 269.189C272.907 268.87 272.488 268.711 271.945 268.711C271.421 268.711 270.972 268.873 270.599 269.196C270.229 269.52 270.045 270.046 270.045 270.775ZM279.971 275.137C279.501 275.137 279.068 275.036 278.672 274.836C278.275 274.631 277.947 274.321 277.688 273.906H277.674V275H276.539V264.814H277.701V268.848H277.715C277.947 268.442 278.264 268.141 278.665 267.945C279.066 267.745 279.501 267.645 279.971 267.645C280.6 267.645 281.149 267.802 281.618 268.116C282.088 268.431 282.452 268.87 282.712 269.436C282.972 269.996 283.102 270.648 283.102 271.391C283.102 272.129 282.972 272.781 282.712 273.346C282.452 273.906 282.088 274.346 281.618 274.665C281.149 274.979 280.6 275.137 279.971 275.137ZM279.793 274.091C280.417 274.091 280.928 273.863 281.324 273.407C281.725 272.947 281.926 272.275 281.926 271.391C281.926 270.507 281.725 269.834 281.324 269.374C280.928 268.914 280.417 268.684 279.793 268.684C279.123 268.684 278.59 268.932 278.193 269.429C277.801 269.921 277.605 270.575 277.605 271.391C277.605 272.206 277.801 272.86 278.193 273.353C278.59 273.845 279.123 274.091 279.793 274.091ZM287.436 275.164C286.77 275.164 286.185 275.005 285.679 274.686C285.177 274.362 284.785 273.918 284.503 273.353C284.225 272.787 284.086 272.138 284.086 271.404C284.086 270.666 284.225 270.012 284.503 269.442C284.785 268.873 285.177 268.426 285.679 268.103C286.185 267.779 286.77 267.617 287.436 267.617C288.105 267.617 288.691 267.779 289.192 268.103C289.694 268.426 290.083 268.873 290.361 269.442C290.644 270.012 290.785 270.666 290.785 271.404C290.785 272.138 290.644 272.787 290.361 273.353C290.083 273.918 289.694 274.362 289.192 274.686C288.691 275.005 288.105 275.164 287.436 275.164ZM287.436 274.111C288.119 274.111 288.652 273.865 289.035 273.373C289.418 272.876 289.609 272.22 289.609 271.404C289.609 270.579 289.416 269.919 289.028 269.422C288.646 268.921 288.115 268.67 287.436 268.67C286.757 268.67 286.223 268.918 285.836 269.415C285.453 269.912 285.262 270.575 285.262 271.404C285.262 272.225 285.453 272.881 285.836 273.373C286.219 273.865 286.752 274.111 287.436 274.111ZM294.408 275.109C293.693 275.109 293.093 274.925 292.61 274.556C292.132 274.187 291.893 273.642 291.893 272.922C291.893 272.507 291.972 272.17 292.132 271.91C292.296 271.65 292.512 271.448 292.781 271.302C293.055 271.151 293.362 271.037 293.704 270.96C294.05 270.882 294.404 270.821 294.764 270.775C295.224 270.712 295.586 270.664 295.851 270.632C296.115 270.6 296.302 270.548 296.411 270.475C296.525 270.402 296.582 270.274 296.582 270.092V270.023C296.582 269.632 296.441 269.308 296.158 269.053C295.88 268.798 295.488 268.67 294.982 268.67C294.481 268.67 294.069 268.793 293.745 269.039C293.426 269.281 293.253 269.581 293.226 269.941H292.043C292.066 269.499 292.202 269.107 292.453 268.766C292.704 268.419 293.046 268.146 293.479 267.945C293.911 267.745 294.413 267.645 294.982 267.645C295.826 267.645 296.493 267.863 296.985 268.301C297.482 268.734 297.73 269.308 297.73 270.023V275H296.582V273.975H296.555C296.468 274.148 296.34 274.323 296.172 274.501C296.003 274.674 295.775 274.82 295.488 274.938C295.206 275.052 294.846 275.109 294.408 275.109ZM294.572 274.07C295.046 274.07 295.431 273.986 295.728 273.817C296.024 273.644 296.24 273.421 296.377 273.147C296.514 272.874 296.582 272.58 296.582 272.266V271.363C296.495 271.445 296.265 271.521 295.892 271.589C295.518 271.653 295.124 271.714 294.709 271.773C294.431 271.81 294.167 271.874 293.916 271.965C293.67 272.051 293.469 272.177 293.314 272.341C293.16 272.5 293.082 272.717 293.082 272.99C293.082 273.327 293.214 273.592 293.479 273.783C293.747 273.975 294.112 274.07 294.572 274.07ZM299.453 275V267.781H300.561V268.916H300.588C300.72 268.542 300.93 268.242 301.217 268.014C301.504 267.786 301.873 267.672 302.324 267.672C302.429 267.672 302.525 267.676 302.611 267.686C302.702 267.695 302.771 267.704 302.816 267.713V268.875C302.771 268.861 302.682 268.845 302.55 268.827C302.422 268.804 302.274 268.793 302.105 268.793C301.704 268.793 301.356 268.934 301.06 269.217C300.763 269.499 300.615 269.946 300.615 270.557V275H299.453ZM306.59 275.137C305.965 275.137 305.416 274.979 304.942 274.665C304.473 274.346 304.108 273.906 303.849 273.346C303.589 272.781 303.459 272.129 303.459 271.391C303.459 270.648 303.589 269.996 303.849 269.436C304.108 268.87 304.473 268.431 304.942 268.116C305.416 267.802 305.965 267.645 306.59 267.645C307.059 267.645 307.494 267.745 307.896 267.945C308.297 268.141 308.613 268.442 308.846 268.848H308.859V264.814H310.021V275H308.887V273.906H308.873C308.613 274.321 308.285 274.631 307.889 274.836C307.492 275.036 307.059 275.137 306.59 275.137ZM306.768 274.091C307.438 274.091 307.968 273.845 308.36 273.353C308.757 272.86 308.955 272.206 308.955 271.391C308.955 270.575 308.757 269.921 308.36 269.429C307.968 268.932 307.438 268.684 306.768 268.684C306.143 268.684 305.631 268.914 305.229 269.374C304.833 269.834 304.635 270.507 304.635 271.391C304.635 272.275 304.833 272.947 305.229 273.407C305.631 273.863 306.143 274.091 306.768 274.091ZM312.421 275.116C312.184 275.116 311.981 275.034 311.812 274.87C311.648 274.701 311.566 274.499 311.566 274.262C311.566 274.02 311.648 273.817 311.812 273.653C311.981 273.489 312.184 273.407 312.421 273.407C312.662 273.407 312.865 273.489 313.029 273.653C313.193 273.817 313.275 274.02 313.275 274.262C313.275 274.499 313.193 274.701 313.029 274.87C312.865 275.034 312.662 275.116 312.421 275.116Z" fill="#666666"/>
<defs>
<filter id="filter0_i_2200_4954" x="20" y="20" width="44" height="44" filterUnits="userSpaceOnUse" color-interpolation-filters="sRGB">
<feFlood flood-opacity="0" result="BackgroundImageFix"/>
<feBlend mode="normal" in="SourceGraphic" in2="BackgroundImageFix" result="shape"/>
<feColorMatrix in="SourceAlpha" type="matrix" values="0 0 0 0 0 0 0 0 0 0 0 0 0 0 0 0 0 0 127 0" result="hardAlpha"/>
<feOffset dy="-2"/>
<feComposite in2="hardAlpha" operator="arithmetic" k2="-1" k3="1"/>
<feColorMatrix type="matrix" values="0 0 0 0 0.914756 0 0 0 0 0.190557 0 0 0 0 0.0660133 0 0 0 1 0"/>
<feBlend mode="normal" in2="shape" result="effect1_innerShadow_2200_4954"/>
</filter>
<clipPath id="clip0_2200_4954">
<rect width="24" height="24" fill="white" transform="translate(30 30)"/>
</clipPath>
</defs>
</svg>
