<svg width="566" height="360" viewBox="0 0 566 360" fill="none" xmlns="http://www.w3.org/2000/svg">
<rect width="566" height="360" rx="16" fill="black" fill-opacity="0.04"/>
<path d="M119 145.816L279 115.316L330.958 146.234C334.839 148.543 334.874 154.149 331.023 156.507L207.8 231.959C203.937 234.324 199.071 234.313 195.219 231.929L97.6127 171.527C93.9827 169.281 93.7934 164.069 97.251 161.566L119 145.816Z" fill="black" fill-opacity="0.06"/>
<path d="M308.5 227.816L364 211.316L393.129 229.067C394.424 229.856 394.404 231.743 393.092 232.504L330.485 268.842C326.781 270.992 322.212 271.005 318.495 268.876L285.608 250.03C283.03 248.553 282.906 244.879 285.378 243.231L308.5 227.816Z" fill="black" fill-opacity="0.06"/>
<path d="M405.5 266.816L431 263.316L472.369 289.642C473.599 290.425 473.605 292.218 472.381 293.009L440.287 313.753C436.439 316.24 431.511 316.319 427.586 313.957L383.17 287.228C380.593 285.677 380.585 281.943 383.157 280.382L405.5 266.816Z" fill="black" fill-opacity="0.06"/>
<path d="M274.153 132.189C276.268 130.895 276.229 127.808 274.081 126.568L255.954 116.103V121.825L273.479 132.602L274.153 132.189Z" fill="#F2755F"/>
<path d="M146.817 116.103L129.139 127.56C127.11 128.875 127.161 131.862 129.233 133.107L129.649 133.357L146.817 122.234V116.103Z" fill="#F2755F"/>
<path d="M204.042 166.748C203.283 167.186 202.436 167.405 201.59 167.405C200.743 167.405 199.896 167.186 199.137 166.748L148.452 137.484C147.44 136.9 146.817 135.821 146.817 134.652V122.234L129.649 133.357L198.19 174.555C200.279 175.81 202.894 175.8 204.973 174.528L273.479 132.602L255.954 121.825V134.888C255.954 136.057 255.33 137.136 254.319 137.72L204.042 166.748Z" fill="#F59787"/>
<path d="M248.213 185.214L270.311 171.356C270.788 171.057 271.078 170.534 271.078 169.971V166.222C271.078 165.579 270.37 165.188 269.826 165.529L247.728 179.388C247.251 179.687 246.961 180.21 246.961 180.773V184.522C246.961 185.164 247.669 185.556 248.213 185.214Z" fill="#F9BAAF"/>
<path fill-rule="evenodd" clip-rule="evenodd" d="M194.874 195.453L92.8792 134.184C91.4196 133.307 90.6312 131.859 90.515 130.366V148.797C90.515 151.084 91.7102 153.206 93.6667 154.391L194.407 214.414C196.61 215.748 199.108 216.377 201.59 216.3C203.799 216.232 205.994 215.604 207.956 214.417L308.914 154.321C310.809 153.174 311.995 151.145 312.065 148.931L312.635 130.818C312.505 132.296 311.714 133.724 310.264 134.589L208.316 195.47C206.244 196.707 203.917 197.324 201.59 197.32C199.265 197.317 196.94 196.694 194.874 195.453ZM270.311 171.356L248.213 185.214C247.669 185.556 246.961 185.164 246.961 184.522V180.773C246.961 180.21 247.251 179.687 247.728 179.388L269.826 165.529C270.37 165.188 271.078 165.579 271.078 166.222V169.971C271.078 170.534 270.788 171.057 270.311 171.356Z" fill="white"/>
<path fill-rule="evenodd" clip-rule="evenodd" d="M92.8792 134.184L194.874 195.453C196.94 196.694 199.265 197.317 201.59 197.32C203.917 197.324 206.244 196.707 208.316 195.47L310.264 134.589C311.714 133.724 312.505 132.296 312.635 130.818C312.791 129.057 312.01 127.224 310.291 126.182L207.961 64.2083C203.794 61.6844 198.569 61.6859 194.403 64.212L92.8618 125.785C91.4125 126.664 90.6306 128.105 90.515 129.591V130.366C90.6312 131.859 91.4196 133.307 92.8792 134.184ZM129.139 127.56L146.817 116.103L147 101.105C147 101.102 147 101.098 147 101.095C147.006 100.764 147.173 100.436 147.5 100.247L199.137 70.7715C200.655 69.8953 202.524 69.8953 204.042 70.7715L255.494 100.088C255.841 100.288 256.008 100.644 255.994 100.995L255.954 116.103L274.081 126.568C276.229 127.808 276.268 130.895 274.153 132.189L273.479 132.602L204.973 174.528C202.894 175.8 200.279 175.81 198.19 174.555L129.649 133.357L129.233 133.107C127.161 131.862 127.11 128.875 129.139 127.56Z" fill="white"/>
<path d="M148.452 137.484L199.137 166.748C199.896 167.186 200.743 167.405 201.59 167.405C202.436 167.405 203.283 167.186 204.042 166.748L254.319 137.72C255.33 137.136 255.954 136.057 255.954 134.888V121.825V116.103L255.994 100.995C255.981 101.316 255.816 101.631 255.5 101.816L204.051 131.159C203.291 131.605 202.441 131.829 201.59 131.832C200.737 131.836 199.883 131.617 199.119 131.175L147.5 101.979C147.164 101.785 146.998 101.445 147 101.105L146.817 116.103V122.234V134.652C146.817 135.821 147.44 136.9 148.452 137.484Z" fill="white"/>
<path d="M199.137 70.7715L147.5 100.247C147.173 100.436 147.006 100.764 147 101.095L147 101.105C146.998 101.445 147.164 101.785 147.5 101.979L199.119 131.175C199.883 131.617 200.737 131.836 201.59 131.832C202.441 131.829 203.291 131.605 204.051 131.159L255.5 101.816C255.816 101.631 255.981 101.316 255.994 100.995C256.008 100.644 255.841 100.288 255.494 100.088L204.042 70.7715C202.524 69.8953 200.655 69.8953 199.137 70.7715Z" fill="white"/>
<path d="M90.515 129.591C90.6306 128.105 91.4125 126.664 92.8618 125.785L194.403 64.212C198.569 61.6859 203.794 61.6844 207.961 64.2083L310.291 126.182C312.01 127.224 312.791 129.057 312.635 130.818M90.515 129.591V130.366M90.515 129.591C90.495 129.849 90.495 130.109 90.515 130.366M312.635 130.818C312.505 132.296 311.714 133.724 310.264 134.589L208.316 195.47C206.244 196.707 203.917 197.324 201.59 197.32C199.265 197.317 196.94 196.694 194.874 195.453L92.8792 134.184C91.4196 133.307 90.6312 131.859 90.515 130.366M312.635 130.818L312.065 148.931C311.995 151.145 310.809 153.174 308.914 154.321L207.956 214.417C205.994 215.604 203.799 216.232 201.59 216.3C199.108 216.377 196.61 215.748 194.407 214.414L93.6667 154.391C91.7102 153.206 90.515 151.084 90.515 148.797V130.366M146.817 116.103L129.139 127.56C127.11 128.875 127.161 131.862 129.233 133.107L129.649 133.357M146.817 116.103V122.234M146.817 116.103L147 101.105M255.954 116.103L274.081 126.568C276.229 127.808 276.268 130.895 274.153 132.189L273.479 132.602M255.954 116.103V121.825M255.954 116.103L255.994 100.995M146.817 122.234V134.652C146.817 135.821 147.44 136.9 148.452 137.484L199.137 166.748C199.896 167.186 200.743 167.405 201.59 167.405C202.436 167.405 203.283 167.186 204.042 166.748L254.319 137.72C255.33 137.136 255.954 136.057 255.954 134.888V121.825M146.817 122.234L129.649 133.357M129.649 133.357L198.19 174.555C200.279 175.81 202.894 175.8 204.973 174.528L273.479 132.602M255.954 121.825L273.479 132.602M147 101.095C147.006 100.764 147.173 100.436 147.5 100.247L199.137 70.7715C200.655 69.8953 202.524 69.8953 204.042 70.7715L255.494 100.088C255.841 100.288 256.008 100.644 255.994 100.995M147 101.095C147 101.098 147 101.102 147 101.105M147 101.095L147 101.105M255.994 100.995C255.981 101.316 255.816 101.631 255.5 101.816L204.051 131.159C203.291 131.605 202.441 131.829 201.59 131.832C200.737 131.836 199.883 131.617 199.119 131.175L147.5 101.979C147.164 101.785 146.998 101.445 147 101.105M271.078 166.222V169.971C271.078 170.534 270.788 171.057 270.311 171.356L248.213 185.214C247.669 185.556 246.961 185.164 246.961 184.522V180.773C246.961 180.21 247.251 179.687 247.728 179.388L269.826 165.529C270.37 165.188 271.078 165.579 271.078 166.222Z" stroke="#EF5237" stroke-width="0.817507"/>
<path d="M95.4043 143.251C95.4043 142.914 95.7888 142.722 96.0583 142.924L96.8758 143.537C96.9787 143.614 97.0393 143.736 97.0393 143.864V149.382C97.0393 149.719 96.6548 149.912 96.3853 149.709L95.5678 149.096C95.4649 149.019 95.4043 148.898 95.4043 148.769V143.251Z" fill="#EF5237" fill-opacity="0.4"/>
<path d="M97.8574 144.886C97.8574 144.549 98.242 144.357 98.5114 144.559L99.3289 145.172C99.4319 145.249 99.4924 145.37 99.4924 145.499V151.017C99.4924 151.354 99.1079 151.546 98.8384 151.344L98.0209 150.731C97.918 150.654 97.8574 150.533 97.8574 150.404V144.886Z" fill="#EF5237" fill-opacity="0.4"/>
<path d="M100.309 146.521C100.309 146.184 100.693 145.992 100.963 146.194L101.78 146.807C101.883 146.884 101.944 147.005 101.944 147.134V152.652C101.944 152.989 101.559 153.181 101.29 152.979L100.472 152.366C100.369 152.289 100.309 152.167 100.309 152.039V146.521Z" fill="#EF5237" fill-opacity="0.4"/>
<path d="M186.148 198.841C186.148 198.504 186.533 198.312 186.802 198.514L187.62 199.127C187.723 199.204 187.783 199.325 187.783 199.454V204.972C187.783 205.309 187.399 205.501 187.129 205.299L186.312 204.686C186.209 204.609 186.148 204.488 186.148 204.359V198.841Z" fill="#EF5237" fill-opacity="0.4"/>
<path d="M188.602 200.476C188.602 200.139 188.986 199.947 189.256 200.149L190.073 200.762C190.176 200.839 190.237 200.96 190.237 201.089V206.607C190.237 206.944 189.852 207.136 189.583 206.934L188.765 206.321C188.662 206.244 188.602 206.123 188.602 205.994V200.476Z" fill="#EF5237" fill-opacity="0.4"/>
<path d="M191.053 202.111C191.053 201.775 191.437 201.582 191.707 201.784L192.524 202.398C192.627 202.475 192.688 202.596 192.688 202.725V208.243C192.688 208.58 192.303 208.772 192.034 208.57L191.216 207.957C191.113 207.879 191.053 207.758 191.053 207.63V202.111Z" fill="#EF5237" fill-opacity="0.4"/>
<path d="M110.5 152.541C110.5 152.223 110.848 152.027 111.12 152.191L177.303 192.197C177.425 192.271 177.5 192.404 177.5 192.547V198.628C177.5 198.947 177.15 199.143 176.878 198.977L110.695 158.476C110.574 158.402 110.5 158.27 110.5 158.127V152.541Z" fill="#EF5237" fill-opacity="0.4"/>
<path d="M306.32 143.251C306.32 142.914 305.936 142.722 305.666 142.924L304.849 143.537C304.746 143.614 304.685 143.736 304.685 143.864V149.382C304.685 149.719 305.07 149.912 305.339 149.709L306.157 149.096C306.26 149.019 306.32 148.898 306.32 148.769V143.251Z" fill="#EF5237" fill-opacity="0.4"/>
<path d="M303.867 144.886C303.867 144.549 303.483 144.357 303.213 144.559L302.396 145.172C302.293 145.249 302.232 145.37 302.232 145.499V151.017C302.232 151.354 302.617 151.546 302.886 151.344L303.704 150.731C303.807 150.654 303.867 150.533 303.867 150.404V144.886Z" fill="#EF5237" fill-opacity="0.4"/>
<path d="M301.416 146.521C301.416 146.184 301.031 145.992 300.762 146.194L299.945 146.807C299.842 146.884 299.781 147.005 299.781 147.134V152.652C299.781 152.989 300.166 153.181 300.435 152.979L301.253 152.366C301.355 152.289 301.416 152.167 301.416 152.039V146.521Z" fill="#EF5237" fill-opacity="0.4"/>
<path d="M215.578 198.841C215.578 198.504 215.194 198.312 214.924 198.514L214.107 199.127C214.004 199.204 213.943 199.325 213.943 199.454V204.972C213.943 205.309 214.328 205.501 214.597 205.299L215.415 204.686C215.518 204.609 215.578 204.488 215.578 204.359V198.841Z" fill="#EF5237" fill-opacity="0.4"/>
<path d="M213.125 200.476C213.125 200.139 212.74 199.947 212.471 200.149L211.653 200.762C211.551 200.839 211.49 200.96 211.49 201.089V206.607C211.49 206.944 211.875 207.136 212.144 206.934L212.961 206.321C213.064 206.244 213.125 206.123 213.125 205.994V200.476Z" fill="#EF5237" fill-opacity="0.4"/>
<path d="M210.674 202.111C210.674 201.775 210.289 201.582 210.02 201.784L209.202 202.398C209.099 202.475 209.039 202.596 209.039 202.725V208.243C209.039 208.58 209.423 208.772 209.693 208.57L210.51 207.957C210.613 207.879 210.674 207.758 210.674 207.63V202.111Z" fill="#EF5237" fill-opacity="0.4"/>
<path d="M245.692 157.203C245.554 157.108 245.373 157.107 245.234 157.199L244.74 157.529C244.499 157.689 244.497 158.042 244.735 158.205L250.55 162.203C250.687 162.298 250.869 162.299 251.008 162.206L251.502 161.877C251.742 161.717 251.745 161.364 251.506 161.2L245.692 157.203Z" fill="#EF5237" fill-opacity="0.4"/>
<path d="M243.242 158.853C243.104 158.75 242.916 158.745 242.772 158.841L242.289 159.163C242.048 159.324 242.046 159.677 242.286 159.841L244.326 161.233C244.439 161.31 244.443 161.476 244.333 161.558L241.928 163.357C241.712 163.518 241.709 163.84 241.92 164.006L244.266 165.85C244.405 165.959 244.598 165.967 244.745 165.869L245.246 165.535C245.48 165.379 245.49 165.038 245.266 164.869L243.955 163.878C243.732 163.709 243.741 163.37 243.973 163.213L246.191 161.714C246.425 161.556 246.432 161.215 246.206 161.047L243.242 158.853Z" fill="#EF5237" fill-opacity="0.4"/>
<path d="M247.424 156.632C247.196 156.473 247.191 156.137 247.413 155.971L247.928 155.585C248.084 155.468 248.302 155.478 248.447 155.609L249.877 156.9C249.949 156.965 250.056 156.969 250.133 156.911L252.315 155.24C252.461 155.128 252.664 155.127 252.811 155.238L256.042 157.687C256.266 157.857 256.256 158.197 256.022 158.353L255.248 158.868C255.1 158.967 254.905 158.959 254.766 158.847L252.751 157.236C252.603 157.119 252.395 157.117 252.246 157.232L250.597 158.503C250.455 158.612 250.259 158.616 250.113 158.514L247.424 156.632Z" fill="#EF5237" fill-opacity="0.4"/>
<path d="M215.536 66.1476C225.705 83.2812 226.151 101.919 216.75 108.519C216.484 108.706 216.211 108.883 215.93 109.05C205.691 115.126 188.915 105.771 178.459 88.153C168.003 70.5355 167.826 51.3276 178.065 45.251C178.451 45.0219 178.846 44.8148 179.25 44.6292C189.559 39.8914 205.474 49.1942 215.536 66.1476Z" fill="#F59787"/>
<path d="M212.157 67.9343C221.097 82.9961 221.412 99.3198 212.862 104.394C204.312 109.469 190.134 101.372 181.195 86.3107C172.256 71.2488 171.94 54.9251 180.49 49.8506C189.04 44.7761 203.218 52.8724 212.157 67.9343Z" fill="white"/>
<path d="M179.25 44.6292C189.559 39.8914 205.474 49.1942 215.536 66.1476C225.705 83.2812 226.151 101.919 216.75 108.519C222.25 105.75 238.315 95.2508 219.25 62.2804C208.844 44.2839 189.25 36.2773 179.25 44.6292Z" fill="#F9BAAF"/>
<path d="M179.25 44.6292C178.846 44.8148 178.451 45.0219 178.065 45.251C167.826 51.3276 168.003 70.5355 178.459 88.153C188.915 105.771 205.691 115.126 215.93 109.05C216.211 108.883 216.484 108.706 216.75 108.519M179.25 44.6292C189.559 39.8914 205.474 49.1942 215.536 66.1476C225.705 83.2812 226.151 101.919 216.75 108.519M179.25 44.6292C189.25 36.2773 208.844 44.2839 219.25 62.2804C238.315 95.2508 222.25 105.75 216.75 108.519M212.157 67.9343C221.097 82.9961 221.412 99.3198 212.862 104.394C204.312 109.469 190.134 101.372 181.195 86.3107C172.256 71.2488 171.94 54.9251 180.49 49.8506C189.04 44.7761 203.218 52.8724 212.157 67.9343Z" stroke="#EF5237"/>
<path d="M195.163 86.1758V83.8086C193.634 82.7461 192.433 81.4473 191.56 79.9121C190.694 78.3809 190.261 76.7754 190.261 75.0957L192.514 76.3965C192.521 77.377 192.754 78.3125 193.214 79.2031C193.675 80.0859 194.324 80.8555 195.163 81.5117V75.7109L194.96 75.5352C193.431 74.2305 192.315 73 191.611 71.8438C190.914 70.6836 190.566 69.498 190.566 68.2871C190.566 66.8809 190.982 65.9648 191.814 65.5391C192.646 65.1133 193.762 65.2305 195.163 65.8906V63.5352L196.888 64.5312V66.8984C198.248 67.8711 199.324 69.0625 200.116 70.4727C200.907 71.8828 201.323 73.3691 201.364 74.9316L199.182 73.6719C199.135 72.8164 198.908 72.0059 198.502 71.2402C198.103 70.4707 197.565 69.8008 196.888 69.2305V74.7031L197.335 75.0781C198.85 76.3672 199.967 77.6094 200.684 78.8047C201.408 80.0039 201.77 81.2285 201.77 82.4785C201.77 83.9316 201.33 84.8652 200.45 85.2793C199.571 85.6934 198.384 85.543 196.888 84.8281V87.1719L195.163 86.1758ZM196.888 82.543C197.693 82.8828 198.333 82.9512 198.806 82.748C199.28 82.5371 199.517 82.0605 199.517 81.3184C199.517 80.6777 199.314 80.0371 198.908 79.3965C198.509 78.752 197.835 78.0117 196.888 77.1758V82.543ZM195.163 73.2148V68.1875C194.459 67.9141 193.891 67.8906 193.458 68.1172C193.025 68.3359 192.808 68.7812 192.808 69.4531C192.808 70.0234 192.991 70.6055 193.357 71.1992C193.722 71.7852 194.324 72.457 195.163 73.2148Z" fill="#EF5237"/>
<rect x="200.5" y="199.316" width="1" height="15" rx="0.5" fill="#EF5237"/>
<rect x="200.5" y="134.316" width="1" height="30" rx="0.5" fill="#EF5237"/>
<path d="M248.5 182.957L248.5 181.151C248.5 180.943 248.608 180.75 248.784 180.64L269.195 168.005C269.328 167.923 269.5 168.019 269.5 168.175L269.5 169.982C269.5 170.19 269.393 170.383 269.216 170.492L248.805 183.127C248.672 183.21 248.5 183.114 248.5 182.957Z" fill="#EF5237" fill-opacity="0.6"/>
<path d="M251 179.316L265.5 170.316L322 202.316L306.5 212.316L251 179.316Z" fill="#EF5237" fill-opacity="0.1"/>
<path d="M266.5 170.816L322 202.316" stroke="#EF5237" stroke-opacity="0.5" stroke-width="0.6" stroke-linecap="round"/>
<path d="M260.5 175.316L316 206.816" stroke="#EF5237" stroke-opacity="0.5" stroke-width="0.6" stroke-linecap="round"/>
<path d="M251.5 179.316C273.369 192.399 285.631 199.734 307.5 212.816" stroke="#EF5237" stroke-opacity="0.5" stroke-width="0.6" stroke-linecap="round"/>
<path d="M334.633 184.036L284.466 214.317C283.836 214.697 283.514 215.34 283.5 215.988V216.07C283.513 216.704 283.822 217.333 284.429 217.718L321.5 239.816C323.109 240.837 325.158 240.854 326.783 239.861L376.368 209.216C376.975 208.845 377.293 208.233 377.323 207.609C377.358 206.911 377.032 206.197 376.349 205.79L339.775 184.02C338.189 183.076 336.213 183.082 334.633 184.036Z" fill="white"/>
<path d="M376.368 209.216L326.783 239.861C325.158 240.854 323.109 240.837 321.5 239.816L284.429 217.718C283.822 217.333 283.513 216.704 283.5 216.07V238.011C283.5 239.44 284.263 240.761 285.5 241.475L319.628 261.179C322.103 262.608 325.153 262.608 327.628 261.179L375.211 233.707C376.442 232.996 377.204 231.685 377.211 230.263L377.323 207.609C377.293 208.233 376.975 208.845 376.368 209.216Z" fill="white"/>
<path d="M283.5 215.988C283.514 215.34 283.836 214.697 284.466 214.317L334.633 184.036C336.213 183.082 338.189 183.076 339.775 184.02L376.349 205.79C377.032 206.197 377.358 206.911 377.323 207.609M283.5 215.988V216.07M283.5 215.988C283.5 216.016 283.5 216.043 283.5 216.07M377.323 207.609C377.293 208.233 376.975 208.845 376.368 209.216L326.783 239.861C325.158 240.854 323.109 240.837 321.5 239.816L284.429 217.718C283.822 217.333 283.513 216.704 283.5 216.07M377.323 207.609L377.211 230.263C377.204 231.685 376.442 232.996 375.211 233.707L327.628 261.179C325.153 262.608 322.103 262.608 319.628 261.179L285.5 241.475C284.263 240.761 283.5 239.44 283.5 238.011V216.07" stroke="#EF5237" stroke-width="0.82"/>
<path d="M321.157 231.752L296.901 217.072C295.598 216.283 295.619 214.386 296.94 213.627L335.138 191.673C336.409 190.943 337.976 190.965 339.225 191.732L362.864 206.247C364.149 207.036 364.131 208.911 362.831 209.675L325.256 231.778C323.989 232.524 322.415 232.514 321.157 231.752Z" fill="#EF5237" fill-opacity="0.2"/>
<path d="M340 245.248V241.271C340 240.571 340.366 239.922 340.964 239.56L362.982 226.234C363.649 225.831 364.5 226.311 364.5 227.09V230.912C364.5 231.609 364.138 232.255 363.544 232.618L341.522 246.101C340.856 246.509 340 246.029 340 245.248Z" fill="#F9BAAF" stroke="#EF5237"/>
<rect x="323.5" y="243.316" width="1" height="16" rx="0.5" fill="#EF5237"/>
<path d="M342 243.457L342 241.651C342 241.443 342.108 241.25 342.284 241.14L362.695 228.505C362.828 228.423 363 228.519 363 228.675L363 230.482C363 230.69 362.893 230.883 362.716 230.992L342.305 243.627C342.172 243.71 342 243.614 342 243.457Z" fill="#EF5237" fill-opacity="0.6"/>
<path d="M345 240.316L359.5 231.316L416 263.316L400.5 273.316L345 240.316Z" fill="#EF5237" fill-opacity="0.1"/>
<path d="M360.5 231.816L416 263.316" stroke="#EF5237" stroke-opacity="0.5" stroke-width="0.6" stroke-linecap="round"/>
<path d="M354.5 236.316L410 267.816" stroke="#EF5237" stroke-opacity="0.5" stroke-width="0.6" stroke-linecap="round"/>
<path d="M345.5 240.316C367.369 253.399 379.631 260.734 401.5 273.816" stroke="#EF5237" stroke-opacity="0.5" stroke-width="0.6" stroke-linecap="round"/>
<path d="M416.108 251.883L381.461 272.586C380.569 273.119 380.085 274 380.01 274.911V275.413C380.085 276.319 380.565 277.196 381.45 277.73L429.518 306.744C431.453 307.912 433.881 307.893 435.798 306.695L468.538 286.233C469.414 285.685 469.881 284.8 469.941 283.891C470.011 282.834 469.53 281.746 468.502 281.123L420.231 251.895C418.965 251.128 417.379 251.123 416.108 251.883Z" fill="white"/>
<path d="M468.538 286.233L435.798 306.695C433.881 307.893 431.453 307.912 429.518 306.744L381.45 277.73C380.565 277.196 380.085 276.319 380.01 275.413V278.523C380.01 279.222 380.375 279.87 380.972 280.233L430.061 310.061C431.664 311.035 433.679 311.03 435.277 310.046L468.334 289.706C469.173 289.189 469.705 288.295 469.758 287.311L469.941 283.891C469.881 284.8 469.414 285.685 468.538 286.233Z" fill="#FCDCD7"/>
<path d="M380.01 274.911C380.085 274 380.569 273.119 381.461 272.586L416.108 251.883C417.379 251.123 418.965 251.128 420.231 251.895L468.502 281.123C469.53 281.746 470.011 282.834 469.941 283.891M380.01 274.911V275.413M380.01 274.911C379.997 275.078 379.997 275.246 380.01 275.413M469.941 283.891C469.881 284.8 469.414 285.685 468.538 286.233L435.798 306.695C433.881 307.893 431.453 307.912 429.518 306.744L381.45 277.73C380.565 277.196 380.085 276.319 380.01 275.413M469.941 283.891L469.758 287.311C469.705 288.295 469.173 289.189 468.334 289.706L435.277 310.046C433.679 311.03 431.664 311.035 430.061 310.061L380.972 280.233C380.375 279.87 380.01 279.222 380.01 278.523V275.413" stroke="#EF5237" stroke-width="0.82"/>
<path d="M417.662 256.53C418.334 256.07 419.217 256.063 419.896 256.512L425.824 260.432C426.429 260.833 426.42 261.724 425.806 262.112L422.403 264.262C421.754 264.672 420.927 264.674 420.276 264.267L414.297 260.532C413.685 260.15 413.667 259.266 414.262 258.859L417.662 256.53Z" fill="#EF5237"/>
<path d="M393.718 271.087C394.309 270.817 394.994 270.851 395.555 271.178L402.665 275.318C403.015 275.522 402.99 276.037 402.621 276.205L401.781 276.589C401.19 276.858 400.505 276.824 399.944 276.497L392.834 272.357C392.484 272.153 392.509 271.639 392.878 271.47L393.718 271.087Z" fill="#EF5237" fill-opacity="0.2"/>
<path d="M388.704 274.081C389.305 273.807 390.002 273.847 390.568 274.188L407.849 284.612C408.194 284.82 408.165 285.328 407.799 285.495L406.961 285.878C406.36 286.152 405.663 286.112 405.097 285.771L387.815 275.347C387.471 275.139 387.5 274.631 387.866 274.464L388.704 274.081Z" fill="#EF5237" fill-opacity="0.2"/>
<path d="M403.718 277.087C404.309 276.817 404.994 276.851 405.555 277.178L412.665 281.318C413.015 281.522 412.99 282.037 412.621 282.205L411.781 282.589C411.19 282.858 410.505 282.824 409.944 282.497L402.834 278.357C402.484 278.153 402.509 277.639 402.878 277.47L403.718 277.087Z" fill="#EF5237" fill-opacity="0.2"/>
<path d="M413.718 283.087C414.309 282.817 414.994 282.851 415.555 283.178L422.665 287.318C423.015 287.522 422.99 288.037 422.621 288.205L421.781 288.589C421.19 288.858 420.505 288.824 419.944 288.497L412.834 284.357C412.484 284.153 412.509 283.639 412.878 283.47L413.718 283.087Z" fill="#EF5237" fill-opacity="0.2"/>
<path d="M423.718 289.087C424.309 288.817 424.994 288.851 425.555 289.178L432.665 293.318C433.015 293.522 432.99 294.037 432.621 294.205L431.781 294.589C431.19 294.858 430.505 294.824 429.944 294.497L422.834 290.357C422.484 290.153 422.509 289.639 422.878 289.47L423.718 289.087Z" fill="#EF5237" fill-opacity="0.2"/>
</svg>
