<svg width="566" height="360" viewBox="0 0 566 360" fill="none" xmlns="http://www.w3.org/2000/svg">
<rect width="566" height="360" rx="16" fill="black" fill-opacity="0.04"/>
<path d="M199 254.816L341 233.316L382.344 264.774C384.583 266.478 384.41 269.901 382.009 271.369L281.103 333.084C277.343 335.383 272.625 335.437 268.814 333.223L175.319 278.907C172.817 277.453 172.639 273.906 174.983 272.208L199 254.816Z" fill="black" fill-opacity="0.06"/>
<path d="M181.863 268.827V242.523L262.008 290.537V315.227L181.863 268.827Z" fill="#F9BAAF"/>
<path d="M366.404 266.36V241.289L286.259 290.946V314.447L366.404 266.36Z" fill="#F9BAAF"/>
<path d="M262.008 315.268V290.608L271.05 295.951L274.338 297.184L278.448 295.951L286.257 291.019V314.446L278.859 318.967L274.338 319.789L270.228 319.378L267.762 318.556L262.008 315.268Z" fill="#F59787"/>
<path d="M172 262.661V236.357L181.864 242.933V268.826L172 262.661Z" fill="#FCDCD7"/>
<path d="M366.403 266.357L376.898 260.192L384.076 255.671L388.597 252.383L389.008 247.451L389.83 226.49L376.678 234.71L366.403 241.286V266.357Z" fill="#FCDCD7"/>
<path d="M271.462 200.334V195.098L238.993 213.844V253.711L243.514 251.565V216.47L271.462 200.334Z" fill="#EF5237" fill-opacity="0.4"/>
<path d="M282.559 201.52L287.08 204.131V190.166L315.028 174.03V168.794L282.559 187.54V201.52Z" fill="#EF5237" fill-opacity="0.4"/>
<path d="M173.603 237.725L271.467 296.14C273.565 297.392 276.183 297.378 278.268 296.104L388.257 227.695C389.221 227.105 389.741 226.145 389.819 225.155L389.83 224.851C389.817 223.77 389.281 222.693 388.224 222.064L352.018 202.656V213.753L369.175 222.826C370.858 223.722 370.931 226.108 369.305 227.105L278.51 282.803C276.447 284.068 273.856 284.098 271.765 282.881L192.859 236.975C191.24 236.033 191.221 233.7 192.825 232.732L206.524 224.85V212.931L173.62 232.069C172.547 232.7 172.006 233.79 172 234.882V234.922C172.006 236.008 172.54 237.091 173.603 237.725Z" fill="white"/>
<path d="M192.859 236.975L271.765 282.881C273.856 284.098 276.447 284.068 278.51 282.803L369.305 227.105C370.931 226.108 370.858 223.722 369.175 222.826L352.018 213.753V228.389L319.549 248.779L308.452 242.523V254.693L275.983 275.083L243.514 256.337V251.565L238.993 253.711L206.524 234.965V224.85L192.825 232.732C191.221 233.7 191.24 236.033 192.859 236.975Z" fill="#F9BAAF"/>
<path d="M206.524 195.098V212.931V224.85V234.965L238.993 253.711V213.844L206.524 195.098Z" fill="white"/>
<path d="M271.462 195.098L250.09 182.759L238.993 176.352L206.524 195.098L238.993 213.844L271.462 195.098Z" fill="white"/>
<path d="M308.452 216.47L287.08 204.131L282.559 201.52L275.983 197.724L271.462 200.334L243.514 216.47L275.983 235.216L308.452 216.47Z" fill="white"/>
<path d="M243.514 216.47V251.565V256.337L275.983 275.083V235.216L243.514 216.47Z" fill="white"/>
<path d="M275.983 275.083L308.452 254.693V242.523V216.47L275.983 235.216V275.083Z" fill="#EF5237" fill-opacity="0.4"/>
<path d="M308.452 216.47V242.523L319.549 248.779V208.912L287.08 190.166V204.131L308.452 216.47Z" fill="white"/>
<path d="M319.549 248.779L352.018 228.389V213.753V202.656V190.166L319.549 208.912V248.779Z" fill="#EF5237" fill-opacity="0.4"/>
<path d="M271.462 195.098V200.334L275.983 197.724L282.559 201.52V187.54L250.09 168.794V182.759L271.462 195.098Z" fill="white"/>
<path d="M315.028 168.794L282.559 150.048L250.09 168.794L282.559 187.54L315.028 168.794Z" fill="white"/>
<path d="M352.018 190.166L319.549 171.42L315.028 174.03L287.08 190.166L319.549 208.912L352.018 190.166Z" fill="white"/>
<path d="M172 234.882C172.006 233.79 172.547 232.7 173.62 232.069L206.524 212.931M172 234.882V234.922M172 234.882C172 234.896 172 234.909 172 234.922M389.83 224.851C389.817 223.77 389.281 222.693 388.224 222.064L352.018 202.656M389.83 224.851L389.819 225.155M389.83 224.851C389.831 224.953 389.828 225.054 389.819 225.155M206.524 195.098V234.965M206.524 195.098L238.993 176.352M206.524 195.098L238.993 213.844M206.524 195.098V212.931M206.524 234.965L238.993 253.711M206.524 234.965V224.85M238.993 253.711V213.844M238.993 253.711L243.514 251.565M271.462 200.334V195.098M271.462 200.334L243.514 216.47M271.462 200.334L275.983 197.724M271.462 195.098L238.993 176.352M271.462 195.098L238.993 213.844M271.462 195.098L250.09 182.759M238.993 176.352L250.09 182.759M243.514 216.47V256.337M243.514 216.47L275.983 197.724M243.514 216.47L275.983 235.216M243.514 216.47V251.565M243.514 256.337L275.983 275.083M243.514 256.337V251.565M275.983 275.083L308.452 254.693M275.983 275.083V235.216M308.452 254.693V216.47M308.452 254.693V242.523M308.452 216.47L275.983 197.724M308.452 216.47L275.983 235.216M308.452 216.47L287.08 204.131M308.452 216.47V242.523M275.983 197.724L282.559 201.52M287.08 190.166V204.131M287.08 190.166L319.549 171.42M287.08 190.166L319.549 208.912M287.08 190.166L315.028 174.03M287.08 204.131L282.559 201.52M319.549 248.779L352.018 228.389M319.549 248.779V208.912M319.549 248.779L308.452 242.523M352.018 228.389V190.166M352.018 228.389V213.753M352.018 190.166L319.549 171.42M352.018 190.166L319.549 208.912M352.018 190.166V202.656M319.549 171.42L315.028 174.03M206.524 224.85L192.825 232.732C191.221 233.7 191.24 236.033 192.859 236.975L271.765 282.881C273.856 284.098 276.447 284.068 278.51 282.803L369.305 227.105C370.931 226.108 370.858 223.722 369.175 222.826L352.018 213.753M206.524 224.85V212.931M352.018 213.753V202.656M315.028 174.03V168.794M315.028 168.794L282.559 150.048L250.09 168.794M315.028 168.794L282.559 187.54M282.559 187.54V201.52M282.559 187.54L250.09 168.794M250.09 168.794V182.759M389.819 225.155C389.741 226.145 389.221 227.105 388.257 227.695L278.268 296.104C276.183 297.378 273.565 297.392 271.467 296.14L173.603 237.725C172.54 237.091 172.006 236.008 172 234.922M389.819 225.155L388.972 250.121C388.915 251.791 388.016 253.318 386.584 254.18L280.44 318.019C276.341 320.484 271.227 320.53 267.085 318.139L174.466 264.665C172.94 263.784 172 262.156 172 260.394V234.922" stroke="#EF5237" stroke-width="0.821999"/>
<rect x="273.928" y="298.828" width="0.821999" height="18.906" rx="0.411" fill="#EF5237"/>
<path d="M192.138 236.766L191.727 234.711V105.793L275.365 155.113L370.511 105.793V224.847V225.669L369.689 226.902L278.858 282.387L276.392 283.62H275.365H274.337L272.282 283.209L192.138 236.766Z" fill="#EF5237" fill-opacity="0.2"/>
<path d="M186.795 126.212V115.938L266.94 163.951V172.244L186.795 126.212Z" fill="#F9BAAF"/>
<path d="M379.555 119.221V109.768L291.19 164.357V173.884L379.555 119.221Z" fill="#F9BAAF"/>
<path d="M266.939 172.239V164.019L275.981 169.362L279.269 170.595L283.379 169.362L291.188 164.43V173.883L287.078 176.349L283.379 177.993H279.269L276.392 177.582L272.693 175.938L266.939 172.239Z" fill="#F59787"/>
<path d="M177.343 120.043L176.932 109.768L186.796 116.344V126.208L177.343 120.043Z" fill="#FCDCD7"/>
<path d="M377.089 120.454L381.61 117.577L389.008 113.056L393.118 109.768L393.94 108.124V105.247L394.762 99.9043L381.609 108.124L377.089 111.001V120.454Z" fill="#FCDCD7"/>
<path fill-rule="evenodd" clip-rule="evenodd" d="M178.534 111.239L276.398 169.653C278.496 170.905 281.115 170.891 283.199 169.617L393.189 101.208C394.048 100.683 394.554 99.8626 394.71 98.9893L394.761 98.3648C394.749 97.283 394.213 96.2068 393.155 95.5774L293.245 40.8237C291.182 39.5958 288.613 39.5896 286.545 40.8077L178.551 105.582C177.479 106.214 176.938 107.303 176.932 108.396V108.435C176.938 109.521 177.472 110.604 178.534 111.239ZM289.586 158.051C288.55 158.689 287.245 158.703 286.196 158.086L193.332 103.483C192.795 103.167 192.791 102.39 193.327 102.07L287.917 45.3953C288.925 44.7914 290.178 44.7712 291.205 45.3423L385.315 97.6824C385.864 97.9878 385.881 98.7714 385.346 99.1008L289.586 158.051Z" fill="white"/>
<path d="M193.327 102.07C192.791 102.39 192.795 103.167 193.332 103.483L286.196 158.086C287.245 158.703 288.55 158.689 289.586 158.051L385.346 99.1008C385.881 98.7714 385.864 97.9878 385.315 97.6824L291.205 45.3423C290.178 44.7712 288.925 44.7914 287.917 45.3953L193.327 102.07Z" fill="white"/>
<path d="M176.932 108.396C176.938 107.303 177.479 106.214 178.551 105.582L286.545 40.8077C288.613 39.5896 291.182 39.5958 293.245 40.8237L393.155 95.5774C394.213 96.2068 394.749 97.283 394.761 98.3648M176.932 108.396V108.435M176.932 108.396C176.932 108.409 176.932 108.422 176.932 108.435M394.761 98.3648L394.71 98.9893M394.761 98.3648C394.764 98.5738 394.747 98.783 394.71 98.9893M176.932 108.435C176.938 109.521 177.472 110.604 178.534 111.239L276.398 169.653C278.496 170.905 281.115 170.891 283.199 169.617L393.189 101.208C394.048 100.683 394.554 99.8626 394.71 98.9893M176.932 108.435V117.47C176.932 119.23 177.87 120.858 179.394 121.739L274.066 176.499C278.28 178.936 283.495 178.847 287.623 176.266L391.715 111.183C393.035 110.358 393.888 108.958 394.016 107.407L394.71 98.9893M291.205 45.3423L385.315 97.6824C385.864 97.9878 385.881 98.7714 385.346 99.1008L289.586 158.051C288.55 158.689 287.245 158.703 286.196 158.086L193.332 103.483C192.795 103.167 192.791 102.39 193.327 102.07L287.917 45.3953C288.925 44.7914 290.178 44.7712 291.205 45.3423Z" stroke="#EF5237" stroke-width="0.821999"/>
<circle cx="3.699" cy="3.699" r="3.699" transform="matrix(0.939693 0.34202 -0.5 0.866025 230.771 129.492)" fill="#EF5237" fill-opacity="0.8"/>
<path d="M222.963 143.432V141.755C222.963 141.431 223.322 141.234 223.595 141.409L230.304 145.694C230.54 145.845 230.683 146.107 230.683 146.387V148.064C230.683 148.388 230.325 148.585 230.051 148.41L223.342 144.124C223.106 143.973 222.963 143.712 222.963 143.432Z" fill="white" stroke="#EF5237" stroke-width="0.821999"/>
</svg>
