<svg width="566" height="360" viewBox="0 0 566 360" fill="none" xmlns="http://www.w3.org/2000/svg">
<rect width="566" height="360" rx="16" fill="black" fill-opacity="0.04"/>
<path d="M243.145 222.144L298.699 201.421L319.464 216.357C321.526 217.84 321.392 220.951 319.21 222.251L251.595 262.524C246.412 265.611 239.933 265.521 234.839 262.29L209.362 246.134C208.264 245.438 208.271 243.833 209.375 243.147L243.145 222.144Z" fill="black" fill-opacity="0.06"/>
<path d="M154.963 133.08L172.159 126.467L193.849 139.481C195 140.172 194.989 141.843 193.829 142.518L149.649 168.222C148.571 168.85 147.241 168.861 146.152 168.251L126.992 157.522C126.45 157.218 126.384 156.464 126.865 156.07L154.963 133.08Z" fill="black" fill-opacity="0.06"/>
<path d="M357.782 264.912L400.109 246.835L468.24 281.112C469.48 281.736 469.547 283.482 468.357 284.198L401.902 324.237C400.797 324.903 399.416 324.912 398.302 324.261L333.31 286.278C332.778 285.967 332.721 285.22 333.2 284.832L357.782 264.912Z" fill="black" fill-opacity="0.06"/>
<path d="M332.209 280.344V278.139V277.698L333.091 278.139V281.226L332.209 280.344Z" fill="#EF5237" fill-opacity="0.1"/>
<path d="M252.402 231.844L239.616 223.907L154.521 272.407L168.189 281.225L252.402 231.844Z" fill="#EF5237" fill-opacity="0.1"/>
<path d="M238.734 224.349L150.553 274.612" stroke="#EF5237" stroke-opacity="0.5" stroke-width="0.529091" stroke-linecap="round"/>
<path d="M244.025 228.316C224.913 239.164 174.074 269.496 154.962 280.344" stroke="#EF5237" stroke-opacity="0.5" stroke-width="0.529091" stroke-linecap="round"/>
<path d="M251.961 231.844C232.676 243.38 178.214 274.98 158.929 286.516" stroke="#EF5237" stroke-opacity="0.5" stroke-width="0.529091" stroke-linecap="round"/>
<path d="M273.125 221.262L285.911 213.325L371.007 261.825L357.339 270.643L273.125 221.262Z" fill="#EF5237" fill-opacity="0.1"/>
<path d="M286.793 213.767L374.975 264.03" stroke="#EF5237" stroke-opacity="0.5" stroke-width="0.529091" stroke-linecap="round"/>
<path d="M281.502 217.734C300.615 228.582 351.453 258.914 370.566 269.762" stroke="#EF5237" stroke-opacity="0.5" stroke-width="0.529091" stroke-linecap="round"/>
<path d="M273.566 221.262C292.851 232.798 347.313 264.398 366.598 275.934" stroke="#EF5237" stroke-opacity="0.5" stroke-width="0.529091" stroke-linecap="round"/>
<path d="M397.902 146.307L385.116 138.371L300.021 186.871L313.689 195.689L397.902 146.307Z" fill="#EF5237" fill-opacity="0.1"/>
<path d="M384.234 138.812L296.053 189.076" stroke="#EF5237" stroke-opacity="0.5" stroke-width="0.529091" stroke-linecap="round"/>
<path d="M389.525 142.78C370.413 153.628 319.574 183.96 300.462 194.808" stroke="#EF5237" stroke-opacity="0.5" stroke-width="0.529091" stroke-linecap="round"/>
<path d="M397.461 146.308C378.176 157.844 323.714 189.444 304.429 200.98" stroke="#EF5237" stroke-opacity="0.5" stroke-width="0.529091" stroke-linecap="round"/>
<path d="M159.373 154.244L172.159 146.308L257.255 194.808L243.587 203.626L159.373 154.244Z" fill="#EF5237" fill-opacity="0.1"/>
<path d="M173.041 146.748L261.223 197.012" stroke="#EF5237" stroke-opacity="0.5" stroke-width="0.529091" stroke-linecap="round"/>
<path d="M167.75 150.717C186.863 161.564 237.701 191.896 256.814 202.744" stroke="#EF5237" stroke-opacity="0.5" stroke-width="0.529091" stroke-linecap="round"/>
<path d="M159.814 154.244C179.099 165.781 233.561 197.38 252.846 208.917" stroke="#EF5237" stroke-opacity="0.5" stroke-width="0.529091" stroke-linecap="round"/>
<path d="M303.822 163.934C302.608 154.866 292.802 149.184 277.735 157.997C262.668 166.81 258.67 184.993 257.38 188.438C257.322 188.593 257.201 188.703 257.047 188.763C242.243 194.556 230.202 213.497 228.727 228.317L233.503 229.733C238.451 231.201 243.787 230.545 248.233 227.923L303.118 195.553C307.04 193.24 310.776 190.502 313.42 186.795C320.914 176.286 321.057 165.704 311.012 160.017C308.284 161.055 305.773 162.447 303.822 163.934Z" fill="#F59787"/>
<path d="M230.642 240.412C238.325 254.355 258.217 240.412 258.217 240.412L308.352 211.325C312.303 209.033 316.026 206.341 319.02 202.892C325.005 195.998 334.379 182.974 332.885 170.388C331.299 157.015 319.978 156.607 311.012 160.017C321.057 165.704 320.914 176.286 313.42 186.795C310.776 190.502 307.04 193.24 303.118 195.553L248.233 227.923C243.787 230.545 238.451 231.201 233.503 229.733L228.727 228.317C228.269 232.918 228.829 237.122 230.642 240.412Z" fill="#F2755F"/>
<path fill-rule="evenodd" clip-rule="evenodd" d="M254.264 185.972C234.533 193.867 217.361 224.377 227.854 244.436C228.733 246.118 229.782 247.43 230.952 248.434C240.44 256.575 257.908 244.436 257.908 244.436L311.012 213.612C316.163 210.622 320.921 206.954 324.418 202.132C330.094 194.305 337.812 181.018 336.294 168.219C335.422 160.864 332.141 156.752 327.928 154.866C321.256 151.878 311.387 154.473 305.906 158.612C305.353 155.51 302.918 151.383 298.58 149.93C294.052 148.413 286.856 148.996 278.586 153.369C257.047 164.757 256.07 182.007 254.595 185.653C254.562 185.733 254.513 185.801 254.452 185.857C254.398 185.905 254.335 185.944 254.264 185.972ZM258.217 240.412C258.217 240.412 238.325 254.355 230.642 240.412C228.829 237.122 228.269 232.918 228.727 228.317C230.202 213.497 242.243 194.556 257.047 188.763C257.201 188.703 257.322 188.593 257.38 188.438C258.67 184.993 262.668 166.81 277.735 157.997C292.802 149.184 302.608 154.866 303.822 163.934C305.773 162.447 308.284 161.055 311.012 160.017C319.978 156.607 331.299 157.015 332.885 170.388C334.379 182.974 325.005 195.998 319.02 202.892C316.026 206.341 312.303 209.033 308.352 211.325L258.217 240.412Z" fill="white"/>
<path d="M227.854 244.436C217.361 224.377 234.533 193.867 254.264 185.972C254.335 185.944 254.398 185.905 254.452 185.857L233.431 173.486C223.206 176.894 210.487 190.57 205.546 204.159C202.824 211.643 202.868 221.553 205.106 228.82C206.639 233.798 210.773 237.326 215.23 240.022C223.428 244.98 230.952 248.434 230.952 248.434C229.782 247.43 228.733 246.118 227.854 244.436Z" fill="white"/>
<path d="M254.595 185.653C256.07 182.007 257.047 164.757 278.586 153.369C286.856 148.996 294.052 148.413 298.58 149.93L287.96 144.052L277.784 138.161C276.725 137.548 275.585 137.088 274.373 136.919C271.331 136.493 265.044 136.075 260.076 138.785C248.612 145.038 236.218 156.136 233.431 173.486L254.452 185.857C254.513 185.801 254.562 185.733 254.595 185.653Z" fill="white"/>
<path d="M230.952 248.434C229.782 247.43 228.733 246.118 227.854 244.436C217.361 224.377 234.533 193.867 254.264 185.972C254.335 185.944 254.398 185.905 254.452 185.857M230.952 248.434C240.44 256.575 257.908 244.436 257.908 244.436L311.012 213.612C316.163 210.622 320.921 206.954 324.418 202.132C330.094 194.305 337.812 181.018 336.294 168.219C335.422 160.864 332.141 156.752 327.928 154.866M230.952 248.434C230.952 248.434 223.428 244.98 215.23 240.022C210.773 237.326 206.639 233.798 205.106 228.82C202.868 221.553 202.824 211.643 205.546 204.159C210.487 190.57 223.206 176.894 233.431 173.486M233.431 173.486C236.218 156.136 248.612 145.038 260.076 138.785C265.044 136.075 271.331 136.493 274.373 136.919C275.585 137.088 276.725 137.548 277.784 138.161L287.96 144.052M233.431 173.486L254.452 185.857M287.96 144.052C287.96 144.052 299.423 138.476 309.029 144.052C315.98 148.087 327.928 154.866 327.928 154.866M287.96 144.052L298.58 149.93M327.928 154.866C321.256 151.878 311.387 154.473 305.906 158.612C305.353 155.51 302.918 151.383 298.58 149.93M298.58 149.93C294.052 148.413 286.856 148.996 278.586 153.369C257.047 164.757 256.07 182.006 254.595 185.653C254.562 185.733 254.513 185.801 254.452 185.857M228.727 228.317C230.202 213.497 242.243 194.556 257.047 188.763C257.201 188.703 257.322 188.593 257.38 188.438C258.67 184.993 262.668 166.81 277.735 157.997C292.802 149.184 302.608 154.866 303.822 163.934C305.773 162.447 308.284 161.055 311.012 160.017M228.727 228.317C228.269 232.918 228.829 237.122 230.642 240.412C238.325 254.355 258.217 240.412 258.217 240.412L308.352 211.325C312.303 209.033 316.026 206.341 319.02 202.892C325.005 195.998 334.379 182.974 332.885 170.388C331.299 157.015 319.978 156.607 311.012 160.017M228.727 228.317L233.503 229.733C238.451 231.201 243.787 230.545 248.233 227.923L303.118 195.553C307.04 193.24 310.776 190.502 313.42 186.795C320.914 176.286 321.057 165.704 311.012 160.017" stroke="#EF5237" stroke-width="0.619656"/>
<path d="M333.09 281.226V279.021V278.14L374.094 301.949V305.035L333.09 281.226Z" fill="#FEEEEB"/>
<path d="M374.094 305.035V302.83V301.948L398.344 315.616V318.703L374.094 305.035Z" fill="#FBCCC3"/>
<path d="M442.434 291.367V289.163V288.281L444.402 241.103L446.402 240.222L443.756 290.926L443.095 291.367H442.434Z" fill="#F48673"/>
<path d="M441.553 294.894V293.131V292.249L401.871 315.176V318.263L441.553 294.894Z" fill="#F48673"/>
<path d="M398.344 318.704V316.499V315.617L399.666 316.058L401.871 315.617V318.704L399.666 319.144L398.344 318.704Z" fill="#F7A99B"/>
<path d="M444.638 241.103V238.017L444.197 236.694L445.961 235.812L446.402 237.135V238.458V240.222L444.638 241.103Z" fill="#FBCCC3"/>
<path fill-rule="evenodd" clip-rule="evenodd" d="M372.337 254.201L332.207 277.705L360.908 294.23L372.244 300.757L398.685 315.981C399.412 316.399 400.306 316.397 401.031 315.976L441.739 292.348L440.861 291.853L374.766 254.569L374.088 254.186C373.543 253.879 372.876 253.884 372.337 254.201ZM380.528 303.094L356.531 289.27C355.746 288.818 355.75 287.684 356.537 287.237L368.522 280.422C369.247 280.009 370.138 280.014 370.859 280.434L394.603 294.263C395.38 294.715 395.379 295.837 394.601 296.288L382.873 303.091C382.148 303.511 381.254 303.512 380.528 303.094ZM412.739 303.086L356.214 270.228C355.435 269.776 355.437 268.651 356.217 268.201L373.596 258.172C374.32 257.755 375.212 257.754 375.936 258.171L432.663 290.842C433.444 291.292 433.446 292.418 432.667 292.87L415.094 303.086C414.366 303.509 413.467 303.509 412.739 303.086Z" fill="white"/>
<path d="M356.214 270.228L412.739 303.086C413.467 303.509 414.366 303.509 415.094 303.086L432.667 292.87C433.446 292.418 433.444 291.292 432.663 290.842L375.936 258.171C375.212 257.754 374.32 257.755 373.596 258.172L356.217 268.201C355.437 268.651 355.435 269.776 356.214 270.228Z" fill="white"/>
<path d="M356.531 289.27L380.528 303.094C381.254 303.512 382.148 303.511 382.873 303.091L394.601 296.288C395.379 295.837 395.38 294.715 394.603 294.263L370.859 280.434C370.138 280.014 369.247 280.009 368.522 280.422L356.537 287.237C355.75 287.684 355.746 288.818 356.531 289.27Z" fill="white"/>
<path d="M360.908 294.23V295.367C360.908 295.493 360.975 295.609 361.083 295.671L371.804 301.884C372 301.997 372.244 301.856 372.244 301.63V300.757L360.908 294.23Z" fill="#F5907F"/>
<path fill-rule="evenodd" clip-rule="evenodd" d="M374.612 253.983L374.766 254.569L440.861 291.853L442.325 291.808L444.621 238.368C444.65 237.706 444.304 237.085 443.727 236.761L378.468 200.076L377.698 200.397C377.281 200.571 377.001 200.968 376.979 201.419L374.425 252.196C374.395 252.798 374.458 253.401 374.612 253.983ZM438.605 286.713L377.69 252.064C376.918 251.625 376.46 250.787 376.509 249.9L379.015 203.962C379.038 203.53 379.507 203.272 379.886 203.483L441.069 237.757C441.839 238.189 442.302 239.017 442.265 239.899L440.355 285.743C440.318 286.619 439.367 287.146 438.605 286.713Z" fill="white"/>
<path d="M377.69 252.064L438.605 286.713C439.367 287.146 440.318 286.619 440.355 285.743L442.265 239.899C442.302 239.017 441.839 238.189 441.069 237.757L379.886 203.483C379.507 203.272 379.038 203.53 379.015 203.962L376.509 249.9C376.46 250.787 376.918 251.625 377.69 252.064Z" fill="white"/>
<path d="M332.207 277.705L372.337 254.201C372.876 253.884 373.543 253.879 374.088 254.186L374.766 254.569M332.207 277.705V280.247C332.207 280.667 332.432 281.055 332.797 281.264L398.97 319.077C399.52 319.391 400.196 319.385 400.74 319.062L441.166 295.032C441.521 294.821 441.739 294.438 441.739 294.025V292.348M332.207 277.705L360.908 294.23M441.739 292.348L401.031 315.976C400.306 316.397 399.412 316.399 398.685 315.981L372.244 300.757M441.739 292.348L440.861 291.853M374.766 254.569L374.612 253.983C374.458 253.401 374.395 252.798 374.425 252.196L376.979 201.419C377.001 200.968 377.281 200.571 377.698 200.397M374.766 254.569L440.861 291.853M380.53 199.217L377.698 200.397M380.53 199.217L445.476 235.587C446.058 235.912 446.405 236.539 446.373 237.204L443.824 290.446C443.803 290.893 443.529 291.289 443.118 291.466L442.325 291.808M380.53 199.217L378.468 200.076M440.861 291.853L442.325 291.808M378.468 200.076L443.727 236.761C444.304 237.085 444.65 237.706 444.621 238.368L442.325 291.808M378.468 200.076L377.698 200.397M360.908 294.23V295.367C360.908 295.493 360.975 295.609 361.083 295.671L371.804 301.884C372 301.997 372.244 301.856 372.244 301.63V300.757M360.908 294.23L372.244 300.757M375.936 258.171L432.663 290.842C433.444 291.292 433.446 292.418 432.667 292.87L415.094 303.086C414.366 303.509 413.467 303.509 412.739 303.086L356.214 270.228C355.435 269.776 355.437 268.651 356.217 268.201L373.596 258.172C374.32 257.755 375.212 257.754 375.936 258.171ZM380.528 303.094L356.531 289.27C355.746 288.818 355.75 287.684 356.537 287.237L368.522 280.422C369.247 280.009 370.138 280.014 370.859 280.434L394.603 294.263C395.38 294.715 395.379 295.837 394.601 296.288L382.873 303.091C382.148 303.511 381.254 303.512 380.528 303.094ZM379.886 203.483L441.069 237.757C441.839 238.189 442.302 239.017 442.265 239.899L440.355 285.743C440.318 286.619 439.367 287.146 438.605 286.713L377.69 252.064C376.918 251.625 376.46 250.787 376.509 249.9L379.015 203.962C379.038 203.53 379.507 203.272 379.886 203.483Z" stroke="#EF5237" stroke-width="0.585733"/>
<path d="M188.471 140.603V137.076L190.675 135.753V138.398L190.234 139.28L188.471 140.603Z" fill="#FCDCD7"/>
<path d="M150.994 162.649V159.563L188.471 137.076V140.603L150.994 162.649Z" fill="#F9BAAF"/>
<path d="M150.994 162.648V159.562L147.907 160.444L145.262 159.121V162.648L147.907 163.751L150.994 162.648Z" fill="#EF816E"/>
<path d="M146.145 139.721V142.367L150.995 139.721V136.855L146.145 139.721Z" fill="#F59787"/>
<path d="M146.086 142.367L146.145 146.335L150.995 148.98V139.722L146.086 142.367Z" fill="#FCDCD7"/>
<path d="M145.261 162.208V159.121L128.948 148.98L127.625 150.303L128.066 151.626L128.948 152.508L145.261 162.208Z" fill="#EF816E"/>
<path d="M140.852 159.562V156.476L128.948 148.98L127.625 150.303L128.066 151.626L128.948 152.508L140.852 159.562Z" fill="#F5917F"/>
<path d="M94.998 88.5761H98.0844V86.8124L98.9662 85.4897L102.053 83.2852H96.7617L95.8799 84.8283L94.998 86.8124V88.5761Z" fill="#FCDCD7"/>
<path d="M94.998 88.5762L114.398 145.013L115.721 148.981L119.248 150.303L98.0844 88.5762H94.998Z" fill="#F9BAAF"/>
<path d="M117.925 152.067L121.012 152.949L119.689 151.626V151.185L119.248 150.303L115.721 148.98L116.603 151.185L117.925 152.067Z" fill="#F59787"/>
<path d="M129.109 149.179L146.271 159.527C147.651 160.359 149.376 160.364 150.761 159.542L189.891 136.308C190.39 136.012 190.657 135.516 190.69 135.007C190.728 134.432 190.467 133.84 189.908 133.498L173.652 123.591L172.013 124.533V136.716L150.761 148.986L146.271 146.394V139.321L129.109 149.179Z" fill="white"/>
<path fill-rule="evenodd" clip-rule="evenodd" d="M98.3099 89.3988L119.775 151.547C120.027 152.279 120.621 152.778 121.303 152.953L121.602 153.007C122.045 153.057 122.508 152.972 122.93 152.729L127.775 149.946L129.109 149.179L146.271 139.321L150.761 136.741L172.013 124.533L173.652 123.591L207.405 104.201C209.226 103.155 210.046 100.962 209.358 98.9777L188.074 37.572C187.75 36.6366 187.055 35.9548 186.223 35.6129L186.17 35.5918C185.278 35.2433 184.236 35.282 183.326 35.8121L100.242 84.193C98.4376 85.244 97.6281 87.4247 98.3099 89.3988ZM125.229 146.69C124.039 147.386 122.511 146.819 122.06 145.517L102.938 90.1943C102.426 88.7111 103.036 87.0725 104.394 86.2857L182.265 41.1615C183.462 40.4678 184.995 41.0468 185.434 42.3589L203.959 97.6828C204.452 99.1556 203.844 100.772 202.503 101.556L125.229 146.69Z" fill="white"/>
<path d="M104.394 86.2857C103.036 87.0725 102.426 88.7111 102.938 90.1943L122.06 145.517C122.511 146.819 124.039 147.386 125.229 146.69L202.503 101.556C203.844 100.772 204.452 99.1556 203.959 97.6828L185.434 42.3589C184.995 41.0468 183.462 40.4678 182.265 41.1615L104.394 86.2857Z" fill="white"/>
<path d="M150.761 148.986L172.013 136.716V124.533L150.761 136.741V142.864V148.986Z" fill="white"/>
<path d="M121.602 153.007C122.045 153.057 122.508 152.972 122.93 152.729L127.775 149.946M121.602 153.007L121.303 152.953M121.602 153.007C121.501 152.996 121.401 152.978 121.303 152.953M186.223 35.6129C187.055 35.9548 187.75 36.6366 188.074 37.572L209.358 98.9777C210.046 100.962 209.226 103.155 207.405 104.201L173.652 123.591M186.223 35.6129L186.17 35.5918M186.223 35.6129C186.205 35.6057 186.188 35.5987 186.17 35.5918M129.109 149.179L146.271 159.527C147.651 160.359 149.376 160.364 150.761 159.542L189.891 136.308C190.39 136.012 190.657 135.516 190.69 135.007M129.109 149.179L127.775 149.946M129.109 149.179L146.271 139.321M173.652 123.591L189.908 133.498C190.467 133.84 190.728 134.432 190.69 135.007M173.652 123.591L172.013 124.533M127.775 149.946V150.622C127.775 151.39 128.177 152.101 128.835 152.496L146.012 162.819C147.384 163.643 149.097 163.652 150.478 162.841L189.544 139.906C190.197 139.522 190.606 138.827 190.622 138.069L190.69 135.007M146.271 139.321V146.394L150.761 148.986M146.271 139.321L150.761 136.741M150.761 148.986L172.013 136.716V124.533M150.761 148.986V142.864V136.741M172.013 124.533L150.761 136.741M121.303 152.953C120.621 152.778 120.027 152.279 119.775 151.547L98.3099 89.3988C97.6281 87.4247 98.4376 85.244 100.242 84.193L183.326 35.8121C184.236 35.282 185.278 35.2433 186.17 35.5918M121.303 152.953L118.697 152.477C117.533 152.264 116.573 151.441 116.186 150.322L95.3585 90.0437C94.3292 87.0649 95.5643 83.7751 98.2997 82.2096L181.479 34.6052C182.059 34.2734 182.759 34.2249 183.378 34.4732L186.17 35.5918M185.434 42.3589L203.959 97.6828C204.452 99.1556 203.844 100.772 202.503 101.556L125.229 146.69C124.039 147.386 122.511 146.819 122.06 145.517L102.938 90.1943C102.426 88.7111 103.036 87.0725 104.394 86.2857L182.265 41.1615C183.462 40.4678 184.995 41.0468 185.434 42.3589Z" stroke="#EF5237" stroke-width="0.743785"/>
<path d="M121.454 273.73L174.804 275.935L199.056 292.912C200.096 293.64 200.05 295.195 198.968 295.86L156.468 321.956C153.105 324.021 148.871 324.043 145.487 322.012L98.1712 293.623C97.0863 292.972 97.0195 291.424 98.0442 290.682L121.454 273.73Z" fill="black" fill-opacity="0.06"/>
<path d="M179.213 298.863V293.131L189.795 286.958V292.69L181.858 297.981L179.213 298.863Z" fill="#F9BAAF"/>
<path d="M150.994 309.444V302.389H154.521H155.403L156.726 301.948L160.253 303.712L150.994 309.444Z" fill="#F9BAAF"/>
<path d="M139.531 311.207V305.476L148.349 310.326V316.057H147.468L139.531 311.207Z" fill="#F9BAAF"/>
<path d="M106.021 286.076V275.054L107.785 276.817L150.994 302.39V309.445L150.112 309.886H147.908L124.54 296.658L106.021 286.076Z" fill="#FCDCD7"/>
<path d="M106.022 286.076V275.054L103.817 276.376L98.5263 279.463L97.6445 280.345L98.5263 281.667L101.172 283.431L106.022 286.076Z" fill="white"/>
<path d="M97.6445 286.516V281.666V281.226L98.9673 282.107L139.531 305.476V311.648L117.926 299.303L98.0854 287.839L97.6445 286.516Z" fill="#FCDCD7"/>
<path d="M148.35 316.058V310.326L160.254 304.153L173.481 257.858L179.213 254.771V299.744L150.995 316.058H148.35Z" fill="#F59787"/>
<path d="M128.631 207.323C128.865 206.511 129.802 206.137 130.532 206.563L170.58 229.985C171.61 230.587 172.096 231.814 171.759 232.959L153.556 294.581C153.317 295.391 152.379 295.76 151.652 295.33L112.018 271.91C111 271.309 110.518 270.095 110.846 268.958L128.631 207.323Z" fill="white"/>
<path fill-rule="evenodd" clip-rule="evenodd" d="M108.053 276.979L150.882 302.275C151.172 302.446 151.479 302.553 151.788 302.603H152.608C153.547 302.453 154.384 301.791 154.685 300.788L174.958 233.307C175.82 230.438 174.605 227.353 172.018 225.842L130.961 201.869C130.45 201.571 129.887 201.469 129.352 201.532L129.093 201.576C128.218 201.771 127.456 202.414 127.17 203.36L106.307 272.506C106.08 273.26 106.091 274.039 106.307 274.754C106.582 275.664 107.189 276.469 108.053 276.979ZM171.759 232.959C172.096 231.814 171.61 230.587 170.58 229.985L130.532 206.563C129.802 206.137 128.865 206.511 128.631 207.323L110.846 268.958C110.518 270.095 111 271.309 112.018 271.91L151.652 295.33C152.379 295.76 153.317 295.391 153.556 294.581L171.759 232.959Z" fill="white"/>
<path d="M160.217 303.958L173.186 257.92L170.493 256.299L157.204 300.753C157.092 301.128 156.9 301.462 156.651 301.741L160.217 303.958Z" fill="#EF816E"/>
<path d="M170.493 256.299L173.186 257.92L178.843 254.709C178.747 254.545 178.615 254.402 178.453 254.292L172.334 250.139L170.493 256.299Z" fill="white"/>
<path d="M179.021 293.259L189.142 287.241C189.521 287.016 189.73 286.647 189.769 286.263C189.819 285.788 189.61 285.289 189.142 285.012L179.021 278.994V293.259Z" fill="white"/>
<path d="M174.958 233.307L154.685 300.788C154.384 301.791 153.547 302.453 152.608 302.603H154.719C155.474 302.603 156.17 302.277 156.651 301.741C156.9 301.462 157.092 301.128 157.204 300.753L170.493 256.299L172.334 250.139L177.857 231.662C178.541 229.375 177.576 226.917 175.519 225.706L134.125 201.339C133.597 201.028 132.977 200.914 132.373 201.017L129.352 201.532C129.887 201.469 130.45 201.571 130.961 201.869L172.018 225.842C174.605 227.353 175.82 230.438 174.958 233.307Z" fill="white"/>
<path d="M151.788 302.603C151.479 302.553 151.172 302.446 150.882 302.275L108.053 276.979C107.189 276.469 106.582 275.664 106.307 274.754M151.788 302.603C152.063 302.648 152.34 302.647 152.608 302.603M151.788 302.603H152.608M129.093 201.576C128.218 201.771 127.456 202.414 127.17 203.36L106.307 272.506C106.08 273.26 106.091 274.039 106.307 274.754M129.093 201.576L129.352 201.532M129.093 201.576C129.178 201.557 129.265 201.543 129.352 201.532M106.307 274.754L98.293 279.38C97.824 279.651 97.6094 280.142 97.6492 280.615M160.217 303.958L150.838 309.636C150.233 310.002 149.552 310.19 148.87 310.198C148.183 310.206 147.494 310.033 146.878 309.677L98.293 281.627C97.8974 281.398 97.6828 281.013 97.6492 280.615M160.217 303.958L173.186 257.92M160.217 303.958L156.651 301.741M173.186 257.92L170.493 256.299M173.186 257.92L178.843 254.709M170.493 256.299L157.204 300.753C157.092 301.128 156.9 301.462 156.651 301.741M170.493 256.299L172.334 250.139M156.651 301.741C156.17 302.277 155.474 302.603 154.719 302.603H152.608M172.334 250.139L177.857 231.662C178.541 229.375 177.576 226.917 175.519 225.706L134.125 201.339C133.597 201.028 132.977 200.914 132.373 201.017L129.352 201.532M172.334 250.139L178.453 254.292C178.615 254.402 178.747 254.545 178.843 254.709M179.021 278.994V255.365C179.021 255.131 178.958 254.905 178.843 254.709M179.021 278.994V293.259L189.142 287.241C189.521 287.016 189.73 286.647 189.769 286.263M179.021 278.994L189.142 285.012C189.61 285.289 189.819 285.788 189.769 286.263M97.6492 280.615V285.926C97.6492 286.852 98.1436 287.709 98.946 288.172L146.156 315.429C146.995 315.913 147.935 316.144 148.87 316.122C149.725 316.103 150.577 315.871 151.344 315.429L188.452 294.004C189.252 293.543 189.745 292.691 189.749 291.768L189.769 286.263M152.608 302.603C153.547 302.453 154.384 301.791 154.685 300.788L174.958 233.307C175.82 230.438 174.605 227.353 172.018 225.842L130.961 201.869C130.45 201.571 129.887 201.469 129.352 201.532M112.018 271.91L151.652 295.33C152.379 295.76 153.317 295.391 153.556 294.581L171.759 232.959C172.096 231.814 171.61 230.587 170.58 229.985L130.532 206.563C129.802 206.137 128.865 206.511 128.631 207.323L110.846 268.958C110.518 270.095 111 271.309 112.018 271.91Z" stroke="#EF5237" stroke-width="0.648421"/>
<path d="M130.712 286.077C130.712 287.051 129.961 287.597 129.035 287.296C128.108 286.995 127.357 285.961 127.357 284.987C127.357 284.013 128.108 283.468 129.035 283.769C129.961 284.07 130.712 285.103 130.712 286.077Z" fill="#EF5237" fill-opacity="0.4"/>
<path d="M386.881 113.681L422.595 123.822L455.849 146.417C456.381 146.778 456.36 147.569 455.81 147.901L423.106 167.685C421.979 168.367 420.567 168.364 419.443 167.678L362.439 132.889C361.902 132.561 361.871 131.791 362.381 131.422L386.881 113.681Z" fill="black" fill-opacity="0.06"/>
<path d="M423.035 161.299V156.008L449.49 140.576L450.812 139.694V144.985L449.931 145.426L429.649 157.331L423.035 161.299Z" fill="#F59787"/>
<path d="M423.036 156.007V161.739L420.831 162.18L418.186 161.298V155.566L420.831 156.448L423.036 156.007Z" fill="#F9BAAF"/>
<path d="M450.812 144.985V140.135L452.576 138.812L453.899 137.931V142.34L453.017 143.662L450.812 144.985Z" fill="#F9BAAF"/>
<path d="M363.072 128.23V123.38L418.186 155.566V161.298L415.1 159.534L363.072 128.23Z" fill="#FCDCD7"/>
<path d="M361.309 126.467V122.058L363.072 123.38V128.23L361.75 127.349L361.309 126.467Z" fill="white"/>
<path d="M365.51 119.416C364.616 120.012 364.649 121.337 365.572 121.887L418.375 153.366C419.739 154.179 421.435 154.191 422.81 153.398L449.505 138.01C450.467 137.455 450.483 136.073 449.535 135.495L396.809 103.387C395.468 102.57 393.792 102.533 392.416 103.29L388.189 105.614C387.671 105.899 387.375 106.469 387.441 107.056L387.594 108.442C387.658 109.01 387.384 109.562 386.894 109.856L375.362 116.775C375.069 116.951 374.725 117.019 374.388 116.967L370.72 116.402C370.359 116.347 369.991 116.428 369.687 116.631L365.51 119.416Z" fill="white"/>
<path fill-rule="evenodd" clip-rule="evenodd" d="M362.756 123.209L418.741 155.949C420.105 156.746 421.793 156.748 423.159 155.954L452.446 138.92C453.36 138.388 453.843 137.484 453.895 136.558C453.952 135.529 453.475 134.474 452.463 133.876L397.251 101.266C395.416 100.181 393.135 100.182 391.301 101.268L362.743 118.17C361.781 118.739 361.303 119.721 361.309 120.701C361.314 121.675 361.797 122.648 362.756 123.209ZM422.81 153.398C421.435 154.191 419.739 154.179 418.375 153.366L365.572 121.887C364.649 121.337 364.616 120.012 365.51 119.416L369.687 116.631C369.991 116.428 370.359 116.347 370.72 116.402L374.388 116.967C374.725 117.019 375.069 116.951 375.362 116.775L386.894 109.856C387.384 109.562 387.658 109.01 387.594 108.442L387.441 107.056C387.375 106.469 387.671 105.899 388.189 105.614L392.416 103.29C393.792 102.533 395.468 102.57 396.809 103.387L449.535 135.495C450.483 136.073 450.467 137.455 449.505 138.01L422.81 153.398ZM380.356 110.279L376.145 112.895C375.931 113.028 375.865 113.31 375.998 113.524C376.131 113.738 376.412 113.804 376.627 113.671L380.838 111.054C381.052 110.921 381.118 110.64 380.985 110.426C380.852 110.212 380.57 110.146 380.356 110.279ZM382.616 108.92L382.044 109.275C381.83 109.408 381.764 109.689 381.897 109.904C382.03 110.118 382.311 110.183 382.525 110.05L383.097 109.695C383.311 109.562 383.377 109.281 383.244 109.067C383.111 108.852 382.83 108.787 382.616 108.92Z" fill="white"/>
<path d="M376.145 112.895L380.356 110.279C380.57 110.146 380.852 110.212 380.985 110.426C381.118 110.64 381.052 110.921 380.838 111.054L376.627 113.671C376.412 113.804 376.131 113.738 375.998 113.524C375.865 113.31 375.931 113.028 376.145 112.895Z" fill="white"/>
<path d="M382.044 109.275L382.616 108.92C382.83 108.787 383.111 108.852 383.244 109.067C383.377 109.281 383.311 109.562 383.097 109.695L382.525 110.05C382.311 110.183 382.03 110.118 381.897 109.904C381.764 109.689 381.83 109.408 382.044 109.275Z" fill="white"/>
<path d="M361.309 120.701C361.314 121.675 361.797 122.648 362.756 123.209L418.741 155.949C420.105 156.746 421.793 156.748 423.159 155.954L452.446 138.92C453.36 138.388 453.843 137.484 453.895 136.558M361.309 120.701C361.303 119.721 361.781 118.739 362.743 118.17L391.301 101.268C393.135 100.182 395.416 100.181 397.251 101.266L452.463 133.876C453.475 134.474 453.952 135.529 453.895 136.558M361.309 120.701V126.449C361.309 126.963 361.579 127.439 362.02 127.703L418.362 161.393C419.733 162.212 421.44 162.222 422.819 161.419L452.397 144.192C453.288 143.673 453.839 142.723 453.849 141.692L453.895 136.558M376.627 113.671L380.838 111.054C381.052 110.921 381.118 110.64 380.985 110.426C380.852 110.212 380.57 110.146 380.356 110.279L376.145 112.895C375.931 113.028 375.865 113.31 375.998 113.524C376.131 113.738 376.412 113.804 376.627 113.671ZM382.525 110.05L383.097 109.695C383.311 109.562 383.377 109.281 383.244 109.067C383.111 108.852 382.83 108.787 382.616 108.92L382.044 109.275C381.83 109.408 381.764 109.689 381.897 109.904C382.03 110.118 382.311 110.183 382.525 110.05ZM375.362 116.775L386.894 109.856C387.384 109.562 387.658 109.01 387.594 108.442L387.441 107.056C387.375 106.469 387.671 105.899 388.189 105.614L392.416 103.29C393.792 102.533 395.468 102.57 396.809 103.387L449.535 135.495C450.483 136.073 450.467 137.455 449.505 138.01L422.81 153.398C421.435 154.191 419.739 154.179 418.375 153.366L365.572 121.887C364.649 121.337 364.616 120.012 365.51 119.416L369.687 116.631C369.991 116.428 370.359 116.347 370.72 116.402L374.388 116.967C374.725 117.019 375.069 116.951 375.362 116.775Z" stroke="#EF5237" stroke-width="0.584625"/>
<path d="M437.033 149.724C436.803 149.854 436.66 150.097 436.66 150.361V151.15C436.66 151.422 436.954 151.591 437.189 151.456L442.141 148.597C442.367 148.466 442.506 148.225 442.506 147.964V147.249C442.506 146.979 442.216 146.809 441.981 146.941L437.033 149.724Z" fill="white" stroke="#EF5237" stroke-width="0.440909"/>
</svg>
