<svg width="566" height="360" viewBox="0 0 566 360" fill="none" xmlns="http://www.w3.org/2000/svg">
<rect width="566" height="360" rx="16" fill="black" fill-opacity="0.04"/>
<path d="M386.5 257.816L476.5 251.316L504.29 268.628C505.543 269.409 505.548 271.231 504.298 272.018L432.127 317.477C430.827 318.296 429.172 318.298 427.87 317.482L361.763 276.048C360.498 275.255 360.516 273.407 361.796 272.639L386.5 257.816Z" fill="black" fill-opacity="0.06"/>
<path d="M218.5 169.316L346.5 153.816L383.443 178.601C384.645 179.407 384.618 181.185 383.393 181.955L283.503 244.73C279.539 247.221 274.488 247.179 270.566 244.623L190.471 192.427C189.287 191.655 189.256 189.931 190.411 189.117L218.5 169.316Z" fill="black" fill-opacity="0.06"/>
<path d="M309.83 202.316L324.33 193.316L420.83 248.316L405.33 258.316L309.83 202.316Z" fill="#EF5237" fill-opacity="0.1"/>
<path d="M325.33 193.816L425.33 250.816" stroke="#EF5237" stroke-opacity="0.5" stroke-width="0.6" stroke-linecap="round"/>
<path d="M319.33 198.316C341.004 210.618 398.656 245.015 420.33 257.316" stroke="#EF5237" stroke-opacity="0.5" stroke-width="0.6" stroke-linecap="round"/>
<path d="M310.33 202.316C332.199 215.399 393.961 251.234 415.83 264.316" stroke="#EF5237" stroke-opacity="0.5" stroke-width="0.6" stroke-linecap="round"/>
<path d="M248.5 202.316L234 193.316L137.5 248.316L153 258.316L248.5 202.316Z" fill="#EF5237" fill-opacity="0.1"/>
<path d="M233 193.816L133 250.816" stroke="#EF5237" stroke-opacity="0.5" stroke-width="0.6" stroke-linecap="round"/>
<path d="M239 198.316C217.326 210.618 159.674 245.015 138 257.316" stroke="#EF5237" stroke-opacity="0.5" stroke-width="0.6" stroke-linecap="round"/>
<path d="M248 202.316C226.131 215.399 164.369 251.234 142.5 264.316" stroke="#EF5237" stroke-opacity="0.5" stroke-width="0.6" stroke-linecap="round"/>
<path d="M273.581 208.297L195.222 159.874C194.41 159.372 194.002 158.531 194 157.689V179.078C194 179.8 194.372 180.47 194.985 180.852L275.487 231.045C276.841 231.889 278.557 231.89 279.911 231.046L360.485 180.842C361.089 180.466 361.46 179.808 361.47 179.096L361.783 156.167C361.759 156.975 361.36 157.773 360.588 158.263L281.786 208.249C279.286 209.835 276.1 209.854 273.581 208.297Z" fill="white"/>
<path d="M195.222 159.874L273.581 208.297C276.1 209.854 279.286 209.835 281.786 208.249L360.588 158.263C361.36 157.773 361.759 156.975 361.783 156.167L361.785 156.078C361.782 155.243 361.38 154.41 360.581 153.906L283.728 105.507C281.223 103.929 278.035 103.92 275.522 105.486L195.215 155.494C194.402 156 193.998 156.845 194 157.689C194.002 158.531 194.41 159.372 195.222 159.874Z" fill="white"/>
<path d="M194 157.689C194.002 158.531 194.41 159.372 195.222 159.874L273.581 208.297C276.1 209.854 279.286 209.835 281.786 208.249L360.588 158.263C361.36 157.773 361.759 156.975 361.783 156.167M194 157.689C193.998 156.845 194.402 156 195.215 155.494L275.522 105.486C278.035 103.92 281.223 103.929 283.728 105.507L360.581 153.906C361.38 154.41 361.782 155.243 361.785 156.078M194 157.689V179.078C194 179.8 194.372 180.47 194.985 180.852L275.487 231.045C276.841 231.889 278.557 231.89 279.911 231.046L360.485 180.842C361.089 180.466 361.46 179.808 361.47 179.096L361.783 156.167M361.785 156.078L361.783 156.167M361.785 156.078C361.785 156.108 361.784 156.138 361.783 156.167" stroke="#EF5237" stroke-width="0.82"/>
<path d="M285.43 214.637C285.43 214.278 285.614 213.945 285.917 213.753L302.99 202.97C303.338 202.75 303.791 203.001 303.791 203.412V206.72C303.791 207.078 303.608 207.412 303.304 207.604L286.232 218.386C285.883 218.606 285.43 218.356 285.43 217.944V214.637Z" fill="#EF5237" fill-opacity="0.8"/>
<path d="M342.125 179.521C342.125 179.165 342.306 178.834 342.605 178.641L345.83 176.569C346.177 176.345 346.635 176.595 346.635 177.008V180.312C346.635 180.668 346.454 180.999 346.155 181.191L342.93 183.264C342.582 183.488 342.125 183.238 342.125 182.825V179.521Z" fill="#EF5237" fill-opacity="0.4"/>
<path d="M347.279 176.297C347.279 175.941 347.46 175.61 347.759 175.418L350.984 173.345C351.332 173.121 351.789 173.371 351.789 173.785V177.088C351.789 177.444 351.608 177.775 351.309 177.968L348.085 180.041C347.737 180.264 347.279 180.015 347.279 179.601V176.297Z" fill="#EF5237" fill-opacity="0.4"/>
<path d="M352.434 173.078C352.434 172.723 352.614 172.391 352.914 172.199L356.138 170.126C356.486 169.903 356.943 170.152 356.943 170.566V173.87C356.943 174.225 356.763 174.557 356.463 174.749L353.239 176.822C352.891 177.046 352.434 176.796 352.434 176.382V173.078Z" fill="#EF5237" fill-opacity="0.4"/>
<rect x="276.83" y="211.315" width="1" height="18" rx="0.5" fill="#EF5237"/>
<path d="M279.31 113.18L353.563 155.876C354.94 156.668 354.966 158.646 353.61 159.473L280.055 204.351C278.04 205.58 275.507 205.574 273.498 204.337L204.283 161.695C202.948 160.873 202.96 158.928 204.305 158.122L279.31 113.18Z" fill="#EF5237" fill-opacity="0.2"/>
<path d="M273.581 176.729L195.222 128.305C194.41 127.803 194.002 126.962 194 126.12V147.51C194 148.231 194.372 148.902 194.985 149.284L275.487 199.477C276.841 200.321 278.557 200.321 279.911 199.478L360.485 149.274C361.089 148.897 361.46 148.24 361.47 147.528L361.783 124.599C361.759 125.407 361.36 126.205 360.588 126.695L281.786 176.681C279.286 178.267 276.1 178.286 273.581 176.729Z" fill="white"/>
<path d="M195.222 128.305L273.581 176.729C276.1 178.286 279.286 178.267 281.786 176.681L360.588 126.695C361.36 126.205 361.759 125.407 361.783 124.599L361.785 124.51C361.782 123.675 361.38 122.841 360.581 122.338L283.728 73.9383C281.223 72.3602 278.035 72.3521 275.522 73.9174L195.215 123.925C194.402 124.431 193.998 125.276 194 126.12C194.002 126.962 194.41 127.803 195.222 128.305Z" fill="white"/>
<path d="M194 126.12C194.002 126.962 194.41 127.803 195.222 128.305L273.581 176.729C276.1 178.286 279.286 178.267 281.786 176.681L360.588 126.695C361.36 126.205 361.759 125.407 361.783 124.599M194 126.12C193.998 125.276 194.402 124.431 195.215 123.925L275.522 73.9174C278.035 72.3521 281.223 72.3602 283.728 73.9383L360.581 122.338C361.38 122.841 361.782 123.675 361.785 124.51M194 126.12V147.51C194 148.231 194.372 148.902 194.985 149.284L275.487 199.477C276.841 200.321 278.557 200.321 279.911 199.478L360.485 149.274C361.089 148.897 361.46 148.24 361.47 147.528L361.783 124.599M361.785 124.51L361.783 124.599M361.785 124.51C361.785 124.54 361.784 124.569 361.783 124.599" stroke="#EF5237" stroke-width="0.82"/>
<path d="M285.43 183.072C285.43 182.713 285.614 182.379 285.917 182.188L302.99 171.405C303.338 171.185 303.791 171.435 303.791 171.847V175.154C303.791 175.513 303.608 175.847 303.304 176.038L286.232 186.821C285.883 187.041 285.43 186.791 285.43 186.379V183.072Z" fill="#EF5237" fill-opacity="0.8"/>
<path d="M342.125 147.954C342.125 147.599 342.306 147.267 342.605 147.075L345.83 145.002C346.177 144.778 346.635 145.028 346.635 145.442V148.746C346.635 149.101 346.454 149.433 346.155 149.625L342.93 151.698C342.582 151.922 342.125 151.672 342.125 151.258V147.954Z" fill="#EF5237" fill-opacity="0.4"/>
<path d="M347.279 144.727C347.279 144.371 347.46 144.04 347.759 143.847L350.984 141.775C351.332 141.551 351.789 141.801 351.789 142.214V145.518C351.789 145.874 351.608 146.205 351.309 146.398L348.085 148.47C347.737 148.694 347.279 148.444 347.279 148.031V144.727Z" fill="#EF5237" fill-opacity="0.4"/>
<path d="M352.434 141.508C352.434 141.152 352.614 140.821 352.914 140.629L356.138 138.556C356.486 138.332 356.943 138.582 356.943 138.995V142.299C356.943 142.655 356.763 142.986 356.463 143.179L353.239 145.252C352.891 145.475 352.434 145.225 352.434 144.812V141.508Z" fill="#EF5237" fill-opacity="0.4"/>
<rect x="276.83" y="180.316" width="1" height="17" rx="0.5" fill="#EF5237"/>
<path d="M279.31 80.161L353.563 122.856C354.94 123.648 354.966 125.626 353.61 126.454L280.055 171.331C278.04 172.56 275.507 172.555 273.498 171.317L204.283 128.676C202.948 127.853 202.96 125.908 204.305 125.102L279.31 80.161Z" fill="#EF5237" fill-opacity="0.2"/>
<path d="M273.581 144.296L195.222 95.8726C194.41 95.3706 194.002 94.5298 194 93.6878V115.077C194 115.799 194.372 116.469 194.985 116.851L275.487 167.044C276.841 167.888 278.557 167.889 279.911 167.045L360.485 116.841C361.089 116.465 361.46 115.807 361.47 115.095L361.783 92.1665C361.759 92.9742 361.36 93.7722 360.588 94.2621L281.786 144.248C279.286 145.834 276.1 145.853 273.581 144.296Z" fill="white"/>
<path d="M195.222 95.8726L273.581 144.296C276.1 145.853 279.286 145.834 281.786 144.248L360.588 94.2621C361.36 93.7722 361.759 92.9742 361.783 92.1665L361.785 92.0771C361.782 91.2423 361.38 90.4087 360.581 89.9052L283.728 41.5056C281.223 39.9275 278.035 39.9195 275.522 41.4848L195.215 91.4927C194.402 91.9987 193.998 92.8438 194 93.6878C194.002 94.5298 194.41 95.3706 195.222 95.8726Z" fill="white"/>
<path d="M194 93.6878C194.002 94.5298 194.41 95.3706 195.222 95.8726L273.581 144.296C276.1 145.853 279.286 145.834 281.786 144.248L360.588 94.2621C361.36 93.7722 361.759 92.9742 361.783 92.1665M194 93.6878C193.998 92.8438 194.402 91.9987 195.215 91.4927L275.522 41.4848C278.035 39.9195 281.223 39.9275 283.728 41.5056L360.581 89.9052C361.38 90.4087 361.782 91.2423 361.785 92.0771M194 93.6878V115.077C194 115.799 194.372 116.469 194.985 116.851L275.487 167.044C276.841 167.888 278.557 167.889 279.911 167.045L360.485 116.841C361.089 116.465 361.46 115.807 361.47 115.095L361.783 92.1665M361.785 92.0771L361.783 92.1665M361.785 92.0771C361.785 92.1069 361.784 92.1367 361.783 92.1665" stroke="#EF5237" stroke-width="0.82"/>
<path d="M285.43 150.641C285.43 150.282 285.614 149.949 285.917 149.757L302.99 138.974C303.338 138.754 303.791 139.004 303.791 139.416V142.724C303.791 143.082 303.608 143.416 303.304 143.607L286.232 154.39C285.883 154.61 285.43 154.36 285.43 153.948V150.641Z" fill="#EF5237" fill-opacity="0.8"/>
<path d="M342.125 115.522C342.125 115.166 342.306 114.835 342.605 114.642L345.83 112.569C346.177 112.346 346.635 112.596 346.635 113.009V116.313C346.635 116.669 346.454 117 346.155 117.192L342.93 119.265C342.582 119.489 342.125 119.239 342.125 118.826V115.522Z" fill="#EF5237" fill-opacity="0.4"/>
<path d="M347.279 112.298C347.279 111.942 347.46 111.611 347.759 111.419L350.984 109.346C351.332 109.122 351.789 109.372 351.789 109.786V113.089C351.789 113.445 351.608 113.776 351.309 113.969L348.085 116.042C347.737 116.265 347.279 116.016 347.279 115.602V112.298Z" fill="#EF5237" fill-opacity="0.4"/>
<path d="M352.434 109.075C352.434 108.72 352.614 108.388 352.914 108.196L356.138 106.123C356.486 105.9 356.943 106.149 356.943 106.563V109.867C356.943 110.222 356.763 110.554 356.463 110.746L353.239 112.819C352.891 113.043 352.434 112.793 352.434 112.379V109.075Z" fill="#EF5237" fill-opacity="0.4"/>
<rect x="276.83" y="147.317" width="1" height="18" rx="0.5" fill="#EF5237"/>
<path d="M270.025 214.638C270.025 214.279 269.841 213.946 269.538 213.754L252.465 202.971C252.117 202.751 251.664 203.002 251.664 203.413V206.721C251.664 207.079 251.848 207.413 252.151 207.605L269.224 218.387C269.572 218.607 270.025 218.357 270.025 217.945V214.638Z" fill="#EF5237" fill-opacity="0.8"/>
<path d="M213.328 179.522C213.328 179.166 213.147 178.835 212.848 178.642L209.624 176.569C209.276 176.346 208.818 176.596 208.818 177.009V180.313C208.818 180.669 208.999 181 209.298 181.192L212.523 183.265C212.871 183.489 213.328 183.239 213.328 182.826V179.522Z" fill="#EF5237" fill-opacity="0.4"/>
<path d="M208.174 176.298C208.174 175.942 207.993 175.611 207.694 175.419L204.469 173.346C204.121 173.122 203.664 173.372 203.664 173.786V177.089C203.664 177.445 203.845 177.776 204.144 177.969L207.368 180.042C207.716 180.265 208.174 180.016 208.174 179.602V176.298Z" fill="#EF5237" fill-opacity="0.4"/>
<path d="M203.02 173.079C203.02 172.724 202.839 172.392 202.539 172.2L199.315 170.127C198.967 169.903 198.51 170.153 198.51 170.567V173.871C198.51 174.226 198.691 174.558 198.99 174.75L202.214 176.823C202.562 177.047 203.02 176.797 203.02 176.383V173.079Z" fill="#EF5237" fill-opacity="0.4"/>
<path d="M270.025 183.071C270.025 182.712 269.841 182.378 269.538 182.187L252.465 171.404C252.117 171.184 251.664 171.434 251.664 171.846V175.153C251.664 175.512 251.848 175.846 252.151 176.037L269.224 186.82C269.572 187.04 270.025 186.79 270.025 186.378V183.071Z" fill="#EF5237" fill-opacity="0.8"/>
<path d="M213.328 147.954C213.328 147.599 213.147 147.267 212.848 147.075L209.624 145.002C209.276 144.778 208.818 145.028 208.818 145.442V148.746C208.818 149.101 208.999 149.433 209.298 149.625L212.523 151.698C212.871 151.922 213.328 151.672 213.328 151.258V147.954Z" fill="#EF5237" fill-opacity="0.4"/>
<path d="M208.174 144.727C208.174 144.371 207.993 144.04 207.694 143.847L204.469 141.775C204.121 141.551 203.664 141.801 203.664 142.214V145.518C203.664 145.874 203.845 146.205 204.144 146.398L207.368 148.47C207.716 148.694 208.174 148.444 208.174 148.031V144.727Z" fill="#EF5237" fill-opacity="0.4"/>
<path d="M203.02 141.508C203.02 141.152 202.839 140.821 202.539 140.629L199.315 138.556C198.967 138.332 198.51 138.582 198.51 138.995V142.299C198.51 142.655 198.691 142.986 198.99 143.179L202.214 145.252C202.562 145.475 203.02 145.225 203.02 144.812V141.508Z" fill="#EF5237" fill-opacity="0.4"/>
<path d="M270.025 150.64C270.025 150.281 269.841 149.948 269.538 149.756L252.465 138.973C252.117 138.753 251.664 139.003 251.664 139.415V142.723C251.664 143.081 251.848 143.415 252.151 143.607L269.224 154.389C269.572 154.609 270.025 154.359 270.025 153.947V150.64Z" fill="#EF5237" fill-opacity="0.8"/>
<path d="M213.328 115.521C213.328 115.165 213.147 114.834 212.848 114.641L209.624 112.569C209.276 112.345 208.818 112.595 208.818 113.008V116.312C208.818 116.668 208.999 116.999 209.298 117.191L212.523 119.264C212.871 119.488 213.328 119.238 213.328 118.825V115.521Z" fill="#EF5237" fill-opacity="0.4"/>
<path d="M208.174 112.297C208.174 111.941 207.993 111.61 207.694 111.418L204.469 109.345C204.121 109.121 203.664 109.371 203.664 109.785V113.088C203.664 113.444 203.845 113.775 204.144 113.968L207.368 116.041C207.716 116.264 208.174 116.015 208.174 115.601V112.297Z" fill="#EF5237" fill-opacity="0.4"/>
<path d="M203.02 109.074C203.02 108.719 202.839 108.387 202.539 108.195L199.315 106.122C198.967 105.899 198.51 106.148 198.51 106.562V109.866C198.51 110.222 198.691 110.553 198.99 110.745L202.214 112.818C202.562 113.042 203.02 112.792 203.02 112.378V109.074Z" fill="#EF5237" fill-opacity="0.4"/>
<path d="M275.789 130.608L215.671 94.999C214.378 94.2333 214.36 92.369 215.637 91.5779L277.772 53.0914C279.037 52.3076 280.633 52.2912 281.914 53.0489L343.425 89.4265C344.733 90.2 344.735 92.0919 343.428 92.8677L279.87 130.605C278.612 131.352 277.047 131.353 275.789 130.608Z" fill="#EF5237" fill-opacity="0.2"/>
<path d="M424.725 220.937L359.625 262.019C359.2 262.288 358.992 262.734 359 263.178C359.008 263.613 359.224 264.044 359.647 264.3L427.732 305.468C429.028 306.252 430.655 306.241 431.94 305.44L497.368 264.666C497.729 264.441 497.935 264.087 497.987 263.716C498.057 263.214 497.845 262.679 497.355 262.382L428.956 220.899C427.653 220.109 426.014 220.123 424.725 220.937Z" fill="white"/>
<path d="M497.368 264.666L431.94 305.44C430.655 306.241 429.028 306.252 427.732 305.468L359.647 264.3C359.224 264.044 359.008 263.613 359 263.178V266.785C359 267.251 359.242 267.683 359.639 267.927L427.012 309.36C428.747 310.427 430.938 310.419 432.665 309.339L497.265 268.923C497.648 268.684 497.885 268.268 497.895 267.817L497.987 263.716C497.935 264.087 497.729 264.441 497.368 264.666Z" fill="white"/>
<path d="M359 263.178C358.992 262.734 359.2 262.288 359.625 262.019L424.725 220.937C426.014 220.123 427.653 220.109 428.956 220.899L497.355 262.382C497.845 262.679 498.057 263.214 497.987 263.716M359 263.178C359.008 263.613 359.224 264.044 359.647 264.3L427.732 305.468C429.028 306.252 430.655 306.241 431.94 305.44L497.368 264.666C497.729 264.441 497.935 264.087 497.987 263.716M359 263.178V266.785C359 267.251 359.242 267.683 359.639 267.927L427.012 309.36C428.747 310.428 430.938 310.419 432.665 309.339L497.265 268.923C497.648 268.684 497.885 268.268 497.895 267.817L497.987 263.716" stroke="#EF5237" stroke-width="0.670279"/>
<path opacity="0.8" d="M428.255 289.979C427.567 289.624 427.527 288.655 428.183 288.244L468.828 262.768C469.495 262.35 470.346 262.362 471 262.799L471.653 263.234C472.257 263.637 472.244 264.529 471.628 264.914L431.009 290.299C430.41 290.673 429.658 290.704 429.031 290.38L428.255 289.979Z" fill="#EF5237"/>
<path opacity="0.6" d="M438.345 289.523C437.649 289.164 437.618 288.18 438.289 287.777L468.845 269.425C469.508 269.026 470.341 269.046 470.985 269.475L471.631 269.907C472.242 270.314 472.22 271.22 471.589 271.597L441.053 289.857C440.459 290.212 439.723 290.235 439.108 289.917L438.345 289.523Z" fill="#EF5237"/>
<path d="M409.607 285.324L372.659 263.992C371.784 263.487 371.761 262.232 372.617 261.695L423.584 229.739C425.266 228.684 427.394 228.645 429.114 229.638L468.256 252.237C469.15 252.753 469.15 254.043 468.256 254.559L414.969 285.324C413.31 286.282 411.266 286.282 409.607 285.324Z" fill="#EF5237" fill-opacity="0.1"/>
<path d="M427.8 247.844L420.449 245.02C419.96 244.834 419.393 244.752 418.833 244.787C418.274 244.821 417.751 244.971 417.344 245.213L400.042 255.602C399.639 255.847 399.374 256.17 399.287 256.524C399.2 256.878 399.295 257.243 399.559 257.564L403.557 262.401C403.614 262.47 403.685 262.533 403.769 262.59L405.577 263.811C406.279 264.284 407.14 264.65 408.093 264.879C409.045 265.107 410.062 265.193 411.064 265.128L419.202 270.621C419.442 270.783 419.77 270.879 420.115 270.888C420.46 270.897 420.793 270.818 421.042 270.669L439.746 259.438C439.994 259.289 440.136 259.082 440.142 258.862C440.148 258.642 440.016 258.428 439.777 258.266L431.639 252.774C431.799 252.141 431.724 251.489 431.421 250.871C431.118 250.252 430.594 249.683 429.893 249.21L428.084 247.989C428 247.933 427.905 247.884 427.8 247.844ZM413.059 259.318C413.525 259.633 413.859 260.017 414.028 260.434C414.198 260.85 414.197 261.285 414.026 261.696C413.855 262.107 413.519 262.48 413.051 262.779C412.584 263.079 412 263.294 411.356 263.405C411.242 263.411 411.13 263.427 411.024 263.452C410.382 263.524 409.718 263.492 409.094 263.359C408.469 263.225 407.903 262.994 407.448 262.687L406.543 262.077L412.155 258.708L413.059 259.318ZM420.54 254.825C421.26 255.311 421.654 255.954 421.637 256.613C421.619 257.273 421.192 257.894 420.447 258.341C419.703 258.788 418.704 259.023 417.669 258.996C416.634 258.968 415.649 258.68 414.929 258.195L414.025 257.585L419.636 254.215L420.54 254.825ZM428.022 250.333C428.477 250.64 428.806 251.013 428.978 251.418C429.151 251.823 429.162 252.247 429.011 252.651C428.967 252.716 428.936 252.786 428.919 252.857C428.708 253.26 428.336 253.618 427.84 253.898C427.343 254.178 426.738 254.37 426.084 254.455C425.43 254.54 424.748 254.515 424.104 254.383C423.461 254.251 422.878 254.017 422.411 253.702L421.507 253.092L427.118 249.722L428.022 250.333Z" fill="#EF5237"/>
<path d="M179.5 253.816L89.5 247.316L61.71 264.628C60.457 265.409 60.4525 267.231 61.7016 268.018L133.873 313.477C135.173 314.296 136.828 314.298 138.13 313.482L204.237 272.048C205.502 271.255 205.484 269.407 204.204 268.639L179.5 253.816Z" fill="black" fill-opacity="0.06"/>
<path d="M140.279 215.937L205.381 257.021C205.806 257.289 206.014 257.736 206.006 258.179C205.998 258.615 205.782 259.046 205.359 259.302L137.271 300.472C135.974 301.255 134.348 301.244 133.062 300.443L67.6316 259.667C67.2706 259.443 67.0647 259.089 67.013 258.717C66.9434 258.216 67.1547 257.681 67.6455 257.383L136.047 215.899C137.35 215.109 138.989 215.123 140.279 215.937Z" fill="white"/>
<path d="M67.6316 259.667L133.062 300.443C134.348 301.244 135.974 301.255 137.271 300.472L205.359 259.302C205.782 259.046 205.998 258.615 206.006 258.179V261.787C206.006 262.253 205.764 262.685 205.367 262.929L137.991 304.364C136.256 305.431 134.065 305.423 132.338 304.342L67.7346 263.925C67.352 263.686 67.1155 263.27 67.1054 262.819L67.013 258.717C67.0647 259.089 67.2706 259.443 67.6316 259.667Z" fill="white"/>
<path d="M206.006 258.179C206.014 257.736 205.806 257.289 205.381 257.021L140.279 215.937C138.989 215.123 137.35 215.109 136.047 215.899L67.6455 257.383C67.1547 257.681 66.9434 258.216 67.013 258.717M206.006 258.179C205.998 258.615 205.782 259.046 205.359 259.302L137.271 300.472C135.974 301.255 134.348 301.244 133.062 300.443L67.6316 259.667C67.2706 259.443 67.0647 259.089 67.013 258.717M206.006 258.179V261.787C206.006 262.253 205.764 262.685 205.367 262.929L137.991 304.364C136.256 305.431 134.065 305.423 132.338 304.342L67.7346 263.925C67.352 263.686 67.1155 263.27 67.1054 262.819L67.013 258.717" stroke="#EF5237" stroke-width="0.670307"/>
<path opacity="0.8" d="M136.747 284.982C137.435 284.627 137.475 283.658 136.819 283.247L96.1718 257.77C95.5048 257.352 94.6546 257.364 93.9997 257.8L93.3473 258.236C92.7432 258.639 92.7565 259.531 93.3722 259.916L133.993 285.302C134.592 285.676 135.344 285.707 135.971 285.383L136.747 284.982Z" fill="#EF5237"/>
<path opacity="0.6" d="M126.657 284.526C127.353 284.167 127.384 283.183 126.713 282.78L96.1557 264.427C95.4926 264.029 94.6594 264.048 94.016 264.478L93.3695 264.909C92.7584 265.316 92.7807 266.222 93.4112 266.599L123.949 284.86C124.543 285.215 125.278 285.238 125.893 284.92L126.657 284.526Z" fill="#EF5237"/>
<path d="M155.398 280.328L192.347 258.995C193.222 258.489 193.244 257.235 192.388 256.698L141.42 224.74C139.737 223.685 137.61 223.646 135.89 224.639L96.7457 247.239C95.8519 247.755 95.8519 249.045 96.7457 249.561L150.035 280.328C151.694 281.286 153.738 281.286 155.398 280.328Z" fill="#EF5237" fill-opacity="0.1"/>
<path d="M144.182 239.223L164.601 251.492C165.093 251.788 165.379 252.197 165.395 252.63C165.412 253.063 165.158 253.484 164.689 253.8L148.775 264.534C148.306 264.85 147.661 265.036 146.981 265.051C146.302 265.065 145.643 264.907 145.151 264.611L124.732 252.342C124.239 252.046 123.954 251.637 123.937 251.204C123.92 250.771 124.175 250.35 124.644 250.034L140.557 239.3C141.026 238.984 141.671 238.798 142.351 238.784C143.031 238.769 143.689 238.927 144.182 239.223ZM141.13 254.302C142.608 255.189 144.583 255.662 146.621 255.618C148.66 255.575 150.595 255.018 152.003 254.071C152.238 253.912 152.365 253.702 152.357 253.486C152.348 253.269 152.205 253.064 151.959 252.917C151.713 252.769 151.384 252.69 151.044 252.697C150.704 252.704 150.381 252.797 150.147 252.955C149.209 253.588 147.918 253.959 146.559 253.988C145.2 254.017 143.883 253.701 142.898 253.11C141.913 252.518 141.342 251.699 141.309 250.834C141.276 249.968 141.784 249.126 142.722 248.494C142.956 248.336 143.083 248.125 143.075 247.909C143.067 247.692 142.924 247.488 142.678 247.34C142.432 247.192 142.102 247.113 141.763 247.12C141.423 247.127 141.1 247.22 140.866 247.378C139.461 248.328 138.7 249.59 138.749 250.888C138.799 252.186 139.655 253.414 141.13 254.302ZM161.064 253.877L162.833 252.685L142.413 240.416L140.645 241.608L161.064 253.877Z" fill="#EF5237"/>
</svg>
