<svg width="566" height="360" viewBox="0 0 566 360" fill="none" xmlns="http://www.w3.org/2000/svg">
<rect width="566" height="360" rx="16" fill="black" fill-opacity="0.04"/>
<path d="M199 249.816L341 228.316L382.344 259.774C384.583 261.478 384.41 264.901 382.009 266.369L281.103 328.084C277.343 330.383 272.625 330.437 268.814 328.223L175.319 273.907C172.817 272.453 172.639 268.906 174.983 267.208L199 249.816Z" fill="black" fill-opacity="0.06"/>
<path d="M185.477 265.25V239.979L262.473 286.106V309.827L185.477 265.25Z" fill="#F9BAAF"/>
<path d="M362.766 262.88V238.794L285.77 286.5V309.078L362.766 262.88Z" fill="#F9BAAF"/>
<path d="M262.473 309.867V286.176L271.159 291.309L274.318 292.493L278.267 291.309L285.769 286.571V309.077L278.662 313.421L274.318 314.21L270.37 313.815L268.001 313.026L262.473 309.867Z" fill="#F59787"/>
<path d="M176 259.328V234.058L185.476 240.375V265.251L176 259.328Z" fill="#FCDCD7"/>
<path d="M362.765 262.879L372.848 256.956L379.744 252.613L384.087 249.454L384.482 244.716L385.271 224.578L372.636 232.475L362.765 238.793V262.879Z" fill="#FCDCD7"/>
<path d="M271.554 199.446V194.416L240.361 212.425V250.726L244.704 248.664V214.948L271.554 199.446Z" fill="#EF5237" fill-opacity="0.4"/>
<path d="M282.215 200.586L286.558 203.094V189.677L313.408 174.176V169.145L282.215 187.155V200.586Z" fill="#EF5237" fill-opacity="0.4"/>
<path d="M177.54 235.368L271.559 291.488C273.574 292.691 276.09 292.677 278.092 291.453L383.76 225.732C384.686 225.166 385.186 224.243 385.261 223.292L385.271 223C385.259 221.961 384.744 220.927 383.728 220.322L348.945 201.677V212.338L365.428 221.055C367.045 221.915 367.115 224.207 365.553 225.165L278.325 278.675C276.344 279.89 273.854 279.919 271.845 278.75L196.039 234.648C194.484 233.742 194.466 231.501 196.007 230.571L209.168 222.999V211.548L177.556 229.934C176.525 230.541 176.006 231.588 176 232.637V232.675C176.006 233.718 176.519 234.759 177.54 235.368Z" fill="white"/>
<path d="M196.039 234.648L271.845 278.75C273.854 279.919 276.344 279.89 278.325 278.675L365.553 225.165C367.115 224.207 367.045 221.915 365.428 221.055L348.945 212.338V226.399L317.752 245.987L307.091 239.977V251.669L275.897 271.258L244.704 253.249V248.664L240.361 250.726L209.168 232.716V222.999L196.007 230.571C194.466 231.501 194.484 233.742 196.039 234.648Z" fill="#F9BAAF"/>
<path d="M209.168 194.416V211.548V222.999V232.716L240.361 250.726V212.425L209.168 194.416Z" fill="white"/>
<path d="M271.554 194.416L251.022 182.561L240.361 176.406L209.168 194.416L240.361 212.425L271.554 194.416Z" fill="white"/>
<path d="M307.091 214.948L286.558 203.094L282.215 200.586L275.897 196.939L271.554 199.446L244.704 214.948L275.897 232.957L307.091 214.948Z" fill="white"/>
<path d="M244.704 214.948V248.664V253.249L275.897 271.258V232.957L244.704 214.948Z" fill="white"/>
<path d="M275.897 271.258L307.091 251.669V239.977V214.948L275.897 232.957V271.258Z" fill="#F3A193"/>
<path d="M307.091 214.948V239.977L317.752 245.987V207.687L286.558 189.677V203.094L307.091 214.948Z" fill="white"/>
<path d="M317.752 245.987L348.945 226.399V212.338V201.677V189.677L317.752 207.687V245.987Z" fill="#F29181"/>
<path d="M271.554 194.416V199.446L275.897 196.939L282.215 200.586V187.155L251.022 169.145V182.561L271.554 194.416Z" fill="white"/>
<path d="M313.408 169.145L282.215 151.136L251.022 169.145L282.215 187.155L313.408 169.145Z" fill="white"/>
<path d="M348.945 189.677L317.752 171.668L313.408 174.176L286.558 189.677L317.752 207.687L348.945 189.677Z" fill="white"/>
<path d="M176 232.637C176.006 231.588 176.525 230.541 177.556 229.934L209.168 211.548M176 232.637V232.675M176 232.637C176 232.65 176 232.662 176 232.675M385.271 223C385.259 221.961 384.744 220.927 383.728 220.322L348.945 201.677M385.271 223L385.261 223.292M385.271 223C385.272 223.098 385.269 223.195 385.261 223.292M209.168 194.416V232.716M209.168 194.416L240.361 176.406M209.168 194.416L240.361 212.425M209.168 194.416V211.548M209.168 232.716L240.361 250.726M209.168 232.716V222.999M240.361 250.726V212.425M240.361 250.726L244.704 248.664M271.554 199.446V194.416M271.554 199.446L244.704 214.948M271.554 199.446L275.897 196.939M271.554 194.416L240.361 176.406M271.554 194.416L240.361 212.425M271.554 194.416L251.022 182.561M240.361 176.406L251.022 182.561M244.704 214.948V253.249M244.704 214.948L275.897 196.939M244.704 214.948L275.897 232.957M244.704 214.948V248.664M244.704 253.249L275.897 271.258M244.704 253.249V248.664M275.897 271.258L307.091 251.669M275.897 271.258V232.957M307.091 251.669V214.948M307.091 251.669V239.977M307.091 214.948L275.897 196.939M307.091 214.948L275.897 232.957M307.091 214.948L286.558 203.094M307.091 214.948V239.977M275.897 196.939L282.215 200.586M286.558 189.677V203.094M286.558 189.677L317.752 171.668M286.558 189.677L317.752 207.687M286.558 189.677L313.408 174.176M286.558 203.094L282.215 200.586M317.752 245.987L348.945 226.399M317.752 245.987V207.687M317.752 245.987L307.091 239.977M348.945 226.399V189.677M348.945 226.399V212.338M348.945 189.677L317.752 171.668M348.945 189.677L317.752 207.687M348.945 189.677V201.677M317.752 171.668L313.408 174.176M209.168 222.999L196.007 230.571C194.466 231.501 194.484 233.742 196.039 234.648L271.845 278.75C273.854 279.919 276.344 279.89 278.325 278.675L365.553 225.165C367.115 224.207 367.045 221.915 365.428 221.055L348.945 212.338M209.168 222.999V211.548M348.945 212.338V201.677M313.408 174.176V169.145M313.408 169.145L282.215 151.136L251.022 169.145M313.408 169.145L282.215 187.155M282.215 187.155V200.586M282.215 187.155L251.022 169.145M251.022 169.145V182.561M385.261 223.292C385.186 224.243 384.686 225.166 383.76 225.732L278.092 291.453C276.09 292.677 273.574 292.691 271.559 291.488L177.54 235.368C176.519 234.759 176.006 233.718 176 232.675M385.261 223.292L384.447 247.277C384.392 248.881 383.529 250.349 382.153 251.176L280.179 312.508C276.242 314.876 271.329 314.92 267.349 312.622L178.369 261.25C176.903 260.403 176 258.839 176 257.146V232.675" stroke="#EF5237" stroke-width="0.789703"/>
<rect x="273.924" y="294.071" width="0.789703" height="18.1632" rx="0.394851" fill="#EF5237"/>
<path d="M195.348 234.448L194.953 232.473V99.0137L275.305 146.396L366.714 99.0137V222.997V223.787L365.924 224.971L278.662 278.276L276.293 279.461H275.305H274.318L272.344 279.066L195.348 234.448Z" fill="#EF5237" fill-opacity="0.2"/>
<path d="M190.213 128.241V118.37L267.209 164.497V172.465L190.213 128.241Z" fill="#F9BAAF"/>
<path d="M375.4 121.522V112.44L290.507 164.885V174.037L375.4 121.522Z" fill="#F9BAAF"/>
<path d="M267.211 172.457V164.56L275.898 169.693L279.056 170.877L283.005 169.693L290.507 164.954V174.036L286.559 176.405L283.005 177.985H279.056L276.293 177.59L272.739 176.01L267.211 172.457Z" fill="#F59787"/>
<path d="M181.133 122.312L180.738 112.44L190.215 118.758V128.234L181.133 122.312Z" fill="#FCDCD7"/>
<path d="M373.031 122.707L377.375 119.943L384.482 115.6L388.43 112.441L389.22 110.862V108.098L390.01 102.965L377.374 110.862L373.031 113.626V122.707Z" fill="#FCDCD7"/>
<path d="M180.738 111.122C180.745 110.073 181.264 109.026 182.294 108.419L286.045 46.1899C288.032 45.0197 290.499 45.0257 292.481 46.2053L388.467 98.8077C389.483 99.4124 389.998 100.446 390.01 101.486M180.738 111.122V111.16M180.738 111.122C180.738 111.135 180.738 111.148 180.738 111.16M390.01 101.486L389.96 102.086M390.01 101.486C390.012 101.686 389.995 101.887 389.96 102.086M180.738 111.16C180.744 112.204 181.257 113.244 182.278 113.854L276.297 169.973C278.312 171.176 280.828 171.163 282.831 169.938L388.499 104.217C389.324 103.712 389.811 102.925 389.96 102.086M180.738 111.16V119.84C180.738 121.532 181.64 123.095 183.104 123.942L274.056 176.55C278.104 178.891 283.115 178.805 287.081 176.326L387.083 113.8C388.351 113.008 389.17 111.663 389.293 110.172L389.96 102.086M290.522 50.5464L380.934 100.83C381.461 101.123 381.478 101.876 380.964 102.193L288.967 158.827C287.971 159.44 286.718 159.453 285.71 158.86L196.495 106.403C195.978 106.099 195.975 105.353 196.489 105.045L287.363 50.5973C288.331 50.0172 289.535 49.9978 290.522 50.5464Z" stroke="#EF5237" stroke-width="0.789703"/>
<circle cx="3.55366" cy="3.55366" r="3.55366" transform="matrix(0.939693 0.34202 -0.5 0.866025 232.465 131.39)" fill="#EF5237" fill-opacity="0.8"/>
<path d="M224.961 144.781V143.17C224.961 142.858 225.306 142.669 225.568 142.837L232.014 146.955C232.241 147.1 232.378 147.351 232.378 147.62V149.231C232.378 149.542 232.033 149.731 231.771 149.563L225.326 145.446C225.098 145.301 224.961 145.05 224.961 144.781Z" fill="white" stroke="#EF5237" stroke-width="0.789703"/>
</svg>
