<svg width="550" height="450" viewBox="0 0 550 450" fill="none" xmlns="http://www.w3.org/2000/svg">
<rect width="550" height="450" rx="16" fill="#F4F2F0"/>
<rect opacity="0.8" x="110" y="345.898" width="332" height="63" rx="12" fill="white"/>
<rect opacity="0.8" x="110" y="42.8984" width="332" height="63" rx="12" fill="white"/>
<g filter="url(#filter0_d_2200_4884)">
<g clip-path="url(#clip0_2200_4884)">
<rect x="85" y="66.3984" width="380" height="318" rx="16" fill="white"/>
<path d="M101.328 91.5459V90.2129H109.333V91.5459H106.1V100.398H104.575V91.5459H101.328ZM111.138 100.515C110.418 100.515 109.821 100.332 109.347 99.9678C108.873 99.5986 108.636 99.054 108.636 98.334C108.636 97.7871 108.77 97.3678 109.039 97.0762C109.312 96.7799 109.666 96.568 110.099 96.4404C110.536 96.3128 110.999 96.2194 111.486 96.1602C111.938 96.1055 112.295 96.0599 112.56 96.0234C112.824 95.987 113.011 95.9323 113.12 95.8594C113.234 95.7865 113.291 95.6611 113.291 95.4834V95.4219C113.291 95.071 113.163 94.7839 112.908 94.5605C112.653 94.3327 112.295 94.2188 111.835 94.2188C111.375 94.2188 110.999 94.3304 110.707 94.5537C110.415 94.7725 110.256 95.0482 110.229 95.3809H108.813C108.845 94.6927 109.135 94.1299 109.682 93.6924C110.229 93.2549 110.953 93.0361 111.855 93.0361C112.744 93.0361 113.444 93.2549 113.954 93.6924C114.465 94.1299 114.72 94.7155 114.72 95.4492V100.398H113.298V99.373H113.271C113.12 99.6647 112.881 99.929 112.553 100.166C112.229 100.398 111.757 100.515 111.138 100.515ZM111.432 99.3525C112.07 99.3525 112.539 99.1885 112.84 98.8604C113.145 98.5277 113.298 98.1403 113.298 97.6982V96.8506C113.202 96.9281 112.986 96.9987 112.648 97.0625C112.311 97.1217 111.951 97.1787 111.568 97.2334C111.172 97.2926 110.823 97.4043 110.522 97.5684C110.222 97.7324 110.071 97.9967 110.071 98.3613C110.071 98.6712 110.192 98.915 110.434 99.0928C110.68 99.266 111.012 99.3525 111.432 99.3525ZM120.011 100.542C119.541 100.542 119.111 100.439 118.719 100.234C118.331 100.029 118.017 99.7171 117.775 99.2979H117.762V100.398H116.347V90.2129H117.789V94.2256H117.803C118.035 93.8245 118.345 93.526 118.732 93.3301C119.12 93.1341 119.548 93.0361 120.018 93.0361C120.637 93.0361 121.182 93.1956 121.651 93.5146C122.121 93.8291 122.485 94.2689 122.745 94.834C123.009 95.3945 123.142 96.0462 123.142 96.7891C123.142 97.5319 123.012 98.1859 122.752 98.751C122.492 99.3115 122.128 99.7513 121.658 100.07C121.189 100.385 120.64 100.542 120.011 100.542ZM119.717 99.2979C120.3 99.2979 120.772 99.0837 121.132 98.6553C121.496 98.2269 121.679 97.6048 121.679 96.7891C121.679 95.9733 121.496 95.3512 121.132 94.9229C120.772 94.4899 120.3 94.2734 119.717 94.2734C119.102 94.2734 118.609 94.5036 118.24 94.9639C117.876 95.4196 117.693 96.028 117.693 96.7891C117.693 97.5456 117.876 98.154 118.24 98.6143C118.609 99.07 119.102 99.2979 119.717 99.2979ZM125.855 90.2129V100.398H124.413V90.2129H125.855ZM130.572 100.562C129.857 100.562 129.242 100.401 128.727 100.077C128.216 99.7536 127.822 99.3092 127.544 98.7441C127.271 98.1745 127.134 97.5273 127.134 96.8027C127.134 96.069 127.277 95.4173 127.564 94.8477C127.852 94.278 128.248 93.8314 128.754 93.5078C129.26 93.1797 129.841 93.0156 130.497 93.0156C131.181 93.0156 131.773 93.1751 132.274 93.4941C132.78 93.8132 133.172 94.2575 133.45 94.8271C133.728 95.3923 133.867 96.0462 133.867 96.7891V97.1787H128.556C128.583 97.8304 128.77 98.3568 129.116 98.7578C129.467 99.1589 129.959 99.3594 130.593 99.3594C131.067 99.3594 131.456 99.2523 131.762 99.0381C132.067 98.8239 132.27 98.5459 132.37 98.2041H133.758C133.671 98.6689 133.478 99.0791 133.177 99.4346C132.881 99.79 132.507 100.068 132.056 100.269C131.609 100.465 131.115 100.562 130.572 100.562ZM128.569 96.085H132.459C132.4 95.5107 132.197 95.0573 131.851 94.7246C131.504 94.3874 131.058 94.2188 130.511 94.2188C129.964 94.2188 129.517 94.3874 129.171 94.7246C128.829 95.0573 128.629 95.5107 128.569 96.085ZM141.913 90.2129V100.398H140.443V91.7031H140.437L137.948 93.3301V91.8809L140.484 90.2129H141.913ZM143.417 100.398V99.1953L147.081 95.9277C147.468 95.5768 147.792 95.2624 148.052 94.9844C148.312 94.7018 148.505 94.4238 148.633 94.1504C148.765 93.877 148.831 93.5693 148.831 93.2275C148.831 92.6488 148.658 92.1908 148.312 91.8535C147.965 91.5117 147.493 91.3408 146.896 91.3408C146.249 91.3408 145.746 91.5413 145.386 91.9424C145.026 92.3434 144.846 92.888 144.846 93.5762H143.431C143.431 92.8789 143.572 92.266 143.854 91.7373C144.142 91.2087 144.543 90.7962 145.058 90.5C145.577 90.1992 146.188 90.0488 146.89 90.0488C147.546 90.0488 148.127 90.181 148.633 90.4453C149.139 90.7051 149.535 91.0697 149.822 91.5391C150.114 92.0039 150.26 92.5439 150.26 93.1592C150.26 93.8382 150.073 94.4512 149.699 94.998C149.326 95.5404 148.772 96.1396 148.038 96.7959L145.481 99.0928V99.1064H150.314V100.398H143.417ZM157.561 97.4932C157.155 97.4932 156.786 97.3952 156.453 97.1992C156.125 96.9987 155.863 96.7344 155.667 96.4062C155.471 96.0736 155.373 95.7067 155.373 95.3057C155.373 94.9001 155.471 94.5332 155.667 94.2051C155.863 93.8724 156.125 93.6081 156.453 93.4121C156.786 93.2161 157.155 93.1182 157.561 93.1182C157.962 93.1182 158.326 93.2161 158.654 93.4121C158.987 93.6081 159.251 93.8724 159.447 94.2051C159.648 94.5332 159.748 94.9001 159.748 95.3057C159.748 95.7067 159.648 96.0736 159.447 96.4062C159.251 96.7344 158.987 96.9987 158.654 97.1992C158.326 97.3952 157.962 97.4932 157.561 97.4932ZM168.457 100.398H165.162V90.2129H168.56C169.558 90.2129 170.417 90.418 171.137 90.8281C171.861 91.2383 172.417 91.8239 172.805 92.585C173.192 93.3415 173.386 94.2438 173.386 95.292C173.386 96.3447 173.19 97.2539 172.798 98.0195C172.41 98.7806 171.848 99.3685 171.109 99.7832C170.376 100.193 169.492 100.398 168.457 100.398ZM166.68 99.0791H168.361C169.551 99.0791 170.43 98.7441 171 98.0742C171.574 97.4043 171.861 96.4769 171.861 95.292C171.861 94.1117 171.579 93.1911 171.014 92.5303C170.449 91.8649 169.599 91.5322 168.464 91.5322H166.68V99.0791ZM174.753 100.398V93.1797H176.195V100.398H174.753ZM175.471 91.9355C175.215 91.9355 174.999 91.8512 174.821 91.6826C174.648 91.5094 174.562 91.2998 174.562 91.0537C174.562 90.8031 174.648 90.5934 174.821 90.4248C174.999 90.2516 175.215 90.165 175.471 90.165C175.726 90.165 175.942 90.2516 176.12 90.4248C176.298 90.5934 176.387 90.8031 176.387 91.0537C176.387 91.2998 176.298 91.5094 176.12 91.6826C175.942 91.8512 175.726 91.9355 175.471 91.9355ZM179.271 96.2422V100.398H177.829V93.1797H179.244V94.2666C179.736 93.4463 180.463 93.0361 181.425 93.0361C181.922 93.0361 182.366 93.1455 182.758 93.3643C183.154 93.5785 183.466 93.8975 183.694 94.3213C183.922 94.7451 184.036 95.2715 184.036 95.9004V100.398H182.594V96.0781C182.594 95.4993 182.455 95.0641 182.177 94.7725C181.899 94.4762 181.511 94.3281 181.015 94.3281C180.522 94.3281 180.108 94.4808 179.771 94.7861C179.438 95.0869 179.271 95.5723 179.271 96.2422ZM188.746 100.562C188.031 100.562 187.415 100.401 186.9 100.077C186.39 99.7536 185.996 99.3092 185.718 98.7441C185.444 98.1745 185.308 97.5273 185.308 96.8027C185.308 96.069 185.451 95.4173 185.738 94.8477C186.025 94.278 186.422 93.8314 186.928 93.5078C187.434 93.1797 188.015 93.0156 188.671 93.0156C189.354 93.0156 189.947 93.1751 190.448 93.4941C190.954 93.8132 191.346 94.2575 191.624 94.8271C191.902 95.3923 192.041 96.0462 192.041 96.7891V97.1787H186.729C186.757 97.8304 186.944 98.3568 187.29 98.7578C187.641 99.1589 188.133 99.3594 188.767 99.3594C189.241 99.3594 189.63 99.2523 189.936 99.0381C190.241 98.8239 190.444 98.5459 190.544 98.2041H191.932C191.845 98.6689 191.651 99.0791 191.351 99.4346C191.054 99.79 190.681 100.068 190.229 100.269C189.783 100.465 189.288 100.562 188.746 100.562ZM186.743 96.085H190.633C190.574 95.5107 190.371 95.0573 190.024 94.7246C189.678 94.3874 189.231 94.2188 188.685 94.2188C188.138 94.2188 187.691 94.3874 187.345 94.7246C187.003 95.0573 186.802 95.5107 186.743 96.085ZM198.262 90.2129V100.398H196.744V90.2129H198.262ZM201.447 96.2422V100.398H200.005V93.1797H201.42V94.2666C201.912 93.4463 202.639 93.0361 203.601 93.0361C204.097 93.0361 204.542 93.1455 204.934 93.3643C205.33 93.5785 205.642 93.8975 205.87 94.3213C206.098 94.7451 206.212 95.2715 206.212 95.9004V100.398H204.77V96.0781C204.77 95.4993 204.631 95.0641 204.353 94.7725C204.075 94.4762 203.687 94.3281 203.19 94.3281C202.698 94.3281 202.284 94.4808 201.946 94.7861C201.614 95.0869 201.447 95.5723 201.447 96.2422Z" fill="#333333"/>
<rect x="216" y="82.3984" width="35" height="25" rx="8" fill="black" fill-opacity="0.06"/>
<path d="M226.272 90.2129V100.398H224.803V91.7031H224.796L222.308 93.3301V91.8809L224.844 90.2129H226.272ZM231.591 100.562C230.802 100.562 230.121 100.348 229.547 99.9199C228.977 99.4915 228.537 98.8854 228.228 98.1016C227.918 97.3132 227.763 96.3835 227.763 95.3125C227.763 94.237 227.918 93.305 228.228 92.5166C228.537 91.7282 228.977 91.1198 229.547 90.6914C230.121 90.263 230.802 90.0488 231.591 90.0488C232.375 90.0488 233.051 90.263 233.621 90.6914C234.195 91.1198 234.637 91.7282 234.947 92.5166C235.257 93.305 235.412 94.237 235.412 95.3125C235.412 96.3835 235.257 97.3132 234.947 98.1016C234.637 98.8854 234.195 99.4915 233.621 99.9199C233.051 100.348 232.375 100.562 231.591 100.562ZM231.591 99.2705C232.329 99.2705 232.91 98.9196 233.334 98.2178C233.762 97.5114 233.977 96.543 233.977 95.3125C233.977 94.0775 233.762 93.1068 233.334 92.4004C232.91 91.694 232.329 91.3408 231.591 91.3408C230.848 91.3408 230.262 91.694 229.834 92.4004C229.41 93.1068 229.198 94.0775 229.198 95.3125C229.198 96.543 229.41 97.5114 229.834 98.2178C230.262 98.9196 230.848 99.2705 231.591 99.2705ZM236.342 98.0264V96.8096L241.086 90.2129H242.945V96.7549H244.429V98.0264H242.945V100.398H241.503V98.0264H236.342ZM241.503 96.7549V91.8057H241.489L237.948 96.7412V96.7549H241.503Z" fill="#333333"/>
<path d="M419.338 100.562C418.55 100.562 417.868 100.348 417.294 99.9199C416.725 99.4915 416.285 98.8854 415.975 98.1016C415.665 97.3132 415.51 96.3835 415.51 95.3125C415.51 94.237 415.665 93.305 415.975 92.5166C416.285 91.7282 416.725 91.1198 417.294 90.6914C417.868 90.263 418.55 90.0488 419.338 90.0488C420.122 90.0488 420.799 90.263 421.368 90.6914C421.943 91.1198 422.385 91.7282 422.695 92.5166C423.005 93.305 423.16 94.237 423.16 95.3125C423.16 96.3835 423.005 97.3132 422.695 98.1016C422.385 98.8854 421.943 99.4915 421.368 99.9199C420.799 100.348 420.122 100.562 419.338 100.562ZM419.338 99.2705C420.077 99.2705 420.658 98.9196 421.081 98.2178C421.51 97.5114 421.724 96.543 421.724 95.3125C421.724 94.0775 421.51 93.1068 421.081 92.4004C420.658 91.694 420.077 91.3408 419.338 91.3408C418.595 91.3408 418.01 91.694 417.581 92.4004C417.158 93.1068 416.946 94.0775 416.946 95.3125C416.946 96.543 417.158 97.5114 417.581 98.2178C418.01 98.9196 418.595 99.2705 419.338 99.2705ZM424.089 98.0264V96.8096L428.833 90.2129H430.693V96.7549H432.176V98.0264H430.693V100.398H429.25V98.0264H424.089ZM429.25 96.7549V91.8057H429.237L425.696 96.7412V96.7549H429.25ZM434.145 98.8467C433.881 98.8467 433.655 98.7555 433.468 98.5732C433.286 98.3864 433.195 98.1585 433.195 97.8896C433.195 97.6253 433.286 97.3997 433.468 97.2129C433.655 97.026 433.881 96.9326 434.145 96.9326C434.414 96.9326 434.639 97.026 434.822 97.2129C435.008 97.3997 435.102 97.6253 435.102 97.8896C435.102 98.1585 435.008 98.3864 434.822 98.5732C434.639 98.7555 434.414 98.8467 434.145 98.8467ZM434.145 93.6787C433.881 93.6787 433.655 93.5876 433.468 93.4053C433.286 93.2184 433.195 92.9906 433.195 92.7217C433.195 92.4574 433.286 92.2318 433.468 92.0449C433.655 91.8581 433.881 91.7646 434.145 91.7646C434.414 91.7646 434.639 91.8581 434.822 92.0449C435.008 92.2318 435.102 92.4574 435.102 92.7217C435.102 92.9906 435.008 93.2184 434.822 93.4053C434.639 93.5876 434.414 93.6787 434.145 93.6787ZM436.319 100.398V99.1953L439.983 95.9277C440.37 95.5768 440.694 95.2624 440.953 94.9844C441.213 94.7018 441.407 94.4238 441.535 94.1504C441.667 93.877 441.733 93.5693 441.733 93.2275C441.733 92.6488 441.56 92.1908 441.213 91.8535C440.867 91.5117 440.395 91.3408 439.798 91.3408C439.151 91.3408 438.647 91.5413 438.287 91.9424C437.927 92.3434 437.747 92.888 437.747 93.5762H436.332C436.332 92.8789 436.474 92.266 436.756 91.7373C437.043 91.2087 437.444 90.7962 437.959 90.5C438.479 90.1992 439.09 90.0488 439.791 90.0488C440.448 90.0488 441.029 90.181 441.535 90.4453C442.04 90.7051 442.437 91.0697 442.724 91.5391C443.016 92.0039 443.161 92.5439 443.161 93.1592C443.161 93.8382 442.975 94.4512 442.601 94.998C442.227 95.5404 441.674 96.1396 440.94 96.7959L438.383 99.0928V99.1064H443.216V100.398H436.319ZM448.063 90.2129V100.398H446.593V91.7031H446.586L444.098 93.3301V91.8809L446.634 90.2129H448.063Z" fill="#333333"/>
<path d="M97 123.398H453" stroke="#E5E5E5"/>
<rect x="101.5" y="139.898" width="27" height="27" rx="7.5" fill="white"/>
<rect x="101.5" y="139.898" width="27" height="27" rx="7.5" stroke="#E5E5E5"/>
<path d="M116.272 148.713V158.898H114.803V150.203H114.796L112.308 151.83V150.381L114.844 148.713H116.272Z" fill="#666666"/>
<path d="M143.797 147.758V159.398H142.062V147.758H143.797ZM149.32 159.586C148.534 159.586 147.844 159.404 147.25 159.039C146.661 158.674 146.203 158.169 145.875 157.523C145.547 156.872 145.383 156.128 145.383 155.289C145.383 154.44 145.547 153.69 145.875 153.039C146.208 152.388 146.669 151.88 147.258 151.516C147.846 151.146 148.534 150.961 149.32 150.961C149.977 150.961 150.562 151.091 151.078 151.352C151.599 151.607 152.021 151.961 152.344 152.414C152.667 152.867 152.862 153.385 152.93 153.969H151.289C151.206 153.505 150.997 153.125 150.664 152.828C150.331 152.531 149.885 152.383 149.328 152.383C148.615 152.383 148.057 152.646 147.656 153.172C147.255 153.698 147.055 154.404 147.055 155.289C147.055 156.164 147.255 156.862 147.656 157.383C148.057 157.904 148.615 158.164 149.328 158.164C149.896 158.164 150.333 158.021 150.641 157.734C150.948 157.443 151.156 157.055 151.266 156.57H152.93C152.867 157.143 152.674 157.659 152.352 158.117C152.029 158.57 151.607 158.93 151.086 159.195C150.565 159.456 149.977 159.586 149.32 159.586ZM157.859 159.586C157.042 159.586 156.339 159.401 155.75 159.031C155.167 158.661 154.716 158.154 154.398 157.508C154.086 156.857 153.93 156.117 153.93 155.289C153.93 154.451 154.094 153.706 154.422 153.055C154.75 152.404 155.203 151.893 155.781 151.523C156.359 151.148 157.023 150.961 157.773 150.961C158.555 150.961 159.232 151.143 159.805 151.508C160.383 151.872 160.831 152.38 161.148 153.031C161.466 153.677 161.625 154.424 161.625 155.273V155.719H155.555C155.586 156.464 155.799 157.065 156.195 157.523C156.596 157.982 157.159 158.211 157.883 158.211C158.424 158.211 158.87 158.089 159.219 157.844C159.568 157.599 159.799 157.281 159.914 156.891H161.5C161.401 157.422 161.18 157.891 160.836 158.297C160.497 158.703 160.07 159.021 159.555 159.25C159.044 159.474 158.479 159.586 157.859 159.586ZM155.57 154.469H160.016C159.948 153.812 159.716 153.294 159.32 152.914C158.924 152.529 158.414 152.336 157.789 152.336C157.164 152.336 156.654 152.529 156.258 152.914C155.867 153.294 155.638 153.812 155.57 154.469ZM166.227 159.562C165.508 159.562 164.88 159.383 164.344 159.023C163.807 158.659 163.391 158.156 163.094 157.516C162.797 156.87 162.648 156.122 162.648 155.273C162.648 154.424 162.797 153.68 163.094 153.039C163.396 152.393 163.815 151.891 164.352 151.531C164.888 151.167 165.51 150.984 166.219 150.984C166.755 150.984 167.245 151.096 167.688 151.32C168.13 151.544 168.484 151.885 168.75 152.344H168.766V147.758H170.414V159.398H168.797V158.141H168.781C168.505 158.62 168.143 158.977 167.695 159.211C167.253 159.445 166.763 159.562 166.227 159.562ZM166.562 158.141C167.266 158.141 167.826 157.88 168.242 157.359C168.664 156.833 168.875 156.138 168.875 155.273C168.875 154.404 168.664 153.708 168.242 153.188C167.826 152.661 167.266 152.398 166.562 152.398C165.896 152.398 165.354 152.646 164.938 153.141C164.526 153.63 164.32 154.341 164.32 155.273C164.32 156.206 164.526 156.917 164.938 157.406C165.354 157.896 165.896 158.141 166.562 158.141ZM179.508 159.398L175.281 147.758H177.148L179.453 154.32C179.594 154.742 179.755 155.24 179.938 155.812C180.12 156.385 180.333 157.055 180.578 157.82C180.812 157.055 181.018 156.385 181.195 155.812C181.378 155.24 181.539 154.742 181.68 154.32L183.922 147.758H185.758L181.594 159.398H179.508ZM190.266 159.586C188.922 159.586 187.88 159.099 187.141 158.125C186.406 157.151 186.039 155.779 186.039 154.008C186.039 152.711 186.198 151.581 186.516 150.617C186.833 149.654 187.315 148.906 187.961 148.375C188.612 147.839 189.432 147.57 190.422 147.57C191.13 147.57 191.753 147.706 192.289 147.977C192.831 148.242 193.266 148.615 193.594 149.094C193.922 149.573 194.12 150.125 194.188 150.75H192.523C192.424 150.224 192.198 149.805 191.844 149.492C191.495 149.18 191.036 149.023 190.469 149.023C189.839 149.023 189.315 149.203 188.898 149.562C188.487 149.922 188.18 150.417 187.977 151.047C187.773 151.677 187.672 152.404 187.672 153.227H187.688C187.958 152.779 188.349 152.427 188.859 152.172C189.375 151.911 189.943 151.781 190.562 151.781C191.276 151.781 191.914 151.951 192.477 152.289C193.039 152.622 193.482 153.081 193.805 153.664C194.133 154.247 194.297 154.909 194.297 155.648C194.297 156.424 194.125 157.109 193.781 157.703C193.438 158.292 192.961 158.753 192.352 159.086C191.747 159.419 191.052 159.586 190.266 159.586ZM190.258 158.125C190.701 158.125 191.099 158.016 191.453 157.797C191.812 157.573 192.096 157.276 192.305 156.906C192.518 156.531 192.625 156.112 192.625 155.648C192.625 155.19 192.523 154.779 192.32 154.414C192.117 154.044 191.839 153.753 191.484 153.539C191.135 153.32 190.74 153.211 190.297 153.211C189.854 153.211 189.451 153.32 189.086 153.539C188.727 153.758 188.44 154.052 188.227 154.422C188.013 154.792 187.906 155.206 187.906 155.664C187.906 156.117 188.01 156.531 188.219 156.906C188.432 157.276 188.716 157.573 189.07 157.797C189.43 158.016 189.826 158.125 190.258 158.125ZM199.945 159.586C199.044 159.586 198.266 159.341 197.609 158.852C196.958 158.362 196.456 157.669 196.102 156.773C195.747 155.872 195.57 154.81 195.57 153.586C195.57 152.357 195.747 151.292 196.102 150.391C196.456 149.49 196.958 148.794 197.609 148.305C198.266 147.815 199.044 147.57 199.945 147.57C200.841 147.57 201.615 147.815 202.266 148.305C202.922 148.794 203.427 149.49 203.781 150.391C204.135 151.292 204.312 152.357 204.312 153.586C204.312 154.81 204.135 155.872 203.781 156.773C203.427 157.669 202.922 158.362 202.266 158.852C201.615 159.341 200.841 159.586 199.945 159.586ZM199.945 158.109C200.789 158.109 201.453 157.708 201.938 156.906C202.427 156.099 202.672 154.992 202.672 153.586C202.672 152.174 202.427 151.065 201.938 150.258C201.453 149.451 200.789 149.047 199.945 149.047C199.096 149.047 198.427 149.451 197.938 150.258C197.453 151.065 197.211 152.174 197.211 153.586C197.211 154.992 197.453 156.099 197.938 156.906C198.427 157.708 199.096 158.109 199.945 158.109ZM214.828 159.586C213.76 159.586 212.818 159.333 212 158.828C211.182 158.323 210.544 157.62 210.086 156.719C209.628 155.818 209.398 154.773 209.398 153.586C209.398 152.388 209.628 151.339 210.086 150.438C210.544 149.536 211.18 148.833 211.992 148.328C212.81 147.823 213.755 147.57 214.828 147.57C215.677 147.57 216.445 147.737 217.133 148.07C217.826 148.404 218.398 148.875 218.852 149.484C219.305 150.089 219.599 150.805 219.734 151.633H217.969C217.797 150.841 217.43 150.232 216.867 149.805C216.31 149.372 215.635 149.156 214.844 149.156C214.078 149.156 213.419 149.341 212.867 149.711C212.315 150.081 211.888 150.599 211.586 151.266C211.289 151.932 211.141 152.706 211.141 153.586C211.141 154.466 211.289 155.237 211.586 155.898C211.883 156.56 212.307 157.076 212.859 157.445C213.417 157.815 214.078 158 214.844 158C215.63 158 216.302 157.786 216.859 157.359C217.422 156.932 217.794 156.326 217.977 155.539H219.734C219.599 156.362 219.305 157.078 218.852 157.688C218.398 158.292 217.826 158.76 217.133 159.094C216.445 159.422 215.677 159.586 214.828 159.586ZM224.82 159.586C224.034 159.586 223.344 159.404 222.75 159.039C222.156 158.674 221.693 158.169 221.359 157.523C221.031 156.878 220.867 156.133 220.867 155.289C220.867 154.435 221.031 153.685 221.359 153.039C221.693 152.388 222.156 151.88 222.75 151.516C223.344 151.146 224.034 150.961 224.82 150.961C225.607 150.961 226.294 151.146 226.883 151.516C227.477 151.88 227.938 152.388 228.266 153.039C228.599 153.685 228.766 154.435 228.766 155.289C228.766 156.133 228.599 156.878 228.266 157.523C227.938 158.169 227.477 158.674 226.883 159.039C226.294 159.404 225.607 159.586 224.82 159.586ZM224.82 158.164C225.529 158.164 226.086 157.904 226.492 157.383C226.898 156.862 227.102 156.164 227.102 155.289C227.102 154.404 226.896 153.698 226.484 153.172C226.078 152.646 225.523 152.383 224.82 152.383C224.117 152.383 223.56 152.646 223.148 153.172C222.742 153.693 222.539 154.398 222.539 155.289C222.539 156.169 222.742 156.87 223.148 157.391C223.555 157.906 224.112 158.164 224.82 158.164ZM231.875 147.758V159.398H230.227V147.758H231.875ZM237.289 159.586C236.503 159.586 235.812 159.404 235.219 159.039C234.625 158.674 234.161 158.169 233.828 157.523C233.5 156.878 233.336 156.133 233.336 155.289C233.336 154.435 233.5 153.685 233.828 153.039C234.161 152.388 234.625 151.88 235.219 151.516C235.812 151.146 236.503 150.961 237.289 150.961C238.076 150.961 238.763 151.146 239.352 151.516C239.945 151.88 240.406 152.388 240.734 153.039C241.068 153.685 241.234 154.435 241.234 155.289C241.234 156.133 241.068 156.878 240.734 157.523C240.406 158.169 239.945 158.674 239.352 159.039C238.763 159.404 238.076 159.586 237.289 159.586ZM237.289 158.164C237.997 158.164 238.555 157.904 238.961 157.383C239.367 156.862 239.57 156.164 239.57 155.289C239.57 154.404 239.365 153.698 238.953 153.172C238.547 152.646 237.992 152.383 237.289 152.383C236.586 152.383 236.029 152.646 235.617 153.172C235.211 153.693 235.008 154.398 235.008 155.289C235.008 156.169 235.211 156.87 235.617 157.391C236.023 157.906 236.581 158.164 237.289 158.164ZM242.695 159.398V151.148H244.297V152.531C244.552 152.021 244.898 151.635 245.336 151.375C245.773 151.115 246.247 150.984 246.758 150.984C247.32 150.984 247.812 151.128 248.234 151.414C248.661 151.701 248.961 152.065 249.133 152.508C249.357 152.06 249.695 151.695 250.148 151.414C250.607 151.128 251.141 150.984 251.75 150.984C252.26 150.984 252.724 151.096 253.141 151.32C253.557 151.544 253.888 151.878 254.133 152.32C254.378 152.758 254.5 153.307 254.5 153.969V159.398H252.844V154.109C252.844 153.521 252.68 153.094 252.352 152.828C252.023 152.562 251.635 152.43 251.188 152.43C250.635 152.43 250.201 152.602 249.883 152.945C249.565 153.284 249.406 153.716 249.406 154.242V159.398H247.781V154C247.781 153.526 247.628 153.146 247.32 152.859C247.018 152.573 246.633 152.43 246.164 152.43C245.685 152.43 245.26 152.599 244.891 152.938C244.526 153.276 244.344 153.771 244.344 154.422V159.398H242.695ZM260.555 159.562C260.018 159.562 259.526 159.445 259.078 159.211C258.635 158.977 258.276 158.62 258 158.141H257.984V159.398H256.367V147.758H258.016V152.344H258.031C258.297 151.885 258.651 151.544 259.094 151.32C259.536 151.096 260.026 150.984 260.562 150.984C261.271 150.984 261.893 151.167 262.43 151.531C262.966 151.891 263.383 152.393 263.68 153.039C263.982 153.68 264.133 154.424 264.133 155.273C264.133 156.122 263.984 156.87 263.688 157.516C263.391 158.156 262.974 158.659 262.438 159.023C261.901 159.383 261.273 159.562 260.555 159.562ZM260.219 158.141C260.885 158.141 261.424 157.896 261.836 157.406C262.253 156.917 262.461 156.206 262.461 155.273C262.461 154.341 262.253 153.63 261.836 153.141C261.424 152.646 260.885 152.398 260.219 152.398C259.516 152.398 258.953 152.661 258.531 153.188C258.115 153.708 257.906 154.404 257.906 155.273C257.906 156.138 258.115 156.833 258.531 157.359C258.953 157.88 259.516 158.141 260.219 158.141ZM265.586 159.398V151.148H267.234V159.398H265.586ZM266.406 149.727C266.115 149.727 265.867 149.63 265.664 149.438C265.466 149.24 265.367 149 265.367 148.719C265.367 148.432 265.466 148.193 265.664 148C265.867 147.802 266.115 147.703 266.406 147.703C266.698 147.703 266.945 147.802 267.148 148C267.352 148.193 267.453 148.432 267.453 148.719C267.453 149 267.352 149.24 267.148 149.438C266.945 149.63 266.698 149.727 266.406 149.727ZM271.617 159.531C270.794 159.531 270.112 159.323 269.57 158.906C269.029 158.484 268.758 157.862 268.758 157.039C268.758 156.414 268.911 155.935 269.219 155.602C269.531 155.263 269.935 155.021 270.43 154.875C270.93 154.729 271.458 154.622 272.016 154.555C272.531 154.492 272.94 154.44 273.242 154.398C273.544 154.357 273.758 154.294 273.883 154.211C274.013 154.128 274.078 153.984 274.078 153.781V153.711C274.078 153.31 273.932 152.982 273.641 152.727C273.349 152.466 272.94 152.336 272.414 152.336C271.888 152.336 271.458 152.464 271.125 152.719C270.792 152.969 270.609 153.284 270.578 153.664H268.961C268.997 152.878 269.328 152.234 269.953 151.734C270.578 151.234 271.406 150.984 272.438 150.984C273.453 150.984 274.253 151.234 274.836 151.734C275.419 152.234 275.711 152.904 275.711 153.742V159.398H274.086V158.227H274.055C273.883 158.56 273.609 158.862 273.234 159.133C272.865 159.398 272.326 159.531 271.617 159.531ZM271.953 158.203C272.682 158.203 273.219 158.016 273.562 157.641C273.911 157.26 274.086 156.818 274.086 156.312V155.344C273.977 155.432 273.729 155.513 273.344 155.586C272.958 155.654 272.547 155.719 272.109 155.781C271.656 155.849 271.258 155.977 270.914 156.164C270.57 156.352 270.398 156.654 270.398 157.07C270.398 157.424 270.536 157.703 270.812 157.906C271.094 158.104 271.474 158.203 271.953 158.203Z" fill="#333333"/>
<rect x="362" y="139.398" width="87" height="29" rx="14.5" fill="#FFEDD5"/>
<path d="M378.621 159.562C377.4 159.562 376.436 159.255 375.729 158.64C375.028 158.02 374.677 157.172 374.677 156.097H376.194C376.199 156.767 376.413 157.291 376.837 157.669C377.265 158.047 377.86 158.236 378.621 158.236C379.314 158.236 379.868 158.09 380.282 157.799C380.701 157.503 380.911 157.106 380.911 156.609C380.911 156.217 380.761 155.901 380.46 155.659C380.164 155.413 379.662 155.206 378.956 155.037L377.842 154.771C376.812 154.524 376.06 154.183 375.586 153.745C375.117 153.303 374.882 152.729 374.882 152.022C374.882 151.425 375.032 150.904 375.333 150.457C375.634 150.01 376.055 149.664 376.598 149.418C377.145 149.172 377.783 149.049 378.512 149.049C379.61 149.049 380.483 149.336 381.13 149.91C381.782 150.484 382.123 151.268 382.155 152.262H380.686C380.649 151.674 380.435 151.214 380.043 150.881C379.651 150.544 379.134 150.375 378.491 150.375C377.876 150.375 377.372 150.523 376.98 150.819C376.589 151.111 376.393 151.487 376.393 151.947C376.393 152.316 376.543 152.617 376.844 152.85C377.145 153.077 377.644 153.276 378.341 153.444L379.441 153.704C380.462 153.946 381.214 154.294 381.697 154.75C382.185 155.206 382.429 155.798 382.429 156.527C382.429 157.138 382.271 157.671 381.957 158.127C381.643 158.583 381.201 158.936 380.631 159.187C380.061 159.437 379.391 159.562 378.621 159.562ZM387.234 152.18V153.369H385.771V157.491C385.771 157.76 385.826 157.947 385.936 158.052C386.045 158.157 386.243 158.209 386.53 158.209H387.234V159.398H386.325C384.99 159.398 384.322 158.824 384.322 157.676V153.369H383.051V152.18H384.322V150.211H385.771V152.18H387.234ZM390.755 159.515C390.035 159.515 389.438 159.332 388.964 158.968C388.49 158.599 388.253 158.054 388.253 157.334C388.253 156.787 388.387 156.368 388.656 156.076C388.93 155.78 389.283 155.568 389.716 155.44C390.153 155.313 390.616 155.219 391.104 155.16C391.555 155.105 391.912 155.06 392.177 155.023C392.441 154.987 392.628 154.932 392.737 154.859C392.851 154.786 392.908 154.661 392.908 154.483V154.422C392.908 154.071 392.781 153.784 392.525 153.561C392.27 153.333 391.912 153.219 391.452 153.219C390.992 153.219 390.616 153.33 390.324 153.554C390.033 153.772 389.873 154.048 389.846 154.381H388.431C388.463 153.693 388.752 153.13 389.299 152.692C389.846 152.255 390.57 152.036 391.473 152.036C392.361 152.036 393.061 152.255 393.571 152.692C394.082 153.13 394.337 153.715 394.337 154.449V159.398H392.915V158.373H392.888C392.737 158.665 392.498 158.929 392.17 159.166C391.846 159.398 391.375 159.515 390.755 159.515ZM391.049 158.353C391.687 158.353 392.156 158.188 392.457 157.86C392.762 157.528 392.915 157.14 392.915 156.698V155.851C392.819 155.928 392.603 155.999 392.266 156.062C391.928 156.122 391.568 156.179 391.186 156.233C390.789 156.293 390.44 156.404 390.14 156.568C389.839 156.732 389.688 156.997 389.688 157.361C389.688 157.671 389.809 157.915 390.051 158.093C390.297 158.266 390.63 158.353 391.049 158.353ZM395.964 159.398V152.18H397.345V153.349H397.372C397.504 152.952 397.712 152.645 397.994 152.426C398.281 152.202 398.655 152.091 399.115 152.091C399.225 152.091 399.325 152.095 399.416 152.104C399.507 152.114 399.582 152.12 399.642 152.125V153.472C399.587 153.458 399.489 153.444 399.348 153.431C399.206 153.412 399.051 153.403 398.883 153.403C398.477 153.403 398.129 153.545 397.837 153.827C397.55 154.11 397.406 154.545 397.406 155.133V159.398H395.964ZM404.447 152.18V153.369H402.984V157.491C402.984 157.76 403.039 157.947 403.148 158.052C403.258 158.157 403.456 158.209 403.743 158.209H404.447V159.398H403.538C402.203 159.398 401.535 158.824 401.535 157.676V153.369H400.264V152.18H401.535V150.211H402.984V152.18H404.447ZM409.041 159.398V149.213H412.814C413.904 149.213 414.767 149.498 415.405 150.067C416.043 150.637 416.362 151.41 416.362 152.385C416.362 153.036 416.214 153.602 415.918 154.08C415.622 154.554 415.205 154.921 414.667 155.181C414.129 155.436 413.496 155.563 412.767 155.563H410.559V159.398H409.041ZM410.559 154.251H412.739C413.396 154.251 413.913 154.085 414.291 153.752C414.674 153.415 414.865 152.959 414.865 152.385C414.865 151.811 414.674 151.359 414.291 151.031C413.913 150.699 413.396 150.532 412.739 150.532H410.559V154.251ZM417.47 159.398V152.18H418.851V153.349H418.878C419.01 152.952 419.217 152.645 419.5 152.426C419.787 152.202 420.161 152.091 420.621 152.091C420.73 152.091 420.831 152.095 420.922 152.104C421.013 152.114 421.088 152.12 421.147 152.125V153.472C421.093 153.458 420.995 153.444 420.854 153.431C420.712 153.412 420.557 153.403 420.389 153.403C419.983 153.403 419.634 153.545 419.343 153.827C419.056 154.11 418.912 154.545 418.912 155.133V159.398H417.47ZM425.201 159.562C424.486 159.562 423.87 159.401 423.355 159.077C422.845 158.754 422.451 158.309 422.173 157.744C421.899 157.174 421.763 156.527 421.763 155.803C421.763 155.069 421.906 154.417 422.193 153.848C422.48 153.278 422.877 152.831 423.383 152.508C423.889 152.18 424.47 152.016 425.126 152.016C425.81 152.016 426.402 152.175 426.903 152.494C427.409 152.813 427.801 153.257 428.079 153.827C428.357 154.392 428.496 155.046 428.496 155.789V156.179H423.185C423.212 156.83 423.399 157.357 423.745 157.758C424.096 158.159 424.588 158.359 425.222 158.359C425.696 158.359 426.085 158.252 426.391 158.038C426.696 157.824 426.899 157.546 426.999 157.204H428.387C428.3 157.669 428.106 158.079 427.806 158.435C427.509 158.79 427.136 159.068 426.685 159.269C426.238 159.465 425.743 159.562 425.201 159.562ZM423.198 155.085H427.088C427.029 154.511 426.826 154.057 426.479 153.725C426.133 153.387 425.687 153.219 425.14 153.219C424.593 153.219 424.146 153.387 423.8 153.725C423.458 154.057 423.257 154.511 423.198 155.085ZM429.747 162.256V152.18H431.162V153.219H431.183C431.41 152.822 431.723 152.526 432.119 152.33C432.516 152.134 432.949 152.036 433.418 152.036C434.038 152.036 434.582 152.196 435.052 152.515C435.521 152.829 435.886 153.269 436.146 153.834C436.41 154.395 436.542 155.046 436.542 155.789C436.542 156.532 436.412 157.186 436.152 157.751C435.893 158.312 435.528 158.751 435.059 159.07C434.589 159.385 434.04 159.542 433.411 159.542C432.942 159.542 432.518 159.439 432.14 159.234C431.761 159.029 431.451 158.722 431.21 158.312H431.189V162.256H429.747ZM433.117 158.298C433.701 158.298 434.172 158.084 434.532 157.655C434.897 157.227 435.079 156.605 435.079 155.789C435.079 154.973 434.897 154.351 434.532 153.923C434.172 153.49 433.701 153.273 433.117 153.273C432.502 153.273 432.01 153.504 431.641 153.964C431.276 154.42 431.094 155.028 431.094 155.789C431.094 156.546 431.276 157.154 431.641 157.614C432.01 158.07 432.502 158.298 433.117 158.298Z" fill="#EA580C"/>
<g clip-path="url(#clip1_2200_4884)">
<path d="M142.875 180.898H151.125" stroke="#666666" stroke-width="1.5" stroke-linecap="round" stroke-linejoin="round"/>
<path d="M147 176.773V185.023" stroke="#666666" stroke-width="1.5" stroke-linecap="round" stroke-linejoin="round"/>
</g>
<path d="M165.225 186.398H161.93V176.213H165.327C166.325 176.213 167.184 176.418 167.904 176.828C168.629 177.238 169.185 177.824 169.572 178.585C169.96 179.341 170.153 180.244 170.153 181.292C170.153 182.345 169.957 183.254 169.565 184.02C169.178 184.781 168.615 185.368 167.877 185.783C167.143 186.193 166.259 186.398 165.225 186.398ZM163.447 185.079H165.129C166.318 185.079 167.198 184.744 167.768 184.074C168.342 183.404 168.629 182.477 168.629 181.292C168.629 180.112 168.346 179.191 167.781 178.53C167.216 177.865 166.366 177.532 165.231 177.532H163.447V185.079ZM174.604 186.562C173.888 186.562 173.273 186.401 172.758 186.077C172.247 185.754 171.853 185.309 171.575 184.744C171.302 184.174 171.165 183.527 171.165 182.803C171.165 182.069 171.309 181.417 171.596 180.848C171.883 180.278 172.279 179.831 172.785 179.508C173.291 179.18 173.872 179.016 174.528 179.016C175.212 179.016 175.804 179.175 176.306 179.494C176.812 179.813 177.203 180.257 177.481 180.827C177.759 181.392 177.898 182.046 177.898 182.789V183.179H172.587C172.614 183.83 172.801 184.357 173.147 184.758C173.498 185.159 173.991 185.359 174.624 185.359C175.098 185.359 175.488 185.252 175.793 185.038C176.098 184.824 176.301 184.546 176.401 184.204H177.789C177.702 184.669 177.509 185.079 177.208 185.435C176.912 185.79 176.538 186.068 176.087 186.269C175.64 186.465 175.146 186.562 174.604 186.562ZM172.601 182.085H176.49C176.431 181.511 176.228 181.057 175.882 180.725C175.535 180.387 175.089 180.219 174.542 180.219C173.995 180.219 173.549 180.387 173.202 180.725C172.86 181.057 172.66 181.511 172.601 182.085ZM182.239 186.562C181.551 186.562 180.947 186.403 180.428 186.084C179.913 185.765 179.512 185.323 179.225 184.758C178.938 184.188 178.794 183.536 178.794 182.803C178.794 182.06 178.938 181.404 179.225 180.834C179.516 180.264 179.92 179.82 180.435 179.501C180.95 179.177 181.551 179.016 182.239 179.016C182.813 179.016 183.326 179.13 183.777 179.357C184.233 179.581 184.602 179.891 184.885 180.287C185.167 180.684 185.338 181.137 185.397 181.647H183.962C183.889 181.242 183.707 180.909 183.415 180.649C183.123 180.39 182.734 180.26 182.246 180.26C181.622 180.26 181.134 180.49 180.783 180.95C180.432 181.41 180.257 182.028 180.257 182.803C180.257 183.568 180.432 184.179 180.783 184.635C181.134 185.09 181.622 185.318 182.246 185.318C182.743 185.318 183.126 185.193 183.395 184.942C183.663 184.687 183.846 184.348 183.941 183.924H185.397C185.343 184.425 185.174 184.876 184.892 185.277C184.609 185.674 184.24 185.988 183.784 186.221C183.328 186.449 182.813 186.562 182.239 186.562ZM188.911 186.515C188.191 186.515 187.594 186.332 187.12 185.968C186.646 185.599 186.409 185.054 186.409 184.334C186.409 183.787 186.544 183.368 186.812 183.076C187.086 182.78 187.439 182.568 187.872 182.44C188.31 182.313 188.772 182.219 189.26 182.16C189.711 182.105 190.069 182.06 190.333 182.023C190.597 181.987 190.784 181.932 190.894 181.859C191.007 181.786 191.064 181.661 191.064 181.483V181.422C191.064 181.071 190.937 180.784 190.682 180.561C190.426 180.333 190.069 180.219 189.608 180.219C189.148 180.219 188.772 180.33 188.48 180.554C188.189 180.772 188.029 181.048 188.002 181.381H186.587C186.619 180.693 186.908 180.13 187.455 179.692C188.002 179.255 188.727 179.036 189.629 179.036C190.518 179.036 191.217 179.255 191.728 179.692C192.238 180.13 192.493 180.715 192.493 181.449V186.398H191.071V185.373H191.044C190.894 185.665 190.654 185.929 190.326 186.166C190.003 186.398 189.531 186.515 188.911 186.515ZM189.205 185.353C189.843 185.353 190.312 185.188 190.613 184.86C190.919 184.528 191.071 184.14 191.071 183.698V182.851C190.976 182.928 190.759 182.999 190.422 183.062C190.085 183.122 189.725 183.179 189.342 183.233C188.945 183.293 188.597 183.404 188.296 183.568C187.995 183.732 187.845 183.997 187.845 184.361C187.845 184.671 187.965 184.915 188.207 185.093C188.453 185.266 188.786 185.353 189.205 185.353ZM197.62 179.18V180.369H196.15V186.398H194.708V180.369H193.416V179.18H194.708V178.011C194.708 177.441 194.886 176.999 195.241 176.685C195.601 176.37 196.107 176.213 196.759 176.213H197.62V177.402H196.984C196.679 177.402 196.463 177.466 196.335 177.594C196.212 177.721 196.15 177.938 196.15 178.243V179.18H197.62Z" fill="#666666"/>
<rect x="101.5" y="205.898" width="27" height="27" rx="7.5" fill="white"/>
<rect x="101.5" y="205.898" width="27" height="27" rx="7.5" stroke="#E5E5E5"/>
<path d="M111.067 224.898V223.695L114.731 220.428C115.119 220.077 115.442 219.762 115.702 219.484C115.962 219.202 116.156 218.924 116.283 218.65C116.415 218.377 116.481 218.069 116.481 217.728C116.481 217.149 116.308 216.691 115.962 216.354C115.616 216.012 115.144 215.841 114.547 215.841C113.9 215.841 113.396 216.041 113.036 216.442C112.676 216.843 112.496 217.388 112.496 218.076H111.081C111.081 217.379 111.222 216.766 111.505 216.237C111.792 215.709 112.193 215.296 112.708 215C113.228 214.699 113.838 214.549 114.54 214.549C115.196 214.549 115.777 214.681 116.283 214.945C116.789 215.205 117.186 215.57 117.473 216.039C117.764 216.504 117.91 217.044 117.91 217.659C117.91 218.338 117.723 218.951 117.35 219.498C116.976 220.04 116.422 220.64 115.688 221.296L113.132 223.593V223.606H117.965V224.898H111.067Z" fill="#666666"/>
<path d="M142.062 225.398V213.758H149.641V215.281H143.797V218.766H149.195V220.266H143.797V225.398H142.062ZM152.594 213.758V225.398H150.945V213.758H152.594ZM156.977 225.531C156.154 225.531 155.471 225.323 154.93 224.906C154.388 224.484 154.117 223.862 154.117 223.039C154.117 222.414 154.271 221.935 154.578 221.602C154.891 221.263 155.294 221.021 155.789 220.875C156.289 220.729 156.818 220.622 157.375 220.555C157.891 220.492 158.299 220.44 158.602 220.398C158.904 220.357 159.117 220.294 159.242 220.211C159.372 220.128 159.438 219.984 159.438 219.781V219.711C159.438 219.31 159.292 218.982 159 218.727C158.708 218.466 158.299 218.336 157.773 218.336C157.247 218.336 156.818 218.464 156.484 218.719C156.151 218.969 155.969 219.284 155.938 219.664H154.32C154.357 218.878 154.688 218.234 155.312 217.734C155.938 217.234 156.766 216.984 157.797 216.984C158.812 216.984 159.612 217.234 160.195 217.734C160.779 218.234 161.07 218.904 161.07 219.742V225.398H159.445V224.227H159.414C159.242 224.56 158.969 224.862 158.594 225.133C158.224 225.398 157.685 225.531 156.977 225.531ZM157.312 224.203C158.042 224.203 158.578 224.016 158.922 223.641C159.271 223.26 159.445 222.818 159.445 222.312V221.344C159.336 221.432 159.089 221.513 158.703 221.586C158.318 221.654 157.906 221.719 157.469 221.781C157.016 221.849 156.617 221.977 156.273 222.164C155.93 222.352 155.758 222.654 155.758 223.07C155.758 223.424 155.896 223.703 156.172 223.906C156.453 224.104 156.833 224.203 157.312 224.203ZM166.906 217.148V218.508H165.234V223.219C165.234 223.526 165.297 223.74 165.422 223.859C165.547 223.979 165.773 224.039 166.102 224.039H166.906V225.398H165.867C164.341 225.398 163.578 224.742 163.578 223.43V218.508H162.125V217.148H163.578V214.898H165.234V217.148H166.906ZM174.375 225.398L171.219 213.758H173.023L174.734 220.531C174.859 221.031 174.977 221.534 175.086 222.039C175.195 222.539 175.302 223.042 175.406 223.547C175.51 223.042 175.62 222.539 175.734 222.039C175.849 221.534 175.971 221.031 176.102 220.531L177.867 213.758H179.766L181.516 220.531C181.766 221.521 181.997 222.513 182.211 223.508C182.315 223.013 182.422 222.518 182.531 222.023C182.646 221.523 182.763 221.026 182.883 220.531L184.594 213.758H186.406L183.234 225.398H181.25L179.336 218.281C179.242 217.922 179.151 217.555 179.062 217.18C178.979 216.799 178.893 216.411 178.805 216.016C178.721 216.411 178.638 216.799 178.555 217.18C178.471 217.555 178.38 217.922 178.281 218.281L176.383 225.398H174.375ZM189.109 220.648V225.398H187.461V213.758H189.109V218.336C189.677 217.435 190.497 216.984 191.57 216.984C192.138 216.984 192.646 217.109 193.094 217.359C193.547 217.604 193.904 217.969 194.164 218.453C194.424 218.938 194.555 219.539 194.555 220.258V225.398H192.906V220.461C192.906 219.799 192.747 219.302 192.43 218.969C192.112 218.63 191.669 218.461 191.102 218.461C190.539 218.461 190.065 218.635 189.68 218.984C189.299 219.328 189.109 219.883 189.109 220.648ZM196.414 225.398V217.148H198.062V225.398H196.414ZM197.234 215.727C196.943 215.727 196.695 215.63 196.492 215.438C196.294 215.24 196.195 215 196.195 214.719C196.195 214.432 196.294 214.193 196.492 214C196.695 213.802 196.943 213.703 197.234 213.703C197.526 213.703 197.773 213.802 197.977 214C198.18 214.193 198.281 214.432 198.281 214.719C198.281 215 198.18 215.24 197.977 215.438C197.773 215.63 197.526 215.727 197.234 215.727ZM204.047 217.148V218.508H202.375V223.219C202.375 223.526 202.438 223.74 202.562 223.859C202.688 223.979 202.914 224.039 203.242 224.039H204.047V225.398H203.008C201.482 225.398 200.719 224.742 200.719 223.43V218.508H199.266V217.148H200.719V214.898H202.375V217.148H204.047ZM208.734 225.586C207.917 225.586 207.214 225.401 206.625 225.031C206.042 224.661 205.591 224.154 205.273 223.508C204.961 222.857 204.805 222.117 204.805 221.289C204.805 220.451 204.969 219.706 205.297 219.055C205.625 218.404 206.078 217.893 206.656 217.523C207.234 217.148 207.898 216.961 208.648 216.961C209.43 216.961 210.107 217.143 210.68 217.508C211.258 217.872 211.706 218.38 212.023 219.031C212.341 219.677 212.5 220.424 212.5 221.273V221.719H206.43C206.461 222.464 206.674 223.065 207.07 223.523C207.471 223.982 208.034 224.211 208.758 224.211C209.299 224.211 209.745 224.089 210.094 223.844C210.443 223.599 210.674 223.281 210.789 222.891H212.375C212.276 223.422 212.055 223.891 211.711 224.297C211.372 224.703 210.945 225.021 210.43 225.25C209.919 225.474 209.354 225.586 208.734 225.586ZM206.445 220.469H210.891C210.823 219.812 210.591 219.294 210.195 218.914C209.799 218.529 209.289 218.336 208.664 218.336C208.039 218.336 207.529 218.529 207.133 218.914C206.742 219.294 206.513 219.812 206.445 220.469Z" fill="#333333"/>
<rect x="362" y="205.398" width="87" height="29" rx="14.5" fill="#FFEDD5"/>
<path d="M378.621 225.562C377.4 225.562 376.436 225.255 375.729 224.64C375.028 224.02 374.677 223.172 374.677 222.097H376.194C376.199 222.767 376.413 223.291 376.837 223.669C377.265 224.047 377.86 224.236 378.621 224.236C379.314 224.236 379.868 224.09 380.282 223.799C380.701 223.503 380.911 223.106 380.911 222.609C380.911 222.217 380.761 221.901 380.46 221.659C380.164 221.413 379.662 221.206 378.956 221.037L377.842 220.771C376.812 220.524 376.06 220.183 375.586 219.745C375.117 219.303 374.882 218.729 374.882 218.022C374.882 217.425 375.032 216.904 375.333 216.457C375.634 216.01 376.055 215.664 376.598 215.418C377.145 215.172 377.783 215.049 378.512 215.049C379.61 215.049 380.483 215.336 381.13 215.91C381.782 216.484 382.123 217.268 382.155 218.262H380.686C380.649 217.674 380.435 217.214 380.043 216.881C379.651 216.544 379.134 216.375 378.491 216.375C377.876 216.375 377.372 216.523 376.98 216.819C376.589 217.111 376.393 217.487 376.393 217.947C376.393 218.316 376.543 218.617 376.844 218.85C377.145 219.077 377.644 219.276 378.341 219.444L379.441 219.704C380.462 219.946 381.214 220.294 381.697 220.75C382.185 221.206 382.429 221.798 382.429 222.527C382.429 223.138 382.271 223.671 381.957 224.127C381.643 224.583 381.201 224.936 380.631 225.187C380.061 225.437 379.391 225.562 378.621 225.562ZM387.234 218.18V219.369H385.771V223.491C385.771 223.76 385.826 223.947 385.936 224.052C386.045 224.157 386.243 224.209 386.53 224.209H387.234V225.398H386.325C384.99 225.398 384.322 224.824 384.322 223.676V219.369H383.051V218.18H384.322V216.211H385.771V218.18H387.234ZM390.755 225.515C390.035 225.515 389.438 225.332 388.964 224.968C388.49 224.599 388.253 224.054 388.253 223.334C388.253 222.787 388.387 222.368 388.656 222.076C388.93 221.78 389.283 221.568 389.716 221.44C390.153 221.313 390.616 221.219 391.104 221.16C391.555 221.105 391.912 221.06 392.177 221.023C392.441 220.987 392.628 220.932 392.737 220.859C392.851 220.786 392.908 220.661 392.908 220.483V220.422C392.908 220.071 392.781 219.784 392.525 219.561C392.27 219.333 391.912 219.219 391.452 219.219C390.992 219.219 390.616 219.33 390.324 219.554C390.033 219.772 389.873 220.048 389.846 220.381H388.431C388.463 219.693 388.752 219.13 389.299 218.692C389.846 218.255 390.57 218.036 391.473 218.036C392.361 218.036 393.061 218.255 393.571 218.692C394.082 219.13 394.337 219.715 394.337 220.449V225.398H392.915V224.373H392.888C392.737 224.665 392.498 224.929 392.17 225.166C391.846 225.398 391.375 225.515 390.755 225.515ZM391.049 224.353C391.687 224.353 392.156 224.188 392.457 223.86C392.762 223.528 392.915 223.14 392.915 222.698V221.851C392.819 221.928 392.603 221.999 392.266 222.062C391.928 222.122 391.568 222.179 391.186 222.233C390.789 222.293 390.44 222.404 390.14 222.568C389.839 222.732 389.688 222.997 389.688 223.361C389.688 223.671 389.809 223.915 390.051 224.093C390.297 224.266 390.63 224.353 391.049 224.353ZM395.964 225.398V218.18H397.345V219.349H397.372C397.504 218.952 397.712 218.645 397.994 218.426C398.281 218.202 398.655 218.091 399.115 218.091C399.225 218.091 399.325 218.095 399.416 218.104C399.507 218.114 399.582 218.12 399.642 218.125V219.472C399.587 219.458 399.489 219.444 399.348 219.431C399.206 219.412 399.051 219.403 398.883 219.403C398.477 219.403 398.129 219.545 397.837 219.827C397.55 220.11 397.406 220.545 397.406 221.133V225.398H395.964ZM404.447 218.18V219.369H402.984V223.491C402.984 223.76 403.039 223.947 403.148 224.052C403.258 224.157 403.456 224.209 403.743 224.209H404.447V225.398H403.538C402.203 225.398 401.535 224.824 401.535 223.676V219.369H400.264V218.18H401.535V216.211H402.984V218.18H404.447ZM409.041 225.398V215.213H412.814C413.904 215.213 414.767 215.498 415.405 216.067C416.043 216.637 416.362 217.41 416.362 218.385C416.362 219.036 416.214 219.602 415.918 220.08C415.622 220.554 415.205 220.921 414.667 221.181C414.129 221.436 413.496 221.563 412.767 221.563H410.559V225.398H409.041ZM410.559 220.251H412.739C413.396 220.251 413.913 220.085 414.291 219.752C414.674 219.415 414.865 218.959 414.865 218.385C414.865 217.811 414.674 217.359 414.291 217.031C413.913 216.699 413.396 216.532 412.739 216.532H410.559V220.251ZM417.47 225.398V218.18H418.851V219.349H418.878C419.01 218.952 419.217 218.645 419.5 218.426C419.787 218.202 420.161 218.091 420.621 218.091C420.73 218.091 420.831 218.095 420.922 218.104C421.013 218.114 421.088 218.12 421.147 218.125V219.472C421.093 219.458 420.995 219.444 420.854 219.431C420.712 219.412 420.557 219.403 420.389 219.403C419.983 219.403 419.634 219.545 419.343 219.827C419.056 220.11 418.912 220.545 418.912 221.133V225.398H417.47ZM425.201 225.562C424.486 225.562 423.87 225.401 423.355 225.077C422.845 224.754 422.451 224.309 422.173 223.744C421.899 223.174 421.763 222.527 421.763 221.803C421.763 221.069 421.906 220.417 422.193 219.848C422.48 219.278 422.877 218.831 423.383 218.508C423.889 218.18 424.47 218.016 425.126 218.016C425.81 218.016 426.402 218.175 426.903 218.494C427.409 218.813 427.801 219.257 428.079 219.827C428.357 220.392 428.496 221.046 428.496 221.789V222.179H423.185C423.212 222.83 423.399 223.357 423.745 223.758C424.096 224.159 424.588 224.359 425.222 224.359C425.696 224.359 426.085 224.252 426.391 224.038C426.696 223.824 426.899 223.546 426.999 223.204H428.387C428.3 223.669 428.106 224.079 427.806 224.435C427.509 224.79 427.136 225.068 426.685 225.269C426.238 225.465 425.743 225.562 425.201 225.562ZM423.198 221.085H427.088C427.029 220.511 426.826 220.057 426.479 219.725C426.133 219.387 425.687 219.219 425.14 219.219C424.593 219.219 424.146 219.387 423.8 219.725C423.458 220.057 423.257 220.511 423.198 221.085ZM429.747 228.256V218.18H431.162V219.219H431.183C431.41 218.822 431.723 218.526 432.119 218.33C432.516 218.134 432.949 218.036 433.418 218.036C434.038 218.036 434.582 218.196 435.052 218.515C435.521 218.829 435.886 219.269 436.146 219.834C436.41 220.395 436.542 221.046 436.542 221.789C436.542 222.532 436.412 223.186 436.152 223.751C435.893 224.312 435.528 224.751 435.059 225.07C434.589 225.385 434.04 225.542 433.411 225.542C432.942 225.542 432.518 225.439 432.14 225.234C431.761 225.029 431.451 224.722 431.21 224.312H431.189V228.256H429.747ZM433.117 224.298C433.701 224.298 434.172 224.084 434.532 223.655C434.897 223.227 435.079 222.605 435.079 221.789C435.079 220.973 434.897 220.351 434.532 219.923C434.172 219.49 433.701 219.273 433.117 219.273C432.502 219.273 432.01 219.504 431.641 219.964C431.276 220.42 431.094 221.028 431.094 221.789C431.094 222.546 431.276 223.154 431.641 223.614C432.01 224.07 432.502 224.298 433.117 224.298Z" fill="#EA580C"/>
<g clip-path="url(#clip2_2200_4884)">
<path d="M142.875 246.898H151.125" stroke="#666666" stroke-width="1.5" stroke-linecap="round" stroke-linejoin="round"/>
<path d="M147 242.773V251.023" stroke="#666666" stroke-width="1.5" stroke-linecap="round" stroke-linejoin="round"/>
</g>
<path d="M166.236 252.562C165.334 252.562 164.53 252.341 163.823 251.899C163.117 251.457 162.561 250.842 162.155 250.054C161.754 249.265 161.554 248.352 161.554 247.312C161.554 246.269 161.754 245.353 162.155 244.564C162.561 243.771 163.117 243.154 163.823 242.712C164.53 242.27 165.334 242.049 166.236 242.049C167.143 242.049 167.95 242.27 168.656 242.712C169.363 243.154 169.916 243.771 170.317 244.564C170.723 245.353 170.926 246.269 170.926 247.312C170.926 248.352 170.723 249.265 170.317 250.054C169.916 250.842 169.363 251.457 168.656 251.899C167.95 252.341 167.143 252.562 166.236 252.562ZM166.236 251.175C166.824 251.175 167.357 251.027 167.836 250.73C168.314 250.43 168.695 249.992 168.978 249.418C169.26 248.839 169.401 248.137 169.401 247.312C169.401 246.483 169.26 245.779 168.978 245.2C168.695 244.621 168.314 244.184 167.836 243.888C167.357 243.587 166.824 243.437 166.236 243.437C165.653 243.437 165.122 243.587 164.644 243.888C164.165 244.184 163.785 244.621 163.502 245.2C163.219 245.779 163.078 246.483 163.078 247.312C163.078 248.137 163.219 248.839 163.502 249.418C163.785 249.992 164.165 250.43 164.644 250.73C165.122 251.027 165.653 251.175 166.236 251.175ZM174.501 252.515C173.781 252.515 173.184 252.332 172.71 251.968C172.236 251.599 171.999 251.054 171.999 250.334C171.999 249.787 172.133 249.368 172.402 249.076C172.676 248.78 173.029 248.568 173.462 248.44C173.899 248.313 174.362 248.219 174.85 248.16C175.301 248.105 175.659 248.06 175.923 248.023C176.187 247.987 176.374 247.932 176.483 247.859C176.597 247.786 176.654 247.661 176.654 247.483V247.422C176.654 247.071 176.527 246.784 176.271 246.561C176.016 246.333 175.659 246.219 175.198 246.219C174.738 246.219 174.362 246.33 174.07 246.554C173.779 246.772 173.619 247.048 173.592 247.381H172.177C172.209 246.693 172.498 246.13 173.045 245.692C173.592 245.255 174.316 245.036 175.219 245.036C176.107 245.036 176.807 245.255 177.317 245.692C177.828 246.13 178.083 246.715 178.083 247.449V252.398H176.661V251.373H176.634C176.483 251.665 176.244 251.929 175.916 252.166C175.592 252.398 175.121 252.515 174.501 252.515ZM174.795 251.353C175.433 251.353 175.902 251.188 176.203 250.86C176.508 250.528 176.661 250.14 176.661 249.698V248.851C176.565 248.928 176.349 248.999 176.012 249.062C175.674 249.122 175.314 249.179 174.932 249.233C174.535 249.293 174.187 249.404 173.886 249.568C173.585 249.732 173.435 249.997 173.435 250.361C173.435 250.671 173.555 250.915 173.797 251.093C174.043 251.266 174.376 251.353 174.795 251.353ZM183.189 245.18V246.369H181.727V250.491C181.727 250.76 181.781 250.947 181.891 251.052C182 251.157 182.198 251.209 182.485 251.209H183.189V252.398H182.28C180.945 252.398 180.277 251.824 180.277 250.676V246.369H179.006V245.18H180.277V243.211H181.727V245.18H183.189ZM187.783 252.398V242.213H189.923L192.206 248.181C192.297 248.44 192.416 248.782 192.562 249.206C192.707 249.625 192.84 250.013 192.958 250.368C193.072 250.013 193.202 249.625 193.348 249.206C193.493 248.782 193.612 248.44 193.703 248.181L195.952 242.213H198.099V252.398H196.608V246.848C196.608 246.483 196.613 246.059 196.622 245.576C196.631 245.089 196.643 244.603 196.656 244.12C196.469 244.672 196.292 245.191 196.123 245.679C195.959 246.166 195.822 246.556 195.713 246.848L193.566 252.398H192.322L190.155 246.848C190.05 246.57 189.916 246.203 189.752 245.747C189.592 245.287 189.419 244.792 189.232 244.264C189.246 244.729 189.257 245.189 189.267 245.645C189.276 246.1 189.28 246.501 189.28 246.848V252.398H187.783ZM199.849 252.398V245.18H201.291V252.398H199.849ZM200.566 243.936C200.311 243.936 200.095 243.851 199.917 243.683C199.744 243.509 199.657 243.3 199.657 243.054C199.657 242.803 199.744 242.593 199.917 242.425C200.095 242.252 200.311 242.165 200.566 242.165C200.822 242.165 201.038 242.252 201.216 242.425C201.394 242.593 201.482 242.803 201.482 243.054C201.482 243.3 201.394 243.509 201.216 243.683C201.038 243.851 200.822 243.936 200.566 243.936ZM204.367 242.213V252.398H202.925V242.213H204.367ZM206.001 252.398V242.213H207.443V248.263H207.464L210.54 245.18H212.331L209.275 248.283L212.536 252.398H210.766L208.175 249.151L207.443 249.862V252.398H206.001Z" fill="#666666"/>
<rect x="101.5" y="271.898" width="27" height="27" rx="7.5" fill="white"/>
<rect x="101.5" y="271.898" width="27" height="27" rx="7.5" stroke="#E5E5E5"/>
<path d="M116.272 280.713V290.898H114.803V282.203H114.796L112.308 283.83V282.381L114.844 280.713H116.272Z" fill="#666666"/>
<path d="M146.984 291.586C145.953 291.586 145.034 291.333 144.227 290.828C143.419 290.323 142.784 289.62 142.32 288.719C141.862 287.818 141.633 286.773 141.633 285.586C141.633 284.393 141.862 283.346 142.32 282.445C142.784 281.539 143.419 280.833 144.227 280.328C145.034 279.823 145.953 279.57 146.984 279.57C148.021 279.57 148.943 279.823 149.75 280.328C150.557 280.833 151.19 281.539 151.648 282.445C152.112 283.346 152.344 284.393 152.344 285.586C152.344 286.773 152.112 287.818 151.648 288.719C151.19 289.62 150.557 290.323 149.75 290.828C148.943 291.333 148.021 291.586 146.984 291.586ZM146.984 290C147.656 290 148.266 289.831 148.812 289.492C149.359 289.148 149.794 288.648 150.117 287.992C150.44 287.331 150.602 286.529 150.602 285.586C150.602 284.638 150.44 283.833 150.117 283.172C149.794 282.51 149.359 282.01 148.812 281.672C148.266 281.328 147.656 281.156 146.984 281.156C146.318 281.156 145.711 281.328 145.164 281.672C144.617 282.01 144.182 282.51 143.859 283.172C143.536 283.833 143.375 284.638 143.375 285.586C143.375 286.529 143.536 287.331 143.859 287.992C144.182 288.648 144.617 289.148 145.164 289.492C145.711 289.831 146.318 290 146.984 290ZM153.914 291.398V283.148H155.492V284.484H155.523C155.674 284.031 155.911 283.68 156.234 283.43C156.562 283.174 156.99 283.047 157.516 283.047C157.641 283.047 157.755 283.052 157.859 283.062C157.964 283.073 158.049 283.081 158.117 283.086V284.625C158.055 284.609 157.943 284.594 157.781 284.578C157.62 284.557 157.443 284.547 157.25 284.547C156.786 284.547 156.388 284.708 156.055 285.031C155.727 285.354 155.562 285.852 155.562 286.523V291.398H153.914ZM159.383 291.398V283.148H161.031V291.398H159.383ZM160.203 281.727C159.911 281.727 159.664 281.63 159.461 281.438C159.263 281.24 159.164 281 159.164 280.719C159.164 280.432 159.263 280.193 159.461 280C159.664 279.802 159.911 279.703 160.203 279.703C160.495 279.703 160.742 279.802 160.945 280C161.148 280.193 161.25 280.432 161.25 280.719C161.25 281 161.148 281.24 160.945 281.438C160.742 281.63 160.495 281.727 160.203 281.727ZM166.5 294.773C165.49 294.773 164.664 294.549 164.023 294.102C163.383 293.654 163.008 293.026 162.898 292.219H164.547C164.651 292.62 164.878 292.922 165.227 293.125C165.576 293.328 166 293.43 166.5 293.43C167.167 293.43 167.688 293.25 168.062 292.891C168.438 292.531 168.625 292.018 168.625 291.352V290.102H168.617C168.331 290.581 167.969 290.935 167.531 291.164C167.099 291.393 166.612 291.508 166.07 291.508C165.352 291.508 164.724 291.328 164.188 290.969C163.651 290.604 163.234 290.104 162.938 289.469C162.641 288.828 162.492 288.089 162.492 287.25C162.492 286.411 162.641 285.672 162.938 285.031C163.24 284.391 163.659 283.891 164.195 283.531C164.732 283.167 165.354 282.984 166.062 282.984C166.599 282.984 167.091 283.099 167.539 283.328C167.987 283.557 168.349 283.917 168.625 284.406H168.633V283.148H170.258V291.289C170.258 292.122 170.089 292.794 169.75 293.305C169.411 293.815 168.958 294.188 168.391 294.422C167.823 294.656 167.193 294.773 166.5 294.773ZM166.406 290.094C167.109 290.094 167.669 289.836 168.086 289.32C168.508 288.799 168.719 288.107 168.719 287.242C168.719 286.378 168.508 285.688 168.086 285.172C167.669 284.651 167.109 284.391 166.406 284.391C165.74 284.391 165.198 284.635 164.781 285.125C164.37 285.609 164.164 286.315 164.164 287.242C164.164 288.169 164.37 288.878 164.781 289.367C165.198 289.852 165.74 290.094 166.406 290.094ZM172.117 291.398V283.148H173.766V291.398H172.117ZM172.938 281.727C172.646 281.727 172.398 281.63 172.195 281.438C171.997 281.24 171.898 281 171.898 280.719C171.898 280.432 171.997 280.193 172.195 280C172.398 279.802 172.646 279.703 172.938 279.703C173.229 279.703 173.477 279.802 173.68 280C173.883 280.193 173.984 280.432 173.984 280.719C173.984 281 173.883 281.24 173.68 281.438C173.477 281.63 173.229 281.727 172.938 281.727ZM177.281 286.648V291.398H175.633V283.148H177.25V284.391C177.812 283.453 178.643 282.984 179.742 282.984C180.31 282.984 180.818 283.109 181.266 283.359C181.719 283.604 182.076 283.969 182.336 284.453C182.596 284.938 182.727 285.539 182.727 286.258V291.398H181.078V286.461C181.078 285.799 180.919 285.302 180.602 284.969C180.284 284.63 179.841 284.461 179.273 284.461C178.711 284.461 178.237 284.635 177.852 284.984C177.471 285.328 177.281 285.883 177.281 286.648ZM187.102 291.531C186.279 291.531 185.596 291.323 185.055 290.906C184.513 290.484 184.242 289.862 184.242 289.039C184.242 288.414 184.396 287.935 184.703 287.602C185.016 287.263 185.419 287.021 185.914 286.875C186.414 286.729 186.943 286.622 187.5 286.555C188.016 286.492 188.424 286.44 188.727 286.398C189.029 286.357 189.242 286.294 189.367 286.211C189.497 286.128 189.562 285.984 189.562 285.781V285.711C189.562 285.31 189.417 284.982 189.125 284.727C188.833 284.466 188.424 284.336 187.898 284.336C187.372 284.336 186.943 284.464 186.609 284.719C186.276 284.969 186.094 285.284 186.062 285.664H184.445C184.482 284.878 184.812 284.234 185.438 283.734C186.062 283.234 186.891 282.984 187.922 282.984C188.938 282.984 189.737 283.234 190.32 283.734C190.904 284.234 191.195 284.904 191.195 285.742V291.398H189.57V290.227H189.539C189.367 290.56 189.094 290.862 188.719 291.133C188.349 291.398 187.81 291.531 187.102 291.531ZM187.438 290.203C188.167 290.203 188.703 290.016 189.047 289.641C189.396 289.26 189.57 288.818 189.57 288.312V287.344C189.461 287.432 189.214 287.513 188.828 287.586C188.443 287.654 188.031 287.719 187.594 287.781C187.141 287.849 186.742 287.977 186.398 288.164C186.055 288.352 185.883 288.654 185.883 289.07C185.883 289.424 186.021 289.703 186.297 289.906C186.578 290.104 186.958 290.203 187.438 290.203ZM194.703 279.758V291.398H193.055V279.758H194.703ZM205.516 291.586C204.448 291.586 203.505 291.333 202.688 290.828C201.87 290.323 201.232 289.62 200.773 288.719C200.315 287.818 200.086 286.773 200.086 285.586C200.086 284.388 200.315 283.339 200.773 282.438C201.232 281.536 201.867 280.833 202.68 280.328C203.497 279.823 204.443 279.57 205.516 279.57C206.365 279.57 207.133 279.737 207.82 280.07C208.513 280.404 209.086 280.875 209.539 281.484C209.992 282.089 210.286 282.805 210.422 283.633H208.656C208.484 282.841 208.117 282.232 207.555 281.805C206.997 281.372 206.323 281.156 205.531 281.156C204.766 281.156 204.107 281.341 203.555 281.711C203.003 282.081 202.576 282.599 202.273 283.266C201.977 283.932 201.828 284.706 201.828 285.586C201.828 286.466 201.977 287.237 202.273 287.898C202.57 288.56 202.995 289.076 203.547 289.445C204.104 289.815 204.766 290 205.531 290C206.318 290 206.99 289.786 207.547 289.359C208.109 288.932 208.482 288.326 208.664 287.539H210.422C210.286 288.362 209.992 289.078 209.539 289.688C209.086 290.292 208.513 290.76 207.82 291.094C207.133 291.422 206.365 291.586 205.516 291.586ZM215.508 291.586C214.721 291.586 214.031 291.404 213.438 291.039C212.844 290.674 212.38 290.169 212.047 289.523C211.719 288.878 211.555 288.133 211.555 287.289C211.555 286.435 211.719 285.685 212.047 285.039C212.38 284.388 212.844 283.88 213.438 283.516C214.031 283.146 214.721 282.961 215.508 282.961C216.294 282.961 216.982 283.146 217.57 283.516C218.164 283.88 218.625 284.388 218.953 285.039C219.286 285.685 219.453 286.435 219.453 287.289C219.453 288.133 219.286 288.878 218.953 289.523C218.625 290.169 218.164 290.674 217.57 291.039C216.982 291.404 216.294 291.586 215.508 291.586ZM215.508 290.164C216.216 290.164 216.773 289.904 217.18 289.383C217.586 288.862 217.789 288.164 217.789 287.289C217.789 286.404 217.583 285.698 217.172 285.172C216.766 284.646 216.211 284.383 215.508 284.383C214.805 284.383 214.247 284.646 213.836 285.172C213.43 285.693 213.227 286.398 213.227 287.289C213.227 288.169 213.43 288.87 213.836 289.391C214.242 289.906 214.799 290.164 215.508 290.164ZM224.461 291.586C223.674 291.586 222.984 291.404 222.391 291.039C221.797 290.674 221.333 290.169 221 289.523C220.672 288.878 220.508 288.133 220.508 287.289C220.508 286.435 220.672 285.685 221 285.039C221.333 284.388 221.797 283.88 222.391 283.516C222.984 283.146 223.674 282.961 224.461 282.961C225.247 282.961 225.935 283.146 226.523 283.516C227.117 283.88 227.578 284.388 227.906 285.039C228.24 285.685 228.406 286.435 228.406 287.289C228.406 288.133 228.24 288.878 227.906 289.523C227.578 290.169 227.117 290.674 226.523 291.039C225.935 291.404 225.247 291.586 224.461 291.586ZM224.461 290.164C225.169 290.164 225.727 289.904 226.133 289.383C226.539 288.862 226.742 288.164 226.742 287.289C226.742 286.404 226.536 285.698 226.125 285.172C225.719 284.646 225.164 284.383 224.461 284.383C223.758 284.383 223.201 284.646 222.789 285.172C222.383 285.693 222.18 286.398 222.18 287.289C222.18 288.169 222.383 288.87 222.789 289.391C223.195 289.906 223.753 290.164 224.461 290.164ZM229.867 291.398V279.758H231.516V286.672H231.539L235.055 283.148H237.102L233.609 286.695L237.336 291.398H235.312L232.352 287.688L231.516 288.5V291.398H229.867ZM238.211 291.398V283.148H239.859V291.398H238.211ZM239.031 281.727C238.74 281.727 238.492 281.63 238.289 281.438C238.091 281.24 237.992 281 237.992 280.719C237.992 280.432 238.091 280.193 238.289 280C238.492 279.802 238.74 279.703 239.031 279.703C239.323 279.703 239.57 279.802 239.773 280C239.977 280.193 240.078 280.432 240.078 280.719C240.078 281 239.977 281.24 239.773 281.438C239.57 281.63 239.323 281.727 239.031 281.727ZM245.25 291.586C244.432 291.586 243.729 291.401 243.141 291.031C242.557 290.661 242.107 290.154 241.789 289.508C241.477 288.857 241.32 288.117 241.32 287.289C241.32 286.451 241.484 285.706 241.812 285.055C242.141 284.404 242.594 283.893 243.172 283.523C243.75 283.148 244.414 282.961 245.164 282.961C245.945 282.961 246.622 283.143 247.195 283.508C247.773 283.872 248.221 284.38 248.539 285.031C248.857 285.677 249.016 286.424 249.016 287.273V287.719H242.945C242.977 288.464 243.19 289.065 243.586 289.523C243.987 289.982 244.549 290.211 245.273 290.211C245.815 290.211 246.26 290.089 246.609 289.844C246.958 289.599 247.19 289.281 247.305 288.891H248.891C248.792 289.422 248.57 289.891 248.227 290.297C247.888 290.703 247.461 291.021 246.945 291.25C246.435 291.474 245.87 291.586 245.25 291.586ZM242.961 286.469H247.406C247.339 285.812 247.107 285.294 246.711 284.914C246.315 284.529 245.805 284.336 245.18 284.336C244.555 284.336 244.044 284.529 243.648 284.914C243.258 285.294 243.029 285.812 242.961 286.469ZM253.5 291.594C252.87 291.594 252.302 291.492 251.797 291.289C251.292 291.086 250.883 290.784 250.57 290.383C250.263 289.982 250.091 289.484 250.055 288.891H251.68C251.773 289.818 252.37 290.281 253.469 290.281C253.99 290.281 254.401 290.174 254.703 289.961C255.01 289.747 255.164 289.477 255.164 289.148C255.164 288.867 255.055 288.643 254.836 288.477C254.617 288.305 254.331 288.18 253.977 288.102L252.609 287.797C251.031 287.453 250.242 286.667 250.242 285.438C250.242 284.708 250.531 284.115 251.109 283.656C251.693 283.198 252.456 282.969 253.398 282.969C254.331 282.969 255.096 283.211 255.695 283.695C256.299 284.174 256.612 284.831 256.633 285.664H255.055C255.049 285.263 254.898 284.932 254.602 284.672C254.305 284.406 253.911 284.273 253.422 284.273C252.953 284.273 252.581 284.383 252.305 284.602C252.029 284.82 251.891 285.089 251.891 285.406C251.891 285.688 251.995 285.914 252.203 286.086C252.417 286.258 252.708 286.385 253.078 286.469L254.484 286.781C255.286 286.958 255.878 287.232 256.258 287.602C256.638 287.971 256.828 288.456 256.828 289.055C256.828 289.581 256.682 290.034 256.391 290.414C256.104 290.789 255.711 291.081 255.211 291.289C254.711 291.492 254.141 291.594 253.5 291.594Z" fill="#333333"/>
<rect x="391" y="271.398" width="58" height="29" rx="14.5" fill="#D1FAE5"/>
<path d="M408.221 291.398H404.926V281.213H408.323C409.321 281.213 410.18 281.418 410.9 281.828C411.625 282.238 412.181 282.824 412.568 283.585C412.956 284.341 413.149 285.244 413.149 286.292C413.149 287.345 412.953 288.254 412.562 289.02C412.174 289.781 411.611 290.368 410.873 290.783C410.139 291.193 409.255 291.398 408.221 291.398ZM406.443 290.079H408.125C409.314 290.079 410.194 289.744 410.764 289.074C411.338 288.404 411.625 287.477 411.625 286.292C411.625 285.112 411.342 284.191 410.777 283.53C410.212 282.865 409.362 282.532 408.228 282.532H406.443V290.079ZM417.62 291.562C416.932 291.562 416.328 291.403 415.809 291.084C415.289 290.765 414.883 290.323 414.592 289.758C414.305 289.193 414.161 288.541 414.161 287.803C414.161 287.055 414.305 286.399 414.592 285.834C414.883 285.264 415.289 284.82 415.809 284.501C416.328 284.177 416.932 284.016 417.62 284.016C418.308 284.016 418.91 284.177 419.425 284.501C419.944 284.82 420.348 285.264 420.635 285.834C420.926 286.399 421.072 287.055 421.072 287.803C421.072 288.541 420.926 289.193 420.635 289.758C420.348 290.323 419.944 290.765 419.425 291.084C418.91 291.403 418.308 291.562 417.62 291.562ZM417.62 290.318C418.24 290.318 418.728 290.09 419.083 289.635C419.438 289.179 419.616 288.568 419.616 287.803C419.616 287.028 419.436 286.41 419.076 285.95C418.721 285.49 418.235 285.26 417.62 285.26C417.005 285.26 416.517 285.49 416.157 285.95C415.802 286.406 415.624 287.023 415.624 287.803C415.624 288.573 415.802 289.186 416.157 289.642C416.513 290.093 417 290.318 417.62 290.318ZM423.793 287.242V291.398H422.351V284.18H423.766V285.267C424.258 284.446 424.985 284.036 425.946 284.036C426.443 284.036 426.887 284.146 427.279 284.364C427.676 284.578 427.988 284.897 428.216 285.321C428.444 285.745 428.558 286.271 428.558 286.9V291.398H427.115V287.078C427.115 286.499 426.976 286.064 426.698 285.772C426.42 285.476 426.033 285.328 425.536 285.328C425.044 285.328 424.629 285.481 424.292 285.786C423.959 286.087 423.793 286.572 423.793 287.242ZM433.268 291.562C432.552 291.562 431.937 291.401 431.422 291.077C430.911 290.754 430.517 290.309 430.239 289.744C429.966 289.174 429.829 288.527 429.829 287.803C429.829 287.069 429.973 286.417 430.26 285.848C430.547 285.278 430.943 284.831 431.449 284.508C431.955 284.18 432.536 284.016 433.192 284.016C433.876 284.016 434.468 284.175 434.97 284.494C435.476 284.813 435.868 285.257 436.146 285.827C436.424 286.392 436.562 287.046 436.562 287.789V288.179H431.251C431.278 288.83 431.465 289.357 431.812 289.758C432.162 290.159 432.655 290.359 433.288 290.359C433.762 290.359 434.152 290.252 434.457 290.038C434.762 289.824 434.965 289.546 435.065 289.204H436.453C436.367 289.669 436.173 290.079 435.872 290.435C435.576 290.79 435.202 291.068 434.751 291.269C434.304 291.465 433.81 291.562 433.268 291.562ZM431.265 287.085H435.154C435.095 286.511 434.892 286.057 434.546 285.725C434.2 285.387 433.753 285.219 433.206 285.219C432.659 285.219 432.213 285.387 431.866 285.725C431.524 286.057 431.324 286.511 431.265 287.085Z" fill="#059669"/>
<path d="M97 312.398H453" stroke="#E5E5E5"/>
<rect x="101" y="328.398" width="348" height="44" rx="8" fill="#1A1A1A"/>
<path d="M185.062 355.898V344.258H187.508L190.117 351.078C190.221 351.375 190.357 351.766 190.523 352.25C190.69 352.729 190.841 353.172 190.977 353.578C191.107 353.172 191.255 352.729 191.422 352.25C191.589 351.766 191.724 351.375 191.828 351.078L194.398 344.258H196.852V355.898H195.148V349.555C195.148 349.138 195.154 348.654 195.164 348.102C195.174 347.544 195.188 346.99 195.203 346.438C194.99 347.068 194.786 347.661 194.594 348.219C194.406 348.776 194.25 349.221 194.125 349.555L191.672 355.898H190.25L187.773 349.555C187.654 349.237 187.5 348.818 187.312 348.297C187.13 347.771 186.932 347.206 186.719 346.602C186.734 347.133 186.747 347.659 186.758 348.18C186.768 348.701 186.773 349.159 186.773 349.555V355.898H185.062ZM201.367 356.031C200.544 356.031 199.862 355.823 199.32 355.406C198.779 354.984 198.508 354.362 198.508 353.539C198.508 352.914 198.661 352.435 198.969 352.102C199.281 351.763 199.685 351.521 200.18 351.375C200.68 351.229 201.208 351.122 201.766 351.055C202.281 350.992 202.69 350.94 202.992 350.898C203.294 350.857 203.508 350.794 203.633 350.711C203.763 350.628 203.828 350.484 203.828 350.281V350.211C203.828 349.81 203.682 349.482 203.391 349.227C203.099 348.966 202.69 348.836 202.164 348.836C201.638 348.836 201.208 348.964 200.875 349.219C200.542 349.469 200.359 349.784 200.328 350.164H198.711C198.747 349.378 199.078 348.734 199.703 348.234C200.328 347.734 201.156 347.484 202.188 347.484C203.203 347.484 204.003 347.734 204.586 348.234C205.169 348.734 205.461 349.404 205.461 350.242V355.898H203.836V354.727H203.805C203.633 355.06 203.359 355.362 202.984 355.633C202.615 355.898 202.076 356.031 201.367 356.031ZM201.703 354.703C202.432 354.703 202.969 354.516 203.312 354.141C203.661 353.76 203.836 353.318 203.836 352.812V351.844C203.727 351.932 203.479 352.013 203.094 352.086C202.708 352.154 202.297 352.219 201.859 352.281C201.406 352.349 201.008 352.477 200.664 352.664C200.32 352.852 200.148 353.154 200.148 353.57C200.148 353.924 200.286 354.203 200.562 354.406C200.844 354.604 201.224 354.703 201.703 354.703ZM207.32 355.898V347.648H208.898V348.984H208.93C209.081 348.531 209.318 348.18 209.641 347.93C209.969 347.674 210.396 347.547 210.922 347.547C211.047 347.547 211.161 347.552 211.266 347.562C211.37 347.573 211.456 347.581 211.523 347.586V349.125C211.461 349.109 211.349 349.094 211.188 349.078C211.026 349.057 210.849 349.047 210.656 349.047C210.193 349.047 209.794 349.208 209.461 349.531C209.133 349.854 208.969 350.352 208.969 351.023V355.898H207.32ZM212.648 355.898V344.258H214.297V351.172H214.32L217.836 347.648H219.883L216.391 351.195L220.117 355.898H218.094L215.133 352.188L214.297 353V355.898H212.648ZM229.859 356.086C228.828 356.086 227.909 355.833 227.102 355.328C226.294 354.823 225.659 354.12 225.195 353.219C224.737 352.318 224.508 351.273 224.508 350.086C224.508 348.893 224.737 347.846 225.195 346.945C225.659 346.039 226.294 345.333 227.102 344.828C227.909 344.323 228.828 344.07 229.859 344.07C230.896 344.07 231.818 344.323 232.625 344.828C233.432 345.333 234.065 346.039 234.523 346.945C234.987 347.846 235.219 348.893 235.219 350.086C235.219 351.273 234.987 352.318 234.523 353.219C234.065 354.12 233.432 354.823 232.625 355.328C231.818 355.833 230.896 356.086 229.859 356.086ZM229.859 354.5C230.531 354.5 231.141 354.331 231.688 353.992C232.234 353.648 232.669 353.148 232.992 352.492C233.315 351.831 233.477 351.029 233.477 350.086C233.477 349.138 233.315 348.333 232.992 347.672C232.669 347.01 232.234 346.51 231.688 346.172C231.141 345.828 230.531 345.656 229.859 345.656C229.193 345.656 228.586 345.828 228.039 346.172C227.492 346.51 227.057 347.01 226.734 347.672C226.411 348.333 226.25 349.138 226.25 350.086C226.25 351.029 226.411 351.831 226.734 352.492C227.057 353.148 227.492 353.648 228.039 353.992C228.586 354.331 229.193 354.5 229.859 354.5ZM236.789 355.898V347.648H238.367V348.984H238.398C238.549 348.531 238.786 348.18 239.109 347.93C239.438 347.674 239.865 347.547 240.391 347.547C240.516 347.547 240.63 347.552 240.734 347.562C240.839 347.573 240.924 347.581 240.992 347.586V349.125C240.93 349.109 240.818 349.094 240.656 349.078C240.495 349.057 240.318 349.047 240.125 349.047C239.661 349.047 239.263 349.208 238.93 349.531C238.602 349.854 238.438 350.352 238.438 351.023V355.898H236.789ZM245.273 356.062C244.555 356.062 243.927 355.883 243.391 355.523C242.854 355.159 242.438 354.656 242.141 354.016C241.844 353.37 241.695 352.622 241.695 351.773C241.695 350.924 241.844 350.18 242.141 349.539C242.443 348.893 242.862 348.391 243.398 348.031C243.935 347.667 244.557 347.484 245.266 347.484C245.802 347.484 246.292 347.596 246.734 347.82C247.177 348.044 247.531 348.385 247.797 348.844H247.812V344.258H249.461V355.898H247.844V354.641H247.828C247.552 355.12 247.19 355.477 246.742 355.711C246.299 355.945 245.81 356.062 245.273 356.062ZM245.609 354.641C246.312 354.641 246.872 354.38 247.289 353.859C247.711 353.333 247.922 352.638 247.922 351.773C247.922 350.904 247.711 350.208 247.289 349.688C246.872 349.161 246.312 348.898 245.609 348.898C244.943 348.898 244.401 349.146 243.984 349.641C243.573 350.13 243.367 350.841 243.367 351.773C243.367 352.706 243.573 353.417 243.984 353.906C244.401 354.396 244.943 354.641 245.609 354.641ZM254.844 356.086C254.026 356.086 253.323 355.901 252.734 355.531C252.151 355.161 251.701 354.654 251.383 354.008C251.07 353.357 250.914 352.617 250.914 351.789C250.914 350.951 251.078 350.206 251.406 349.555C251.734 348.904 252.188 348.393 252.766 348.023C253.344 347.648 254.008 347.461 254.758 347.461C255.539 347.461 256.216 347.643 256.789 348.008C257.367 348.372 257.815 348.88 258.133 349.531C258.451 350.177 258.609 350.924 258.609 351.773V352.219H252.539C252.57 352.964 252.784 353.565 253.18 354.023C253.581 354.482 254.143 354.711 254.867 354.711C255.409 354.711 255.854 354.589 256.203 354.344C256.552 354.099 256.784 353.781 256.898 353.391H258.484C258.385 353.922 258.164 354.391 257.82 354.797C257.482 355.203 257.055 355.521 256.539 355.75C256.029 355.974 255.464 356.086 254.844 356.086ZM252.555 350.969H257C256.932 350.312 256.701 349.794 256.305 349.414C255.909 349.029 255.398 348.836 254.773 348.836C254.148 348.836 253.638 349.029 253.242 349.414C252.852 349.794 252.622 350.312 252.555 350.969ZM260.039 355.898V347.648H261.617V348.984H261.648C261.799 348.531 262.036 348.18 262.359 347.93C262.688 347.674 263.115 347.547 263.641 347.547C263.766 347.547 263.88 347.552 263.984 347.562C264.089 347.573 264.174 347.581 264.242 347.586V349.125C264.18 349.109 264.068 349.094 263.906 349.078C263.745 349.057 263.568 349.047 263.375 349.047C262.911 349.047 262.513 349.208 262.18 349.531C261.852 349.854 261.688 350.352 261.688 351.023V355.898H260.039ZM271.805 356.031C270.982 356.031 270.299 355.823 269.758 355.406C269.216 354.984 268.945 354.362 268.945 353.539C268.945 352.914 269.099 352.435 269.406 352.102C269.719 351.763 270.122 351.521 270.617 351.375C271.117 351.229 271.646 351.122 272.203 351.055C272.719 350.992 273.128 350.94 273.43 350.898C273.732 350.857 273.945 350.794 274.07 350.711C274.201 350.628 274.266 350.484 274.266 350.281V350.211C274.266 349.81 274.12 349.482 273.828 349.227C273.536 348.966 273.128 348.836 272.602 348.836C272.076 348.836 271.646 348.964 271.312 349.219C270.979 349.469 270.797 349.784 270.766 350.164H269.148C269.185 349.378 269.516 348.734 270.141 348.234C270.766 347.734 271.594 347.484 272.625 347.484C273.641 347.484 274.44 347.734 275.023 348.234C275.607 348.734 275.898 349.404 275.898 350.242V355.898H274.273V354.727H274.242C274.07 355.06 273.797 355.362 273.422 355.633C273.052 355.898 272.513 356.031 271.805 356.031ZM272.141 354.703C272.87 354.703 273.406 354.516 273.75 354.141C274.099 353.76 274.273 353.318 274.273 352.812V351.844C274.164 351.932 273.917 352.013 273.531 352.086C273.146 352.154 272.734 352.219 272.297 352.281C271.844 352.349 271.445 352.477 271.102 352.664C270.758 352.852 270.586 353.154 270.586 353.57C270.586 353.924 270.724 354.203 271 354.406C271.281 354.604 271.661 354.703 272.141 354.703ZM280.812 356.094C280.182 356.094 279.615 355.992 279.109 355.789C278.604 355.586 278.195 355.284 277.883 354.883C277.576 354.482 277.404 353.984 277.367 353.391H278.992C279.086 354.318 279.682 354.781 280.781 354.781C281.302 354.781 281.714 354.674 282.016 354.461C282.323 354.247 282.477 353.977 282.477 353.648C282.477 353.367 282.367 353.143 282.148 352.977C281.93 352.805 281.643 352.68 281.289 352.602L279.922 352.297C278.344 351.953 277.555 351.167 277.555 349.938C277.555 349.208 277.844 348.615 278.422 348.156C279.005 347.698 279.768 347.469 280.711 347.469C281.643 347.469 282.409 347.711 283.008 348.195C283.612 348.674 283.924 349.331 283.945 350.164H282.367C282.362 349.763 282.211 349.432 281.914 349.172C281.617 348.906 281.224 348.773 280.734 348.773C280.266 348.773 279.893 348.883 279.617 349.102C279.341 349.32 279.203 349.589 279.203 349.906C279.203 350.188 279.307 350.414 279.516 350.586C279.729 350.758 280.021 350.885 280.391 350.969L281.797 351.281C282.599 351.458 283.19 351.732 283.57 352.102C283.951 352.471 284.141 352.956 284.141 353.555C284.141 354.081 283.995 354.534 283.703 354.914C283.417 355.289 283.023 355.581 282.523 355.789C282.023 355.992 281.453 356.094 280.812 356.094ZM289.547 355.898V344.258H293.977C295.221 344.258 296.208 344.583 296.938 345.234C297.667 345.885 298.031 346.768 298.031 347.883C298.031 348.695 297.823 349.388 297.406 349.961C296.99 350.529 296.419 350.943 295.695 351.203L298.211 355.898H296.258L293.938 351.492C293.911 351.492 293.885 351.492 293.859 351.492H291.281V355.898H289.547ZM291.281 350.016H293.906C294.656 350.016 295.245 349.826 295.672 349.445C296.104 349.06 296.32 348.539 296.32 347.883C296.32 347.227 296.104 346.708 295.672 346.328C295.24 345.948 294.648 345.758 293.898 345.758H291.281V350.016ZM302.812 356.086C301.995 356.086 301.292 355.901 300.703 355.531C300.12 355.161 299.669 354.654 299.352 354.008C299.039 353.357 298.883 352.617 298.883 351.789C298.883 350.951 299.047 350.206 299.375 349.555C299.703 348.904 300.156 348.393 300.734 348.023C301.312 347.648 301.977 347.461 302.727 347.461C303.508 347.461 304.185 347.643 304.758 348.008C305.336 348.372 305.784 348.88 306.102 349.531C306.419 350.177 306.578 350.924 306.578 351.773V352.219H300.508C300.539 352.964 300.753 353.565 301.148 354.023C301.549 354.482 302.112 354.711 302.836 354.711C303.378 354.711 303.823 354.589 304.172 354.344C304.521 354.099 304.753 353.781 304.867 353.391H306.453C306.354 353.922 306.133 354.391 305.789 354.797C305.451 355.203 305.023 355.521 304.508 355.75C303.997 355.974 303.432 356.086 302.812 356.086ZM300.523 350.969H304.969C304.901 350.312 304.669 349.794 304.273 349.414C303.878 349.029 303.367 348.836 302.742 348.836C302.117 348.836 301.607 349.029 301.211 349.414C300.82 349.794 300.591 350.312 300.523 350.969ZM310.617 356.031C309.794 356.031 309.112 355.823 308.57 355.406C308.029 354.984 307.758 354.362 307.758 353.539C307.758 352.914 307.911 352.435 308.219 352.102C308.531 351.763 308.935 351.521 309.43 351.375C309.93 351.229 310.458 351.122 311.016 351.055C311.531 350.992 311.94 350.94 312.242 350.898C312.544 350.857 312.758 350.794 312.883 350.711C313.013 350.628 313.078 350.484 313.078 350.281V350.211C313.078 349.81 312.932 349.482 312.641 349.227C312.349 348.966 311.94 348.836 311.414 348.836C310.888 348.836 310.458 348.964 310.125 349.219C309.792 349.469 309.609 349.784 309.578 350.164H307.961C307.997 349.378 308.328 348.734 308.953 348.234C309.578 347.734 310.406 347.484 311.438 347.484C312.453 347.484 313.253 347.734 313.836 348.234C314.419 348.734 314.711 349.404 314.711 350.242V355.898H313.086V354.727H313.055C312.883 355.06 312.609 355.362 312.234 355.633C311.865 355.898 311.326 356.031 310.617 356.031ZM310.953 354.703C311.682 354.703 312.219 354.516 312.562 354.141C312.911 353.76 313.086 353.318 313.086 352.812V351.844C312.977 351.932 312.729 352.013 312.344 352.086C311.958 352.154 311.547 352.219 311.109 352.281C310.656 352.349 310.258 352.477 309.914 352.664C309.57 352.852 309.398 353.154 309.398 353.57C309.398 353.924 309.536 354.203 309.812 354.406C310.094 354.604 310.474 354.703 310.953 354.703ZM319.742 356.062C319.023 356.062 318.396 355.883 317.859 355.523C317.323 355.159 316.906 354.656 316.609 354.016C316.312 353.37 316.164 352.622 316.164 351.773C316.164 350.924 316.312 350.18 316.609 349.539C316.911 348.893 317.331 348.391 317.867 348.031C318.404 347.667 319.026 347.484 319.734 347.484C320.271 347.484 320.76 347.596 321.203 347.82C321.646 348.044 322 348.385 322.266 348.844H322.281V344.258H323.93V355.898H322.312V354.641H322.297C322.021 355.12 321.659 355.477 321.211 355.711C320.768 355.945 320.279 356.062 319.742 356.062ZM320.078 354.641C320.781 354.641 321.341 354.38 321.758 353.859C322.18 353.333 322.391 352.638 322.391 351.773C322.391 350.904 322.18 350.208 321.758 349.688C321.341 349.161 320.781 348.898 320.078 348.898C319.411 348.898 318.87 349.146 318.453 349.641C318.042 350.13 317.836 350.841 317.836 351.773C317.836 352.706 318.042 353.417 318.453 353.906C318.87 354.396 319.411 354.641 320.078 354.641ZM325.992 359.164V357.773H326.883C327.143 357.773 327.354 357.698 327.516 357.547C327.682 357.401 327.828 357.159 327.953 356.82L328.328 355.844L325.141 347.648H326.906L328.555 352.172C328.664 352.479 328.771 352.789 328.875 353.102C328.979 353.409 329.081 353.716 329.18 354.023C329.279 353.716 329.38 353.409 329.484 353.102C329.594 352.789 329.703 352.479 329.812 352.172L331.438 347.648H333.18L329.43 357.344C328.966 358.557 328.169 359.164 327.039 359.164H325.992Z" fill="white"/>
<g clip-path="url(#clip3_2200_4884)">
<path d="M349.125 351.648L353.5 356.023L363.5 346.023" stroke="white" stroke-width="2" stroke-linecap="round" stroke-linejoin="round"/>
</g>
</g>
</g>
<path d="M441.983 360.882C443.148 359.718 444.774 359.745 446.543 360.16C448.34 360.582 450.698 361.508 453.702 362.684L463.758 366.618C466.628 367.741 468.88 368.62 470.39 369.452C471.146 369.869 471.798 370.317 472.259 370.839C472.743 371.387 473.037 372.043 472.996 372.808C472.955 373.574 472.59 374.196 472.048 374.689C471.531 375.159 470.831 375.536 470.029 375.871C468.429 376.54 466.081 377.178 463.085 377.995C462.166 378.246 461.545 378.416 461.072 378.596C460.62 378.768 460.379 378.922 460.201 379.1C460.024 379.277 459.869 379.517 459.697 379.97C459.518 380.442 459.348 381.064 459.097 381.983C458.28 384.979 457.642 387.327 456.973 388.928C456.637 389.73 456.261 390.43 455.791 390.946C455.298 391.488 454.676 391.853 453.909 391.895C453.145 391.935 452.489 391.641 451.94 391.157C451.419 390.696 450.971 390.045 450.554 389.288C449.722 387.778 448.843 385.527 447.72 382.656L443.785 372.601C442.609 369.596 441.684 367.239 441.262 365.441C440.846 363.672 440.819 362.046 441.983 360.882Z" fill="#EF5237" stroke="white" stroke-width="2" stroke-linejoin="round"/>
<defs>
<filter id="filter0_d_2200_4884" x="65" y="46.3984" width="420" height="358" filterUnits="userSpaceOnUse" color-interpolation-filters="sRGB">
<feFlood flood-opacity="0" result="BackgroundImageFix"/>
<feColorMatrix in="SourceAlpha" type="matrix" values="0 0 0 0 0 0 0 0 0 0 0 0 0 0 0 0 0 0 127 0" result="hardAlpha"/>
<feOffset/>
<feGaussianBlur stdDeviation="10"/>
<feComposite in2="hardAlpha" operator="out"/>
<feColorMatrix type="matrix" values="0 0 0 0 0 0 0 0 0 0 0 0 0 0 0 0 0 0 0.04 0"/>
<feBlend mode="normal" in2="BackgroundImageFix" result="effect1_dropShadow_2200_4884"/>
<feBlend mode="normal" in="SourceGraphic" in2="effect1_dropShadow_2200_4884" result="shape"/>
</filter>
<clipPath id="clip0_2200_4884">
<rect x="85" y="66.3984" width="380" height="318" rx="16" fill="white"/>
</clipPath>
<clipPath id="clip1_2200_4884">
<rect width="12" height="12" fill="white" transform="translate(141 174.898)"/>
</clipPath>
<clipPath id="clip2_2200_4884">
<rect width="12" height="12" fill="white" transform="translate(141 240.898)"/>
</clipPath>
<clipPath id="clip3_2200_4884">
<rect width="20" height="20" fill="white" transform="translate(346 340.398)"/>
</clipPath>
</defs>
</svg>
