<svg width="550" height="350" viewBox="0 0 550 350" fill="none" xmlns="http://www.w3.org/2000/svg">
<path d="M0 12C0 5.37259 5.37258 0 12 0H538C544.627 0 550 5.37258 550 12V338C550 344.627 544.627 350 538 350H12C5.37257 350 0 344.627 0 338V12Z" fill="black" fill-opacity="0.04"/>
<rect x="80" y="53.8984" width="390" height="242.968" rx="12" fill="white"/>
<rect x="96" y="69.8984" width="358" height="64.9684" rx="12" fill="black" fill-opacity="0.04"/>
<path d="M108 90.3827C108 85.697 111.799 81.8984 116.484 81.8984H140.484C145.17 81.8984 148.968 85.6969 148.968 90.3826V114.383C148.968 119.068 145.17 122.867 140.484 122.867H116.484C111.799 122.867 108 119.068 108 114.383V90.3827Z" fill="white"/>
<g clipPath="url(#clip0_2200_1709)">
<path d="M140.431 101.352L139.118 98.0703C139.007 97.7925 138.815 97.5547 138.567 97.3875C138.318 97.2203 138.026 97.1316 137.726 97.1328H134.484V96.3828C134.484 96.1839 134.405 95.9931 134.265 95.8525C134.124 95.7118 133.933 95.6328 133.734 95.6328H119.484C119.087 95.6328 118.705 95.7908 118.424 96.0722C118.142 96.3535 117.984 96.735 117.984 97.1328V107.633C117.984 108.031 118.142 108.412 118.424 108.693C118.705 108.975 119.087 109.133 119.484 109.133H121.078C121.243 109.778 121.619 110.35 122.145 110.759C122.671 111.167 123.318 111.389 123.984 111.389C124.651 111.389 125.298 111.167 125.824 110.759C126.35 110.35 126.725 109.778 126.891 109.133H131.578C131.743 109.778 132.119 110.35 132.645 110.759C133.171 111.167 133.818 111.389 134.484 111.389C135.151 111.389 135.798 111.167 136.324 110.759C136.85 110.35 137.225 109.778 137.391 109.133H138.984C139.382 109.133 139.764 108.975 140.045 108.693C140.326 108.412 140.484 108.031 140.484 107.633V101.633C140.484 101.537 140.466 101.441 140.431 101.352ZM123.984 109.883C123.688 109.883 123.398 109.795 123.151 109.63C122.904 109.465 122.712 109.231 122.599 108.957C122.485 108.683 122.455 108.381 122.513 108.09C122.571 107.799 122.714 107.532 122.924 107.322C123.133 107.112 123.401 106.97 123.692 106.912C123.983 106.854 124.284 106.883 124.558 106.997C124.832 107.111 125.067 107.303 125.232 107.549C125.396 107.796 125.484 108.086 125.484 108.383C125.484 108.781 125.326 109.162 125.045 109.443C124.764 109.725 124.382 109.883 123.984 109.883ZM119.484 103.133V97.1328H132.984V103.133H119.484ZM134.484 109.883C134.188 109.883 133.898 109.795 133.651 109.63C133.404 109.465 133.212 109.231 133.099 108.957C132.985 108.683 132.955 108.381 133.013 108.09C133.071 107.799 133.214 107.532 133.424 107.322C133.633 107.112 133.901 106.97 134.192 106.912C134.483 106.854 134.784 106.883 135.058 106.997C135.332 107.111 135.567 107.303 135.732 107.549C135.896 107.796 135.984 108.086 135.984 108.383C135.984 108.781 135.826 109.162 135.545 109.443C135.264 109.725 134.882 109.883 134.484 109.883ZM134.484 100.883V98.6328H137.726L138.626 100.883H134.484Z" fill="#EF5237"/>
</g>
<path d="M161.078 107.883L164.776 97.6973H166.608L170.279 107.883H168.632L167.729 105.237H163.621L162.691 107.883H161.078ZM164.079 103.945H167.285L166.67 102.141C166.533 101.721 166.387 101.272 166.232 100.794C166.077 100.315 165.9 99.7458 165.699 99.085C165.494 99.7458 165.314 100.315 165.159 100.794C165.004 101.272 164.856 101.721 164.715 102.141L164.079 103.945ZM174.791 108.047C173.57 108.047 172.606 107.739 171.899 107.124C171.198 106.504 170.847 105.657 170.847 104.581H172.364C172.369 105.251 172.583 105.775 173.007 106.153C173.435 106.532 174.03 106.721 174.791 106.721C175.484 106.721 176.037 106.575 176.452 106.283C176.871 105.987 177.081 105.59 177.081 105.094C177.081 104.702 176.931 104.385 176.63 104.144C176.334 103.897 175.832 103.69 175.126 103.521L174.012 103.255C172.982 103.009 172.23 102.667 171.756 102.229C171.286 101.787 171.052 101.213 171.052 100.507C171.052 99.9098 171.202 99.388 171.503 98.9414C171.804 98.4948 172.225 98.1484 172.768 97.9023C173.314 97.6562 173.952 97.5332 174.682 97.5332C175.78 97.5332 176.653 97.8203 177.3 98.3945C177.951 98.9688 178.293 99.7526 178.325 100.746H176.855C176.819 100.158 176.605 99.6979 176.213 99.3652C175.821 99.028 175.304 98.8594 174.661 98.8594C174.046 98.8594 173.542 99.0075 173.15 99.3037C172.758 99.5954 172.562 99.9714 172.562 100.432C172.562 100.801 172.713 101.102 173.014 101.334C173.314 101.562 173.813 101.76 174.511 101.929L175.611 102.188C176.632 102.43 177.384 102.779 177.867 103.234C178.355 103.69 178.599 104.283 178.599 105.012C178.599 105.622 178.441 106.156 178.127 106.611C177.812 107.067 177.37 107.42 176.801 107.671C176.231 107.922 175.561 108.047 174.791 108.047ZM179.152 107.883L182.851 97.6973H184.683L188.354 107.883H186.706L185.804 105.237H181.695L180.766 107.883H179.152ZM182.153 103.945H185.359L184.744 102.141C184.607 101.721 184.462 101.272 184.307 100.794C184.152 100.315 183.974 99.7458 183.773 99.085C183.568 99.7458 183.388 100.315 183.233 100.794C183.078 101.272 182.93 101.721 182.789 102.141L182.153 103.945ZM189.406 107.883V97.6973H193.18C194.269 97.6973 195.132 97.9821 195.771 98.5518C196.409 99.1214 196.728 99.8939 196.728 100.869C196.728 101.521 196.579 102.086 196.283 102.564C195.987 103.038 195.57 103.405 195.032 103.665C194.494 103.92 193.861 104.048 193.132 104.048H190.924V107.883H189.406ZM190.924 102.735H193.104C193.761 102.735 194.278 102.569 194.656 102.236C195.039 101.899 195.23 101.443 195.23 100.869C195.23 100.295 195.039 99.8438 194.656 99.5156C194.278 99.1829 193.761 99.0166 193.104 99.0166H190.924V102.735ZM201.417 103.091C201.417 102.312 201.485 101.509 201.622 100.685C201.763 99.8597 201.955 99.0781 202.196 98.3398C202.442 97.597 202.727 96.9613 203.051 96.4326H204.452C204.133 97.0934 203.855 97.8021 203.618 98.5586C203.381 99.3151 203.197 100.081 203.064 100.855C202.937 101.63 202.873 102.375 202.873 103.091C202.873 104.052 203.003 105.019 203.263 105.989C203.522 106.96 203.919 108.013 204.452 109.147H203.051C201.962 107.293 201.417 105.274 201.417 103.091ZM209.08 108.047C208.328 108.047 207.676 107.899 207.125 107.603C206.578 107.306 206.154 106.901 205.854 106.386C205.553 105.871 205.402 105.285 205.402 104.629H206.899C206.899 105.308 207.089 105.837 207.467 106.215C207.85 106.593 208.378 106.782 209.053 106.782C209.7 106.782 210.224 106.618 210.625 106.29C211.031 105.962 211.233 105.522 211.233 104.971C211.233 104.465 211.017 104.059 210.584 103.754C210.156 103.444 209.59 103.289 208.889 103.289H208.041V102.052H208.889C209.508 102.052 210.007 101.91 210.386 101.628C210.769 101.345 210.96 100.969 210.96 100.5C210.96 99.9714 210.782 99.5544 210.427 99.249C210.071 98.9437 209.602 98.791 209.019 98.791C208.417 98.791 207.941 98.9596 207.59 99.2969C207.243 99.6341 207.07 100.099 207.07 100.691H205.614C205.614 100.076 205.758 99.5316 206.045 99.0576C206.332 98.5791 206.731 98.2054 207.241 97.9365C207.752 97.6676 208.346 97.5332 209.025 97.5332C209.673 97.5332 210.251 97.6562 210.762 97.9023C211.272 98.1439 211.673 98.4811 211.965 98.9141C212.261 99.3424 212.409 99.8324 212.409 100.384C212.409 100.922 212.241 101.389 211.903 101.785C211.566 102.177 211.113 102.451 210.543 102.605V102.626C211.213 102.731 211.744 103.004 212.136 103.446C212.528 103.888 212.724 104.41 212.724 105.012C212.724 105.604 212.566 106.128 212.252 106.584C211.938 107.04 211.505 107.397 210.953 107.657C210.406 107.917 209.782 108.047 209.08 108.047ZM217.659 108.047C216.871 108.047 216.189 107.833 215.615 107.404C215.046 106.976 214.606 106.37 214.296 105.586C213.986 104.798 213.831 103.868 213.831 102.797C213.831 101.721 213.986 100.789 214.296 100.001C214.606 99.2126 215.046 98.6042 215.615 98.1758C216.189 97.7474 216.871 97.5332 217.659 97.5332C218.443 97.5332 219.12 97.7474 219.689 98.1758C220.264 98.6042 220.706 99.2126 221.016 100.001C221.326 100.789 221.48 101.721 221.48 102.797C221.48 103.868 221.326 104.798 221.016 105.586C220.706 106.37 220.264 106.976 219.689 107.404C219.12 107.833 218.443 108.047 217.659 108.047ZM217.659 106.755C218.397 106.755 218.979 106.404 219.402 105.702C219.831 104.996 220.045 104.027 220.045 102.797C220.045 101.562 219.831 100.591 219.402 99.8848C218.979 99.1784 218.397 98.8252 217.659 98.8252C216.916 98.8252 216.331 99.1784 215.902 99.8848C215.479 100.591 215.267 101.562 215.267 102.797C215.267 104.027 215.479 104.996 215.902 105.702C216.331 106.404 216.916 106.755 217.659 106.755ZM227.339 102.154V103.426H222.82V102.154H227.339ZM228.494 105.511V104.294L233.238 97.6973H235.098V104.239H236.581V105.511H235.098V107.883H233.655V105.511H228.494ZM233.655 104.239V99.29H233.642L230.101 104.226V104.239H233.655ZM241.052 108.026C240.373 108.026 239.767 107.892 239.233 107.623C238.705 107.35 238.281 106.976 237.962 106.502C237.647 106.023 237.477 105.479 237.449 104.868H238.933C238.978 105.415 239.197 105.866 239.589 106.222C239.985 106.573 240.475 106.748 241.059 106.748C241.674 106.748 242.171 106.541 242.549 106.126C242.932 105.711 243.123 105.18 243.123 104.533C243.123 103.891 242.938 103.362 242.569 102.947C242.2 102.528 241.719 102.318 241.127 102.318C240.607 102.318 240.161 102.425 239.787 102.64C239.413 102.849 239.154 103.155 239.008 103.556H237.579L237.914 97.6973H244.005V98.9961H239.274L239.049 101.997H239.062C239.66 101.364 240.423 101.047 241.353 101.047C241.972 101.047 242.524 101.197 243.007 101.498C243.494 101.794 243.877 102.204 244.155 102.729C244.438 103.248 244.579 103.84 244.579 104.506C244.579 105.194 244.431 105.802 244.135 106.331C243.843 106.86 243.433 107.274 242.904 107.575C242.376 107.876 241.758 108.026 241.052 108.026ZM249.282 107.883V100.664H250.684V101.874C250.907 101.427 251.21 101.09 251.593 100.862C251.976 100.634 252.39 100.521 252.837 100.521C253.329 100.521 253.76 100.646 254.129 100.896C254.503 101.147 254.765 101.466 254.915 101.854C255.111 101.462 255.407 101.143 255.804 100.896C256.205 100.646 256.672 100.521 257.205 100.521C257.652 100.521 258.057 100.618 258.422 100.814C258.786 101.01 259.076 101.302 259.29 101.689C259.504 102.072 259.611 102.553 259.611 103.132V107.883H258.162V103.255C258.162 102.74 258.019 102.366 257.731 102.134C257.444 101.901 257.105 101.785 256.713 101.785C256.23 101.785 255.849 101.936 255.571 102.236C255.293 102.533 255.154 102.911 255.154 103.371V107.883H253.732V103.159C253.732 102.744 253.598 102.412 253.329 102.161C253.065 101.91 252.728 101.785 252.317 101.785C251.898 101.785 251.527 101.933 251.203 102.229C250.884 102.526 250.725 102.959 250.725 103.528V107.883H249.282ZM261.245 107.883V100.664H262.688V107.883H261.245ZM261.963 99.4199C261.708 99.4199 261.491 99.3356 261.313 99.167C261.14 98.9938 261.054 98.7842 261.054 98.5381C261.054 98.2874 261.14 98.0778 261.313 97.9092C261.491 97.736 261.708 97.6494 261.963 97.6494C262.218 97.6494 262.435 97.736 262.612 97.9092C262.79 98.0778 262.879 98.2874 262.879 98.5381C262.879 98.7842 262.79 98.9938 262.612 99.167C262.435 99.3356 262.218 99.4199 261.963 99.4199ZM265.764 103.727V107.883H264.321V100.664H265.736V101.751C266.229 100.931 266.955 100.521 267.917 100.521C268.414 100.521 268.858 100.63 269.25 100.849C269.646 101.063 269.959 101.382 270.187 101.806C270.414 102.229 270.528 102.756 270.528 103.385V107.883H269.086V103.562C269.086 102.984 268.947 102.549 268.669 102.257C268.391 101.961 268.004 101.812 267.507 101.812C267.015 101.812 266.6 101.965 266.263 102.271C265.93 102.571 265.764 103.057 265.764 103.727ZM274.828 108.054C274.277 108.054 273.78 107.965 273.338 107.787C272.896 107.609 272.538 107.345 272.265 106.994C271.996 106.643 271.845 106.208 271.813 105.688H273.235C273.317 106.5 273.839 106.905 274.801 106.905C275.257 106.905 275.617 106.812 275.881 106.625C276.15 106.438 276.284 106.201 276.284 105.914C276.284 105.668 276.188 105.472 275.997 105.326C275.806 105.176 275.555 105.066 275.245 104.998L274.049 104.731C272.668 104.431 271.978 103.743 271.978 102.667C271.978 102.029 272.23 101.509 272.736 101.108C273.247 100.707 273.914 100.507 274.739 100.507C275.555 100.507 276.225 100.719 276.749 101.143C277.278 101.562 277.551 102.136 277.569 102.865H276.188C276.184 102.514 276.052 102.225 275.792 101.997C275.532 101.765 275.188 101.648 274.76 101.648C274.35 101.648 274.024 101.744 273.782 101.936C273.541 102.127 273.42 102.362 273.42 102.64C273.42 102.886 273.511 103.084 273.693 103.234C273.88 103.385 274.135 103.496 274.459 103.569L275.689 103.843C276.391 103.998 276.909 104.237 277.241 104.561C277.574 104.884 277.74 105.308 277.74 105.832C277.74 106.292 277.613 106.689 277.357 107.021C277.107 107.35 276.763 107.605 276.325 107.787C275.888 107.965 275.389 108.054 274.828 108.054ZM278.561 109.893C279.094 108.758 279.488 107.705 279.743 106.734C280.003 105.764 280.133 104.798 280.133 103.836C280.133 103.12 280.067 102.375 279.935 101.601C279.807 100.826 279.625 100.06 279.388 99.3037C279.155 98.5472 278.88 97.8385 278.561 97.1777H279.962C280.281 97.7064 280.563 98.3421 280.81 99.085C281.056 99.8232 281.247 100.605 281.384 101.43C281.525 102.255 281.596 103.057 281.596 103.836C281.596 106.019 281.051 108.038 279.962 109.893H278.561Z" fill="#333333"/>
<rect x="344" y="81.8984" width="98" height="25" rx="12.5" fill="#ECFDF5"/>
<g clipPath="url(#clip1_2200_1709)">
<path d="M357.875 95.1484L360.5 97.7734L366.5 91.7734" stroke="#059669" stroke-width="1.5" stroke-linecap="round" stroke-linejoin="round"/>
</g>
<path d="M374.738 99.8984L378.437 89.7129H380.269L383.939 99.8984H382.292L381.39 97.2529H377.281L376.352 99.8984H374.738ZM377.739 95.9609H380.945L380.33 94.1562C380.193 93.737 380.048 93.2881 379.893 92.8096C379.738 92.3311 379.56 91.7614 379.359 91.1006C379.154 91.7614 378.974 92.3311 378.819 92.8096C378.664 93.2881 378.516 93.737 378.375 94.1562L377.739 95.9609ZM386.018 99.8984L383.27 92.6797H384.814L386.25 96.6377C386.35 96.9202 386.446 97.2028 386.537 97.4854C386.628 97.7679 386.719 98.0482 386.811 98.3262C386.902 98.0482 386.993 97.7679 387.084 97.4854C387.175 97.2028 387.269 96.9202 387.364 96.6377L388.779 92.6797H390.304L387.549 99.8984H386.018ZM393.271 100.015C392.55 100.015 391.953 99.8324 391.479 99.4678C391.006 99.0986 390.769 98.554 390.769 97.834C390.769 97.2871 390.903 96.8678 391.172 96.5762C391.445 96.2799 391.799 96.068 392.231 95.9404C392.669 95.8128 393.132 95.7194 393.619 95.6602C394.07 95.6055 394.428 95.5599 394.692 95.5234C394.957 95.487 395.144 95.4323 395.253 95.3594C395.367 95.2865 395.424 95.1611 395.424 94.9834V94.9219C395.424 94.571 395.296 94.2839 395.041 94.0605C394.786 93.8327 394.428 93.7188 393.968 93.7188C393.507 93.7188 393.132 93.8304 392.84 94.0537C392.548 94.2725 392.389 94.5482 392.361 94.8809H390.946C390.978 94.1927 391.268 93.6299 391.814 93.1924C392.361 92.7549 393.086 92.5361 393.988 92.5361C394.877 92.5361 395.576 92.7549 396.087 93.1924C396.597 93.6299 396.853 94.2155 396.853 94.9492V99.8984H395.431V98.873H395.403C395.253 99.1647 395.014 99.429 394.686 99.666C394.362 99.8984 393.89 100.015 393.271 100.015ZM393.564 98.8525C394.202 98.8525 394.672 98.6885 394.973 98.3604C395.278 98.0277 395.431 97.6403 395.431 97.1982V96.3506C395.335 96.4281 395.118 96.4987 394.781 96.5625C394.444 96.6217 394.084 96.6787 393.701 96.7334C393.305 96.7926 392.956 96.9043 392.655 97.0684C392.354 97.2324 392.204 97.4967 392.204 97.8613C392.204 98.1712 392.325 98.415 392.566 98.5928C392.812 98.766 393.145 98.8525 393.564 98.8525ZM398.479 99.8984V92.6797H399.922V99.8984H398.479ZM399.197 91.4355C398.942 91.4355 398.726 91.3512 398.548 91.1826C398.375 91.0094 398.288 90.7998 398.288 90.5537C398.288 90.3031 398.375 90.0934 398.548 89.9248C398.726 89.7516 398.942 89.665 399.197 89.665C399.452 89.665 399.669 89.7516 399.847 89.9248C400.024 90.0934 400.113 90.3031 400.113 90.5537C400.113 90.7998 400.024 91.0094 399.847 91.1826C399.669 91.3512 399.452 91.4355 399.197 91.4355ZM402.998 89.7129V99.8984H401.556V89.7129H402.998ZM406.833 100.015C406.113 100.015 405.516 99.8324 405.042 99.4678C404.568 99.0986 404.331 98.554 404.331 97.834C404.331 97.2871 404.465 96.8678 404.734 96.5762C405.008 96.2799 405.361 96.068 405.794 95.9404C406.231 95.8128 406.694 95.7194 407.182 95.6602C407.633 95.6055 407.991 95.5599 408.255 95.5234C408.519 95.487 408.706 95.4323 408.815 95.3594C408.929 95.2865 408.986 95.1611 408.986 94.9834V94.9219C408.986 94.571 408.859 94.2839 408.604 94.0605C408.348 93.8327 407.991 93.7188 407.53 93.7188C407.07 93.7188 406.694 93.8304 406.402 94.0537C406.111 94.2725 405.951 94.5482 405.924 94.8809H404.509C404.541 94.1927 404.83 93.6299 405.377 93.1924C405.924 92.7549 406.648 92.5361 407.551 92.5361C408.439 92.5361 409.139 92.7549 409.649 93.1924C410.16 93.6299 410.415 94.2155 410.415 94.9492V99.8984H408.993V98.873H408.966C408.815 99.1647 408.576 99.429 408.248 99.666C407.924 99.8984 407.453 100.015 406.833 100.015ZM407.127 98.8525C407.765 98.8525 408.234 98.6885 408.535 98.3604C408.84 98.0277 408.993 97.6403 408.993 97.1982V96.3506C408.897 96.4281 408.681 96.4987 408.344 96.5625C408.007 96.6217 407.646 96.6787 407.264 96.7334C406.867 96.7926 406.519 96.9043 406.218 97.0684C405.917 97.2324 405.767 97.4967 405.767 97.8613C405.767 98.1712 405.887 98.415 406.129 98.5928C406.375 98.766 406.708 98.8525 407.127 98.8525ZM415.706 100.042C415.237 100.042 414.806 99.9395 414.414 99.7344C414.027 99.5293 413.712 99.2171 413.471 98.7979H413.457V99.8984H412.042V89.7129H413.484V93.7256H413.498C413.73 93.3245 414.04 93.026 414.428 92.8301C414.815 92.6341 415.243 92.5361 415.713 92.5361C416.333 92.5361 416.877 92.6956 417.347 93.0146C417.816 93.3291 418.181 93.7689 418.44 94.334C418.705 94.8945 418.837 95.5462 418.837 96.2891C418.837 97.0319 418.707 97.6859 418.447 98.251C418.188 98.8115 417.823 99.2513 417.354 99.5703C416.884 99.8848 416.335 100.042 415.706 100.042ZM415.412 98.7979C415.995 98.7979 416.467 98.5837 416.827 98.1553C417.192 97.7269 417.374 97.1048 417.374 96.2891C417.374 95.4733 417.192 94.8512 416.827 94.4229C416.467 93.9899 415.995 93.7734 415.412 93.7734C414.797 93.7734 414.305 94.0036 413.936 94.4639C413.571 94.9196 413.389 95.528 413.389 96.2891C413.389 97.0456 413.571 97.654 413.936 98.1143C414.305 98.57 414.797 98.7979 415.412 98.7979ZM421.551 89.7129V99.8984H420.108V89.7129H421.551ZM426.268 100.062C425.552 100.062 424.937 99.9007 424.422 99.5771C423.911 99.2536 423.517 98.8092 423.239 98.2441C422.966 97.6745 422.829 97.0273 422.829 96.3027C422.829 95.569 422.973 94.9173 423.26 94.3477C423.547 93.778 423.943 93.3314 424.449 93.0078C424.955 92.6797 425.536 92.5156 426.192 92.5156C426.876 92.5156 427.468 92.6751 427.97 92.9941C428.476 93.3132 428.868 93.7575 429.146 94.3271C429.424 94.8923 429.562 95.5462 429.562 96.2891V96.6787H424.251C424.278 97.3304 424.465 97.8568 424.812 98.2578C425.162 98.6589 425.655 98.8594 426.288 98.8594C426.762 98.8594 427.152 98.7523 427.457 98.5381C427.762 98.3239 427.965 98.0459 428.065 97.7041H429.453C429.367 98.1689 429.173 98.5791 428.872 98.9346C428.576 99.29 428.202 99.568 427.751 99.7686C427.304 99.9645 426.81 100.062 426.268 100.062ZM424.265 95.585H428.154C428.095 95.0107 427.892 94.5573 427.546 94.2246C427.2 93.8874 426.753 93.7188 426.206 93.7188C425.659 93.7188 425.213 93.8874 424.866 94.2246C424.524 94.5573 424.324 95.0107 424.265 95.585Z" fill="#059669"/>
<path d="M96 150.867H454" stroke="#E5E5E5"/>
<g clipPath="url(#clip2_2200_1709)">
<path d="M115.5 169.867H113.25V169.117C113.25 168.918 113.171 168.728 113.03 168.587C112.89 168.446 112.699 168.367 112.5 168.367C112.301 168.367 112.11 168.446 111.97 168.587C111.829 168.728 111.75 168.918 111.75 169.117V169.867H104.25V169.117C104.25 168.918 104.171 168.728 104.03 168.587C103.89 168.446 103.699 168.367 103.5 168.367C103.301 168.367 103.11 168.446 102.97 168.587C102.829 168.728 102.75 168.918 102.75 169.117V169.867H100.5C100.102 169.867 99.7206 170.025 99.4393 170.307C99.158 170.588 99 170.969 99 171.367V186.367C99 186.765 99.158 187.147 99.4393 187.428C99.7206 187.709 100.102 187.867 100.5 187.867H115.5C115.898 187.867 116.279 187.709 116.561 187.428C116.842 187.147 117 186.765 117 186.367V171.367C117 170.969 116.842 170.588 116.561 170.307C116.279 170.025 115.898 169.867 115.5 169.867ZM103.875 184.117C103.652 184.117 103.435 184.051 103.25 183.928C103.065 183.804 102.921 183.628 102.836 183.423C102.75 183.217 102.728 182.991 102.772 182.773C102.815 182.554 102.922 182.354 103.08 182.197C103.237 182.039 103.437 181.932 103.656 181.889C103.874 181.845 104.1 181.868 104.306 181.953C104.511 182.038 104.687 182.182 104.81 182.367C104.934 182.552 105 182.77 105 182.992C105 183.291 104.881 183.577 104.67 183.788C104.46 183.999 104.173 184.117 103.875 184.117ZM108 184.117C107.777 184.117 107.56 184.051 107.375 183.928C107.19 183.804 107.046 183.628 106.961 183.423C106.875 183.217 106.853 182.991 106.897 182.773C106.94 182.554 107.047 182.354 107.205 182.197C107.362 182.039 107.562 181.932 107.781 181.889C107.999 181.845 108.225 181.868 108.431 181.953C108.636 182.038 108.812 182.182 108.935 182.367C109.059 182.552 109.125 182.77 109.125 182.992C109.125 183.291 109.006 183.577 108.795 183.788C108.585 183.999 108.298 184.117 108 184.117ZM108 180.367C107.777 180.367 107.56 180.301 107.375 180.178C107.19 180.054 107.046 179.878 106.961 179.673C106.875 179.467 106.853 179.241 106.897 179.023C106.94 178.804 107.047 178.604 107.205 178.447C107.362 178.289 107.562 178.182 107.781 178.139C107.999 178.095 108.225 178.118 108.431 178.203C108.636 178.288 108.812 178.432 108.935 178.617C109.059 178.802 109.125 179.02 109.125 179.242C109.125 179.541 109.006 179.827 108.795 180.038C108.585 180.249 108.298 180.367 108 180.367ZM112.125 184.117C111.902 184.117 111.685 184.051 111.5 183.928C111.315 183.804 111.171 183.628 111.086 183.423C111 183.217 110.978 182.991 111.022 182.773C111.065 182.554 111.172 182.354 111.33 182.197C111.487 182.039 111.687 181.932 111.906 181.889C112.124 181.845 112.35 181.868 112.556 181.953C112.761 182.038 112.937 182.182 113.06 182.367C113.184 182.552 113.25 182.77 113.25 182.992C113.25 183.291 113.131 183.577 112.92 183.788C112.71 183.999 112.423 184.117 112.125 184.117ZM112.125 180.367C111.902 180.367 111.685 180.301 111.5 180.178C111.315 180.054 111.171 179.878 111.086 179.673C111 179.467 110.978 179.241 111.022 179.023C111.065 178.804 111.172 178.604 111.33 178.447C111.487 178.289 111.687 178.182 111.906 178.139C112.124 178.095 112.35 178.118 112.556 178.203C112.761 178.288 112.937 178.432 113.06 178.617C113.184 178.802 113.25 179.02 113.25 179.242C113.25 179.541 113.131 179.827 112.92 180.038C112.71 180.249 112.423 180.367 112.125 180.367ZM115.5 174.367H100.5V171.367H102.75V172.117C102.75 172.316 102.829 172.507 102.97 172.648C103.11 172.788 103.301 172.867 103.5 172.867C103.699 172.867 103.89 172.788 104.03 172.648C104.171 172.507 104.25 172.316 104.25 172.117V171.367H111.75V172.117C111.75 172.316 111.829 172.507 111.97 172.648C112.11 172.788 112.301 172.867 112.5 172.867C112.699 172.867 112.89 172.788 113.03 172.648C113.171 172.507 113.25 172.316 113.25 172.117V171.367H115.5V174.367Z" fill="#666666"/>
</g>
<path d="M136.457 184.531C135.236 184.531 134.272 184.224 133.565 183.608C132.864 182.989 132.513 182.141 132.513 181.065H134.03C134.035 181.735 134.249 182.259 134.673 182.638C135.101 183.016 135.696 183.205 136.457 183.205C137.15 183.205 137.703 183.059 138.118 182.768C138.537 182.471 138.747 182.075 138.747 181.578C138.747 181.186 138.597 180.869 138.296 180.628C138 180.382 137.498 180.174 136.792 180.006L135.678 179.739C134.648 179.493 133.896 179.151 133.422 178.714C132.952 178.272 132.718 177.698 132.718 176.991C132.718 176.394 132.868 175.872 133.169 175.426C133.47 174.979 133.891 174.633 134.434 174.387C134.98 174.141 135.618 174.018 136.348 174.018C137.446 174.018 138.319 174.305 138.966 174.879C139.618 175.453 139.959 176.237 139.991 177.23H138.521C138.485 176.643 138.271 176.182 137.879 175.85C137.487 175.512 136.97 175.344 136.327 175.344C135.712 175.344 135.208 175.492 134.816 175.788C134.424 176.08 134.229 176.456 134.229 176.916C134.229 177.285 134.379 177.586 134.68 177.818C134.98 178.046 135.479 178.244 136.177 178.413L137.277 178.673C138.298 178.914 139.05 179.263 139.533 179.719C140.021 180.174 140.265 180.767 140.265 181.496C140.265 182.107 140.107 182.64 139.793 183.096C139.479 183.551 139.036 183.905 138.467 184.155C137.897 184.406 137.227 184.531 136.457 184.531ZM144.681 184.531C143.993 184.531 143.389 184.372 142.869 184.053C142.354 183.734 141.953 183.292 141.666 182.727C141.379 182.157 141.235 181.505 141.235 180.771C141.235 180.029 141.379 179.372 141.666 178.803C141.958 178.233 142.361 177.789 142.876 177.47C143.391 177.146 143.993 176.984 144.681 176.984C145.255 176.984 145.768 177.098 146.219 177.326C146.674 177.549 147.044 177.859 147.326 178.256C147.609 178.652 147.78 179.106 147.839 179.616H146.403C146.33 179.211 146.148 178.878 145.856 178.618C145.565 178.358 145.175 178.229 144.688 178.229C144.063 178.229 143.576 178.459 143.225 178.919C142.874 179.379 142.698 179.997 142.698 180.771C142.698 181.537 142.874 182.148 143.225 182.604C143.576 183.059 144.063 183.287 144.688 183.287C145.184 183.287 145.567 183.162 145.836 182.911C146.105 182.656 146.287 182.316 146.383 181.893H147.839C147.784 182.394 147.616 182.845 147.333 183.246C147.05 183.643 146.681 183.957 146.226 184.189C145.77 184.417 145.255 184.531 144.681 184.531ZM150.512 180.211V184.367H149.069V174.182H150.512V178.188C151.008 177.399 151.726 177.005 152.665 177.005C153.162 177.005 153.606 177.114 153.998 177.333C154.395 177.547 154.707 177.866 154.935 178.29C155.162 178.714 155.276 179.24 155.276 179.869V184.367H153.834V180.047C153.834 179.468 153.695 179.033 153.417 178.741C153.139 178.445 152.752 178.297 152.255 178.297C151.763 178.297 151.348 178.45 151.011 178.755C150.678 179.056 150.512 179.541 150.512 180.211ZM159.986 184.531C159.271 184.531 158.656 184.369 158.141 184.046C157.63 183.722 157.236 183.278 156.958 182.713C156.685 182.143 156.548 181.496 156.548 180.771C156.548 180.038 156.691 179.386 156.979 178.816C157.266 178.247 157.662 177.8 158.168 177.477C158.674 177.148 159.255 176.984 159.911 176.984C160.595 176.984 161.187 177.144 161.688 177.463C162.194 177.782 162.586 178.226 162.864 178.796C163.142 179.361 163.281 180.015 163.281 180.758V181.147H157.97C157.997 181.799 158.184 182.326 158.53 182.727C158.881 183.128 159.373 183.328 160.007 183.328C160.481 183.328 160.87 183.221 161.176 183.007C161.481 182.793 161.684 182.515 161.784 182.173H163.172C163.085 182.638 162.892 183.048 162.591 183.403C162.295 183.759 161.921 184.037 161.47 184.237C161.023 184.433 160.529 184.531 159.986 184.531ZM157.983 180.054H161.873C161.814 179.479 161.611 179.026 161.265 178.693C160.918 178.356 160.472 178.188 159.925 178.188C159.378 178.188 158.931 178.356 158.585 178.693C158.243 179.026 158.043 179.479 157.983 180.054ZM167.308 184.511C166.679 184.511 166.13 184.354 165.66 184.039C165.191 183.72 164.826 183.28 164.566 182.72C164.307 182.155 164.177 181.501 164.177 180.758C164.177 180.015 164.307 179.363 164.566 178.803C164.831 178.238 165.198 177.798 165.667 177.483C166.136 177.164 166.681 177.005 167.301 177.005C167.77 177.005 168.199 177.103 168.586 177.299C168.973 177.495 169.283 177.793 169.516 178.194H169.529V174.182H170.972V184.367H169.557V183.267H169.543C169.301 183.686 168.985 183.998 168.593 184.203C168.205 184.408 167.777 184.511 167.308 184.511ZM167.602 183.267C168.217 183.267 168.707 183.039 169.071 182.583C169.44 182.123 169.625 181.514 169.625 180.758C169.625 179.997 169.44 179.388 169.071 178.933C168.707 178.472 168.217 178.242 167.602 178.242C167.018 178.242 166.544 178.459 166.18 178.892C165.82 179.32 165.64 179.942 165.64 180.758C165.64 181.574 165.82 182.196 166.18 182.624C166.544 183.052 167.018 183.267 167.602 183.267ZM175.21 184.511C174.718 184.511 174.273 184.404 173.877 184.189C173.485 183.971 173.173 183.649 172.94 183.226C172.713 182.802 172.599 182.275 172.599 181.646V177.148H174.041V181.469C174.041 182.048 174.18 182.485 174.458 182.781C174.736 183.073 175.126 183.219 175.627 183.219C176.115 183.219 176.525 183.068 176.857 182.768C177.195 182.462 177.363 181.975 177.363 181.305V177.148H178.806V184.367H177.391V183.28C176.898 184.101 176.172 184.511 175.21 184.511ZM181.875 174.182V184.367H180.433V174.182H181.875ZM186.592 184.531C185.876 184.531 185.261 184.369 184.746 184.046C184.236 183.722 183.841 183.278 183.563 182.713C183.29 182.143 183.153 181.496 183.153 180.771C183.153 180.038 183.297 179.386 183.584 178.816C183.871 178.247 184.268 177.8 184.773 177.477C185.279 177.148 185.86 176.984 186.517 176.984C187.2 176.984 187.793 177.144 188.294 177.463C188.8 177.782 189.192 178.226 189.47 178.796C189.748 179.361 189.887 180.015 189.887 180.758V181.147H184.575C184.603 181.799 184.789 182.326 185.136 182.727C185.487 183.128 185.979 183.328 186.612 183.328C187.086 183.328 187.476 183.221 187.781 183.007C188.087 182.793 188.289 182.515 188.39 182.173H189.777C189.691 182.638 189.497 183.048 189.196 183.403C188.9 183.759 188.526 184.037 188.075 184.237C187.629 184.433 187.134 184.531 186.592 184.531ZM184.589 180.054H188.479C188.419 179.479 188.216 179.026 187.87 178.693C187.524 178.356 187.077 178.188 186.53 178.188C185.983 178.188 185.537 178.356 185.19 178.693C184.849 179.026 184.648 179.479 184.589 180.054ZM197.974 177.148V178.338H196.504V184.367H195.062V178.338H193.77V177.148H195.062V175.979C195.062 175.41 195.239 174.968 195.595 174.653C195.955 174.339 196.461 174.182 197.112 174.182H197.974V175.371H197.338C197.033 175.371 196.816 175.435 196.688 175.562C196.565 175.69 196.504 175.907 196.504 176.212V177.148H197.974ZM202.034 184.531C201.346 184.531 200.742 184.372 200.223 184.053C199.703 183.734 199.298 183.292 199.006 182.727C198.719 182.161 198.575 181.51 198.575 180.771C198.575 180.024 198.719 179.368 199.006 178.803C199.298 178.233 199.703 177.789 200.223 177.47C200.742 177.146 201.346 176.984 202.034 176.984C202.722 176.984 203.324 177.146 203.839 177.47C204.358 177.789 204.762 178.233 205.049 178.803C205.34 179.368 205.486 180.024 205.486 180.771C205.486 181.51 205.34 182.161 205.049 182.727C204.762 183.292 204.358 183.734 203.839 184.053C203.324 184.372 202.722 184.531 202.034 184.531ZM202.034 183.287C202.654 183.287 203.142 183.059 203.497 182.604C203.853 182.148 204.03 181.537 204.03 180.771C204.03 179.997 203.85 179.379 203.49 178.919C203.135 178.459 202.649 178.229 202.034 178.229C201.419 178.229 200.931 178.459 200.571 178.919C200.216 179.375 200.038 179.992 200.038 180.771C200.038 181.542 200.216 182.155 200.571 182.61C200.927 183.062 201.414 183.287 202.034 183.287ZM206.765 184.367V177.148H208.146V178.317H208.173C208.305 177.921 208.512 177.613 208.795 177.395C209.082 177.171 209.456 177.06 209.916 177.06C210.025 177.06 210.126 177.064 210.217 177.073C210.308 177.082 210.383 177.089 210.442 177.094V178.44C210.388 178.427 210.29 178.413 210.148 178.399C210.007 178.381 209.852 178.372 209.684 178.372C209.278 178.372 208.929 178.513 208.638 178.796C208.351 179.078 208.207 179.514 208.207 180.102V184.367H206.765ZM216.301 174.182V184.367H214.858V174.182H216.301ZM220.136 184.483C219.416 184.483 218.819 184.301 218.345 183.937C217.871 183.567 217.634 183.023 217.634 182.303C217.634 181.756 217.768 181.337 218.037 181.045C218.311 180.749 218.664 180.537 219.097 180.409C219.534 180.282 219.997 180.188 220.484 180.129C220.936 180.074 221.293 180.029 221.558 179.992C221.822 179.956 222.009 179.901 222.118 179.828C222.232 179.755 222.289 179.63 222.289 179.452V179.391C222.289 179.04 222.161 178.753 221.906 178.529C221.651 178.301 221.293 178.188 220.833 178.188C220.373 178.188 219.997 178.299 219.705 178.522C219.413 178.741 219.254 179.017 219.227 179.35H217.812C217.843 178.661 218.133 178.099 218.68 177.661C219.227 177.224 219.951 177.005 220.854 177.005C221.742 177.005 222.442 177.224 222.952 177.661C223.463 178.099 223.718 178.684 223.718 179.418V184.367H222.296V183.342H222.269C222.118 183.633 221.879 183.898 221.551 184.135C221.227 184.367 220.756 184.483 220.136 184.483ZM220.43 183.321C221.068 183.321 221.537 183.157 221.838 182.829C222.143 182.496 222.296 182.109 222.296 181.667V180.819C222.2 180.897 221.984 180.967 221.646 181.031C221.309 181.09 220.949 181.147 220.566 181.202C220.17 181.261 219.821 181.373 219.521 181.537C219.22 181.701 219.069 181.965 219.069 182.33C219.069 182.64 219.19 182.884 219.432 183.062C219.678 183.235 220.01 183.321 220.43 183.321ZM228.824 177.148V178.338H227.361V182.46C227.361 182.729 227.416 182.916 227.525 183.021C227.635 183.125 227.833 183.178 228.12 183.178H228.824V184.367H227.915C226.58 184.367 225.912 183.793 225.912 182.645V178.338H224.641V177.148H225.912V175.18H227.361V177.148H228.824ZM232.926 184.531C232.21 184.531 231.595 184.369 231.08 184.046C230.57 183.722 230.175 183.278 229.897 182.713C229.624 182.143 229.487 181.496 229.487 180.771C229.487 180.038 229.631 179.386 229.918 178.816C230.205 178.247 230.602 177.8 231.107 177.477C231.613 177.148 232.194 176.984 232.851 176.984C233.534 176.984 234.127 177.144 234.628 177.463C235.134 177.782 235.526 178.226 235.804 178.796C236.082 179.361 236.221 180.015 236.221 180.758V181.147H230.909C230.937 181.799 231.123 182.326 231.47 182.727C231.821 183.128 232.313 183.328 232.946 183.328C233.42 183.328 233.81 183.221 234.115 183.007C234.421 182.793 234.623 182.515 234.724 182.173H236.111C236.025 182.638 235.831 183.048 235.53 183.403C235.234 183.759 234.86 184.037 234.409 184.237C233.963 184.433 233.468 184.531 232.926 184.531ZM230.923 180.054H234.812C234.753 179.479 234.55 179.026 234.204 178.693C233.858 178.356 233.411 178.188 232.864 178.188C232.317 178.188 231.871 178.356 231.524 178.693C231.183 179.026 230.982 179.479 230.923 180.054ZM237.472 184.367V177.148H238.853V178.317H238.88C239.012 177.921 239.219 177.613 239.502 177.395C239.789 177.171 240.163 177.06 240.623 177.06C240.732 177.06 240.833 177.064 240.924 177.073C241.015 177.082 241.09 177.089 241.149 177.094V178.44C241.095 178.427 240.997 178.413 240.855 178.399C240.714 178.381 240.559 178.372 240.391 178.372C239.985 178.372 239.636 178.513 239.345 178.796C239.058 179.078 238.914 179.514 238.914 180.102V184.367H237.472Z" fill="#333333"/>
<rect x="420.25" y="169.867" width="33.75" height="18" rx="9" fill="#E5E5E5"/>
<circle cx="430.375" cy="178.867" r="9.7875" fill="white" stroke="#CCCCCC" stroke-width="0.675"/>
<path d="M100.225 226.867H96.9297V216.682H100.327C101.325 216.682 102.184 216.887 102.904 217.297C103.629 217.707 104.185 218.293 104.572 219.054C104.96 219.81 105.153 220.713 105.153 221.761C105.153 222.813 104.957 223.723 104.565 224.488C104.178 225.249 103.615 225.837 102.877 226.252C102.143 226.662 101.259 226.867 100.225 226.867ZM98.4473 225.548H100.129C101.318 225.548 102.198 225.213 102.768 224.543C103.342 223.873 103.629 222.946 103.629 221.761C103.629 220.58 103.346 219.66 102.781 218.999C102.216 218.334 101.366 218.001 100.231 218.001H98.4473V225.548ZM108.722 226.983C108.002 226.983 107.405 226.801 106.931 226.437C106.457 226.067 106.22 225.523 106.22 224.803C106.22 224.256 106.354 223.837 106.623 223.545C106.896 223.249 107.25 223.037 107.683 222.909C108.12 222.782 108.583 222.688 109.07 222.629C109.521 222.574 109.879 222.529 110.144 222.492C110.408 222.456 110.595 222.401 110.704 222.328C110.818 222.255 110.875 222.13 110.875 221.952V221.891C110.875 221.54 110.747 221.253 110.492 221.029C110.237 220.801 109.879 220.688 109.419 220.688C108.959 220.688 108.583 220.799 108.291 221.022C107.999 221.241 107.84 221.517 107.812 221.85H106.397C106.429 221.161 106.719 220.599 107.266 220.161C107.812 219.724 108.537 219.505 109.439 219.505C110.328 219.505 111.028 219.724 111.538 220.161C112.049 220.599 112.304 221.184 112.304 221.918V226.867H110.882V225.842H110.854C110.704 226.133 110.465 226.398 110.137 226.635C109.813 226.867 109.341 226.983 108.722 226.983ZM109.016 225.821C109.654 225.821 110.123 225.657 110.424 225.329C110.729 224.996 110.882 224.609 110.882 224.167V223.319C110.786 223.397 110.57 223.467 110.232 223.531C109.895 223.59 109.535 223.647 109.152 223.702C108.756 223.761 108.407 223.873 108.106 224.037C107.806 224.201 107.655 224.465 107.655 224.83C107.655 225.14 107.776 225.384 108.018 225.562C108.264 225.735 108.596 225.821 109.016 225.821ZM117.41 219.648V220.838H115.947V224.96C115.947 225.229 116.002 225.416 116.111 225.521C116.221 225.625 116.419 225.678 116.706 225.678H117.41V226.867H116.501C115.166 226.867 114.498 226.293 114.498 225.145V220.838H113.227V219.648H114.498V217.68H115.947V219.648H117.41ZM121.512 227.031C120.796 227.031 120.181 226.869 119.666 226.546C119.156 226.222 118.761 225.778 118.483 225.213C118.21 224.643 118.073 223.996 118.073 223.271C118.073 222.538 118.217 221.886 118.504 221.316C118.791 220.747 119.188 220.3 119.693 219.977C120.199 219.648 120.78 219.484 121.437 219.484C122.12 219.484 122.713 219.644 123.214 219.963C123.72 220.282 124.112 220.726 124.39 221.296C124.668 221.861 124.807 222.515 124.807 223.258V223.647H119.495C119.522 224.299 119.709 224.826 120.056 225.227C120.407 225.628 120.899 225.828 121.532 225.828C122.006 225.828 122.396 225.721 122.701 225.507C123.007 225.293 123.209 225.015 123.31 224.673H124.697C124.611 225.138 124.417 225.548 124.116 225.903C123.82 226.259 123.446 226.537 122.995 226.737C122.549 226.933 122.054 227.031 121.512 227.031ZM119.509 222.554H123.398C123.339 221.979 123.136 221.526 122.79 221.193C122.444 220.856 121.997 220.688 121.45 220.688C120.903 220.688 120.457 220.856 120.11 221.193C119.769 221.526 119.568 221.979 119.509 222.554ZM130.173 226.983C129.909 226.983 129.683 226.892 129.496 226.71C129.314 226.523 129.223 226.295 129.223 226.026C129.223 225.762 129.314 225.536 129.496 225.35C129.683 225.163 129.909 225.069 130.173 225.069C130.442 225.069 130.667 225.163 130.85 225.35C131.036 225.536 131.13 225.762 131.13 226.026C131.13 226.295 131.036 226.523 130.85 226.71C130.667 226.892 130.442 226.983 130.173 226.983ZM130.173 221.815C129.909 221.815 129.683 221.724 129.496 221.542C129.314 221.355 129.223 221.127 129.223 220.858C129.223 220.594 129.314 220.368 129.496 220.182C129.683 219.995 129.909 219.901 130.173 219.901C130.442 219.901 130.667 219.995 130.85 220.182C131.036 220.368 131.13 220.594 131.13 220.858C131.13 221.127 131.036 221.355 130.85 221.542C130.667 221.724 130.442 221.815 130.173 221.815Z" fill="#333333"/>
<path d="M140 221.367C140 213.359 146.492 206.867 154.5 206.867H251.5C259.508 206.867 266 213.359 266 221.367C266 229.375 259.508 235.867 251.5 235.867H154.5C146.492 235.867 140 229.375 140 221.367Z" fill="black" fill-opacity="0.04"/>
<path d="M152.328 218.015V216.682H160.333V218.015H157.1V226.867H155.575V218.015H152.328ZM162.917 227.031C162.229 227.031 161.625 226.872 161.105 226.553C160.586 226.234 160.18 225.792 159.889 225.227C159.602 224.661 159.458 224.01 159.458 223.271C159.458 222.524 159.602 221.868 159.889 221.303C160.18 220.733 160.586 220.289 161.105 219.97C161.625 219.646 162.229 219.484 162.917 219.484C163.605 219.484 164.207 219.646 164.722 219.97C165.241 220.289 165.645 220.733 165.932 221.303C166.223 221.868 166.369 222.524 166.369 223.271C166.369 224.01 166.223 224.661 165.932 225.227C165.645 225.792 165.241 226.234 164.722 226.553C164.207 226.872 163.605 227.031 162.917 227.031ZM162.917 225.787C163.537 225.787 164.024 225.559 164.38 225.104C164.735 224.648 164.913 224.037 164.913 223.271C164.913 222.497 164.733 221.879 164.373 221.419C164.018 220.959 163.532 220.729 162.917 220.729C162.302 220.729 161.814 220.959 161.454 221.419C161.099 221.875 160.921 222.492 160.921 223.271C160.921 224.042 161.099 224.655 161.454 225.11C161.81 225.562 162.297 225.787 162.917 225.787ZM170.423 227.011C169.794 227.011 169.245 226.854 168.775 226.539C168.306 226.22 167.941 225.78 167.682 225.22C167.422 224.655 167.292 224.001 167.292 223.258C167.292 222.515 167.422 221.863 167.682 221.303C167.946 220.738 168.313 220.298 168.782 219.983C169.252 219.664 169.796 219.505 170.416 219.505C170.885 219.505 171.314 219.603 171.701 219.799C172.089 219.995 172.398 220.293 172.631 220.694H172.645V216.682H174.087V226.867H172.672V225.767H172.658C172.417 226.186 172.1 226.498 171.708 226.703C171.321 226.908 170.892 227.011 170.423 227.011ZM170.717 225.767C171.332 225.767 171.822 225.539 172.187 225.083C172.556 224.623 172.74 224.014 172.74 223.258C172.74 222.497 172.556 221.888 172.187 221.433C171.822 220.972 171.332 220.742 170.717 220.742C170.133 220.742 169.66 220.959 169.295 221.392C168.935 221.82 168.755 222.442 168.755 223.258C168.755 224.074 168.935 224.696 169.295 225.124C169.66 225.552 170.133 225.767 170.717 225.767ZM177.915 226.983C177.195 226.983 176.598 226.801 176.124 226.437C175.65 226.067 175.413 225.523 175.413 224.803C175.413 224.256 175.548 223.837 175.816 223.545C176.09 223.249 176.443 223.037 176.876 222.909C177.313 222.782 177.776 222.688 178.264 222.629C178.715 222.574 179.073 222.529 179.337 222.492C179.601 222.456 179.788 222.401 179.897 222.328C180.011 222.255 180.068 222.13 180.068 221.952V221.891C180.068 221.54 179.941 221.253 179.686 221.029C179.43 220.801 179.073 220.688 178.612 220.688C178.152 220.688 177.776 220.799 177.484 221.022C177.193 221.241 177.033 221.517 177.006 221.85H175.591C175.623 221.161 175.912 220.599 176.459 220.161C177.006 219.724 177.73 219.505 178.633 219.505C179.521 219.505 180.221 219.724 180.731 220.161C181.242 220.599 181.497 221.184 181.497 221.918V226.867H180.075V225.842H180.048C179.897 226.133 179.658 226.398 179.33 226.635C179.007 226.867 178.535 226.983 177.915 226.983ZM178.209 225.821C178.847 225.821 179.316 225.657 179.617 225.329C179.923 224.996 180.075 224.609 180.075 224.167V223.319C179.979 223.397 179.763 223.467 179.426 223.531C179.089 223.59 178.729 223.647 178.346 223.702C177.949 223.761 177.601 223.873 177.3 224.037C176.999 224.201 176.849 224.465 176.849 224.83C176.849 225.14 176.969 225.384 177.211 225.562C177.457 225.735 177.79 225.821 178.209 225.821ZM182.892 229.725V228.508H183.671C183.899 228.508 184.083 228.442 184.225 228.31C184.37 228.182 184.498 227.97 184.607 227.674L184.936 226.819L182.146 219.648H183.691L185.134 223.606C185.229 223.875 185.323 224.146 185.414 224.42C185.505 224.689 185.594 224.958 185.681 225.227C185.767 224.958 185.856 224.689 185.947 224.42C186.043 224.146 186.139 223.875 186.234 223.606L187.656 219.648H189.181L185.899 228.132C185.494 229.194 184.797 229.725 183.808 229.725H182.892ZM188.784 228.856L189.352 225.363H190.828L189.816 228.856H188.784ZM195.736 226.867V216.682H197.418L201.308 222.841C201.426 223.032 201.588 223.303 201.793 223.654C201.998 224.005 202.203 224.361 202.408 224.721C202.395 224.352 202.383 223.978 202.374 223.6C202.369 223.217 202.367 222.932 202.367 222.745V216.682H203.892V226.867H202.196L198.717 221.364C198.576 221.141 198.37 220.808 198.102 220.366C197.837 219.92 197.536 219.407 197.199 218.828C197.222 219.425 197.236 219.94 197.24 220.373C197.249 220.801 197.254 221.13 197.254 221.357V226.867H195.736ZM208.731 227.031C208.043 227.031 207.439 226.872 206.92 226.553C206.4 226.234 205.995 225.792 205.703 225.227C205.416 224.661 205.272 224.01 205.272 223.271C205.272 222.524 205.416 221.868 205.703 221.303C205.995 220.733 206.4 220.289 206.92 219.97C207.439 219.646 208.043 219.484 208.731 219.484C209.42 219.484 210.021 219.646 210.536 219.97C211.056 220.289 211.459 220.733 211.746 221.303C212.038 221.868 212.184 222.524 212.184 223.271C212.184 224.01 212.038 224.661 211.746 225.227C211.459 225.792 211.056 226.234 210.536 226.553C210.021 226.872 209.42 227.031 208.731 227.031ZM208.731 225.787C209.351 225.787 209.839 225.559 210.194 225.104C210.55 224.648 210.728 224.037 210.728 223.271C210.728 222.497 210.548 221.879 210.188 221.419C209.832 220.959 209.347 220.729 208.731 220.729C208.116 220.729 207.629 220.959 207.269 221.419C206.913 221.875 206.735 222.492 206.735 223.271C206.735 224.042 206.913 224.655 207.269 225.11C207.624 225.562 208.112 225.787 208.731 225.787ZM215.287 226.867L212.539 219.648H214.084L215.52 223.606C215.62 223.889 215.715 224.172 215.807 224.454C215.898 224.737 215.989 225.017 216.08 225.295C216.171 225.017 216.262 224.737 216.354 224.454C216.445 224.172 216.538 223.889 216.634 223.606L218.049 219.648H219.573L216.818 226.867H215.287ZM223.449 224.495V223.278L228.193 216.682H230.053V223.224H231.536V224.495H230.053V226.867H228.61V224.495H223.449ZM228.61 223.224V218.274H228.597L225.056 223.21V223.224H228.61Z" fill="#666666"/>
<g clipPath="url(#clip3_2200_1709)">
<path d="M251 219.367L246 224.367L241 219.367" stroke="#999999" stroke-width="1.5" stroke-linecap="round" stroke-linejoin="round"/>
</g>
<path d="M96.3281 263.015V261.682H104.333V263.015H101.1V271.867H99.5752V263.015H96.3281ZM105.481 271.867V264.648H106.924V271.867H105.481ZM106.199 263.404C105.944 263.404 105.728 263.32 105.55 263.151C105.377 262.978 105.29 262.769 105.29 262.522C105.29 262.272 105.377 262.062 105.55 261.894C105.728 261.72 105.944 261.634 106.199 261.634C106.454 261.634 106.671 261.72 106.849 261.894C107.026 262.062 107.115 262.272 107.115 262.522C107.115 262.769 107.026 262.978 106.849 263.151C106.671 263.32 106.454 263.404 106.199 263.404ZM108.558 271.867V264.648H109.959V265.858C110.182 265.412 110.485 265.075 110.868 264.847C111.251 264.619 111.666 264.505 112.112 264.505C112.604 264.505 113.035 264.63 113.404 264.881C113.778 265.132 114.04 265.451 114.19 265.838C114.386 265.446 114.683 265.127 115.079 264.881C115.48 264.63 115.947 264.505 116.48 264.505C116.927 264.505 117.333 264.603 117.697 264.799C118.062 264.995 118.351 265.286 118.565 265.674C118.78 266.057 118.887 266.537 118.887 267.116V271.867H117.438V267.239C117.438 266.724 117.294 266.351 117.007 266.118C116.72 265.886 116.38 265.77 115.988 265.77C115.505 265.77 115.125 265.92 114.847 266.221C114.569 266.517 114.43 266.895 114.43 267.355V271.867H113.008V267.144C113.008 266.729 112.873 266.396 112.604 266.146C112.34 265.895 112.003 265.77 111.593 265.77C111.174 265.77 110.802 265.918 110.479 266.214C110.16 266.51 110 266.943 110 267.513V271.867H108.558ZM123.604 272.031C122.888 272.031 122.273 271.869 121.758 271.546C121.247 271.222 120.853 270.778 120.575 270.213C120.302 269.643 120.165 268.996 120.165 268.271C120.165 267.538 120.309 266.886 120.596 266.316C120.883 265.747 121.279 265.3 121.785 264.977C122.291 264.648 122.872 264.484 123.528 264.484C124.212 264.484 124.804 264.644 125.306 264.963C125.812 265.282 126.203 265.726 126.481 266.296C126.759 266.861 126.898 267.515 126.898 268.258V268.647H121.587C121.614 269.299 121.801 269.826 122.147 270.227C122.498 270.628 122.991 270.828 123.624 270.828C124.098 270.828 124.488 270.721 124.793 270.507C125.098 270.293 125.301 270.015 125.401 269.673H126.789C126.702 270.138 126.509 270.548 126.208 270.903C125.912 271.259 125.538 271.537 125.087 271.737C124.64 271.933 124.146 272.031 123.604 272.031ZM121.601 267.554H125.49C125.431 266.979 125.228 266.526 124.882 266.193C124.535 265.856 124.089 265.688 123.542 265.688C122.995 265.688 122.549 265.856 122.202 266.193C121.86 266.526 121.66 266.979 121.601 267.554ZM132.265 271.983C132 271.983 131.775 271.892 131.588 271.71C131.406 271.523 131.314 271.295 131.314 271.026C131.314 270.762 131.406 270.536 131.588 270.35C131.775 270.163 132 270.069 132.265 270.069C132.534 270.069 132.759 270.163 132.941 270.35C133.128 270.536 133.222 270.762 133.222 271.026C133.222 271.295 133.128 271.523 132.941 271.71C132.759 271.892 132.534 271.983 132.265 271.983ZM132.265 266.815C132 266.815 131.775 266.724 131.588 266.542C131.406 266.355 131.314 266.127 131.314 265.858C131.314 265.594 131.406 265.368 131.588 265.182C131.775 264.995 132 264.901 132.265 264.901C132.534 264.901 132.759 264.995 132.941 265.182C133.128 265.368 133.222 265.594 133.222 265.858C133.222 266.127 133.128 266.355 132.941 266.542C132.759 266.724 132.534 266.815 132.265 266.815Z" fill="#333333"/>
<path d="M142 266.367C142 258.359 148.492 251.867 156.5 251.867H254.5C262.508 251.867 269 258.359 269 266.367C269 274.375 262.508 280.867 254.5 280.867H156.5C148.492 280.867 142 274.375 142 266.367Z" fill="black" fill-opacity="0.04"/>
<path d="M158.272 261.682V271.867H156.803V263.172H156.796L154.308 264.799V263.35L156.844 261.682H158.272ZM163.358 272.031C162.652 272.031 162.028 271.908 161.485 271.662C160.948 271.416 160.526 271.076 160.221 270.644C159.915 270.211 159.763 269.714 159.763 269.153C159.763 268.698 159.861 268.285 160.057 267.916C160.253 267.542 160.519 267.237 160.856 267C161.198 266.758 161.586 266.61 162.019 266.556C161.458 266.451 161.002 266.193 160.651 265.783C160.3 265.373 160.125 264.865 160.125 264.259C160.125 263.73 160.264 263.261 160.542 262.851C160.82 262.436 161.203 262.11 161.69 261.873C162.178 261.636 162.734 261.518 163.358 261.518C163.983 261.518 164.536 261.636 165.02 261.873C165.507 262.105 165.89 262.429 166.168 262.844C166.446 263.258 166.585 263.73 166.585 264.259C166.585 264.86 166.407 265.368 166.052 265.783C165.701 266.193 165.25 266.451 164.698 266.556C165.131 266.615 165.516 266.765 165.854 267.007C166.195 267.244 166.464 267.549 166.66 267.923C166.856 268.292 166.954 268.702 166.954 269.153C166.954 269.714 166.801 270.211 166.496 270.644C166.191 271.076 165.767 271.416 165.225 271.662C164.682 271.908 164.06 272.031 163.358 272.031ZM163.358 270.794C163.987 270.794 164.491 270.637 164.869 270.322C165.247 270.008 165.437 269.589 165.437 269.064C165.437 268.531 165.241 268.094 164.849 267.752C164.461 267.406 163.965 267.232 163.358 267.232C162.748 267.232 162.246 267.406 161.854 267.752C161.463 268.094 161.267 268.531 161.267 269.064C161.267 269.584 161.456 270.003 161.834 270.322C162.217 270.637 162.725 270.794 163.358 270.794ZM163.358 266.009C163.882 266.009 164.306 265.861 164.63 265.564C164.958 265.264 165.122 264.867 165.122 264.375C165.122 263.892 164.96 263.502 164.637 263.206C164.313 262.91 163.887 262.762 163.358 262.762C162.825 262.762 162.397 262.91 162.073 263.206C161.75 263.502 161.588 263.892 161.588 264.375C161.588 264.863 161.75 265.257 162.073 265.558C162.401 265.858 162.83 266.009 163.358 266.009ZM169.101 270.315C168.836 270.315 168.611 270.224 168.424 270.042C168.242 269.855 168.15 269.627 168.15 269.358C168.15 269.094 168.242 268.868 168.424 268.682C168.611 268.495 168.836 268.401 169.101 268.401C169.369 268.401 169.595 268.495 169.777 268.682C169.964 268.868 170.058 269.094 170.058 269.358C170.058 269.627 169.964 269.855 169.777 270.042C169.595 270.224 169.369 270.315 169.101 270.315ZM169.101 265.147C168.836 265.147 168.611 265.056 168.424 264.874C168.242 264.687 168.15 264.459 168.15 264.19C168.15 263.926 168.242 263.701 168.424 263.514C168.611 263.327 168.836 263.233 169.101 263.233C169.369 263.233 169.595 263.327 169.777 263.514C169.964 263.701 170.058 263.926 170.058 264.19C170.058 264.459 169.964 264.687 169.777 264.874C169.595 265.056 169.369 265.147 169.101 265.147ZM175.089 272.031C174.3 272.031 173.619 271.817 173.045 271.389C172.475 270.96 172.035 270.354 171.726 269.57C171.416 268.782 171.261 267.852 171.261 266.781C171.261 265.706 171.416 264.774 171.726 263.985C172.035 263.197 172.475 262.589 173.045 262.16C173.619 261.732 174.3 261.518 175.089 261.518C175.873 261.518 176.549 261.732 177.119 262.16C177.693 262.589 178.135 263.197 178.445 263.985C178.755 264.774 178.91 265.706 178.91 266.781C178.91 267.852 178.755 268.782 178.445 269.57C178.135 270.354 177.693 270.96 177.119 271.389C176.549 271.817 175.873 272.031 175.089 272.031ZM175.089 270.739C175.827 270.739 176.408 270.388 176.832 269.687C177.26 268.98 177.475 268.012 177.475 266.781C177.475 265.546 177.26 264.576 176.832 263.869C176.408 263.163 175.827 262.81 175.089 262.81C174.346 262.81 173.76 263.163 173.332 263.869C172.908 264.576 172.696 265.546 172.696 266.781C172.696 268.012 172.908 268.98 173.332 269.687C173.76 270.388 174.346 270.739 175.089 270.739ZM183.853 272.031C183.064 272.031 182.383 271.817 181.809 271.389C181.239 270.96 180.799 270.354 180.489 269.57C180.179 268.782 180.024 267.852 180.024 266.781C180.024 265.706 180.179 264.774 180.489 263.985C180.799 263.197 181.239 262.589 181.809 262.16C182.383 261.732 183.064 261.518 183.853 261.518C184.636 261.518 185.313 261.732 185.883 262.16C186.457 262.589 186.899 263.197 187.209 263.985C187.519 264.774 187.674 265.706 187.674 266.781C187.674 267.852 187.519 268.782 187.209 269.57C186.899 270.354 186.457 270.96 185.883 271.389C185.313 271.817 184.636 272.031 183.853 272.031ZM183.853 270.739C184.591 270.739 185.172 270.388 185.596 269.687C186.024 268.98 186.238 268.012 186.238 266.781C186.238 265.546 186.024 264.576 185.596 263.869C185.172 263.163 184.591 262.81 183.853 262.81C183.11 262.81 182.524 263.163 182.096 263.869C181.672 264.576 181.46 265.546 181.46 266.781C181.46 268.012 181.672 268.98 182.096 269.687C182.524 270.388 183.11 270.739 183.853 270.739ZM196.868 266.139V267.41H192.35V266.139H196.868ZM205.263 261.682V271.867H203.793V263.172H203.786L201.298 264.799V263.35L203.834 261.682H205.263ZM210.349 272.031C209.642 272.031 209.018 271.908 208.476 271.662C207.938 271.416 207.516 271.076 207.211 270.644C206.906 270.211 206.753 269.714 206.753 269.153C206.753 268.698 206.851 268.285 207.047 267.916C207.243 267.542 207.509 267.237 207.847 267C208.188 266.758 208.576 266.61 209.009 266.556C208.448 266.451 207.993 266.193 207.642 265.783C207.291 265.373 207.115 264.865 207.115 264.259C207.115 263.73 207.254 263.261 207.532 262.851C207.81 262.436 208.193 262.11 208.681 261.873C209.168 261.636 209.724 261.518 210.349 261.518C210.973 261.518 211.527 261.636 212.01 261.873C212.497 262.105 212.88 262.429 213.158 262.844C213.436 263.258 213.575 263.73 213.575 264.259C213.575 264.86 213.397 265.368 213.042 265.783C212.691 266.193 212.24 266.451 211.688 266.556C212.121 266.615 212.507 266.765 212.844 267.007C213.186 267.244 213.454 267.549 213.65 267.923C213.846 268.292 213.944 268.702 213.944 269.153C213.944 269.714 213.792 270.211 213.486 270.644C213.181 271.076 212.757 271.416 212.215 271.662C211.673 271.908 211.05 272.031 210.349 272.031ZM210.349 270.794C210.978 270.794 211.481 270.637 211.859 270.322C212.238 270.008 212.427 269.589 212.427 269.064C212.427 268.531 212.231 268.094 211.839 267.752C211.451 267.406 210.955 267.232 210.349 267.232C209.738 267.232 209.237 267.406 208.845 267.752C208.453 268.094 208.257 268.531 208.257 269.064C208.257 269.584 208.446 270.003 208.824 270.322C209.207 270.637 209.715 270.794 210.349 270.794ZM210.349 266.009C210.873 266.009 211.297 265.861 211.62 265.564C211.948 265.264 212.112 264.867 212.112 264.375C212.112 263.892 211.951 263.502 211.627 263.206C211.303 262.91 210.877 262.762 210.349 262.762C209.815 262.762 209.387 262.91 209.063 263.206C208.74 263.502 208.578 263.892 208.578 264.375C208.578 264.863 208.74 265.257 209.063 265.558C209.392 265.858 209.82 266.009 210.349 266.009ZM216.091 270.315C215.826 270.315 215.601 270.224 215.414 270.042C215.232 269.855 215.141 269.627 215.141 269.358C215.141 269.094 215.232 268.868 215.414 268.682C215.601 268.495 215.826 268.401 216.091 268.401C216.36 268.401 216.585 268.495 216.768 268.682C216.954 268.868 217.048 269.094 217.048 269.358C217.048 269.627 216.954 269.855 216.768 270.042C216.585 270.224 216.36 270.315 216.091 270.315ZM216.091 265.147C215.826 265.147 215.601 265.056 215.414 264.874C215.232 264.687 215.141 264.459 215.141 264.19C215.141 263.926 215.232 263.701 215.414 263.514C215.601 263.327 215.826 263.233 216.091 263.233C216.36 263.233 216.585 263.327 216.768 263.514C216.954 263.701 217.048 263.926 217.048 264.19C217.048 264.459 216.954 264.687 216.768 264.874C216.585 265.056 216.36 265.147 216.091 265.147ZM221.977 272.031C221.225 272.031 220.573 271.883 220.021 271.587C219.475 271.291 219.051 270.885 218.75 270.37C218.449 269.855 218.299 269.27 218.299 268.613H219.796C219.796 269.292 219.985 269.821 220.363 270.199C220.746 270.577 221.275 270.767 221.949 270.767C222.596 270.767 223.12 270.603 223.521 270.274C223.927 269.946 224.13 269.507 224.13 268.955C224.13 268.449 223.913 268.044 223.48 267.738C223.052 267.428 222.487 267.273 221.785 267.273H220.938V266.036H221.785C222.405 266.036 222.904 265.895 223.282 265.612C223.665 265.33 223.856 264.954 223.856 264.484C223.856 263.956 223.679 263.539 223.323 263.233C222.968 262.928 222.498 262.775 221.915 262.775C221.313 262.775 220.837 262.944 220.486 263.281C220.14 263.618 219.967 264.083 219.967 264.676H218.511C218.511 264.061 218.654 263.516 218.941 263.042C219.229 262.563 219.627 262.19 220.138 261.921C220.648 261.652 221.243 261.518 221.922 261.518C222.569 261.518 223.148 261.641 223.658 261.887C224.169 262.128 224.57 262.465 224.861 262.898C225.158 263.327 225.306 263.817 225.306 264.368C225.306 264.906 225.137 265.373 224.8 265.77C224.463 266.161 224.009 266.435 223.439 266.59V266.61C224.109 266.715 224.64 266.989 225.032 267.431C225.424 267.873 225.62 268.395 225.62 268.996C225.62 269.589 225.463 270.113 225.148 270.568C224.834 271.024 224.401 271.382 223.85 271.642C223.303 271.901 222.678 272.031 221.977 272.031ZM230.556 272.031C229.767 272.031 229.086 271.817 228.512 271.389C227.942 270.96 227.502 270.354 227.192 269.57C226.882 268.782 226.728 267.852 226.728 266.781C226.728 265.706 226.882 264.774 227.192 263.985C227.502 263.197 227.942 262.589 228.512 262.16C229.086 261.732 229.767 261.518 230.556 261.518C231.34 261.518 232.016 261.732 232.586 262.16C233.16 262.589 233.602 263.197 233.912 263.985C234.222 264.774 234.377 265.706 234.377 266.781C234.377 267.852 234.222 268.782 233.912 269.57C233.602 270.354 233.16 270.96 232.586 271.389C232.016 271.817 231.34 272.031 230.556 272.031ZM230.556 270.739C231.294 270.739 231.875 270.388 232.299 269.687C232.727 268.98 232.941 268.012 232.941 266.781C232.941 265.546 232.727 264.576 232.299 263.869C231.875 263.163 231.294 262.81 230.556 262.81C229.813 262.81 229.227 263.163 228.799 263.869C228.375 264.576 228.163 265.546 228.163 266.781C228.163 268.012 228.375 268.98 228.799 269.687C229.227 270.388 229.813 270.739 230.556 270.739Z" fill="#666666"/>
<g clipPath="url(#clip4_2200_1709)">
<path d="M254 264.367L249 269.367L244 264.367" stroke="#999999" stroke-width="1.5" stroke-linecap="round" stroke-linejoin="round"/>
</g>
<defs>
<clipPath id="clip0_2200_1709">
<rect width="24" height="24" fill="white" transform="translate(116.484 90.3828)"/>
</clipPath>
<clipPath id="clip1_2200_1709">
<rect width="12" height="12" fill="white" transform="translate(356 88.3984)"/>
</clipPath>
<clipPath id="clip2_2200_1709">
<rect width="24" height="24" fill="white" transform="translate(96 166.867)"/>
</clipPath>
<clipPath id="clip3_2200_1709">
<rect width="16" height="16" fill="white" transform="translate(238 213.367)"/>
</clipPath>
<clipPath id="clip4_2200_1709">
<rect width="16" height="16" fill="white" transform="translate(241 258.367)"/>
</clipPath>
</defs>
</svg>
