<svg width="16" height="16" viewBox="0 0 16 16" fill="none" xmlns="http://www.w3.org/2000/svg">
<g clip-path="url(#clip0_2200_4855)">
<path d="M13.3661 7.84082L6.36608 15.3408C6.29189 15.42 6.19398 15.4729 6.0871 15.4915C5.98022 15.5101 5.87019 15.4935 5.77359 15.4441C5.677 15.3947 5.59909 15.3153 5.55162 15.2177C5.50415 15.1201 5.4897 15.0098 5.51045 14.9033L6.4267 10.3202L2.82483 8.96769C2.74747 8.93876 2.67849 8.89111 2.62404 8.82901C2.56959 8.76691 2.53138 8.69229 2.5128 8.61181C2.49423 8.53134 2.49589 8.44751 2.51761 8.36783C2.53934 8.28815 2.58047 8.2151 2.63733 8.15519L9.63733 0.655191C9.71151 0.576025 9.80942 0.523135 9.9163 0.504501C10.0232 0.485867 10.1332 0.502501 10.2298 0.551892C10.3264 0.601282 10.4043 0.680751 10.4518 0.778304C10.4992 0.875858 10.5137 0.986204 10.493 1.09269L9.5742 5.68082L13.1761 7.03144C13.2529 7.06057 13.3213 7.10817 13.3753 7.17002C13.4293 7.23187 13.4673 7.30608 13.4858 7.38609C13.5044 7.4661 13.5029 7.54944 13.4816 7.62874C13.4603 7.70805 13.4197 7.78089 13.3636 7.84082H13.3661Z" fill="#EF5237"/>
</g>
<defs>
<clipPath id="clip0_2200_4855">
<rect width="16" height="16" fill="white"/>
</clipPath>
</defs>
</svg>
