<svg width="28" height="28" viewBox="0 0 28 28" fill="none" xmlns="http://www.w3.org/2000/svg">
<path d="M18.6667 3.5C20.2138 3.5 21.6975 4.11458 22.7915 5.20854C23.8854 6.30251 24.5 7.78624 24.5 9.33333V18.6667C24.5 20.2138 23.8854 21.6975 22.7915 22.7915C21.6975 23.8854 20.2138 24.5 18.6667 24.5H9.33333C7.78624 24.5 6.30251 23.8854 5.20854 22.7915C4.11458 21.6975 3.5 20.2138 3.5 18.6667V9.33333C3.5 7.78624 4.11458 6.30251 5.20854 5.20854C6.30251 4.11458 7.78624 3.5 9.33333 3.5H18.6667ZM14 9.33333C12.7623 9.33333 11.5753 9.825 10.7002 10.7002C9.825 11.5753 9.33333 12.7623 9.33333 14C9.33333 15.2377 9.825 16.4247 10.7002 17.2998C11.5753 18.175 12.7623 18.6667 14 18.6667C15.2377 18.6667 16.4247 18.175 17.2998 17.2998C18.175 16.4247 18.6667 15.2377 18.6667 14C18.6667 12.7623 18.175 11.5753 17.2998 10.7002C16.4247 9.825 15.2377 9.33333 14 9.33333ZM14 11.6667C14.6188 11.6667 15.2123 11.9125 15.6499 12.3501C16.0875 12.7877 16.3333 13.3812 16.3333 14C16.3333 14.6188 16.0875 15.2123 15.6499 15.6499C15.2123 16.0875 14.6188 16.3333 14 16.3333C13.3812 16.3333 12.7877 16.0875 12.3501 15.6499C11.9125 15.2123 11.6667 14.6188 11.6667 14C11.6667 13.3812 11.9125 12.7877 12.3501 12.3501C12.7877 11.9125 13.3812 11.6667 14 11.6667ZM19.25 7.58333C18.9406 7.58333 18.6438 7.70625 18.425 7.92504C18.2062 8.14383 18.0833 8.44058 18.0833 8.75C18.0833 9.05942 18.2062 9.35616 18.425 9.57496C18.6438 9.79375 18.9406 9.91667 19.25 9.91667C19.5594 9.91667 19.8562 9.79375 20.075 9.57496C20.2938 9.35616 20.4167 9.05942 20.4167 8.75C20.4167 8.44058 20.2938 8.14383 20.075 7.92504C19.8562 7.70625 19.5594 7.58333 19.25 7.58333Z" fill="#868C98"/>
</svg>
