<svg width="16" height="16" viewBox="0 0 16 16" fill="none" xmlns="http://www.w3.org/2000/svg">
<g clipPath="url(#clip0_2200_3555)">
<path d="M13.5 8C13.3687 7.99993 13.2377 8.01038 13.1081 8.03125L10.9681 2.32437C10.9324 2.22909 10.8684 2.14698 10.7848 2.08902C10.7011 2.03106 10.6018 2 10.5 2H8.5C8.36739 2 8.24021 2.05268 8.14645 2.14645C8.05268 2.24021 8 2.36739 8 2.5C8 2.63261 8.05268 2.75979 8.14645 2.85355C8.24021 2.94732 8.36739 3 8.5 3H10.1538L12.1725 8.38313C11.8856 8.56276 11.638 8.79862 11.4446 9.0765C11.2513 9.35438 11.1162 9.66852 11.0475 10H8.53375L6.97125 5.82438C6.93532 5.72859 6.87087 5.64613 6.7866 5.58813C6.70233 5.53012 6.6023 5.49936 6.5 5.5H1.5C1.36739 5.5 1.24021 5.55268 1.14645 5.64645C1.05268 5.74021 1 5.86739 1 6C1 6.13261 1.05268 6.25979 1.14645 6.35355C1.24021 6.44732 1.36739 6.5 1.5 6.5H2V7.33687C1.40201 7.62152 0.896827 8.06964 0.542892 8.62941C0.188958 9.18918 0.000735172 9.83772 0 10.5C0 10.6326 0.0526784 10.7598 0.146447 10.8536C0.240215 10.9473 0.367392 11 0.5 11H1.05C1.16476 11.5651 1.47136 12.0732 1.91787 12.4382C2.36438 12.8031 2.92332 13.0025 3.5 13.0025C4.07668 13.0025 4.63562 12.8031 5.08213 12.4382C5.52864 12.0732 5.83524 11.5651 5.95 11H11.05C11.1446 11.4635 11.3687 11.8906 11.6964 12.2317C12.0241 12.5729 12.4418 12.8141 12.901 12.9273C13.3603 13.0405 13.8423 13.0212 14.2909 12.8714C14.7396 12.7217 15.1366 12.4477 15.4358 12.0813C15.735 11.715 15.9241 11.2712 15.9812 10.8017C16.0383 10.3321 15.961 9.85601 15.7583 9.42863C15.5556 9.00125 15.2358 8.64015 14.836 8.38727C14.4363 8.13439 13.973 8.0001 13.5 8ZM3.5 12C3.18989 11.9999 2.88743 11.9037 2.63425 11.7246C2.38107 11.5455 2.18962 11.2924 2.08625 11H4.91375C4.81038 11.2924 4.61893 11.5455 4.36575 11.7246C4.11257 11.9037 3.81011 11.9999 3.5 12ZM13.5 12C13.1925 11.9997 12.8926 11.9048 12.6408 11.7284C12.389 11.5519 12.1975 11.3023 12.0923 11.0134C11.987 10.7245 11.9731 10.4102 12.0524 10.1131C12.1317 9.81606 12.3004 9.55053 12.5356 9.3525L13.0319 10.6756C13.0549 10.7372 13.0899 10.7936 13.1348 10.8416C13.1796 10.8897 13.2335 10.9284 13.2934 10.9556C13.3532 10.9829 13.4178 10.998 13.4835 11.0003C13.5492 11.0025 13.6147 10.9918 13.6763 10.9688C13.7378 10.9457 13.7942 10.9107 13.8423 10.8659C13.8903 10.821 13.929 10.7671 13.9563 10.7073C13.9835 10.6474 13.9987 10.5828 14.0009 10.5171C14.0032 10.4514 13.9924 10.3859 13.9694 10.3244L13.4719 9H13.5C13.8978 9 14.2794 9.15804 14.5607 9.43934C14.842 9.72064 15 10.1022 15 10.5C15 10.8978 14.842 11.2794 14.5607 11.5607C14.2794 11.842 13.8978 12 13.5 12Z" fill="#999999"/>
</g>
<defs>
<clipPath id="clip0_2200_3555">
<rect width="16" height="16" fill="white"/>
</clipPath>
</defs>
</svg>
