<svg width="16" height="16" viewBox="0 0 16 16" fill="none" xmlns="http://www.w3.org/2000/svg">
<g clip-path="url(#clip0_2200_2578)">
<path d="M12.5 3H8.5V1C8.5 0.867392 8.44732 0.740215 8.35355 0.646447C8.25979 0.552678 8.13261 0.5 8 0.5C7.86739 0.5 7.74021 0.552678 7.64645 0.646447C7.55268 0.740215 7.5 0.867392 7.5 1V3H3.5C2.96957 3 2.46086 3.21071 2.08579 3.58579C1.71071 3.96086 1.5 4.46957 1.5 5V12C1.5 12.5304 1.71071 13.0391 2.08579 13.4142C2.46086 13.7893 2.96957 14 3.5 14H12.5C13.0304 14 13.5391 13.7893 13.9142 13.4142C14.2893 13.0391 14.5 12.5304 14.5 12V5C14.5 4.46957 14.2893 3.96086 13.9142 3.58579C13.5391 3.21071 13.0304 3 12.5 3ZM10.75 6C10.8983 6 11.0433 6.04399 11.1667 6.1264C11.29 6.20881 11.3861 6.32594 11.4429 6.46299C11.4997 6.60003 11.5145 6.75083 11.4856 6.89632C11.4566 7.0418 11.3852 7.17544 11.2803 7.28033C11.1754 7.38522 11.0418 7.45665 10.8963 7.48559C10.7508 7.51453 10.6 7.49968 10.463 7.44291C10.3259 7.38614 10.2088 7.29001 10.1264 7.16668C10.044 7.04334 10 6.89834 10 6.75C10 6.55109 10.079 6.36032 10.2197 6.21967C10.3603 6.07902 10.5511 6 10.75 6ZM6 11.5H5C4.73478 11.5 4.48043 11.3946 4.29289 11.2071C4.10536 11.0196 4 10.7652 4 10.5C4 10.2348 4.10536 9.98043 4.29289 9.79289C4.48043 9.60536 4.73478 9.5 5 9.5H6V11.5ZM5.25 7.5C5.10166 7.5 4.95666 7.45601 4.83332 7.3736C4.70999 7.29119 4.61386 7.17406 4.55709 7.03701C4.50032 6.89997 4.48547 6.74917 4.51441 6.60368C4.54335 6.4582 4.61478 6.32456 4.71967 6.21967C4.82456 6.11478 4.9582 6.04335 5.10368 6.01441C5.24917 5.98547 5.39997 6.00032 5.53701 6.05709C5.67406 6.11386 5.79119 6.20999 5.8736 6.33332C5.95601 6.45666 6 6.60166 6 6.75C6 6.94891 5.92098 7.13968 5.78033 7.28033C5.63968 7.42098 5.44891 7.5 5.25 7.5ZM9 11.5H7V9.5H9V11.5ZM11 11.5H10V9.5H11C11.2652 9.5 11.5196 9.60536 11.7071 9.79289C11.8946 9.98043 12 10.2348 12 10.5C12 10.7652 11.8946 11.0196 11.7071 11.2071C11.5196 11.3946 11.2652 11.5 11 11.5Z" fill="#EF5237"/>
</g>
<defs>
<clipPath id="clip0_2200_2578">
<rect width="16" height="16" fill="white"/>
</clipPath>
</defs>
</svg>
