<svg width="20" height="20" viewBox="0 0 20 20" fill="none" xmlns="http://www.w3.org/2000/svg">
<path d="M7.95626 14.9329C7.60392 15.7032 6.42814 17.5001 3.12423 17.5001C2.95847 17.5001 2.7995 17.4342 2.68229 17.317C2.56508 17.1998 2.49923 17.0409 2.49923 16.8751C2.49923 13.5712 4.2961 12.3954 5.06642 12.0431C5.14111 12.009 5.22177 11.99 5.30381 11.9871C5.38585 11.9842 5.46765 11.9975 5.54455 12.0262C5.62145 12.055 5.69194 12.0986 5.75199 12.1545C5.81204 12.2105 5.86048 12.2777 5.89454 12.3524C5.9286 12.4271 5.94762 12.5078 5.95051 12.5898C5.95339 12.6719 5.94009 12.7537 5.91137 12.8306C5.88264 12.9075 5.83904 12.978 5.78308 13.038C5.72711 13.0981 5.65986 13.1465 5.58517 13.1806C5.08282 13.4095 3.97423 14.1462 3.77892 16.2204C5.85314 16.0251 6.59142 14.9165 6.81876 14.4142C6.85282 14.3395 6.90126 14.2722 6.96131 14.2162C7.02136 14.1603 7.09185 14.1167 7.16875 14.088C7.24565 14.0592 7.32745 14.0459 7.40949 14.0488C7.49153 14.0517 7.5722 14.0707 7.64689 14.1048C7.72158 14.1388 7.78882 14.1873 7.84479 14.2473C7.90076 14.3074 7.94436 14.3779 7.97308 14.4548C8.00181 14.5317 8.01511 14.6135 8.01223 14.6955C8.00934 14.7775 7.99032 14.8582 7.95626 14.9329ZM17.4875 3.68291C17.469 3.37816 17.3396 3.09073 17.1237 2.87485C16.9078 2.65896 16.6204 2.52955 16.3156 2.51103C15.3328 2.45244 12.8211 2.54228 10.7375 4.62587L6.87423 8.49228C6.81621 8.5504 6.74731 8.59652 6.67147 8.62802C6.59563 8.65951 6.51433 8.67576 6.4322 8.67583C6.26635 8.67598 6.10723 8.61023 5.98985 8.49306C5.87248 8.37589 5.80645 8.21689 5.8063 8.05104C5.80616 7.88518 5.8719 7.72607 5.98907 7.60869L8.06407 5.53291C8.10751 5.48921 8.13707 5.43364 8.14902 5.3732C8.16097 5.31275 8.15478 5.25012 8.13124 5.19318C8.10769 5.13624 8.06784 5.08753 8.01669 5.05318C7.96554 5.01882 7.90538 5.00035 7.84376 5.00009H5.80782C5.64317 4.99923 5.47998 5.0311 5.32775 5.09387C5.17553 5.15664 5.0373 5.24905 4.9211 5.36572L2.24142 8.04697C2.07708 8.21119 1.96176 8.41797 1.90841 8.64409C1.85505 8.87021 1.86577 9.10673 1.93936 9.32709C2.01296 9.54746 2.1465 9.74296 2.32502 9.89164C2.50354 10.0403 2.71997 10.1363 2.95001 10.1688L5.95548 10.5884L9.40939 14.0423L9.82892 17.0493C9.86118 17.2794 9.95715 17.4958 10.106 17.6742C10.2548 17.8526 10.4506 17.9857 10.6711 18.0587C10.7996 18.1016 10.9341 18.1235 11.0695 18.1235C11.2335 18.1238 11.396 18.0917 11.5475 18.0289C11.699 17.9662 11.8366 17.8741 11.9524 17.7579L14.6336 15.0782C14.7499 14.9618 14.8421 14.8235 14.9049 14.6713C14.9676 14.5192 14.9997 14.3561 14.9992 14.1915V12.1556C14.9991 12.0938 14.9807 12.0334 14.9463 11.9821C14.9119 11.9308 14.8631 11.8908 14.806 11.8672C14.7489 11.8437 14.6861 11.8376 14.6255 11.8497C14.5649 11.8618 14.5093 11.8915 14.4656 11.9353L12.3899 14.0103C12.3291 14.071 12.2566 14.1186 12.1766 14.1501C12.0967 14.1816 12.0111 14.1962 11.9253 14.1931C11.8394 14.1901 11.7551 14.1693 11.6777 14.1322C11.6002 14.0951 11.5312 14.0424 11.475 13.9774C11.3725 13.8534 11.3204 13.6954 11.3291 13.5347C11.3378 13.374 11.4066 13.2225 11.5219 13.1102L15.3711 9.26103C17.4563 7.17666 17.5461 4.66494 17.4875 3.68134V3.68291Z" fill="white"/>
</svg>
