<svg width="16" height="16" viewBox="0 0 16 16" fill="none" xmlns="http://www.w3.org/2000/svg">
<g clip-path="url(#clip0_2200_4639)">
<path d="M14.4806 5.86312L13.5844 2.725C13.5241 2.51682 13.3981 2.33373 13.2252 2.20306C13.0523 2.07239 12.8417 2.00116 12.625 2H3.375C3.15827 2.00116 2.94773 2.07239 2.77482 2.20306C2.60191 2.33373 2.47591 2.51682 2.41563 2.725L1.51937 5.86312C1.50656 5.90762 1.50004 5.95369 1.5 6V7C1.5 7.38811 1.59036 7.7709 1.76393 8.11803C1.9375 8.46517 2.18951 8.76713 2.5 9V13.5C2.5 13.6326 2.55268 13.7598 2.64645 13.8536C2.74021 13.9473 2.86739 14 3 14H13C13.1326 14 13.2598 13.9473 13.3536 13.8536C13.4473 13.7598 13.5 13.6326 13.5 13.5V9C13.8105 8.76713 14.0625 8.46517 14.2361 8.11803C14.4096 7.7709 14.5 7.38811 14.5 7V6C14.5 5.95369 14.4934 5.90762 14.4806 5.86312ZM5.5 7C5.49991 7.25794 5.4333 7.5115 5.30662 7.73619C5.17993 7.96087 4.99745 8.1491 4.77679 8.28267C4.55613 8.41625 4.30475 8.49067 4.04694 8.49874C3.78912 8.50681 3.53358 8.44826 3.305 8.32875C3.27022 8.30168 3.23196 8.27939 3.19125 8.2625C2.97942 8.12689 2.80509 7.94019 2.6843 7.71958C2.56351 7.49896 2.50013 7.25152 2.5 7V6.5H5.5V7ZM9.5 7C9.5 7.39782 9.34196 7.77936 9.06066 8.06066C8.77936 8.34196 8.39782 8.5 8 8.5C7.60218 8.5 7.22064 8.34196 6.93934 8.06066C6.65804 7.77936 6.5 7.39782 6.5 7V6.5H9.5V7ZM13.5 7C13.4998 7.25158 13.4363 7.49906 13.3154 7.71968C13.1945 7.9403 13.0201 8.12696 12.8081 8.2625C12.7679 8.27943 12.7301 8.30149 12.6956 8.32812C12.4671 8.44776 12.2115 8.50643 11.9537 8.49846C11.6958 8.49049 11.4444 8.41616 11.2236 8.28263C11.0029 8.14911 10.8203 7.96092 10.6936 7.73624C10.5668 7.51155 10.5001 7.25798 10.5 7V6.5H13.5V7Z" fill="#EF5237"/>
</g>
<defs>
<clipPath id="clip0_2200_4639">
<rect width="16" height="16" fill="white"/>
</clipPath>
</defs>
</svg>
