<svg width="566" height="360" viewBox="0 0 566 360" fill="none" xmlns="http://www.w3.org/2000/svg">
<rect width="566" height="360" rx="16" fill="black" fill-opacity="0.04"/>
<g filter="url(#filter0_d_2200_3224)">
<g clipPath="url(#clip0_2200_3224)">
<rect x="92" y="97.8989" width="383" height="117" rx="12" fill="white"/>
<rect x="103.5" y="109.399" width="360" height="55" rx="8.5" fill="#FFFBEB"/>
<rect x="103.5" y="109.399" width="360" height="55" rx="8.5" stroke="white"/>
<rect x="116" y="117.899" width="38" height="38" rx="19" fill="white"/>
<g clipPath="url(#clip1_2200_3224)">
<path d="M141.801 140.655L136.335 131.163C136.198 130.93 136.003 130.737 135.769 130.603C135.535 130.469 135.27 130.399 135.001 130.399C134.731 130.399 134.466 130.469 134.232 130.603C133.998 130.737 133.803 130.93 133.666 131.163L128.201 140.655C128.069 140.88 128 141.135 128 141.396C128 141.656 128.069 141.912 128.201 142.137C128.336 142.371 128.53 142.565 128.765 142.699C128.999 142.833 129.265 142.902 129.535 142.899H140.466C140.736 142.902 141.002 142.832 141.236 142.698C141.47 142.565 141.665 142.371 141.799 142.137C141.931 141.912 142 141.657 142.001 141.396C142.001 141.136 141.932 140.88 141.801 140.655ZM134.501 135.399C134.501 135.266 134.553 135.139 134.647 135.045C134.741 134.952 134.868 134.899 135.001 134.899C135.133 134.899 135.26 134.952 135.354 135.045C135.448 135.139 135.501 135.266 135.501 135.399V137.899C135.501 138.032 135.448 138.159 135.354 138.253C135.26 138.346 135.133 138.399 135.001 138.399C134.868 138.399 134.741 138.346 134.647 138.253C134.553 138.159 134.501 138.032 134.501 137.899V135.399ZM135.001 140.899C134.852 140.899 134.707 140.855 134.584 140.773C134.461 140.69 134.365 140.573 134.308 140.436C134.251 140.299 134.236 140.148 134.265 140.003C134.294 139.857 134.365 139.724 134.47 139.619C134.575 139.514 134.709 139.442 134.854 139.413C135 139.384 135.151 139.399 135.288 139.456C135.425 139.513 135.542 139.609 135.624 139.732C135.707 139.856 135.751 140.001 135.751 140.149C135.751 140.348 135.672 140.539 135.531 140.679C135.39 140.82 135.2 140.899 135.001 140.899Z" fill="#F59E0B"/>
</g>
<path d="M167.291 132.063C166.352 132.063 165.523 131.847 164.803 131.414C164.083 130.981 163.518 130.37 163.107 129.582C162.697 128.793 162.492 127.87 162.492 126.813C162.492 125.747 162.697 124.819 163.107 124.031C163.518 123.242 164.083 122.632 164.803 122.199C165.523 121.766 166.352 121.549 167.291 121.549C168.057 121.549 168.749 121.7 169.369 122C169.989 122.301 170.499 122.725 170.9 123.272C171.306 123.819 171.566 124.464 171.68 125.207H169.841C169.704 124.559 169.41 124.058 168.959 123.703C168.508 123.347 167.956 123.169 167.305 123.169C166.685 123.169 166.149 123.32 165.698 123.621C165.252 123.921 164.908 124.345 164.666 124.892C164.429 125.439 164.311 126.079 164.311 126.813C164.311 127.542 164.429 128.18 164.666 128.727C164.908 129.269 165.252 129.691 165.698 129.992C166.145 130.292 166.68 130.443 167.305 130.443C167.952 130.443 168.501 130.267 168.952 129.917C169.403 129.566 169.702 129.067 169.848 128.419H171.68C171.566 129.162 171.306 129.807 170.9 130.354C170.499 130.896 169.989 131.318 169.369 131.619C168.749 131.915 168.057 132.063 167.291 132.063ZM176.137 132.063C175.426 132.063 174.804 131.906 174.271 131.591C173.737 131.272 173.32 130.83 173.02 130.265C172.723 129.7 172.575 129.044 172.575 128.296C172.575 127.549 172.723 126.893 173.02 126.328C173.32 125.758 173.737 125.314 174.271 124.995C174.804 124.676 175.426 124.516 176.137 124.516C176.843 124.516 177.463 124.676 177.996 124.995C178.534 125.314 178.951 125.758 179.247 126.328C179.548 126.893 179.698 127.549 179.698 128.296C179.698 129.044 179.548 129.7 179.247 130.265C178.951 130.83 178.534 131.272 177.996 131.591C177.463 131.906 176.843 132.063 176.137 132.063ZM176.137 130.621C176.688 130.621 177.128 130.413 177.456 129.999C177.784 129.584 177.948 129.016 177.948 128.296C177.948 127.576 177.784 127.007 177.456 126.587C177.128 126.168 176.688 125.958 176.137 125.958C175.581 125.958 175.139 126.168 174.811 126.587C174.482 127.002 174.318 127.572 174.318 128.296C174.318 129.016 174.482 129.584 174.811 129.999C175.139 130.413 175.581 130.621 176.137 130.621ZM182.617 127.818V131.899H180.895V124.68H182.59V125.788C183.091 124.954 183.829 124.537 184.805 124.537C185.561 124.537 186.179 124.78 186.657 125.268C187.14 125.756 187.382 126.462 187.382 127.387V131.899H185.652V127.661C185.652 127.132 185.525 126.731 185.27 126.458C185.014 126.184 184.657 126.047 184.196 126.047C183.745 126.047 183.369 126.189 183.068 126.471C182.768 126.754 182.617 127.203 182.617 127.818ZM190.643 127.818V131.899H188.92V124.68H190.615V125.788C191.117 124.954 191.855 124.537 192.83 124.537C193.587 124.537 194.204 124.78 194.683 125.268C195.166 125.756 195.407 126.462 195.407 127.387V131.899H193.678V127.661C193.678 127.132 193.55 126.731 193.295 126.458C193.04 126.184 192.682 126.047 192.222 126.047C191.771 126.047 191.395 126.189 191.094 126.471C190.793 126.754 190.643 127.203 190.643 127.818ZM200.131 132.063C199.411 132.063 198.786 131.901 198.258 131.578C197.729 131.254 197.321 130.81 197.034 130.245C196.752 129.675 196.61 129.026 196.61 128.296C196.61 127.563 196.756 126.913 197.048 126.348C197.344 125.778 197.752 125.332 198.271 125.008C198.791 124.68 199.388 124.516 200.062 124.516C200.755 124.516 201.361 124.676 201.881 124.995C202.4 125.314 202.804 125.756 203.091 126.321C203.378 126.881 203.521 127.531 203.521 128.269V128.741H198.299C198.322 129.329 198.495 129.803 198.818 130.163C199.142 130.523 199.593 130.703 200.172 130.703C200.605 130.703 200.963 130.609 201.245 130.422C201.528 130.231 201.719 129.98 201.819 129.67H203.433C203.341 130.14 203.141 130.555 202.831 130.915C202.526 131.275 202.141 131.557 201.676 131.762C201.211 131.963 200.696 132.063 200.131 132.063ZM198.312 127.551H201.867C201.812 127.036 201.626 126.631 201.307 126.334C200.992 126.034 200.587 125.883 200.09 125.883C199.589 125.883 199.181 126.034 198.866 126.334C198.556 126.631 198.372 127.036 198.312 127.551ZM207.89 132.063C207.188 132.063 206.57 131.903 206.037 131.584C205.508 131.265 205.096 130.823 204.8 130.258C204.508 129.693 204.362 129.039 204.362 128.296C204.362 127.554 204.508 126.9 204.8 126.334C205.096 125.765 205.508 125.32 206.037 125.001C206.57 124.678 207.188 124.516 207.89 124.516C208.496 124.516 209.036 124.635 209.51 124.872C209.984 125.104 210.364 125.428 210.651 125.842C210.943 126.252 211.114 126.726 211.164 127.264H209.476C209.412 126.877 209.245 126.562 208.977 126.321C208.712 126.075 208.357 125.952 207.91 125.952C207.345 125.952 206.903 126.164 206.584 126.587C206.265 127.011 206.105 127.581 206.105 128.296C206.105 129.007 206.265 129.575 206.584 129.999C206.903 130.418 207.345 130.627 207.91 130.627C208.361 130.627 208.712 130.509 208.963 130.272C209.214 130.03 209.38 129.709 209.462 129.308H211.164C211.123 129.837 210.957 130.308 210.665 130.723C210.378 131.138 209.995 131.466 209.517 131.708C209.043 131.944 208.5 132.063 207.89 132.063ZM216.134 124.68V126.068H214.664V129.828C214.664 130.087 214.716 130.267 214.821 130.368C214.926 130.463 215.118 130.511 215.396 130.511H216.134V131.899H215.095C214.361 131.899 213.816 131.751 213.461 131.455C213.11 131.158 212.935 130.7 212.935 130.081V126.068H211.677V124.68H212.935V122.711H214.664V124.68H216.134ZM217.221 131.899V124.68H218.943V131.899H217.221ZM218.082 123.607C217.786 123.607 217.54 123.514 217.344 123.327C217.148 123.135 217.05 122.901 217.05 122.623C217.05 122.345 217.148 122.112 217.344 121.925C217.54 121.738 217.786 121.645 218.082 121.645C218.374 121.645 218.618 121.738 218.813 121.925C219.009 122.112 219.107 122.345 219.107 122.623C219.107 122.901 219.009 123.135 218.813 123.327C218.618 123.514 218.374 123.607 218.082 123.607ZM223.701 132.063C222.99 132.063 222.368 131.906 221.835 131.591C221.302 131.272 220.885 130.83 220.584 130.265C220.288 129.7 220.14 129.044 220.14 128.296C220.14 127.549 220.288 126.893 220.584 126.328C220.885 125.758 221.302 125.314 221.835 124.995C222.368 124.676 222.99 124.516 223.701 124.516C224.408 124.516 225.027 124.676 225.561 124.995C226.098 125.314 226.515 125.758 226.812 126.328C227.112 126.893 227.263 127.549 227.263 128.296C227.263 129.044 227.112 129.7 226.812 130.265C226.515 130.83 226.098 131.272 225.561 131.591C225.027 131.906 224.408 132.063 223.701 132.063ZM223.701 130.621C224.253 130.621 224.692 130.413 225.021 129.999C225.349 129.584 225.513 129.016 225.513 128.296C225.513 127.576 225.349 127.007 225.021 126.587C224.692 126.168 224.253 125.958 223.701 125.958C223.145 125.958 222.703 126.168 222.375 126.587C222.047 127.002 221.883 127.572 221.883 128.296C221.883 129.016 222.047 129.584 222.375 129.999C222.703 130.413 223.145 130.621 223.701 130.621ZM230.182 127.818V131.899H228.459V124.68H230.154V125.788C230.656 124.954 231.394 124.537 232.369 124.537C233.126 124.537 233.743 124.78 234.222 125.268C234.705 125.756 234.946 126.462 234.946 127.387V131.899H233.217V127.661C233.217 127.132 233.089 126.731 232.834 126.458C232.579 126.184 232.221 126.047 231.761 126.047C231.31 126.047 230.934 126.189 230.633 126.471C230.332 126.754 230.182 127.203 230.182 127.818ZM239.738 131.899V121.713H241.543V130.333H246.267V131.899H239.738ZM250.58 132.063C249.869 132.063 249.247 131.906 248.714 131.591C248.181 131.272 247.764 130.83 247.463 130.265C247.167 129.7 247.019 129.044 247.019 128.296C247.019 127.549 247.167 126.893 247.463 126.328C247.764 125.758 248.181 125.314 248.714 124.995C249.247 124.676 249.869 124.516 250.58 124.516C251.286 124.516 251.906 124.676 252.439 124.995C252.977 125.314 253.394 125.758 253.69 126.328C253.991 126.893 254.142 127.549 254.142 128.296C254.142 129.044 253.991 129.7 253.69 130.265C253.394 130.83 252.977 131.272 252.439 131.591C251.906 131.906 251.286 132.063 250.58 132.063ZM250.58 130.621C251.132 130.621 251.571 130.413 251.899 129.999C252.228 129.584 252.392 129.016 252.392 128.296C252.392 127.576 252.228 127.007 251.899 126.587C251.571 126.168 251.132 125.958 250.58 125.958C250.024 125.958 249.582 126.168 249.254 126.587C248.926 127.002 248.762 127.572 248.762 128.296C248.762 129.016 248.926 129.584 249.254 129.999C249.582 130.413 250.024 130.621 250.58 130.621ZM258.168 132.07C257.288 132.07 256.552 131.865 255.96 131.455C255.372 131.04 255.051 130.445 254.996 129.67H256.698C256.735 130.021 256.876 130.295 257.122 130.491C257.368 130.682 257.708 130.778 258.141 130.778C258.555 130.778 258.881 130.696 259.118 130.532C259.36 130.368 259.48 130.158 259.48 129.903C259.48 129.684 259.392 129.509 259.214 129.376C259.036 129.244 258.797 129.146 258.496 129.083L257.266 128.83C255.862 128.538 255.16 127.843 255.16 126.745C255.16 126.079 255.424 125.544 255.953 125.138C256.482 124.728 257.186 124.523 258.065 124.523C258.94 124.523 259.651 124.739 260.198 125.172C260.75 125.601 261.035 126.186 261.053 126.929H259.433C259.424 126.606 259.298 126.339 259.057 126.129C258.815 125.92 258.498 125.815 258.106 125.815C257.728 125.815 257.43 125.899 257.211 126.068C256.992 126.236 256.883 126.444 256.883 126.69C256.883 126.904 256.967 127.08 257.136 127.216C257.304 127.348 257.539 127.449 257.84 127.517L259.139 127.784C259.854 127.934 260.381 128.171 260.718 128.495C261.06 128.818 261.23 129.244 261.23 129.773C261.23 130.242 261.098 130.65 260.834 130.997C260.574 131.338 260.214 131.603 259.754 131.79C259.294 131.976 258.765 132.07 258.168 132.07ZM266.351 124.68V126.068H264.881V129.828C264.881 130.087 264.933 130.267 265.038 130.368C265.143 130.463 265.334 130.511 265.612 130.511H266.351V131.899H265.312C264.578 131.899 264.033 131.751 263.678 131.455C263.327 131.158 263.151 130.7 263.151 130.081V126.068H261.894V124.68H263.151V122.711H264.881V124.68H266.351Z" fill="#333333"/>
<path d="M165.82 153.04C164.773 153.04 163.947 152.776 163.342 152.249C162.74 151.717 162.439 150.991 162.439 150.069H163.74C163.744 150.643 163.928 151.092 164.291 151.417C164.658 151.741 165.168 151.903 165.82 151.903C166.414 151.903 166.889 151.778 167.244 151.528C167.604 151.274 167.783 150.934 167.783 150.508C167.783 150.172 167.654 149.901 167.396 149.694C167.143 149.483 166.713 149.305 166.107 149.161L165.152 148.932C164.27 148.721 163.625 148.428 163.219 148.053C162.816 147.674 162.615 147.182 162.615 146.577C162.615 146.065 162.744 145.618 163.002 145.235C163.26 144.852 163.621 144.555 164.086 144.344C164.555 144.133 165.102 144.028 165.727 144.028C166.668 144.028 167.416 144.274 167.971 144.766C168.529 145.258 168.822 145.93 168.85 146.782H167.59C167.559 146.278 167.375 145.883 167.039 145.598C166.703 145.309 166.26 145.165 165.709 145.165C165.182 145.165 164.75 145.292 164.414 145.545C164.078 145.795 163.91 146.118 163.91 146.512C163.91 146.829 164.039 147.086 164.297 147.286C164.555 147.481 164.982 147.651 165.58 147.795L166.523 148.018C167.398 148.225 168.043 148.524 168.457 148.915C168.875 149.305 169.084 149.813 169.084 150.438C169.084 150.961 168.949 151.418 168.68 151.809C168.41 152.2 168.031 152.502 167.543 152.717C167.055 152.932 166.48 153.04 165.82 153.04ZM171.58 152.899L169.664 146.711H170.959L171.668 149.243C171.773 149.618 171.873 150 171.967 150.391C172.064 150.782 172.16 151.168 172.254 151.551C172.355 151.168 172.455 150.782 172.553 150.391C172.654 150 172.756 149.618 172.857 149.243L173.578 146.711H174.756L175.465 149.243C175.57 149.614 175.672 149.993 175.77 150.379C175.867 150.766 175.965 151.149 176.062 151.528C176.156 151.149 176.25 150.766 176.344 150.379C176.441 149.993 176.543 149.614 176.648 149.243L177.363 146.711H178.67L176.754 152.899H175.465L174.68 150.204C174.59 149.891 174.502 149.571 174.416 149.243C174.334 148.915 174.252 148.588 174.17 148.264C174.084 148.588 173.998 148.915 173.912 149.243C173.83 149.571 173.742 149.891 173.648 150.204L172.852 152.899H171.58ZM179.514 152.899V146.711H180.75V152.899H179.514ZM180.129 145.645C179.91 145.645 179.725 145.573 179.572 145.428C179.424 145.28 179.35 145.1 179.35 144.889C179.35 144.674 179.424 144.495 179.572 144.35C179.725 144.202 179.91 144.127 180.129 144.127C180.348 144.127 180.533 144.202 180.686 144.35C180.838 144.495 180.914 144.674 180.914 144.889C180.914 145.1 180.838 145.28 180.686 145.428C180.533 145.573 180.348 145.645 180.129 145.645ZM185.238 146.711V147.731H183.984V151.264C183.984 151.495 184.031 151.655 184.125 151.745C184.219 151.834 184.389 151.879 184.635 151.879H185.238V152.899H184.459C183.314 152.899 182.742 152.407 182.742 151.422V147.731H181.652V146.711H182.742V145.024H183.984V146.711H185.238ZM188.76 153.04C188.17 153.04 187.652 152.903 187.207 152.629C186.766 152.356 186.422 151.977 186.176 151.493C185.93 151.004 185.807 150.446 185.807 149.817C185.807 149.18 185.93 148.618 186.176 148.129C186.426 147.641 186.771 147.26 187.213 146.987C187.654 146.709 188.17 146.571 188.76 146.571C189.252 146.571 189.691 146.668 190.078 146.864C190.469 147.055 190.785 147.321 191.027 147.661C191.27 148 191.416 148.389 191.467 148.827H190.236C190.174 148.479 190.018 148.194 189.768 147.971C189.518 147.749 189.184 147.637 188.766 147.637C188.23 147.637 187.812 147.834 187.512 148.229C187.211 148.624 187.061 149.153 187.061 149.817C187.061 150.473 187.211 150.997 187.512 151.387C187.812 151.778 188.23 151.973 188.766 151.973C189.191 151.973 189.52 151.866 189.75 151.651C189.98 151.432 190.137 151.141 190.219 150.778H191.467C191.42 151.208 191.275 151.594 191.033 151.938C190.791 152.278 190.475 152.547 190.084 152.747C189.693 152.942 189.252 153.04 188.76 153.04ZM193.758 149.336V152.899H192.521V144.168H193.758V147.602C194.184 146.926 194.799 146.588 195.604 146.588C196.029 146.588 196.41 146.682 196.746 146.87C197.086 147.053 197.354 147.327 197.549 147.69C197.744 148.053 197.842 148.504 197.842 149.043V152.899H196.605V149.196C196.605 148.7 196.486 148.327 196.248 148.077C196.01 147.823 195.678 147.696 195.252 147.696C194.83 147.696 194.475 147.827 194.186 148.088C193.9 148.346 193.758 148.762 193.758 149.336ZM201.879 153.04C201.266 153.04 200.738 152.901 200.297 152.624C199.859 152.346 199.521 151.965 199.283 151.481C199.049 150.993 198.932 150.438 198.932 149.817C198.932 149.188 199.055 148.629 199.301 148.141C199.547 147.653 199.887 147.27 200.32 146.993C200.754 146.711 201.252 146.571 201.814 146.571C202.4 146.571 202.908 146.708 203.338 146.981C203.771 147.254 204.107 147.635 204.346 148.124C204.584 148.608 204.703 149.168 204.703 149.805V150.139H200.15C200.174 150.698 200.334 151.149 200.631 151.493C200.932 151.836 201.354 152.008 201.896 152.008C202.303 152.008 202.637 151.917 202.898 151.733C203.16 151.549 203.334 151.311 203.42 151.018H204.609C204.535 151.417 204.369 151.768 204.111 152.073C203.857 152.377 203.537 152.616 203.15 152.788C202.768 152.956 202.344 153.04 201.879 153.04ZM200.162 149.202H203.496C203.445 148.709 203.271 148.321 202.975 148.036C202.678 147.747 202.295 147.602 201.826 147.602C201.357 147.602 200.975 147.747 200.678 148.036C200.385 148.321 200.213 148.709 200.162 149.202ZM208.154 153.022C207.615 153.022 207.145 152.887 206.742 152.618C206.34 152.344 206.027 151.967 205.805 151.487C205.582 151.002 205.471 150.442 205.471 149.805C205.471 149.168 205.582 148.61 205.805 148.129C206.031 147.645 206.346 147.268 206.748 146.999C207.15 146.725 207.617 146.588 208.148 146.588C208.551 146.588 208.918 146.672 209.25 146.84C209.582 147.008 209.848 147.264 210.047 147.608H210.059V144.168H211.295V152.899H210.082V151.956H210.07C209.863 152.315 209.592 152.583 209.256 152.758C208.924 152.934 208.557 153.022 208.154 153.022ZM208.406 151.956C208.934 151.956 209.354 151.76 209.666 151.37C209.982 150.975 210.141 150.454 210.141 149.805C210.141 149.153 209.982 148.631 209.666 148.241C209.354 147.846 208.934 147.649 208.406 147.649C207.906 147.649 207.5 147.834 207.188 148.206C206.879 148.573 206.725 149.106 206.725 149.805C206.725 150.504 206.879 151.038 207.188 151.405C207.5 151.772 207.906 151.956 208.406 151.956ZM218.531 146.711V147.731H217.277V151.264C217.277 151.495 217.324 151.655 217.418 151.745C217.512 151.834 217.682 151.879 217.928 151.879H218.531V152.899H217.752C216.607 152.899 216.035 152.407 216.035 151.422V147.731H214.945V146.711H216.035V145.024H217.277V146.711H218.531ZM222.064 153.04C221.475 153.04 220.957 152.903 220.512 152.629C220.066 152.356 219.719 151.977 219.469 151.493C219.223 151.008 219.1 150.45 219.1 149.817C219.1 149.176 219.223 148.614 219.469 148.129C219.719 147.641 220.066 147.26 220.512 146.987C220.957 146.709 221.475 146.571 222.064 146.571C222.654 146.571 223.17 146.709 223.611 146.987C224.057 147.26 224.402 147.641 224.648 148.129C224.898 148.614 225.023 149.176 225.023 149.817C225.023 150.45 224.898 151.008 224.648 151.493C224.402 151.977 224.057 152.356 223.611 152.629C223.17 152.903 222.654 153.04 222.064 153.04ZM222.064 151.973C222.596 151.973 223.014 151.778 223.318 151.387C223.623 150.997 223.775 150.473 223.775 149.817C223.775 149.153 223.621 148.624 223.312 148.229C223.008 147.834 222.592 147.637 222.064 147.637C221.537 147.637 221.119 147.834 220.811 148.229C220.506 148.62 220.354 149.149 220.354 149.817C220.354 150.477 220.506 151.002 220.811 151.393C221.115 151.78 221.533 151.973 222.064 151.973ZM229.078 152.899V144.168H230.379V151.756H234.51V152.899H229.078ZM238.154 153.04C237.564 153.04 237.047 152.903 236.602 152.629C236.156 152.356 235.809 151.977 235.559 151.493C235.312 151.008 235.189 150.45 235.189 149.817C235.189 149.176 235.312 148.614 235.559 148.129C235.809 147.641 236.156 147.26 236.602 146.987C237.047 146.709 237.564 146.571 238.154 146.571C238.744 146.571 239.26 146.709 239.701 146.987C240.146 147.26 240.492 147.641 240.738 148.129C240.988 148.614 241.113 149.176 241.113 149.817C241.113 150.45 240.988 151.008 240.738 151.493C240.492 151.977 240.146 152.356 239.701 152.629C239.26 152.903 238.744 153.04 238.154 153.04ZM238.154 151.973C238.686 151.973 239.104 151.778 239.408 151.387C239.713 150.997 239.865 150.473 239.865 149.817C239.865 149.153 239.711 148.624 239.402 148.229C239.098 147.834 238.682 147.637 238.154 147.637C237.627 147.637 237.209 147.834 236.9 148.229C236.596 148.62 236.443 149.149 236.443 149.817C236.443 150.477 236.596 151.002 236.9 151.393C237.205 151.78 237.623 151.973 238.154 151.973ZM244.857 153.04C244.268 153.04 243.75 152.903 243.305 152.629C242.863 152.356 242.52 151.977 242.273 151.493C242.027 151.004 241.904 150.446 241.904 149.817C241.904 149.18 242.027 148.618 242.273 148.129C242.523 147.641 242.869 147.26 243.311 146.987C243.752 146.709 244.268 146.571 244.857 146.571C245.35 146.571 245.789 146.668 246.176 146.864C246.566 147.055 246.883 147.321 247.125 147.661C247.367 148 247.514 148.389 247.564 148.827H246.334C246.271 148.479 246.115 148.194 245.865 147.971C245.615 147.749 245.281 147.637 244.863 147.637C244.328 147.637 243.91 147.834 243.609 148.229C243.309 148.624 243.158 149.153 243.158 149.817C243.158 150.473 243.309 150.997 243.609 151.387C243.91 151.778 244.328 151.973 244.863 151.973C245.289 151.973 245.617 151.866 245.848 151.651C246.078 151.432 246.234 151.141 246.316 150.778H247.564C247.518 151.208 247.373 151.594 247.131 151.938C246.889 152.278 246.572 152.547 246.182 152.747C245.791 152.942 245.35 153.04 244.857 153.04ZM250.576 152.999C249.959 152.999 249.447 152.842 249.041 152.53C248.635 152.213 248.432 151.747 248.432 151.129C248.432 150.661 248.547 150.301 248.777 150.051C249.012 149.797 249.314 149.616 249.686 149.506C250.061 149.397 250.457 149.317 250.875 149.266C251.262 149.219 251.568 149.18 251.795 149.149C252.021 149.118 252.182 149.071 252.275 149.008C252.373 148.946 252.422 148.838 252.422 148.686V148.633C252.422 148.333 252.312 148.086 252.094 147.895C251.875 147.7 251.568 147.602 251.174 147.602C250.779 147.602 250.457 147.698 250.207 147.889C249.957 148.077 249.82 148.313 249.797 148.598H248.584C248.611 148.008 248.859 147.526 249.328 147.151C249.797 146.776 250.418 146.588 251.191 146.588C251.953 146.588 252.553 146.776 252.99 147.151C253.428 147.526 253.646 148.028 253.646 148.657V152.899H252.428V152.02H252.404C252.275 152.27 252.07 152.497 251.789 152.7C251.512 152.899 251.107 152.999 250.576 152.999ZM250.828 152.002C251.375 152.002 251.777 151.862 252.035 151.581C252.297 151.295 252.428 150.963 252.428 150.584V149.858C252.346 149.924 252.16 149.985 251.871 150.04C251.582 150.09 251.273 150.139 250.945 150.186C250.605 150.237 250.307 150.333 250.049 150.473C249.791 150.614 249.662 150.84 249.662 151.153C249.662 151.418 249.766 151.627 249.973 151.78C250.184 151.928 250.469 152.002 250.828 152.002ZM256.277 144.168V152.899H255.041V144.168H256.277ZM264.328 153.04C263.555 153.04 262.865 152.85 262.26 152.471C261.654 152.092 261.178 151.565 260.83 150.889C260.486 150.213 260.314 149.43 260.314 148.54C260.314 147.645 260.486 146.86 260.83 146.184C261.178 145.504 261.654 144.975 262.26 144.596C262.865 144.217 263.555 144.028 264.328 144.028C265.105 144.028 265.797 144.217 266.402 144.596C267.008 144.975 267.482 145.504 267.826 146.184C268.174 146.86 268.348 147.645 268.348 148.54C268.348 149.43 268.174 150.213 267.826 150.889C267.482 151.565 267.008 152.092 266.402 152.471C265.797 152.85 265.105 153.04 264.328 153.04ZM264.328 151.85C264.832 151.85 265.289 151.723 265.699 151.469C266.109 151.211 266.436 150.836 266.678 150.344C266.92 149.848 267.041 149.247 267.041 148.54C267.041 147.829 266.92 147.225 266.678 146.729C266.436 146.233 266.109 145.858 265.699 145.604C265.289 145.346 264.832 145.217 264.328 145.217C263.828 145.217 263.373 145.346 262.963 145.604C262.553 145.858 262.227 146.233 261.984 146.729C261.742 147.225 261.621 147.829 261.621 148.54C261.621 149.247 261.742 149.848 261.984 150.344C262.227 150.836 262.553 151.211 262.963 151.469C263.373 151.723 263.828 151.85 264.328 151.85ZM272.525 146.711V147.731H271.266V152.899H270.029V147.731H268.922V146.711H270.029V145.709C270.029 145.221 270.182 144.842 270.486 144.573C270.795 144.303 271.229 144.168 271.787 144.168H272.525V145.188H271.98C271.719 145.188 271.533 145.243 271.424 145.352C271.318 145.461 271.266 145.647 271.266 145.909V146.711H272.525ZM276.018 146.711V147.731H274.758V152.899H273.521V147.731H272.414V146.711H273.521V145.709C273.521 145.221 273.674 144.842 273.979 144.573C274.287 144.303 274.721 144.168 275.279 144.168H276.018V145.188H275.473C275.211 145.188 275.025 145.243 274.916 145.352C274.811 145.461 274.758 145.647 274.758 145.909V146.711H276.018ZM278.191 144.168V152.899H276.955V144.168H278.191ZM279.592 152.899V146.711H280.828V152.899H279.592ZM280.207 145.645C279.988 145.645 279.803 145.573 279.65 145.428C279.502 145.28 279.428 145.1 279.428 144.889C279.428 144.674 279.502 144.495 279.65 144.35C279.803 144.202 279.988 144.127 280.207 144.127C280.426 144.127 280.611 144.202 280.764 144.35C280.916 144.495 280.992 144.674 280.992 144.889C280.992 145.1 280.916 145.28 280.764 145.428C280.611 145.573 280.426 145.645 280.207 145.645ZM283.465 149.336V152.899H282.229V146.711H283.441V147.643C283.863 146.94 284.486 146.588 285.311 146.588C285.736 146.588 286.117 146.682 286.453 146.87C286.793 147.053 287.061 147.327 287.256 147.69C287.451 148.053 287.549 148.504 287.549 149.043V152.899H286.312V149.196C286.312 148.7 286.193 148.327 285.955 148.077C285.717 147.823 285.385 147.696 284.959 147.696C284.537 147.696 284.182 147.827 283.893 148.088C283.607 148.346 283.465 148.762 283.465 149.336ZM291.586 153.04C290.973 153.04 290.445 152.901 290.004 152.624C289.566 152.346 289.229 151.965 288.99 151.481C288.756 150.993 288.639 150.438 288.639 149.817C288.639 149.188 288.762 148.629 289.008 148.141C289.254 147.653 289.594 147.27 290.027 146.993C290.461 146.711 290.959 146.571 291.521 146.571C292.107 146.571 292.615 146.708 293.045 146.981C293.479 147.254 293.814 147.635 294.053 148.124C294.291 148.608 294.41 149.168 294.41 149.805V150.139H289.857C289.881 150.698 290.041 151.149 290.338 151.493C290.639 151.836 291.061 152.008 291.604 152.008C292.01 152.008 292.344 151.917 292.605 151.733C292.867 151.549 293.041 151.311 293.127 151.018H294.316C294.242 151.417 294.076 151.768 293.818 152.073C293.564 152.377 293.244 152.616 292.857 152.788C292.475 152.956 292.051 153.04 291.586 153.04ZM289.869 149.202H293.203C293.152 148.709 292.979 148.321 292.682 148.036C292.385 147.747 292.002 147.602 291.533 147.602C291.064 147.602 290.682 147.747 290.385 148.036C290.092 148.321 289.92 148.709 289.869 149.202ZM298.441 152.899V144.168H300.275L302.232 149.284C302.311 149.506 302.412 149.799 302.537 150.163C302.662 150.522 302.775 150.854 302.877 151.159C302.975 150.854 303.086 150.522 303.211 150.163C303.336 149.799 303.438 149.506 303.516 149.284L305.443 144.168H307.283V152.899H306.006V148.141C306.006 147.829 306.01 147.465 306.018 147.051C306.025 146.633 306.035 146.217 306.047 145.803C305.887 146.276 305.734 146.721 305.59 147.139C305.449 147.557 305.332 147.891 305.238 148.141L303.398 152.899H302.332L300.475 148.141C300.385 147.903 300.27 147.588 300.129 147.198C299.992 146.803 299.844 146.379 299.684 145.926C299.695 146.325 299.705 146.719 299.713 147.11C299.721 147.5 299.725 147.844 299.725 148.141V152.899H298.441ZM311.443 153.04C310.854 153.04 310.336 152.903 309.891 152.629C309.445 152.356 309.098 151.977 308.848 151.493C308.602 151.008 308.479 150.45 308.479 149.817C308.479 149.176 308.602 148.614 308.848 148.129C309.098 147.641 309.445 147.26 309.891 146.987C310.336 146.709 310.854 146.571 311.443 146.571C312.033 146.571 312.549 146.709 312.99 146.987C313.436 147.26 313.781 147.641 314.027 148.129C314.277 148.614 314.402 149.176 314.402 149.817C314.402 150.45 314.277 151.008 314.027 151.493C313.781 151.977 313.436 152.356 312.99 152.629C312.549 152.903 312.033 153.04 311.443 153.04ZM311.443 151.973C311.975 151.973 312.393 151.778 312.697 151.387C313.002 150.997 313.154 150.473 313.154 149.817C313.154 149.153 313 148.624 312.691 148.229C312.387 147.834 311.971 147.637 311.443 147.637C310.916 147.637 310.498 147.834 310.189 148.229C309.885 148.62 309.732 149.149 309.732 149.817C309.732 150.477 309.885 151.002 310.189 151.393C310.494 151.78 310.912 151.973 311.443 151.973ZM317.877 153.022C317.338 153.022 316.867 152.887 316.465 152.618C316.062 152.344 315.75 151.967 315.527 151.487C315.305 151.002 315.193 150.442 315.193 149.805C315.193 149.168 315.305 148.61 315.527 148.129C315.754 147.645 316.068 147.268 316.471 146.999C316.873 146.725 317.34 146.588 317.871 146.588C318.273 146.588 318.641 146.672 318.973 146.84C319.305 147.008 319.57 147.264 319.77 147.608H319.781V144.168H321.018V152.899H319.805V151.956H319.793C319.586 152.315 319.314 152.583 318.979 152.758C318.646 152.934 318.279 153.022 317.877 153.022ZM318.129 151.956C318.656 151.956 319.076 151.76 319.389 151.37C319.705 150.975 319.863 150.454 319.863 149.805C319.863 149.153 319.705 148.631 319.389 148.241C319.076 147.846 318.656 147.649 318.129 147.649C317.629 147.649 317.223 147.834 316.91 148.206C316.602 148.573 316.447 149.106 316.447 149.805C316.447 150.504 316.602 151.038 316.91 151.405C317.223 151.772 317.629 151.956 318.129 151.956ZM325.055 153.04C324.441 153.04 323.914 152.901 323.473 152.624C323.035 152.346 322.697 151.965 322.459 151.481C322.225 150.993 322.107 150.438 322.107 149.817C322.107 149.188 322.23 148.629 322.477 148.141C322.723 147.653 323.062 147.27 323.496 146.993C323.93 146.711 324.428 146.571 324.99 146.571C325.576 146.571 326.084 146.708 326.514 146.981C326.947 147.254 327.283 147.635 327.521 148.124C327.76 148.608 327.879 149.168 327.879 149.805V150.139H323.326C323.35 150.698 323.51 151.149 323.807 151.493C324.107 151.836 324.529 152.008 325.072 152.008C325.479 152.008 325.812 151.917 326.074 151.733C326.336 151.549 326.51 151.311 326.596 151.018H327.785C327.711 151.417 327.545 151.768 327.287 152.073C327.033 152.377 326.713 152.616 326.326 152.788C325.943 152.956 325.52 153.04 325.055 153.04ZM323.338 149.202H326.672C326.621 148.709 326.447 148.321 326.15 148.036C325.854 147.747 325.471 147.602 325.002 147.602C324.533 147.602 324.15 147.747 323.854 148.036C323.561 148.321 323.389 148.709 323.338 149.202ZM329.619 152.999C329.393 152.999 329.199 152.92 329.039 152.764C328.883 152.604 328.805 152.409 328.805 152.178C328.805 151.952 328.883 151.758 329.039 151.598C329.199 151.438 329.393 151.358 329.619 151.358C329.85 151.358 330.043 151.438 330.199 151.598C330.359 151.758 330.439 151.952 330.439 152.178C330.439 152.409 330.359 152.604 330.199 152.764C330.043 152.92 329.85 152.999 329.619 152.999Z" fill="#666666"/>
<rect x="104" y="171.899" width="359" height="31" rx="8" fill="black" fill-opacity="0.04"/>
<g clipPath="url(#clip2_2200_3224)">
<path d="M190.5 183.649V185.899C190.5 185.998 190.46 186.094 190.39 186.164C190.32 186.234 190.224 186.274 190.125 186.274H187.875C187.801 186.274 187.728 186.252 187.667 186.211C187.605 186.17 187.557 186.111 187.528 186.043C187.5 185.974 187.492 185.899 187.507 185.826C187.521 185.753 187.557 185.686 187.61 185.634L188.468 184.774C187.778 184.112 186.859 183.742 185.903 183.739H185.882C184.902 183.737 183.961 184.121 183.262 184.807C183.19 184.874 183.095 184.91 182.998 184.908C182.9 184.906 182.806 184.865 182.738 184.795C182.669 184.725 182.631 184.631 182.631 184.533C182.631 184.435 182.669 184.341 182.738 184.271C183.574 183.454 184.695 182.995 185.864 182.99C187.032 182.985 188.157 183.435 189 184.244L189.861 183.384C189.913 183.331 189.98 183.296 190.053 183.282C190.125 183.267 190.2 183.275 190.269 183.303C190.337 183.332 190.396 183.38 190.437 183.441C190.478 183.503 190.5 183.575 190.5 183.649ZM188.738 189.991C188.043 190.669 187.113 191.052 186.142 191.058C185.171 191.064 184.235 190.693 183.532 190.024L184.39 189.166C184.443 189.113 184.479 189.046 184.494 188.973C184.509 188.9 184.502 188.825 184.473 188.756C184.445 188.687 184.396 188.628 184.334 188.587C184.272 188.546 184.2 188.524 184.125 188.524H181.875C181.776 188.524 181.68 188.563 181.61 188.634C181.54 188.704 181.5 188.8 181.5 188.899V191.149C181.5 191.223 181.522 191.296 181.563 191.357C181.604 191.419 181.663 191.467 181.731 191.496C181.8 191.524 181.875 191.532 181.948 191.517C182.021 191.503 182.088 191.467 182.14 191.414L183 190.554C183.831 191.355 184.939 191.805 186.094 191.808H186.119C187.294 191.811 188.424 191.351 189.263 190.527C189.331 190.457 189.369 190.363 189.369 190.265C189.369 190.167 189.331 190.073 189.263 190.003C189.194 189.933 189.101 189.892 189.003 189.89C188.905 189.888 188.81 189.924 188.738 189.991H188.738Z" fill="#333333"/>
</g>
<path d="M204.488 192.04C203.715 192.04 203.025 191.85 202.42 191.471C201.814 191.092 201.338 190.565 200.99 189.889C200.646 189.213 200.475 188.43 200.475 187.54C200.475 186.645 200.646 185.86 200.99 185.184C201.338 184.504 201.814 183.975 202.42 183.596C203.025 183.217 203.715 183.028 204.488 183.028C205.266 183.028 205.957 183.217 206.562 183.596C207.168 183.975 207.643 184.504 207.986 185.184C208.334 185.86 208.508 186.645 208.508 187.54C208.508 188.43 208.334 189.213 207.986 189.889C207.643 190.565 207.168 191.092 206.562 191.471C205.957 191.85 205.266 192.04 204.488 192.04ZM204.488 190.85C204.992 190.85 205.449 190.723 205.859 190.469C206.27 190.211 206.596 189.836 206.838 189.344C207.08 188.848 207.201 188.247 207.201 187.54C207.201 186.829 207.08 186.225 206.838 185.729C206.596 185.233 206.27 184.858 205.859 184.604C205.449 184.346 204.992 184.217 204.488 184.217C203.988 184.217 203.533 184.346 203.123 184.604C202.713 184.858 202.387 185.233 202.145 185.729C201.902 186.225 201.781 186.829 201.781 187.54C201.781 188.247 201.902 188.848 202.145 189.344C202.387 189.836 202.713 190.211 203.123 190.469C203.533 190.723 203.988 190.85 204.488 190.85ZM209.686 191.899V185.711H210.869V186.713H210.893C211.006 186.374 211.184 186.11 211.426 185.922C211.672 185.731 211.992 185.635 212.387 185.635C212.48 185.635 212.566 185.639 212.645 185.647C212.723 185.655 212.787 185.661 212.838 185.665V186.819C212.791 186.807 212.707 186.795 212.586 186.784C212.465 186.768 212.332 186.76 212.188 186.76C211.84 186.76 211.541 186.881 211.291 187.124C211.045 187.366 210.922 187.739 210.922 188.243V191.899H209.686ZM216.049 192.022C215.51 192.022 215.039 191.887 214.637 191.618C214.234 191.344 213.922 190.967 213.699 190.487C213.477 190.002 213.365 189.442 213.365 188.805C213.365 188.168 213.477 187.61 213.699 187.129C213.926 186.645 214.24 186.268 214.643 185.999C215.045 185.725 215.512 185.588 216.043 185.588C216.445 185.588 216.812 185.672 217.145 185.84C217.477 186.008 217.742 186.264 217.941 186.608H217.953V183.168H219.189V191.899H217.977V190.956H217.965C217.758 191.315 217.486 191.583 217.15 191.758C216.818 191.934 216.451 192.022 216.049 192.022ZM216.301 190.956C216.828 190.956 217.248 190.76 217.561 190.37C217.877 189.975 218.035 189.454 218.035 188.805C218.035 188.153 217.877 187.631 217.561 187.241C217.248 186.846 216.828 186.649 216.301 186.649C215.801 186.649 215.395 186.834 215.082 187.206C214.773 187.573 214.619 188.106 214.619 188.805C214.619 189.504 214.773 190.038 215.082 190.405C215.395 190.772 215.801 190.956 216.301 190.956ZM223.227 192.04C222.613 192.04 222.086 191.901 221.645 191.624C221.207 191.346 220.869 190.965 220.631 190.481C220.396 189.993 220.279 189.438 220.279 188.817C220.279 188.188 220.402 187.629 220.648 187.141C220.895 186.653 221.234 186.27 221.668 185.993C222.102 185.711 222.6 185.571 223.162 185.571C223.748 185.571 224.256 185.708 224.686 185.981C225.119 186.254 225.455 186.635 225.693 187.124C225.932 187.608 226.051 188.168 226.051 188.805V189.139H221.498C221.521 189.698 221.682 190.149 221.979 190.493C222.279 190.836 222.701 191.008 223.244 191.008C223.65 191.008 223.984 190.917 224.246 190.733C224.508 190.549 224.682 190.311 224.768 190.018H225.957C225.883 190.417 225.717 190.768 225.459 191.073C225.205 191.377 224.885 191.616 224.498 191.788C224.115 191.956 223.691 192.04 223.227 192.04ZM221.51 188.202H224.844C224.793 187.709 224.619 187.321 224.322 187.036C224.025 186.747 223.643 186.602 223.174 186.602C222.705 186.602 222.322 186.747 222.025 187.036C221.732 187.321 221.561 187.709 221.51 188.202ZM227.123 191.899V185.711H228.307V186.713H228.33C228.443 186.374 228.621 186.11 228.863 185.922C229.109 185.731 229.43 185.635 229.824 185.635C229.918 185.635 230.004 185.639 230.082 185.647C230.16 185.655 230.225 185.661 230.275 185.665V186.819C230.229 186.807 230.145 186.795 230.023 186.784C229.902 186.768 229.77 186.76 229.625 186.76C229.277 186.76 228.979 186.881 228.729 187.124C228.482 187.366 228.359 187.739 228.359 188.243V191.899H227.123ZM233.492 192.045C233.02 192.045 232.594 191.969 232.215 191.817C231.836 191.665 231.529 191.438 231.295 191.137C231.064 190.836 230.936 190.463 230.908 190.018H232.127C232.197 190.713 232.645 191.061 233.469 191.061C233.859 191.061 234.168 190.981 234.395 190.821C234.625 190.661 234.74 190.458 234.74 190.211C234.74 190 234.658 189.833 234.494 189.708C234.33 189.579 234.115 189.485 233.85 189.426L232.824 189.198C231.641 188.94 231.049 188.35 231.049 187.428C231.049 186.881 231.266 186.436 231.699 186.092C232.137 185.749 232.709 185.577 233.416 185.577C234.115 185.577 234.689 185.758 235.139 186.122C235.592 186.481 235.826 186.973 235.842 187.598H234.658C234.654 187.297 234.541 187.049 234.318 186.854C234.096 186.655 233.801 186.555 233.434 186.555C233.082 186.555 232.803 186.637 232.596 186.801C232.389 186.965 232.285 187.167 232.285 187.405C232.285 187.616 232.363 187.786 232.52 187.915C232.68 188.043 232.898 188.139 233.176 188.202L234.23 188.436C234.832 188.569 235.275 188.774 235.561 189.051C235.846 189.329 235.988 189.692 235.988 190.141C235.988 190.536 235.879 190.875 235.66 191.161C235.445 191.442 235.15 191.661 234.775 191.817C234.4 191.969 233.973 192.045 233.492 192.045ZM241.303 191.899L239.387 185.711H240.682L241.391 188.243C241.496 188.618 241.596 189 241.689 189.391C241.787 189.782 241.883 190.168 241.977 190.551C242.078 190.168 242.178 189.782 242.275 189.391C242.377 189 242.479 188.618 242.58 188.243L243.301 185.711H244.479L245.188 188.243C245.293 188.614 245.395 188.993 245.492 189.379C245.59 189.766 245.688 190.149 245.785 190.528C245.879 190.149 245.973 189.766 246.066 189.379C246.164 188.993 246.266 188.614 246.371 188.243L247.086 185.711H248.393L246.477 191.899H245.188L244.402 189.204C244.312 188.891 244.225 188.571 244.139 188.243C244.057 187.915 243.975 187.588 243.893 187.264C243.807 187.588 243.721 187.915 243.635 188.243C243.553 188.571 243.465 188.891 243.371 189.204L242.574 191.899H241.303ZM249.236 191.899V185.711H250.473V191.899H249.236ZM249.852 184.645C249.633 184.645 249.447 184.573 249.295 184.428C249.146 184.28 249.072 184.1 249.072 183.889C249.072 183.674 249.146 183.495 249.295 183.35C249.447 183.202 249.633 183.127 249.852 183.127C250.07 183.127 250.256 183.202 250.408 183.35C250.561 183.495 250.637 183.674 250.637 183.889C250.637 184.1 250.561 184.28 250.408 184.428C250.256 184.573 250.07 184.645 249.852 184.645ZM253.109 183.168V191.899H251.873V183.168H253.109ZM255.746 183.168V191.899H254.51V183.168H255.746ZM262.297 192.045C261.824 192.045 261.398 191.969 261.02 191.817C260.641 191.665 260.334 191.438 260.1 191.137C259.869 190.836 259.74 190.463 259.713 190.018H260.932C261.002 190.713 261.449 191.061 262.273 191.061C262.664 191.061 262.973 190.981 263.199 190.821C263.43 190.661 263.545 190.458 263.545 190.211C263.545 190 263.463 189.833 263.299 189.708C263.135 189.579 262.92 189.485 262.654 189.426L261.629 189.198C260.445 188.94 259.854 188.35 259.854 187.428C259.854 186.881 260.07 186.436 260.504 186.092C260.941 185.749 261.514 185.577 262.221 185.577C262.92 185.577 263.494 185.758 263.943 186.122C264.396 186.481 264.631 186.973 264.646 187.598H263.463C263.459 187.297 263.346 187.049 263.123 186.854C262.9 186.655 262.605 186.555 262.238 186.555C261.887 186.555 261.607 186.637 261.4 186.801C261.193 186.965 261.09 187.167 261.09 187.405C261.09 187.616 261.168 187.786 261.324 187.915C261.484 188.043 261.703 188.139 261.98 188.202L263.035 188.436C263.637 188.569 264.08 188.774 264.365 189.051C264.65 189.329 264.793 189.692 264.793 190.141C264.793 190.536 264.684 190.875 264.465 191.161C264.25 191.442 263.955 191.661 263.58 191.817C263.205 191.969 262.777 192.045 262.297 192.045ZM265.807 194.348V193.305H266.475C266.67 193.305 266.828 193.249 266.949 193.135C267.074 193.026 267.184 192.844 267.277 192.59L267.559 191.858L265.168 185.711H266.492L267.729 189.104C267.811 189.334 267.891 189.567 267.969 189.801C268.047 190.032 268.123 190.262 268.197 190.493C268.271 190.262 268.348 190.032 268.426 189.801C268.508 189.567 268.59 189.334 268.672 189.104L269.891 185.711H271.197L268.385 192.983C268.037 193.893 267.439 194.348 266.592 194.348H265.807ZM273.277 188.336V191.899H272.041V185.711H273.254V186.643C273.676 185.94 274.299 185.588 275.123 185.588C275.549 185.588 275.93 185.682 276.266 185.87C276.605 186.053 276.873 186.327 277.068 186.69C277.264 187.053 277.361 187.504 277.361 188.043V191.899H276.125V188.196C276.125 187.7 276.006 187.327 275.768 187.077C275.529 186.823 275.197 186.696 274.771 186.696C274.35 186.696 273.994 186.827 273.705 187.088C273.42 187.346 273.277 187.762 273.277 188.336ZM281.404 192.04C280.814 192.04 280.297 191.903 279.852 191.629C279.41 191.356 279.066 190.977 278.82 190.493C278.574 190.004 278.451 189.446 278.451 188.817C278.451 188.18 278.574 187.618 278.82 187.129C279.07 186.641 279.416 186.26 279.857 185.987C280.299 185.709 280.814 185.571 281.404 185.571C281.896 185.571 282.336 185.668 282.723 185.864C283.113 186.055 283.43 186.321 283.672 186.661C283.914 187 284.061 187.389 284.111 187.827H282.881C282.818 187.479 282.662 187.194 282.412 186.971C282.162 186.749 281.828 186.637 281.41 186.637C280.875 186.637 280.457 186.834 280.156 187.229C279.855 187.624 279.705 188.153 279.705 188.817C279.705 189.473 279.855 189.997 280.156 190.387C280.457 190.778 280.875 190.973 281.41 190.973C281.836 190.973 282.164 190.866 282.395 190.651C282.625 190.432 282.781 190.141 282.863 189.778H284.111C284.064 190.208 283.92 190.594 283.678 190.938C283.436 191.278 283.119 191.547 282.729 191.747C282.338 191.942 281.896 192.04 281.404 192.04ZM289.912 191.999C289.295 191.999 288.783 191.842 288.377 191.53C287.971 191.213 287.768 190.747 287.768 190.129C287.768 189.661 287.883 189.301 288.113 189.051C288.348 188.797 288.65 188.616 289.021 188.506C289.396 188.397 289.793 188.317 290.211 188.266C290.598 188.219 290.904 188.18 291.131 188.149C291.357 188.118 291.518 188.071 291.611 188.008C291.709 187.946 291.758 187.838 291.758 187.686V187.633C291.758 187.333 291.648 187.086 291.43 186.895C291.211 186.7 290.904 186.602 290.51 186.602C290.115 186.602 289.793 186.698 289.543 186.889C289.293 187.077 289.156 187.313 289.133 187.598H287.92C287.947 187.008 288.195 186.526 288.664 186.151C289.133 185.776 289.754 185.588 290.527 185.588C291.289 185.588 291.889 185.776 292.326 186.151C292.764 186.526 292.982 187.028 292.982 187.657V191.899H291.764V191.02H291.74C291.611 191.27 291.406 191.497 291.125 191.7C290.848 191.899 290.443 191.999 289.912 191.999ZM290.164 191.002C290.711 191.002 291.113 190.862 291.371 190.581C291.633 190.295 291.764 189.963 291.764 189.584V188.858C291.682 188.924 291.496 188.985 291.207 189.04C290.918 189.09 290.609 189.139 290.281 189.186C289.941 189.237 289.643 189.333 289.385 189.473C289.127 189.614 288.998 189.84 288.998 190.153C288.998 190.418 289.102 190.627 289.309 190.78C289.52 190.928 289.805 191.002 290.164 191.002ZM296.615 192.022C296.193 192.022 295.812 191.93 295.473 191.747C295.137 191.559 294.869 191.284 294.67 190.92C294.475 190.557 294.377 190.106 294.377 189.567V185.711H295.613V189.415C295.613 189.911 295.732 190.286 295.971 190.54C296.209 190.79 296.543 190.915 296.973 190.915C297.391 190.915 297.742 190.786 298.027 190.528C298.316 190.266 298.461 189.848 298.461 189.274V185.711H299.697V191.899H298.484V190.967C298.062 191.67 297.439 192.022 296.615 192.022ZM304.074 185.711V186.731H302.82V190.264C302.82 190.495 302.867 190.655 302.961 190.745C303.055 190.834 303.225 190.879 303.471 190.879H304.074V191.899H303.295C302.15 191.899 301.578 191.407 301.578 190.422V186.731H300.488V185.711H301.578V184.024H302.82V185.711H304.074ZM307.607 192.04C307.018 192.04 306.5 191.903 306.055 191.629C305.609 191.356 305.262 190.977 305.012 190.493C304.766 190.008 304.643 189.45 304.643 188.817C304.643 188.176 304.766 187.614 305.012 187.129C305.262 186.641 305.609 186.26 306.055 185.987C306.5 185.709 307.018 185.571 307.607 185.571C308.197 185.571 308.713 185.709 309.154 185.987C309.6 186.26 309.945 186.641 310.191 187.129C310.441 187.614 310.566 188.176 310.566 188.817C310.566 189.45 310.441 190.008 310.191 190.493C309.945 190.977 309.6 191.356 309.154 191.629C308.713 191.903 308.197 192.04 307.607 192.04ZM307.607 190.973C308.139 190.973 308.557 190.778 308.861 190.387C309.166 189.997 309.318 189.473 309.318 188.817C309.318 188.153 309.164 187.624 308.855 187.229C308.551 186.834 308.135 186.637 307.607 186.637C307.08 186.637 306.662 186.834 306.354 187.229C306.049 187.62 305.896 188.149 305.896 188.817C305.896 189.477 306.049 190.002 306.354 190.393C306.658 190.78 307.076 190.973 307.607 190.973ZM311.662 191.899V185.711H312.863V186.749C313.055 186.366 313.314 186.077 313.643 185.881C313.971 185.686 314.326 185.588 314.709 185.588C315.131 185.588 315.5 185.696 315.816 185.911C316.137 186.125 316.361 186.399 316.49 186.731C316.658 186.395 316.912 186.122 317.252 185.911C317.596 185.696 317.996 185.588 318.453 185.588C318.836 185.588 319.184 185.672 319.496 185.84C319.809 186.008 320.057 186.258 320.24 186.59C320.424 186.918 320.516 187.331 320.516 187.827V191.899H319.273V187.932C319.273 187.491 319.15 187.17 318.904 186.971C318.658 186.772 318.367 186.672 318.031 186.672C317.617 186.672 317.291 186.801 317.053 187.059C316.814 187.313 316.695 187.637 316.695 188.032V191.899H315.477V187.85C315.477 187.495 315.361 187.209 315.131 186.995C314.904 186.78 314.615 186.672 314.264 186.672C313.904 186.672 313.586 186.799 313.309 187.053C313.035 187.307 312.898 187.678 312.898 188.167V191.899H311.662ZM323.803 191.999C323.186 191.999 322.674 191.842 322.268 191.53C321.861 191.213 321.658 190.747 321.658 190.129C321.658 189.661 321.773 189.301 322.004 189.051C322.238 188.797 322.541 188.616 322.912 188.506C323.287 188.397 323.684 188.317 324.102 188.266C324.488 188.219 324.795 188.18 325.021 188.149C325.248 188.118 325.408 188.071 325.502 188.008C325.6 187.946 325.648 187.838 325.648 187.686V187.633C325.648 187.333 325.539 187.086 325.32 186.895C325.102 186.7 324.795 186.602 324.4 186.602C324.006 186.602 323.684 186.698 323.434 186.889C323.184 187.077 323.047 187.313 323.023 187.598H321.811C321.838 187.008 322.086 186.526 322.555 186.151C323.023 185.776 323.645 185.588 324.418 185.588C325.18 185.588 325.779 185.776 326.217 186.151C326.654 186.526 326.873 187.028 326.873 187.657V191.899H325.654V191.02H325.631C325.502 191.27 325.297 191.497 325.016 191.7C324.738 191.899 324.334 191.999 323.803 191.999ZM324.055 191.002C324.602 191.002 325.004 190.862 325.262 190.581C325.523 190.295 325.654 189.963 325.654 189.584V188.858C325.572 188.924 325.387 188.985 325.098 189.04C324.809 189.09 324.5 189.139 324.172 189.186C323.832 189.237 323.533 189.333 323.275 189.473C323.018 189.614 322.889 189.84 322.889 190.153C322.889 190.418 322.992 190.627 323.199 190.78C323.41 190.928 323.695 191.002 324.055 191.002ZM331.25 185.711V186.731H329.996V190.264C329.996 190.495 330.043 190.655 330.137 190.745C330.23 190.834 330.4 190.879 330.646 190.879H331.25V191.899H330.471C329.326 191.899 328.754 191.407 328.754 190.422V186.731H327.664V185.711H328.754V184.024H329.996V185.711H331.25ZM332.229 191.899V185.711H333.465V191.899H332.229ZM332.844 184.645C332.625 184.645 332.439 184.573 332.287 184.428C332.139 184.28 332.064 184.1 332.064 183.889C332.064 183.674 332.139 183.495 332.287 183.35C332.439 183.202 332.625 183.127 332.844 183.127C333.062 183.127 333.248 183.202 333.4 183.35C333.553 183.495 333.629 183.674 333.629 183.889C333.629 184.1 333.553 184.28 333.4 184.428C333.248 184.573 333.062 184.645 332.844 184.645ZM337.514 192.04C336.924 192.04 336.406 191.903 335.961 191.629C335.52 191.356 335.176 190.977 334.93 190.493C334.684 190.004 334.561 189.446 334.561 188.817C334.561 188.18 334.684 187.618 334.93 187.129C335.18 186.641 335.525 186.26 335.967 185.987C336.408 185.709 336.924 185.571 337.514 185.571C338.006 185.571 338.445 185.668 338.832 185.864C339.223 186.055 339.539 186.321 339.781 186.661C340.023 187 340.17 187.389 340.221 187.827H338.99C338.928 187.479 338.771 187.194 338.521 186.971C338.271 186.749 337.938 186.637 337.52 186.637C336.984 186.637 336.566 186.834 336.266 187.229C335.965 187.624 335.814 188.153 335.814 188.817C335.814 189.473 335.965 189.997 336.266 190.387C336.566 190.778 336.984 190.973 337.52 190.973C337.945 190.973 338.273 190.866 338.504 190.651C338.734 190.432 338.891 190.141 338.973 189.778H340.221C340.174 190.208 340.029 190.594 339.787 190.938C339.545 191.278 339.229 191.547 338.838 191.747C338.447 191.942 338.006 192.04 337.514 192.04ZM343.232 191.999C342.615 191.999 342.104 191.842 341.697 191.53C341.291 191.213 341.088 190.747 341.088 190.129C341.088 189.661 341.203 189.301 341.434 189.051C341.668 188.797 341.971 188.616 342.342 188.506C342.717 188.397 343.113 188.317 343.531 188.266C343.918 188.219 344.225 188.18 344.451 188.149C344.678 188.118 344.838 188.071 344.932 188.008C345.029 187.946 345.078 187.838 345.078 187.686V187.633C345.078 187.333 344.969 187.086 344.75 186.895C344.531 186.7 344.225 186.602 343.83 186.602C343.436 186.602 343.113 186.698 342.863 186.889C342.613 187.077 342.477 187.313 342.453 187.598H341.24C341.268 187.008 341.516 186.526 341.984 186.151C342.453 185.776 343.074 185.588 343.848 185.588C344.609 185.588 345.209 185.776 345.646 186.151C346.084 186.526 346.303 187.028 346.303 187.657V191.899H345.084V191.02H345.061C344.932 191.27 344.727 191.497 344.445 191.7C344.168 191.899 343.764 191.999 343.232 191.999ZM343.484 191.002C344.031 191.002 344.434 190.862 344.691 190.581C344.953 190.295 345.084 189.963 345.084 189.584V188.858C345.002 188.924 344.816 188.985 344.527 189.04C344.238 189.09 343.93 189.139 343.602 189.186C343.262 189.237 342.963 189.333 342.705 189.473C342.447 189.614 342.318 189.84 342.318 190.153C342.318 190.418 342.422 190.627 342.629 190.78C342.84 190.928 343.125 191.002 343.484 191.002ZM348.934 183.168V191.899H347.697V183.168H348.934ZM351.57 183.168V191.899H350.334V183.168H351.57ZM353.123 194.348V193.305H353.791C353.986 193.305 354.145 193.249 354.266 193.135C354.391 193.026 354.5 192.844 354.594 192.59L354.875 191.858L352.484 185.711H353.809L355.045 189.104C355.127 189.334 355.207 189.567 355.285 189.801C355.363 190.032 355.439 190.262 355.514 190.493C355.588 190.262 355.664 190.032 355.742 189.801C355.824 189.567 355.906 189.334 355.988 189.104L357.207 185.711H358.514L355.701 192.983C355.354 193.893 354.756 194.348 353.908 194.348H353.123ZM363.453 183.168V191.899H362.217V183.168H363.453ZM366.74 191.999C366.123 191.999 365.611 191.842 365.205 191.53C364.799 191.213 364.596 190.747 364.596 190.129C364.596 189.661 364.711 189.301 364.941 189.051C365.176 188.797 365.479 188.616 365.85 188.506C366.225 188.397 366.621 188.317 367.039 188.266C367.426 188.219 367.732 188.18 367.959 188.149C368.186 188.118 368.346 188.071 368.439 188.008C368.537 187.946 368.586 187.838 368.586 187.686V187.633C368.586 187.333 368.477 187.086 368.258 186.895C368.039 186.7 367.732 186.602 367.338 186.602C366.943 186.602 366.621 186.698 366.371 186.889C366.121 187.077 365.984 187.313 365.961 187.598H364.748C364.775 187.008 365.023 186.526 365.492 186.151C365.961 185.776 366.582 185.588 367.355 185.588C368.117 185.588 368.717 185.776 369.154 186.151C369.592 186.526 369.811 187.028 369.811 187.657V191.899H368.592V191.02H368.568C368.439 191.27 368.234 191.497 367.953 191.7C367.676 191.899 367.271 191.999 366.74 191.999ZM366.992 191.002C367.539 191.002 367.941 190.862 368.199 190.581C368.461 190.295 368.592 189.963 368.592 189.584V188.858C368.51 188.924 368.324 188.985 368.035 189.04C367.746 189.09 367.438 189.139 367.109 189.186C366.77 189.237 366.471 189.333 366.213 189.473C365.955 189.614 365.826 189.84 365.826 190.153C365.826 190.418 365.93 190.627 366.137 190.78C366.348 190.928 366.633 191.002 366.992 191.002ZM374.188 185.711V186.731H372.934V190.264C372.934 190.495 372.98 190.655 373.074 190.745C373.168 190.834 373.338 190.879 373.584 190.879H374.188V191.899H373.408C372.264 191.899 371.691 191.407 371.691 190.422V186.731H370.602V185.711H371.691V184.024H372.934V185.711H374.188ZM377.703 192.04C377.09 192.04 376.562 191.901 376.121 191.624C375.684 191.346 375.346 190.965 375.107 190.481C374.873 189.993 374.756 189.438 374.756 188.817C374.756 188.188 374.879 187.629 375.125 187.141C375.371 186.653 375.711 186.27 376.145 185.993C376.578 185.711 377.076 185.571 377.639 185.571C378.225 185.571 378.732 185.708 379.162 185.981C379.596 186.254 379.932 186.635 380.17 187.124C380.408 187.608 380.527 188.168 380.527 188.805V189.139H375.975C375.998 189.698 376.158 190.149 376.455 190.493C376.756 190.836 377.178 191.008 377.721 191.008C378.127 191.008 378.461 190.917 378.723 190.733C378.984 190.549 379.158 190.311 379.244 190.018H380.434C380.359 190.417 380.193 190.768 379.936 191.073C379.682 191.377 379.361 191.616 378.975 191.788C378.592 191.956 378.168 192.04 377.703 192.04ZM375.986 188.202H379.32C379.27 187.709 379.096 187.321 378.799 187.036C378.502 186.747 378.119 186.602 377.65 186.602C377.182 186.602 376.799 186.747 376.502 187.036C376.209 187.321 376.037 187.709 375.986 188.202ZM381.6 191.899V185.711H382.783V186.713H382.807C382.92 186.374 383.098 186.11 383.34 185.922C383.586 185.731 383.906 185.635 384.301 185.635C384.395 185.635 384.48 185.639 384.559 185.647C384.637 185.655 384.701 185.661 384.752 185.665V186.819C384.705 186.807 384.621 186.795 384.5 186.784C384.379 186.768 384.246 186.76 384.102 186.76C383.754 186.76 383.455 186.881 383.205 187.124C382.959 187.366 382.836 187.739 382.836 188.243V191.899H381.6ZM385.596 191.999C385.369 191.999 385.176 191.92 385.016 191.764C384.859 191.604 384.781 191.409 384.781 191.178C384.781 190.952 384.859 190.758 385.016 190.598C385.176 190.438 385.369 190.358 385.596 190.358C385.826 190.358 386.02 190.438 386.176 190.598C386.336 190.758 386.416 190.952 386.416 191.178C386.416 191.409 386.336 191.604 386.176 191.764C386.02 191.92 385.826 191.999 385.596 191.999Z" fill="#333333"/>
</g>
<rect x="92" y="97.8989" width="383" height="117" rx="12" stroke="#E5E5E5"/>
</g>
<g filter="url(#filter1_i_2200_3224)">
<rect x="92" y="222.899" width="383" height="39" rx="8" fill="#EF5237"/>
<path d="M197.146 247.04C196.346 247.04 195.639 246.85 195.025 246.471C194.412 246.092 193.934 245.565 193.59 244.889C193.246 244.213 193.074 243.43 193.074 242.54C193.074 241.641 193.246 240.854 193.59 240.178C193.934 239.502 194.41 238.975 195.02 238.596C195.633 238.217 196.342 238.028 197.146 238.028C197.783 238.028 198.359 238.153 198.875 238.403C199.395 238.653 199.824 239.006 200.164 239.463C200.504 239.917 200.725 240.454 200.826 241.075H199.502C199.373 240.481 199.098 240.024 198.676 239.704C198.258 239.379 197.752 239.217 197.158 239.217C196.584 239.217 196.09 239.356 195.676 239.633C195.262 239.911 194.941 240.299 194.715 240.799C194.492 241.299 194.381 241.879 194.381 242.54C194.381 243.2 194.492 243.778 194.715 244.274C194.938 244.77 195.256 245.157 195.67 245.434C196.088 245.711 196.584 245.85 197.158 245.85C197.748 245.85 198.252 245.69 198.67 245.37C199.092 245.049 199.371 244.594 199.508 244.004H200.826C200.725 244.622 200.504 245.159 200.164 245.616C199.824 246.069 199.395 246.42 198.875 246.67C198.359 246.917 197.783 247.04 197.146 247.04ZM204.641 247.04C204.051 247.04 203.533 246.903 203.088 246.629C202.643 246.356 202.295 245.977 202.045 245.493C201.799 245.008 201.676 244.45 201.676 243.817C201.676 243.176 201.799 242.614 202.045 242.129C202.295 241.641 202.643 241.26 203.088 240.987C203.533 240.709 204.051 240.571 204.641 240.571C205.23 240.571 205.746 240.709 206.188 240.987C206.633 241.26 206.979 241.641 207.225 242.129C207.475 242.614 207.6 243.176 207.6 243.817C207.6 244.45 207.475 245.008 207.225 245.493C206.979 245.977 206.633 246.356 206.188 246.629C205.746 246.903 205.23 247.04 204.641 247.04ZM204.641 245.973C205.172 245.973 205.59 245.778 205.895 245.387C206.199 244.997 206.352 244.473 206.352 243.817C206.352 243.153 206.197 242.624 205.889 242.229C205.584 241.834 205.168 241.637 204.641 241.637C204.113 241.637 203.695 241.834 203.387 242.229C203.082 242.62 202.93 243.149 202.93 243.817C202.93 244.477 203.082 245.002 203.387 245.393C203.691 245.78 204.109 245.973 204.641 245.973ZM209.932 243.336V246.899H208.695V240.711H209.908V241.643C210.33 240.94 210.953 240.588 211.777 240.588C212.203 240.588 212.584 240.682 212.92 240.87C213.26 241.053 213.527 241.327 213.723 241.69C213.918 242.053 214.016 242.504 214.016 243.043V246.899H212.779V243.196C212.779 242.7 212.66 242.327 212.422 242.077C212.184 241.823 211.852 241.696 211.426 241.696C211.004 241.696 210.648 241.827 210.359 242.088C210.074 242.346 209.932 242.762 209.932 243.336ZM218.393 240.711V241.731H217.139V245.264C217.139 245.495 217.186 245.655 217.279 245.745C217.373 245.834 217.543 245.879 217.789 245.879H218.393V246.899H217.613C216.469 246.899 215.896 246.407 215.896 245.422V241.731H214.807V240.711H215.896V239.024H217.139V240.711H218.393ZM219.371 246.899V240.711H220.607V246.899H219.371ZM219.986 239.645C219.768 239.645 219.582 239.573 219.43 239.428C219.281 239.28 219.207 239.1 219.207 238.889C219.207 238.674 219.281 238.495 219.43 238.35C219.582 238.202 219.768 238.127 219.986 238.127C220.205 238.127 220.391 238.202 220.543 238.35C220.695 238.495 220.771 238.674 220.771 238.889C220.771 239.1 220.695 239.28 220.543 239.428C220.391 239.573 220.205 239.645 219.986 239.645ZM223.244 243.336V246.899H222.008V240.711H223.221V241.643C223.643 240.94 224.266 240.588 225.09 240.588C225.516 240.588 225.896 240.682 226.232 240.87C226.572 241.053 226.84 241.327 227.035 241.69C227.23 242.053 227.328 242.504 227.328 243.043V246.899H226.092V243.196C226.092 242.7 225.973 242.327 225.734 242.077C225.496 241.823 225.164 241.696 224.738 241.696C224.316 241.696 223.961 241.827 223.672 242.088C223.387 242.346 223.244 242.762 223.244 243.336ZM230.961 247.022C230.539 247.022 230.158 246.93 229.818 246.747C229.482 246.559 229.215 246.284 229.016 245.92C228.82 245.557 228.723 245.106 228.723 244.567V240.711H229.959V244.415C229.959 244.911 230.078 245.286 230.316 245.54C230.555 245.79 230.889 245.915 231.318 245.915C231.736 245.915 232.088 245.786 232.373 245.528C232.662 245.266 232.807 244.848 232.807 244.274V240.711H234.043V246.899H232.83V245.967C232.408 246.67 231.785 247.022 230.961 247.022ZM238.08 247.04C237.467 247.04 236.939 246.901 236.498 246.624C236.061 246.346 235.723 245.965 235.484 245.481C235.25 244.993 235.133 244.438 235.133 243.817C235.133 243.188 235.256 242.629 235.502 242.141C235.748 241.653 236.088 241.27 236.521 240.993C236.955 240.711 237.453 240.571 238.016 240.571C238.602 240.571 239.109 240.708 239.539 240.981C239.973 241.254 240.309 241.635 240.547 242.124C240.785 242.608 240.904 243.168 240.904 243.805V244.139H236.352C236.375 244.698 236.535 245.149 236.832 245.493C237.133 245.836 237.555 246.008 238.098 246.008C238.504 246.008 238.838 245.917 239.1 245.733C239.361 245.549 239.535 245.311 239.621 245.018H240.811C240.736 245.417 240.57 245.768 240.312 246.073C240.059 246.377 239.738 246.616 239.352 246.788C238.969 246.956 238.545 247.04 238.08 247.04ZM236.363 243.202H239.697C239.646 242.709 239.473 242.321 239.176 242.036C238.879 241.747 238.496 241.602 238.027 241.602C237.559 241.602 237.176 241.747 236.879 242.036C236.586 242.321 236.414 242.709 236.363 243.202ZM246.195 246.899L244.279 240.711H245.574L246.283 243.243C246.389 243.618 246.488 244 246.582 244.391C246.68 244.782 246.775 245.168 246.869 245.551C246.971 245.168 247.07 244.782 247.168 244.391C247.27 244 247.371 243.618 247.473 243.243L248.193 240.711H249.371L250.08 243.243C250.186 243.614 250.287 243.993 250.385 244.379C250.482 244.766 250.58 245.149 250.678 245.528C250.771 245.149 250.865 244.766 250.959 244.379C251.057 243.993 251.158 243.614 251.264 243.243L251.979 240.711H253.285L251.369 246.899H250.08L249.295 244.204C249.205 243.891 249.117 243.571 249.031 243.243C248.949 242.915 248.867 242.588 248.785 242.264C248.699 242.588 248.613 242.915 248.527 243.243C248.445 243.571 248.357 243.891 248.264 244.204L247.467 246.899H246.195ZM254.129 246.899V240.711H255.365V246.899H254.129ZM254.744 239.645C254.525 239.645 254.34 239.573 254.188 239.428C254.039 239.28 253.965 239.1 253.965 238.889C253.965 238.674 254.039 238.495 254.188 238.35C254.34 238.202 254.525 238.127 254.744 238.127C254.963 238.127 255.148 238.202 255.301 238.35C255.453 238.495 255.529 238.674 255.529 238.889C255.529 239.1 255.453 239.28 255.301 239.428C255.148 239.573 254.963 239.645 254.744 239.645ZM259.854 240.711V241.731H258.6V245.264C258.6 245.495 258.646 245.655 258.74 245.745C258.834 245.834 259.004 245.879 259.25 245.879H259.854V246.899H259.074C257.93 246.899 257.357 246.407 257.357 245.422V241.731H256.268V240.711H257.357V239.024H258.6V240.711H259.854ZM262.068 243.336V246.899H260.832V238.168H262.068V241.602C262.494 240.926 263.109 240.588 263.914 240.588C264.34 240.588 264.721 240.682 265.057 240.87C265.396 241.053 265.664 241.327 265.859 241.69C266.055 242.053 266.152 242.504 266.152 243.043V246.899H264.916V243.196C264.916 242.7 264.797 242.327 264.559 242.077C264.32 241.823 263.988 241.696 263.562 241.696C263.141 241.696 262.785 241.827 262.496 242.088C262.211 242.346 262.068 242.762 262.068 243.336ZM274.256 247.04C273.455 247.04 272.748 246.85 272.135 246.471C271.521 246.092 271.043 245.565 270.699 244.889C270.355 244.213 270.184 243.43 270.184 242.54C270.184 241.641 270.355 240.854 270.699 240.178C271.043 239.502 271.52 238.975 272.129 238.596C272.742 238.217 273.451 238.028 274.256 238.028C274.893 238.028 275.469 238.153 275.984 238.403C276.504 238.653 276.934 239.006 277.273 239.463C277.613 239.917 277.834 240.454 277.936 241.075H276.611C276.482 240.481 276.207 240.024 275.785 239.704C275.367 239.379 274.861 239.217 274.268 239.217C273.693 239.217 273.199 239.356 272.785 239.633C272.371 239.911 272.051 240.299 271.824 240.799C271.602 241.299 271.49 241.879 271.49 242.54C271.49 243.2 271.602 243.778 271.824 244.274C272.047 244.77 272.365 245.157 272.779 245.434C273.197 245.711 273.693 245.85 274.268 245.85C274.857 245.85 275.361 245.69 275.779 245.37C276.201 245.049 276.48 244.594 276.617 244.004H277.936C277.834 244.622 277.613 245.159 277.273 245.616C276.934 246.069 276.504 246.42 275.984 246.67C275.469 246.917 274.893 247.04 274.256 247.04ZM280.977 246.999C280.359 246.999 279.848 246.842 279.441 246.53C279.035 246.213 278.832 245.747 278.832 245.129C278.832 244.661 278.947 244.301 279.178 244.051C279.412 243.797 279.715 243.616 280.086 243.506C280.461 243.397 280.857 243.317 281.275 243.266C281.662 243.219 281.969 243.18 282.195 243.149C282.422 243.118 282.582 243.071 282.676 243.008C282.773 242.946 282.822 242.838 282.822 242.686V242.633C282.822 242.333 282.713 242.086 282.494 241.895C282.275 241.7 281.969 241.602 281.574 241.602C281.18 241.602 280.857 241.698 280.607 241.889C280.357 242.077 280.221 242.313 280.197 242.598H278.984C279.012 242.008 279.26 241.526 279.729 241.151C280.197 240.776 280.818 240.588 281.592 240.588C282.354 240.588 282.953 240.776 283.391 241.151C283.828 241.526 284.047 242.028 284.047 242.657V246.899H282.828V246.02H282.805C282.676 246.27 282.471 246.497 282.189 246.7C281.912 246.899 281.508 246.999 280.977 246.999ZM281.229 246.002C281.775 246.002 282.178 245.862 282.436 245.581C282.697 245.295 282.828 244.963 282.828 244.584V243.858C282.746 243.924 282.561 243.985 282.271 244.04C281.982 244.09 281.674 244.139 281.346 244.186C281.006 244.237 280.707 244.333 280.449 244.473C280.191 244.614 280.062 244.84 280.062 245.153C280.062 245.418 280.166 245.627 280.373 245.78C280.584 245.928 280.869 246.002 281.229 246.002ZM287.732 247.045C287.26 247.045 286.834 246.969 286.455 246.817C286.076 246.665 285.77 246.438 285.535 246.137C285.305 245.836 285.176 245.463 285.148 245.018H286.367C286.438 245.713 286.885 246.061 287.709 246.061C288.1 246.061 288.408 245.981 288.635 245.821C288.865 245.661 288.98 245.458 288.98 245.211C288.98 245 288.898 244.833 288.734 244.708C288.57 244.579 288.355 244.485 288.09 244.426L287.064 244.198C285.881 243.94 285.289 243.35 285.289 242.428C285.289 241.881 285.506 241.436 285.939 241.092C286.377 240.749 286.949 240.577 287.656 240.577C288.355 240.577 288.93 240.758 289.379 241.122C289.832 241.481 290.066 241.973 290.082 242.598H288.898C288.895 242.297 288.781 242.049 288.559 241.854C288.336 241.655 288.041 241.555 287.674 241.555C287.322 241.555 287.043 241.637 286.836 241.801C286.629 241.965 286.525 242.167 286.525 242.405C286.525 242.616 286.604 242.786 286.76 242.915C286.92 243.043 287.139 243.139 287.416 243.202L288.471 243.436C289.072 243.569 289.516 243.774 289.801 244.051C290.086 244.329 290.229 244.692 290.229 245.141C290.229 245.536 290.119 245.875 289.9 246.161C289.686 246.442 289.391 246.661 289.016 246.817C288.641 246.969 288.213 247.045 287.732 247.045ZM292.561 243.336V246.899H291.324V238.168H292.561V241.602C292.986 240.926 293.602 240.588 294.406 240.588C294.832 240.588 295.213 240.682 295.549 240.87C295.889 241.053 296.156 241.327 296.352 241.69C296.547 242.053 296.645 242.504 296.645 243.043V246.899H295.408V243.196C295.408 242.7 295.289 242.327 295.051 242.077C294.812 241.823 294.48 241.696 294.055 241.696C293.633 241.696 293.277 241.827 292.988 242.088C292.703 242.346 292.561 242.762 292.561 243.336ZM300.998 246.899V238.168H304.232C305.166 238.168 305.906 238.413 306.453 238.901C307 239.389 307.273 240.051 307.273 240.887C307.273 241.446 307.146 241.93 306.893 242.34C306.639 242.747 306.281 243.061 305.82 243.284C305.359 243.502 304.816 243.612 304.191 243.612H302.299V246.899H300.998ZM302.299 242.487H304.168C304.73 242.487 305.174 242.344 305.498 242.059C305.826 241.77 305.99 241.379 305.99 240.887C305.99 240.395 305.826 240.008 305.498 239.727C305.174 239.442 304.73 239.299 304.168 239.299H302.299V242.487ZM309.922 246.999C309.305 246.999 308.793 246.842 308.387 246.53C307.98 246.213 307.777 245.747 307.777 245.129C307.777 244.661 307.893 244.301 308.123 244.051C308.357 243.797 308.66 243.616 309.031 243.506C309.406 243.397 309.803 243.317 310.221 243.266C310.607 243.219 310.914 243.18 311.141 243.149C311.367 243.118 311.527 243.071 311.621 243.008C311.719 242.946 311.768 242.838 311.768 242.686V242.633C311.768 242.333 311.658 242.086 311.439 241.895C311.221 241.7 310.914 241.602 310.52 241.602C310.125 241.602 309.803 241.698 309.553 241.889C309.303 242.077 309.166 242.313 309.143 242.598H307.93C307.957 242.008 308.205 241.526 308.674 241.151C309.143 240.776 309.764 240.588 310.537 240.588C311.299 240.588 311.898 240.776 312.336 241.151C312.773 241.526 312.992 242.028 312.992 242.657V246.899H311.773V246.02H311.75C311.621 246.27 311.416 246.497 311.135 246.7C310.857 246.899 310.453 246.999 309.922 246.999ZM310.174 246.002C310.721 246.002 311.123 245.862 311.381 245.581C311.643 245.295 311.773 244.963 311.773 244.584V243.858C311.691 243.924 311.506 243.985 311.217 244.04C310.928 244.09 310.619 244.139 310.291 244.186C309.951 244.237 309.652 244.333 309.395 244.473C309.137 244.614 309.008 244.84 309.008 245.153C309.008 245.418 309.111 245.627 309.318 245.78C309.529 245.928 309.814 246.002 310.174 246.002ZM314.188 249.348V248.305H314.855C315.051 248.305 315.209 248.249 315.33 248.135C315.455 248.026 315.564 247.844 315.658 247.59L315.939 246.858L313.549 240.711H314.873L316.109 244.104C316.191 244.334 316.271 244.567 316.35 244.801C316.428 245.032 316.504 245.262 316.578 245.493C316.652 245.262 316.729 245.032 316.807 244.801C316.889 244.567 316.971 244.334 317.053 244.104L318.271 240.711H319.578L316.766 247.983C316.418 248.893 315.82 249.348 314.973 249.348H314.188ZM320.422 246.899V240.711H321.623V241.749C321.814 241.366 322.074 241.077 322.402 240.881C322.73 240.686 323.086 240.588 323.469 240.588C323.891 240.588 324.26 240.696 324.576 240.911C324.896 241.125 325.121 241.399 325.25 241.731C325.418 241.395 325.672 241.122 326.012 240.911C326.355 240.696 326.756 240.588 327.213 240.588C327.596 240.588 327.943 240.672 328.256 240.84C328.568 241.008 328.816 241.258 329 241.59C329.184 241.918 329.275 242.331 329.275 242.827V246.899H328.033V242.932C328.033 242.491 327.91 242.17 327.664 241.971C327.418 241.772 327.127 241.672 326.791 241.672C326.377 241.672 326.051 241.801 325.812 242.059C325.574 242.313 325.455 242.637 325.455 243.032V246.899H324.236V242.85C324.236 242.495 324.121 242.209 323.891 241.995C323.664 241.78 323.375 241.672 323.023 241.672C322.664 241.672 322.346 241.799 322.068 242.053C321.795 242.307 321.658 242.678 321.658 243.167V246.899H320.422ZM333.318 247.04C332.705 247.04 332.178 246.901 331.736 246.624C331.299 246.346 330.961 245.965 330.723 245.481C330.488 244.993 330.371 244.438 330.371 243.817C330.371 243.188 330.494 242.629 330.74 242.141C330.986 241.653 331.326 241.27 331.76 240.993C332.193 240.711 332.691 240.571 333.254 240.571C333.84 240.571 334.348 240.708 334.777 240.981C335.211 241.254 335.547 241.635 335.785 242.124C336.023 242.608 336.143 243.168 336.143 243.805V244.139H331.59C331.613 244.698 331.773 245.149 332.07 245.493C332.371 245.836 332.793 246.008 333.336 246.008C333.742 246.008 334.076 245.917 334.338 245.733C334.6 245.549 334.773 245.311 334.859 245.018H336.049C335.975 245.417 335.809 245.768 335.551 246.073C335.297 246.377 334.977 246.616 334.59 246.788C334.207 246.956 333.783 247.04 333.318 247.04ZM331.602 243.202H334.936C334.885 242.709 334.711 242.321 334.414 242.036C334.117 241.747 333.734 241.602 333.266 241.602C332.797 241.602 332.414 241.747 332.117 242.036C331.824 242.321 331.652 242.709 331.602 243.202ZM338.451 243.336V246.899H337.215V240.711H338.428V241.643C338.85 240.94 339.473 240.588 340.297 240.588C340.723 240.588 341.104 240.682 341.439 240.87C341.779 241.053 342.047 241.327 342.242 241.69C342.438 242.053 342.535 242.504 342.535 243.043V246.899H341.299V243.196C341.299 242.7 341.18 242.327 340.941 242.077C340.703 241.823 340.371 241.696 339.945 241.696C339.523 241.696 339.168 241.827 338.879 242.088C338.594 242.346 338.451 242.762 338.451 243.336ZM346.912 240.711V241.731H345.658V245.264C345.658 245.495 345.705 245.655 345.799 245.745C345.893 245.834 346.062 245.879 346.309 245.879H346.912V246.899H346.133C344.988 246.899 344.416 246.407 344.416 245.422V241.731H343.326V240.711H344.416V239.024H345.658V240.711H346.912ZM350.076 247.045C349.604 247.045 349.178 246.969 348.799 246.817C348.42 246.665 348.113 246.438 347.879 246.137C347.648 245.836 347.52 245.463 347.492 245.018H348.711C348.781 245.713 349.229 246.061 350.053 246.061C350.443 246.061 350.752 245.981 350.979 245.821C351.209 245.661 351.324 245.458 351.324 245.211C351.324 245 351.242 244.833 351.078 244.708C350.914 244.579 350.699 244.485 350.434 244.426L349.408 244.198C348.225 243.94 347.633 243.35 347.633 242.428C347.633 241.881 347.85 241.436 348.283 241.092C348.721 240.749 349.293 240.577 350 240.577C350.699 240.577 351.273 240.758 351.723 241.122C352.176 241.481 352.41 241.973 352.426 242.598H351.242C351.238 242.297 351.125 242.049 350.902 241.854C350.68 241.655 350.385 241.555 350.018 241.555C349.666 241.555 349.387 241.637 349.18 241.801C348.973 241.965 348.869 242.167 348.869 242.405C348.869 242.616 348.947 242.786 349.104 242.915C349.264 243.043 349.482 243.139 349.76 243.202L350.814 243.436C351.416 243.569 351.859 243.774 352.145 244.051C352.43 244.329 352.572 244.692 352.572 245.141C352.572 245.536 352.463 245.875 352.244 246.161C352.029 246.442 351.734 246.661 351.359 246.817C350.984 246.969 350.557 247.045 350.076 247.045Z" fill="white"/>
<g clipPath="url(#clip3_2200_3224)">
<path d="M363.6 242.399H372.4" stroke="white" stroke-width="1.5" stroke-linecap="round" stroke-linejoin="round"/>
<path d="M368.799 238.799L372.399 242.399L368.799 245.999" stroke="white" stroke-width="1.5" stroke-linecap="round" stroke-linejoin="round"/>
</g>
</g>
<path d="M447.983 255.882C449.148 254.718 450.774 254.745 452.543 255.161C454.34 255.583 456.698 256.508 459.702 257.684L469.758 261.619C472.628 262.742 474.88 263.621 476.39 264.453C477.146 264.87 477.798 265.317 478.259 265.839C478.743 266.387 479.037 267.044 478.996 267.808C478.955 268.575 478.59 269.197 478.048 269.69C477.531 270.16 476.831 270.536 476.029 270.872C474.429 271.541 472.081 272.179 469.085 272.996C468.166 273.246 467.545 273.417 467.072 273.596C466.62 273.768 466.379 273.923 466.201 274.1C466.024 274.277 465.869 274.518 465.697 274.97C465.518 275.443 465.348 276.064 465.097 276.984C464.28 279.98 463.642 282.328 462.973 283.928C462.637 284.73 462.261 285.43 461.791 285.947C461.298 286.489 460.676 286.854 459.909 286.895C459.145 286.936 458.489 286.642 457.94 286.158C457.419 285.697 456.971 285.045 456.554 284.289C455.722 282.779 454.843 280.527 453.72 277.657L449.785 267.601C448.609 264.596 447.684 262.239 447.262 260.442C446.846 258.673 446.819 257.047 447.983 255.882Z" fill="#424242" stroke="white" stroke-width="2" stroke-linejoin="round"/>
<defs>
<filter id="filter0_d_2200_3224" x="71.5" y="77.3989" width="424" height="158" filterUnits="userSpaceOnUse" color-interpolation-filters="sRGB">
<feFlood flood-opacity="0" result="BackgroundImageFix"/>
<feColorMatrix in="SourceAlpha" type="matrix" values="0 0 0 0 0 0 0 0 0 0 0 0 0 0 0 0 0 0 127 0" result="hardAlpha"/>
<feOffset/>
<feGaussianBlur stdDeviation="10"/>
<feComposite in2="hardAlpha" operator="out"/>
<feColorMatrix type="matrix" values="0 0 0 0 0 0 0 0 0 0 0 0 0 0 0 0 0 0 0.04 0"/>
<feBlend mode="normal" in2="BackgroundImageFix" result="effect1_dropShadow_2200_3224"/>
<feBlend mode="normal" in="SourceGraphic" in2="effect1_dropShadow_2200_3224" result="shape"/>
</filter>
<filter id="filter1_i_2200_3224" x="92" y="222.899" width="383" height="39" filterUnits="userSpaceOnUse" color-interpolation-filters="sRGB">
<feFlood flood-opacity="0" result="BackgroundImageFix"/>
<feBlend mode="normal" in="SourceGraphic" in2="BackgroundImageFix" result="shape"/>
<feColorMatrix in="SourceAlpha" type="matrix" values="0 0 0 0 0 0 0 0 0 0 0 0 0 0 0 0 0 0 127 0" result="hardAlpha"/>
<feOffset dy="-2"/>
<feComposite in2="hardAlpha" operator="arithmetic" k2="-1" k3="1"/>
<feColorMatrix type="matrix" values="0 0 0 0 0.914756 0 0 0 0 0.190557 0 0 0 0 0.0660133 0 0 0 1 0"/>
<feBlend mode="normal" in2="shape" result="effect1_innerShadow_2200_3224"/>
</filter>
<clipPath id="clip0_2200_3224">
<rect x="92" y="97.8989" width="383" height="117" rx="12" fill="white"/>
</clipPath>
<clipPath id="clip1_2200_3224">
<rect width="16" height="16" fill="white" transform="translate(127 128.899)"/>
</clipPath>
<clipPath id="clip2_2200_3224">
<rect width="12" height="12" fill="white" transform="translate(180 181.399)"/>
</clipPath>
<clipPath id="clip3_2200_3224">
<rect width="12.8" height="12.8" fill="white" transform="translate(361.6 235.999)"/>
</clipPath>
</defs>
</svg>
