<svg width="566" height="360" viewBox="0 0 566 360" fill="none" xmlns="http://www.w3.org/2000/svg">
<rect width="566" height="360" rx="16" fill="black" fill-opacity="0.04"/>
<g filter="url(#filter0_d_2200_3177)">
<g clip-path="url(#clip0_2200_3177)">
<rect x="91" y="57.8989" width="383" height="244.968" rx="12" fill="white"/>
<path d="M112.236 84.063C111.334 84.063 110.53 83.842 109.823 83.3999C109.117 82.9578 108.561 82.3426 108.155 81.5542C107.754 80.7658 107.554 79.8521 107.554 78.813C107.554 77.7694 107.754 76.8534 108.155 76.0649C108.561 75.272 109.117 74.6545 109.823 74.2124C110.53 73.7703 111.334 73.5493 112.236 73.5493C113.143 73.5493 113.95 73.7703 114.656 74.2124C115.363 74.6545 115.916 75.272 116.317 76.0649C116.723 76.8534 116.926 77.7694 116.926 78.813C116.926 79.8521 116.723 80.7658 116.317 81.5542C115.916 82.3426 115.363 82.9578 114.656 83.3999C113.95 83.842 113.143 84.063 112.236 84.063ZM112.236 82.6753C112.824 82.6753 113.357 82.5272 113.836 82.231C114.314 81.9302 114.695 81.4927 114.978 80.9185C115.26 80.3397 115.401 79.6379 115.401 78.813C115.401 77.9836 115.26 77.2795 114.978 76.7007C114.695 76.1219 114.314 75.6844 113.836 75.3882C113.357 75.0874 112.824 74.937 112.236 74.937C111.653 74.937 111.122 75.0874 110.644 75.3882C110.165 75.6844 109.785 76.1219 109.502 76.7007C109.219 77.2795 109.078 77.9836 109.078 78.813C109.078 79.6379 109.219 80.3397 109.502 80.9185C109.785 81.4927 110.165 81.9302 110.644 82.231C111.122 82.5272 111.653 82.6753 112.236 82.6753ZM118.3 83.8989V76.6802H119.681V77.8491H119.708C119.84 77.4526 120.048 77.145 120.33 76.9263C120.617 76.703 120.991 76.5913 121.451 76.5913C121.561 76.5913 121.661 76.5959 121.752 76.605C121.843 76.6141 121.918 76.6209 121.978 76.6255V77.9722C121.923 77.9585 121.825 77.9448 121.684 77.9312C121.542 77.9129 121.387 77.9038 121.219 77.9038C120.813 77.9038 120.465 78.0451 120.173 78.3276C119.886 78.6102 119.742 79.0454 119.742 79.6333V83.8989H118.3ZM125.724 84.0425C125.095 84.0425 124.546 83.8853 124.076 83.5708C123.607 83.2518 123.242 82.812 122.982 82.2515C122.723 81.6864 122.593 81.0324 122.593 80.2896C122.593 79.5467 122.723 78.895 122.982 78.3345C123.247 77.7694 123.614 77.3296 124.083 77.0151C124.552 76.6961 125.097 76.5366 125.717 76.5366C126.186 76.5366 126.615 76.6346 127.002 76.8306C127.389 77.0265 127.699 77.325 127.932 77.7261H127.945V73.7134H129.388V83.8989H127.973V82.7983H127.959C127.717 83.2176 127.401 83.5298 127.009 83.7349C126.621 83.9399 126.193 84.0425 125.724 84.0425ZM126.018 82.7983C126.633 82.7983 127.123 82.5705 127.487 82.1147C127.856 81.6545 128.041 81.0461 128.041 80.2896C128.041 79.5285 127.856 78.9201 127.487 78.4644C127.123 78.0041 126.633 77.7739 126.018 77.7739C125.434 77.7739 124.96 77.9904 124.596 78.4233C124.236 78.8517 124.056 79.4738 124.056 80.2896C124.056 81.1053 124.236 81.7274 124.596 82.1558C124.96 82.5841 125.434 82.7983 126.018 82.7983ZM134.098 84.063C133.382 84.063 132.767 83.9012 132.252 83.5776C131.742 83.2541 131.347 82.8097 131.069 82.2446C130.796 81.675 130.659 81.0278 130.659 80.3032C130.659 79.5695 130.803 78.9178 131.09 78.3481C131.377 77.7785 131.773 77.3319 132.279 77.0083C132.785 76.6802 133.366 76.5161 134.022 76.5161C134.706 76.5161 135.299 76.6756 135.8 76.9946C136.306 77.3136 136.698 77.758 136.976 78.3276C137.254 78.8927 137.393 79.5467 137.393 80.2896V80.6792H132.081C132.108 81.3309 132.295 81.8573 132.642 82.2583C132.993 82.6593 133.485 82.8599 134.118 82.8599C134.592 82.8599 134.982 82.7528 135.287 82.5386C135.592 82.3244 135.795 82.0464 135.896 81.7046H137.283C137.197 82.1694 137.003 82.5796 136.702 82.9351C136.406 83.2905 136.032 83.5685 135.581 83.769C135.134 83.965 134.64 84.063 134.098 84.063ZM132.095 79.5854H135.984C135.925 79.0112 135.722 78.5578 135.376 78.2251C135.03 77.8879 134.583 77.7192 134.036 77.7192C133.489 77.7192 133.043 77.8879 132.696 78.2251C132.354 78.5578 132.154 79.0112 132.095 79.5854ZM138.644 83.8989V76.6802H140.024V77.8491H140.052C140.184 77.4526 140.391 77.145 140.674 76.9263C140.961 76.703 141.335 76.5913 141.795 76.5913C141.904 76.5913 142.005 76.5959 142.096 76.605C142.187 76.6141 142.262 76.6209 142.321 76.6255V77.9722C142.267 77.9585 142.169 77.9448 142.027 77.9312C141.886 77.9129 141.731 77.9038 141.562 77.9038C141.157 77.9038 140.808 78.0451 140.517 78.3276C140.229 78.6102 140.086 79.0454 140.086 79.6333V83.8989H138.644ZM150.545 83.8989L150.996 81.1577H148.59L148.139 83.8989H146.97L147.421 81.1577H145.931L146.129 79.9956H147.612L147.995 77.6304H146.525L146.724 76.4546H148.193L148.638 73.7134H149.807L149.355 76.4546H151.769L152.22 73.7134H153.389L152.938 76.4546H154.421L154.236 77.6304H152.746L152.356 79.9956H153.833L153.635 81.1577H152.165L151.721 83.8989H150.545ZM148.781 79.9956H151.188L151.577 77.6304H149.164L148.781 79.9956ZM158.714 73.7134V83.8989H157.244V75.2036H157.237L154.749 76.8306V75.3813L157.285 73.7134H158.714ZM164.032 84.063C163.244 84.063 162.562 83.8488 161.988 83.4204C161.419 82.992 160.979 82.3859 160.669 81.6021C160.359 80.8136 160.204 79.884 160.204 78.813C160.204 77.7375 160.359 76.8055 160.669 76.0171C160.979 75.2287 161.419 74.6203 161.988 74.1919C162.562 73.7635 163.244 73.5493 164.032 73.5493C164.816 73.5493 165.493 73.7635 166.062 74.1919C166.637 74.6203 167.079 75.2287 167.389 76.0171C167.699 76.8055 167.854 77.7375 167.854 78.813C167.854 79.884 167.699 80.8136 167.389 81.6021C167.079 82.3859 166.637 82.992 166.062 83.4204C165.493 83.8488 164.816 84.063 164.032 84.063ZM164.032 82.771C164.771 82.771 165.352 82.4201 165.775 81.7183C166.204 81.0119 166.418 80.0435 166.418 78.813C166.418 77.578 166.204 76.6073 165.775 75.9009C165.352 75.1945 164.771 74.8413 164.032 74.8413C163.289 74.8413 162.704 75.1945 162.275 75.9009C161.852 76.6073 161.64 77.578 161.64 78.813C161.64 80.0435 161.852 81.0119 162.275 81.7183C162.704 82.4201 163.289 82.771 164.032 82.771ZM168.783 81.5269V80.3101L173.527 73.7134H175.387V80.2554H176.87V81.5269H175.387V83.8989H173.944V81.5269H168.783ZM173.944 80.2554V75.3062H173.931L170.39 80.2417V80.2554H173.944Z" fill="black"/>
<path d="M103 98.8989H462" stroke="#E5E5E5"/>
<g filter="url(#filter1_i_2200_3177)">
<path d="M107 119.383C107 114.697 110.799 110.899 115.484 110.899H139.484C144.17 110.899 147.968 114.697 147.968 119.383V143.383C147.968 148.069 144.17 151.867 139.484 151.867H115.484C110.799 151.867 107 148.069 107 143.383V119.383Z" fill="#EF5237" fill-opacity="0.06"/>
<g clip-path="url(#clip1_2200_3177)">
<path d="M137.133 140.008C137.067 140.122 136.973 140.217 136.859 140.282C136.745 140.348 136.615 140.383 136.484 140.383H118.484C118.352 140.383 118.223 140.348 118.109 140.282C117.995 140.216 117.9 140.122 117.835 140.008C117.769 139.894 117.734 139.764 117.734 139.633C117.734 139.501 117.769 139.372 117.835 139.258C119.263 136.789 121.463 135.019 124.031 134.18C122.761 133.424 121.774 132.272 121.222 130.901C120.67 129.53 120.583 128.015 120.975 126.59C121.368 125.165 122.217 123.907 123.392 123.012C124.568 122.116 126.005 121.63 127.484 121.63C128.962 121.63 130.399 122.116 131.575 123.012C132.751 123.907 133.6 125.165 133.992 126.59C134.384 128.015 134.297 129.53 133.745 130.901C133.193 132.272 132.207 133.424 130.936 134.18C133.504 135.019 135.705 136.789 137.132 139.258C137.198 139.372 137.233 139.501 137.233 139.633C137.233 139.764 137.199 139.894 137.133 140.008Z" fill="#EF5237"/>
</g>
</g>
<path d="M164.426 137.047C163.204 137.047 162.241 136.74 161.534 136.125C160.832 135.505 160.481 134.657 160.481 133.582H161.999C162.004 134.251 162.218 134.776 162.642 135.154C163.07 135.532 163.665 135.721 164.426 135.721C165.118 135.721 165.672 135.575 166.087 135.284C166.506 134.987 166.716 134.591 166.716 134.094C166.716 133.702 166.565 133.386 166.265 133.144C165.968 132.898 165.467 132.691 164.761 132.522L163.646 132.255C162.617 132.009 161.865 131.667 161.391 131.23C160.921 130.788 160.687 130.214 160.687 129.507C160.687 128.91 160.837 128.389 161.138 127.942C161.438 127.495 161.86 127.149 162.402 126.903C162.949 126.657 163.587 126.534 164.316 126.534C165.415 126.534 166.287 126.821 166.935 127.395C167.586 127.969 167.928 128.753 167.96 129.747H166.49C166.454 129.159 166.24 128.698 165.848 128.366C165.456 128.028 164.938 127.86 164.296 127.86C163.681 127.86 163.177 128.008 162.785 128.304C162.393 128.596 162.197 128.972 162.197 129.432C162.197 129.801 162.348 130.102 162.648 130.334C162.949 130.562 163.448 130.761 164.146 130.929L165.246 131.189C166.267 131.431 167.019 131.779 167.502 132.235C167.99 132.691 168.233 133.283 168.233 134.012C168.233 134.623 168.076 135.156 167.762 135.612C167.447 136.068 167.005 136.421 166.436 136.671C165.866 136.922 165.196 137.047 164.426 137.047ZM171.761 137C171.041 137 170.444 136.817 169.97 136.453C169.496 136.083 169.259 135.539 169.259 134.819C169.259 134.272 169.393 133.853 169.662 133.561C169.936 133.265 170.289 133.053 170.722 132.925C171.159 132.798 171.622 132.704 172.109 132.645C172.561 132.59 172.918 132.545 173.183 132.508C173.447 132.472 173.634 132.417 173.743 132.344C173.857 132.271 173.914 132.146 173.914 131.968V131.907C173.914 131.556 173.786 131.269 173.531 131.045C173.276 130.818 172.918 130.704 172.458 130.704C171.998 130.704 171.622 130.815 171.33 131.039C171.038 131.257 170.879 131.533 170.852 131.866H169.437C169.468 131.178 169.758 130.615 170.305 130.177C170.852 129.74 171.576 129.521 172.479 129.521C173.367 129.521 174.067 129.74 174.577 130.177C175.088 130.615 175.343 131.2 175.343 131.934V136.883H173.921V135.858H173.894C173.743 136.15 173.504 136.414 173.176 136.651C172.852 136.883 172.381 137 171.761 137ZM172.055 135.837C172.693 135.837 173.162 135.673 173.463 135.345C173.768 135.013 173.921 134.625 173.921 134.183V133.335C173.825 133.413 173.609 133.484 173.271 133.547C172.934 133.607 172.574 133.664 172.191 133.718C171.795 133.778 171.446 133.889 171.146 134.053C170.845 134.217 170.694 134.482 170.694 134.846C170.694 135.156 170.815 135.4 171.057 135.578C171.303 135.751 171.635 135.837 172.055 135.837ZM176.97 136.883V129.665H178.351V130.833H178.378C178.51 130.437 178.717 130.129 179 129.911C179.287 129.687 179.661 129.576 180.121 129.576C180.23 129.576 180.331 129.58 180.422 129.589C180.513 129.598 180.588 129.605 180.647 129.61V130.957C180.593 130.943 180.495 130.929 180.354 130.916C180.212 130.897 180.057 130.888 179.889 130.888C179.483 130.888 179.134 131.029 178.843 131.312C178.556 131.595 178.412 132.03 178.412 132.618V136.883H176.97ZM183.751 137C183.031 137 182.434 136.817 181.96 136.453C181.486 136.083 181.249 135.539 181.249 134.819C181.249 134.272 181.383 133.853 181.652 133.561C181.926 133.265 182.279 133.053 182.712 132.925C183.149 132.798 183.612 132.704 184.1 132.645C184.551 132.59 184.909 132.545 185.173 132.508C185.437 132.472 185.624 132.417 185.733 132.344C185.847 132.271 185.904 132.146 185.904 131.968V131.907C185.904 131.556 185.777 131.269 185.521 131.045C185.266 130.818 184.909 130.704 184.448 130.704C183.988 130.704 183.612 130.815 183.32 131.039C183.029 131.257 182.869 131.533 182.842 131.866H181.427C181.459 131.178 181.748 130.615 182.295 130.177C182.842 129.74 183.566 129.521 184.469 129.521C185.357 129.521 186.057 129.74 186.567 130.177C187.078 130.615 187.333 131.2 187.333 131.934V136.883H185.911V135.858H185.884C185.733 136.15 185.494 136.414 185.166 136.651C184.842 136.883 184.371 137 183.751 137ZM184.045 135.837C184.683 135.837 185.152 135.673 185.453 135.345C185.758 135.013 185.911 134.625 185.911 134.183V133.335C185.815 133.413 185.599 133.484 185.262 133.547C184.924 133.607 184.564 133.664 184.182 133.718C183.785 133.778 183.437 133.889 183.136 134.053C182.835 134.217 182.685 134.482 182.685 134.846C182.685 135.156 182.805 135.4 183.047 135.578C183.293 135.751 183.626 135.837 184.045 135.837ZM190.402 132.727V136.883H188.96V126.698H190.402V130.704C190.899 129.915 191.617 129.521 192.556 129.521C193.052 129.521 193.497 129.63 193.889 129.849C194.285 130.063 194.597 130.382 194.825 130.806C195.053 131.23 195.167 131.756 195.167 132.385V136.883H193.725V132.563C193.725 131.984 193.586 131.549 193.308 131.257C193.03 130.961 192.642 130.813 192.146 130.813C191.653 130.813 191.239 130.966 190.901 131.271C190.569 131.572 190.402 132.057 190.402 132.727Z" fill="#333333"/>
<rect x="390" y="117.383" width="68" height="28" rx="14" fill="black" fill-opacity="0.04"/>
<g clip-path="url(#clip2_2200_3177)">
<path d="M406 137.383C409.314 137.383 412 134.697 412 131.383C412 128.07 409.314 125.383 406 125.383C402.686 125.383 400 128.07 400 131.383C400 134.697 402.686 137.383 406 137.383Z" stroke="#666666" stroke-width="1.5" stroke-linecap="round" stroke-linejoin="round"/>
<path d="M406 127.883V131.383H409.5" stroke="#666666" stroke-width="1.5" stroke-linecap="round" stroke-linejoin="round"/>
</g>
<path d="M423.662 127.153V135.883H422.402V128.43H422.396L420.264 129.825V128.583L422.438 127.153H423.662ZM428.021 136.024C427.416 136.024 426.881 135.918 426.416 135.708C425.955 135.497 425.594 135.206 425.332 134.834C425.07 134.463 424.939 134.038 424.939 133.557C424.939 133.167 425.023 132.813 425.191 132.497C425.359 132.176 425.588 131.915 425.877 131.711C426.17 131.504 426.502 131.377 426.873 131.331C426.393 131.241 426.002 131.02 425.701 130.668C425.4 130.317 425.25 129.881 425.25 129.362C425.25 128.909 425.369 128.506 425.607 128.155C425.846 127.799 426.174 127.52 426.592 127.317C427.01 127.114 427.486 127.012 428.021 127.012C428.557 127.012 429.031 127.114 429.445 127.317C429.863 127.516 430.191 127.793 430.43 128.149C430.668 128.504 430.787 128.909 430.787 129.362C430.787 129.877 430.635 130.313 430.33 130.668C430.029 131.02 429.643 131.241 429.17 131.331C429.541 131.381 429.871 131.51 430.16 131.717C430.453 131.92 430.684 132.182 430.852 132.502C431.02 132.819 431.104 133.17 431.104 133.557C431.104 134.038 430.973 134.463 430.711 134.834C430.449 135.206 430.086 135.497 429.621 135.708C429.156 135.918 428.623 136.024 428.021 136.024ZM428.021 134.963C428.561 134.963 428.992 134.829 429.316 134.559C429.641 134.29 429.803 133.93 429.803 133.481C429.803 133.024 429.635 132.649 429.299 132.356C428.967 132.059 428.541 131.911 428.021 131.911C427.498 131.911 427.068 132.059 426.732 132.356C426.396 132.649 426.229 133.024 426.229 133.481C426.229 133.926 426.391 134.286 426.715 134.559C427.043 134.829 427.479 134.963 428.021 134.963ZM428.021 130.862C428.471 130.862 428.834 130.735 429.111 130.481C429.393 130.223 429.533 129.883 429.533 129.461C429.533 129.047 429.395 128.713 429.117 128.459C428.84 128.206 428.475 128.079 428.021 128.079C427.564 128.079 427.197 128.206 426.92 128.459C426.643 128.713 426.504 129.047 426.504 129.461C426.504 129.879 426.643 130.217 426.92 130.475C427.201 130.733 427.568 130.862 428.021 130.862ZM432.943 134.553C432.717 134.553 432.523 134.475 432.363 134.319C432.207 134.159 432.129 133.963 432.129 133.733C432.129 133.506 432.207 133.313 432.363 133.153C432.523 132.993 432.717 132.913 432.943 132.913C433.174 132.913 433.367 132.993 433.523 133.153C433.684 133.313 433.764 133.506 433.764 133.733C433.764 133.963 433.684 134.159 433.523 134.319C433.367 134.475 433.174 134.553 432.943 134.553ZM432.943 130.124C432.717 130.124 432.523 130.045 432.363 129.889C432.207 129.729 432.129 129.534 432.129 129.303C432.129 129.077 432.207 128.883 432.363 128.723C432.523 128.563 432.717 128.483 432.943 128.483C433.174 128.483 433.367 128.563 433.523 128.723C433.684 128.883 433.764 129.077 433.764 129.303C433.764 129.534 433.684 129.729 433.523 129.889C433.367 130.045 433.174 130.124 432.943 130.124ZM437.988 136.024C437.344 136.024 436.785 135.897 436.312 135.643C435.844 135.389 435.48 135.042 435.223 134.6C434.965 134.159 434.836 133.657 434.836 133.094H436.119C436.119 133.676 436.281 134.129 436.605 134.454C436.934 134.778 437.387 134.94 437.965 134.94C438.52 134.94 438.969 134.799 439.312 134.518C439.66 134.237 439.834 133.86 439.834 133.387C439.834 132.954 439.648 132.606 439.277 132.344C438.91 132.079 438.426 131.946 437.824 131.946H437.098V130.885H437.824C438.355 130.885 438.783 130.764 439.107 130.522C439.436 130.28 439.6 129.958 439.6 129.555C439.6 129.102 439.447 128.745 439.143 128.483C438.838 128.221 438.436 128.09 437.936 128.09C437.42 128.09 437.012 128.235 436.711 128.524C436.414 128.813 436.266 129.211 436.266 129.719H435.018C435.018 129.192 435.141 128.725 435.387 128.319C435.633 127.909 435.975 127.588 436.412 127.358C436.85 127.127 437.359 127.012 437.941 127.012C438.496 127.012 438.992 127.118 439.43 127.329C439.867 127.536 440.211 127.825 440.461 128.196C440.715 128.563 440.842 128.983 440.842 129.456C440.842 129.917 440.697 130.317 440.408 130.657C440.119 130.993 439.73 131.227 439.242 131.36V131.377C439.816 131.467 440.271 131.702 440.607 132.081C440.943 132.459 441.111 132.907 441.111 133.422C441.111 133.93 440.977 134.379 440.707 134.77C440.438 135.161 440.066 135.467 439.594 135.69C439.125 135.913 438.59 136.024 437.988 136.024ZM445.342 136.024C444.666 136.024 444.082 135.84 443.59 135.473C443.102 135.106 442.725 134.586 442.459 133.915C442.193 133.239 442.061 132.442 442.061 131.524C442.061 130.602 442.193 129.803 442.459 129.127C442.725 128.452 443.102 127.93 443.59 127.563C444.082 127.196 444.666 127.012 445.342 127.012C446.014 127.012 446.594 127.196 447.082 127.563C447.574 127.93 447.953 128.452 448.219 129.127C448.484 129.803 448.617 130.602 448.617 131.524C448.617 132.442 448.484 133.239 448.219 133.915C447.953 134.586 447.574 135.106 447.082 135.473C446.594 135.84 446.014 136.024 445.342 136.024ZM445.342 134.917C445.975 134.917 446.473 134.616 446.836 134.014C447.203 133.409 447.387 132.579 447.387 131.524C447.387 130.465 447.203 129.633 446.836 129.028C446.473 128.422 445.975 128.12 445.342 128.12C444.705 128.12 444.203 128.422 443.836 129.028C443.473 129.633 443.291 130.465 443.291 131.524C443.291 132.579 443.473 133.409 443.836 134.014C444.203 134.616 444.705 134.917 445.342 134.917Z" fill="#666666"/>
<rect x="107" y="165.868" width="351" height="62" rx="8" fill="black" fill-opacity="0.04"/>
<rect x="119" y="177.868" width="20" height="20" rx="6" fill="#333333"/>
<g clip-path="url(#clip3_2200_3177)">
<path d="M124.875 188.618L127.5 191.243L133.5 185.243" stroke="white" stroke-width="2" stroke-linecap="round" stroke-linejoin="round"/>
</g>
<path d="M155.272 181.682V191.868H153.803V183.172H153.796L151.308 184.799V183.35L153.844 181.682H155.272ZM156.373 191.868L159.032 188.19L156.537 184.649H158.185L159.046 185.934C159.183 186.148 159.317 186.358 159.449 186.563C159.586 186.768 159.718 186.975 159.846 187.185C159.982 186.975 160.117 186.768 160.249 186.563C160.381 186.358 160.52 186.148 160.666 185.934L161.541 184.649H163.161L160.659 188.169L163.284 191.868H161.637L160.632 190.405C160.495 190.195 160.361 189.99 160.229 189.79C160.096 189.589 159.966 189.389 159.839 189.188C159.707 189.389 159.572 189.589 159.436 189.79C159.303 189.99 159.169 190.195 159.032 190.405L158.007 191.868H156.373ZM169.238 181.682V191.868H167.721V181.682H169.238ZM174.071 192.032C173.383 192.032 172.779 191.872 172.26 191.553C171.745 191.234 171.344 190.792 171.057 190.227C170.77 189.657 170.626 189.006 170.626 188.272C170.626 187.529 170.77 186.873 171.057 186.303C171.348 185.734 171.752 185.289 172.267 184.97C172.782 184.647 173.383 184.485 174.071 184.485C174.646 184.485 175.158 184.599 175.609 184.827C176.065 185.05 176.434 185.36 176.717 185.756C176.999 186.153 177.17 186.606 177.229 187.117H175.794C175.721 186.711 175.539 186.378 175.247 186.119C174.955 185.859 174.566 185.729 174.078 185.729C173.454 185.729 172.966 185.959 172.615 186.419C172.264 186.88 172.089 187.497 172.089 188.272C172.089 189.038 172.264 189.648 172.615 190.104C172.966 190.56 173.454 190.788 174.078 190.788C174.575 190.788 174.958 190.662 175.227 190.412C175.495 190.156 175.678 189.817 175.773 189.393H177.229C177.175 189.894 177.006 190.346 176.724 190.747C176.441 191.143 176.072 191.458 175.616 191.69C175.16 191.918 174.646 192.032 174.071 192.032ZM181.543 192.032C180.827 192.032 180.212 191.87 179.697 191.546C179.187 191.223 178.793 190.778 178.515 190.213C178.241 189.644 178.104 188.997 178.104 188.272C178.104 187.538 178.248 186.887 178.535 186.317C178.822 185.747 179.219 185.301 179.725 184.977C180.23 184.649 180.812 184.485 181.468 184.485C182.151 184.485 182.744 184.644 183.245 184.963C183.751 185.282 184.143 185.727 184.421 186.296C184.699 186.861 184.838 187.515 184.838 188.258V188.648H179.526C179.554 189.3 179.741 189.826 180.087 190.227C180.438 190.628 180.93 190.829 181.563 190.829C182.037 190.829 182.427 190.722 182.732 190.507C183.038 190.293 183.241 190.015 183.341 189.673H184.729C184.642 190.138 184.448 190.548 184.147 190.904C183.851 191.259 183.478 191.537 183.026 191.738C182.58 191.934 182.085 192.032 181.543 192.032ZM179.54 187.554H183.43C183.37 186.98 183.168 186.527 182.821 186.194C182.475 185.857 182.028 185.688 181.481 185.688C180.935 185.688 180.488 185.857 180.142 186.194C179.8 186.527 179.599 186.98 179.54 187.554ZM188.864 192.011C188.235 192.011 187.686 191.854 187.217 191.54C186.747 191.221 186.383 190.781 186.123 190.22C185.863 189.655 185.733 189.001 185.733 188.258C185.733 187.515 185.863 186.864 186.123 186.303C186.387 185.738 186.754 185.298 187.224 184.984C187.693 184.665 188.238 184.505 188.857 184.505C189.327 184.505 189.755 184.603 190.143 184.799C190.53 184.995 190.84 185.294 191.072 185.695H191.086V181.682H192.528V191.868H191.113V190.767H191.1C190.858 191.186 190.541 191.499 190.149 191.704C189.762 191.909 189.334 192.011 188.864 192.011ZM189.158 190.767C189.773 190.767 190.263 190.539 190.628 190.083C190.997 189.623 191.182 189.015 191.182 188.258C191.182 187.497 190.997 186.889 190.628 186.433C190.263 185.973 189.773 185.743 189.158 185.743C188.575 185.743 188.101 185.959 187.736 186.392C187.376 186.82 187.196 187.443 187.196 188.258C187.196 189.074 187.376 189.696 187.736 190.125C188.101 190.553 188.575 190.767 189.158 190.767ZM200.485 191.868L196.787 181.682H198.421L200.438 187.424C200.561 187.793 200.702 188.229 200.861 188.73C201.021 189.231 201.208 189.817 201.422 190.487C201.627 189.817 201.807 189.231 201.962 188.73C202.121 188.229 202.263 187.793 202.386 187.424L204.348 181.682H205.954L202.311 191.868H200.485ZM209.898 192.032C208.723 192.032 207.811 191.606 207.164 190.753C206.521 189.901 206.2 188.7 206.2 187.151C206.2 186.016 206.339 185.027 206.617 184.184C206.895 183.341 207.317 182.687 207.882 182.222C208.451 181.753 209.169 181.518 210.035 181.518C210.655 181.518 211.2 181.637 211.669 181.874C212.143 182.106 212.523 182.432 212.811 182.851C213.098 183.27 213.271 183.753 213.33 184.3H211.874C211.787 183.84 211.589 183.473 211.279 183.2C210.974 182.926 210.573 182.79 210.076 182.79C209.525 182.79 209.067 182.947 208.702 183.261C208.342 183.576 208.073 184.009 207.896 184.56C207.718 185.111 207.629 185.747 207.629 186.467H207.643C207.88 186.075 208.221 185.768 208.668 185.544C209.119 185.317 209.616 185.203 210.158 185.203C210.783 185.203 211.341 185.351 211.833 185.647C212.325 185.939 212.713 186.34 212.995 186.85C213.282 187.361 213.426 187.939 213.426 188.586C213.426 189.265 213.275 189.865 212.975 190.384C212.674 190.899 212.257 191.303 211.724 191.594C211.195 191.886 210.587 192.032 209.898 192.032ZM209.892 190.753C210.279 190.753 210.628 190.658 210.938 190.466C211.252 190.27 211.5 190.011 211.683 189.687C211.869 189.359 211.963 188.992 211.963 188.586C211.963 188.185 211.874 187.825 211.696 187.506C211.519 187.183 211.275 186.928 210.965 186.741C210.66 186.549 210.313 186.454 209.926 186.454C209.538 186.454 209.185 186.549 208.866 186.741C208.552 186.932 208.301 187.19 208.114 187.513C207.927 187.837 207.834 188.199 207.834 188.6C207.834 188.997 207.925 189.359 208.107 189.687C208.294 190.011 208.543 190.27 208.853 190.466C209.167 190.658 209.513 190.753 209.892 190.753ZM218.368 192.032C217.58 192.032 216.898 191.818 216.324 191.389C215.755 190.961 215.315 190.355 215.005 189.571C214.695 188.782 214.54 187.853 214.54 186.782C214.54 185.706 214.695 184.774 215.005 183.986C215.315 183.197 215.755 182.589 216.324 182.161C216.898 181.732 217.58 181.518 218.368 181.518C219.152 181.518 219.829 181.732 220.398 182.161C220.973 182.589 221.415 183.197 221.725 183.986C222.035 184.774 222.189 185.706 222.189 186.782C222.189 187.853 222.035 188.782 221.725 189.571C221.415 190.355 220.973 190.961 220.398 191.389C219.829 191.818 219.152 192.032 218.368 192.032ZM218.368 190.74C219.106 190.74 219.688 190.389 220.111 189.687C220.54 188.981 220.754 188.012 220.754 186.782C220.754 185.547 220.54 184.576 220.111 183.87C219.688 183.163 219.106 182.81 218.368 182.81C217.625 182.81 217.04 183.163 216.611 183.87C216.188 184.576 215.976 185.547 215.976 186.782C215.976 188.012 216.188 188.981 216.611 189.687C217.04 190.389 217.625 190.74 218.368 190.74ZM231.391 192.032C230.456 192.032 229.632 191.811 228.916 191.369C228.201 190.927 227.642 190.311 227.241 189.523C226.84 188.735 226.64 187.821 226.64 186.782C226.64 185.734 226.84 184.815 227.241 184.027C227.642 183.238 228.198 182.623 228.909 182.181C229.625 181.739 230.452 181.518 231.391 181.518C232.133 181.518 232.806 181.664 233.407 181.956C234.013 182.247 234.515 182.66 234.911 183.193C235.308 183.722 235.565 184.348 235.684 185.073H234.139C233.988 184.38 233.667 183.847 233.175 183.473C232.687 183.095 232.097 182.906 231.404 182.906C230.734 182.906 230.158 183.068 229.675 183.391C229.192 183.715 228.818 184.168 228.554 184.751C228.294 185.335 228.164 186.012 228.164 186.782C228.164 187.552 228.294 188.226 228.554 188.805C228.813 189.384 229.185 189.835 229.668 190.159C230.156 190.482 230.734 190.644 231.404 190.644C232.092 190.644 232.68 190.457 233.168 190.083C233.66 189.71 233.986 189.179 234.146 188.491H235.684C235.565 189.211 235.308 189.837 234.911 190.371C234.515 190.899 234.013 191.309 233.407 191.601C232.806 191.888 232.133 192.032 231.391 192.032ZM240.134 192.032C239.446 192.032 238.842 191.872 238.322 191.553C237.803 191.234 237.397 190.792 237.105 190.227C236.818 189.662 236.675 189.01 236.675 188.272C236.675 187.525 236.818 186.868 237.105 186.303C237.397 185.734 237.803 185.289 238.322 184.97C238.842 184.647 239.446 184.485 240.134 184.485C240.822 184.485 241.424 184.647 241.938 184.97C242.458 185.289 242.861 185.734 243.148 186.303C243.44 186.868 243.586 187.525 243.586 188.272C243.586 189.01 243.44 189.662 243.148 190.227C242.861 190.792 242.458 191.234 241.938 191.553C241.424 191.872 240.822 192.032 240.134 192.032ZM240.134 190.788C240.754 190.788 241.241 190.56 241.597 190.104C241.952 189.648 242.13 189.038 242.13 188.272C242.13 187.497 241.95 186.88 241.59 186.419C241.234 185.959 240.749 185.729 240.134 185.729C239.519 185.729 239.031 185.959 238.671 186.419C238.315 186.875 238.138 187.493 238.138 188.272C238.138 189.042 238.315 189.655 238.671 190.111C239.026 190.562 239.514 190.788 240.134 190.788ZM246.307 181.682V191.868H244.864V181.682H246.307ZM251.044 192.032C250.356 192.032 249.752 191.872 249.232 191.553C248.713 191.234 248.307 190.792 248.016 190.227C247.729 189.662 247.585 189.01 247.585 188.272C247.585 187.525 247.729 186.868 248.016 186.303C248.307 185.734 248.713 185.289 249.232 184.97C249.752 184.647 250.356 184.485 251.044 184.485C251.732 184.485 252.334 184.647 252.849 184.97C253.368 185.289 253.771 185.734 254.059 186.303C254.35 186.868 254.496 187.525 254.496 188.272C254.496 189.01 254.35 189.662 254.059 190.227C253.771 190.792 253.368 191.234 252.849 191.553C252.334 191.872 251.732 192.032 251.044 192.032ZM251.044 190.788C251.664 190.788 252.151 190.56 252.507 190.104C252.862 189.648 253.04 189.038 253.04 188.272C253.04 187.497 252.86 186.88 252.5 186.419C252.145 185.959 251.659 185.729 251.044 185.729C250.429 185.729 249.941 185.959 249.581 186.419C249.226 186.875 249.048 187.493 249.048 188.272C249.048 189.042 249.226 189.655 249.581 190.111C249.937 190.562 250.424 190.788 251.044 190.788ZM255.774 191.868V184.649H257.176V185.859C257.399 185.412 257.702 185.075 258.085 184.847C258.468 184.619 258.882 184.505 259.329 184.505C259.821 184.505 260.252 184.631 260.621 184.881C260.995 185.132 261.257 185.451 261.407 185.838C261.603 185.446 261.899 185.127 262.296 184.881C262.697 184.631 263.164 184.505 263.697 184.505C264.144 184.505 264.549 184.603 264.914 184.799C265.279 184.995 265.568 185.287 265.782 185.674C265.996 186.057 266.104 186.538 266.104 187.117V191.868H264.654V187.24C264.654 186.725 264.511 186.351 264.224 186.119C263.937 185.886 263.597 185.77 263.205 185.77C262.722 185.77 262.341 185.92 262.063 186.221C261.785 186.517 261.646 186.896 261.646 187.356V191.868H260.225V187.144C260.225 186.729 260.09 186.397 259.821 186.146C259.557 185.895 259.22 185.77 258.81 185.77C258.39 185.77 258.019 185.918 257.695 186.214C257.376 186.511 257.217 186.944 257.217 187.513V191.868H255.774ZM271.401 192.011C270.932 192.011 270.501 191.909 270.109 191.704C269.722 191.499 269.408 191.186 269.166 190.767H269.152V191.868H267.737V181.682H269.18V185.695H269.193C269.426 185.294 269.736 184.995 270.123 184.799C270.51 184.603 270.939 184.505 271.408 184.505C272.028 184.505 272.573 184.665 273.042 184.984C273.511 185.298 273.876 185.738 274.136 186.303C274.4 186.864 274.532 187.515 274.532 188.258C274.532 189.001 274.402 189.655 274.143 190.22C273.883 190.781 273.518 191.221 273.049 191.54C272.579 191.854 272.03 192.011 271.401 192.011ZM271.107 190.767C271.691 190.767 272.162 190.553 272.522 190.125C272.887 189.696 273.069 189.074 273.069 188.258C273.069 187.443 272.887 186.82 272.522 186.392C272.162 185.959 271.691 185.743 271.107 185.743C270.492 185.743 270 185.973 269.631 186.433C269.266 186.889 269.084 187.497 269.084 188.258C269.084 189.015 269.266 189.623 269.631 190.083C270 190.539 270.492 190.767 271.107 190.767ZM275.804 191.868V184.649H277.246V191.868H275.804ZM276.521 183.405C276.266 183.405 276.05 183.32 275.872 183.152C275.699 182.979 275.612 182.769 275.612 182.523C275.612 182.272 275.699 182.063 275.872 181.894C276.05 181.721 276.266 181.634 276.521 181.634C276.777 181.634 276.993 181.721 277.171 181.894C277.349 182.063 277.438 182.272 277.438 182.523C277.438 182.769 277.349 182.979 277.171 183.152C276.993 183.32 276.777 183.405 276.521 183.405ZM281.081 191.984C280.361 191.984 279.764 191.802 279.29 191.437C278.816 191.068 278.579 190.523 278.579 189.803C278.579 189.256 278.714 188.837 278.982 188.545C279.256 188.249 279.609 188.037 280.042 187.91C280.479 187.782 280.942 187.689 281.43 187.629C281.881 187.575 282.239 187.529 282.503 187.493C282.767 187.456 282.954 187.402 283.063 187.329C283.177 187.256 283.234 187.13 283.234 186.953V186.891C283.234 186.54 283.107 186.253 282.852 186.03C282.596 185.802 282.239 185.688 281.778 185.688C281.318 185.688 280.942 185.8 280.65 186.023C280.359 186.242 280.199 186.517 280.172 186.85H278.757C278.789 186.162 279.078 185.599 279.625 185.162C280.172 184.724 280.896 184.505 281.799 184.505C282.688 184.505 283.387 184.724 283.897 185.162C284.408 185.599 284.663 186.185 284.663 186.918V191.868H283.241V190.842H283.214C283.063 191.134 282.824 191.398 282.496 191.635C282.173 191.868 281.701 191.984 281.081 191.984ZM281.375 190.822C282.013 190.822 282.482 190.658 282.783 190.33C283.089 189.997 283.241 189.61 283.241 189.167V188.32C283.146 188.397 282.929 188.468 282.592 188.532C282.255 188.591 281.895 188.648 281.512 188.703C281.115 188.762 280.767 188.874 280.466 189.038C280.165 189.202 280.015 189.466 280.015 189.831C280.015 190.14 280.135 190.384 280.377 190.562C280.623 190.735 280.956 190.822 281.375 190.822Z" fill="#333333"/>
<g clip-path="url(#clip4_2200_3177)">
<path d="M152.988 208.369H161.738" stroke="#666666" stroke-width="1.59079" stroke-linecap="round" stroke-linejoin="round"/>
<path d="M157.363 203.994V212.743" stroke="#666666" stroke-width="1.59079" stroke-linecap="round" stroke-linejoin="round"/>
</g>
<path d="M174.215 213.008C173.441 213.008 172.752 212.819 172.146 212.44C171.541 212.061 171.064 211.534 170.717 210.858C170.373 210.182 170.201 209.399 170.201 208.508C170.201 207.614 170.373 206.829 170.717 206.153C171.064 205.473 171.541 204.944 172.146 204.565C172.752 204.186 173.441 203.997 174.215 203.997C174.992 203.997 175.684 204.186 176.289 204.565C176.895 204.944 177.369 205.473 177.713 206.153C178.061 206.829 178.234 207.614 178.234 208.508C178.234 209.399 178.061 210.182 177.713 210.858C177.369 211.534 176.895 212.061 176.289 212.44C175.684 212.819 174.992 213.008 174.215 213.008ZM174.215 211.819C174.719 211.819 175.176 211.692 175.586 211.438C175.996 211.18 176.322 210.805 176.564 210.313C176.807 209.817 176.928 209.215 176.928 208.508C176.928 207.797 176.807 207.194 176.564 206.698C176.322 206.202 175.996 205.827 175.586 205.573C175.176 205.315 174.719 205.186 174.215 205.186C173.715 205.186 173.26 205.315 172.85 205.573C172.439 205.827 172.113 206.202 171.871 206.698C171.629 207.194 171.508 207.797 171.508 208.508C171.508 209.215 171.629 209.817 171.871 210.313C172.113 210.805 172.439 211.18 172.85 211.438C173.26 211.692 173.715 211.819 174.215 211.819ZM181.299 212.967C180.682 212.967 180.17 212.811 179.764 212.499C179.357 212.182 179.154 211.715 179.154 211.098C179.154 210.629 179.27 210.27 179.5 210.02C179.734 209.766 180.037 209.584 180.408 209.475C180.783 209.366 181.18 209.286 181.598 209.235C181.984 209.188 182.291 209.149 182.518 209.118C182.744 209.086 182.904 209.04 182.998 208.977C183.096 208.915 183.145 208.807 183.145 208.655V208.602C183.145 208.301 183.035 208.055 182.816 207.864C182.598 207.668 182.291 207.571 181.896 207.571C181.502 207.571 181.18 207.667 180.93 207.858C180.68 208.045 180.543 208.282 180.52 208.567H179.307C179.334 207.977 179.582 207.495 180.051 207.12C180.52 206.745 181.141 206.557 181.914 206.557C182.676 206.557 183.275 206.745 183.713 207.12C184.15 207.495 184.369 207.997 184.369 208.625V212.868H183.15V211.989H183.127C182.998 212.239 182.793 212.465 182.512 212.668C182.234 212.868 181.83 212.967 181.299 212.967ZM181.551 211.971C182.098 211.971 182.5 211.831 182.758 211.549C183.02 211.264 183.15 210.932 183.15 210.553V209.827C183.068 209.893 182.883 209.954 182.594 210.008C182.305 210.059 181.996 210.108 181.668 210.155C181.328 210.206 181.029 210.301 180.771 210.442C180.514 210.583 180.385 210.809 180.385 211.122C180.385 211.387 180.488 211.596 180.695 211.749C180.906 211.897 181.191 211.971 181.551 211.971ZM188.746 206.68V207.7H187.492V211.233C187.492 211.463 187.539 211.624 187.633 211.713C187.727 211.803 187.896 211.848 188.143 211.848H188.746V212.868H187.967C186.822 212.868 186.25 212.375 186.25 211.391V207.7H185.16V206.68H186.25V204.993H187.492V206.68H188.746ZM192.684 212.868V204.137H194.518L196.475 209.252C196.553 209.475 196.654 209.768 196.779 210.131C196.904 210.491 197.018 210.823 197.119 211.127C197.217 210.823 197.328 210.491 197.453 210.131C197.578 209.768 197.68 209.475 197.758 209.252L199.686 204.137H201.525V212.868H200.248V208.11C200.248 207.797 200.252 207.434 200.26 207.02C200.268 206.602 200.277 206.186 200.289 205.772C200.129 206.245 199.977 206.69 199.832 207.108C199.691 207.526 199.574 207.86 199.48 208.11L197.641 212.868H196.574L194.717 208.11C194.627 207.872 194.512 207.557 194.371 207.167C194.234 206.772 194.086 206.348 193.926 205.895C193.938 206.293 193.947 206.688 193.955 207.079C193.963 207.469 193.967 207.813 193.967 208.11V212.868H192.684ZM203.025 212.868V206.68H204.262V212.868H203.025ZM203.641 205.614C203.422 205.614 203.236 205.542 203.084 205.397C202.936 205.249 202.861 205.069 202.861 204.858C202.861 204.643 202.936 204.463 203.084 204.319C203.236 204.17 203.422 204.096 203.641 204.096C203.859 204.096 204.045 204.17 204.197 204.319C204.35 204.463 204.426 204.643 204.426 204.858C204.426 205.069 204.35 205.249 204.197 205.397C204.045 205.542 203.859 205.614 203.641 205.614ZM206.898 204.137V212.868H205.662V204.137H206.898ZM208.299 212.868V204.137H209.535V209.323H209.553L212.189 206.68H213.725L211.105 209.34L213.9 212.868H212.383L210.162 210.084L209.535 210.694V212.868H208.299ZM219.936 212.991C219.369 212.991 218.875 212.887 218.453 212.68C218.031 212.469 217.701 212.18 217.463 211.813C217.229 211.446 217.111 211.024 217.111 210.547C217.111 210.254 217.164 209.987 217.27 209.745C217.375 209.502 217.551 209.258 217.797 209.012C218.047 208.762 218.385 208.481 218.811 208.168C218.451 207.715 218.195 207.338 218.043 207.038C217.895 206.737 217.82 206.422 217.82 206.094C217.82 205.489 218.023 204.997 218.43 204.618C218.836 204.239 219.369 204.049 220.029 204.049C220.459 204.049 220.836 204.131 221.16 204.295C221.484 204.456 221.736 204.678 221.916 204.963C222.1 205.249 222.191 205.575 222.191 205.942C222.191 206.676 221.805 207.329 221.031 207.899L220.428 208.35L222.168 210.436C222.289 210.209 222.383 209.967 222.449 209.709C222.52 209.452 222.555 209.188 222.555 208.918H223.686C223.686 209.391 223.625 209.836 223.504 210.254C223.383 210.672 223.199 211.045 222.953 211.374L224.201 212.868H222.777L222.191 212.176C221.914 212.43 221.574 212.629 221.172 212.774C220.773 212.918 220.361 212.991 219.936 212.991ZM221.471 211.327L219.514 209.018L219.273 209.2C218.961 209.43 218.73 209.649 218.582 209.856C218.438 210.063 218.365 210.288 218.365 210.53C218.365 210.784 218.438 211.018 218.582 211.233C218.727 211.444 218.92 211.614 219.162 211.743C219.404 211.872 219.676 211.936 219.977 211.936C220.246 211.936 220.508 211.883 220.762 211.778C221.02 211.668 221.256 211.518 221.471 211.327ZM219.73 207.512L220.369 207.055C220.596 206.891 220.762 206.719 220.867 206.54C220.977 206.356 221.031 206.176 221.031 206C221.031 205.75 220.938 205.538 220.75 205.362C220.562 205.182 220.322 205.092 220.029 205.092C219.74 205.092 219.496 205.186 219.297 205.374C219.098 205.561 218.998 205.809 218.998 206.118C218.998 206.317 219.053 206.516 219.162 206.715C219.275 206.915 219.465 207.18 219.73 207.512ZM227.828 212.868V204.137H233.699V205.28H229.129V207.852H233.359V208.983H229.129V211.725H233.699V212.868H227.828ZM234.238 212.868L236.518 209.715L234.379 206.68H235.791L236.529 207.782C236.646 207.965 236.762 208.145 236.875 208.321C236.992 208.497 237.105 208.674 237.215 208.854C237.332 208.674 237.447 208.497 237.561 208.321C237.674 208.145 237.793 207.965 237.918 207.782L238.668 206.68H240.057L237.912 209.698L240.162 212.868H238.75L237.889 211.614C237.771 211.434 237.656 211.258 237.543 211.086C237.43 210.915 237.318 210.743 237.209 210.571C237.096 210.743 236.98 210.915 236.863 211.086C236.75 211.258 236.635 211.434 236.518 211.614L235.639 212.868H234.238ZM244.164 206.68V207.7H242.91V211.233C242.91 211.463 242.957 211.624 243.051 211.713C243.145 211.803 243.314 211.848 243.561 211.848H244.164V212.868H243.385C242.24 212.868 241.668 212.375 241.668 211.391V207.7H240.578V206.68H241.668V204.993H242.91V206.68H244.164ZM245.143 212.868V206.68H246.326V207.682H246.35C246.463 207.342 246.641 207.079 246.883 206.891C247.129 206.7 247.449 206.604 247.844 206.604C247.938 206.604 248.023 206.608 248.102 206.616C248.18 206.624 248.244 206.629 248.295 206.633V207.788C248.248 207.776 248.164 207.764 248.043 207.752C247.922 207.737 247.789 207.729 247.645 207.729C247.297 207.729 246.998 207.85 246.748 208.092C246.502 208.334 246.379 208.708 246.379 209.211V212.868H245.143ZM250.955 212.967C250.338 212.967 249.826 212.811 249.42 212.499C249.014 212.182 248.811 211.715 248.811 211.098C248.811 210.629 248.926 210.27 249.156 210.02C249.391 209.766 249.693 209.584 250.064 209.475C250.439 209.366 250.836 209.286 251.254 209.235C251.641 209.188 251.947 209.149 252.174 209.118C252.4 209.086 252.561 209.04 252.654 208.977C252.752 208.915 252.801 208.807 252.801 208.655V208.602C252.801 208.301 252.691 208.055 252.473 207.864C252.254 207.668 251.947 207.571 251.553 207.571C251.158 207.571 250.836 207.667 250.586 207.858C250.336 208.045 250.199 208.282 250.176 208.567H248.963C248.99 207.977 249.238 207.495 249.707 207.12C250.176 206.745 250.797 206.557 251.57 206.557C252.332 206.557 252.932 206.745 253.369 207.12C253.807 207.495 254.025 207.997 254.025 208.625V212.868H252.807V211.989H252.783C252.654 212.239 252.449 212.465 252.168 212.668C251.891 212.868 251.486 212.967 250.955 212.967ZM251.207 211.971C251.754 211.971 252.156 211.831 252.414 211.549C252.676 211.264 252.807 210.932 252.807 210.553V209.827C252.725 209.893 252.539 209.954 252.25 210.008C251.961 210.059 251.652 210.108 251.324 210.155C250.984 210.206 250.686 210.301 250.428 210.442C250.17 210.583 250.041 210.809 250.041 211.122C250.041 211.387 250.145 211.596 250.352 211.749C250.562 211.897 250.848 211.971 251.207 211.971ZM260.57 213.014C260.098 213.014 259.672 212.938 259.293 212.786C258.914 212.633 258.607 212.407 258.373 212.106C258.143 211.805 258.014 211.432 257.986 210.987H259.205C259.275 211.682 259.723 212.03 260.547 212.03C260.938 212.03 261.246 211.95 261.473 211.79C261.703 211.629 261.818 211.426 261.818 211.18C261.818 210.969 261.736 210.801 261.572 210.676C261.408 210.547 261.193 210.454 260.928 210.395L259.902 210.167C258.719 209.909 258.127 209.319 258.127 208.397C258.127 207.85 258.344 207.405 258.777 207.061C259.215 206.717 259.787 206.545 260.494 206.545C261.193 206.545 261.768 206.727 262.217 207.09C262.67 207.45 262.904 207.942 262.92 208.567H261.736C261.732 208.266 261.619 208.018 261.396 207.823C261.174 207.624 260.879 207.524 260.512 207.524C260.16 207.524 259.881 207.606 259.674 207.77C259.467 207.934 259.363 208.135 259.363 208.374C259.363 208.584 259.441 208.754 259.598 208.883C259.758 209.012 259.977 209.108 260.254 209.17L261.309 209.405C261.91 209.538 262.354 209.743 262.639 210.02C262.924 210.297 263.066 210.661 263.066 211.11C263.066 211.504 262.957 211.844 262.738 212.129C262.523 212.411 262.229 212.629 261.854 212.786C261.479 212.938 261.051 213.014 260.57 213.014ZM265.398 209.305V212.868H264.162V204.137H265.398V207.571C265.824 206.895 266.439 206.557 267.244 206.557C267.67 206.557 268.051 206.651 268.387 206.838C268.727 207.022 268.994 207.295 269.189 207.659C269.385 208.022 269.482 208.473 269.482 209.012V212.868H268.246V209.165C268.246 208.668 268.127 208.295 267.889 208.045C267.65 207.792 267.318 207.665 266.893 207.665C266.471 207.665 266.115 207.795 265.826 208.057C265.541 208.315 265.398 208.731 265.398 209.305ZM273.537 213.008C272.947 213.008 272.43 212.872 271.984 212.598C271.539 212.325 271.191 211.946 270.941 211.461C270.695 210.977 270.572 210.418 270.572 209.786C270.572 209.145 270.695 208.583 270.941 208.098C271.191 207.61 271.539 207.229 271.984 206.956C272.43 206.678 272.947 206.54 273.537 206.54C274.127 206.54 274.643 206.678 275.084 206.956C275.529 207.229 275.875 207.61 276.121 208.098C276.371 208.583 276.496 209.145 276.496 209.786C276.496 210.418 276.371 210.977 276.121 211.461C275.875 211.946 275.529 212.325 275.084 212.598C274.643 212.872 274.127 213.008 273.537 213.008ZM273.537 211.942C274.068 211.942 274.486 211.747 274.791 211.356C275.096 210.965 275.248 210.442 275.248 209.786C275.248 209.122 275.094 208.592 274.785 208.198C274.48 207.803 274.064 207.606 273.537 207.606C273.01 207.606 272.592 207.803 272.283 208.198C271.979 208.588 271.826 209.118 271.826 209.786C271.826 210.446 271.979 210.971 272.283 211.362C272.588 211.749 273.006 211.942 273.537 211.942ZM280.574 206.68V207.7H279.32V211.233C279.32 211.463 279.367 211.624 279.461 211.713C279.555 211.803 279.725 211.848 279.971 211.848H280.574V212.868H279.795C278.65 212.868 278.078 212.375 278.078 211.391V207.7H276.988V206.68H278.078V204.993H279.32V206.68H280.574Z" fill="#666666"/>
<path d="M103 239.868H462" stroke="#E5E5E5"/>
<rect x="103" y="251.868" width="359" height="39" rx="8" fill="#333333"/>
<path d="M233.396 275.868V267.137H235.23L237.188 272.252C237.266 272.475 237.367 272.768 237.492 273.131C237.617 273.491 237.73 273.823 237.832 274.127C237.93 273.823 238.041 273.491 238.166 273.131C238.291 272.768 238.393 272.475 238.471 272.252L240.398 267.137H242.238V275.868H240.961V271.11C240.961 270.797 240.965 270.434 240.973 270.02C240.98 269.602 240.99 269.186 241.002 268.772C240.842 269.245 240.689 269.69 240.545 270.108C240.404 270.526 240.287 270.86 240.193 271.11L238.354 275.868H237.287L235.43 271.11C235.34 270.872 235.225 270.557 235.084 270.167C234.947 269.772 234.799 269.348 234.639 268.895C234.65 269.293 234.66 269.688 234.668 270.079C234.676 270.469 234.68 270.813 234.68 271.11V275.868H233.396ZM245.625 275.967C245.008 275.967 244.496 275.811 244.09 275.499C243.684 275.182 243.48 274.715 243.48 274.098C243.48 273.629 243.596 273.27 243.826 273.02C244.061 272.766 244.363 272.584 244.734 272.475C245.109 272.366 245.506 272.286 245.924 272.235C246.311 272.188 246.617 272.149 246.844 272.118C247.07 272.086 247.23 272.04 247.324 271.977C247.422 271.915 247.471 271.807 247.471 271.655V271.602C247.471 271.301 247.361 271.055 247.143 270.864C246.924 270.668 246.617 270.571 246.223 270.571C245.828 270.571 245.506 270.667 245.256 270.858C245.006 271.045 244.869 271.282 244.846 271.567H243.633C243.66 270.977 243.908 270.495 244.377 270.12C244.846 269.745 245.467 269.557 246.24 269.557C247.002 269.557 247.602 269.745 248.039 270.12C248.477 270.495 248.695 270.997 248.695 271.625V275.868H247.477V274.989H247.453C247.324 275.239 247.119 275.465 246.838 275.668C246.561 275.868 246.156 275.967 245.625 275.967ZM245.877 274.971C246.424 274.971 246.826 274.831 247.084 274.549C247.346 274.264 247.477 273.932 247.477 273.553V272.827C247.395 272.893 247.209 272.954 246.92 273.008C246.631 273.059 246.322 273.108 245.994 273.155C245.654 273.206 245.355 273.301 245.098 273.442C244.84 273.583 244.711 273.809 244.711 274.122C244.711 274.387 244.814 274.596 245.021 274.749C245.232 274.897 245.518 274.971 245.877 274.971ZM250.09 275.868V269.68H251.273V270.682H251.297C251.41 270.342 251.588 270.079 251.83 269.891C252.076 269.7 252.396 269.604 252.791 269.604C252.885 269.604 252.971 269.608 253.049 269.616C253.127 269.624 253.191 269.629 253.242 269.633V270.788C253.195 270.776 253.111 270.764 252.99 270.752C252.869 270.737 252.736 270.729 252.592 270.729C252.244 270.729 251.945 270.85 251.695 271.092C251.449 271.334 251.326 271.708 251.326 272.211V275.868H250.09ZM254.086 275.868V267.137H255.322V272.323H255.34L257.977 269.68H259.512L256.893 272.34L259.688 275.868H258.17L255.949 273.084L255.322 273.694V275.868H254.086ZM265.09 275.967C264.473 275.967 263.961 275.811 263.555 275.499C263.148 275.182 262.945 274.715 262.945 274.098C262.945 273.629 263.061 273.27 263.291 273.02C263.525 272.766 263.828 272.584 264.199 272.475C264.574 272.366 264.971 272.286 265.389 272.235C265.775 272.188 266.082 272.149 266.309 272.118C266.535 272.086 266.695 272.04 266.789 271.977C266.887 271.915 266.936 271.807 266.936 271.655V271.602C266.936 271.301 266.826 271.055 266.607 270.864C266.389 270.668 266.082 270.571 265.688 270.571C265.293 270.571 264.971 270.667 264.721 270.858C264.471 271.045 264.334 271.282 264.311 271.567H263.098C263.125 270.977 263.373 270.495 263.842 270.12C264.311 269.745 264.932 269.557 265.705 269.557C266.467 269.557 267.066 269.745 267.504 270.12C267.941 270.495 268.16 270.997 268.16 271.625V275.868H266.941V274.989H266.918C266.789 275.239 266.584 275.465 266.303 275.668C266.025 275.868 265.621 275.967 265.09 275.967ZM265.342 274.971C265.889 274.971 266.291 274.831 266.549 274.549C266.811 274.264 266.941 273.932 266.941 273.553V272.827C266.859 272.893 266.674 272.954 266.385 273.008C266.096 273.059 265.787 273.108 265.459 273.155C265.119 273.206 264.82 273.301 264.562 273.442C264.305 273.583 264.176 273.809 264.176 274.122C264.176 274.387 264.279 274.596 264.486 274.749C264.697 274.897 264.982 274.971 265.342 274.971ZM271.846 276.014C271.373 276.014 270.947 275.938 270.568 275.786C270.189 275.633 269.883 275.407 269.648 275.106C269.418 274.805 269.289 274.432 269.262 273.987H270.48C270.551 274.682 270.998 275.03 271.822 275.03C272.213 275.03 272.521 274.95 272.748 274.79C272.979 274.629 273.094 274.426 273.094 274.18C273.094 273.969 273.012 273.801 272.848 273.676C272.684 273.547 272.469 273.454 272.203 273.395L271.178 273.167C269.994 272.909 269.402 272.319 269.402 271.397C269.402 270.85 269.619 270.405 270.053 270.061C270.49 269.717 271.062 269.545 271.77 269.545C272.469 269.545 273.043 269.727 273.492 270.09C273.945 270.45 274.18 270.942 274.195 271.567H273.012C273.008 271.266 272.895 271.018 272.672 270.823C272.449 270.624 272.154 270.524 271.787 270.524C271.436 270.524 271.156 270.606 270.949 270.77C270.742 270.934 270.639 271.135 270.639 271.374C270.639 271.584 270.717 271.754 270.873 271.883C271.033 272.012 271.252 272.108 271.529 272.17L272.584 272.405C273.186 272.538 273.629 272.743 273.914 273.02C274.199 273.297 274.342 273.661 274.342 274.11C274.342 274.504 274.232 274.844 274.014 275.129C273.799 275.411 273.504 275.629 273.129 275.786C272.754 275.938 272.326 276.014 271.846 276.014ZM278.396 275.868V267.137H281.719C282.652 267.137 283.393 267.381 283.939 267.87C284.486 268.358 284.76 269.02 284.76 269.856C284.76 270.465 284.604 270.985 284.291 271.415C283.979 271.84 283.551 272.151 283.008 272.346L284.895 275.868H283.43L281.689 272.563C281.67 272.563 281.65 272.563 281.631 272.563H279.697V275.868H278.396ZM279.697 271.456H281.666C282.229 271.456 282.67 271.313 282.99 271.028C283.314 270.739 283.477 270.348 283.477 269.856C283.477 269.364 283.314 268.975 282.99 268.69C282.666 268.405 282.223 268.262 281.66 268.262H279.697V271.456ZM288.346 276.008C287.732 276.008 287.205 275.87 286.764 275.592C286.326 275.315 285.988 274.934 285.75 274.45C285.516 273.961 285.398 273.407 285.398 272.786C285.398 272.157 285.521 271.598 285.768 271.11C286.014 270.622 286.354 270.239 286.787 269.961C287.221 269.68 287.719 269.54 288.281 269.54C288.867 269.54 289.375 269.676 289.805 269.95C290.238 270.223 290.574 270.604 290.812 271.092C291.051 271.577 291.17 272.137 291.17 272.774V273.108H286.617C286.641 273.667 286.801 274.118 287.098 274.461C287.398 274.805 287.82 274.977 288.363 274.977C288.77 274.977 289.104 274.885 289.365 274.702C289.627 274.518 289.801 274.28 289.887 273.987H291.076C291.002 274.385 290.836 274.737 290.578 275.042C290.324 275.346 290.004 275.584 289.617 275.756C289.234 275.924 288.811 276.008 288.346 276.008ZM286.629 272.17H289.963C289.912 271.678 289.738 271.29 289.441 271.004C289.145 270.715 288.762 270.571 288.293 270.571C287.824 270.571 287.441 270.715 287.145 271.004C286.852 271.29 286.68 271.678 286.629 272.17ZM294.199 275.967C293.582 275.967 293.07 275.811 292.664 275.499C292.258 275.182 292.055 274.715 292.055 274.098C292.055 273.629 292.17 273.27 292.4 273.02C292.635 272.766 292.938 272.584 293.309 272.475C293.684 272.366 294.08 272.286 294.498 272.235C294.885 272.188 295.191 272.149 295.418 272.118C295.645 272.086 295.805 272.04 295.898 271.977C295.996 271.915 296.045 271.807 296.045 271.655V271.602C296.045 271.301 295.936 271.055 295.717 270.864C295.498 270.668 295.191 270.571 294.797 270.571C294.402 270.571 294.08 270.667 293.83 270.858C293.58 271.045 293.443 271.282 293.42 271.567H292.207C292.234 270.977 292.482 270.495 292.951 270.12C293.42 269.745 294.041 269.557 294.814 269.557C295.576 269.557 296.176 269.745 296.613 270.12C297.051 270.495 297.27 270.997 297.27 271.625V275.868H296.051V274.989H296.027C295.898 275.239 295.693 275.465 295.412 275.668C295.135 275.868 294.73 275.967 294.199 275.967ZM294.451 274.971C294.998 274.971 295.4 274.831 295.658 274.549C295.92 274.264 296.051 273.932 296.051 273.553V272.827C295.969 272.893 295.783 272.954 295.494 273.008C295.205 273.059 294.896 273.108 294.568 273.155C294.229 273.206 293.93 273.301 293.672 273.442C293.414 273.583 293.285 273.809 293.285 274.122C293.285 274.387 293.389 274.596 293.596 274.749C293.807 274.897 294.092 274.971 294.451 274.971ZM301.043 275.991C300.504 275.991 300.033 275.856 299.631 275.586C299.229 275.313 298.916 274.936 298.693 274.456C298.471 273.971 298.359 273.411 298.359 272.774C298.359 272.137 298.471 271.579 298.693 271.098C298.92 270.614 299.234 270.237 299.637 269.967C300.039 269.694 300.506 269.557 301.037 269.557C301.439 269.557 301.807 269.641 302.139 269.809C302.471 269.977 302.736 270.233 302.936 270.577H302.947V267.137H304.184V275.868H302.971V274.924H302.959C302.752 275.284 302.48 275.551 302.145 275.727C301.812 275.903 301.445 275.991 301.043 275.991ZM301.295 274.924C301.822 274.924 302.242 274.729 302.555 274.338C302.871 273.944 303.029 273.422 303.029 272.774C303.029 272.122 302.871 271.6 302.555 271.209C302.242 270.815 301.822 270.618 301.295 270.618C300.795 270.618 300.389 270.803 300.076 271.174C299.768 271.542 299.613 272.075 299.613 272.774C299.613 273.473 299.768 274.006 300.076 274.374C300.389 274.741 300.795 274.924 301.295 274.924ZM305.73 278.317V277.274H306.398C306.594 277.274 306.752 277.217 306.873 277.104C306.998 276.995 307.107 276.813 307.201 276.559L307.482 275.827L305.092 269.68H306.416L307.652 273.073C307.734 273.303 307.814 273.536 307.893 273.77C307.971 274 308.047 274.231 308.121 274.461C308.195 274.231 308.271 274 308.35 273.77C308.432 273.536 308.514 273.303 308.596 273.073L309.814 269.68H311.121L308.309 276.952C307.961 277.862 307.363 278.317 306.516 278.317H305.73Z" fill="white"/>
<g clip-path="url(#clip5_2200_3177)">
<path d="M321.6 271.368H330.4" stroke="white" stroke-width="1.5" stroke-linecap="round" stroke-linejoin="round"/>
<path d="M326.799 267.768L330.399 271.368L326.799 274.968" stroke="white" stroke-width="1.5" stroke-linecap="round" stroke-linejoin="round"/>
</g>
</g>
<rect x="91" y="57.8989" width="383" height="244.968" rx="12" stroke="#E5E5E5"/>
</g>
<defs>
<filter id="filter0_d_2200_3177" x="70.5" y="37.3989" width="424" height="285.969" filterUnits="userSpaceOnUse" color-interpolation-filters="sRGB">
<feFlood flood-opacity="0" result="BackgroundImageFix"/>
<feColorMatrix in="SourceAlpha" type="matrix" values="0 0 0 0 0 0 0 0 0 0 0 0 0 0 0 0 0 0 127 0" result="hardAlpha"/>
<feOffset/>
<feGaussianBlur stdDeviation="10"/>
<feComposite in2="hardAlpha" operator="out"/>
<feColorMatrix type="matrix" values="0 0 0 0 0 0 0 0 0 0 0 0 0 0 0 0 0 0 0.04 0"/>
<feBlend mode="normal" in2="BackgroundImageFix" result="effect1_dropShadow_2200_3177"/>
<feBlend mode="normal" in="SourceGraphic" in2="effect1_dropShadow_2200_3177" result="shape"/>
</filter>
<filter id="filter1_i_2200_3177" x="107" y="110.899" width="40.9688" height="40.9688" filterUnits="userSpaceOnUse" color-interpolation-filters="sRGB">
<feFlood flood-opacity="0" result="BackgroundImageFix"/>
<feBlend mode="normal" in="SourceGraphic" in2="BackgroundImageFix" result="shape"/>
<feColorMatrix in="SourceAlpha" type="matrix" values="0 0 0 0 0 0 0 0 0 0 0 0 0 0 0 0 0 0 127 0" result="hardAlpha"/>
<feOffset dy="-2.12105"/>
<feComposite in2="hardAlpha" operator="arithmetic" k2="-1" k3="1"/>
<feColorMatrix type="matrix" values="0 0 0 0 0.914756 0 0 0 0 0.190557 0 0 0 0 0.0660133 0 0 0 0.1 0"/>
<feBlend mode="normal" in2="shape" result="effect1_innerShadow_2200_3177"/>
</filter>
<clipPath id="clip0_2200_3177">
<rect x="91" y="57.8989" width="383" height="244.968" rx="12" fill="white"/>
</clipPath>
<clipPath id="clip1_2200_3177">
<rect width="24" height="24" fill="white" transform="translate(115.484 119.383)"/>
</clipPath>
<clipPath id="clip2_2200_3177">
<rect width="16" height="16" fill="white" transform="translate(398 123.383)"/>
</clipPath>
<clipPath id="clip3_2200_3177">
<rect width="12" height="12" fill="white" transform="translate(123 181.868)"/>
</clipPath>
<clipPath id="clip4_2200_3177">
<rect width="12.7263" height="12.7263" fill="white" transform="translate(151 202.004)"/>
</clipPath>
<clipPath id="clip5_2200_3177">
<rect width="12.8" height="12.8" fill="white" transform="translate(319.6 264.967)"/>
</clipPath>
</defs>
</svg>
