<svg width="566" height="360" viewBox="0 0 566 360" fill="none" xmlns="http://www.w3.org/2000/svg">
<rect width="566" height="360" rx="16" fill="black" fill-opacity="0.04"/>
<g filter="url(#filter0_d_2200_3134)">
<g clip-path="url(#clip0_2200_3134)">
<rect x="91" y="37.8984" width="383" height="283.905" rx="12" fill="white"/>
<path d="M103.328 55.0459V53.7129H111.333V55.0459H108.1V63.8984H106.575V55.0459H103.328ZM113.917 64.0625C113.229 64.0625 112.625 63.903 112.105 63.584C111.586 63.265 111.18 62.8229 110.889 62.2578C110.602 61.6927 110.458 61.041 110.458 60.3027C110.458 59.5553 110.602 58.8991 110.889 58.334C111.18 57.7643 111.586 57.32 112.105 57.001C112.625 56.6774 113.229 56.5156 113.917 56.5156C114.605 56.5156 115.207 56.6774 115.722 57.001C116.241 57.32 116.645 57.7643 116.932 58.334C117.223 58.8991 117.369 59.5553 117.369 60.3027C117.369 61.041 117.223 61.6927 116.932 62.2578C116.645 62.8229 116.241 63.265 115.722 63.584C115.207 63.903 114.605 64.0625 113.917 64.0625ZM113.917 62.8184C114.537 62.8184 115.024 62.5905 115.38 62.1348C115.735 61.679 115.913 61.0684 115.913 60.3027C115.913 59.528 115.733 58.9105 115.373 58.4502C115.018 57.9899 114.532 57.7598 113.917 57.7598C113.302 57.7598 112.814 57.9899 112.454 58.4502C112.099 58.9059 111.921 59.5234 111.921 60.3027C111.921 61.0729 112.099 61.6859 112.454 62.1416C112.81 62.5928 113.297 62.8184 113.917 62.8184ZM122.127 56.6797V57.8691H120.664V61.9912C120.664 62.2601 120.719 62.4469 120.828 62.5518C120.938 62.6566 121.136 62.709 121.423 62.709H122.127V63.8984H121.218C119.882 63.8984 119.215 63.3242 119.215 62.1758V57.8691H117.943V56.6797H119.215V54.7109H120.664V56.6797H122.127ZM125.647 64.0146C124.927 64.0146 124.33 63.8324 123.856 63.4678C123.382 63.0986 123.146 62.554 123.146 61.834C123.146 61.2871 123.28 60.8678 123.549 60.5762C123.822 60.2799 124.175 60.068 124.608 59.9404C125.046 59.8128 125.508 59.7194 125.996 59.6602C126.447 59.6055 126.805 59.5599 127.069 59.5234C127.334 59.487 127.521 59.4323 127.63 59.3594C127.744 59.2865 127.801 59.1611 127.801 58.9834V58.9219C127.801 58.571 127.673 58.2839 127.418 58.0605C127.163 57.8327 126.805 57.7188 126.345 57.7188C125.884 57.7188 125.508 57.8304 125.217 58.0537C124.925 58.2725 124.766 58.5482 124.738 58.8809H123.323C123.355 58.1927 123.645 57.6299 124.191 57.1924C124.738 56.7549 125.463 56.5361 126.365 56.5361C127.254 56.5361 127.953 56.7549 128.464 57.1924C128.974 57.6299 129.229 58.2155 129.229 58.9492V63.8984H127.808V62.873H127.78C127.63 63.1647 127.391 63.429 127.062 63.666C126.739 63.8984 126.267 64.0146 125.647 64.0146ZM125.941 62.8525C126.579 62.8525 127.049 62.6885 127.35 62.3604C127.655 62.0277 127.808 61.6403 127.808 61.1982V60.3506C127.712 60.4281 127.495 60.4987 127.158 60.5625C126.821 60.6217 126.461 60.6787 126.078 60.7334C125.682 60.7926 125.333 60.9043 125.032 61.0684C124.731 61.2324 124.581 61.4967 124.581 61.8613C124.581 62.1712 124.702 62.415 124.943 62.5928C125.189 62.766 125.522 62.8525 125.941 62.8525ZM132.299 53.7129V63.8984H130.856V53.7129H132.299ZM140.748 56.6797V57.8691H139.285V61.9912C139.285 62.2601 139.34 62.4469 139.449 62.5518C139.559 62.6566 139.757 62.709 140.044 62.709H140.748V63.8984H139.839C138.504 63.8984 137.836 63.3242 137.836 62.1758V57.8691H136.564V56.6797H137.836V54.7109H139.285V56.6797H140.748ZM144.87 64.0625C144.182 64.0625 143.578 63.903 143.059 63.584C142.539 63.265 142.133 62.8229 141.842 62.2578C141.555 61.6927 141.411 61.041 141.411 60.3027C141.411 59.5553 141.555 58.8991 141.842 58.334C142.133 57.7643 142.539 57.32 143.059 57.001C143.578 56.6774 144.182 56.5156 144.87 56.5156C145.558 56.5156 146.16 56.6774 146.675 57.001C147.194 57.32 147.598 57.7643 147.885 58.334C148.176 58.8991 148.322 59.5553 148.322 60.3027C148.322 61.041 148.176 61.6927 147.885 62.2578C147.598 62.8229 147.194 63.265 146.675 63.584C146.16 63.903 145.558 64.0625 144.87 64.0625ZM144.87 62.8184C145.49 62.8184 145.978 62.5905 146.333 62.1348C146.688 61.679 146.866 61.0684 146.866 60.3027C146.866 59.528 146.686 58.9105 146.326 58.4502C145.971 57.9899 145.485 57.7598 144.87 57.7598C144.255 57.7598 143.767 57.9899 143.407 58.4502C143.052 58.9059 142.874 59.5234 142.874 60.3027C142.874 61.0729 143.052 61.6859 143.407 62.1416C143.763 62.5928 144.25 62.8184 144.87 62.8184ZM153.053 63.8984V53.7129H156.826C157.915 53.7129 158.779 53.9977 159.417 54.5674C160.055 55.137 160.374 55.9095 160.374 56.8848C160.374 57.5365 160.226 58.1016 159.93 58.5801C159.633 59.054 159.216 59.4209 158.679 59.6807C158.141 59.9359 157.507 60.0635 156.778 60.0635H154.57V63.8984H153.053ZM154.57 58.751H156.751C157.407 58.751 157.924 58.5846 158.303 58.252C158.686 57.9147 158.877 57.459 158.877 56.8848C158.877 56.3105 158.686 55.8594 158.303 55.5312C157.924 55.1986 157.407 55.0322 156.751 55.0322H154.57V58.751ZM163.464 64.0146C162.744 64.0146 162.147 63.8324 161.673 63.4678C161.199 63.0986 160.962 62.554 160.962 61.834C160.962 61.2871 161.096 60.8678 161.365 60.5762C161.639 60.2799 161.992 60.068 162.425 59.9404C162.862 59.8128 163.325 59.7194 163.812 59.6602C164.264 59.6055 164.621 59.5599 164.886 59.5234C165.15 59.487 165.337 59.4323 165.446 59.3594C165.56 59.2865 165.617 59.1611 165.617 58.9834V58.9219C165.617 58.571 165.49 58.2839 165.234 58.0605C164.979 57.8327 164.621 57.7188 164.161 57.7188C163.701 57.7188 163.325 57.8304 163.033 58.0537C162.742 58.2725 162.582 58.5482 162.555 58.8809H161.14C161.172 58.1927 161.461 57.6299 162.008 57.1924C162.555 56.7549 163.279 56.5361 164.182 56.5361C165.07 56.5361 165.77 56.7549 166.28 57.1924C166.791 57.6299 167.046 58.2155 167.046 58.9492V63.8984H165.624V62.873H165.597C165.446 63.1647 165.207 63.429 164.879 63.666C164.555 63.8984 164.084 64.0146 163.464 64.0146ZM163.758 62.8525C164.396 62.8525 164.865 62.6885 165.166 62.3604C165.471 62.0277 165.624 61.6403 165.624 61.1982V60.3506C165.528 60.4281 165.312 60.4987 164.975 60.5625C164.637 60.6217 164.277 60.6787 163.895 60.7334C163.498 60.7926 163.149 60.9043 162.849 61.0684C162.548 61.2324 162.397 61.4967 162.397 61.8613C162.397 62.1712 162.518 62.415 162.76 62.5928C163.006 62.766 163.339 62.8525 163.758 62.8525ZM168.44 66.7559V65.5391H169.22C169.448 65.5391 169.632 65.473 169.773 65.3408C169.919 65.2132 170.047 65.0013 170.156 64.7051L170.484 63.8506L167.695 56.6797H169.24L170.683 60.6377C170.778 60.9066 170.872 61.1777 170.963 61.4512C171.054 61.7201 171.143 61.9889 171.229 62.2578C171.316 61.9889 171.405 61.7201 171.496 61.4512C171.592 61.1777 171.688 60.9066 171.783 60.6377L173.205 56.6797H174.729L171.448 65.1631C171.043 66.2249 170.345 66.7559 169.356 66.7559H168.44Z" fill="black"/>
<path d="M393.279 64.0625C392.527 64.0625 391.876 63.9144 391.324 63.6182C390.777 63.3219 390.354 62.9163 390.053 62.4014C389.752 61.8864 389.602 61.3008 389.602 60.6445H391.099C391.099 61.3236 391.288 61.8522 391.666 62.2305C392.049 62.6087 392.577 62.7979 393.252 62.7979C393.899 62.7979 394.423 62.6338 394.824 62.3057C395.23 61.9775 395.433 61.5378 395.433 60.9863C395.433 60.4805 395.216 60.0749 394.783 59.7695C394.355 59.4596 393.79 59.3047 393.088 59.3047H392.24V58.0674H393.088C393.708 58.0674 394.207 57.9261 394.585 57.6436C394.968 57.361 395.159 56.985 395.159 56.5156C395.159 55.987 394.981 55.57 394.626 55.2646C394.271 54.9593 393.801 54.8066 393.218 54.8066C392.616 54.8066 392.14 54.9753 391.789 55.3125C391.443 55.6497 391.27 56.1146 391.27 56.707H389.813C389.813 56.0918 389.957 55.5472 390.244 55.0732C390.531 54.5947 390.93 54.221 391.44 53.9521C391.951 53.6833 392.546 53.5488 393.225 53.5488C393.872 53.5488 394.451 53.6719 394.961 53.918C395.471 54.1595 395.872 54.4967 396.164 54.9297C396.46 55.3581 396.608 55.848 396.608 56.3994C396.608 56.9372 396.44 57.4043 396.103 57.8008C395.765 58.1927 395.312 58.4661 394.742 58.6211V58.6416C395.412 58.7464 395.943 59.0199 396.335 59.4619C396.727 59.904 396.923 60.4258 396.923 61.0273C396.923 61.6198 396.766 62.1439 396.451 62.5996C396.137 63.0553 395.704 63.4131 395.152 63.6729C394.605 63.9326 393.981 64.0625 393.279 64.0625ZM398.782 64.0146C398.518 64.0146 398.292 63.9235 398.105 63.7412C397.923 63.5544 397.832 63.3265 397.832 63.0576C397.832 62.7933 397.923 62.5677 398.105 62.3809C398.292 62.194 398.518 62.1006 398.782 62.1006C399.051 62.1006 399.277 62.194 399.459 62.3809C399.646 62.5677 399.739 62.7933 399.739 63.0576C399.739 63.3265 399.646 63.5544 399.459 63.7412C399.277 63.9235 399.051 64.0146 398.782 64.0146ZM400.758 61.5264V60.3096L405.502 53.7129H407.361V60.2549H408.845V61.5264H407.361V63.8984H405.919V61.5264H400.758ZM405.919 60.2549V55.3057H405.905L402.364 60.2412V60.2549H405.919ZM413.315 64.042C412.636 64.042 412.03 63.9076 411.497 63.6387C410.968 63.3652 410.545 62.9915 410.226 62.5176C409.911 62.0391 409.74 61.4945 409.713 60.8838H411.196C411.242 61.4307 411.461 61.8818 411.853 62.2373C412.249 62.5882 412.739 62.7637 413.322 62.7637C413.938 62.7637 414.434 62.5563 414.812 62.1416C415.195 61.7269 415.387 61.196 415.387 60.5488C415.387 59.9062 415.202 59.3776 414.833 58.9629C414.464 58.5436 413.983 58.334 413.391 58.334C412.871 58.334 412.424 58.4411 412.051 58.6553C411.677 58.8649 411.417 59.1702 411.271 59.5713H409.843L410.178 53.7129H416.269V55.0117H411.538L411.312 58.0127H411.326C411.923 57.3792 412.687 57.0625 413.616 57.0625C414.236 57.0625 414.787 57.2129 415.271 57.5137C415.758 57.8099 416.141 58.2201 416.419 58.7441C416.701 59.2637 416.843 59.8561 416.843 60.5215C416.843 61.2096 416.695 61.818 416.398 62.3467C416.107 62.8753 415.697 63.29 415.168 63.5908C414.639 63.8916 414.022 64.042 413.315 64.042ZM421.778 64.0625C420.99 64.0625 420.309 63.8483 419.734 63.4199C419.165 62.9915 418.725 62.3854 418.415 61.6016C418.105 60.8132 417.95 59.8835 417.95 58.8125C417.95 57.737 418.105 56.805 418.415 56.0166C418.725 55.2282 419.165 54.6198 419.734 54.1914C420.309 53.763 420.99 53.5488 421.778 53.5488C422.562 53.5488 423.239 53.763 423.809 54.1914C424.383 54.6198 424.825 55.2282 425.135 56.0166C425.445 56.805 425.6 57.737 425.6 58.8125C425.6 59.8835 425.445 60.8132 425.135 61.6016C424.825 62.3854 424.383 62.9915 423.809 63.4199C423.239 63.8483 422.562 64.0625 421.778 64.0625ZM421.778 62.7705C422.517 62.7705 423.098 62.4196 423.521 61.7178C423.95 61.0114 424.164 60.043 424.164 58.8125C424.164 57.5775 423.95 56.6068 423.521 55.9004C423.098 55.194 422.517 54.8408 421.778 54.8408C421.035 54.8408 420.45 55.194 420.021 55.9004C419.598 56.6068 419.386 57.5775 419.386 58.8125C419.386 60.043 419.598 61.0114 420.021 61.7178C420.45 62.4196 421.035 62.7705 421.778 62.7705ZM430.426 63.8984V53.7129H431.943V58.7852C432.221 58.4707 432.499 58.1585 432.777 57.8486C433.055 57.5387 433.336 57.2243 433.618 56.9053L436.517 53.7129H438.438L434.418 58.1221L438.472 63.8984H436.694L433.379 59.1543L431.943 60.7402V63.8984H430.426ZM441.486 63.8984L438.725 53.7129H440.304L441.801 59.6396C441.91 60.0771 442.013 60.5169 442.108 60.959C442.204 61.3965 442.298 61.8363 442.389 62.2783C442.48 61.8363 442.576 61.3965 442.676 60.959C442.776 60.5169 442.883 60.0771 442.997 59.6396L444.542 53.7129H446.203L447.734 59.6396C447.953 60.5055 448.156 61.3737 448.343 62.2441C448.434 61.8112 448.527 61.3783 448.623 60.9453C448.723 60.5078 448.826 60.0726 448.931 59.6396L450.428 53.7129H452.014L449.238 63.8984H447.502L445.827 57.6709C445.745 57.3564 445.665 57.0352 445.588 56.707C445.515 56.3743 445.44 56.0348 445.362 55.6885C445.289 56.0348 445.216 56.3743 445.144 56.707C445.071 57.0352 444.991 57.3564 444.904 57.6709L443.243 63.8984H441.486ZM456.348 63.8984H453.053V53.7129H456.45C457.448 53.7129 458.307 53.918 459.027 54.3281C459.752 54.7383 460.308 55.3239 460.695 56.085C461.083 56.8415 461.276 57.7438 461.276 58.792C461.276 59.8447 461.08 60.7539 460.688 61.5195C460.301 62.2806 459.738 62.8685 459 63.2832C458.266 63.6934 457.382 63.8984 456.348 63.8984ZM454.57 62.5791H456.252C457.441 62.5791 458.321 62.2441 458.891 61.5742C459.465 60.9043 459.752 59.9769 459.752 58.792C459.752 57.6117 459.469 56.6911 458.904 56.0303C458.339 55.3649 457.489 55.0322 456.354 55.0322H454.57V62.5791Z" fill="black"/>
<path d="M103 78.8984H462" stroke="#E5E5E5"/>
<rect x="103.5" y="91.3984" width="358" height="63.9684" rx="11.5" fill="#EF5237" fill-opacity="0.08"/>
<rect x="103.5" y="91.3984" width="358" height="63.9684" rx="11.5" stroke="#EF5237"/>
<g filter="url(#filter1_i_2200_3134)">
<path d="M115 111.383C115 106.697 118.799 102.898 123.484 102.898H147.484C152.17 102.898 155.968 106.697 155.968 111.383V135.383C155.968 140.068 152.17 143.867 147.484 143.867H123.484C118.799 143.867 115 140.068 115 135.383V111.383Z" fill="white"/>
<g clip-path="url(#clip1_2200_3134)">
<path d="M144.484 115.883H126.484C126.087 115.883 125.705 116.041 125.424 116.322C125.142 116.603 124.984 116.985 124.984 117.383V129.383C124.984 129.781 125.142 130.162 125.424 130.443C125.705 130.725 126.087 130.883 126.484 130.883H144.484C144.882 130.883 145.264 130.725 145.545 130.443C145.826 130.162 145.984 129.781 145.984 129.383V117.383C145.984 116.985 145.826 116.603 145.545 116.322C145.264 116.041 144.882 115.883 144.484 115.883ZM136.234 127.883H134.734C134.535 127.883 134.345 127.804 134.204 127.663C134.063 127.522 133.984 127.332 133.984 127.133C133.984 126.934 134.063 126.743 134.204 126.602C134.345 126.462 134.535 126.383 134.734 126.383H136.234C136.433 126.383 136.624 126.462 136.765 126.602C136.905 126.743 136.984 126.934 136.984 127.133C136.984 127.332 136.905 127.522 136.765 127.663C136.624 127.804 136.433 127.883 136.234 127.883ZM142.234 127.883H139.234C139.035 127.883 138.845 127.804 138.704 127.663C138.563 127.522 138.484 127.332 138.484 127.133C138.484 126.934 138.563 126.743 138.704 126.602C138.845 126.462 139.035 126.383 139.234 126.383H142.234C142.433 126.383 142.624 126.462 142.765 126.602C142.905 126.743 142.984 126.934 142.984 127.133C142.984 127.332 142.905 127.522 142.765 127.663C142.624 127.804 142.433 127.883 142.234 127.883ZM126.484 119.633V117.383H144.484V119.633H126.484Z" fill="#EF5237"/>
</g>
</g>
<path d="M168.297 120.03V118.697H176.302V120.03H173.068V128.883H171.544V120.03H168.297ZM178.106 128.999C177.386 128.999 176.789 128.817 176.315 128.452C175.841 128.083 175.604 127.538 175.604 126.818C175.604 126.271 175.739 125.852 176.008 125.561C176.281 125.264 176.634 125.052 177.067 124.925C177.505 124.797 177.967 124.704 178.455 124.645C178.906 124.59 179.264 124.544 179.528 124.508C179.793 124.471 179.979 124.417 180.089 124.344C180.203 124.271 180.26 124.146 180.26 123.968V123.906C180.26 123.555 180.132 123.268 179.877 123.045C179.622 122.817 179.264 122.703 178.804 122.703C178.343 122.703 177.967 122.815 177.676 123.038C177.384 123.257 177.225 123.533 177.197 123.865H175.782C175.814 123.177 176.104 122.614 176.65 122.177C177.197 121.739 177.922 121.521 178.824 121.521C179.713 121.521 180.412 121.739 180.923 122.177C181.433 122.614 181.688 123.2 181.688 123.934V128.883H180.267V127.857H180.239C180.089 128.149 179.85 128.413 179.521 128.65C179.198 128.883 178.726 128.999 178.106 128.999ZM178.4 127.837C179.038 127.837 179.508 127.673 179.809 127.345C180.114 127.012 180.267 126.625 180.267 126.183V125.335C180.171 125.412 179.954 125.483 179.617 125.547C179.28 125.606 178.92 125.663 178.537 125.718C178.141 125.777 177.792 125.889 177.491 126.053C177.19 126.217 177.04 126.481 177.04 126.846C177.04 127.156 177.161 127.399 177.402 127.577C177.648 127.75 177.981 127.837 178.4 127.837ZM183.315 131.74V121.664H184.73V122.703H184.751C184.979 122.307 185.291 122.01 185.688 121.814C186.084 121.618 186.517 121.521 186.986 121.521C187.606 121.521 188.151 121.68 188.62 121.999C189.09 122.313 189.454 122.753 189.714 123.318C189.978 123.879 190.11 124.531 190.11 125.273C190.11 126.016 189.98 126.67 189.721 127.235C189.461 127.796 189.096 128.236 188.627 128.555C188.158 128.869 187.608 129.026 186.979 129.026C186.51 129.026 186.086 128.924 185.708 128.719C185.33 128.514 185.02 128.206 184.778 127.796H184.758V131.74H183.315ZM186.686 127.782C187.269 127.782 187.741 127.568 188.101 127.14C188.465 126.711 188.647 126.089 188.647 125.273C188.647 124.458 188.465 123.836 188.101 123.407C187.741 122.974 187.269 122.758 186.686 122.758C186.07 122.758 185.578 122.988 185.209 123.448C184.844 123.904 184.662 124.512 184.662 125.273C184.662 126.03 184.844 126.638 185.209 127.099C185.578 127.554 186.07 127.782 186.686 127.782ZM198.197 121.664V122.854H196.734V126.976C196.734 127.244 196.789 127.431 196.898 127.536C197.008 127.641 197.206 127.693 197.493 127.693H198.197V128.883H197.288C195.953 128.883 195.285 128.309 195.285 127.16V122.854H194.014V121.664H195.285V119.695H196.734V121.664H198.197ZM202.319 129.047C201.631 129.047 201.027 128.887 200.508 128.568C199.988 128.249 199.583 127.807 199.291 127.242C199.004 126.677 198.86 126.025 198.86 125.287C198.86 124.54 199.004 123.883 199.291 123.318C199.583 122.749 199.988 122.304 200.508 121.985C201.027 121.662 201.631 121.5 202.319 121.5C203.007 121.5 203.609 121.662 204.124 121.985C204.644 122.304 205.047 122.749 205.334 123.318C205.626 123.883 205.771 124.54 205.771 125.287C205.771 126.025 205.626 126.677 205.334 127.242C205.047 127.807 204.644 128.249 204.124 128.568C203.609 128.887 203.007 129.047 202.319 129.047ZM202.319 127.803C202.939 127.803 203.427 127.575 203.782 127.119C204.138 126.663 204.315 126.053 204.315 125.287C204.315 124.512 204.135 123.895 203.775 123.435C203.42 122.974 202.935 122.744 202.319 122.744C201.704 122.744 201.216 122.974 200.856 123.435C200.501 123.89 200.323 124.508 200.323 125.287C200.323 126.057 200.501 126.67 200.856 127.126C201.212 127.577 201.7 127.803 202.319 127.803ZM210.502 128.883V118.697H214.275C215.365 118.697 216.228 118.982 216.866 119.552C217.504 120.121 217.823 120.894 217.823 121.869C217.823 122.521 217.675 123.086 217.379 123.564C217.083 124.038 216.666 124.405 216.128 124.665C215.59 124.92 214.957 125.048 214.228 125.048H212.02V128.883H210.502ZM212.02 123.735H214.2C214.856 123.735 215.374 123.569 215.752 123.236C216.135 122.899 216.326 122.443 216.326 121.869C216.326 121.295 216.135 120.844 215.752 120.516C215.374 120.183 214.856 120.017 214.2 120.017H212.02V123.735ZM220.913 128.999C220.193 128.999 219.596 128.817 219.122 128.452C218.648 128.083 218.411 127.538 218.411 126.818C218.411 126.271 218.546 125.852 218.814 125.561C219.088 125.264 219.441 125.052 219.874 124.925C220.312 124.797 220.774 124.704 221.262 124.645C221.713 124.59 222.071 124.544 222.335 124.508C222.599 124.471 222.786 124.417 222.896 124.344C223.009 124.271 223.066 124.146 223.066 123.968V123.906C223.066 123.555 222.939 123.268 222.684 123.045C222.428 122.817 222.071 122.703 221.61 122.703C221.15 122.703 220.774 122.815 220.482 123.038C220.191 123.257 220.031 123.533 220.004 123.865H218.589C218.621 123.177 218.91 122.614 219.457 122.177C220.004 121.739 220.729 121.521 221.631 121.521C222.52 121.521 223.219 121.739 223.729 122.177C224.24 122.614 224.495 123.2 224.495 123.934V128.883H223.073V127.857H223.046C222.896 128.149 222.656 128.413 222.328 128.65C222.005 128.883 221.533 128.999 220.913 128.999ZM221.207 127.837C221.845 127.837 222.314 127.673 222.615 127.345C222.921 127.012 223.073 126.625 223.073 126.183V125.335C222.978 125.412 222.761 125.483 222.424 125.547C222.087 125.606 221.727 125.663 221.344 125.718C220.947 125.777 220.599 125.889 220.298 126.053C219.997 126.217 219.847 126.481 219.847 126.846C219.847 127.156 219.967 127.399 220.209 127.577C220.455 127.75 220.788 127.837 221.207 127.837ZM225.89 131.74V130.523H226.669C226.897 130.523 227.081 130.457 227.223 130.325C227.368 130.198 227.496 129.986 227.605 129.689L227.934 128.835L225.145 121.664H226.689L228.132 125.622C228.228 125.891 228.321 126.162 228.412 126.436C228.503 126.704 228.592 126.973 228.679 127.242C228.765 126.973 228.854 126.704 228.945 126.436C229.041 126.162 229.137 125.891 229.232 125.622L230.654 121.664H232.179L228.897 130.147C228.492 131.209 227.795 131.74 226.806 131.74H225.89ZM240.348 118.219L237.066 130.414H235.761L239.042 118.219H240.348ZM249.057 129.047C248.122 129.047 247.298 128.826 246.582 128.384C245.867 127.942 245.308 127.326 244.907 126.538C244.506 125.75 244.306 124.836 244.306 123.797C244.306 122.749 244.506 121.83 244.907 121.042C245.308 120.254 245.864 119.638 246.575 119.196C247.291 118.754 248.118 118.533 249.057 118.533C249.799 118.533 250.472 118.679 251.073 118.971C251.679 119.262 252.181 119.675 252.577 120.208C252.974 120.737 253.231 121.363 253.35 122.088H251.805C251.654 121.395 251.333 120.862 250.841 120.488C250.353 120.11 249.763 119.921 249.07 119.921C248.4 119.921 247.824 120.083 247.341 120.406C246.858 120.73 246.484 121.183 246.22 121.767C245.96 122.35 245.83 123.027 245.83 123.797C245.83 124.567 245.96 125.242 246.22 125.82C246.479 126.399 246.851 126.85 247.334 127.174C247.822 127.497 248.4 127.659 249.07 127.659C249.758 127.659 250.346 127.472 250.834 127.099C251.326 126.725 251.652 126.194 251.812 125.506H253.35C253.231 126.226 252.974 126.853 252.577 127.386C252.181 127.914 251.679 128.325 251.073 128.616C250.472 128.903 249.799 129.047 249.057 129.047ZM256.897 128.999C256.177 128.999 255.58 128.817 255.106 128.452C254.632 128.083 254.396 127.538 254.396 126.818C254.396 126.271 254.53 125.852 254.799 125.561C255.072 125.264 255.425 125.052 255.858 124.925C256.296 124.797 256.758 124.704 257.246 124.645C257.697 124.59 258.055 124.544 258.319 124.508C258.584 124.471 258.771 124.417 258.88 124.344C258.994 124.271 259.051 124.146 259.051 123.968V123.906C259.051 123.555 258.923 123.268 258.668 123.045C258.413 122.817 258.055 122.703 257.595 122.703C257.134 122.703 256.758 122.815 256.467 123.038C256.175 123.257 256.016 123.533 255.988 123.865H254.573C254.605 123.177 254.895 122.614 255.441 122.177C255.988 121.739 256.713 121.521 257.615 121.521C258.504 121.521 259.203 121.739 259.714 122.177C260.224 122.614 260.479 123.2 260.479 123.934V128.883H259.058V127.857H259.03C258.88 128.149 258.641 128.413 258.312 128.65C257.989 128.883 257.517 128.999 256.897 128.999ZM257.191 127.837C257.829 127.837 258.299 127.673 258.6 127.345C258.905 127.012 259.058 126.625 259.058 126.183V125.335C258.962 125.412 258.745 125.483 258.408 125.547C258.071 125.606 257.711 125.663 257.328 125.718C256.932 125.777 256.583 125.889 256.282 126.053C255.981 126.217 255.831 126.481 255.831 126.846C255.831 127.156 255.952 127.399 256.193 127.577C256.439 127.75 256.772 127.837 257.191 127.837ZM262.106 128.883V121.664H263.487V122.833H263.515C263.647 122.437 263.854 122.129 264.137 121.91C264.424 121.687 264.798 121.575 265.258 121.575C265.367 121.575 265.467 121.58 265.559 121.589C265.65 121.598 265.725 121.605 265.784 121.609V122.956C265.729 122.942 265.632 122.929 265.49 122.915C265.349 122.897 265.194 122.888 265.025 122.888C264.62 122.888 264.271 123.029 263.979 123.312C263.692 123.594 263.549 124.029 263.549 124.617V128.883H262.106ZM269.53 129.026C268.901 129.026 268.352 128.869 267.883 128.555C267.413 128.236 267.049 127.796 266.789 127.235C266.529 126.67 266.399 126.016 266.399 125.273C266.399 124.531 266.529 123.879 266.789 123.318C267.053 122.753 267.42 122.313 267.89 121.999C268.359 121.68 268.904 121.521 269.523 121.521C269.993 121.521 270.421 121.618 270.809 121.814C271.196 122.01 271.506 122.309 271.738 122.71H271.752V118.697H273.194V128.883H271.779V127.782H271.766C271.524 128.201 271.207 128.514 270.815 128.719C270.428 128.924 270 129.026 269.53 129.026ZM269.824 127.782C270.439 127.782 270.929 127.554 271.294 127.099C271.663 126.638 271.848 126.03 271.848 125.273C271.848 124.512 271.663 123.904 271.294 123.448C270.929 122.988 270.439 122.758 269.824 122.758C269.241 122.758 268.767 122.974 268.402 123.407C268.042 123.836 267.862 124.458 267.862 125.273C267.862 126.089 268.042 126.711 268.402 127.14C268.767 127.568 269.241 127.782 269.824 127.782Z" fill="#333333"/>
<rect x="430" y="113.383" width="20" height="20" rx="6" fill="#EF5237"/>
<g clip-path="url(#clip2_2200_3134)">
<path d="M435.875 124.133L438.5 126.758L444.5 120.758" stroke="white" stroke-width="2" stroke-linecap="round" stroke-linejoin="round"/>
</g>
<rect x="103" y="167.867" width="359" height="64.9684" rx="12" fill="black" fill-opacity="0.04"/>
<path d="M115 188.351C115 183.665 118.799 179.867 123.484 179.867H147.484C152.17 179.867 155.968 183.665 155.968 188.351V212.351C155.968 217.037 152.17 220.835 147.484 220.835H123.484C118.799 220.835 115 217.037 115 212.351V188.351Z" fill="white"/>
<g clip-path="url(#clip3_2200_3134)">
<path d="M135.506 191.164C135.714 190.358 136.184 189.644 136.842 189.135C137.5 188.626 138.309 188.35 139.141 188.351H139.235C139.434 188.351 139.625 188.43 139.765 188.571C139.906 188.711 139.985 188.902 139.985 189.101C139.985 189.3 139.906 189.491 139.765 189.631C139.625 189.772 139.434 189.851 139.235 189.851H139.141C138.642 189.851 138.158 190.017 137.763 190.322C137.369 190.628 137.087 191.056 136.962 191.539C136.913 191.731 136.788 191.896 136.617 191.997C136.446 192.099 136.241 192.127 136.048 192.078C135.856 192.028 135.691 191.904 135.589 191.732C135.488 191.561 135.459 191.356 135.509 191.164H135.506ZM144.419 204.25C144.363 204.122 144.272 204.011 144.157 203.931C142.566 202.838 142.235 200.974 142.235 199.601C142.235 197.945 143.498 196.502 144.25 195.788C144.324 195.718 144.383 195.634 144.424 195.54C144.464 195.446 144.485 195.346 144.485 195.244C144.485 195.142 144.464 195.041 144.424 194.947C144.383 194.853 144.324 194.769 144.25 194.699C143.062 193.577 141.093 192.851 139.235 192.851C137.9 192.852 136.595 193.248 135.485 193.988C134.189 193.12 132.632 192.729 131.08 192.885C129.527 193.04 128.078 193.732 126.981 194.84C126.325 195.51 125.81 196.305 125.467 197.178C125.124 198.05 124.96 198.983 124.985 199.92C125.022 201.502 125.373 203.06 126.02 204.505C126.666 205.949 127.593 207.25 128.748 208.332C129.443 208.989 130.365 209.354 131.321 209.351H139.541C140.053 209.352 140.559 209.248 141.029 209.045C141.498 208.843 141.921 208.546 142.271 208.173C142.92 207.475 143.481 206.7 143.942 205.866C144.6 204.664 144.516 204.476 144.419 204.25Z" fill="#666666"/>
</g>
<path d="M168.078 205.851L171.776 195.666H173.608L177.279 205.851H175.632L174.729 203.206H170.621L169.691 205.851H168.078ZM171.079 201.914H174.285L173.67 200.109C173.533 199.69 173.387 199.241 173.232 198.762C173.077 198.284 172.9 197.714 172.699 197.053C172.494 197.714 172.314 198.284 172.159 198.762C172.004 199.241 171.856 199.69 171.715 200.109L171.079 201.914ZM178.216 208.708V198.632H179.631V199.671H179.651C179.879 199.275 180.191 198.979 180.588 198.783C180.984 198.587 181.417 198.489 181.887 198.489C182.507 198.489 183.051 198.648 183.521 198.967C183.99 199.282 184.354 199.722 184.614 200.287C184.879 200.847 185.011 201.499 185.011 202.242C185.011 202.985 184.881 203.639 184.621 204.204C184.361 204.764 183.997 205.204 183.527 205.523C183.058 205.837 182.509 205.995 181.88 205.995C181.41 205.995 180.987 205.892 180.608 205.687C180.23 205.482 179.92 205.174 179.679 204.764H179.658V208.708H178.216ZM181.586 204.75C182.169 204.75 182.641 204.536 183.001 204.108C183.366 203.68 183.548 203.057 183.548 202.242C183.548 201.426 183.366 200.804 183.001 200.375C182.641 199.943 182.169 199.726 181.586 199.726C180.971 199.726 180.479 199.956 180.109 200.417C179.745 200.872 179.562 201.481 179.562 202.242C179.562 202.998 179.745 203.607 180.109 204.067C180.479 204.523 180.971 204.75 181.586 204.75ZM186.282 208.708V198.632H187.697V199.671H187.718C187.946 199.275 188.258 198.979 188.654 198.783C189.051 198.587 189.484 198.489 189.953 198.489C190.573 198.489 191.118 198.648 191.587 198.967C192.056 199.282 192.421 199.722 192.681 200.287C192.945 200.847 193.077 201.499 193.077 202.242C193.077 202.985 192.947 203.639 192.688 204.204C192.428 204.764 192.063 205.204 191.594 205.523C191.124 205.837 190.575 205.995 189.946 205.995C189.477 205.995 189.053 205.892 188.675 205.687C188.297 205.482 187.987 205.174 187.745 204.764H187.725V208.708H186.282ZM189.652 204.75C190.236 204.75 190.707 204.536 191.067 204.108C191.432 203.68 191.614 203.057 191.614 202.242C191.614 201.426 191.432 200.804 191.067 200.375C190.707 199.943 190.236 199.726 189.652 199.726C189.037 199.726 188.545 199.956 188.176 200.417C187.811 200.872 187.629 201.481 187.629 202.242C187.629 202.998 187.811 203.607 188.176 204.067C188.545 204.523 189.037 204.75 189.652 204.75ZM195.791 195.666V205.851H194.349V195.666H195.791ZM200.508 206.015C199.792 206.015 199.177 205.853 198.662 205.53C198.152 205.206 197.757 204.762 197.479 204.197C197.206 203.627 197.069 202.98 197.069 202.255C197.069 201.522 197.213 200.87 197.5 200.3C197.787 199.731 198.184 199.284 198.689 198.96C199.195 198.632 199.776 198.468 200.433 198.468C201.116 198.468 201.709 198.628 202.21 198.947C202.716 199.266 203.108 199.71 203.386 200.28C203.664 200.845 203.803 201.499 203.803 202.242V202.631H198.491C198.519 203.283 198.705 203.809 199.052 204.21C199.403 204.611 199.895 204.812 200.528 204.812C201.002 204.812 201.392 204.705 201.697 204.491C202.003 204.277 202.205 203.999 202.306 203.657H203.693C203.607 204.122 203.413 204.532 203.112 204.887C202.816 205.243 202.442 205.521 201.991 205.721C201.545 205.917 201.05 206.015 200.508 206.015ZM198.505 201.538H202.395C202.335 200.963 202.132 200.51 201.786 200.177C201.44 199.84 200.993 199.671 200.446 199.671C199.899 199.671 199.453 199.84 199.106 200.177C198.765 200.51 198.564 200.963 198.505 201.538ZM208.506 205.851V195.666H212.279C213.368 195.666 214.232 195.95 214.87 196.52C215.508 197.09 215.827 197.862 215.827 198.837C215.827 199.489 215.679 200.054 215.383 200.533C215.087 201.007 214.67 201.374 214.132 201.633C213.594 201.889 212.961 202.016 212.231 202.016H210.023V205.851H208.506ZM210.023 200.704H212.204C212.86 200.704 213.378 200.537 213.756 200.205C214.139 199.867 214.33 199.412 214.33 198.837C214.33 198.263 214.139 197.812 213.756 197.484C213.378 197.151 212.86 196.985 212.204 196.985H210.023V200.704ZM218.917 205.967C218.197 205.967 217.6 205.785 217.126 205.42C216.652 205.051 216.415 204.507 216.415 203.787C216.415 203.24 216.549 202.82 216.818 202.529C217.092 202.233 217.445 202.021 217.878 201.893C218.315 201.765 218.778 201.672 219.266 201.613C219.717 201.558 220.075 201.513 220.339 201.476C220.603 201.44 220.79 201.385 220.899 201.312C221.013 201.239 221.07 201.114 221.07 200.936V200.875C221.07 200.524 220.943 200.236 220.688 200.013C220.432 199.785 220.075 199.671 219.614 199.671C219.154 199.671 218.778 199.783 218.486 200.006C218.195 200.225 218.035 200.501 218.008 200.833H216.593C216.625 200.145 216.914 199.583 217.461 199.145C218.008 198.708 218.732 198.489 219.635 198.489C220.523 198.489 221.223 198.708 221.733 199.145C222.244 199.583 222.499 200.168 222.499 200.902V205.851H221.077V204.826H221.05C220.899 205.117 220.66 205.382 220.332 205.619C220.008 205.851 219.537 205.967 218.917 205.967ZM219.211 204.805C219.849 204.805 220.318 204.641 220.619 204.313C220.924 203.98 221.077 203.593 221.077 203.151V202.303C220.981 202.381 220.765 202.451 220.428 202.515C220.09 202.574 219.73 202.631 219.348 202.686C218.951 202.745 218.603 202.857 218.302 203.021C218.001 203.185 217.851 203.449 217.851 203.814C217.851 204.124 217.971 204.368 218.213 204.545C218.459 204.719 218.792 204.805 219.211 204.805ZM223.894 208.708V207.492H224.673C224.901 207.492 225.085 207.426 225.227 207.293C225.372 207.166 225.5 206.954 225.609 206.658L225.938 205.803L223.148 198.632H224.693L226.136 202.59C226.231 202.859 226.325 203.13 226.416 203.404C226.507 203.673 226.596 203.942 226.683 204.21C226.769 203.942 226.858 203.673 226.949 203.404C227.045 203.13 227.141 202.859 227.236 202.59L228.658 198.632H230.183L226.901 207.116C226.496 208.178 225.799 208.708 224.81 208.708H223.894Z" fill="#333333"/>
<rect x="430.3" y="190.651" width="19.4" height="19.4" rx="5.7" fill="white"/>
<rect x="430.3" y="190.651" width="19.4" height="19.4" rx="5.7" stroke="#E5E5E5" stroke-width="0.6"/>
<rect x="103" y="244.835" width="359" height="64.9684" rx="12" fill="black" fill-opacity="0.04"/>
<path d="M115 265.32C115 260.634 118.799 256.835 123.484 256.835H147.484C152.17 256.835 155.968 260.634 155.968 265.32V289.32C155.968 294.005 152.17 297.804 147.484 297.804H123.484C118.799 297.804 115 294.005 115 289.32V265.32Z" fill="white"/>
<g clip-path="url(#clip4_2200_3134)">
<path d="M139.234 277.32C139.234 278.062 139.014 278.787 138.602 279.403C138.19 280.02 137.605 280.501 136.919 280.784C136.234 281.068 135.48 281.142 134.753 280.998C134.025 280.853 133.357 280.496 132.833 279.971C132.308 279.447 131.951 278.779 131.806 278.051C131.662 277.324 131.736 276.57 132.02 275.885C132.304 275.2 132.784 274.614 133.401 274.202C134.018 273.79 134.743 273.57 135.484 273.57C136.479 273.57 137.433 273.965 138.136 274.668C138.839 275.371 139.234 276.325 139.234 277.32ZM146.734 271.32V283.32C146.734 283.519 146.655 283.71 146.515 283.85C146.374 283.991 146.183 284.07 145.984 284.07H124.984C124.785 284.07 124.595 283.991 124.454 283.85C124.313 283.71 124.234 283.519 124.234 283.32V271.32C124.234 271.121 124.313 270.93 124.454 270.789C124.595 270.649 124.785 270.57 124.984 270.57H145.984C146.183 270.57 146.374 270.649 146.515 270.789C146.655 270.93 146.734 271.121 146.734 271.32ZM145.234 275.665C144.383 275.413 143.608 274.952 142.98 274.324C142.352 273.697 141.891 272.921 141.639 272.07H129.33C129.078 272.921 128.617 273.697 127.989 274.324C127.361 274.952 126.586 275.413 125.734 275.665V278.975C126.586 279.226 127.361 279.687 127.989 280.315C128.617 280.943 129.078 281.718 129.33 282.57H141.639C141.891 281.718 142.352 280.943 142.98 280.315C143.608 279.687 144.383 279.226 145.234 278.975V275.665Z" fill="#666666"/>
</g>
<path d="M173.273 282.984C172.339 282.984 171.514 282.763 170.799 282.321C170.083 281.879 169.525 281.264 169.124 280.475C168.723 279.687 168.522 278.773 168.522 277.734C168.522 276.686 168.723 275.767 169.124 274.979C169.525 274.191 170.081 273.575 170.792 273.133C171.507 272.691 172.335 272.47 173.273 272.47C174.016 272.47 174.688 272.616 175.29 272.908C175.896 273.199 176.397 273.612 176.794 274.145C177.19 274.674 177.448 275.3 177.566 276.025H176.021C175.871 275.332 175.55 274.799 175.058 274.425C174.57 274.047 173.98 273.858 173.287 273.858C172.617 273.858 172.041 274.02 171.558 274.343C171.075 274.667 170.701 275.12 170.437 275.704C170.177 276.287 170.047 276.964 170.047 277.734C170.047 278.504 170.177 279.179 170.437 279.757C170.696 280.336 171.068 280.787 171.551 281.111C172.038 281.434 172.617 281.596 173.287 281.596C173.975 281.596 174.563 281.409 175.051 281.036C175.543 280.662 175.869 280.131 176.028 279.443H177.566C177.448 280.163 177.19 280.79 176.794 281.323C176.397 281.851 175.896 282.262 175.29 282.553C174.688 282.84 174.016 282.984 173.273 282.984ZM181.114 282.936C180.394 282.936 179.797 282.754 179.323 282.389C178.849 282.02 178.612 281.475 178.612 280.755C178.612 280.208 178.747 279.789 179.016 279.498C179.289 279.201 179.642 278.989 180.075 278.862C180.513 278.734 180.975 278.641 181.463 278.582C181.914 278.527 182.272 278.481 182.536 278.445C182.8 278.408 182.987 278.354 183.097 278.281C183.211 278.208 183.268 278.083 183.268 277.905V277.843C183.268 277.492 183.14 277.205 182.885 276.982C182.63 276.754 182.272 276.64 181.812 276.64C181.351 276.64 180.975 276.752 180.684 276.975C180.392 277.194 180.232 277.47 180.205 277.802H178.79C178.822 277.114 179.111 276.551 179.658 276.114C180.205 275.676 180.93 275.458 181.832 275.458C182.721 275.458 183.42 275.676 183.931 276.114C184.441 276.551 184.696 277.137 184.696 277.871V282.82H183.274V281.794H183.247C183.097 282.086 182.857 282.35 182.529 282.587C182.206 282.82 181.734 282.936 181.114 282.936ZM181.408 281.774C182.046 281.774 182.516 281.61 182.816 281.282C183.122 280.949 183.274 280.562 183.274 280.12V279.272C183.179 279.349 182.962 279.42 182.625 279.484C182.288 279.543 181.928 279.6 181.545 279.655C181.148 279.714 180.8 279.826 180.499 279.99C180.198 280.154 180.048 280.418 180.048 280.783C180.048 281.093 180.169 281.336 180.41 281.514C180.656 281.687 180.989 281.774 181.408 281.774ZM188.996 282.991C188.445 282.991 187.948 282.902 187.506 282.724C187.064 282.546 186.706 282.282 186.433 281.931C186.164 281.58 186.013 281.145 185.981 280.625H187.403C187.485 281.437 188.007 281.842 188.969 281.842C189.424 281.842 189.785 281.749 190.049 281.562C190.318 281.375 190.452 281.138 190.452 280.851C190.452 280.605 190.356 280.409 190.165 280.263C189.974 280.113 189.723 280.003 189.413 279.935L188.217 279.668C186.836 279.368 186.146 278.68 186.146 277.604C186.146 276.966 186.398 276.446 186.904 276.045C187.415 275.644 188.082 275.444 188.907 275.444C189.723 275.444 190.393 275.656 190.917 276.08C191.446 276.499 191.719 277.073 191.737 277.802H190.356C190.352 277.451 190.22 277.162 189.96 276.934C189.7 276.702 189.356 276.585 188.928 276.585C188.518 276.585 188.192 276.681 187.95 276.873C187.709 277.064 187.588 277.299 187.588 277.577C187.588 277.823 187.679 278.021 187.861 278.171C188.048 278.322 188.303 278.433 188.627 278.506L189.857 278.78C190.559 278.935 191.076 279.174 191.409 279.498C191.742 279.821 191.908 280.245 191.908 280.769C191.908 281.229 191.781 281.626 191.525 281.958C191.275 282.287 190.931 282.542 190.493 282.724C190.056 282.902 189.557 282.991 188.996 282.991ZM194.629 278.664V282.82H193.187V272.634H194.629V276.64C195.126 275.852 195.843 275.458 196.782 275.458C197.279 275.458 197.723 275.567 198.115 275.786C198.512 276 198.824 276.319 199.052 276.743C199.28 277.167 199.394 277.693 199.394 278.322V282.82H197.951V278.5C197.951 277.921 197.812 277.486 197.534 277.194C197.256 276.898 196.869 276.75 196.372 276.75C195.88 276.75 195.465 276.902 195.128 277.208C194.795 277.508 194.629 277.994 194.629 278.664Z" fill="#333333"/>
<rect x="430.3" y="267.62" width="19.4" height="19.4" rx="5.7" fill="white"/>
<rect x="430.3" y="267.62" width="19.4" height="19.4" rx="5.7" stroke="#E5E5E5" stroke-width="0.6"/>
</g>
<rect x="91" y="37.8984" width="383" height="283.905" rx="12" stroke="#E5E5E5"/>
</g>
<defs>
<filter id="filter0_d_2200_3134" x="70.5" y="17.3984" width="424" height="324.905" filterUnits="userSpaceOnUse" color-interpolation-filters="sRGB">
<feFlood flood-opacity="0" result="BackgroundImageFix"/>
<feColorMatrix in="SourceAlpha" type="matrix" values="0 0 0 0 0 0 0 0 0 0 0 0 0 0 0 0 0 0 127 0" result="hardAlpha"/>
<feOffset/>
<feGaussianBlur stdDeviation="10"/>
<feComposite in2="hardAlpha" operator="out"/>
<feColorMatrix type="matrix" values="0 0 0 0 0 0 0 0 0 0 0 0 0 0 0 0 0 0 0.04 0"/>
<feBlend mode="normal" in2="BackgroundImageFix" result="effect1_dropShadow_2200_3134"/>
<feBlend mode="normal" in="SourceGraphic" in2="effect1_dropShadow_2200_3134" result="shape"/>
</filter>
<filter id="filter1_i_2200_3134" x="115" y="102.898" width="40.9688" height="40.9683" filterUnits="userSpaceOnUse" color-interpolation-filters="sRGB">
<feFlood flood-opacity="0" result="BackgroundImageFix"/>
<feBlend mode="normal" in="SourceGraphic" in2="BackgroundImageFix" result="shape"/>
<feColorMatrix in="SourceAlpha" type="matrix" values="0 0 0 0 0 0 0 0 0 0 0 0 0 0 0 0 0 0 127 0" result="hardAlpha"/>
<feOffset dy="-2.12105"/>
<feComposite in2="hardAlpha" operator="arithmetic" k2="-1" k3="1"/>
<feColorMatrix type="matrix" values="0 0 0 0 0.914756 0 0 0 0 0.190557 0 0 0 0 0.0660133 0 0 0 0.1 0"/>
<feBlend mode="normal" in2="shape" result="effect1_innerShadow_2200_3134"/>
</filter>
<clipPath id="clip0_2200_3134">
<rect x="91" y="37.8984" width="383" height="283.905" rx="12" fill="white"/>
</clipPath>
<clipPath id="clip1_2200_3134">
<rect width="24" height="24" fill="white" transform="translate(123.484 111.383)"/>
</clipPath>
<clipPath id="clip2_2200_3134">
<rect width="12" height="12" fill="white" transform="translate(434 117.383)"/>
</clipPath>
<clipPath id="clip3_2200_3134">
<rect width="24" height="24" fill="white" transform="translate(123.484 188.351)"/>
</clipPath>
<clipPath id="clip4_2200_3134">
<rect width="24" height="24" fill="white" transform="translate(123.484 265.32)"/>
</clipPath>
</defs>
</svg>
