<svg width="1440" height="294" viewBox="0 0 1440 294" fill="none" xmlns="http://www.w3.org/2000/svg">
<mask id="mask0_2290_5" style="mask-type:alpha" maskUnits="userSpaceOnUse" x="0" y="-1" width="1440" height="295">
<rect y="-0.101562" width="1440" height="294" fill="#EF5237"/>
</mask>
<g mask="url(#mask0_2290_5)">
<g filter="url(#filter0_f_2290_5)">
<path d="M-743 425.898L-694.217 38.8984L-645.433 425.898H-743Z" fill="url(#paint0_linear_2290_5)"/>
<path d="M-645.433 425.898L-596.65 38.8984L-547.867 425.898H-645.433Z" fill="url(#paint1_linear_2290_5)"/>
<path d="M-547.867 425.898L-499.083 38.8984L-450.3 425.898H-547.867Z" fill="url(#paint2_linear_2290_5)"/>
<path d="M-450.3 425.898L-401.517 38.8984L-352.733 425.898H-450.3Z" fill="url(#paint3_linear_2290_5)"/>
<path d="M-352.733 425.898L-303.95 38.8984L-255.167 425.898H-352.733Z" fill="url(#paint4_linear_2290_5)"/>
<path d="M-255.167 425.898L-206.383 38.8984L-157.6 425.898H-255.167Z" fill="url(#paint5_linear_2290_5)"/>
<path d="M-157.6 425.898L-108.817 38.8984L-60.0333 425.898H-157.6Z" fill="url(#paint6_linear_2290_5)"/>
<path d="M-60.0333 425.898L-11.25 38.8984L37.5333 425.898H-60.0333Z" fill="url(#paint7_linear_2290_5)"/>
<path d="M37.5333 425.898L86.3167 38.8984L135.1 425.898H37.5333Z" fill="url(#paint8_linear_2290_5)"/>
<path d="M135.1 425.898L183.883 38.8984L232.667 425.898H135.1Z" fill="url(#paint9_linear_2290_5)"/>
<path d="M232.667 425.898L281.45 38.8984L330.233 425.898H232.667Z" fill="url(#paint10_linear_2290_5)"/>
<path d="M330.233 425.898L379.017 38.8984L427.8 425.898H330.233Z" fill="url(#paint11_linear_2290_5)"/>
<path d="M427.8 425.898L476.583 38.8984L525.367 425.898H427.8Z" fill="url(#paint12_linear_2290_5)"/>
<path d="M525.367 425.898L574.15 38.8984L622.933 425.898H525.367Z" fill="url(#paint13_linear_2290_5)"/>
<path d="M622.933 425.898L671.717 38.8984L720.5 425.898H622.933Z" fill="url(#paint14_linear_2290_5)"/>
<path d="M720.5 425.898L769.283 38.8984L818.067 425.898H720.5Z" fill="url(#paint15_linear_2290_5)"/>
<path d="M818.067 425.898L866.85 38.8984L915.633 425.898H818.067Z" fill="url(#paint16_linear_2290_5)"/>
<path d="M915.633 425.898L964.417 38.8984L1013.2 425.898H915.633Z" fill="url(#paint17_linear_2290_5)"/>
<path d="M1013.2 425.898L1061.98 38.8984L1110.77 425.898H1013.2Z" fill="url(#paint18_linear_2290_5)"/>
<path d="M1110.77 425.898L1159.55 38.8984L1208.33 425.898H1110.77Z" fill="url(#paint19_linear_2290_5)"/>
<path d="M1208.33 425.898L1257.12 38.8984L1305.9 425.898H1208.33Z" fill="url(#paint20_linear_2290_5)"/>
<path d="M1305.9 425.898L1354.68 38.8984L1403.47 425.898H1305.9Z" fill="url(#paint21_linear_2290_5)"/>
<path d="M1403.47 425.898L1452.25 38.8984L1501.03 425.898H1403.47Z" fill="url(#paint22_linear_2290_5)"/>
<path d="M1501.03 425.898L1549.82 38.8984L1598.6 425.898H1501.03Z" fill="url(#paint23_linear_2290_5)"/>
<path d="M1598.6 425.898L1647.38 38.8984L1696.17 425.898H1598.6Z" fill="url(#paint24_linear_2290_5)"/>
<path d="M1696.17 425.898L1744.95 38.8984L1793.73 425.898H1696.17Z" fill="url(#paint25_linear_2290_5)"/>
<path d="M1793.73 425.898L1842.52 38.8984L1891.3 425.898H1793.73Z" fill="url(#paint26_linear_2290_5)"/>
<path d="M1891.3 425.898L1940.08 38.8984L1988.87 425.898H1891.3Z" fill="url(#paint27_linear_2290_5)"/>
<path d="M1988.87 425.898L2037.65 38.8984L2086.43 425.898H1988.87Z" fill="url(#paint28_linear_2290_5)"/>
<path d="M2086.43 425.898L2135.22 38.8984L2184 425.898H2086.43Z" fill="url(#paint29_linear_2290_5)"/>
</g>
<g opacity="0.25">
<path d="M322.074 146.695L322.978 149.138L325.421 150.042L322.978 150.946L322.074 153.389L321.17 150.946L318.727 150.042L321.17 149.138L322.074 146.695Z" fill="white"/>
<path d="M383.663 137.27L384.567 139.713L387.011 140.617L384.567 141.521L383.663 143.964L382.759 141.521L380.316 140.617L382.759 139.713L383.663 137.27Z" fill="white"/>
<path d="M5.5033 93.7969L6.40731 96.2399L8.85035 97.1439L6.40731 98.0479L5.5033 100.491L4.59929 98.0479L2.15625 97.1439L4.59929 96.2399L5.5033 93.7969Z" fill="white"/>
<path d="M461.23 38.918L462.134 41.361L464.577 42.265L462.134 43.169L461.23 45.6121L460.326 43.169L457.883 42.265L460.326 41.361L461.23 38.918Z" fill="white"/>
<path d="M101.003 164.727L101.907 167.17L104.35 168.074L101.907 168.978L101.003 171.421L100.099 168.978L97.6562 168.074L100.099 167.17L101.003 164.727Z" fill="white"/>
<path d="M278.408 68.1719L278.86 69.3934L280.081 69.8454L278.86 70.2974L278.408 71.5189L277.956 70.2974L276.734 69.8454L277.956 69.3934L278.408 68.1719Z" fill="white"/>
<path d="M287.236 75.4023L287.688 76.6239L288.91 77.0759L287.688 77.5279L287.236 78.7494L286.784 77.5279L285.562 77.0759L286.784 76.6239L287.236 75.4023Z" fill="white"/>
<path d="M246.494 157.93L246.946 159.151L248.167 159.603L246.946 160.055L246.494 161.277L246.042 160.055L244.82 159.603L246.042 159.151L246.494 157.93Z" fill="white"/>
<path d="M469.759 128.922L470.211 130.143L471.433 130.595L470.211 131.047L469.759 132.269L469.307 131.047L468.086 130.595L469.307 130.143L469.759 128.922Z" fill="white"/>
<path d="M186.521 102.324L186.973 103.546L188.195 103.998L186.973 104.45L186.521 105.671L186.069 104.45L184.848 103.998L186.069 103.546L186.521 102.324Z" fill="white"/>
<path d="M12.1735 167.328L12.6255 168.55L13.8471 169.002L12.6255 169.454L12.1735 170.675L11.7215 169.454L10.5 169.002L11.7215 168.55L12.1735 167.328Z" fill="white"/>
<path d="M135.033 -0.101562L135.485 1.11996L136.706 1.57196L135.485 2.02397L135.033 3.24549L134.581 2.02397L133.359 1.57196L134.581 1.11996L135.033 -0.101562Z" fill="white"/>
<path d="M491.002 7.73047L491.454 8.95199L492.675 9.40399L491.454 9.856L491.002 11.0775L490.55 9.856L489.328 9.40399L490.55 8.95199L491.002 7.73047Z" fill="white"/>
<path d="M516.236 58.5859L516.688 59.8075L517.91 60.2595L516.688 60.7115L516.236 61.933L515.784 60.7115L514.562 60.2595L515.784 59.8075L516.236 58.5859Z" fill="white" fill-opacity="0.4"/>
<path d="M576.33 98.7227L576.782 99.9442L578.003 100.396L576.782 100.848L576.33 102.07L575.878 100.848L574.656 100.396L575.878 99.9442L576.33 98.7227Z" fill="white"/>
<path d="M519.213 162.852L519.665 164.073L520.886 164.525L519.665 164.977L519.213 166.199L518.761 164.977L517.539 164.525L518.761 164.073L519.213 162.852Z" fill="white"/>
<path d="M90.822 212.992L91.274 214.214L92.4955 214.666L91.274 215.118L90.822 216.339L90.37 215.118L89.1484 214.666L90.37 214.214L90.822 212.992Z" fill="white"/>
<path d="M431.716 69.75L432.168 70.9715L433.39 71.4235L432.168 71.8755L431.716 73.0971L431.264 71.8755L430.043 71.4235L431.264 70.9715L431.716 69.75Z" fill="white"/>
<path d="M115.709 153.383L116.161 154.604L117.382 155.056L116.161 155.508L115.709 156.73L115.257 155.508L114.035 155.056L115.257 154.604L115.709 153.383Z" fill="white" fill-opacity="0.4"/>
<path d="M555.502 206.938L555.954 208.159L557.175 208.611L555.954 209.063L555.502 210.285L555.05 209.063L553.828 208.611L555.05 208.159L555.502 206.938Z" fill="white"/>
<path d="M55.8532 104.035L56.3052 105.257L57.5267 105.709L56.3052 106.161L55.8532 107.382L55.4012 106.161L54.1797 105.709L55.4012 105.257L55.8532 104.035Z" fill="white"/>
</g>
<g opacity="0.25">
<path d="M1153.35 93.7969L1154.25 96.2399L1156.69 97.1439L1154.25 98.0479L1153.35 100.491L1152.44 98.0479L1150 97.1439L1152.44 96.2399L1153.35 93.7969Z" fill="white"/>
<path d="M1248.85 164.727L1249.75 167.17L1252.19 168.074L1249.75 168.978L1248.85 171.421L1247.94 168.978L1245.5 168.074L1247.94 167.17L1248.85 164.727Z" fill="white"/>
<path d="M1426.25 68.1719L1426.7 69.3934L1427.93 69.8454L1426.7 70.2974L1426.25 71.5189L1425.8 70.2974L1424.58 69.8454L1425.8 69.3934L1426.25 68.1719Z" fill="white"/>
<path d="M1435.08 75.4023L1435.53 76.6239L1436.75 77.0759L1435.53 77.5279L1435.08 78.7494L1434.63 77.5279L1433.41 77.0759L1434.63 76.6239L1435.08 75.4023Z" fill="white"/>
<path d="M1394.34 157.93L1394.79 159.151L1396.01 159.603L1394.79 160.055L1394.34 161.277L1393.89 160.055L1392.66 159.603L1393.89 159.151L1394.34 157.93Z" fill="white"/>
<path d="M1334.36 102.324L1334.82 103.546L1336.04 103.998L1334.82 104.45L1334.36 105.671L1333.91 104.45L1332.69 103.998L1333.91 103.546L1334.36 102.324Z" fill="white"/>
<path d="M1160.02 167.328L1160.47 168.55L1161.69 169.002L1160.47 169.454L1160.02 170.675L1159.57 169.454L1158.34 169.002L1159.57 168.55L1160.02 167.328Z" fill="white"/>
<path d="M1282.88 -0.101562L1283.33 1.11996L1284.55 1.57196L1283.33 2.02397L1282.88 3.24549L1282.42 2.02397L1281.2 1.57196L1282.42 1.11996L1282.88 -0.101562Z" fill="white"/>
<path d="M1238.67 212.992L1239.12 214.214L1240.34 214.666L1239.12 215.118L1238.67 216.339L1238.21 215.118L1236.99 214.666L1238.21 214.214L1238.67 212.992Z" fill="white"/>
<path d="M1263.55 153.383L1264 154.604L1265.23 155.056L1264 155.508L1263.55 156.73L1263.1 155.508L1261.88 155.056L1263.1 154.604L1263.55 153.383Z" fill="white" fill-opacity="0.4"/>
<path d="M1203.7 104.035L1204.15 105.257L1205.37 105.709L1204.15 106.161L1203.7 107.382L1203.24 106.161L1202.02 105.709L1203.24 105.257L1203.7 104.035Z" fill="white"/>
</g>
<g opacity="0.25">
<path d="M461.23 257.918L462.134 260.361L464.577 261.265L462.134 262.169L461.23 264.612L460.326 262.169L457.883 261.265L460.326 260.361L461.23 257.918Z" fill="white"/>
<path d="M278.408 287.172L278.86 288.393L280.081 288.845L278.86 289.297L278.408 290.519L277.956 289.297L276.734 288.845L277.956 288.393L278.408 287.172Z" fill="white"/>
<path d="M135.033 218.898L135.485 220.12L136.706 220.572L135.485 221.024L135.033 222.245L134.581 221.024L133.359 220.572L134.581 220.12L135.033 218.898Z" fill="white"/>
<path d="M491.002 226.73L491.454 227.952L492.675 228.404L491.454 228.856L491.002 230.078L490.55 228.856L489.328 228.404L490.55 227.952L491.002 226.73Z" fill="white"/>
<path d="M516.236 277.586L516.688 278.807L517.91 279.259L516.688 279.711L516.236 280.933L515.784 279.711L514.562 279.259L515.784 278.807L516.236 277.586Z" fill="white" fill-opacity="0.4"/>
<path d="M431.716 288.75L432.168 289.972L433.39 290.424L432.168 290.876L431.716 292.097L431.264 290.876L430.043 290.424L431.264 289.972L431.716 288.75Z" fill="white"/>
</g>
<g opacity="0.25">
<path d="M1426.25 287.172L1426.7 288.393L1427.93 288.845L1426.7 289.297L1426.25 290.519L1425.8 289.297L1424.58 288.845L1425.8 288.393L1426.25 287.172Z" fill="white"/>
<path d="M1282.88 218.898L1283.33 220.12L1284.55 220.572L1283.33 221.024L1282.88 222.245L1282.42 221.024L1281.2 220.572L1282.42 220.12L1282.88 218.898Z" fill="white"/>
</g>
<g opacity="0.25">
<path d="M897.917 146.695L898.821 149.138L901.264 150.042L898.821 150.946L897.917 153.389L897.013 150.946L894.57 150.042L897.013 149.138L897.917 146.695Z" fill="white"/>
<path d="M959.507 137.27L960.411 139.713L962.854 140.617L960.411 141.521L959.507 143.964L958.603 141.521L956.16 140.617L958.603 139.713L959.507 137.27Z" fill="white"/>
<path d="M581.347 93.7969L582.251 96.2399L584.694 97.1439L582.251 98.0479L581.347 100.491L580.443 98.0479L578 97.1439L580.443 96.2399L581.347 93.7969Z" fill="white"/>
<path d="M1037.07 38.918L1037.98 41.361L1040.42 42.265L1037.98 43.169L1037.07 45.6121L1036.17 43.169L1033.73 42.265L1036.17 41.361L1037.07 38.918Z" fill="white"/>
<path d="M676.847 164.727L677.751 167.17L680.194 168.074L677.751 168.978L676.847 171.421L675.943 168.978L673.5 168.074L675.943 167.17L676.847 164.727Z" fill="white"/>
<path d="M854.252 68.1719L854.704 69.3934L855.925 69.8454L854.704 70.2974L854.252 71.5189L853.8 70.2974L852.578 69.8454L853.8 69.3934L854.252 68.1719Z" fill="white"/>
<path d="M863.08 75.4023L863.532 76.6239L864.753 77.0759L863.532 77.5279L863.08 78.7494L862.628 77.5279L861.406 77.0759L862.628 76.6239L863.08 75.4023Z" fill="white"/>
<path d="M822.338 157.93L822.79 159.151L824.011 159.603L822.79 160.055L822.338 161.277L821.886 160.055L820.664 159.603L821.886 159.151L822.338 157.93Z" fill="white"/>
<path d="M1045.6 128.922L1046.06 130.143L1047.28 130.595L1046.06 131.047L1045.6 132.269L1045.15 131.047L1043.93 130.595L1045.15 130.143L1045.6 128.922Z" fill="white"/>
<path d="M762.365 102.324L762.817 103.546L764.038 103.998L762.817 104.45L762.365 105.671L761.913 104.45L760.691 103.998L761.913 103.546L762.365 102.324Z" fill="white"/>
<path d="M588.017 167.328L588.469 168.55L589.691 169.002L588.469 169.454L588.017 170.675L587.565 169.454L586.344 169.002L587.565 168.55L588.017 167.328Z" fill="white"/>
<path d="M710.877 -0.101562L711.329 1.11996L712.55 1.57196L711.329 2.02397L710.877 3.24549L710.425 2.02397L709.203 1.57196L710.425 1.11996L710.877 -0.101562Z" fill="white"/>
<path d="M1066.85 7.73047L1067.3 8.95199L1068.52 9.40399L1067.3 9.856L1066.85 11.0775L1066.39 9.856L1065.17 9.40399L1066.39 8.95199L1066.85 7.73047Z" fill="white"/>
<path d="M1092.08 58.5859L1092.53 59.8075L1093.75 60.2595L1092.53 60.7115L1092.08 61.933L1091.63 60.7115L1090.41 60.2595L1091.63 59.8075L1092.08 58.5859Z" fill="white" fill-opacity="0.4"/>
<path d="M1152.17 98.7227L1152.63 99.9442L1153.85 100.396L1152.63 100.848L1152.17 102.07L1151.72 100.848L1150.5 100.396L1151.72 99.9442L1152.17 98.7227Z" fill="white"/>
<path d="M1095.06 162.852L1095.51 164.073L1096.73 164.525L1095.51 164.977L1095.06 166.199L1094.6 164.977L1093.38 164.525L1094.6 164.073L1095.06 162.852Z" fill="white"/>
<path d="M666.666 212.992L667.118 214.214L668.339 214.666L667.118 215.118L666.666 216.339L666.214 215.118L664.992 214.666L666.214 214.214L666.666 212.992Z" fill="white"/>
<path d="M1007.56 69.75L1008.01 70.9715L1009.23 71.4235L1008.01 71.8755L1007.56 73.0971L1007.11 71.8755L1005.89 71.4235L1007.11 70.9715L1007.56 69.75Z" fill="white"/>
<path d="M691.552 153.383L692.004 154.604L693.226 155.056L692.004 155.508L691.552 156.73L691.1 155.508L689.879 155.056L691.1 154.604L691.552 153.383Z" fill="white" fill-opacity="0.4"/>
<path d="M1131.35 206.938L1131.8 208.159L1133.02 208.611L1131.8 209.063L1131.35 210.285L1130.89 209.063L1129.67 208.611L1130.89 208.159L1131.35 206.938Z" fill="white"/>
<path d="M631.697 104.035L632.149 105.257L633.37 105.709L632.149 106.161L631.697 107.382L631.245 106.161L630.023 105.709L631.245 105.257L631.697 104.035Z" fill="white"/>
</g>
<g opacity="0.25">
<path d="M1037.07 257.918L1037.98 260.361L1040.42 261.265L1037.98 262.169L1037.07 264.612L1036.17 262.169L1033.73 261.265L1036.17 260.361L1037.07 257.918Z" fill="white"/>
<path d="M854.252 287.172L854.704 288.393L855.925 288.845L854.704 289.297L854.252 290.519L853.8 289.297L852.578 288.845L853.8 288.393L854.252 287.172Z" fill="white"/>
<path d="M710.877 218.898L711.329 220.12L712.55 220.572L711.329 221.024L710.877 222.245L710.425 221.024L709.203 220.572L710.425 220.12L710.877 218.898Z" fill="white"/>
<path d="M1066.85 226.73L1067.3 227.952L1068.52 228.404L1067.3 228.856L1066.85 230.078L1066.39 228.856L1065.17 228.404L1066.39 227.952L1066.85 226.73Z" fill="white"/>
<path d="M1092.08 277.586L1092.53 278.807L1093.75 279.259L1092.53 279.711L1092.08 280.933L1091.63 279.711L1090.41 279.259L1091.63 278.807L1092.08 277.586Z" fill="white" fill-opacity="0.4"/>
<path d="M1007.56 288.75L1008.01 289.972L1009.23 290.424L1008.01 290.876L1007.56 292.097L1007.11 290.876L1005.89 290.424L1007.11 289.972L1007.56 288.75Z" fill="white"/>
</g>
</g>
<defs>
<filter id="filter0_f_2290_5" x="-825" y="-43.1016" width="3091" height="551" filterUnits="userSpaceOnUse" color-interpolation-filters="sRGB">
<feFlood flood-opacity="0" result="BackgroundImageFix"/>
<feBlend mode="normal" in="SourceGraphic" in2="BackgroundImageFix" result="shape"/>
<feGaussianBlur stdDeviation="41" result="effect1_foregroundBlur_2290_5"/>
</filter>
<linearGradient id="paint0_linear_2290_5" x1="-743" y1="232.398" x2="2184" y2="232.398" gradientUnits="userSpaceOnUse">
<stop stop-color="white"/>
<stop offset="0.509615" stop-color="white" stop-opacity="0.5"/>
<stop offset="1" stop-color="white"/>
</linearGradient>
<linearGradient id="paint1_linear_2290_5" x1="-743" y1="232.398" x2="2184" y2="232.398" gradientUnits="userSpaceOnUse">
<stop stop-color="white"/>
<stop offset="0.509615" stop-color="white" stop-opacity="0.5"/>
<stop offset="1" stop-color="white"/>
</linearGradient>
<linearGradient id="paint2_linear_2290_5" x1="-743" y1="232.398" x2="2184" y2="232.398" gradientUnits="userSpaceOnUse">
<stop stop-color="white"/>
<stop offset="0.509615" stop-color="white" stop-opacity="0.5"/>
<stop offset="1" stop-color="white"/>
</linearGradient>
<linearGradient id="paint3_linear_2290_5" x1="-743" y1="232.398" x2="2184" y2="232.398" gradientUnits="userSpaceOnUse">
<stop stop-color="white"/>
<stop offset="0.509615" stop-color="white" stop-opacity="0.5"/>
<stop offset="1" stop-color="white"/>
</linearGradient>
<linearGradient id="paint4_linear_2290_5" x1="-743" y1="232.398" x2="2184" y2="232.398" gradientUnits="userSpaceOnUse">
<stop stop-color="white"/>
<stop offset="0.509615" stop-color="white" stop-opacity="0.5"/>
<stop offset="1" stop-color="white"/>
</linearGradient>
<linearGradient id="paint5_linear_2290_5" x1="-743" y1="232.398" x2="2184" y2="232.398" gradientUnits="userSpaceOnUse">
<stop stop-color="white"/>
<stop offset="0.509615" stop-color="white" stop-opacity="0.5"/>
<stop offset="1" stop-color="white"/>
</linearGradient>
<linearGradient id="paint6_linear_2290_5" x1="-743" y1="232.398" x2="2184" y2="232.398" gradientUnits="userSpaceOnUse">
<stop stop-color="white"/>
<stop offset="0.509615" stop-color="white" stop-opacity="0.5"/>
<stop offset="1" stop-color="white"/>
</linearGradient>
<linearGradient id="paint7_linear_2290_5" x1="-743" y1="232.398" x2="2184" y2="232.398" gradientUnits="userSpaceOnUse">
<stop stop-color="white"/>
<stop offset="0.509615" stop-color="white" stop-opacity="0.5"/>
<stop offset="1" stop-color="white"/>
</linearGradient>
<linearGradient id="paint8_linear_2290_5" x1="-743" y1="232.398" x2="2184" y2="232.398" gradientUnits="userSpaceOnUse">
<stop stop-color="white"/>
<stop offset="0.509615" stop-color="white" stop-opacity="0.5"/>
<stop offset="1" stop-color="white"/>
</linearGradient>
<linearGradient id="paint9_linear_2290_5" x1="-743" y1="232.398" x2="2184" y2="232.398" gradientUnits="userSpaceOnUse">
<stop stop-color="white"/>
<stop offset="0.509615" stop-color="white" stop-opacity="0.5"/>
<stop offset="1" stop-color="white"/>
</linearGradient>
<linearGradient id="paint10_linear_2290_5" x1="-743" y1="232.398" x2="2184" y2="232.398" gradientUnits="userSpaceOnUse">
<stop stop-color="white"/>
<stop offset="0.509615" stop-color="white" stop-opacity="0.5"/>
<stop offset="1" stop-color="white"/>
</linearGradient>
<linearGradient id="paint11_linear_2290_5" x1="-743" y1="232.398" x2="2184" y2="232.398" gradientUnits="userSpaceOnUse">
<stop stop-color="white"/>
<stop offset="0.509615" stop-color="white" stop-opacity="0.5"/>
<stop offset="1" stop-color="white"/>
</linearGradient>
<linearGradient id="paint12_linear_2290_5" x1="-743" y1="232.398" x2="2184" y2="232.398" gradientUnits="userSpaceOnUse">
<stop stop-color="white"/>
<stop offset="0.509615" stop-color="white" stop-opacity="0.5"/>
<stop offset="1" stop-color="white"/>
</linearGradient>
<linearGradient id="paint13_linear_2290_5" x1="-743" y1="232.398" x2="2184" y2="232.398" gradientUnits="userSpaceOnUse">
<stop stop-color="white"/>
<stop offset="0.509615" stop-color="white" stop-opacity="0.5"/>
<stop offset="1" stop-color="white"/>
</linearGradient>
<linearGradient id="paint14_linear_2290_5" x1="-743" y1="232.398" x2="2184" y2="232.398" gradientUnits="userSpaceOnUse">
<stop stop-color="white"/>
<stop offset="0.509615" stop-color="white" stop-opacity="0.5"/>
<stop offset="1" stop-color="white"/>
</linearGradient>
<linearGradient id="paint15_linear_2290_5" x1="-743" y1="232.398" x2="2184" y2="232.398" gradientUnits="userSpaceOnUse">
<stop stop-color="white"/>
<stop offset="0.509615" stop-color="white" stop-opacity="0.5"/>
<stop offset="1" stop-color="white"/>
</linearGradient>
<linearGradient id="paint16_linear_2290_5" x1="-743" y1="232.398" x2="2184" y2="232.398" gradientUnits="userSpaceOnUse">
<stop stop-color="white"/>
<stop offset="0.509615" stop-color="white" stop-opacity="0.5"/>
<stop offset="1" stop-color="white"/>
</linearGradient>
<linearGradient id="paint17_linear_2290_5" x1="-743" y1="232.398" x2="2184" y2="232.398" gradientUnits="userSpaceOnUse">
<stop stop-color="white"/>
<stop offset="0.509615" stop-color="white" stop-opacity="0.5"/>
<stop offset="1" stop-color="white"/>
</linearGradient>
<linearGradient id="paint18_linear_2290_5" x1="-743" y1="232.398" x2="2184" y2="232.398" gradientUnits="userSpaceOnUse">
<stop stop-color="white"/>
<stop offset="0.509615" stop-color="white" stop-opacity="0.5"/>
<stop offset="1" stop-color="white"/>
</linearGradient>
<linearGradient id="paint19_linear_2290_5" x1="-743" y1="232.398" x2="2184" y2="232.398" gradientUnits="userSpaceOnUse">
<stop stop-color="white"/>
<stop offset="0.509615" stop-color="white" stop-opacity="0.5"/>
<stop offset="1" stop-color="white"/>
</linearGradient>
<linearGradient id="paint20_linear_2290_5" x1="-743" y1="232.398" x2="2184" y2="232.398" gradientUnits="userSpaceOnUse">
<stop stop-color="white"/>
<stop offset="0.509615" stop-color="white" stop-opacity="0.5"/>
<stop offset="1" stop-color="white"/>
</linearGradient>
<linearGradient id="paint21_linear_2290_5" x1="-743" y1="232.398" x2="2184" y2="232.398" gradientUnits="userSpaceOnUse">
<stop stop-color="white"/>
<stop offset="0.509615" stop-color="white" stop-opacity="0.5"/>
<stop offset="1" stop-color="white"/>
</linearGradient>
<linearGradient id="paint22_linear_2290_5" x1="-743" y1="232.398" x2="2184" y2="232.398" gradientUnits="userSpaceOnUse">
<stop stop-color="white"/>
<stop offset="0.509615" stop-color="white" stop-opacity="0.5"/>
<stop offset="1" stop-color="white"/>
</linearGradient>
<linearGradient id="paint23_linear_2290_5" x1="-743" y1="232.398" x2="2184" y2="232.398" gradientUnits="userSpaceOnUse">
<stop stop-color="white"/>
<stop offset="0.509615" stop-color="white" stop-opacity="0.5"/>
<stop offset="1" stop-color="white"/>
</linearGradient>
<linearGradient id="paint24_linear_2290_5" x1="-743" y1="232.398" x2="2184" y2="232.398" gradientUnits="userSpaceOnUse">
<stop stop-color="white"/>
<stop offset="0.509615" stop-color="white" stop-opacity="0.5"/>
<stop offset="1" stop-color="white"/>
</linearGradient>
<linearGradient id="paint25_linear_2290_5" x1="-743" y1="232.398" x2="2184" y2="232.398" gradientUnits="userSpaceOnUse">
<stop stop-color="white"/>
<stop offset="0.509615" stop-color="white" stop-opacity="0.5"/>
<stop offset="1" stop-color="white"/>
</linearGradient>
<linearGradient id="paint26_linear_2290_5" x1="-743" y1="232.398" x2="2184" y2="232.398" gradientUnits="userSpaceOnUse">
<stop stop-color="white"/>
<stop offset="0.509615" stop-color="white" stop-opacity="0.5"/>
<stop offset="1" stop-color="white"/>
</linearGradient>
<linearGradient id="paint27_linear_2290_5" x1="-743" y1="232.398" x2="2184" y2="232.398" gradientUnits="userSpaceOnUse">
<stop stop-color="white"/>
<stop offset="0.509615" stop-color="white" stop-opacity="0.5"/>
<stop offset="1" stop-color="white"/>
</linearGradient>
<linearGradient id="paint28_linear_2290_5" x1="-743" y1="232.398" x2="2184" y2="232.398" gradientUnits="userSpaceOnUse">
<stop stop-color="white"/>
<stop offset="0.509615" stop-color="white" stop-opacity="0.5"/>
<stop offset="1" stop-color="white"/>
</linearGradient>
<linearGradient id="paint29_linear_2290_5" x1="-743" y1="232.398" x2="2184" y2="232.398" gradientUnits="userSpaceOnUse">
<stop stop-color="white"/>
<stop offset="0.509615" stop-color="white" stop-opacity="0.5"/>
<stop offset="1" stop-color="white"/>
</linearGradient>
</defs>
</svg>
