<svg width="1152" height="228" viewBox="0 0 1152 228" fill="none" xmlns="http://www.w3.org/2000/svg">
<path d="M80.9688 0.0429688H0V92.8119H47.7689V51.5719H80.9688C114.95 51.5719 142.604 81.599 142.604 118.513C142.604 155.428 114.95 185.455 80.9688 185.455H47.7689V144.173H0V236.9H80.9688C141.471 236.942 190.49 183.901 190.49 118.513C190.49 53.1258 141.432 0.0849576 80.9688 0.0849576V0.0429688Z" fill="#EF5237" fill-opacity="0.1"/>
<path d="M71.6344 92.7695H47.7695V144.131H71.6344C84.8363 144.131 95.4993 132.624 95.4993 118.471C95.4993 104.276 84.7972 92.8115 71.6344 92.8115V92.7695Z" fill="#EF5237" fill-opacity="0.1"/>
<path d="M1128.13 92.7695H1104.27V144.131H1128.13C1141.34 144.131 1152 132.624 1152 118.471C1152 104.276 1141.3 92.8115 1128.13 92.8115V92.7695Z" fill="#EF5237" fill-opacity="0.1"/>
<path d="M247.828 236.9H378.636V185.539H307.354V144.131H372.191V92.7699H307.354V51.4039H378.636V0.0429688H247.828V236.9Z" fill="#EF5237" fill-opacity="0.1"/>
<path d="M1104.23 144.129H1044.71V236.898H1104.23V144.129Z" fill="#EF5237" fill-opacity="0.1"/>
<path d="M979.865 92.7699V0.0429688H920.34V236.9H979.865V144.131H1044.7V92.7699H979.865Z" fill="#EF5237" fill-opacity="0.1"/>
<path d="M1104.23 0.0429688H1044.71V92.8119H1104.23V0.0429688Z" fill="#EF5237" fill-opacity="0.1"/>
<path d="M740.789 0L662.477 236.857H710.245L727.431 184.824H801.877L819.063 236.857H866.832L788.519 0H740.75H740.789ZM744.422 133.463L764.654 72.2329L784.887 133.463H744.422Z" fill="#EF5237" fill-opacity="0.1"/>
<path d="M532.136 0.209976H525.886C524.011 0.0839886 522.137 0 520.262 0L439.84 0.209976V236.857H487.609V184.824H508.427L547.564 236.857H609.003L564.672 177.937C567.601 176.635 570.452 175.207 573.226 173.611C593.224 161.81 608.418 141.778 614.784 117.714V117.63C615.839 113.683 616.62 109.651 617.167 105.494C617.167 105.284 617.206 105.116 617.245 104.906C617.479 103.142 617.635 101.378 617.752 99.6143C617.752 99.2363 617.831 98.8163 617.831 98.4384C617.948 96.4646 618.026 94.4488 618.026 92.475C618.026 41.5339 579.553 0.209976 532.175 0.209976H532.136ZM541.9 132.035C538.737 132.959 535.456 133.463 532.019 133.463H487.57V51.361H532.019C553.071 51.361 570.218 69.7972 570.218 92.4329C570.218 111.373 558.188 127.332 541.9 132.035Z" fill="#EF5237" fill-opacity="0.1"/>
</svg>
