<svg width="104" height="40" viewBox="0 0 104 40" fill="none" xmlns="http://www.w3.org/2000/svg">
<g clip-path="url(#clip0_2200_4541)">
<path d="M12.941 7.04534L0 7V17.0495H5.35291V22.0516H0V32.1011L12.9863 32.0558C18.2152 31.6024 22.6807 27.8054 23.9688 22.7246C25.8891 15.1594 20.6769 7.73504 12.941 7.04534ZM12.941 31.7002L3.00803 31.7455V22.4048H8.0079V26.6981H12.5426C20.8797 25.7387 21.1636 13.811 12.8909 12.4507L8.0079 12.4006V16.6939H3.00803V7.3532L12.8956 7.39854C17.9289 7.81857 22.2418 11.4246 23.5681 16.2858C25.579 23.6553 20.4932 31.001 12.9386 31.7002H12.941ZM10.8489 22.4048C12.4257 22.4048 13.7019 21.1256 13.7019 19.5506C13.7019 17.9755 12.4233 16.6963 10.8489 16.6963H8.36094V12.7562C10.3098 12.613 12.1705 13.1046 13.6471 14.3957C16.9509 17.2858 16.7171 22.5385 13.1533 25.0992C11.7244 26.1253 10.1118 26.469 8.36094 26.3473V22.4072H10.8489V22.4048ZM8.36094 22.0444V17.0471H10.8585C12.2373 17.0471 13.356 18.1664 13.356 19.5458C13.356 20.9252 12.2373 22.0444 10.8585 22.0444H8.36094Z" fill="#EF5237"/>
<path d="M38.3141 12.8218H33.3691V18.0935H36.2865V15.75H38.3141C40.3895 15.75 42.0784 17.4563 42.0784 19.5541C42.0784 21.6518 40.3895 23.3581 38.3141 23.3581H36.2865V21.0122H33.3691V26.2816H38.3141C42.0092 26.284 45.0029 23.2698 45.0029 19.5541C45.0029 15.8383 42.0068 12.8242 38.3141 12.8242V12.8218Z" fill="#EF5237"/>
<path d="M37.7446 18.0913H36.2871V21.01H37.7446C38.5509 21.01 39.2021 20.3561 39.2021 19.5518C39.2021 18.7452 38.5485 18.0937 37.7446 18.0937V18.0913Z" fill="#EF5237"/>
<path d="M102.268 18.0913H100.811V21.01H102.268C103.074 21.01 103.726 20.3561 103.726 19.5518C103.726 18.7452 103.072 18.0937 102.268 18.0937V18.0913Z" fill="#EF5237"/>
<path d="M48.5039 26.2816H56.4927V23.3629H52.1393V21.0098H56.0991V18.0912H52.1393V15.7405H56.4927V12.8218H48.5039V26.2816Z" fill="#EF5237"/>
<path d="M100.807 21.0098H97.1719V26.2815H100.807V21.0098Z" fill="#EF5237"/>
<path d="M93.2131 18.0912V12.8218H89.5801V26.2816H93.2131V21.0098H97.1729V18.0912H93.2131Z" fill="#EF5237"/>
<path d="M100.807 12.8218H97.1719V18.0935H100.807V12.8218Z" fill="#EF5237"/>
<path d="M78.6109 12.8193L73.8281 26.2792H76.7455L77.7951 23.3223H82.3417L83.3913 26.2792H86.3087L81.5259 12.8193H78.6085H78.6109ZM78.8328 20.4036L80.0684 16.9241L81.3041 20.4036H78.8328Z" fill="#EF5237"/>
<path d="M65.8692 12.8313H65.4875C65.373 12.8241 65.2585 12.8193 65.144 12.8193L60.2324 12.8313V26.2792H63.1498V23.3223H64.4212L66.8114 26.2792H70.5637L67.8563 22.9309C68.0352 22.8569 68.2093 22.7758 68.3787 22.6851C69.6 22.0145 70.5279 20.8761 70.9168 19.5087V19.5039C70.9812 19.2796 71.0289 19.0505 71.0623 18.8142C71.0623 18.8023 71.0647 18.7927 71.0671 18.7808C71.0814 18.6806 71.0909 18.5803 71.0981 18.4801C71.0981 18.4586 71.1028 18.4348 71.1028 18.4133C71.11 18.3011 71.1148 18.1866 71.1148 18.0744C71.1148 15.1796 68.7651 12.8313 65.8716 12.8313H65.8692ZM66.4656 20.3225C66.2723 20.375 66.072 20.4036 65.862 20.4036H63.1474V15.738H65.862C67.1478 15.738 68.195 16.7857 68.195 18.072C68.195 19.1483 67.4603 20.0552 66.4656 20.3225Z" fill="#EF5237"/>
</g>
<defs>
<clipPath id="clip0_2200_4541">
<rect width="103.725" height="39.1011" fill="white"/>
</clipPath>
</defs>
</svg>
