<svg width="74" height="20" viewBox="0 0 74 20" fill="none" xmlns="http://www.w3.org/2000/svg">
<g clip-path="url(#clip0_2200_4672)">
<path d="M27.0215 14.9693H28.7082L28.4288 13.6544V5.81543H26.8153V9.39082C26.33 8.82569 25.6624 8.49415 24.8742 8.49415C23.2605 8.49415 22.0112 9.83313 22.0112 11.7993C22.0112 13.7652 23.2605 15.1044 24.8742 15.1044C25.6749 15.1044 26.3662 14.7603 26.8518 14.1703L27.0215 14.9693ZM58.916 10.2513C59.2436 10.2513 59.5468 10.337 59.8257 10.5334L60.5902 8.80133C60.238 8.57979 59.8257 8.48184 59.4256 8.48184C58.6976 8.48184 58.091 8.81261 57.7032 9.428L57.533 8.62851H55.8708L56.1377 9.86954V14.9683H57.7504V10.9265C57.9688 10.5085 58.3814 10.2508 58.9152 10.2508V10.2513H58.916ZM63.6469 13.3965C62.7135 13.3965 62.0214 12.77 62.0214 11.799C62.0214 10.8162 62.7135 10.2021 63.6469 10.2021C64.5936 10.2021 65.2731 10.8162 65.2731 11.799C65.2731 12.77 64.5933 13.3965 63.6469 13.3965ZM23.5759 11.799C23.5759 10.8162 24.2674 10.2021 25.2013 10.2021C26.148 10.2021 26.8273 10.8162 26.8273 11.799C26.8273 12.77 26.148 13.3965 25.2018 13.3965C24.2679 13.3965 23.5759 12.77 23.5759 11.799ZM70.793 13.3965C69.8591 13.3965 69.1675 12.77 69.1675 11.799C69.1675 10.8162 69.8591 10.2021 70.793 10.2021C71.7392 10.2021 72.4184 10.8162 72.4184 11.799C72.4184 12.77 71.7392 13.3965 70.793 13.3965ZM32.6263 10.1036C33.4633 10.1036 34.0094 10.4967 34.1791 11.2216H31.0736C31.2556 10.4967 31.8016 10.1036 32.6263 10.1036ZM51.9276 10.1036C52.7651 10.1036 53.3111 10.4967 53.4808 11.2216H50.3754C50.5573 10.4967 51.1031 10.1036 51.9278 10.1036H51.9276ZM44.0547 14.9693H46.6509L48.3376 8.62928H46.5784L45.3413 13.7652L44.1037 8.62928H42.3686L44.0553 14.969L44.0547 14.9693ZM39.8934 14.9693H41.5061V8.62902H39.8934V14.9693ZM32.8736 15.0867C33.7718 15.0867 34.6573 14.8406 35.3973 14.3616L34.7787 12.9611C34.1962 13.2683 33.5534 13.4526 32.8981 13.4526C32.0491 13.4526 31.4546 13.1208 31.1997 12.5065H35.7366C35.7851 12.2731 35.8099 12.0398 35.8099 11.757C35.8099 9.79108 34.4633 8.47646 32.6554 8.47646C30.8361 8.47646 29.5015 9.80338 29.5015 11.7816C29.5015 13.7965 30.8238 15.0867 32.8741 15.0867H32.8736ZM73.9837 11.799C73.9837 9.83313 72.6249 8.4939 70.793 8.4939C68.9609 8.4939 67.6023 9.83313 67.6023 11.799C67.6023 13.7652 68.9609 15.1042 70.7927 15.1042C72.6249 15.1042 73.9834 13.7652 73.9834 11.799H73.9837ZM52.1465 15.1042C53.0437 15.1042 53.9294 14.8585 54.6702 14.3793L54.0509 12.978C53.4686 13.2852 52.8255 13.4693 52.1703 13.4693C51.3213 13.4693 50.7267 13.138 50.4718 12.5231H55.0093C55.0578 12.2898 55.0818 12.0565 55.0818 11.7739C55.0818 9.808 53.735 8.49338 51.9273 8.49338C50.1079 8.49338 48.7734 9.82005 48.7734 11.7985C48.7734 13.8134 50.096 15.1036 52.1463 15.1036V15.1042H52.1465ZM63.6471 15.1042C65.4793 15.1042 66.8376 13.7652 66.8376 11.799C66.8376 9.83313 65.479 8.4939 63.6469 8.4939C61.8148 8.4939 60.4562 9.83313 60.4562 11.799C60.4562 13.7652 61.815 15.1042 63.6466 15.1042H63.6471ZM36.8362 14.969H38.4494V5.81518H36.8359V14.969H36.8362ZM40.7059 7.7562C41.2759 7.7562 41.7128 7.31364 41.7128 6.7239C41.7128 6.13415 41.2764 5.69184 40.7061 5.69184C40.1238 5.69184 39.687 6.13415 39.687 6.7239C39.687 7.31364 40.1241 7.75595 40.7064 7.75595L40.7059 7.7562ZM12.987 0.0451783L12.0633 8.83031L10.4876 1.42364L5.54745 2.47338L7.12237 9.87954L0 11.3924L1.258 17.3085L13.7829 19.9685L16.6472 13.5398L18.0103 0.573127L12.9865 0.0449219L12.987 0.0454347V0.0451783ZM9.02927 12.7895C8.77104 13.0259 8.42962 13.0042 8.06728 12.8836C7.7057 12.7636 7.54494 12.3265 7.68196 11.798C7.78403 11.4057 8.26452 11.3467 8.5049 11.3426C8.59625 11.3411 8.68607 11.3595 8.769 11.397C8.93894 11.4739 9.22678 11.638 9.28521 11.8883C9.36942 12.2493 9.28828 12.5524 9.03004 12.7888H9.02953V12.7893L9.02927 12.7895ZM12.6553 13.1972C12.4677 13.5229 11.9752 13.5659 11.4907 13.329C11.164 13.169 11.1666 12.7618 11.2023 12.5136C11.2213 12.3783 11.2759 12.2504 11.3605 12.1434C11.4771 11.9957 11.6718 11.8031 11.8969 11.7972C12.2628 11.7875 12.5777 11.9516 12.7556 12.2485C12.9342 12.5444 12.8449 12.8708 12.6568 13.1972H12.6553Z" fill="#999999"/>
</g>
<defs>
<clipPath id="clip0_2200_4672">
<rect width="74" height="20" fill="white"/>
</clipPath>
</defs>
</svg>
