<svg width="80" height="20" viewBox="0 0 80 20" fill="none" xmlns="http://www.w3.org/2000/svg">
<g clip-path="url(#clip0_2200_4674)">
<path d="M29.1569 14.2713H29.0528L29.0088 14.3688C28.5506 15.3962 26.9679 16.6234 24.404 16.6234C22.8374 16.6234 21.648 16.1929 20.8103 15.4533C20.0166 14.7517 19.5307 13.7576 19.3479 12.5494H32.651V10.1759C32.651 7.9213 31.774 6.08767 30.2792 4.82004C28.7866 3.55242 26.6902 2.86035 24.2535 2.86035C21.523 2.86035 19.3432 3.72842 17.8415 5.22435C16.342 6.72027 15.5391 8.82979 15.5391 11.2794C15.5391 13.7291 16.305 15.8314 17.8045 17.3559C19.3039 18.8828 21.523 19.7889 24.397 19.7889C29.5271 19.7889 32.2808 16.8303 32.6742 14.4663L32.7066 14.2689H29.1523L29.1569 14.2713ZM24.2304 6.05912C25.554 6.05912 26.7573 6.38973 27.6227 7.03421C28.4465 7.64779 28.9741 8.55633 29.018 9.77161H19.3548C19.4011 8.54439 19.9472 7.63591 20.7918 7.0247C21.6804 6.38021 22.9045 6.05675 24.2281 6.05675L24.2304 6.05912Z" fill="#999999"/>
<path d="M77.8 4.33781C76.4721 3.25808 74.5927 2.86328 72.383 2.86328C69.3563 2.86328 67.4291 3.55536 66.246 4.5685C65.0618 5.5864 64.6497 6.91345 64.6194 8.12878L64.6151 8.30236H68.2272L68.2412 8.14781C68.2806 7.66024 68.5163 7.12751 69.1224 6.70897C69.7357 6.288 70.74 5.97644 72.3254 5.97644C73.7969 5.97644 74.7503 6.26418 75.3333 6.74224C75.9072 7.21315 76.1503 7.88618 76.1503 8.73048V9.42733H75.3612C69.8678 9.42733 67.3684 10.0219 65.8254 11.035L65.9109 11.1706L65.9151 11.1777L65.8272 11.035C64.4 11.9863 63.7012 13.2302 63.7012 14.757C63.7012 15.9461 64.106 17.1733 65.1284 18.1008C66.1515 19.0284 67.7691 19.6372 70.1636 19.6372C72.7187 19.6372 75.1575 18.6788 76.5321 17.3445V19.4945H79.8921V9.80072C79.8921 7.17272 79.1442 5.4223 77.8072 4.33781H77.8024H77.8ZM74.9236 15.6727C74.0442 16.2458 72.7024 16.7024 70.8788 16.7024C69.6642 16.7024 68.7733 16.5027 68.1921 16.1483C67.623 15.8011 67.3454 15.3016 67.3454 14.6642C67.3454 14.1339 67.5515 13.713 67.9309 13.3657C68.3151 13.0161 68.8866 12.7426 69.606 12.5357C71.0454 12.1242 73.0357 11.9982 75.2151 11.9982H76.2078V13.9769C76.2078 14.191 76.1157 14.4668 75.9006 14.7713C75.6872 15.071 75.366 15.3873 74.9236 15.6727Z" fill="#999999"/>
<path d="M62.136 16.3665L62.1269 16.1977C61.6039 16.2286 61.2869 16.2286 60.9354 16.2286C59.7922 16.2286 59.0771 16.0906 58.6398 15.7529C58.2186 15.4223 58.0243 14.873 58.0243 13.9145V6.66317H62.1269V3.30268H58.0243V0.137207H54.47V1.19791C54.47 2.10641 54.352 2.69622 54.0095 3.06724C53.6717 3.43587 53.0746 3.63088 51.9986 3.63088H51.832V6.66081H54.2941V14.7493C54.2941 16.3118 54.6505 17.5533 55.583 18.3952C56.5109 19.2323 57.9757 19.6461 60.1138 19.6461C60.7063 19.6461 61.3566 19.6152 62.1524 19.5272L62.3003 19.5106V16.1881L62.1245 16.1977L62.1336 16.3665H62.136Z" fill="#999999"/>
<path d="M47.7206 14.2713H47.6165L47.5725 14.3688C47.1144 15.3962 45.5316 16.6234 42.9677 16.6234C41.4034 16.6234 40.2117 16.1929 39.3741 15.4533C38.5804 14.7517 38.0945 13.7576 37.9139 12.5494H51.2171V10.1759C51.2171 7.9213 50.3401 6.08767 48.8452 4.82004C47.3527 3.55242 45.2562 2.86035 42.8196 2.86035C40.0891 2.86035 37.9093 3.72842 36.4098 5.22435C34.9104 6.72027 34.1074 8.82979 34.1074 11.2794C34.1074 13.7291 34.8734 15.8314 36.3728 17.3559C37.8723 18.8828 40.0914 19.7889 42.9654 19.7889C48.0955 19.7889 50.8491 16.8303 51.2425 14.4663L51.2749 14.2689H47.7206V14.2713ZM42.7942 6.05912C44.1177 6.05912 45.321 6.38973 46.1865 7.03421C47.0102 7.64779 47.5378 8.55633 47.5818 9.77161H37.9186C37.9648 8.54439 38.5109 7.63591 39.3555 7.0247C40.2442 6.38021 41.4682 6.05675 42.7918 6.05675L42.7942 6.05912Z" fill="#999999"/>
<path d="M15.3057 0.137489H10.2659L3.80981 7.18194V0.111328H0.107422V19.4348H3.80981V11.263L15.3057 0.137489Z" fill="#999999"/>
<path d="M5.88477 9.46631C6.01435 15.0458 10.6585 19.6549 16.0964 19.4265V16.3101C15.1731 16.2626 14.0875 16.0319 13.2706 15.637C11.6554 14.8641 10.5475 13.79 9.96202 12.0776C9.67044 11.2358 9.54547 10.3487 9.58717 9.46631H5.88477Z" fill="#999999"/>
</g>
<defs>
<clipPath id="clip0_2200_4674">
<rect width="80" height="20" fill="white"/>
</clipPath>
</defs>
</svg>
