<svg width="139" height="20" viewBox="0 0 139 20" fill="none" xmlns="http://www.w3.org/2000/svg">
<path d="M138.622 18.4366C138.531 18.4554 138.439 18.4898 138.348 18.4913C137.304 18.4976 136.26 18.5007 135.214 18.5023C135.154 18.5023 135.095 18.4867 135.003 18.4741C135.003 18.1724 135.003 17.8832 135.003 17.5939C134.998 15.072 135.003 12.5501 134.976 10.0298C134.971 9.55763 134.895 9.06826 134.749 8.61955C134.269 7.15144 133.109 6.41973 131.564 6.58702C130.089 6.7465 129.086 7.57202 128.517 8.90879C128.377 9.24025 128.359 9.64049 128.356 10.0095C128.341 12.7284 128.339 15.4488 128.347 18.1677C128.347 18.4179 128.28 18.4945 128.036 18.4929C127.085 18.4867 126.134 18.4867 125.184 18.4992C124.94 18.5023 124.863 18.4319 124.863 18.1802C124.87 13.7524 124.867 9.32311 124.865 4.89534C124.865 3.67583 124.871 2.45632 124.856 1.23837C124.852 1.00228 124.923 0.905345 125.145 0.852187C125.956 0.655189 126.765 0.445681 127.573 0.234611C127.803 0.175199 128.028 0.098588 128.308 0.0141602V5.33312C128.466 5.21586 128.552 5.1627 128.624 5.09703C130.756 3.14894 133.994 2.95663 136.299 4.66551C137.504 5.55982 138.111 6.83249 138.359 8.26776C138.495 9.05419 138.55 9.86251 138.558 10.6614C138.583 12.9957 138.566 15.33 138.569 17.6627C138.569 17.7956 138.602 17.9285 138.619 18.0614V18.4366H138.622Z" fill="#999999"/>
<path d="M26.4497 20.0001C26.8328 19.012 27.2237 18.0255 27.5927 17.0311C27.6474 16.8841 27.6536 16.6793 27.5958 16.537C26.4028 13.5758 25.1974 10.6193 23.9951 7.66271C23.5135 6.4776 23.0289 5.29404 22.5489 4.10893C22.5192 4.03544 22.5067 3.95571 22.4785 3.85721C22.6614 3.85721 22.8131 3.85721 22.9663 3.85721C23.9591 3.85721 24.9504 3.85721 25.9432 3.84939C26.1199 3.84939 26.223 3.88222 26.2934 4.06984C27.2487 6.6574 28.2149 9.24026 29.1749 11.8263C29.2421 12.0061 29.2953 12.1905 29.3563 12.3735C29.386 12.3766 29.4157 12.3797 29.4454 12.3813C29.5392 12.1374 29.6377 11.8966 29.7252 11.6511C30.6195 9.13238 31.5092 6.61206 32.4097 4.09642C32.4457 3.9948 32.5833 3.86033 32.6755 3.85877C33.8544 3.84313 35.0332 3.84783 36.2434 3.84783C35.9369 4.67022 35.6477 5.45821 35.3506 6.24307C33.6746 10.6724 31.9985 15.1017 30.3209 19.5326C30.2631 19.6874 30.2084 19.8438 30.1505 20.0001H26.4513H26.4497Z" fill="#999999"/>
<path d="M12.9941 18.4569C12.9003 18.4678 12.8002 18.4897 12.7001 18.4913C11.7605 18.4975 10.8193 18.4866 9.87962 18.51C9.57474 18.5178 9.52002 18.4068 9.52002 18.1332C9.52627 15.4034 9.53565 12.672 9.50595 9.94216C9.49969 9.40119 9.40745 8.83521 9.22921 8.32396C8.64291 6.64322 6.88087 6.01626 5.36273 6.96686C4.28393 7.64228 3.59913 8.60382 3.60069 9.94841C3.60225 12.6892 3.59131 15.43 3.60069 18.1707C3.60069 18.4115 3.53033 18.4897 3.30988 18.4913C2.31707 18.4928 1.32427 18.4944 0.331457 18.5053C0.137586 18.5069 0.109443 18.4162 0.111007 18.2567C0.115697 17.7252 0.111007 17.1936 0.111007 16.662C0.111007 13.5256 0.123515 10.3893 0.109444 7.25141C0.104753 6.13978 0.039087 5.02658 0 3.8743C0.068793 3.86961 0.189181 3.8571 0.308005 3.8571C1.17574 3.8571 2.0419 3.86805 2.90963 3.8571C3.13634 3.85397 3.20357 3.93527 3.19731 4.14634C3.18793 4.53721 3.19419 4.92808 3.25203 5.3596C4.5294 4.0541 6.0491 3.44747 7.83615 3.50532C9.67637 3.56629 11.035 4.44966 11.9809 5.91933C12.5156 5.44403 13.0019 4.94059 13.5569 4.53252C15.6567 2.98937 18.7742 3.17699 20.602 4.93903C21.5385 5.84272 22.0357 6.98562 22.228 8.24735C22.3468 9.02752 22.4046 9.82177 22.4125 10.6113C22.4328 13.1426 22.4125 15.6754 22.4218 18.2083C22.4218 18.449 22.3187 18.4944 22.1279 18.4959C21.1351 18.4991 20.1423 18.5006 19.1495 18.51C18.9587 18.5116 18.9259 18.4225 18.9275 18.2614C18.9322 17.6986 18.929 17.1357 18.929 16.5729C18.929 14.5091 18.9322 12.4468 18.9275 10.3831C18.9275 9.65135 18.8665 8.92277 18.5788 8.23797C17.9018 6.62289 16.096 6.03346 14.6045 6.96999C13.6226 7.58756 13.0191 8.46467 13.0175 9.67637C13.0175 12.5625 13.0128 15.4487 13.0097 18.3349C13.0097 18.3646 13.0019 18.3959 12.9909 18.46L12.9941 18.4569Z" fill="#999999"/>
<path d="M84.8853 10.9926C84.8134 13.4895 84.0395 15.5908 82.068 17.1168C80.4341 18.3816 78.5408 18.8913 76.4957 18.835C74.6133 18.7834 72.9028 18.2175 71.4691 16.9557C69.9229 15.5955 69.1458 13.8554 69.0207 11.8244C68.8878 9.64335 69.4538 7.66868 70.9297 6.01764C72.2634 4.52608 73.9816 3.76311 75.9563 3.55516C77.4088 3.40351 78.8409 3.50982 80.209 4.04922C82.9513 5.13271 84.4538 7.17306 84.8134 10.0717C84.8541 10.4016 84.865 10.7362 84.8838 10.9911L84.8853 10.9926ZM81.2753 10.9614C81.2424 10.7253 81.2159 10.2641 81.1142 9.82159C80.456 6.95261 78.0717 5.82221 75.5295 6.57112C74.5898 6.84785 73.8738 7.45135 73.3844 8.29563C72.5276 9.77312 72.3806 11.3382 72.8606 12.9689C73.7549 16.0083 77.5386 17.0214 79.8447 14.8341C80.8922 13.8413 81.2331 12.5717 81.2753 10.9598V10.9614Z" fill="#999999"/>
<path d="M93.3246 18.8557C90.7026 18.7994 88.4637 17.9161 86.8893 15.7241C85.8214 14.2372 85.4321 12.5455 85.5494 10.7272C85.662 8.97768 86.242 7.40794 87.3974 6.08211C88.7389 4.54521 90.479 3.76817 92.4881 3.5571C93.9187 3.407 95.3305 3.51019 96.6829 4.03083C99.2283 5.00957 100.785 6.83884 101.255 9.52333C101.699 12.0702 101.194 14.4061 99.419 16.3604C98.1401 17.7691 96.475 18.4758 94.6129 18.7494C94.4174 18.7776 94.2189 18.801 94.0219 18.8182C93.7936 18.837 93.5638 18.8448 93.3246 18.8589V18.8557ZM89.1266 11.2119C89.0985 11.2181 89.0719 11.2244 89.0438 11.2307C89.1782 11.8686 89.2502 12.5283 89.4612 13.1397C90.0272 14.786 91.1967 15.7757 92.9431 15.9617C94.6676 16.1447 96.1091 15.5177 97.0097 14.0355C98.0963 12.2469 98.0775 10.3442 97.141 8.48518C95.7401 5.70688 91.8643 5.81007 90.3118 7.73315C89.4909 8.75097 89.1423 9.92358 89.1266 11.2119Z" fill="#999999"/>
<path d="M123.175 18.4615C123.095 18.4725 123.015 18.4944 122.934 18.4944C122.035 18.4975 121.137 18.4897 120.238 18.5022C119.985 18.5053 119.88 18.4209 119.871 18.1676C119.858 17.869 119.816 17.5719 119.78 17.2123C119.649 17.3108 119.557 17.3843 119.46 17.4531C117.535 18.8305 115.421 19.2886 113.179 18.4615C110.198 17.3624 109.566 13.9431 111.194 11.6573C112.08 10.4112 113.37 9.77484 114.794 9.3699C116.159 8.98216 117.563 8.85865 118.975 8.80549C119.422 8.78829 119.422 8.78673 119.33 8.36146C119.064 7.14038 118.343 6.49779 117.089 6.36646C115.889 6.24138 114.715 6.44307 113.54 6.64632C113.309 6.68541 113.076 6.72294 112.765 6.77453C112.906 6.57441 113.001 6.44151 113.092 6.30705C113.592 5.56439 114.1 4.82644 114.586 4.07284C114.76 3.80392 114.969 3.6679 115.291 3.63506C116.609 3.5006 117.929 3.45526 119.2 3.88991C121.355 4.62631 122.496 6.19604 122.823 8.4068C123.034 9.83113 122.915 11.257 122.874 12.6829C122.823 14.4887 122.924 16.2867 123.175 18.0754C123.187 18.1676 123.195 18.2614 123.2 18.3552C123.2 18.3849 123.187 18.4146 123.176 18.46L123.175 18.4615ZM119.436 11.5025C118.285 11.54 117.146 11.5619 116.053 11.9106C115.592 12.0575 115.132 12.2592 114.73 12.525C114.056 12.969 113.812 13.6538 113.948 14.434C114.091 15.2501 114.597 15.763 115.42 15.9428C116.791 16.2445 118.364 15.5894 119.108 14.3793C119.266 14.1213 119.4 13.8102 119.422 13.5147C119.469 12.8643 119.436 12.2076 119.436 11.5041V11.5025Z" fill="#999999"/>
<path d="M59.3203 18.4582C59.1843 18.4691 59.0624 18.4863 58.942 18.4879C58.0852 18.4941 57.2284 18.4863 56.3716 18.5082C56.0933 18.5145 56.0089 18.405 55.9917 18.1533C55.9729 17.8656 55.9245 17.5795 55.8822 17.2293C55.7572 17.32 55.679 17.3747 55.6024 17.4325C53.6559 18.8553 51.5233 19.2806 49.2437 18.4363C46.9485 17.5858 45.8729 15.042 46.7406 12.753C47.3488 11.1473 48.5886 10.2233 50.1271 9.63546C51.6781 9.04134 53.3119 8.89907 54.9535 8.81307C55.138 8.80369 55.3241 8.78962 55.5055 8.77712C55.5398 7.64516 54.7565 6.68831 53.6074 6.43815C52.6818 6.23646 51.7562 6.33653 50.8338 6.46161C50.2756 6.53822 49.7221 6.64609 49.1655 6.73834C49.0968 6.74928 49.0248 6.74616 48.9107 6.75085C49.1671 6.37717 49.4032 6.0379 49.6362 5.6955C50.0348 5.10919 50.4241 4.5182 50.8322 3.93971C50.9088 3.83027 51.0448 3.71457 51.1684 3.69581C52.5645 3.48474 53.9654 3.43627 55.321 3.88968C57.416 4.58856 58.6058 6.09888 58.9091 8.24553C59.0624 9.33058 59.0717 10.4485 59.0295 11.5476C58.9435 13.8131 59.0123 16.0676 59.3219 18.3128C59.3266 18.3425 59.3219 18.3737 59.3219 18.4613L59.3203 18.4582ZM55.6305 11.4163C54.4908 11.5632 53.4557 11.6695 52.4301 11.8384C51.8328 11.9369 51.2684 12.1792 50.7884 12.567C50.1521 13.0814 49.9223 13.7568 50.0989 14.5448C50.2678 15.2953 50.7619 15.7909 51.5123 15.9206C51.9939 16.0035 52.5223 16.0129 52.9961 15.9066C54.1859 15.6361 55.1771 15.0123 55.4867 13.7646C55.6618 13.0548 55.5883 12.284 55.6321 11.4178L55.6305 11.4163Z" fill="#999999"/>
<path d="M49.0786 3.49437C48.7815 3.93214 48.522 4.31676 48.2593 4.69825C47.7262 5.47061 47.1962 6.24297 46.6505 7.00751C46.5801 7.10601 46.4457 7.18887 46.3269 7.21545C44.6524 7.58755 43.0654 8.16761 41.6161 9.09788C40.4888 9.82177 39.5445 10.7348 38.7706 11.8355C40.2465 10.2251 42.1102 9.30738 44.2052 8.74922C44.224 8.82896 44.249 8.88524 44.249 8.94153C44.249 10.0453 44.2349 11.1507 44.2521 12.2545C44.2568 12.5532 44.1349 12.6329 43.8691 12.6939C41.8475 13.1582 40.0245 14.0103 38.5345 15.4863C37.7309 16.2836 37.1524 17.2295 36.7427 18.2818C36.7083 18.3693 36.5739 18.4741 36.4832 18.4772C35.6374 18.4959 34.7915 18.4897 33.9441 18.5022C33.7502 18.5053 33.7237 18.4115 33.7268 18.2505C33.7565 16.1617 34.0754 14.1245 34.8603 12.1764C35.7202 10.0422 37.0101 8.20982 38.7659 6.71045C40.6311 5.11883 42.8153 4.21357 45.2012 3.73984C46.4582 3.49124 47.7262 3.44746 49.077 3.49281L49.0786 3.49437Z" fill="#999999"/>
<path d="M61.7912 6.76204C61.1329 6.76204 60.5075 6.75266 59.8821 6.76673C59.6304 6.77142 59.535 6.70263 59.5413 6.43528C59.5585 5.63321 59.546 4.83115 59.5476 4.02908C59.5476 3.97905 59.5616 3.93058 59.571 3.86335H61.8146C61.8146 3.58974 61.8146 3.33334 61.8146 3.07849C61.8146 2.4531 61.8271 1.82771 61.813 1.20232C61.8083 0.992809 61.8803 0.909946 62.0773 0.861478C62.9591 0.644154 63.8377 0.414321 64.7149 0.184489C64.8853 0.140712 65.0494 0.0750469 65.2699 0V3.8571C65.4278 3.8571 65.5294 3.8571 65.6295 3.8571C66.727 3.8571 67.8231 3.85397 68.9206 3.85554C69.0473 3.85554 69.213 3.80707 69.213 4.02752C69.213 4.92027 69.213 5.81458 69.213 6.74016H65.3074C65.3074 6.89338 65.3074 7.01376 65.3074 7.13415C65.3105 9.36367 65.3074 11.5948 65.3277 13.8243C65.3309 14.1917 65.42 14.5685 65.5279 14.9218C65.6858 15.4456 66.086 15.7083 66.6254 15.7552C67.2899 15.8146 67.9387 15.7317 68.5704 15.5206C68.6689 15.4878 68.7658 15.455 68.8862 15.4143C68.9144 15.4941 68.9534 15.5566 68.9566 15.6223C69.0082 16.4431 69.0613 17.2655 69.0942 18.0879C69.0973 18.1864 69.0019 18.3521 68.9159 18.3818C67.5776 18.8337 66.2064 19.04 64.8212 18.6726C63.1811 18.238 62.2962 17.081 62.0085 15.4612C61.8865 14.778 61.8334 14.076 61.824 13.3802C61.7958 11.2336 61.8037 9.08694 61.7958 6.94028C61.7958 6.89025 61.7912 6.83865 61.788 6.76361L61.7912 6.76204Z" fill="#999999"/>
<path d="M105.945 5.4754C105.989 5.39409 106.018 5.30342 106.076 5.23462C106.919 4.23556 107.956 3.61017 109.292 3.5148C110.512 3.42724 111.705 3.5273 112.909 3.91817C112.835 4.05107 112.777 4.16677 112.707 4.27621C112.214 5.03762 111.716 5.79435 111.229 6.55732C111.115 6.73712 111 6.78716 110.773 6.76683C109.524 6.65739 108.321 6.76683 107.368 7.71743C106.636 8.44757 106.305 9.36377 106.272 10.3691C106.223 11.8982 106.231 13.4304 106.223 14.961C106.219 16.0539 106.223 17.1483 106.237 18.2412C106.24 18.4335 106.168 18.482 106.007 18.482C104.974 18.4882 103.939 18.4976 102.906 18.4898C102.838 18.4898 102.727 18.3725 102.713 18.2944C102.682 18.1333 102.702 17.9629 102.702 17.7956C102.696 13.9307 102.694 10.0673 102.679 6.20242C102.676 5.49572 102.616 4.78747 102.587 4.08078C102.583 4.01042 102.593 3.94006 102.598 3.85094C103.162 3.85094 103.712 3.85094 104.261 3.85094C104.678 3.85094 105.098 3.86189 105.513 3.84938C105.732 3.84156 105.814 3.91817 105.809 4.13393C105.8 4.54982 105.806 4.96571 105.806 5.38159C105.851 5.4113 105.898 5.44256 105.943 5.47227L105.945 5.4754Z" fill="#999999"/>
</svg>
