<svg width="91" height="20" viewBox="0 0 91 20" fill="none" xmlns="http://www.w3.org/2000/svg">
<path fill-rule="evenodd" clip-rule="evenodd" d="M61.1118 9.23365C61.2587 9.18854 61.4378 9.16517 61.5847 9.16517H64.0121C64.9243 9.16517 66.3576 8.87031 66.6724 7.8544C66.7077 7.73919 66.7254 7.62076 66.7254 7.50072C66.7254 7.08743 66.4917 6.7265 66.1721 6.48078C65.6855 6.10616 65.0215 5.98854 64.4224 5.98854C62.6414 5.98854 61.3984 7.58692 61.1118 9.23365ZM35.418 9.94987C35.2237 10.0232 35.0174 10.0538 34.8102 10.0522L32.6502 10.0353C31.6063 10.0272 30.1802 10.5742 29.9192 11.7094C29.8952 11.8125 29.8831 11.918 29.8831 12.0236C29.8831 12.1533 29.9008 12.2814 29.9353 12.4063C30.2388 13.5043 31.6248 14.0119 32.6502 14.0119C33.6748 14.0119 35.0704 13.4931 35.3675 12.3942C35.4004 12.2733 35.4172 12.1485 35.4172 12.0236V9.94987H35.418ZM22.1014 5.98854V14.0304C22.3287 13.9499 22.5768 13.9273 22.8161 13.9273H23.5476C25.743 13.9273 27.6886 12.2379 27.6886 9.9837C27.6886 7.7263 25.7598 5.98934 23.5476 5.98934H22.1014V5.98854ZM85.3601 14.9666C83.6899 14.9666 82.6404 14.5557 81.6198 13.2522L81.5974 13.2232L82.369 12.6721L82.3899 12.6987C82.5987 12.9654 82.8203 13.2328 83.0877 13.4431C83.7261 13.945 84.5603 14.0119 85.3433 14.0119C86.5718 14.0119 87.9321 13.5277 87.9321 12.0921C87.9321 11.8625 87.8799 11.6457 87.757 11.4508C87.321 10.7587 86.0065 10.5001 85.2638 10.3237C83.8072 9.97887 81.8631 9.48501 81.8631 7.63688C81.8631 5.79277 83.4996 5.06769 85.1289 5.06769C86.5204 5.06769 87.5338 5.6695 88.405 6.74745L88.4283 6.77645L87.6566 7.32751L87.6358 7.30173C86.8994 6.38088 86.2297 5.97162 85.0574 5.97162C83.991 5.97162 82.8083 6.38975 82.8083 7.63688C82.8083 7.87937 82.8637 8.10656 82.9945 8.31119C83.4426 9.0121 84.7563 9.27635 85.5119 9.45601C86.9388 9.79599 88.8948 10.3124 88.8948 12.1259C88.894 14.1078 87.1299 14.9666 85.3601 14.9666ZM78.0771 5.32388C78.3043 5.24332 78.5525 5.22076 78.7918 5.22076H80.8795V6.14161H78.7918C78.473 6.14161 78.0771 6.26648 78.0771 6.65077V11.1905C78.0948 12.7172 79.2952 14.0465 80.8442 14.0465H80.8795V14.9674H80.8442C78.7741 14.9674 77.1143 13.2361 77.1143 11.1736V1.56396H78.0771V5.32388ZM75.7212 14.9666H74.7937V8.86064C74.7937 7.32348 73.5997 6.00546 72.0443 6.00546C70.4889 6.00546 69.2949 7.32429 69.2949 8.86064V14.9666H68.3321V8.86064C68.3321 6.8119 69.963 5.06688 72.0267 5.06688C74.0895 5.06688 75.7212 6.8119 75.7212 8.86064V14.9666ZM64.4224 14.9666C63.9688 14.9666 63.5199 14.8892 63.0927 14.7378C61.1134 14.0385 60.0679 12.0437 60.0679 10.0167C60.0679 7.57162 61.8336 5.06688 64.4224 5.06688C65.6422 5.06688 67.1012 5.5261 67.5629 6.78451C67.6472 7.01412 67.689 7.255 67.689 7.49992C67.689 7.76175 67.6416 8.01875 67.546 8.26286C67.0137 9.61714 65.3041 10.0691 63.9953 10.0691H61.5502C61.2282 10.0691 61.0676 10.2818 61.0676 10.5952C61.0676 11.6038 61.6554 12.6302 62.4118 13.2675C62.9787 13.746 63.6749 14.0457 64.4233 14.0457C65.5771 14.0457 66.3753 13.6526 67.0907 12.7325L67.1116 12.706L67.8833 13.257L67.86 13.286C66.9422 14.4518 65.9337 14.9666 64.4224 14.9666ZM52.1602 6.9835C52.8057 5.80566 54.0512 5.06688 55.3905 5.06688C57.4542 5.06688 59.1204 6.80707 59.1204 8.86064V14.9666H58.1576V8.86064C58.1576 7.32348 56.9636 6.00546 55.4082 6.00546C53.8536 6.00546 52.6588 7.32429 52.6588 8.86064V14.9666H51.696V8.86064C51.696 7.32348 50.502 6.00546 48.9466 6.00546C47.3921 6.00546 46.1972 7.32429 46.1972 8.86064V14.9666H45.2345V8.86064C45.2345 6.8119 46.8653 5.06688 48.929 5.06688C50.2611 5.06769 51.5186 5.81371 52.1602 6.9835ZM41.014 13.6703L44.3897 5.06769H45.3935L41.0911 15.9994C40.5531 17.3658 39.2563 18.4365 37.7563 18.4365H37.293V17.5495H37.7563C38.9897 17.5495 40.3267 16.4393 40.3267 15.1527C40.3267 14.6516 40.138 13.8459 39.9541 13.3803L36.6868 5.06769H37.6905L40.8229 13.0661C40.8936 13.253 40.9666 13.4665 41.014 13.6703ZM32.651 14.9666C31.2072 14.9666 29.4913 14.2125 29.0392 12.7261C28.9733 12.5094 28.9396 12.2846 28.9396 12.0574C28.9396 11.8568 28.9669 11.6578 29.0191 11.4637C29.4342 9.93939 31.1888 9.14825 32.651 9.14825H34.811C35.2053 9.14825 35.3827 8.93637 35.3827 8.53758V7.97605C35.3827 7.82459 35.3602 7.67474 35.3177 7.52973C35.0045 6.48078 33.7824 5.98773 32.777 5.98773C31.7235 5.98773 30.9334 6.48078 30.2878 7.30092L30.2669 7.32751L29.4953 6.77645L29.5186 6.74745C30.3601 5.684 31.4329 5.06769 32.7947 5.06769C34.208 5.06769 35.7922 5.83788 36.2379 7.2695C36.3094 7.49911 36.3463 7.73677 36.3463 7.97685V12.0582C36.3463 12.2862 36.3118 12.5118 36.2459 12.7293C35.793 14.2069 34.0891 14.9666 32.651 14.9666ZM21.1387 5.06769H23.5476C26.2199 5.06769 28.6698 7.20666 28.6698 9.94906C28.6698 12.6826 26.2119 14.8304 23.5476 14.8304H22.8161C22.3953 14.8304 22.1014 14.9223 22.1014 15.3734V18.4357H21.1387V5.06769Z" fill="#999999"/>
<path fill-rule="evenodd" clip-rule="evenodd" d="M2.10396 6.62888C2.10717 4.6744 3.82234 3.5312 5.49093 3.5312C7.15952 3.5312 8.86665 4.85244 8.86264 6.80692C8.85862 9.4317 8.89235 10.985 8.88833 13.6065C8.88432 15.93 10.2992 17.128 12.3138 17.0007C15.2142 16.8178 17.5179 14.2365 17.5228 11.0293L17.53 5.73945C17.5316 4.6172 16.5086 3.92676 15.5627 3.92676C14.6168 3.92676 13.5914 4.6172 13.589 5.73945L13.5777 13.6065C13.5761 14.7304 13.3609 15.6303 12.7531 16.3578C12.2167 16.9999 11.3631 16.6341 11.4049 16.0138C11.4217 15.7632 11.5406 15.6214 11.6923 15.4329C12.0601 14.9761 12.1573 14.5161 12.1581 13.6065L12.1693 5.62747C12.1725 3.67299 13.8877 2.52979 15.5563 2.52979C17.2249 2.52979 18.9392 3.78658 18.936 5.74106L18.9424 11.0293C18.9352 15.0365 15.9907 18.1616 12.4022 18.388C9.6343 18.5628 7.46304 16.8218 7.46867 13.6065C7.47348 11.022 7.45903 9.32858 7.46385 6.74086C7.46626 5.61861 6.44246 4.92817 5.49655 4.92817C4.55064 4.92817 3.52524 5.61861 3.52283 6.74086C3.52042 8.46654 3.53567 9.30038 3.53246 11.0293C3.53005 12.4512 4.01505 13.7725 4.85256 14.8512C5.60897 15.8253 6.78613 16.4182 7.87899 16.8661C8.30537 17.041 8.65065 17.5107 8.42662 17.9489C8.29654 18.2035 8.01148 18.3864 7.4237 18.1882C6.15258 17.7604 4.67028 16.9088 3.72598 15.6931C2.70459 14.3783 2.10958 12.763 2.1128 11.0293C2.11601 9.26332 2.10075 8.39242 2.10396 6.62888Z" fill="#999999"/>
</svg>
