<svg width="95" height="20" viewBox="0 0 95 20" fill="none" xmlns="http://www.w3.org/2000/svg">
<path d="M11.3156 16.1238C11.0189 16.2251 10.7025 16.2814 10.3719 16.2814C9.34065 16.2814 8.84339 15.7413 8.39133 14.9311C8.24158 14.6752 8.15965 14.1126 8.15965 14.1126V9.67095H11.9739L11.7733 7.89879C11.6744 7.02678 10.9313 6.36574 10.0498 6.36574H8.16247V0.87207C8.16247 0.87207 7.02103 0.94802 6.6396 0.976149C4.68728 1.12805 3.36783 2.422 3.36783 3.93536L3.37631 6.48951L0 6.61328V7.89035C0 8.87207 0.799578 9.66813 1.7828 9.66813H3.37348V14.2167L3.39609 14.8805C3.41021 17.7131 5.71853 20.0001 8.5665 20.0001C9.57798 20.0001 10.5217 19.7103 11.3184 19.2096V16.1238H11.3156Z" fill="#999999"/>
<path d="M43.2366 16.6158C43.7197 16.3936 44.0898 16.1011 44.3413 15.7438V14.6186C43.57 14.1011 42.6885 13.8423 41.7024 13.8423C41.0723 13.8423 40.5892 13.9773 40.2473 14.2445C39.9055 14.5118 39.7359 14.9056 39.7359 15.4231C39.7359 15.907 39.9026 16.2811 40.2332 16.5483C40.5666 16.8155 41.0441 16.9506 41.6741 16.9506C42.2307 16.9506 42.7506 16.8409 43.2366 16.6158ZM36.354 18.6805C35.3566 17.9042 34.8594 16.8184 34.8594 15.4231C34.8594 13.9745 35.3397 12.8634 36.3003 12.0842C37.2609 11.3078 38.6397 10.9168 40.4338 10.9168C41.1345 10.9168 41.8352 10.9928 42.5359 11.1447C43.2366 11.2966 43.8384 11.4991 44.3413 11.7466V11.4794C44.3413 10.1039 43.2111 9.41471 40.948 9.41471C39.3687 9.41471 38.3996 9.51316 37.0886 10.1208C37.0886 10.1208 36.9106 8.81836 36.8682 8.37954C36.7721 7.40064 37.5463 6.66928 38.846 6.43299C38.8544 6.43018 38.8657 6.43018 38.8742 6.42736C39.8066 6.25859 40.7757 6.17139 41.7815 6.17139C44.1887 6.17139 46.0054 6.64959 47.2373 7.60599C48.4663 8.56239 49.0823 9.89853 49.0823 11.6144V17.4991C49.0823 19.0772 48.5285 19.4428 47.2175 19.4428H44.7623L44.638 18.343C44.1548 18.8071 43.5417 19.1728 42.8071 19.4428C42.0697 19.7101 41.2277 19.8451 40.2756 19.8451C38.6567 19.8479 37.3513 19.4597 36.354 18.6805Z" fill="#999999"/>
<path d="M76.808 16.6158C77.2911 16.3936 77.6612 16.1011 77.9127 15.7438V14.6186C77.1414 14.1011 76.2598 13.8423 75.2738 13.8423C74.6437 13.8423 74.1606 13.9773 73.8187 14.2445C73.4769 14.5118 73.3073 14.9056 73.3073 15.4231C73.3073 15.907 73.474 16.2811 73.8046 16.5483C74.138 16.8155 74.6155 16.9506 75.2455 16.9506C75.8021 16.9506 76.3248 16.8409 76.808 16.6158ZM69.9282 18.6805C68.9309 17.9042 68.4336 16.8184 68.4336 15.4231C68.4336 13.9745 68.9139 12.8634 69.8745 12.0842C70.8352 11.3078 72.2139 10.9168 74.008 10.9168C74.7087 10.9168 75.4094 10.9928 76.1101 11.1447C76.8108 11.2966 77.4126 11.4991 77.9155 11.7466V11.4794C77.9155 10.1039 76.7854 9.41471 74.5222 9.41471C72.9429 9.41471 71.9738 9.51316 70.6628 10.1208C70.6628 10.1208 70.4848 8.81836 70.4424 8.37954C70.3464 7.40064 71.1205 6.66928 72.4202 6.43299C72.4287 6.43018 72.4371 6.43018 72.4484 6.42736C73.3808 6.25859 74.3499 6.17139 75.3557 6.17139C77.7629 6.17139 79.5796 6.64959 80.8115 7.60599C82.0405 8.56239 82.6565 9.89853 82.6565 11.6144V17.4991C82.6565 19.0772 82.1027 19.4428 80.7917 19.4428H78.3365L78.2122 18.343C77.729 18.8071 77.1159 19.1728 76.3813 19.4428C75.6439 19.7101 74.802 19.8451 73.8498 19.8451C72.2309 19.8479 70.9227 19.4597 69.9282 18.6805Z" fill="#999999"/>
<path d="M20.7815 16.6158C21.2646 16.3936 21.6348 16.1011 21.8862 15.7438V14.6186C21.1149 14.1011 20.2334 13.8423 19.2473 13.8423C18.6173 13.8423 18.1341 13.9773 17.7923 14.2445C17.4504 14.5118 17.2809 14.9056 17.2809 15.4231C17.2809 15.907 17.4476 16.2811 17.7781 16.5483C18.1115 16.8155 18.589 16.9506 19.2191 16.9506C19.7757 16.9506 20.2955 16.8409 20.7815 16.6158ZM13.8989 18.6805C12.9016 17.9042 12.4043 16.8184 12.4043 15.4231C12.4043 13.9745 12.8846 12.8634 13.8452 12.0842C14.8059 11.3078 16.1846 10.9168 17.9787 10.9168C18.6794 10.9168 19.3801 10.9928 20.0808 11.1447C20.7815 11.2966 21.3833 11.4991 21.8862 11.7466V11.4794C21.8862 10.1039 20.7561 9.41471 18.493 9.41471C16.9136 9.41471 15.9473 9.51316 14.6363 10.1208C14.6363 10.1208 14.4583 8.81836 14.416 8.37954C14.3199 7.40064 15.094 6.66928 16.3937 6.43299C16.4022 6.43018 16.4135 6.43018 16.422 6.42736C17.3543 6.25859 18.3234 6.17139 19.3293 6.17139C21.7365 6.17139 23.5532 6.64959 24.785 7.60599C26.0141 8.56239 26.63 9.89853 26.63 11.6144V17.4991C26.63 19.0772 26.0762 19.4428 24.7653 19.4428H22.31L22.1857 18.343C21.6997 18.8071 21.0895 19.1728 20.3549 19.4428C19.6174 19.7101 18.7755 19.8451 17.8233 19.8451C16.2016 19.8479 14.8963 19.4597 13.8989 18.6805Z" fill="#999999"/>
<path d="M33.2206 19.4459L33.2177 0C33.2177 0 32.0904 0.0731361 31.7146 0.104078C29.7877 0.255977 28.4852 1.53587 28.4852 3.03516L28.4824 19.4487H33.2206V19.4459Z" fill="#999999"/>
<path d="M61.2461 15.3558C60.6528 15.9184 59.873 16.1997 58.9039 16.1997C58.1862 16.1997 57.5392 16.0169 56.9657 15.6512C56.3893 15.2855 55.9768 14.7876 55.7253 14.1632V11.8847C55.9768 11.2602 56.3893 10.7623 56.9657 10.3966C57.5392 10.0309 58.1862 9.8481 58.9039 9.8481C59.873 9.8481 60.6556 10.135 61.2461 10.706C61.8366 11.2771 62.1361 12.0563 62.1361 13.038C62.1361 14.0197 61.8394 14.7933 61.2461 15.3558ZM66.1481 9.4571C65.5717 8.41069 64.7693 7.60338 63.7381 7.02954C62.7068 6.45851 61.506 6.17159 60.1414 6.17159C59.2796 6.17159 58.4575 6.30099 57.6777 6.55978C56.8979 6.81857 56.2452 7.173 55.7253 7.62025L55.7338 0C55.7338 0 54.6037 0.0731361 54.2251 0.104078C52.2925 0.255977 50.9844 1.53587 50.9844 3.03516V19.4487H55.44L55.5643 18.1603C56.7679 19.2855 58.2936 19.8481 60.1442 19.8481C61.4919 19.8481 62.6842 19.5668 63.7268 19.0042C64.7665 18.4416 65.5745 17.6456 66.1509 16.6188C66.7245 15.5921 67.0127 14.3966 67.0127 13.038C67.0098 11.6962 66.7216 10.5035 66.1481 9.4571Z" fill="#999999"/>
<path d="M94.341 16.1238C94.0443 16.2251 93.7279 16.2814 93.3973 16.2814C92.366 16.2814 91.8688 15.7413 91.4167 14.9311C91.267 14.6752 91.185 14.1126 91.185 14.1126V9.67095H94.9993L94.7987 7.89879C94.6998 7.02678 93.9567 6.36574 93.0752 6.36574H91.1879V0.87207C91.1879 0.87207 90.0464 0.94802 89.665 0.976149C87.7127 1.12805 86.3932 2.422 86.3932 3.93536L86.4017 6.48951L83.0254 6.61328V7.89035C83.0254 8.87207 83.825 9.66813 84.8082 9.66813H86.3989V14.2167L86.4215 14.8805C86.4384 17.7103 88.7468 19.9972 91.5919 19.9972C92.6034 19.9972 93.5442 19.7075 94.341 19.2068V16.1238Z" fill="#999999"/>
</svg>
