<svg width="63" height="24" viewBox="0 0 63 24" fill="none" xmlns="http://www.w3.org/2000/svg">
<path d="M12.0213 0C5.37123 0 0 5.37123 0 11.9787C0 18.5861 5.37123 24 12.0213 24C18.6714 24 24.0426 18.6288 24.0426 11.9787C24.0426 5.3286 18.6714 0 12.0213 0ZM12.0213 22.2522C6.35169 22.2522 1.74778 17.6483 1.74778 11.9787C1.74778 6.30906 6.35169 1.74778 12.0213 1.74778C17.6909 1.74778 22.2948 6.35169 22.2948 12.0213C22.2948 17.6483 17.6909 22.2522 12.0213 22.2522Z" fill="#999999"/>
<path d="M12.0221 3.28223C7.20505 3.28223 3.2832 7.16145 3.2832 11.9785C3.2832 16.7955 7.20505 20.7174 12.0221 20.7174C16.8392 20.7174 20.761 16.7955 20.761 11.9785C20.761 7.16145 16.8392 3.28223 12.0221 3.28223ZM12.0221 18.7991C8.27077 18.7991 5.2015 15.7298 5.2015 11.9785C5.2015 8.22716 8.27077 5.15789 12.0221 5.15789C15.7734 5.15789 18.8427 8.22716 18.8427 11.9785C18.8427 15.7725 15.7734 18.7991 12.0221 18.7991Z" fill="#999999"/>
<path d="M34.043 3H34.7323V5.91064H39.2515V6.5234H34.7323V12.1915C34.7323 14.6425 35.4983 15.8681 37.4898 15.8681C38.1792 15.8681 38.7919 15.5617 39.1749 15.3319L39.4813 15.8681C39.0217 16.1744 38.2558 16.5574 37.4132 16.5574C35.1153 16.5574 34.1196 15.1021 34.1196 12.4213V3H34.043Z" fill="#999999"/>
<path d="M42.1613 6.59981C43.1571 5.98705 44.1528 5.68066 45.3784 5.68066C48.2124 5.68066 49.1316 7.21258 49.1316 9.81683V16.3275H48.4422V14.4892C47.7529 15.4083 46.6039 16.404 44.5358 16.404C42.5443 16.404 41.2422 15.1785 41.2422 13.4168C41.2422 11.3487 42.9273 10.1998 45.2252 10.1998C46.0677 10.1998 47.4465 10.353 48.3656 11.0424C48.3656 8.13172 48.2124 6.21684 45.1486 6.21684C43.9231 6.21684 43.2337 6.52322 42.2379 7.13598L42.1613 6.59981ZM48.5188 13.8764V11.8083C47.5997 11.1955 46.6039 10.8892 45.3784 10.8892C43.7699 10.8892 42.0847 11.6551 42.0847 13.4934C42.0847 15.0253 43.3103 15.9445 44.7656 15.9445C46.9103 15.8679 47.8295 14.7955 48.5188 13.8764Z" fill="#999999"/>
<path d="M52.8848 5.91045H53.5741V7.44237C54.4167 6.44662 56.0252 5.68066 57.6337 5.68066C60.7742 5.68066 62.6125 7.90194 62.6125 10.9658C62.6125 14.1828 60.4678 16.5572 57.2507 16.5572C55.7954 16.5572 54.4933 16.2509 53.5741 15.4849V20.9998H52.8848V5.91045ZM53.5741 8.05513V14.7955C54.7997 15.6381 56.0252 15.9445 57.2507 15.9445C60.0082 15.9445 61.9231 13.953 61.9231 11.0424C61.9231 8.20832 60.3146 6.29343 57.4805 6.29343C55.7954 6.29343 54.2635 7.21257 53.5741 8.05513Z" fill="#999999"/>
</svg>
