<svg width="566" height="360" viewBox="0 0 566 360" fill="none" xmlns="http://www.w3.org/2000/svg">
<rect width="566" height="360" rx="16" fill="black" fill-opacity="0.04"/>
<g filter="url(#filter0_d_2200_2728)">
<g clipPath="url(#clip0_2200_2728)">
<rect x="91" y="59.8989" width="383" height="241" rx="12" fill="white"/>
<path d="M111.93 89.8989V79.7134H115.703C116.792 79.7134 117.656 79.9982 118.294 80.5679C118.932 81.1375 119.251 81.91 119.251 82.8853C119.251 83.5369 119.103 84.1021 118.807 84.5806C118.51 85.0545 118.093 85.4214 117.556 85.6812C117.018 85.9364 116.384 86.064 115.655 86.064H113.447V89.8989H111.93ZM113.447 84.7515H115.628C116.284 84.7515 116.801 84.5851 117.18 84.2524C117.562 83.9152 117.754 83.4595 117.754 82.8853C117.754 82.311 117.562 81.8599 117.18 81.5317C116.801 81.1991 116.284 81.0327 115.628 81.0327H113.447V84.7515ZM124.891 90.063C123.988 90.063 123.184 89.842 122.478 89.3999C121.771 88.9578 121.215 88.3426 120.81 87.5542C120.409 86.7658 120.208 85.8521 120.208 84.813C120.208 83.7694 120.409 82.8534 120.81 82.0649C121.215 81.272 121.771 80.6545 122.478 80.2124C123.184 79.7703 123.988 79.5493 124.891 79.5493C125.798 79.5493 126.604 79.7703 127.311 80.2124C128.017 80.6545 128.571 81.272 128.972 82.0649C129.377 82.8534 129.58 83.7694 129.58 84.813C129.58 85.8521 129.377 86.7658 128.972 87.5542C128.571 88.3426 128.017 88.9578 127.311 89.3999C126.604 89.842 125.798 90.063 124.891 90.063ZM124.891 88.6753C125.479 88.6753 126.012 88.5272 126.49 88.231C126.969 87.9302 127.349 87.4927 127.632 86.9185C127.914 86.3397 128.056 85.6379 128.056 84.813C128.056 83.9836 127.914 83.2795 127.632 82.7007C127.349 82.1219 126.969 81.6844 126.49 81.3882C126.012 81.0874 125.479 80.937 124.891 80.937C124.307 80.937 123.776 81.0874 123.298 81.3882C122.819 81.6844 122.439 82.1219 122.156 82.7007C121.874 83.2795 121.732 83.9836 121.732 84.813C121.732 85.6379 121.874 86.3397 122.156 86.9185C122.439 87.4927 122.819 87.9302 123.298 88.231C123.776 88.5272 124.307 88.6753 124.891 88.6753ZM135.438 84.1704V85.4419H130.92V84.1704H135.438ZM136.368 89.8989V88.6958L140.032 85.4282C140.42 85.0773 140.743 84.7629 141.003 84.4849C141.263 84.2023 141.456 83.9243 141.584 83.6509C141.716 83.3774 141.782 83.0698 141.782 82.728C141.782 82.1493 141.609 81.6912 141.263 81.354C140.916 81.0122 140.445 80.8413 139.848 80.8413C139.201 80.8413 138.697 81.0418 138.337 81.4429C137.977 81.8439 137.797 82.3885 137.797 83.0767H136.382C136.382 82.3794 136.523 81.7664 136.806 81.2378C137.093 80.7091 137.494 80.2967 138.009 80.0005C138.528 79.6997 139.139 79.5493 139.841 79.5493C140.497 79.5493 141.078 79.6815 141.584 79.9458C142.09 80.2056 142.486 80.5701 142.773 81.0396C143.065 81.5044 143.211 82.0444 143.211 82.6597C143.211 83.3387 143.024 83.9517 142.65 84.4985C142.277 85.0409 141.723 85.6401 140.989 86.2964L138.433 88.5933V88.6069H143.266V89.8989H136.368ZM148.222 90.063C147.433 90.063 146.752 89.8488 146.178 89.4204C145.608 88.992 145.168 88.3859 144.858 87.6021C144.549 86.8136 144.394 85.884 144.394 84.813C144.394 83.7375 144.549 82.8055 144.858 82.0171C145.168 81.2287 145.608 80.6203 146.178 80.1919C146.752 79.7635 147.433 79.5493 148.222 79.5493C149.006 79.5493 149.682 79.7635 150.252 80.1919C150.826 80.6203 151.268 81.2287 151.578 82.0171C151.888 82.8055 152.043 83.7375 152.043 84.813C152.043 85.884 151.888 86.8136 151.578 87.6021C151.268 88.3859 150.826 88.992 150.252 89.4204C149.682 89.8488 149.006 90.063 148.222 90.063ZM148.222 88.771C148.96 88.771 149.541 88.4201 149.965 87.7183C150.393 87.0119 150.607 86.0435 150.607 84.813C150.607 83.578 150.393 82.6073 149.965 81.9009C149.541 81.1945 148.96 80.8413 148.222 80.8413C147.479 80.8413 146.893 81.1945 146.465 81.9009C146.041 82.6073 145.829 83.578 145.829 84.813C145.829 86.0435 146.041 87.0119 146.465 87.7183C146.893 88.4201 147.479 88.771 148.222 88.771ZM153.171 89.8989V88.6958L156.835 85.4282C157.222 85.0773 157.546 84.7629 157.806 84.4849C158.065 84.2023 158.259 83.9243 158.387 83.6509C158.519 83.3774 158.585 83.0698 158.585 82.728C158.585 82.1493 158.412 81.6912 158.065 81.354C157.719 81.0122 157.247 80.8413 156.65 80.8413C156.003 80.8413 155.5 81.0418 155.14 81.4429C154.78 81.8439 154.6 82.3885 154.6 83.0767H153.185C153.185 82.3794 153.326 81.7664 153.608 81.2378C153.896 80.7091 154.297 80.2967 154.812 80.0005C155.331 79.6997 155.942 79.5493 156.644 79.5493C157.3 79.5493 157.881 79.6815 158.387 79.9458C158.893 80.2056 159.289 80.5701 159.576 81.0396C159.868 81.5044 160.014 82.0444 160.014 82.6597C160.014 83.3387 159.827 83.9517 159.453 84.4985C159.079 85.0409 158.526 85.6401 157.792 86.2964L155.235 88.5933V88.6069H160.068V89.8989H153.171ZM164.895 90.063C163.719 90.063 162.807 89.6369 162.16 88.7847C161.518 87.9325 161.196 86.7316 161.196 85.1821C161.196 84.0474 161.335 83.0584 161.613 82.2153C161.891 81.3722 162.313 80.7183 162.878 80.2534C163.448 79.784 164.165 79.5493 165.031 79.5493C165.651 79.5493 166.196 79.6678 166.665 79.9048C167.139 80.1372 167.52 80.4631 167.807 80.8823C168.094 81.3016 168.267 81.7847 168.326 82.3315H166.87C166.784 81.8713 166.585 81.5044 166.275 81.231C165.97 80.9575 165.569 80.8208 165.072 80.8208C164.521 80.8208 164.063 80.978 163.698 81.2925C163.338 81.6069 163.069 82.0399 162.892 82.5913C162.714 83.1427 162.625 83.7785 162.625 84.4985H162.639C162.876 84.1066 163.217 83.799 163.664 83.5757C164.115 83.3478 164.612 83.2339 165.154 83.2339C165.779 83.2339 166.337 83.382 166.829 83.6782C167.321 83.9699 167.709 84.3709 167.991 84.8813C168.278 85.3918 168.422 85.9705 168.422 86.6177C168.422 87.2967 168.271 87.896 167.971 88.4155C167.67 88.9305 167.253 89.3338 166.72 89.6255C166.191 89.9172 165.583 90.063 164.895 90.063ZM164.888 88.7847C165.275 88.7847 165.624 88.689 165.934 88.4976C166.248 88.3016 166.496 88.0418 166.679 87.7183C166.866 87.3901 166.959 87.0233 166.959 86.6177C166.959 86.2166 166.87 85.8566 166.692 85.5376C166.515 85.214 166.271 84.9588 165.961 84.772C165.656 84.5806 165.309 84.4849 164.922 84.4849C164.535 84.4849 164.181 84.5806 163.862 84.772C163.548 84.9634 163.297 85.2209 163.11 85.5444C162.924 85.868 162.83 86.2303 162.83 86.6313C162.83 87.0278 162.921 87.3901 163.104 87.7183C163.29 88.0418 163.539 88.3016 163.849 88.4976C164.163 88.689 164.509 88.7847 164.888 88.7847ZM174.28 84.1704V85.4419H169.762V84.1704H174.28ZM179.339 79.7134V89.8989H177.869V81.2036H177.862L175.374 82.8306V81.3813L177.91 79.7134H179.339ZM184.657 90.063C183.869 90.063 183.188 89.8488 182.613 89.4204C182.044 88.992 181.604 88.3859 181.294 87.6021C180.984 86.8136 180.829 85.884 180.829 84.813C180.829 83.7375 180.984 82.8055 181.294 82.0171C181.604 81.2287 182.044 80.6203 182.613 80.1919C183.188 79.7635 183.869 79.5493 184.657 79.5493C185.441 79.5493 186.118 79.7635 186.688 80.1919C187.262 80.6203 187.704 81.2287 188.014 82.0171C188.324 82.8055 188.479 83.7375 188.479 84.813C188.479 85.884 188.324 86.8136 188.014 87.6021C187.704 88.3859 187.262 88.992 186.688 89.4204C186.118 89.8488 185.441 90.063 184.657 90.063ZM184.657 88.771C185.396 88.771 185.977 88.4201 186.4 87.7183C186.829 87.0119 187.043 86.0435 187.043 84.813C187.043 83.578 186.829 82.6073 186.4 81.9009C185.977 81.1945 185.396 80.8413 184.657 80.8413C183.914 80.8413 183.329 81.1945 182.9 81.9009C182.477 82.6073 182.265 83.578 182.265 84.813C182.265 86.0435 182.477 87.0119 182.9 87.7183C183.329 88.4201 183.914 88.771 184.657 88.771ZM189.408 87.5269V86.3101L194.152 79.7134H196.012V86.2554H197.495V87.5269H196.012V89.8989H194.569V87.5269H189.408ZM194.569 86.2554V81.3062H194.556L191.015 86.2417V86.2554H194.569Z" fill="black"/>
<rect x="381" y="71.8989" width="73" height="25" rx="12.5" fill="#FFEDD5"/>
<g clipPath="url(#clip1_2200_2728)">
<path d="M399 79.8989V81.3989" stroke="#EA580C" stroke-width="1.5" stroke-linecap="round" stroke-linejoin="round"/>
<path d="M402.182 81.2173L401.121 82.2781" stroke="#EA580C" stroke-width="1.5" stroke-linecap="round" stroke-linejoin="round"/>
<path d="M403.5 84.3989H402" stroke="#EA580C" stroke-width="1.5" stroke-linecap="round" stroke-linejoin="round"/>
<path d="M402.182 87.5808L401.121 86.52" stroke="#EA580C" stroke-width="1.5" stroke-linecap="round" stroke-linejoin="round"/>
<path d="M399 88.8989V87.3989" stroke="#EA580C" stroke-width="1.5" stroke-linecap="round" stroke-linejoin="round"/>
<path d="M395.818 87.5808L396.879 86.52" stroke="#EA580C" stroke-width="1.5" stroke-linecap="round" stroke-linejoin="round"/>
<path d="M394.5 84.3989H396" stroke="#EA580C" stroke-width="1.5" stroke-linecap="round" stroke-linejoin="round"/>
<path d="M395.818 81.2173L396.879 82.2781" stroke="#EA580C" stroke-width="1.5" stroke-linecap="round" stroke-linejoin="round"/>
</g>
<path d="M415.832 89.8989H412.537V79.7134H415.935C416.933 79.7134 417.792 79.9185 418.512 80.3286C419.236 80.7388 419.792 81.3244 420.18 82.0854C420.567 82.842 420.761 83.7443 420.761 84.7925C420.761 85.8452 420.565 86.7544 420.173 87.52C419.785 88.2811 419.223 88.869 418.484 89.2837C417.751 89.6938 416.867 89.8989 415.832 89.8989ZM414.055 88.5796H415.736C416.926 88.5796 417.805 88.2446 418.375 87.5747C418.949 86.9048 419.236 85.9774 419.236 84.7925C419.236 83.6121 418.954 82.6916 418.389 82.0308C417.824 81.3654 416.974 81.0327 415.839 81.0327H414.055V88.5796ZM422.128 89.8989V82.6802H423.509V83.8491H423.536C423.668 83.4526 423.876 83.145 424.158 82.9263C424.445 82.703 424.819 82.5913 425.279 82.5913C425.389 82.5913 425.489 82.5959 425.58 82.605C425.671 82.6141 425.746 82.6209 425.806 82.6255V83.9722C425.751 83.9585 425.653 83.9448 425.512 83.9312C425.37 83.9129 425.215 83.9038 425.047 83.9038C424.641 83.9038 424.293 84.0451 424.001 84.3276C423.714 84.6102 423.57 85.0454 423.57 85.6333V89.8989H422.128ZM428.909 90.0151C428.189 90.0151 427.592 89.8328 427.118 89.4683C426.644 89.0991 426.407 88.5545 426.407 87.8345C426.407 87.2876 426.542 86.8683 426.811 86.5767C427.084 86.2804 427.437 86.0685 427.87 85.9409C428.308 85.8133 428.77 85.7199 429.258 85.6606C429.709 85.606 430.067 85.5604 430.331 85.5239C430.595 85.4875 430.782 85.4328 430.892 85.3599C431.006 85.2869 431.062 85.1616 431.062 84.9839V84.9224C431.062 84.5715 430.935 84.2843 430.68 84.061C430.424 83.8332 430.067 83.7192 429.606 83.7192C429.146 83.7192 428.77 83.8309 428.479 84.0542C428.187 84.2729 428.027 84.5487 428 84.8813H426.585C426.617 84.1932 426.906 83.6304 427.453 83.1929C428 82.7554 428.725 82.5366 429.627 82.5366C430.516 82.5366 431.215 82.7554 431.726 83.1929C432.236 83.6304 432.491 84.216 432.491 84.9497V89.8989H431.069V88.8735H431.042C430.892 89.1652 430.652 89.4295 430.324 89.6665C430.001 89.8989 429.529 90.0151 428.909 90.0151ZM429.203 88.853C429.841 88.853 430.311 88.689 430.611 88.3608C430.917 88.0282 431.069 87.6408 431.069 87.1987V86.3511C430.974 86.4285 430.757 86.4992 430.42 86.563C430.083 86.6222 429.723 86.6792 429.34 86.7339C428.943 86.7931 428.595 86.9048 428.294 87.0688C427.993 87.2329 427.843 87.4972 427.843 87.8618C427.843 88.1717 427.964 88.4155 428.205 88.5933C428.451 88.7664 428.784 88.853 429.203 88.853ZM437.618 82.6802V83.8696H436.148V89.8989H434.706V83.8696H433.414V82.6802H434.706V81.5112C434.706 80.9416 434.884 80.4995 435.239 80.1851C435.599 79.8706 436.105 79.7134 436.757 79.7134H437.618V80.9028H436.982C436.677 80.9028 436.461 80.9666 436.333 81.0942C436.21 81.2218 436.148 81.4383 436.148 81.7437V82.6802H437.618ZM441.672 82.6802V83.8696H440.209V87.9917C440.209 88.2606 440.264 88.4474 440.373 88.5522C440.482 88.6571 440.681 88.7095 440.968 88.7095H441.672V89.8989H440.763C439.427 89.8989 438.76 89.3247 438.76 88.1763V83.8696H437.488V82.6802H438.76V80.7114H440.209V82.6802H441.672Z" fill="#EA580C"/>
<path d="M103 108.899H462" stroke="#E5E5E5"/>
<path d="M107.457 135.063C106.236 135.063 105.272 134.755 104.565 134.14C103.864 133.52 103.513 132.673 103.513 131.597H105.03C105.035 132.267 105.249 132.791 105.673 133.169C106.101 133.548 106.696 133.737 107.457 133.737C108.15 133.737 108.703 133.591 109.118 133.299C109.537 133.003 109.747 132.607 109.747 132.11C109.747 131.718 109.597 131.401 109.296 131.16C109 130.914 108.498 130.706 107.792 130.538L106.678 130.271C105.648 130.025 104.896 129.683 104.422 129.246C103.952 128.804 103.718 128.229 103.718 127.523C103.718 126.926 103.868 126.404 104.169 125.958C104.47 125.511 104.891 125.165 105.434 124.918C105.98 124.672 106.618 124.549 107.348 124.549C108.446 124.549 109.319 124.836 109.966 125.411C110.618 125.985 110.959 126.769 110.991 127.762H109.521C109.485 127.174 109.271 126.714 108.879 126.381C108.487 126.044 107.97 125.875 107.327 125.875C106.712 125.875 106.208 126.024 105.816 126.32C105.424 126.611 105.229 126.987 105.229 127.448C105.229 127.817 105.379 128.118 105.68 128.35C105.98 128.578 106.479 128.776 107.177 128.945L108.277 129.205C109.298 129.446 110.05 129.795 110.533 130.25C111.021 130.706 111.265 131.299 111.265 132.028C111.265 132.639 111.107 133.172 110.793 133.627C110.479 134.083 110.036 134.436 109.467 134.687C108.897 134.938 108.227 135.063 107.457 135.063ZM115.202 135.042C114.71 135.042 114.266 134.935 113.869 134.721C113.477 134.502 113.165 134.181 112.933 133.757C112.705 133.333 112.591 132.807 112.591 132.178V127.68H114.033V132C114.033 132.579 114.172 133.017 114.45 133.313C114.728 133.605 115.118 133.75 115.619 133.75C116.107 133.75 116.517 133.6 116.85 133.299C117.187 132.994 117.355 132.506 117.355 131.836V127.68H118.798V134.899H117.383V133.812C116.891 134.632 116.164 135.042 115.202 135.042ZM120.425 137.756V127.68H121.84V128.719H121.86C122.088 128.323 122.4 128.027 122.797 127.831C123.193 127.635 123.626 127.537 124.096 127.537C124.715 127.537 125.26 127.696 125.729 128.015C126.199 128.33 126.563 128.769 126.823 129.334C127.088 129.895 127.22 130.547 127.22 131.29C127.22 132.032 127.09 132.686 126.83 133.251C126.57 133.812 126.206 134.252 125.736 134.571C125.267 134.885 124.718 135.042 124.089 135.042C123.619 135.042 123.196 134.94 122.817 134.735C122.439 134.53 122.129 134.222 121.888 133.812H121.867V137.756H120.425ZM123.795 133.798C124.378 133.798 124.85 133.584 125.21 133.156C125.575 132.727 125.757 132.105 125.757 131.29C125.757 130.474 125.575 129.852 125.21 129.423C124.85 128.99 124.378 128.774 123.795 128.774C123.18 128.774 122.688 129.004 122.318 129.464C121.954 129.92 121.771 130.528 121.771 131.29C121.771 132.046 121.954 132.654 122.318 133.115C122.688 133.57 123.18 133.798 123.795 133.798ZM128.491 137.756V127.68H129.906V128.719H129.927C130.155 128.323 130.467 128.027 130.863 127.831C131.26 127.635 131.693 127.537 132.162 127.537C132.782 127.537 133.326 127.696 133.796 128.015C134.265 128.33 134.63 128.769 134.89 129.334C135.154 129.895 135.286 130.547 135.286 131.29C135.286 132.032 135.156 132.686 134.896 133.251C134.637 133.812 134.272 134.252 133.803 134.571C133.333 134.885 132.784 135.042 132.155 135.042C131.686 135.042 131.262 134.94 130.884 134.735C130.506 134.53 130.196 134.222 129.954 133.812H129.934V137.756H128.491ZM131.861 133.798C132.445 133.798 132.916 133.584 133.276 133.156C133.641 132.727 133.823 132.105 133.823 131.29C133.823 130.474 133.641 129.852 133.276 129.423C132.916 128.99 132.445 128.774 131.861 128.774C131.246 128.774 130.754 129.004 130.385 129.464C130.02 129.92 129.838 130.528 129.838 131.29C129.838 132.046 130.02 132.654 130.385 133.115C130.754 133.57 131.246 133.798 131.861 133.798ZM138 124.713V134.899H136.558V124.713H138ZM139.634 134.899V127.68H141.076V134.899H139.634ZM140.352 126.436C140.096 126.436 139.88 126.352 139.702 126.183C139.529 126.01 139.442 125.8 139.442 125.554C139.442 125.304 139.529 125.094 139.702 124.925C139.88 124.752 140.096 124.666 140.352 124.666C140.607 124.666 140.823 124.752 141.001 124.925C141.179 125.094 141.268 125.304 141.268 125.554C141.268 125.8 141.179 126.01 141.001 126.183C140.823 126.352 140.607 126.436 140.352 126.436ZM145.793 135.063C145.077 135.063 144.462 134.901 143.947 134.578C143.437 134.254 143.043 133.81 142.765 133.245C142.491 132.675 142.354 132.028 142.354 131.303C142.354 130.569 142.498 129.918 142.785 129.348C143.072 128.778 143.469 128.332 143.975 128.008C144.48 127.68 145.062 127.516 145.718 127.516C146.401 127.516 146.994 127.676 147.495 127.995C148.001 128.314 148.393 128.758 148.671 129.328C148.949 129.893 149.088 130.547 149.088 131.29V131.679H143.776C143.804 132.331 143.991 132.857 144.337 133.258C144.688 133.659 145.18 133.86 145.813 133.86C146.287 133.86 146.677 133.753 146.982 133.539C147.288 133.324 147.491 133.046 147.591 132.705H148.979C148.892 133.169 148.698 133.58 148.397 133.935C148.101 134.291 147.728 134.569 147.276 134.769C146.83 134.965 146.335 135.063 145.793 135.063ZM143.79 130.585H147.68C147.62 130.011 147.418 129.558 147.071 129.225C146.725 128.888 146.278 128.719 145.731 128.719C145.185 128.719 144.738 128.888 144.392 129.225C144.05 129.558 143.849 130.011 143.79 130.585ZM150.339 134.899V127.68H151.72V128.849H151.747C151.879 128.453 152.087 128.145 152.369 127.926C152.656 127.703 153.03 127.591 153.49 127.591C153.6 127.591 153.7 127.596 153.791 127.605C153.882 127.614 153.957 127.621 154.017 127.625V128.972C153.962 128.958 153.864 128.945 153.723 128.931C153.581 128.913 153.426 128.904 153.258 128.904C152.852 128.904 152.504 129.045 152.212 129.328C151.925 129.61 151.781 130.045 151.781 130.633V134.899H150.339ZM155.876 135.015C155.612 135.015 155.386 134.924 155.199 134.742C155.017 134.555 154.926 134.327 154.926 134.058C154.926 133.794 155.017 133.568 155.199 133.381C155.386 133.194 155.612 133.101 155.876 133.101C156.145 133.101 156.37 133.194 156.553 133.381C156.74 133.568 156.833 133.794 156.833 134.058C156.833 134.327 156.74 134.555 156.553 134.742C156.37 134.924 156.145 135.015 155.876 135.015ZM155.876 129.847C155.612 129.847 155.386 129.756 155.199 129.574C155.017 129.387 154.926 129.159 154.926 128.89C154.926 128.626 155.017 128.4 155.199 128.213C155.386 128.027 155.612 127.933 155.876 127.933C156.145 127.933 156.37 128.027 156.553 128.213C156.74 128.4 156.833 128.626 156.833 128.89C156.833 129.159 156.74 129.387 156.553 129.574C156.37 129.756 156.145 129.847 155.876 129.847ZM161.748 134.899V124.713H163.266V129.786C163.544 129.471 163.822 129.159 164.1 128.849C164.378 128.539 164.658 128.225 164.94 127.906L167.839 124.713H169.76L165.74 129.123L169.794 134.899H168.017L164.701 130.155L163.266 131.741V134.899H161.748ZM172.884 135.042C172.392 135.042 171.947 134.935 171.551 134.721C171.159 134.502 170.847 134.181 170.614 133.757C170.386 133.333 170.272 132.807 170.272 132.178V127.68H171.715V132C171.715 132.579 171.854 133.017 172.132 133.313C172.41 133.605 172.799 133.75 173.301 133.75C173.788 133.75 174.199 133.6 174.531 133.299C174.868 132.994 175.037 132.506 175.037 131.836V127.68H176.479V134.899H175.064V133.812C174.572 134.632 173.845 135.042 172.884 135.042ZM179.692 134.899L177.457 127.68H178.968L179.795 130.633C179.918 131.071 180.034 131.517 180.144 131.973C180.257 132.429 180.369 132.88 180.479 133.327C180.597 132.88 180.713 132.429 180.827 131.973C180.946 131.517 181.064 131.071 181.183 130.633L182.023 127.68H183.397L184.225 130.633C184.348 131.066 184.466 131.508 184.58 131.959C184.694 132.411 184.808 132.857 184.922 133.299C185.031 132.857 185.141 132.411 185.25 131.959C185.364 131.508 185.482 131.066 185.605 130.633L186.439 127.68H187.964L185.729 134.899H184.225L183.309 131.754C183.204 131.39 183.101 131.016 183.001 130.633C182.905 130.25 182.81 129.87 182.714 129.492C182.614 129.87 182.513 130.25 182.413 130.633C182.317 131.016 182.215 131.39 182.105 131.754L181.176 134.899H179.692ZM191.054 135.015C190.334 135.015 189.737 134.833 189.263 134.468C188.789 134.099 188.552 133.555 188.552 132.834C188.552 132.288 188.686 131.868 188.955 131.577C189.229 131.28 189.582 131.069 190.015 130.941C190.452 130.813 190.915 130.72 191.402 130.661C191.854 130.606 192.211 130.56 192.476 130.524C192.74 130.487 192.927 130.433 193.036 130.36C193.15 130.287 193.207 130.162 193.207 129.984V129.922C193.207 129.571 193.079 129.284 192.824 129.061C192.569 128.833 192.211 128.719 191.751 128.719C191.291 128.719 190.915 128.831 190.623 129.054C190.331 129.273 190.172 129.549 190.145 129.881H188.729C188.761 129.193 189.051 128.63 189.598 128.193C190.145 127.755 190.869 127.537 191.771 127.537C192.66 127.537 193.36 127.755 193.87 128.193C194.381 128.63 194.636 129.216 194.636 129.95V134.899H193.214V133.874H193.187C193.036 134.165 192.797 134.43 192.469 134.667C192.145 134.899 191.674 135.015 191.054 135.015ZM191.348 133.853C191.986 133.853 192.455 133.689 192.756 133.361C193.061 133.028 193.214 132.641 193.214 132.199V131.351C193.118 131.429 192.902 131.499 192.564 131.563C192.227 131.622 191.867 131.679 191.484 131.734C191.088 131.793 190.739 131.905 190.438 132.069C190.138 132.233 189.987 132.497 189.987 132.862C189.987 133.172 190.108 133.416 190.35 133.593C190.596 133.766 190.928 133.853 191.348 133.853ZM196.263 134.899V127.68H197.705V134.899H196.263ZM196.98 126.436C196.725 126.436 196.509 126.352 196.331 126.183C196.158 126.01 196.071 125.8 196.071 125.554C196.071 125.304 196.158 125.094 196.331 124.925C196.509 124.752 196.725 124.666 196.98 124.666C197.236 124.666 197.452 124.752 197.63 124.925C197.808 125.094 197.896 125.304 197.896 125.554C197.896 125.8 197.808 126.01 197.63 126.183C197.452 126.352 197.236 126.436 196.98 126.436ZM202.941 127.68V128.87H201.479V132.992C201.479 133.261 201.533 133.447 201.643 133.552C201.752 133.657 201.95 133.709 202.237 133.709H202.941V134.899H202.032C200.697 134.899 200.029 134.325 200.029 133.176V128.87H198.758V127.68H200.029V125.711H201.479V127.68H202.941ZM207.535 134.899V124.713H211.309C212.398 124.713 213.261 124.998 213.899 125.568C214.537 126.138 214.856 126.91 214.856 127.885C214.856 128.537 214.708 129.102 214.412 129.581C214.116 130.055 213.699 130.421 213.161 130.681C212.623 130.936 211.99 131.064 211.261 131.064H209.053V134.899H207.535ZM209.053 129.751H211.233C211.89 129.751 212.407 129.585 212.785 129.252C213.168 128.915 213.359 128.459 213.359 127.885C213.359 127.311 213.168 126.86 212.785 126.532C212.407 126.199 211.89 126.033 211.233 126.033H209.053V129.751ZM215.964 134.899V127.68H217.345V128.849H217.372C217.504 128.453 217.712 128.145 217.994 127.926C218.281 127.703 218.655 127.591 219.115 127.591C219.225 127.591 219.325 127.596 219.416 127.605C219.507 127.614 219.582 127.621 219.642 127.625V128.972C219.587 128.958 219.489 128.945 219.348 128.931C219.206 128.913 219.051 128.904 218.883 128.904C218.477 128.904 218.129 129.045 217.837 129.328C217.55 129.61 217.406 130.045 217.406 130.633V134.899H215.964ZM223.695 135.063C222.98 135.063 222.365 134.901 221.85 134.578C221.339 134.254 220.945 133.81 220.667 133.245C220.394 132.675 220.257 132.028 220.257 131.303C220.257 130.569 220.4 129.918 220.688 129.348C220.975 128.778 221.371 128.332 221.877 128.008C222.383 127.68 222.964 127.516 223.62 127.516C224.304 127.516 224.896 127.676 225.397 127.995C225.903 128.314 226.295 128.758 226.573 129.328C226.851 129.893 226.99 130.547 226.99 131.29V131.679H221.679C221.706 132.331 221.893 132.857 222.239 133.258C222.59 133.659 223.082 133.86 223.716 133.86C224.19 133.86 224.579 133.753 224.885 133.539C225.19 133.324 225.393 133.046 225.493 132.705H226.881C226.794 133.169 226.601 133.58 226.3 133.935C226.004 134.291 225.63 134.569 225.179 134.769C224.732 134.965 224.238 135.063 223.695 135.063ZM221.692 130.585H225.582C225.523 130.011 225.32 129.558 224.974 129.225C224.627 128.888 224.181 128.719 223.634 128.719C223.087 128.719 222.64 128.888 222.294 129.225C221.952 129.558 221.752 130.011 221.692 130.585ZM228.241 134.899V127.68H229.643V128.89C229.866 128.444 230.169 128.106 230.552 127.878C230.935 127.651 231.349 127.537 231.796 127.537C232.288 127.537 232.719 127.662 233.088 127.913C233.462 128.163 233.724 128.482 233.874 128.87C234.07 128.478 234.366 128.159 234.763 127.913C235.164 127.662 235.631 127.537 236.164 127.537C236.611 127.537 237.016 127.635 237.381 127.831C237.745 128.027 238.035 128.318 238.249 128.706C238.463 129.088 238.57 129.569 238.57 130.148V134.899H237.121V130.271C237.121 129.756 236.978 129.382 236.69 129.15C236.403 128.917 236.064 128.801 235.672 128.801C235.189 128.801 234.808 128.952 234.53 129.252C234.252 129.549 234.113 129.927 234.113 130.387V134.899H232.691V130.175C232.691 129.761 232.557 129.428 232.288 129.177C232.024 128.927 231.687 128.801 231.276 128.801C230.857 128.801 230.486 128.949 230.162 129.246C229.843 129.542 229.684 129.975 229.684 130.544V134.899H228.241ZM240.204 134.899V127.68H241.646V134.899H240.204ZM240.922 126.436C240.667 126.436 240.45 126.352 240.272 126.183C240.099 126.01 240.013 125.8 240.013 125.554C240.013 125.304 240.099 125.094 240.272 124.925C240.45 124.752 240.667 124.666 240.922 124.666C241.177 124.666 241.394 124.752 241.571 124.925C241.749 125.094 241.838 125.304 241.838 125.554C241.838 125.8 241.749 126.01 241.571 126.183C241.394 126.352 241.177 126.436 240.922 126.436ZM245.892 135.042C245.399 135.042 244.955 134.935 244.559 134.721C244.167 134.502 243.854 134.181 243.622 133.757C243.394 133.333 243.28 132.807 243.28 132.178V127.68H244.723V132C244.723 132.579 244.862 133.017 245.14 133.313C245.418 133.605 245.807 133.75 246.309 133.75C246.796 133.75 247.206 133.6 247.539 133.299C247.876 132.994 248.045 132.506 248.045 131.836V127.68H249.487V134.899H248.072V133.812C247.58 134.632 246.853 135.042 245.892 135.042ZM251.114 134.899V127.68H252.516V128.89C252.739 128.444 253.042 128.106 253.425 127.878C253.808 127.651 254.222 127.537 254.669 127.537C255.161 127.537 255.592 127.662 255.961 127.913C256.335 128.163 256.597 128.482 256.747 128.87C256.943 128.478 257.239 128.159 257.636 127.913C258.037 127.662 258.504 127.537 259.037 127.537C259.484 127.537 259.889 127.635 260.254 127.831C260.618 128.027 260.908 128.318 261.122 128.706C261.336 129.088 261.443 129.569 261.443 130.148V134.899H259.994V130.271C259.994 129.756 259.851 129.382 259.563 129.15C259.276 128.917 258.937 128.801 258.545 128.801C258.062 128.801 257.681 128.952 257.403 129.252C257.125 129.549 256.986 129.927 256.986 130.387V134.899H255.564V130.175C255.564 129.761 255.43 129.428 255.161 129.177C254.897 128.927 254.56 128.801 254.149 128.801C253.73 128.801 253.359 128.949 253.035 129.246C252.716 129.542 252.557 129.975 252.557 130.544V134.899H251.114ZM266.529 134.899V124.713H268.669L270.952 130.681C271.043 130.941 271.162 131.283 271.308 131.707C271.453 132.126 271.586 132.513 271.704 132.869C271.818 132.513 271.948 132.126 272.094 131.707C272.24 131.283 272.358 130.941 272.449 130.681L274.698 124.713H276.845V134.899H275.354V129.348C275.354 128.984 275.359 128.56 275.368 128.077C275.377 127.589 275.389 127.104 275.402 126.621C275.215 127.172 275.038 127.692 274.869 128.179C274.705 128.667 274.568 129.056 274.459 129.348L272.312 134.899H271.068L268.901 129.348C268.797 129.07 268.662 128.703 268.498 128.248C268.339 127.787 268.165 127.293 267.979 126.764C267.992 127.229 268.004 127.689 268.013 128.145C268.022 128.601 268.026 129.002 268.026 129.348V134.899H266.529ZM281.678 135.063C280.962 135.063 280.347 134.901 279.832 134.578C279.322 134.254 278.927 133.81 278.649 133.245C278.376 132.675 278.239 132.028 278.239 131.303C278.239 130.569 278.383 129.918 278.67 129.348C278.957 128.778 279.354 128.332 279.859 128.008C280.365 127.68 280.946 127.516 281.603 127.516C282.286 127.516 282.879 127.676 283.38 127.995C283.886 128.314 284.278 128.758 284.556 129.328C284.834 129.893 284.973 130.547 284.973 131.29V131.679H279.661C279.688 132.331 279.875 132.857 280.222 133.258C280.573 133.659 281.065 133.86 281.698 133.86C282.172 133.86 282.562 133.753 282.867 133.539C283.173 133.324 283.375 133.046 283.476 132.705H284.863C284.777 133.169 284.583 133.58 284.282 133.935C283.986 134.291 283.612 134.569 283.161 134.769C282.715 134.965 282.22 135.063 281.678 135.063ZM279.675 130.585H283.564C283.505 130.011 283.302 129.558 282.956 129.225C282.61 128.888 282.163 128.719 281.616 128.719C281.069 128.719 280.623 128.888 280.276 129.225C279.935 129.558 279.734 130.011 279.675 130.585ZM288.507 135.015C287.787 135.015 287.19 134.833 286.716 134.468C286.242 134.099 286.005 133.555 286.005 132.834C286.005 132.288 286.139 131.868 286.408 131.577C286.682 131.28 287.035 131.069 287.468 130.941C287.905 130.813 288.368 130.72 288.855 130.661C289.307 130.606 289.664 130.56 289.929 130.524C290.193 130.487 290.38 130.433 290.489 130.36C290.603 130.287 290.66 130.162 290.66 129.984V129.922C290.66 129.571 290.533 129.284 290.277 129.061C290.022 128.833 289.664 128.719 289.204 128.719C288.744 128.719 288.368 128.831 288.076 129.054C287.785 129.273 287.625 129.549 287.598 129.881H286.183C286.215 129.193 286.504 128.63 287.051 128.193C287.598 127.755 288.322 127.537 289.225 127.537C290.113 127.537 290.813 127.755 291.323 128.193C291.834 128.63 292.089 129.216 292.089 129.95V134.899H290.667V133.874H290.64C290.489 134.165 290.25 134.43 289.922 134.667C289.598 134.899 289.127 135.015 288.507 135.015ZM288.801 133.853C289.439 133.853 289.908 133.689 290.209 133.361C290.514 133.028 290.667 132.641 290.667 132.199V131.351C290.571 131.429 290.355 131.499 290.018 131.563C289.68 131.622 289.32 131.679 288.938 131.734C288.541 131.793 288.192 131.905 287.892 132.069C287.591 132.233 287.44 132.497 287.44 132.862C287.44 133.172 287.561 133.416 287.803 133.593C288.049 133.766 288.382 133.853 288.801 133.853ZM297.195 127.68V128.87H295.732V132.992C295.732 133.261 295.787 133.447 295.896 133.552C296.006 133.657 296.204 133.709 296.491 133.709H297.195V134.899H296.286C294.951 134.899 294.283 134.325 294.283 133.176V128.87H293.012V127.68H294.283V125.711H295.732V127.68H297.195ZM300.887 135.07C300.335 135.07 299.839 134.981 299.396 134.803C298.954 134.625 298.597 134.361 298.323 134.01C298.054 133.659 297.904 133.224 297.872 132.705H299.294C299.376 133.516 299.898 133.921 300.859 133.921C301.315 133.921 301.675 133.828 301.939 133.641C302.208 133.454 302.343 133.217 302.343 132.93C302.343 132.684 302.247 132.488 302.056 132.342C301.864 132.192 301.614 132.083 301.304 132.014L300.107 131.748C298.727 131.447 298.036 130.759 298.036 129.683C298.036 129.045 298.289 128.526 298.795 128.125C299.305 127.723 299.973 127.523 300.798 127.523C301.614 127.523 302.284 127.735 302.808 128.159C303.336 128.578 303.61 129.152 303.628 129.881H302.247C302.243 129.53 302.11 129.241 301.851 129.013C301.591 128.781 301.247 128.665 300.818 128.665C300.408 128.665 300.082 128.76 299.841 128.952C299.599 129.143 299.479 129.378 299.479 129.656C299.479 129.902 299.57 130.1 299.752 130.25C299.939 130.401 300.194 130.513 300.518 130.585L301.748 130.859C302.45 131.014 302.967 131.253 303.3 131.577C303.632 131.9 303.799 132.324 303.799 132.848C303.799 133.308 303.671 133.705 303.416 134.038C303.165 134.366 302.821 134.621 302.384 134.803C301.946 134.981 301.447 135.07 300.887 135.07Z" fill="#666666"/>
<rect x="103.3" y="150.199" width="358.4" height="39.4" rx="5.7" fill="black" fill-opacity="0.04"/>
<rect x="103.3" y="150.199" width="358.4" height="39.4" rx="5.7" stroke="#E5E5E5" stroke-width="0.6"/>
<path d="M119.486 174.399V173.368L122.627 170.567C122.959 170.266 123.236 169.997 123.459 169.758C123.682 169.516 123.848 169.278 123.957 169.043C124.07 168.809 124.127 168.545 124.127 168.252C124.127 167.756 123.979 167.364 123.682 167.075C123.385 166.782 122.98 166.635 122.469 166.635C121.914 166.635 121.482 166.807 121.174 167.151C120.865 167.495 120.711 167.961 120.711 168.551H119.498C119.498 167.954 119.619 167.428 119.861 166.975C120.107 166.522 120.451 166.168 120.893 165.915C121.338 165.657 121.861 165.528 122.463 165.528C123.025 165.528 123.523 165.641 123.957 165.868C124.391 166.09 124.73 166.403 124.977 166.805C125.227 167.204 125.352 167.667 125.352 168.194C125.352 168.776 125.191 169.301 124.871 169.77C124.551 170.235 124.076 170.749 123.447 171.311L121.256 173.28V173.292H125.398V174.399H119.486ZM129.646 174.54C128.971 174.54 128.387 174.356 127.895 173.989C127.406 173.622 127.029 173.102 126.764 172.43C126.498 171.754 126.365 170.958 126.365 170.04C126.365 169.118 126.498 168.319 126.764 167.643C127.029 166.967 127.406 166.446 127.895 166.079C128.387 165.711 128.971 165.528 129.646 165.528C130.318 165.528 130.898 165.711 131.387 166.079C131.879 166.446 132.258 166.967 132.523 167.643C132.789 168.319 132.922 169.118 132.922 170.04C132.922 170.958 132.789 171.754 132.523 172.43C132.258 173.102 131.879 173.622 131.387 173.989C130.898 174.356 130.318 174.54 129.646 174.54ZM129.646 173.432C130.279 173.432 130.777 173.131 131.141 172.53C131.508 171.924 131.691 171.094 131.691 170.04C131.691 168.981 131.508 168.149 131.141 167.543C130.777 166.938 130.279 166.635 129.646 166.635C129.01 166.635 128.508 166.938 128.141 167.543C127.777 168.149 127.596 168.981 127.596 170.04C127.596 171.094 127.777 171.924 128.141 172.53C128.508 173.131 129.01 173.432 129.646 173.432ZM136.959 174.399V165.668H138.195V170.854H138.213L140.85 168.211H142.385L139.766 170.872L142.561 174.399H141.043L138.822 171.616L138.195 172.225V174.399H136.959ZM145.648 176.93C144.891 176.93 144.271 176.762 143.791 176.426C143.311 176.09 143.029 175.62 142.947 175.014H144.184C144.262 175.315 144.432 175.542 144.693 175.694C144.955 175.846 145.273 175.922 145.648 175.922C146.148 175.922 146.539 175.788 146.82 175.518C147.102 175.249 147.242 174.864 147.242 174.364V173.426H147.236C147.021 173.786 146.75 174.051 146.422 174.223C146.098 174.395 145.732 174.481 145.326 174.481C144.787 174.481 144.316 174.346 143.914 174.077C143.512 173.803 143.199 173.428 142.977 172.952C142.754 172.471 142.643 171.917 142.643 171.288C142.643 170.659 142.754 170.104 142.977 169.624C143.203 169.143 143.518 168.768 143.92 168.499C144.322 168.225 144.789 168.088 145.32 168.088C145.723 168.088 146.092 168.174 146.428 168.346C146.764 168.518 147.035 168.788 147.242 169.155H147.248V168.211H148.467V174.317C148.467 174.942 148.34 175.446 148.086 175.829C147.832 176.211 147.492 176.491 147.066 176.667C146.641 176.842 146.168 176.93 145.648 176.93ZM145.578 173.42C146.105 173.42 146.525 173.227 146.838 172.84C147.154 172.45 147.312 171.93 147.312 171.282C147.312 170.633 147.154 170.116 146.838 169.729C146.525 169.338 146.105 169.143 145.578 169.143C145.078 169.143 144.672 169.327 144.359 169.694C144.051 170.057 143.896 170.586 143.896 171.282C143.896 171.977 144.051 172.508 144.359 172.875C144.672 173.239 145.078 173.42 145.578 173.42ZM155.844 174.54C154.797 174.54 153.971 174.276 153.365 173.749C152.764 173.217 152.463 172.491 152.463 171.569H153.764C153.768 172.143 153.951 172.592 154.314 172.917C154.682 173.241 155.191 173.403 155.844 173.403C156.438 173.403 156.912 173.278 157.268 173.028C157.627 172.774 157.807 172.434 157.807 172.008C157.807 171.672 157.678 171.401 157.42 171.194C157.166 170.983 156.736 170.805 156.131 170.661L155.176 170.432C154.293 170.221 153.648 169.928 153.242 169.553C152.84 169.174 152.639 168.682 152.639 168.077C152.639 167.565 152.768 167.118 153.025 166.735C153.283 166.352 153.645 166.055 154.109 165.844C154.578 165.633 155.125 165.528 155.75 165.528C156.691 165.528 157.439 165.774 157.994 166.266C158.553 166.758 158.846 167.43 158.873 168.282H157.613C157.582 167.778 157.398 167.383 157.062 167.098C156.727 166.809 156.283 166.665 155.732 166.665C155.205 166.665 154.773 166.792 154.438 167.045C154.102 167.295 153.934 167.618 153.934 168.012C153.934 168.329 154.062 168.586 154.32 168.786C154.578 168.981 155.006 169.151 155.604 169.295L156.547 169.518C157.422 169.725 158.066 170.024 158.48 170.415C158.898 170.805 159.107 171.313 159.107 171.938C159.107 172.461 158.973 172.918 158.703 173.309C158.434 173.7 158.055 174.002 157.566 174.217C157.078 174.432 156.504 174.54 155.844 174.54ZM163.227 168.211V169.231H161.973V172.764C161.973 172.995 162.02 173.155 162.113 173.245C162.207 173.334 162.377 173.379 162.623 173.379H163.227V174.399H162.447C161.303 174.399 160.73 173.907 160.73 172.922V169.231H159.641V168.211H160.73V166.524H161.973V168.211H163.227ZM164.205 174.399V168.211H165.389V169.213H165.412C165.525 168.874 165.703 168.61 165.945 168.422C166.191 168.231 166.512 168.135 166.906 168.135C167 168.135 167.086 168.139 167.164 168.147C167.242 168.155 167.307 168.161 167.357 168.165V169.319C167.311 169.307 167.227 169.295 167.105 169.284C166.984 169.268 166.852 169.26 166.707 169.26C166.359 169.26 166.061 169.381 165.811 169.624C165.564 169.866 165.441 170.239 165.441 170.743V174.399H164.205ZM168.307 174.399V168.211H169.543V174.399H168.307ZM168.922 167.145C168.703 167.145 168.518 167.073 168.365 166.928C168.217 166.78 168.143 166.6 168.143 166.389C168.143 166.174 168.217 165.995 168.365 165.85C168.518 165.702 168.703 165.627 168.922 165.627C169.141 165.627 169.326 165.702 169.479 165.85C169.631 165.995 169.707 166.174 169.707 166.389C169.707 166.6 169.631 166.78 169.479 166.928C169.326 167.073 169.141 167.145 168.922 167.145ZM170.943 176.848V168.211H172.156V169.102H172.174C172.369 168.762 172.637 168.508 172.977 168.34C173.316 168.172 173.688 168.088 174.09 168.088C174.621 168.088 175.088 168.225 175.49 168.499C175.893 168.768 176.205 169.145 176.428 169.629C176.654 170.11 176.768 170.668 176.768 171.305C176.768 171.942 176.656 172.502 176.434 172.987C176.211 173.467 175.898 173.844 175.496 174.118C175.094 174.387 174.623 174.522 174.084 174.522C173.682 174.522 173.318 174.434 172.994 174.258C172.67 174.083 172.404 173.819 172.197 173.467H172.18V176.848H170.943ZM173.832 173.456C174.332 173.456 174.736 173.272 175.045 172.905C175.357 172.538 175.514 172.004 175.514 171.305C175.514 170.606 175.357 170.073 175.045 169.706C174.736 169.334 174.332 169.149 173.832 169.149C173.305 169.149 172.883 169.346 172.566 169.741C172.254 170.131 172.098 170.653 172.098 171.305C172.098 171.954 172.254 172.475 172.566 172.87C172.883 173.26 173.305 173.456 173.832 173.456ZM179.094 165.668V174.399H177.857V165.668H179.094ZM183.154 174.54C182.564 174.54 182.047 174.403 181.602 174.129C181.156 173.856 180.809 173.477 180.559 172.993C180.312 172.508 180.189 171.95 180.189 171.317C180.189 170.676 180.312 170.114 180.559 169.629C180.809 169.141 181.156 168.76 181.602 168.487C182.047 168.209 182.564 168.071 183.154 168.071C183.744 168.071 184.26 168.209 184.701 168.487C185.146 168.76 185.492 169.141 185.738 169.629C185.988 170.114 186.113 170.676 186.113 171.317C186.113 171.95 185.988 172.508 185.738 172.993C185.492 173.477 185.146 173.856 184.701 174.129C184.26 174.403 183.744 174.54 183.154 174.54ZM183.154 173.473C183.686 173.473 184.104 173.278 184.408 172.887C184.713 172.497 184.865 171.973 184.865 171.317C184.865 170.653 184.711 170.124 184.402 169.729C184.098 169.334 183.682 169.137 183.154 169.137C182.627 169.137 182.209 169.334 181.9 169.729C181.596 170.12 181.443 170.649 181.443 171.317C181.443 171.977 181.596 172.502 181.9 172.893C182.205 173.28 182.623 173.473 183.154 173.473ZM187.209 174.399V168.211H188.445V174.399H187.209ZM187.824 167.145C187.605 167.145 187.42 167.073 187.268 166.928C187.119 166.78 187.045 166.6 187.045 166.389C187.045 166.174 187.119 165.995 187.268 165.85C187.42 165.702 187.605 165.627 187.824 165.627C188.043 165.627 188.229 165.702 188.381 165.85C188.533 165.995 188.609 166.174 188.609 166.389C188.609 166.6 188.533 166.78 188.381 166.928C188.229 167.073 188.043 167.145 187.824 167.145ZM191.082 170.836V174.399H189.846V168.211H191.059V169.143C191.48 168.44 192.104 168.088 192.928 168.088C193.354 168.088 193.734 168.182 194.07 168.37C194.41 168.553 194.678 168.827 194.873 169.19C195.068 169.553 195.166 170.004 195.166 170.543V174.399H193.93V170.696C193.93 170.2 193.811 169.827 193.572 169.577C193.334 169.323 193.002 169.196 192.576 169.196C192.154 169.196 191.799 169.327 191.51 169.588C191.225 169.846 191.082 170.262 191.082 170.836Z" fill="#333333"/>
<rect x="426" y="159.899" width="20" height="20" rx="6" fill="#333333"/>
<g clipPath="url(#clip2_2200_2728)">
<path d="M431.875 170.649L434.5 173.274L440.5 167.274" stroke="white" stroke-width="2" stroke-linecap="round" stroke-linejoin="round"/>
</g>
<rect x="103.3" y="198.199" width="358.4" height="39.4" rx="5.7" fill="black" fill-opacity="0.04"/>
<rect x="103.3" y="198.199" width="358.4" height="39.4" rx="5.7" stroke="#E5E5E5" stroke-width="0.6"/>
<path d="M122.662 213.668V222.399H121.402V214.946H121.396L119.264 216.34V215.098L121.438 213.668H122.662ZM126.975 222.522C126.393 222.522 125.873 222.407 125.416 222.176C124.963 221.942 124.6 221.622 124.326 221.215C124.057 220.805 123.91 220.338 123.887 219.815H125.158C125.197 220.284 125.385 220.67 125.721 220.975C126.061 221.276 126.48 221.426 126.98 221.426C127.508 221.426 127.934 221.249 128.258 220.893C128.586 220.538 128.75 220.083 128.75 219.528C128.75 218.977 128.592 218.524 128.275 218.168C127.959 217.809 127.547 217.629 127.039 217.629C126.594 217.629 126.211 217.721 125.891 217.905C125.57 218.084 125.348 218.346 125.223 218.69H123.998L124.285 213.668H129.506V214.782H125.451L125.258 217.354H125.27C125.781 216.811 126.436 216.54 127.232 216.54C127.764 216.54 128.236 216.668 128.65 216.926C129.068 217.18 129.396 217.532 129.635 217.981C129.877 218.426 129.998 218.934 129.998 219.504C129.998 220.094 129.871 220.616 129.617 221.069C129.367 221.522 129.016 221.877 128.562 222.135C128.109 222.393 127.58 222.522 126.975 222.522ZM134.029 222.399V213.668H135.266V218.854H135.283L137.92 216.211H139.455L136.836 218.872L139.631 222.399H138.113L135.893 219.616L135.266 220.225V222.399H134.029ZM142.719 224.93C141.961 224.93 141.342 224.762 140.861 224.426C140.381 224.09 140.1 223.62 140.018 223.014H141.254C141.332 223.315 141.502 223.542 141.764 223.694C142.025 223.846 142.344 223.922 142.719 223.922C143.219 223.922 143.609 223.788 143.891 223.518C144.172 223.249 144.312 222.864 144.312 222.364V221.426H144.307C144.092 221.786 143.82 222.051 143.492 222.223C143.168 222.395 142.803 222.481 142.396 222.481C141.857 222.481 141.387 222.346 140.984 222.077C140.582 221.803 140.27 221.428 140.047 220.952C139.824 220.471 139.713 219.917 139.713 219.288C139.713 218.659 139.824 218.104 140.047 217.624C140.273 217.143 140.588 216.768 140.99 216.499C141.393 216.225 141.859 216.088 142.391 216.088C142.793 216.088 143.162 216.174 143.498 216.346C143.834 216.518 144.105 216.788 144.312 217.155H144.318V216.211H145.537V222.317C145.537 222.942 145.41 223.446 145.156 223.829C144.902 224.211 144.562 224.491 144.137 224.667C143.711 224.842 143.238 224.93 142.719 224.93ZM142.648 221.42C143.176 221.42 143.596 221.227 143.908 220.84C144.225 220.45 144.383 219.93 144.383 219.282C144.383 218.633 144.225 218.116 143.908 217.729C143.596 217.338 143.176 217.143 142.648 217.143C142.148 217.143 141.742 217.327 141.43 217.694C141.121 218.057 140.967 218.586 140.967 219.282C140.967 219.977 141.121 220.508 141.43 220.875C141.742 221.239 142.148 221.42 142.648 221.42ZM153.641 222.54C152.84 222.54 152.133 222.35 151.52 221.971C150.906 221.592 150.428 221.065 150.084 220.389C149.74 219.713 149.568 218.93 149.568 218.04C149.568 217.141 149.74 216.354 150.084 215.678C150.428 215.002 150.904 214.475 151.514 214.096C152.127 213.717 152.836 213.528 153.641 213.528C154.277 213.528 154.854 213.653 155.369 213.903C155.889 214.153 156.318 214.506 156.658 214.963C156.998 215.417 157.219 215.954 157.32 216.575H155.996C155.867 215.981 155.592 215.524 155.17 215.204C154.752 214.879 154.246 214.717 153.652 214.717C153.078 214.717 152.584 214.856 152.17 215.133C151.756 215.411 151.436 215.799 151.209 216.299C150.986 216.799 150.875 217.379 150.875 218.04C150.875 218.7 150.986 219.278 151.209 219.774C151.432 220.27 151.75 220.657 152.164 220.934C152.582 221.211 153.078 221.35 153.652 221.35C154.242 221.35 154.746 221.19 155.164 220.87C155.586 220.549 155.865 220.094 156.002 219.504H157.32C157.219 220.122 156.998 220.659 156.658 221.116C156.318 221.569 155.889 221.92 155.369 222.17C154.854 222.417 154.277 222.54 153.641 222.54ZM159.711 218.836V222.399H158.475V213.668H159.711V217.102C160.137 216.426 160.752 216.088 161.557 216.088C161.982 216.088 162.363 216.182 162.699 216.37C163.039 216.553 163.307 216.827 163.502 217.19C163.697 217.553 163.795 218.004 163.795 218.543V222.399H162.559V218.696C162.559 218.2 162.439 217.827 162.201 217.577C161.963 217.323 161.631 217.196 161.205 217.196C160.783 217.196 160.428 217.327 160.139 217.588C159.854 217.846 159.711 218.262 159.711 218.836ZM165.189 222.399V216.211H166.426V222.399H165.189ZM165.805 215.145C165.586 215.145 165.4 215.073 165.248 214.928C165.1 214.78 165.025 214.6 165.025 214.389C165.025 214.174 165.1 213.995 165.248 213.85C165.4 213.702 165.586 213.627 165.805 213.627C166.023 213.627 166.209 213.702 166.361 213.85C166.514 213.995 166.59 214.174 166.59 214.389C166.59 214.6 166.514 214.78 166.361 214.928C166.209 215.073 166.023 215.145 165.805 215.145ZM170.475 222.54C169.885 222.54 169.367 222.403 168.922 222.129C168.48 221.856 168.137 221.477 167.891 220.993C167.645 220.504 167.521 219.946 167.521 219.317C167.521 218.68 167.645 218.118 167.891 217.629C168.141 217.141 168.486 216.76 168.928 216.487C169.369 216.209 169.885 216.071 170.475 216.071C170.967 216.071 171.406 216.168 171.793 216.364C172.184 216.555 172.5 216.821 172.742 217.161C172.984 217.5 173.131 217.889 173.182 218.327H171.951C171.889 217.979 171.732 217.694 171.482 217.471C171.232 217.249 170.898 217.137 170.48 217.137C169.945 217.137 169.527 217.334 169.227 217.729C168.926 218.124 168.775 218.653 168.775 219.317C168.775 219.973 168.926 220.497 169.227 220.887C169.527 221.278 169.945 221.473 170.48 221.473C170.906 221.473 171.234 221.366 171.465 221.151C171.695 220.932 171.852 220.641 171.934 220.278H173.182C173.135 220.708 172.99 221.094 172.748 221.438C172.506 221.778 172.189 222.047 171.799 222.247C171.408 222.442 170.967 222.54 170.475 222.54ZM174.236 222.399V213.668H175.473V218.854H175.49L178.127 216.211H179.662L177.043 218.872L179.838 222.399H178.32L176.1 219.616L175.473 220.225V222.399H174.236ZM182.867 222.54C182.254 222.54 181.727 222.401 181.285 222.124C180.848 221.846 180.51 221.465 180.271 220.981C180.037 220.493 179.92 219.938 179.92 219.317C179.92 218.688 180.043 218.129 180.289 217.641C180.535 217.153 180.875 216.77 181.309 216.493C181.742 216.211 182.24 216.071 182.803 216.071C183.389 216.071 183.896 216.208 184.326 216.481C184.76 216.754 185.096 217.135 185.334 217.624C185.572 218.108 185.691 218.668 185.691 219.305V219.639H181.139C181.162 220.198 181.322 220.649 181.619 220.993C181.92 221.336 182.342 221.508 182.885 221.508C183.291 221.508 183.625 221.417 183.887 221.233C184.148 221.049 184.322 220.811 184.408 220.518H185.598C185.523 220.917 185.357 221.268 185.1 221.573C184.846 221.877 184.525 222.116 184.139 222.288C183.756 222.456 183.332 222.54 182.867 222.54ZM181.15 218.702H184.484C184.434 218.209 184.26 217.821 183.963 217.536C183.666 217.247 183.283 217.102 182.814 217.102C182.346 217.102 181.963 217.247 181.666 217.536C181.373 217.821 181.201 218.209 181.15 218.702ZM188 218.836V222.399H186.764V216.211H187.977V217.143C188.398 216.44 189.021 216.088 189.846 216.088C190.271 216.088 190.652 216.182 190.988 216.37C191.328 216.553 191.596 216.827 191.791 217.19C191.986 217.553 192.084 218.004 192.084 218.543V222.399H190.848V218.696C190.848 218.2 190.729 217.827 190.49 217.577C190.252 217.323 189.92 217.196 189.494 217.196C189.072 217.196 188.717 217.327 188.428 217.588C188.143 217.846 188 218.262 188 218.836ZM196.438 222.399V213.668H199.701C200.6 213.668 201.299 213.877 201.799 214.295C202.303 214.709 202.555 215.266 202.555 215.965C202.555 216.465 202.424 216.872 202.162 217.184C201.904 217.497 201.547 217.723 201.09 217.864V217.875C201.598 217.946 202.025 218.153 202.373 218.497C202.725 218.84 202.9 219.323 202.9 219.944C202.9 220.686 202.641 221.282 202.121 221.731C201.605 222.176 200.832 222.399 199.801 222.399H196.438ZM197.727 221.303H199.719C200.312 221.303 200.77 221.188 201.09 220.958C201.414 220.723 201.576 220.383 201.576 219.938C201.576 219.497 201.418 219.147 201.102 218.889C200.789 218.631 200.344 218.502 199.766 218.502H197.727V221.303ZM197.727 217.43H199.684C200.18 217.43 200.566 217.311 200.844 217.073C201.125 216.834 201.266 216.51 201.266 216.1C201.266 215.69 201.125 215.366 200.844 215.127C200.566 214.885 200.18 214.764 199.684 214.764H197.727V217.43ZM204.025 222.399V216.211H205.209V217.213H205.232C205.346 216.874 205.523 216.61 205.766 216.422C206.012 216.231 206.332 216.135 206.727 216.135C206.82 216.135 206.906 216.139 206.984 216.147C207.062 216.155 207.127 216.161 207.178 216.165V217.319C207.131 217.307 207.047 217.295 206.926 217.284C206.805 217.268 206.672 217.26 206.527 217.26C206.18 217.26 205.881 217.381 205.631 217.624C205.385 217.866 205.262 218.239 205.262 218.743V222.399H204.025ZM210.652 222.54C210.039 222.54 209.512 222.401 209.07 222.124C208.633 221.846 208.295 221.465 208.057 220.981C207.822 220.493 207.705 219.938 207.705 219.317C207.705 218.688 207.828 218.129 208.074 217.641C208.32 217.153 208.66 216.77 209.094 216.493C209.527 216.211 210.025 216.071 210.588 216.071C211.174 216.071 211.682 216.208 212.111 216.481C212.545 216.754 212.881 217.135 213.119 217.624C213.357 218.108 213.477 218.668 213.477 219.305V219.639H208.924C208.947 220.198 209.107 220.649 209.404 220.993C209.705 221.336 210.127 221.508 210.67 221.508C211.076 221.508 211.41 221.417 211.672 221.233C211.934 221.049 212.107 220.811 212.193 220.518H213.383C213.309 220.917 213.143 221.268 212.885 221.573C212.631 221.877 212.311 222.116 211.924 222.288C211.541 222.456 211.117 222.54 210.652 222.54ZM208.936 218.702H212.27C212.219 218.209 212.045 217.821 211.748 217.536C211.451 217.247 211.068 217.102 210.6 217.102C210.131 217.102 209.748 217.247 209.451 217.536C209.158 217.821 208.986 218.209 208.936 218.702ZM216.506 222.499C215.889 222.499 215.377 222.342 214.971 222.03C214.564 221.713 214.361 221.247 214.361 220.629C214.361 220.161 214.477 219.801 214.707 219.551C214.941 219.297 215.244 219.116 215.615 219.006C215.99 218.897 216.387 218.817 216.805 218.766C217.191 218.719 217.498 218.68 217.725 218.649C217.951 218.618 218.111 218.571 218.205 218.508C218.303 218.446 218.352 218.338 218.352 218.186V218.133C218.352 217.833 218.242 217.586 218.023 217.395C217.805 217.2 217.498 217.102 217.104 217.102C216.709 217.102 216.387 217.198 216.137 217.389C215.887 217.577 215.75 217.813 215.727 218.098H214.514C214.541 217.508 214.789 217.026 215.258 216.651C215.727 216.276 216.348 216.088 217.121 216.088C217.883 216.088 218.482 216.276 218.92 216.651C219.357 217.026 219.576 217.528 219.576 218.157V222.399H218.357V221.52H218.334C218.205 221.77 218 221.997 217.719 222.2C217.441 222.399 217.037 222.499 216.506 222.499ZM216.758 221.502C217.305 221.502 217.707 221.362 217.965 221.081C218.227 220.795 218.357 220.463 218.357 220.084V219.358C218.275 219.424 218.09 219.485 217.801 219.54C217.512 219.59 217.203 219.639 216.875 219.686C216.535 219.737 216.236 219.833 215.979 219.973C215.721 220.114 215.592 220.34 215.592 220.653C215.592 220.918 215.695 221.127 215.902 221.28C216.113 221.428 216.398 221.502 216.758 221.502ZM223.262 222.545C222.789 222.545 222.363 222.469 221.984 222.317C221.605 222.165 221.299 221.938 221.064 221.637C220.834 221.336 220.705 220.963 220.678 220.518H221.896C221.967 221.213 222.414 221.561 223.238 221.561C223.629 221.561 223.938 221.481 224.164 221.321C224.395 221.161 224.51 220.958 224.51 220.711C224.51 220.5 224.428 220.333 224.264 220.208C224.1 220.079 223.885 219.985 223.619 219.926L222.594 219.698C221.41 219.44 220.818 218.85 220.818 217.928C220.818 217.381 221.035 216.936 221.469 216.592C221.906 216.249 222.479 216.077 223.186 216.077C223.885 216.077 224.459 216.258 224.908 216.622C225.361 216.981 225.596 217.473 225.611 218.098H224.428C224.424 217.797 224.311 217.549 224.088 217.354C223.865 217.155 223.57 217.055 223.203 217.055C222.852 217.055 222.572 217.137 222.365 217.301C222.158 217.465 222.055 217.667 222.055 217.905C222.055 218.116 222.133 218.286 222.289 218.415C222.449 218.543 222.668 218.639 222.945 218.702L224 218.936C224.602 219.069 225.045 219.274 225.33 219.551C225.615 219.829 225.758 220.192 225.758 220.641C225.758 221.036 225.648 221.375 225.43 221.661C225.215 221.942 224.92 222.161 224.545 222.317C224.17 222.469 223.742 222.545 223.262 222.545ZM229.953 216.211V217.231H228.699V220.764C228.699 220.995 228.746 221.155 228.84 221.245C228.934 221.334 229.104 221.379 229.35 221.379H229.953V222.399H229.174C228.029 222.399 227.457 221.907 227.457 220.922V217.231H226.367V216.211H227.457V214.524H228.699V216.211H229.953Z" fill="#333333"/>
<rect x="426" y="207.899" width="20" height="20" rx="6" fill="#333333"/>
<g clipPath="url(#clip3_2200_2728)">
<path d="M431.875 218.649L434.5 221.274L440.5 215.274" stroke="white" stroke-width="2" stroke-linecap="round" stroke-linejoin="round"/>
</g>
<g filter="url(#filter1_i_2200_2728)">
<rect x="103" y="249.899" width="359" height="39" rx="8" fill="#EF5237"/>
<path d="M227.42 274.04C226.373 274.04 225.547 273.776 224.941 273.249C224.34 272.717 224.039 271.991 224.039 271.069H225.34C225.344 271.643 225.527 272.092 225.891 272.417C226.258 272.741 226.768 272.903 227.42 272.903C228.014 272.903 228.488 272.778 228.844 272.528C229.203 272.274 229.383 271.934 229.383 271.508C229.383 271.172 229.254 270.901 228.996 270.694C228.742 270.483 228.312 270.305 227.707 270.161L226.752 269.932C225.869 269.721 225.225 269.428 224.818 269.053C224.416 268.674 224.215 268.182 224.215 267.577C224.215 267.065 224.344 266.618 224.602 266.235C224.859 265.852 225.221 265.555 225.686 265.344C226.154 265.133 226.701 265.028 227.326 265.028C228.268 265.028 229.016 265.274 229.57 265.766C230.129 266.258 230.422 266.93 230.449 267.782H229.189C229.158 267.278 228.975 266.883 228.639 266.598C228.303 266.309 227.859 266.165 227.309 266.165C226.781 266.165 226.35 266.292 226.014 266.545C225.678 266.795 225.51 267.118 225.51 267.512C225.51 267.829 225.639 268.086 225.896 268.286C226.154 268.481 226.582 268.651 227.18 268.795L228.123 269.018C228.998 269.225 229.643 269.524 230.057 269.915C230.475 270.305 230.684 270.813 230.684 271.438C230.684 271.961 230.549 272.418 230.279 272.809C230.01 273.2 229.631 273.502 229.143 273.717C228.654 273.932 228.08 274.04 227.42 274.04ZM234.463 274.04C233.85 274.04 233.322 273.901 232.881 273.624C232.443 273.346 232.105 272.965 231.867 272.481C231.633 271.993 231.516 271.438 231.516 270.817C231.516 270.188 231.639 269.629 231.885 269.141C232.131 268.653 232.471 268.27 232.904 267.993C233.338 267.711 233.836 267.571 234.398 267.571C234.984 267.571 235.492 267.708 235.922 267.981C236.355 268.254 236.691 268.635 236.93 269.124C237.168 269.608 237.287 270.168 237.287 270.805V271.139H232.734C232.758 271.698 232.918 272.149 233.215 272.493C233.516 272.836 233.938 273.008 234.48 273.008C234.887 273.008 235.221 272.917 235.482 272.733C235.744 272.549 235.918 272.311 236.004 272.018H237.193C237.119 272.417 236.953 272.768 236.695 273.073C236.441 273.377 236.121 273.616 235.734 273.788C235.352 273.956 234.928 274.04 234.463 274.04ZM232.746 270.202H236.08C236.029 269.709 235.855 269.321 235.559 269.036C235.262 268.747 234.879 268.602 234.41 268.602C233.941 268.602 233.559 268.747 233.262 269.036C232.969 269.321 232.797 269.709 232.746 270.202ZM239.596 270.336V273.899H238.359V267.711H239.572V268.643C239.994 267.94 240.617 267.588 241.441 267.588C241.867 267.588 242.248 267.682 242.584 267.87C242.924 268.053 243.191 268.327 243.387 268.69C243.582 269.053 243.68 269.504 243.68 270.043V273.899H242.443V270.196C242.443 269.7 242.324 269.327 242.086 269.077C241.848 268.823 241.516 268.696 241.09 268.696C240.668 268.696 240.312 268.827 240.023 269.088C239.738 269.346 239.596 269.762 239.596 270.336ZM247.453 274.022C246.914 274.022 246.443 273.887 246.041 273.618C245.639 273.344 245.326 272.967 245.104 272.487C244.881 272.002 244.77 271.442 244.77 270.805C244.77 270.168 244.881 269.61 245.104 269.129C245.33 268.645 245.645 268.268 246.047 267.999C246.449 267.725 246.916 267.588 247.447 267.588C247.85 267.588 248.217 267.672 248.549 267.84C248.881 268.008 249.146 268.264 249.346 268.608H249.357V265.168H250.594V273.899H249.381V272.956H249.369C249.162 273.315 248.891 273.583 248.555 273.758C248.223 273.934 247.855 274.022 247.453 274.022ZM247.705 272.956C248.232 272.956 248.652 272.76 248.965 272.37C249.281 271.975 249.439 271.454 249.439 270.805C249.439 270.153 249.281 269.631 248.965 269.241C248.652 268.846 248.232 268.649 247.705 268.649C247.205 268.649 246.799 268.834 246.486 269.206C246.178 269.573 246.023 270.106 246.023 270.805C246.023 271.504 246.178 272.038 246.486 272.405C246.799 272.772 247.205 272.956 247.705 272.956ZM254.947 273.899V265.168H258.182C259.115 265.168 259.855 265.413 260.402 265.901C260.949 266.389 261.223 267.051 261.223 267.887C261.223 268.446 261.096 268.93 260.842 269.34C260.588 269.747 260.23 270.061 259.77 270.284C259.309 270.502 258.766 270.612 258.141 270.612H256.248V273.899H254.947ZM256.248 269.487H258.117C258.68 269.487 259.123 269.344 259.447 269.059C259.775 268.77 259.939 268.379 259.939 267.887C259.939 267.395 259.775 267.008 259.447 266.727C259.123 266.442 258.68 266.299 258.117 266.299H256.248V269.487ZM266.057 274.04C265.283 274.04 264.594 273.85 263.988 273.471C263.383 273.092 262.906 272.565 262.559 271.889C262.215 271.213 262.043 270.43 262.043 269.54C262.043 268.645 262.215 267.86 262.559 267.184C262.906 266.504 263.383 265.975 263.988 265.596C264.594 265.217 265.283 265.028 266.057 265.028C266.834 265.028 267.525 265.217 268.131 265.596C268.736 265.975 269.211 266.504 269.555 267.184C269.902 267.86 270.076 268.645 270.076 269.54C270.076 270.43 269.902 271.213 269.555 271.889C269.211 272.565 268.736 273.092 268.131 273.471C267.525 273.85 266.834 274.04 266.057 274.04ZM266.057 272.85C266.561 272.85 267.018 272.723 267.428 272.469C267.838 272.211 268.164 271.836 268.406 271.344C268.648 270.848 268.77 270.247 268.77 269.54C268.77 268.829 268.648 268.225 268.406 267.729C268.164 267.233 267.838 266.858 267.428 266.604C267.018 266.346 266.561 266.217 266.057 266.217C265.557 266.217 265.102 266.346 264.691 266.604C264.281 266.858 263.955 267.233 263.713 267.729C263.471 268.225 263.35 268.829 263.35 269.54C263.35 270.247 263.471 270.848 263.713 271.344C263.955 271.836 264.281 272.211 264.691 272.469C265.102 272.723 265.557 272.85 266.057 272.85ZM275.912 273.899L273.557 267.711H274.881L276.111 271.104C276.197 271.346 276.279 271.588 276.357 271.831C276.436 272.073 276.514 272.313 276.592 272.551C276.67 272.313 276.748 272.073 276.826 271.831C276.904 271.588 276.984 271.346 277.066 271.104L278.279 267.711H279.586L277.225 273.899H275.912ZM280.43 273.899V267.711H281.666V273.899H280.43ZM281.045 266.645C280.826 266.645 280.641 266.573 280.488 266.428C280.34 266.28 280.266 266.1 280.266 265.889C280.266 265.674 280.34 265.495 280.488 265.35C280.641 265.202 280.826 265.127 281.045 265.127C281.264 265.127 281.449 265.202 281.602 265.35C281.754 265.495 281.83 265.674 281.83 265.889C281.83 266.1 281.754 266.28 281.602 266.428C281.449 266.573 281.264 266.645 281.045 266.645ZM284.953 273.999C284.336 273.999 283.824 273.842 283.418 273.53C283.012 273.213 282.809 272.747 282.809 272.129C282.809 271.661 282.924 271.301 283.154 271.051C283.389 270.797 283.691 270.616 284.062 270.506C284.438 270.397 284.834 270.317 285.252 270.266C285.639 270.219 285.945 270.18 286.172 270.149C286.398 270.118 286.559 270.071 286.652 270.008C286.75 269.946 286.799 269.838 286.799 269.686V269.633C286.799 269.333 286.689 269.086 286.471 268.895C286.252 268.7 285.945 268.602 285.551 268.602C285.156 268.602 284.834 268.698 284.584 268.889C284.334 269.077 284.197 269.313 284.174 269.598H282.961C282.988 269.008 283.236 268.526 283.705 268.151C284.174 267.776 284.795 267.588 285.568 267.588C286.33 267.588 286.93 267.776 287.367 268.151C287.805 268.526 288.023 269.028 288.023 269.657V273.899H286.805V273.02H286.781C286.652 273.27 286.447 273.497 286.166 273.7C285.889 273.899 285.484 273.999 284.953 273.999ZM285.205 273.002C285.752 273.002 286.154 272.862 286.412 272.581C286.674 272.295 286.805 271.963 286.805 271.584V270.858C286.723 270.924 286.537 270.985 286.248 271.04C285.959 271.09 285.65 271.139 285.322 271.186C284.982 271.237 284.684 271.333 284.426 271.473C284.168 271.614 284.039 271.84 284.039 272.153C284.039 272.418 284.143 272.627 284.35 272.78C284.561 272.928 284.846 273.002 285.205 273.002ZM292.377 273.899V265.168H298.248V266.311H293.678V268.883H297.908V270.014H293.678V272.756H298.248V273.899H292.377ZM299.344 273.899V267.711H300.545V268.749C300.736 268.366 300.996 268.077 301.324 267.881C301.652 267.686 302.008 267.588 302.391 267.588C302.812 267.588 303.182 267.696 303.498 267.911C303.818 268.125 304.043 268.399 304.172 268.731C304.34 268.395 304.594 268.122 304.934 267.911C305.277 267.696 305.678 267.588 306.135 267.588C306.518 267.588 306.865 267.672 307.178 267.84C307.49 268.008 307.738 268.258 307.922 268.59C308.105 268.918 308.197 269.331 308.197 269.827V273.899H306.955V269.932C306.955 269.491 306.832 269.17 306.586 268.971C306.34 268.772 306.049 268.672 305.713 268.672C305.299 268.672 304.973 268.801 304.734 269.059C304.496 269.313 304.377 269.637 304.377 270.032V273.899H303.158V269.85C303.158 269.495 303.043 269.209 302.812 268.995C302.586 268.78 302.297 268.672 301.945 268.672C301.586 268.672 301.268 268.799 300.99 269.053C300.717 269.307 300.58 269.678 300.58 270.167V273.899H299.344ZM311.484 273.999C310.867 273.999 310.355 273.842 309.949 273.53C309.543 273.213 309.34 272.747 309.34 272.129C309.34 271.661 309.455 271.301 309.686 271.051C309.92 270.797 310.223 270.616 310.594 270.506C310.969 270.397 311.365 270.317 311.783 270.266C312.17 270.219 312.477 270.18 312.703 270.149C312.93 270.118 313.09 270.071 313.184 270.008C313.281 269.946 313.33 269.838 313.33 269.686V269.633C313.33 269.333 313.221 269.086 313.002 268.895C312.783 268.7 312.477 268.602 312.082 268.602C311.688 268.602 311.365 268.698 311.115 268.889C310.865 269.077 310.729 269.313 310.705 269.598H309.492C309.52 269.008 309.768 268.526 310.236 268.151C310.705 267.776 311.326 267.588 312.1 267.588C312.861 267.588 313.461 267.776 313.898 268.151C314.336 268.526 314.555 269.028 314.555 269.657V273.899H313.336V273.02H313.312C313.184 273.27 312.979 273.497 312.697 273.7C312.42 273.899 312.016 273.999 311.484 273.999ZM311.736 273.002C312.283 273.002 312.686 272.862 312.943 272.581C313.205 272.295 313.336 271.963 313.336 271.584V270.858C313.254 270.924 313.068 270.985 312.779 271.04C312.49 271.09 312.182 271.139 311.854 271.186C311.514 271.237 311.215 271.333 310.957 271.473C310.699 271.614 310.57 271.84 310.57 272.153C310.57 272.418 310.674 272.627 310.881 272.78C311.092 272.928 311.377 273.002 311.736 273.002ZM315.949 273.899V267.711H317.186V273.899H315.949ZM316.564 266.645C316.346 266.645 316.16 266.573 316.008 266.428C315.859 266.28 315.785 266.1 315.785 265.889C315.785 265.674 315.859 265.495 316.008 265.35C316.16 265.202 316.346 265.127 316.564 265.127C316.783 265.127 316.969 265.202 317.121 265.35C317.273 265.495 317.35 265.674 317.35 265.889C317.35 266.1 317.273 266.28 317.121 266.428C316.969 266.573 316.783 266.645 316.564 266.645ZM319.822 265.168V273.899H318.586V265.168H319.822Z" fill="white"/>
<g clipPath="url(#clip4_2200_2728)">
<path d="M330.6 269.399H339.4" stroke="white" stroke-width="1.5" stroke-linecap="round" stroke-linejoin="round"/>
<path d="M335.799 265.799L339.399 269.399L335.799 272.999" stroke="white" stroke-width="1.5" stroke-linecap="round" stroke-linejoin="round"/>
</g>
</g>
</g>
<rect x="91" y="59.8989" width="383" height="241" rx="12" stroke="#E5E5E5"/>
</g>
<defs>
<filter id="filter0_d_2200_2728" x="70.5" y="39.3989" width="424" height="282" filterUnits="userSpaceOnUse" color-interpolation-filters="sRGB">
<feFlood flood-opacity="0" result="BackgroundImageFix"/>
<feColorMatrix in="SourceAlpha" type="matrix" values="0 0 0 0 0 0 0 0 0 0 0 0 0 0 0 0 0 0 127 0" result="hardAlpha"/>
<feOffset/>
<feGaussianBlur stdDeviation="10"/>
<feComposite in2="hardAlpha" operator="out"/>
<feColorMatrix type="matrix" values="0 0 0 0 0 0 0 0 0 0 0 0 0 0 0 0 0 0 0.04 0"/>
<feBlend mode="normal" in2="BackgroundImageFix" result="effect1_dropShadow_2200_2728"/>
<feBlend mode="normal" in="SourceGraphic" in2="effect1_dropShadow_2200_2728" result="shape"/>
</filter>
<filter id="filter1_i_2200_2728" x="103" y="249.899" width="359" height="39" filterUnits="userSpaceOnUse" color-interpolation-filters="sRGB">
<feFlood flood-opacity="0" result="BackgroundImageFix"/>
<feBlend mode="normal" in="SourceGraphic" in2="BackgroundImageFix" result="shape"/>
<feColorMatrix in="SourceAlpha" type="matrix" values="0 0 0 0 0 0 0 0 0 0 0 0 0 0 0 0 0 0 127 0" result="hardAlpha"/>
<feOffset dy="-2"/>
<feComposite in2="hardAlpha" operator="arithmetic" k2="-1" k3="1"/>
<feColorMatrix type="matrix" values="0 0 0 0 0.914756 0 0 0 0 0.190557 0 0 0 0 0.0660133 0 0 0 1 0"/>
<feBlend mode="normal" in2="shape" result="effect1_innerShadow_2200_2728"/>
</filter>
<clipPath id="clip0_2200_2728">
<rect x="91" y="59.8989" width="383" height="241" rx="12" fill="white"/>
</clipPath>
<clipPath id="clip1_2200_2728">
<rect width="12" height="12" fill="white" transform="translate(393 78.3989)"/>
</clipPath>
<clipPath id="clip2_2200_2728">
<rect width="12" height="12" fill="white" transform="translate(430 163.899)"/>
</clipPath>
<clipPath id="clip3_2200_2728">
<rect width="12" height="12" fill="white" transform="translate(430 211.899)"/>
</clipPath>
<clipPath id="clip4_2200_2728">
<rect width="12.8" height="12.8" fill="white" transform="translate(328.6 262.999)"/>
</clipPath>
</defs>
</svg>
