<svg width="566" height="360" viewBox="0 0 566 360" fill="none" xmlns="http://www.w3.org/2000/svg">
<rect width="566" height="360" rx="16" fill="black" fill-opacity="0.04"/>
<g filter="url(#filter0_d_2200_2587)">
<g clip-path="url(#clip0_2200_2587)">
<rect x="93" y="58.8984" width="380" height="242" rx="12" fill="white"/>
<path d="M109.457 91.0625C108.236 91.0625 107.272 90.7549 106.565 90.1396C105.864 89.5199 105.513 88.6722 105.513 87.5967H107.03C107.035 88.2666 107.249 88.7907 107.673 89.1689C108.101 89.5472 108.696 89.7363 109.457 89.7363C110.15 89.7363 110.703 89.5905 111.118 89.2988C111.537 89.0026 111.747 88.6061 111.747 88.1094C111.747 87.7174 111.597 87.4007 111.296 87.1592C111 86.9131 110.498 86.7057 109.792 86.5371L108.678 86.2705C107.648 86.0244 106.896 85.6826 106.422 85.2451C105.952 84.8031 105.718 84.2288 105.718 83.5225C105.718 82.9255 105.868 82.4036 106.169 81.957C106.47 81.5104 106.891 81.1641 107.434 80.918C107.98 80.6719 108.618 80.5488 109.348 80.5488C110.446 80.5488 111.319 80.8359 111.966 81.4102C112.618 81.9844 112.959 82.7682 112.991 83.7617H111.521C111.485 83.1738 111.271 82.7135 110.879 82.3809C110.487 82.0436 109.97 81.875 109.327 81.875C108.712 81.875 108.208 82.0231 107.816 82.3193C107.424 82.611 107.229 82.987 107.229 83.4473C107.229 83.8164 107.379 84.1172 107.68 84.3496C107.98 84.5775 108.479 84.7757 109.177 84.9443L110.277 85.2041C111.298 85.4456 112.05 85.7943 112.533 86.25C113.021 86.7057 113.265 87.2982 113.265 88.0273C113.265 88.638 113.107 89.1712 112.793 89.627C112.479 90.0827 112.036 90.4359 111.467 90.6865C110.897 90.9372 110.227 91.0625 109.457 91.0625ZM114.591 90.8984V83.6797H116.033V90.8984H114.591ZM115.309 82.4355C115.053 82.4355 114.837 82.3512 114.659 82.1826C114.486 82.0094 114.399 81.7998 114.399 81.5537C114.399 81.3031 114.486 81.0934 114.659 80.9248C114.837 80.7516 115.053 80.665 115.309 80.665C115.564 80.665 115.78 80.7516 115.958 80.9248C116.136 81.0934 116.225 81.3031 116.225 81.5537C116.225 81.7998 116.136 82.0094 115.958 82.1826C115.78 82.3512 115.564 82.4355 115.309 82.4355ZM120.818 93.8516C119.934 93.8516 119.212 93.6556 118.651 93.2637C118.091 92.8717 117.763 92.3226 117.667 91.6162H119.109C119.201 91.9671 119.399 92.2314 119.704 92.4092C120.009 92.5869 120.381 92.6758 120.818 92.6758C121.402 92.6758 121.857 92.5186 122.186 92.2041C122.514 91.8896 122.678 91.4408 122.678 90.8574V89.7637H122.671C122.42 90.1829 122.104 90.4928 121.721 90.6934C121.342 90.8939 120.916 90.9941 120.442 90.9941C119.813 90.9941 119.264 90.8369 118.795 90.5225C118.326 90.2035 117.961 89.766 117.701 89.21C117.441 88.6494 117.312 88.0023 117.312 87.2686C117.312 86.5348 117.441 85.8877 117.701 85.3271C117.965 84.7666 118.332 84.3291 118.802 84.0146C119.271 83.6956 119.816 83.5361 120.436 83.5361C120.905 83.5361 121.336 83.6364 121.728 83.8369C122.119 84.0374 122.436 84.3519 122.678 84.7803H122.685V83.6797H124.106V90.8027C124.106 91.5319 123.958 92.1198 123.662 92.5664C123.366 93.013 122.969 93.3389 122.473 93.5439C121.976 93.749 121.424 93.8516 120.818 93.8516ZM120.736 89.7568C121.352 89.7568 121.841 89.5312 122.206 89.0801C122.575 88.6243 122.76 88.0182 122.76 87.2617C122.76 86.5052 122.575 85.9014 122.206 85.4502C121.841 84.9945 121.352 84.7666 120.736 84.7666C120.153 84.7666 119.679 84.9808 119.314 85.4092C118.954 85.833 118.774 86.4505 118.774 87.2617C118.774 88.0729 118.954 88.6927 119.314 89.1211C119.679 89.5449 120.153 89.7568 120.736 89.7568ZM127.176 86.7422V90.8984H125.733V83.6797H127.148V84.7666C127.641 83.9463 128.368 83.5361 129.329 83.5361C129.826 83.5361 130.27 83.6455 130.662 83.8643C131.059 84.0785 131.371 84.3975 131.599 84.8213C131.826 85.2451 131.94 85.7715 131.94 86.4004V90.8984H130.498V86.5781C130.498 85.9993 130.359 85.5641 130.081 85.2725C129.803 84.9762 129.416 84.8281 128.919 84.8281C128.427 84.8281 128.012 84.9808 127.675 85.2861C127.342 85.5869 127.176 86.0723 127.176 86.7422ZM135.769 91.0146C135.049 91.0146 134.451 90.8324 133.978 90.4678C133.504 90.0986 133.267 89.554 133.267 88.834C133.267 88.2871 133.401 87.8678 133.67 87.5762C133.943 87.2799 134.297 87.068 134.729 86.9404C135.167 86.8128 135.63 86.7194 136.117 86.6602C136.568 86.6055 136.926 86.5599 137.19 86.5234C137.455 86.487 137.642 86.4323 137.751 86.3594C137.865 86.2865 137.922 86.1611 137.922 85.9834V85.9219C137.922 85.571 137.794 85.2839 137.539 85.0605C137.284 84.8327 136.926 84.7188 136.466 84.7188C136.006 84.7188 135.63 84.8304 135.338 85.0537C135.046 85.2725 134.887 85.5482 134.859 85.8809H133.444C133.476 85.1927 133.766 84.6299 134.312 84.1924C134.859 83.7549 135.584 83.5361 136.486 83.5361C137.375 83.5361 138.075 83.7549 138.585 84.1924C139.095 84.6299 139.351 85.2155 139.351 85.9492V90.8984H137.929V89.873H137.901C137.751 90.1647 137.512 90.429 137.184 90.666C136.86 90.8984 136.388 91.0146 135.769 91.0146ZM136.062 89.8525C136.701 89.8525 137.17 89.6885 137.471 89.3604C137.776 89.0277 137.929 88.6403 137.929 88.1982V87.3506C137.833 87.4281 137.617 87.4987 137.279 87.5625C136.942 87.6217 136.582 87.6787 136.199 87.7334C135.803 87.7926 135.454 87.9043 135.153 88.0684C134.853 88.2324 134.702 88.4967 134.702 88.8613C134.702 89.1712 134.823 89.415 135.064 89.5928C135.311 89.766 135.643 89.8525 136.062 89.8525ZM144.457 83.6797V84.8691H142.994V88.9912C142.994 89.2601 143.049 89.4469 143.158 89.5518C143.268 89.6566 143.466 89.709 143.753 89.709H144.457V90.8984H143.548C142.213 90.8984 141.545 90.3242 141.545 89.1758V84.8691H140.273V83.6797H141.545V81.7109H142.994V83.6797H144.457ZM148.21 91.042C147.718 91.042 147.273 90.9349 146.877 90.7207C146.485 90.502 146.173 90.1807 145.94 89.7568C145.713 89.333 145.599 88.8066 145.599 88.1777V83.6797H147.041V88C147.041 88.5788 147.18 89.0163 147.458 89.3125C147.736 89.6042 148.126 89.75 148.627 89.75C149.115 89.75 149.525 89.5996 149.857 89.2988C150.195 88.9935 150.363 88.5059 150.363 87.8359V83.6797H151.806V90.8984H150.391V89.8115C149.898 90.6318 149.172 91.042 148.21 91.042ZM153.433 90.8984V83.6797H154.813V84.8486H154.841C154.973 84.4521 155.18 84.1445 155.463 83.9258C155.75 83.7025 156.124 83.5908 156.584 83.5908C156.693 83.5908 156.794 83.5954 156.885 83.6045C156.976 83.6136 157.051 83.6204 157.11 83.625V84.9717C157.056 84.958 156.958 84.9443 156.816 84.9307C156.675 84.9124 156.52 84.9033 156.352 84.9033C155.946 84.9033 155.597 85.0446 155.306 85.3271C155.019 85.6097 154.875 86.0449 154.875 86.6328V90.8984H153.433ZM161.164 91.0625C160.449 91.0625 159.833 90.9007 159.318 90.5771C158.808 90.2536 158.414 89.8092 158.136 89.2441C157.862 88.6745 157.726 88.0273 157.726 87.3027C157.726 86.569 157.869 85.9173 158.156 85.3477C158.443 84.778 158.84 84.3314 159.346 84.0078C159.852 83.6797 160.433 83.5156 161.089 83.5156C161.772 83.5156 162.365 83.6751 162.866 83.9941C163.372 84.3132 163.764 84.7575 164.042 85.3271C164.32 85.8923 164.459 86.5462 164.459 87.2891V87.6787H159.147C159.175 88.3304 159.362 88.8568 159.708 89.2578C160.059 89.6589 160.551 89.8594 161.185 89.8594C161.659 89.8594 162.048 89.7523 162.354 89.5381C162.659 89.3239 162.862 89.0459 162.962 88.7041H164.35C164.263 89.1689 164.069 89.5791 163.769 89.9346C163.472 90.29 163.099 90.568 162.647 90.7686C162.201 90.9645 161.706 91.0625 161.164 91.0625ZM159.161 86.585H163.051C162.992 86.0107 162.789 85.5573 162.442 85.2246C162.096 84.8874 161.649 84.7188 161.103 84.7188C160.556 84.7188 160.109 84.8874 159.763 85.2246C159.421 85.5573 159.22 86.0107 159.161 86.585ZM169.162 90.8984V80.7129H173.038C174.127 80.7129 174.991 80.9977 175.629 81.5674C176.267 82.137 176.586 82.9095 176.586 83.8848C176.586 84.5957 176.404 85.2018 176.039 85.7031C175.674 86.1999 175.175 86.5622 174.542 86.79L176.743 90.8984H175.034L173.004 87.043C172.981 87.043 172.958 87.043 172.936 87.043H170.68V90.8984H169.162ZM170.68 85.751H172.977C173.633 85.751 174.148 85.5846 174.521 85.252C174.9 84.9147 175.089 84.459 175.089 83.8848C175.089 83.3105 174.9 82.8571 174.521 82.5244C174.143 82.1917 173.626 82.0254 172.97 82.0254H170.68V85.751ZM177.987 90.8984V83.6797H179.43V90.8984H177.987ZM178.705 82.4355C178.45 82.4355 178.233 82.3512 178.056 82.1826C177.882 82.0094 177.796 81.7998 177.796 81.5537C177.796 81.3031 177.882 81.0934 178.056 80.9248C178.233 80.7516 178.45 80.665 178.705 80.665C178.96 80.665 179.177 80.7516 179.354 80.9248C179.532 81.0934 179.621 81.3031 179.621 81.5537C179.621 81.7998 179.532 82.0094 179.354 82.1826C179.177 82.3512 178.96 82.4355 178.705 82.4355ZM184.728 91.042C184.258 91.042 183.827 90.9395 183.436 90.7344C183.048 90.5293 182.734 90.2171 182.492 89.7979H182.479V90.8984H181.063V80.7129H182.506V84.7256H182.52C182.752 84.3245 183.062 84.026 183.449 83.8301C183.837 83.6341 184.265 83.5361 184.734 83.5361C185.354 83.5361 185.899 83.6956 186.368 84.0146C186.838 84.3291 187.202 84.7689 187.462 85.334C187.726 85.8945 187.858 86.5462 187.858 87.2891C187.858 88.0319 187.729 88.6859 187.469 89.251C187.209 89.8115 186.844 90.2513 186.375 90.5703C185.906 90.8848 185.356 91.042 184.728 91.042ZM184.434 89.7979C185.017 89.7979 185.489 89.5837 185.849 89.1553C186.213 88.7269 186.396 88.1048 186.396 87.2891C186.396 86.4733 186.213 85.8512 185.849 85.4229C185.489 84.9899 185.017 84.7734 184.434 84.7734C183.818 84.7734 183.326 85.0036 182.957 85.4639C182.592 85.9196 182.41 86.528 182.41 87.2891C182.41 88.0456 182.592 88.654 182.957 89.1143C183.326 89.57 183.818 89.7979 184.434 89.7979ZM192.213 91.0625C191.497 91.0625 190.882 90.9007 190.367 90.5771C189.857 90.2536 189.463 89.8092 189.185 89.2441C188.911 88.6745 188.774 88.0273 188.774 87.3027C188.774 86.569 188.918 85.9173 189.205 85.3477C189.492 84.778 189.889 84.3314 190.395 84.0078C190.9 83.6797 191.481 83.5156 192.138 83.5156C192.821 83.5156 193.414 83.6751 193.915 83.9941C194.421 84.3132 194.813 84.7575 195.091 85.3271C195.369 85.8923 195.508 86.5462 195.508 87.2891V87.6787H190.196C190.224 88.3304 190.41 88.8568 190.757 89.2578C191.108 89.6589 191.6 89.8594 192.233 89.8594C192.707 89.8594 193.097 89.7523 193.402 89.5381C193.708 89.3239 193.91 89.0459 194.011 88.7041H195.398C195.312 89.1689 195.118 89.5791 194.817 89.9346C194.521 90.29 194.147 90.568 193.696 90.7686C193.25 90.9645 192.755 91.0625 192.213 91.0625ZM190.21 86.585H194.1C194.04 86.0107 193.838 85.5573 193.491 85.2246C193.145 84.8874 192.698 84.7188 192.151 84.7188C191.604 84.7188 191.158 84.8874 190.812 85.2246C190.47 85.5573 190.269 86.0107 190.21 86.585ZM196.581 93.7559V92.5391H197.36C197.588 92.5391 197.773 92.473 197.914 92.3408C198.06 92.2132 198.188 92.0013 198.297 91.7051L198.625 90.8506L195.836 83.6797H197.381L198.823 87.6377C198.919 87.9066 199.012 88.1777 199.104 88.4512C199.195 88.7201 199.284 88.9889 199.37 89.2578C199.457 88.9889 199.546 88.7201 199.637 88.4512C199.732 88.1777 199.828 87.9066 199.924 87.6377L201.346 83.6797H202.87L199.589 92.1631C199.183 93.2249 198.486 93.7559 197.497 93.7559H196.581ZM206.664 91.0625C205.949 91.0625 205.333 90.9007 204.818 90.5771C204.308 90.2536 203.914 89.8092 203.636 89.2441C203.362 88.6745 203.226 88.0273 203.226 87.3027C203.226 86.569 203.369 85.9173 203.656 85.3477C203.943 84.778 204.34 84.3314 204.846 84.0078C205.352 83.6797 205.933 83.5156 206.589 83.5156C207.272 83.5156 207.865 83.6751 208.366 83.9941C208.872 84.3132 209.264 84.7575 209.542 85.3271C209.82 85.8923 209.959 86.5462 209.959 87.2891V87.6787H204.647C204.675 88.3304 204.862 88.8568 205.208 89.2578C205.559 89.6589 206.051 89.8594 206.685 89.8594C207.159 89.8594 207.548 89.7523 207.854 89.5381C208.159 89.3239 208.362 89.0459 208.462 88.7041H209.85C209.763 89.1689 209.569 89.5791 209.269 89.9346C208.972 90.29 208.599 90.568 208.147 90.7686C207.701 90.9645 207.206 91.0625 206.664 91.0625ZM204.661 86.585H208.551C208.492 86.0107 208.289 85.5573 207.942 85.2246C207.596 84.8874 207.149 84.7188 206.603 84.7188C206.056 84.7188 205.609 84.8874 205.263 85.2246C204.921 85.5573 204.72 86.0107 204.661 86.585Z" fill="black"/>
<rect x="388" y="70.8984" width="73" height="29" rx="6" fill="#1A1A1A"/>
<g clip-path="url(#clip1_2200_2587)">
<path d="M414.208 81.9839L411.414 79.1914C411.322 79.0985 411.211 79.0248 411.09 78.9746C410.969 78.9243 410.839 78.8984 410.707 78.8984C410.576 78.8984 410.446 78.9243 410.324 78.9746C410.203 79.0248 410.093 79.0985 410 79.1914L402.293 86.8983C402.2 86.9908 402.126 87.1009 402.076 87.2223C402.025 87.3436 402 87.4738 402 87.6052V90.3983C402 90.6635 402.105 90.9179 402.293 91.1054C402.48 91.2929 402.735 91.3983 403 91.3983H413.5C413.633 91.3983 413.76 91.3456 413.854 91.2518C413.947 91.1581 414 91.0309 414 90.8983C414 90.7657 413.947 90.6385 413.854 90.5447C413.76 90.451 413.633 90.3983 413.5 90.3983H407.208L414.208 83.3983C414.3 83.3054 414.374 83.1952 414.424 83.0738C414.475 82.9525 414.5 82.8224 414.5 82.6911C414.5 82.5598 414.475 82.4297 414.424 82.3084C414.374 82.187 414.3 82.0768 414.208 81.9839ZM412 84.1914L409.208 81.3983L410.708 79.8983L413.5 82.6914L412 84.1914Z" fill="white"/>
</g>
<path d="M424.93 90.8984V80.7129H431.779V82.0459H426.447V85.0469H431.383V86.3662H426.447V89.5654H431.779V90.8984H424.93ZM435.833 91.042C435.204 91.042 434.655 90.8848 434.186 90.5703C433.716 90.2513 433.352 89.8115 433.092 89.251C432.832 88.6859 432.702 88.0319 432.702 87.2891C432.702 86.5462 432.832 85.8945 433.092 85.334C433.356 84.7689 433.723 84.3291 434.192 84.0146C434.662 83.6956 435.206 83.5361 435.826 83.5361C436.296 83.5361 436.724 83.6341 437.111 83.8301C437.499 84.026 437.809 84.3245 438.041 84.7256H438.055V80.7129H439.497V90.8984H438.082V89.7979H438.068C437.827 90.2171 437.51 90.5293 437.118 90.7344C436.731 90.9395 436.302 91.042 435.833 91.042ZM436.127 89.7979C436.742 89.7979 437.232 89.57 437.597 89.1143C437.966 88.654 438.15 88.0456 438.15 87.2891C438.15 86.528 437.966 85.9196 437.597 85.4639C437.232 85.0036 436.742 84.7734 436.127 84.7734C435.544 84.7734 435.07 84.9899 434.705 85.4229C434.345 85.8512 434.165 86.4733 434.165 87.2891C434.165 88.1048 434.345 88.7269 434.705 89.1553C435.07 89.5837 435.544 89.7979 436.127 89.7979ZM441.124 90.8984V83.6797H442.566V90.8984H441.124ZM441.842 82.4355C441.587 82.4355 441.37 82.3512 441.192 82.1826C441.019 82.0094 440.933 81.7998 440.933 81.5537C440.933 81.3031 441.019 81.0934 441.192 80.9248C441.37 80.7516 441.587 80.665 441.842 80.665C442.097 80.665 442.313 80.7516 442.491 80.9248C442.669 81.0934 442.758 81.3031 442.758 81.5537C442.758 81.7998 442.669 82.0094 442.491 82.1826C442.313 82.3512 442.097 82.4355 441.842 82.4355ZM447.803 83.6797V84.8691H446.34V88.9912C446.34 89.2601 446.395 89.4469 446.504 89.5518C446.613 89.6566 446.812 89.709 447.099 89.709H447.803V90.8984H446.894C445.558 90.8984 444.891 90.3242 444.891 89.1758V84.8691H443.619V83.6797H444.891V81.7109H446.34V83.6797H447.803Z" fill="white"/>
<path d="M105 111.898H461" stroke="#E5E5E5"/>
<rect x="105.3" y="124.198" width="355.4" height="39.4" rx="5.7" fill="black" fill-opacity="0.04"/>
<rect x="105.3" y="124.198" width="355.4" height="39.4" rx="5.7" stroke="#E5E5E5" stroke-width="0.6"/>
<path d="M121.797 148.398V139.668H125.061C125.959 139.668 126.658 139.877 127.158 140.295C127.662 140.709 127.914 141.266 127.914 141.965C127.914 142.465 127.783 142.871 127.521 143.184C127.264 143.496 126.906 143.723 126.449 143.863V143.875C126.957 143.945 127.385 144.152 127.732 144.496C128.084 144.84 128.26 145.322 128.26 145.943C128.26 146.686 128 147.281 127.48 147.73C126.965 148.176 126.191 148.398 125.16 148.398H121.797ZM123.086 147.303H125.078C125.672 147.303 126.129 147.188 126.449 146.957C126.773 146.723 126.936 146.383 126.936 145.938C126.936 145.496 126.777 145.146 126.461 144.889C126.148 144.631 125.703 144.502 125.125 144.502H123.086V147.303ZM123.086 143.43H125.043C125.539 143.43 125.926 143.311 126.203 143.072C126.484 142.834 126.625 142.51 126.625 142.1C126.625 141.689 126.484 141.365 126.203 141.127C125.926 140.885 125.539 140.764 125.043 140.764H123.086V143.43ZM132.027 148.539C131.414 148.539 130.887 148.4 130.445 148.123C130.008 147.846 129.67 147.465 129.432 146.98C129.197 146.492 129.08 145.938 129.08 145.316C129.08 144.688 129.203 144.129 129.449 143.641C129.695 143.152 130.035 142.77 130.469 142.492C130.902 142.211 131.4 142.07 131.963 142.07C132.549 142.07 133.057 142.207 133.486 142.48C133.92 142.754 134.256 143.135 134.494 143.623C134.732 144.107 134.852 144.668 134.852 145.305V145.639H130.299C130.322 146.197 130.482 146.648 130.779 146.992C131.08 147.336 131.502 147.508 132.045 147.508C132.451 147.508 132.785 147.416 133.047 147.232C133.309 147.049 133.482 146.811 133.568 146.518H134.758C134.684 146.916 134.518 147.268 134.26 147.572C134.006 147.877 133.686 148.115 133.299 148.287C132.916 148.455 132.492 148.539 132.027 148.539ZM130.311 144.701H133.645C133.594 144.209 133.42 143.82 133.123 143.535C132.826 143.246 132.443 143.102 131.975 143.102C131.506 143.102 131.123 143.246 130.826 143.535C130.533 143.82 130.361 144.209 130.311 144.701ZM138.566 148.539C137.953 148.539 137.426 148.4 136.984 148.123C136.547 147.846 136.209 147.465 135.971 146.98C135.736 146.492 135.619 145.938 135.619 145.316C135.619 144.688 135.742 144.129 135.988 143.641C136.234 143.152 136.574 142.77 137.008 142.492C137.441 142.211 137.939 142.07 138.502 142.07C139.088 142.07 139.596 142.207 140.025 142.48C140.459 142.754 140.795 143.135 141.033 143.623C141.271 144.107 141.391 144.668 141.391 145.305V145.639H136.838C136.861 146.197 137.021 146.648 137.318 146.992C137.619 147.336 138.041 147.508 138.584 147.508C138.99 147.508 139.324 147.416 139.586 147.232C139.848 147.049 140.021 146.811 140.107 146.518H141.297C141.223 146.916 141.057 147.268 140.799 147.572C140.545 147.877 140.225 148.115 139.838 148.287C139.455 148.455 139.031 148.539 138.566 148.539ZM136.85 144.701H140.184C140.133 144.209 139.959 143.82 139.662 143.535C139.365 143.246 138.982 143.102 138.514 143.102C138.045 143.102 137.662 143.246 137.365 143.535C137.072 143.82 136.9 144.209 136.85 144.701ZM145.463 142.211V143.23H144.203V148.398H142.967V143.23H141.859V142.211H142.967V141.209C142.967 140.721 143.119 140.342 143.424 140.072C143.732 139.803 144.166 139.668 144.725 139.668H145.463V140.688H144.918C144.656 140.688 144.471 140.742 144.361 140.852C144.256 140.961 144.203 141.146 144.203 141.408V142.211H145.463ZM149.359 148.398V139.668H152.682C153.615 139.668 154.355 139.912 154.902 140.4C155.449 140.889 155.723 141.551 155.723 142.387C155.723 142.996 155.566 143.516 155.254 143.945C154.941 144.371 154.514 144.682 153.971 144.877L155.857 148.398H154.393L152.652 145.094C152.633 145.094 152.613 145.094 152.594 145.094H150.66V148.398H149.359ZM150.66 143.986H152.629C153.191 143.986 153.633 143.844 153.953 143.559C154.277 143.27 154.439 142.879 154.439 142.387C154.439 141.895 154.277 141.506 153.953 141.221C153.629 140.936 153.186 140.793 152.623 140.793H150.66V143.986ZM156.924 148.398V142.211H158.16V148.398H156.924ZM157.539 141.145C157.32 141.145 157.135 141.072 156.982 140.928C156.834 140.779 156.76 140.6 156.76 140.389C156.76 140.174 156.834 139.994 156.982 139.85C157.135 139.701 157.32 139.627 157.539 139.627C157.758 139.627 157.943 139.701 158.096 139.85C158.248 139.994 158.324 140.174 158.324 140.389C158.324 140.6 158.248 140.779 158.096 140.928C157.943 141.072 157.758 141.145 157.539 141.145ZM162.701 148.521C162.299 148.521 161.93 148.434 161.594 148.258C161.262 148.082 160.992 147.814 160.785 147.455H160.773V148.398H159.561V139.668H160.797V143.107H160.809C161.008 142.764 161.273 142.508 161.605 142.34C161.938 142.172 162.305 142.088 162.707 142.088C163.238 142.088 163.705 142.225 164.107 142.498C164.51 142.768 164.822 143.145 165.045 143.629C165.271 144.109 165.385 144.668 165.385 145.305C165.385 145.941 165.273 146.502 165.051 146.986C164.828 147.467 164.516 147.844 164.113 148.117C163.711 148.387 163.24 148.521 162.701 148.521ZM162.449 147.455C162.949 147.455 163.354 147.271 163.662 146.904C163.975 146.537 164.131 146.004 164.131 145.305C164.131 144.605 163.975 144.072 163.662 143.705C163.354 143.334 162.949 143.148 162.449 143.148C161.922 143.148 161.5 143.346 161.184 143.74C160.871 144.131 160.715 144.652 160.715 145.305C160.715 145.953 160.871 146.475 161.184 146.869C161.5 147.26 161.922 147.455 162.449 147.455ZM169.117 148.539C168.504 148.539 167.977 148.4 167.535 148.123C167.098 147.846 166.76 147.465 166.521 146.98C166.287 146.492 166.17 145.938 166.17 145.316C166.17 144.688 166.293 144.129 166.539 143.641C166.785 143.152 167.125 142.77 167.559 142.492C167.992 142.211 168.49 142.07 169.053 142.07C169.639 142.07 170.146 142.207 170.576 142.48C171.01 142.754 171.346 143.135 171.584 143.623C171.822 144.107 171.941 144.668 171.941 145.305V145.639H167.389C167.412 146.197 167.572 146.648 167.869 146.992C168.17 147.336 168.592 147.508 169.135 147.508C169.541 147.508 169.875 147.416 170.137 147.232C170.398 147.049 170.572 146.811 170.658 146.518H171.848C171.773 146.916 171.607 147.268 171.35 147.572C171.096 147.877 170.775 148.115 170.389 148.287C170.006 148.455 169.582 148.539 169.117 148.539ZM167.4 144.701H170.734C170.684 144.209 170.51 143.82 170.213 143.535C169.916 143.246 169.533 143.102 169.064 143.102C168.596 143.102 168.213 143.246 167.916 143.535C167.623 143.82 167.451 144.209 167.4 144.701ZM172.861 150.848V149.805H173.529C173.725 149.805 173.883 149.748 174.004 149.635C174.129 149.525 174.238 149.344 174.332 149.09L174.613 148.357L172.223 142.211H173.547L174.783 145.604C174.865 145.834 174.945 146.066 175.023 146.301C175.102 146.531 175.178 146.762 175.252 146.992C175.326 146.762 175.402 146.531 175.48 146.301C175.562 146.066 175.645 145.834 175.727 145.604L176.945 142.211H178.252L175.439 149.482C175.092 150.393 174.494 150.848 173.646 150.848H172.861ZM181.504 148.539C180.891 148.539 180.363 148.4 179.922 148.123C179.484 147.846 179.146 147.465 178.908 146.98C178.674 146.492 178.557 145.938 178.557 145.316C178.557 144.688 178.68 144.129 178.926 143.641C179.172 143.152 179.512 142.77 179.945 142.492C180.379 142.211 180.877 142.07 181.439 142.07C182.025 142.07 182.533 142.207 182.963 142.48C183.396 142.754 183.732 143.135 183.971 143.623C184.209 144.107 184.328 144.668 184.328 145.305V145.639H179.775C179.799 146.197 179.959 146.648 180.256 146.992C180.557 147.336 180.979 147.508 181.521 147.508C181.928 147.508 182.262 147.416 182.523 147.232C182.785 147.049 182.959 146.811 183.045 146.518H184.234C184.16 146.916 183.994 147.268 183.736 147.572C183.482 147.877 183.162 148.115 182.775 148.287C182.393 148.455 181.969 148.539 181.504 148.539ZM179.787 144.701H183.121C183.07 144.209 182.896 143.82 182.6 143.535C182.303 143.246 181.92 143.102 181.451 143.102C180.982 143.102 180.6 143.246 180.303 143.535C180.01 143.82 179.838 144.209 179.787 144.701Z" fill="#333333"/>
<path d="M386.486 148.398V147.367L389.627 144.566C389.959 144.266 390.236 143.996 390.459 143.758C390.682 143.516 390.848 143.277 390.957 143.043C391.07 142.809 391.127 142.545 391.127 142.252C391.127 141.756 390.979 141.363 390.682 141.074C390.385 140.781 389.98 140.635 389.469 140.635C388.914 140.635 388.482 140.807 388.174 141.15C387.865 141.494 387.711 141.961 387.711 142.551H386.498C386.498 141.953 386.619 141.428 386.861 140.975C387.107 140.521 387.451 140.168 387.893 139.914C388.338 139.656 388.861 139.527 389.463 139.527C390.025 139.527 390.523 139.641 390.957 139.867C391.391 140.09 391.73 140.402 391.977 140.805C392.227 141.203 392.352 141.666 392.352 142.193C392.352 142.775 392.191 143.301 391.871 143.77C391.551 144.234 391.076 144.748 390.447 145.311L388.256 147.279V147.291H392.398V148.398H386.486ZM396.4 148.521C395.818 148.521 395.299 148.406 394.842 148.176C394.389 147.941 394.025 147.621 393.752 147.215C393.482 146.805 393.336 146.338 393.312 145.814H394.584C394.623 146.283 394.811 146.67 395.146 146.975C395.486 147.275 395.906 147.426 396.406 147.426C396.934 147.426 397.359 147.248 397.684 146.893C398.012 146.537 398.176 146.082 398.176 145.527C398.176 144.977 398.018 144.523 397.701 144.168C397.385 143.809 396.973 143.629 396.465 143.629C396.02 143.629 395.637 143.721 395.316 143.904C394.996 144.084 394.773 144.346 394.648 144.689H393.424L393.711 139.668H398.932V140.781H394.877L394.684 143.354H394.695C395.207 142.811 395.861 142.539 396.658 142.539C397.189 142.539 397.662 142.668 398.076 142.926C398.494 143.18 398.822 143.531 399.061 143.98C399.303 144.426 399.424 144.934 399.424 145.504C399.424 146.094 399.297 146.615 399.043 147.068C398.793 147.521 398.441 147.877 397.988 148.135C397.535 148.393 397.006 148.521 396.4 148.521ZM403.654 148.539C402.979 148.539 402.395 148.355 401.902 147.988C401.414 147.621 401.037 147.102 400.771 146.43C400.506 145.754 400.373 144.957 400.373 144.039C400.373 143.117 400.506 142.318 400.771 141.643C401.037 140.967 401.414 140.445 401.902 140.078C402.395 139.711 402.979 139.527 403.654 139.527C404.326 139.527 404.906 139.711 405.395 140.078C405.887 140.445 406.266 140.967 406.531 141.643C406.797 142.318 406.93 143.117 406.93 144.039C406.93 144.957 406.797 145.754 406.531 146.43C406.266 147.102 405.887 147.621 405.395 147.988C404.906 148.355 404.326 148.539 403.654 148.539ZM403.654 147.432C404.287 147.432 404.785 147.131 405.148 146.529C405.516 145.924 405.699 145.094 405.699 144.039C405.699 142.98 405.516 142.148 405.148 141.543C404.785 140.938 404.287 140.635 403.654 140.635C403.018 140.635 402.516 140.938 402.148 141.543C401.785 142.148 401.604 142.98 401.604 144.039C401.604 145.094 401.785 145.924 402.148 146.529C402.516 147.131 403.018 147.432 403.654 147.432ZM410.809 150.93C410.051 150.93 409.432 150.762 408.951 150.426C408.471 150.09 408.189 149.619 408.107 149.014H409.344C409.422 149.314 409.592 149.541 409.854 149.693C410.115 149.846 410.434 149.922 410.809 149.922C411.309 149.922 411.699 149.787 411.98 149.518C412.262 149.248 412.402 148.863 412.402 148.363V147.426H412.396C412.182 147.785 411.91 148.051 411.582 148.223C411.258 148.395 410.893 148.48 410.486 148.48C409.947 148.48 409.477 148.346 409.074 148.076C408.672 147.803 408.359 147.428 408.137 146.951C407.914 146.471 407.803 145.916 407.803 145.287C407.803 144.658 407.914 144.104 408.137 143.623C408.363 143.143 408.678 142.768 409.08 142.498C409.482 142.225 409.949 142.088 410.48 142.088C410.883 142.088 411.252 142.174 411.588 142.346C411.924 142.518 412.195 142.787 412.402 143.154H412.408V142.211H413.627V148.316C413.627 148.941 413.5 149.445 413.246 149.828C412.992 150.211 412.652 150.49 412.227 150.666C411.801 150.842 411.328 150.93 410.809 150.93ZM410.738 147.42C411.266 147.42 411.686 147.227 411.998 146.84C412.314 146.449 412.473 145.93 412.473 145.281C412.473 144.633 412.314 144.115 411.998 143.729C411.686 143.338 411.266 143.143 410.738 143.143C410.238 143.143 409.832 143.326 409.52 143.693C409.211 144.057 409.057 144.586 409.057 145.281C409.057 145.977 409.211 146.508 409.52 146.875C409.832 147.238 410.238 147.42 410.738 147.42Z" fill="#333333"/>
<rect x="431" y="133.898" width="20" height="20" rx="6" fill="#EF5237"/>
<g clip-path="url(#clip2_2200_2587)">
<path d="M436.875 144.648L439.5 147.273L445.5 141.273" stroke="white" stroke-width="2" stroke-linecap="round" stroke-linejoin="round"/>
</g>
<rect x="105.3" y="172.198" width="355.4" height="39.4" rx="5.7" fill="black" fill-opacity="0.04"/>
<rect x="105.3" y="172.198" width="355.4" height="39.4" rx="5.7" stroke="#E5E5E5" stroke-width="0.6"/>
<path d="M125.219 196.539C124.52 196.539 123.91 196.406 123.391 196.141C122.875 195.871 122.473 195.5 122.184 195.027C121.898 194.555 121.756 194.016 121.756 193.41V187.668H123.051V193.305C123.051 193.902 123.244 194.395 123.631 194.781C124.021 195.168 124.551 195.361 125.219 195.361C125.891 195.361 126.42 195.168 126.807 194.781C127.197 194.395 127.393 193.902 127.393 193.305V187.668H128.688V193.41C128.688 194.016 128.543 194.555 128.254 195.027C127.969 195.5 127.566 195.871 127.047 196.141C126.527 196.406 125.918 196.539 125.219 196.539ZM131.383 192.836V196.398H130.146V190.211H131.359V191.143C131.781 190.439 132.404 190.088 133.229 190.088C133.654 190.088 134.035 190.182 134.371 190.369C134.711 190.553 134.979 190.826 135.174 191.189C135.369 191.553 135.467 192.004 135.467 192.543V196.398H134.23V192.695C134.23 192.199 134.111 191.826 133.873 191.576C133.635 191.322 133.303 191.195 132.877 191.195C132.455 191.195 132.1 191.326 131.811 191.588C131.525 191.846 131.383 192.262 131.383 192.836ZM139.152 196.545C138.68 196.545 138.254 196.469 137.875 196.316C137.496 196.164 137.189 195.938 136.955 195.637C136.725 195.336 136.596 194.963 136.568 194.518H137.787C137.857 195.213 138.305 195.561 139.129 195.561C139.52 195.561 139.828 195.48 140.055 195.32C140.285 195.16 140.4 194.957 140.4 194.711C140.4 194.5 140.318 194.332 140.154 194.207C139.99 194.078 139.775 193.984 139.51 193.926L138.484 193.697C137.301 193.439 136.709 192.85 136.709 191.928C136.709 191.381 136.926 190.936 137.359 190.592C137.797 190.248 138.369 190.076 139.076 190.076C139.775 190.076 140.35 190.258 140.799 190.621C141.252 190.98 141.486 191.473 141.502 192.098H140.318C140.314 191.797 140.201 191.549 139.979 191.354C139.756 191.154 139.461 191.055 139.094 191.055C138.742 191.055 138.463 191.137 138.256 191.301C138.049 191.465 137.945 191.666 137.945 191.904C137.945 192.115 138.023 192.285 138.18 192.414C138.34 192.543 138.559 192.639 138.836 192.701L139.891 192.936C140.492 193.068 140.936 193.273 141.221 193.551C141.506 193.828 141.648 194.191 141.648 194.641C141.648 195.035 141.539 195.375 141.32 195.66C141.105 195.941 140.811 196.16 140.436 196.316C140.061 196.469 139.633 196.545 139.152 196.545ZM144.631 196.498C144.014 196.498 143.502 196.342 143.096 196.029C142.689 195.713 142.486 195.246 142.486 194.629C142.486 194.16 142.602 193.801 142.832 193.551C143.066 193.297 143.369 193.115 143.74 193.006C144.115 192.896 144.512 192.816 144.93 192.766C145.316 192.719 145.623 192.68 145.85 192.648C146.076 192.617 146.236 192.57 146.33 192.508C146.428 192.445 146.477 192.338 146.477 192.186V192.133C146.477 191.832 146.367 191.586 146.148 191.395C145.93 191.199 145.623 191.102 145.229 191.102C144.834 191.102 144.512 191.197 144.262 191.389C144.012 191.576 143.875 191.812 143.852 192.098H142.639C142.666 191.508 142.914 191.025 143.383 190.65C143.852 190.275 144.473 190.088 145.246 190.088C146.008 190.088 146.607 190.275 147.045 190.65C147.482 191.025 147.701 191.527 147.701 192.156V196.398H146.482V195.52H146.459C146.33 195.77 146.125 195.996 145.844 196.199C145.566 196.398 145.162 196.498 144.631 196.498ZM144.883 195.502C145.43 195.502 145.832 195.361 146.09 195.08C146.352 194.795 146.482 194.463 146.482 194.084V193.357C146.4 193.424 146.215 193.484 145.926 193.539C145.637 193.59 145.328 193.639 145 193.686C144.66 193.736 144.361 193.832 144.104 193.973C143.846 194.113 143.717 194.34 143.717 194.652C143.717 194.918 143.82 195.127 144.027 195.279C144.238 195.428 144.523 195.502 144.883 195.502ZM150.332 187.668V196.398H149.096V187.668H150.332ZM154.773 190.211V191.23H153.52V194.764C153.52 194.994 153.566 195.154 153.66 195.244C153.754 195.334 153.924 195.379 154.17 195.379H154.773V196.398H153.994C152.85 196.398 152.277 195.906 152.277 194.922V191.23H151.188V190.211H152.277V188.523H153.52V190.211H154.773ZM158.289 196.539C157.676 196.539 157.148 196.4 156.707 196.123C156.27 195.846 155.932 195.465 155.693 194.98C155.459 194.492 155.342 193.938 155.342 193.316C155.342 192.688 155.465 192.129 155.711 191.641C155.957 191.152 156.297 190.77 156.73 190.492C157.164 190.211 157.662 190.07 158.225 190.07C158.811 190.07 159.318 190.207 159.748 190.48C160.182 190.754 160.518 191.135 160.756 191.623C160.994 192.107 161.113 192.668 161.113 193.305V193.639H156.561C156.584 194.197 156.744 194.648 157.041 194.992C157.342 195.336 157.764 195.508 158.307 195.508C158.713 195.508 159.047 195.416 159.309 195.232C159.57 195.049 159.744 194.811 159.83 194.518H161.02C160.945 194.916 160.779 195.268 160.521 195.572C160.268 195.877 159.947 196.115 159.561 196.287C159.178 196.455 158.754 196.539 158.289 196.539ZM156.572 192.701H159.906C159.855 192.209 159.682 191.82 159.385 191.535C159.088 191.246 158.705 191.102 158.236 191.102C157.768 191.102 157.385 191.246 157.088 191.535C156.795 191.82 156.623 192.209 156.572 192.701ZM164.564 196.521C164.025 196.521 163.555 196.387 163.152 196.117C162.75 195.844 162.438 195.467 162.215 194.986C161.992 194.502 161.881 193.941 161.881 193.305C161.881 192.668 161.992 192.109 162.215 191.629C162.441 191.145 162.756 190.768 163.158 190.498C163.561 190.225 164.027 190.088 164.559 190.088C164.961 190.088 165.328 190.172 165.66 190.34C165.992 190.508 166.258 190.764 166.457 191.107H166.469V187.668H167.705V196.398H166.492V195.455H166.48C166.273 195.814 166.002 196.082 165.666 196.258C165.334 196.434 164.967 196.521 164.564 196.521ZM164.816 195.455C165.344 195.455 165.764 195.26 166.076 194.869C166.393 194.475 166.551 193.953 166.551 193.305C166.551 192.652 166.393 192.131 166.076 191.74C165.764 191.346 165.344 191.148 164.816 191.148C164.316 191.148 163.91 191.334 163.598 191.705C163.289 192.072 163.135 192.605 163.135 193.305C163.135 194.004 163.289 194.537 163.598 194.904C163.91 195.271 164.316 195.455 164.816 195.455ZM172.059 196.398V187.668H175.322C176.221 187.668 176.92 187.877 177.42 188.295C177.924 188.709 178.176 189.266 178.176 189.965C178.176 190.465 178.045 190.871 177.783 191.184C177.525 191.496 177.168 191.723 176.711 191.863V191.875C177.219 191.945 177.646 192.152 177.994 192.496C178.346 192.84 178.521 193.322 178.521 193.943C178.521 194.686 178.262 195.281 177.742 195.73C177.227 196.176 176.453 196.398 175.422 196.398H172.059ZM173.348 195.303H175.34C175.934 195.303 176.391 195.188 176.711 194.957C177.035 194.723 177.197 194.383 177.197 193.938C177.197 193.496 177.039 193.146 176.723 192.889C176.41 192.631 175.965 192.502 175.387 192.502H173.348V195.303ZM173.348 191.43H175.305C175.801 191.43 176.188 191.311 176.465 191.072C176.746 190.834 176.887 190.51 176.887 190.1C176.887 189.689 176.746 189.365 176.465 189.127C176.188 188.885 175.801 188.764 175.305 188.764H173.348V191.43ZM181.885 196.521C181.463 196.521 181.082 196.43 180.742 196.246C180.406 196.059 180.139 195.783 179.939 195.42C179.744 195.057 179.646 194.605 179.646 194.066V190.211H180.883V193.914C180.883 194.41 181.002 194.785 181.24 195.039C181.479 195.289 181.812 195.414 182.242 195.414C182.66 195.414 183.012 195.285 183.297 195.027C183.586 194.766 183.73 194.348 183.73 193.773V190.211H184.967V196.398H183.754V195.467C183.332 196.17 182.709 196.521 181.885 196.521ZM189.344 190.211V191.23H188.09V194.764C188.09 194.994 188.137 195.154 188.23 195.244C188.324 195.334 188.494 195.379 188.74 195.379H189.344V196.398H188.564C187.42 196.398 186.848 195.906 186.848 194.922V191.23H185.758V190.211H186.848V188.523H188.09V190.211H189.344ZM192.859 190.211V191.23H191.605V194.764C191.605 194.994 191.652 195.154 191.746 195.244C191.84 195.334 192.01 195.379 192.256 195.379H192.859V196.398H192.08C190.936 196.398 190.363 195.906 190.363 194.922V191.23H189.273V190.211H190.363V188.523H191.605V190.211H192.859ZM196.375 196.539C195.762 196.539 195.234 196.4 194.793 196.123C194.355 195.846 194.018 195.465 193.779 194.98C193.545 194.492 193.428 193.938 193.428 193.316C193.428 192.688 193.551 192.129 193.797 191.641C194.043 191.152 194.383 190.77 194.816 190.492C195.25 190.211 195.748 190.07 196.311 190.07C196.896 190.07 197.404 190.207 197.834 190.48C198.268 190.754 198.604 191.135 198.842 191.623C199.08 192.107 199.199 192.668 199.199 193.305V193.639H194.646C194.67 194.197 194.83 194.648 195.127 194.992C195.428 195.336 195.85 195.508 196.393 195.508C196.799 195.508 197.133 195.416 197.395 195.232C197.656 195.049 197.83 194.811 197.916 194.518H199.105C199.031 194.916 198.865 195.268 198.607 195.572C198.354 195.877 198.033 196.115 197.646 196.287C197.264 196.455 196.84 196.539 196.375 196.539ZM194.658 192.701H197.992C197.941 192.209 197.768 191.82 197.471 191.535C197.174 191.246 196.791 191.102 196.322 191.102C195.854 191.102 195.471 191.246 195.174 191.535C194.881 191.82 194.709 192.209 194.658 192.701ZM200.271 196.398V190.211H201.455V191.213H201.479C201.592 190.873 201.77 190.609 202.012 190.422C202.258 190.23 202.578 190.135 202.973 190.135C203.066 190.135 203.152 190.139 203.23 190.146C203.309 190.154 203.373 190.16 203.424 190.164V191.318C203.377 191.307 203.293 191.295 203.172 191.283C203.051 191.268 202.918 191.26 202.773 191.26C202.426 191.26 202.127 191.381 201.877 191.623C201.631 191.865 201.508 192.238 201.508 192.742V196.398H200.271Z" fill="#333333"/>
<path d="M399.662 187.668V196.398H398.402V188.945H398.396L396.264 190.34V189.098L398.438 187.668H399.662ZM403.975 196.521C403.393 196.521 402.873 196.406 402.416 196.176C401.963 195.941 401.6 195.621 401.326 195.215C401.057 194.805 400.91 194.338 400.887 193.814H402.158C402.197 194.283 402.385 194.67 402.721 194.975C403.061 195.275 403.48 195.426 403.98 195.426C404.508 195.426 404.934 195.248 405.258 194.893C405.586 194.537 405.75 194.082 405.75 193.527C405.75 192.977 405.592 192.523 405.275 192.168C404.959 191.809 404.547 191.629 404.039 191.629C403.594 191.629 403.211 191.721 402.891 191.904C402.57 192.084 402.348 192.346 402.223 192.689H400.998L401.285 187.668H406.506V188.781H402.451L402.258 191.354H402.27C402.781 190.811 403.436 190.539 404.232 190.539C404.764 190.539 405.236 190.668 405.65 190.926C406.068 191.18 406.396 191.531 406.635 191.98C406.877 192.426 406.998 192.934 406.998 193.504C406.998 194.094 406.871 194.615 406.617 195.068C406.367 195.521 406.016 195.877 405.562 196.135C405.109 196.393 404.58 196.521 403.975 196.521ZM410.871 198.93C410.113 198.93 409.494 198.762 409.014 198.426C408.533 198.09 408.252 197.619 408.17 197.014H409.406C409.484 197.314 409.654 197.541 409.916 197.693C410.178 197.846 410.496 197.922 410.871 197.922C411.371 197.922 411.762 197.787 412.043 197.518C412.324 197.248 412.465 196.863 412.465 196.363V195.426H412.459C412.244 195.785 411.973 196.051 411.645 196.223C411.32 196.395 410.955 196.48 410.549 196.48C410.01 196.48 409.539 196.346 409.137 196.076C408.734 195.803 408.422 195.428 408.199 194.951C407.977 194.471 407.865 193.916 407.865 193.287C407.865 192.658 407.977 192.104 408.199 191.623C408.426 191.143 408.74 190.768 409.143 190.498C409.545 190.225 410.012 190.088 410.543 190.088C410.945 190.088 411.314 190.174 411.65 190.346C411.986 190.518 412.258 190.787 412.465 191.154H412.471V190.211H413.689V196.316C413.689 196.941 413.562 197.445 413.309 197.828C413.055 198.211 412.715 198.49 412.289 198.666C411.863 198.842 411.391 198.93 410.871 198.93ZM410.801 195.42C411.328 195.42 411.748 195.227 412.061 194.84C412.377 194.449 412.535 193.93 412.535 193.281C412.535 192.633 412.377 192.115 412.061 191.729C411.748 191.338 411.328 191.143 410.801 191.143C410.301 191.143 409.895 191.326 409.582 191.693C409.273 192.057 409.119 192.586 409.119 193.281C409.119 193.977 409.273 194.508 409.582 194.875C409.895 195.238 410.301 195.42 410.801 195.42Z" fill="#333333"/>
<rect x="431" y="181.898" width="20" height="20" rx="6" fill="#EF5237"/>
<g clip-path="url(#clip3_2200_2587)">
<path d="M436.875 192.648L439.5 195.273L445.5 189.273" stroke="white" stroke-width="2" stroke-linecap="round" stroke-linejoin="round"/>
</g>
<rect x="105.3" y="220.198" width="355.4" height="39.4" rx="5.7" fill="black" fill-opacity="0.04"/>
<rect x="105.3" y="220.198" width="355.4" height="39.4" rx="5.7" stroke="#E5E5E5" stroke-width="0.6"/>
<path d="M121.797 244.398V235.668H125.119C126.053 235.668 126.793 235.912 127.34 236.4C127.887 236.889 128.16 237.551 128.16 238.387C128.16 238.996 128.004 239.516 127.691 239.945C127.379 240.371 126.951 240.682 126.408 240.877L128.295 244.398H126.83L125.09 241.094C125.07 241.094 125.051 241.094 125.031 241.094H123.098V244.398H121.797ZM123.098 239.986H125.066C125.629 239.986 126.07 239.844 126.391 239.559C126.715 239.27 126.877 238.879 126.877 238.387C126.877 237.895 126.715 237.506 126.391 237.221C126.066 236.936 125.623 236.793 125.061 236.793H123.098V239.986ZM131.764 244.539C131.174 244.539 130.656 244.402 130.211 244.129C129.766 243.855 129.418 243.477 129.168 242.992C128.922 242.508 128.799 241.949 128.799 241.316C128.799 240.676 128.922 240.113 129.168 239.629C129.418 239.141 129.766 238.76 130.211 238.486C130.656 238.209 131.174 238.07 131.764 238.07C132.354 238.07 132.869 238.209 133.311 238.486C133.756 238.76 134.102 239.141 134.348 239.629C134.598 240.113 134.723 240.676 134.723 241.316C134.723 241.949 134.598 242.508 134.348 242.992C134.102 243.477 133.756 243.855 133.311 244.129C132.869 244.402 132.354 244.539 131.764 244.539ZM131.764 243.473C132.295 243.473 132.713 243.277 133.018 242.887C133.322 242.496 133.475 241.973 133.475 241.316C133.475 240.652 133.32 240.123 133.012 239.729C132.707 239.334 132.291 239.137 131.764 239.137C131.236 239.137 130.818 239.334 130.51 239.729C130.205 240.119 130.053 240.648 130.053 241.316C130.053 241.977 130.205 242.502 130.51 242.893C130.814 243.279 131.232 243.473 131.764 243.473ZM138.109 244.545C137.637 244.545 137.211 244.469 136.832 244.316C136.453 244.164 136.146 243.938 135.912 243.637C135.682 243.336 135.553 242.963 135.525 242.518H136.744C136.814 243.213 137.262 243.561 138.086 243.561C138.477 243.561 138.785 243.48 139.012 243.32C139.242 243.16 139.357 242.957 139.357 242.711C139.357 242.5 139.275 242.332 139.111 242.207C138.947 242.078 138.732 241.984 138.467 241.926L137.441 241.697C136.258 241.439 135.666 240.85 135.666 239.928C135.666 239.381 135.883 238.936 136.316 238.592C136.754 238.248 137.326 238.076 138.033 238.076C138.732 238.076 139.307 238.258 139.756 238.621C140.209 238.98 140.443 239.473 140.459 240.098H139.275C139.271 239.797 139.158 239.549 138.936 239.354C138.713 239.154 138.418 239.055 138.051 239.055C137.699 239.055 137.42 239.137 137.213 239.301C137.006 239.465 136.902 239.666 136.902 239.904C136.902 240.115 136.98 240.285 137.137 240.414C137.297 240.543 137.516 240.639 137.793 240.701L138.848 240.936C139.449 241.068 139.893 241.273 140.178 241.551C140.463 241.828 140.605 242.191 140.605 242.641C140.605 243.035 140.496 243.375 140.277 243.66C140.062 243.941 139.768 244.16 139.393 244.316C139.018 244.469 138.59 244.545 138.109 244.545ZM144.344 244.539C143.73 244.539 143.203 244.4 142.762 244.123C142.324 243.846 141.986 243.465 141.748 242.98C141.514 242.492 141.396 241.938 141.396 241.316C141.396 240.688 141.52 240.129 141.766 239.641C142.012 239.152 142.352 238.77 142.785 238.492C143.219 238.211 143.717 238.07 144.279 238.07C144.865 238.07 145.373 238.207 145.803 238.48C146.236 238.754 146.572 239.135 146.811 239.623C147.049 240.107 147.168 240.668 147.168 241.305V241.639H142.615C142.639 242.197 142.799 242.648 143.096 242.992C143.396 243.336 143.818 243.508 144.361 243.508C144.768 243.508 145.102 243.416 145.363 243.232C145.625 243.049 145.799 242.811 145.885 242.518H147.074C147 242.916 146.834 243.268 146.576 243.572C146.322 243.877 146.002 244.115 145.615 244.287C145.232 244.455 144.809 244.539 144.344 244.539ZM142.627 240.701H145.961C145.91 240.209 145.736 239.82 145.439 239.535C145.143 239.246 144.76 239.102 144.291 239.102C143.822 239.102 143.439 239.246 143.143 239.535C142.85 239.82 142.678 240.209 142.627 240.701ZM148.24 244.398V238.211H149.441V239.248C149.633 238.865 149.893 238.576 150.221 238.381C150.549 238.186 150.904 238.088 151.287 238.088C151.709 238.088 152.078 238.195 152.395 238.41C152.715 238.625 152.939 238.898 153.068 239.23C153.236 238.895 153.49 238.621 153.83 238.41C154.174 238.195 154.574 238.088 155.031 238.088C155.414 238.088 155.762 238.172 156.074 238.34C156.387 238.508 156.635 238.758 156.818 239.09C157.002 239.418 157.094 239.83 157.094 240.326V244.398H155.852V240.432C155.852 239.99 155.729 239.67 155.482 239.471C155.236 239.271 154.945 239.172 154.609 239.172C154.195 239.172 153.869 239.301 153.631 239.559C153.393 239.812 153.273 240.137 153.273 240.531V244.398H152.055V240.35C152.055 239.994 151.939 239.709 151.709 239.494C151.482 239.279 151.193 239.172 150.842 239.172C150.482 239.172 150.164 239.299 149.887 239.553C149.613 239.807 149.477 240.178 149.477 240.666V244.398H148.24ZM160.381 244.498C159.764 244.498 159.252 244.342 158.846 244.029C158.439 243.713 158.236 243.246 158.236 242.629C158.236 242.16 158.352 241.801 158.582 241.551C158.816 241.297 159.119 241.115 159.49 241.006C159.865 240.896 160.262 240.816 160.68 240.766C161.066 240.719 161.373 240.68 161.6 240.648C161.826 240.617 161.986 240.57 162.08 240.508C162.178 240.445 162.227 240.338 162.227 240.186V240.133C162.227 239.832 162.117 239.586 161.898 239.395C161.68 239.199 161.373 239.102 160.979 239.102C160.584 239.102 160.262 239.197 160.012 239.389C159.762 239.576 159.625 239.812 159.602 240.098H158.389C158.416 239.508 158.664 239.025 159.133 238.65C159.602 238.275 160.223 238.088 160.996 238.088C161.758 238.088 162.357 238.275 162.795 238.65C163.232 239.025 163.451 239.527 163.451 240.156V244.398H162.232V243.52H162.209C162.08 243.77 161.875 243.996 161.594 244.199C161.316 244.398 160.912 244.498 160.381 244.498ZM160.633 243.502C161.18 243.502 161.582 243.361 161.84 243.08C162.102 242.795 162.232 242.463 162.232 242.084V241.357C162.15 241.424 161.965 241.484 161.676 241.539C161.387 241.59 161.078 241.639 160.75 241.686C160.41 241.736 160.111 241.832 159.854 241.973C159.596 242.113 159.467 242.34 159.467 242.652C159.467 242.918 159.57 243.127 159.777 243.279C159.988 243.428 160.273 243.502 160.633 243.502ZM164.846 244.398V238.211H166.029V239.213H166.053C166.166 238.873 166.344 238.609 166.586 238.422C166.832 238.23 167.152 238.135 167.547 238.135C167.641 238.135 167.727 238.139 167.805 238.146C167.883 238.154 167.947 238.16 167.998 238.164V239.318C167.951 239.307 167.867 239.295 167.746 239.283C167.625 239.268 167.492 239.26 167.348 239.26C167 239.26 166.701 239.381 166.451 239.623C166.205 239.865 166.082 240.238 166.082 240.742V244.398H164.846ZM169.135 246.848V245.805H169.803C169.998 245.805 170.156 245.748 170.277 245.635C170.402 245.525 170.512 245.344 170.605 245.09L170.887 244.357L168.496 238.211H169.82L171.057 241.604C171.139 241.834 171.219 242.066 171.297 242.301C171.375 242.531 171.451 242.762 171.525 242.992C171.6 242.762 171.676 242.531 171.754 242.301C171.836 242.066 171.918 241.834 172 241.604L173.219 238.211H174.525L171.713 245.482C171.365 246.393 170.768 246.848 169.92 246.848H169.135Z" fill="#333333"/>
<path d="M404.51 244.521C403.928 244.521 403.408 244.406 402.951 244.176C402.498 243.941 402.135 243.621 401.861 243.215C401.592 242.805 401.445 242.338 401.422 241.814H402.693C402.732 242.283 402.92 242.67 403.256 242.975C403.596 243.275 404.016 243.426 404.516 243.426C405.043 243.426 405.469 243.248 405.793 242.893C406.121 242.537 406.285 242.082 406.285 241.527C406.285 240.977 406.127 240.523 405.811 240.168C405.494 239.809 405.082 239.629 404.574 239.629C404.129 239.629 403.746 239.721 403.426 239.904C403.105 240.084 402.883 240.346 402.758 240.689H401.533L401.82 235.668H407.041V236.781H402.986L402.793 239.354H402.805C403.316 238.811 403.971 238.539 404.768 238.539C405.299 238.539 405.771 238.668 406.186 238.926C406.604 239.18 406.932 239.531 407.17 239.98C407.412 240.426 407.533 240.934 407.533 241.504C407.533 242.094 407.406 242.615 407.152 243.068C406.902 243.521 406.551 243.877 406.098 244.135C405.645 244.393 405.115 244.521 404.51 244.521ZM411.406 246.93C410.648 246.93 410.029 246.762 409.549 246.426C409.068 246.09 408.787 245.619 408.705 245.014H409.941C410.02 245.314 410.189 245.541 410.451 245.693C410.713 245.846 411.031 245.922 411.406 245.922C411.906 245.922 412.297 245.787 412.578 245.518C412.859 245.248 413 244.863 413 244.363V243.426H412.994C412.779 243.785 412.508 244.051 412.18 244.223C411.855 244.395 411.49 244.48 411.084 244.48C410.545 244.48 410.074 244.346 409.672 244.076C409.27 243.803 408.957 243.428 408.734 242.951C408.512 242.471 408.4 241.916 408.4 241.287C408.4 240.658 408.512 240.104 408.734 239.623C408.961 239.143 409.275 238.768 409.678 238.498C410.08 238.225 410.547 238.088 411.078 238.088C411.48 238.088 411.85 238.174 412.186 238.346C412.521 238.518 412.793 238.787 413 239.154H413.006V238.211H414.225V244.316C414.225 244.941 414.098 245.445 413.844 245.828C413.59 246.211 413.25 246.49 412.824 246.666C412.398 246.842 411.926 246.93 411.406 246.93ZM411.336 243.42C411.863 243.42 412.283 243.227 412.596 242.84C412.912 242.449 413.07 241.93 413.07 241.281C413.07 240.633 412.912 240.115 412.596 239.729C412.283 239.338 411.863 239.143 411.336 239.143C410.836 239.143 410.43 239.326 410.117 239.693C409.809 240.057 409.654 240.586 409.654 241.281C409.654 241.977 409.809 242.508 410.117 242.875C410.43 243.238 410.836 243.42 411.336 243.42Z" fill="#333333"/>
<rect x="431" y="229.898" width="20" height="20" rx="6" fill="#EF5237"/>
<g clip-path="url(#clip4_2200_2587)">
<path d="M436.875 240.648L439.5 243.273L445.5 237.273" stroke="white" stroke-width="2" stroke-linecap="round" stroke-linejoin="round"/>
</g>
<g clip-path="url(#clip5_2200_2587)">
<path d="M107.5 280.398H118.5" stroke="#666666" stroke-width="1.5" stroke-linecap="round" stroke-linejoin="round"/>
<path d="M113 274.898V285.898" stroke="#666666" stroke-width="1.5" stroke-linecap="round" stroke-linejoin="round"/>
</g>
<path d="M127.109 285.898L130.808 275.713H132.64L136.311 285.898H134.663L133.761 283.253H129.652L128.723 285.898H127.109ZM130.11 281.961H133.316L132.701 280.156C132.564 279.737 132.419 279.288 132.264 278.81C132.109 278.331 131.931 277.761 131.73 277.101C131.525 277.761 131.345 278.331 131.19 278.81C131.035 279.288 130.887 279.737 130.746 280.156L130.11 281.961ZM139.735 286.042C139.106 286.042 138.557 285.885 138.088 285.57C137.618 285.251 137.254 284.812 136.994 284.251C136.734 283.686 136.604 283.032 136.604 282.289C136.604 281.546 136.734 280.895 136.994 280.334C137.258 279.769 137.625 279.329 138.095 279.015C138.564 278.696 139.109 278.536 139.729 278.536C140.198 278.536 140.626 278.634 141.014 278.83C141.401 279.026 141.711 279.325 141.943 279.726H141.957V275.713H143.399V285.898H141.984V284.798H141.971C141.729 285.217 141.412 285.529 141.021 285.734C140.633 285.939 140.205 286.042 139.735 286.042ZM140.029 284.798C140.645 284.798 141.134 284.57 141.499 284.114C141.868 283.654 142.053 283.046 142.053 282.289C142.053 281.528 141.868 280.92 141.499 280.464C141.134 280.004 140.645 279.773 140.029 279.773C139.446 279.773 138.972 279.99 138.607 280.423C138.247 280.851 138.067 281.473 138.067 282.289C138.067 283.105 138.247 283.727 138.607 284.155C138.972 284.584 139.446 284.798 140.029 284.798ZM147.802 286.042C147.173 286.042 146.624 285.885 146.154 285.57C145.685 285.251 145.32 284.812 145.061 284.251C144.801 283.686 144.671 283.032 144.671 282.289C144.671 281.546 144.801 280.895 145.061 280.334C145.325 279.769 145.692 279.329 146.161 279.015C146.631 278.696 147.175 278.536 147.795 278.536C148.264 278.536 148.693 278.634 149.08 278.83C149.467 279.026 149.777 279.325 150.01 279.726H150.023V275.713H151.466V285.898H150.051V284.798H150.037C149.796 285.217 149.479 285.529 149.087 285.734C148.7 285.939 148.271 286.042 147.802 286.042ZM148.096 284.798C148.711 284.798 149.201 284.57 149.565 284.114C149.935 283.654 150.119 283.046 150.119 282.289C150.119 281.528 149.935 280.92 149.565 280.464C149.201 280.004 148.711 279.773 148.096 279.773C147.512 279.773 147.038 279.99 146.674 280.423C146.314 280.851 146.134 281.473 146.134 282.289C146.134 283.105 146.314 283.727 146.674 284.155C147.038 284.584 147.512 284.798 148.096 284.798ZM156.429 285.898V278.68H157.81V279.849H157.837C157.969 279.452 158.176 279.145 158.459 278.926C158.746 278.702 159.12 278.591 159.58 278.591C159.689 278.591 159.79 278.595 159.881 278.604C159.972 278.614 160.047 278.62 160.106 278.625V279.972C160.052 279.958 159.954 279.944 159.812 279.931C159.671 279.912 159.516 279.903 159.348 279.903C158.942 279.903 158.593 280.045 158.302 280.327C158.015 280.61 157.871 281.045 157.871 281.633V285.898H156.429ZM163.21 286.015C162.49 286.015 161.893 285.832 161.419 285.468C160.945 285.099 160.708 284.554 160.708 283.834C160.708 283.287 160.842 282.868 161.111 282.576C161.385 282.28 161.738 282.068 162.171 281.94C162.608 281.813 163.071 281.719 163.559 281.66C164.01 281.605 164.368 281.56 164.632 281.523C164.896 281.487 165.083 281.432 165.192 281.359C165.306 281.286 165.363 281.161 165.363 280.983V280.922C165.363 280.571 165.236 280.284 164.98 280.061C164.725 279.833 164.368 279.719 163.907 279.719C163.447 279.719 163.071 279.83 162.779 280.054C162.488 280.272 162.328 280.548 162.301 280.881H160.886C160.918 280.193 161.207 279.63 161.754 279.192C162.301 278.755 163.025 278.536 163.928 278.536C164.816 278.536 165.516 278.755 166.026 279.192C166.537 279.63 166.792 280.215 166.792 280.949V285.898H165.37V284.873H165.343C165.192 285.165 164.953 285.429 164.625 285.666C164.301 285.898 163.83 286.015 163.21 286.015ZM163.504 284.853C164.142 284.853 164.611 284.688 164.912 284.36C165.217 284.028 165.37 283.64 165.37 283.198V282.351C165.274 282.428 165.058 282.499 164.721 282.562C164.383 282.622 164.023 282.679 163.641 282.733C163.244 282.793 162.896 282.904 162.595 283.068C162.294 283.232 162.144 283.497 162.144 283.861C162.144 284.171 162.264 284.415 162.506 284.593C162.752 284.766 163.085 284.853 163.504 284.853ZM170.005 285.898L167.77 278.68H169.28L170.107 281.633C170.23 282.07 170.347 282.517 170.456 282.973C170.57 283.428 170.682 283.88 170.791 284.326C170.91 283.88 171.026 283.428 171.14 282.973C171.258 282.517 171.377 282.07 171.495 281.633L172.336 278.68H173.71L174.537 281.633C174.66 282.066 174.779 282.508 174.893 282.959C175.007 283.41 175.12 283.857 175.234 284.299C175.344 283.857 175.453 283.41 175.562 282.959C175.676 282.508 175.795 282.066 175.918 281.633L176.752 278.68H178.276L176.041 285.898H174.537L173.621 282.754C173.516 282.389 173.414 282.016 173.313 281.633C173.218 281.25 173.122 280.869 173.026 280.491C172.926 280.869 172.826 281.25 172.726 281.633C172.63 282.016 172.527 282.389 172.418 282.754L171.488 285.898H170.005ZM182.597 285.898V278.68H184.039V285.898H182.597ZM183.314 277.436C183.059 277.436 182.843 277.351 182.665 277.183C182.492 277.009 182.405 276.8 182.405 276.554C182.405 276.303 182.492 276.093 182.665 275.925C182.843 275.752 183.059 275.665 183.314 275.665C183.57 275.665 183.786 275.752 183.964 275.925C184.142 276.093 184.23 276.303 184.23 276.554C184.23 276.8 184.142 277.009 183.964 277.183C183.786 277.351 183.57 277.436 183.314 277.436ZM187.115 281.742V285.898H185.673V278.68H187.088V279.767C187.58 278.946 188.307 278.536 189.269 278.536C189.765 278.536 190.21 278.646 190.602 278.864C190.998 279.078 191.31 279.397 191.538 279.821C191.766 280.245 191.88 280.771 191.88 281.4V285.898H190.438V281.578C190.438 280.999 190.299 280.564 190.021 280.272C189.743 279.976 189.355 279.828 188.858 279.828C188.366 279.828 187.951 279.981 187.614 280.286C187.282 280.587 187.115 281.072 187.115 281.742ZM196.658 288.852C195.774 288.852 195.052 288.656 194.491 288.264C193.931 287.872 193.603 287.323 193.507 286.616H194.949C195.04 286.967 195.239 287.231 195.544 287.409C195.849 287.587 196.221 287.676 196.658 287.676C197.242 287.676 197.697 287.519 198.025 287.204C198.354 286.89 198.518 286.441 198.518 285.857V284.764H198.511C198.26 285.183 197.943 285.493 197.561 285.693C197.182 285.894 196.756 285.994 196.282 285.994C195.653 285.994 195.104 285.837 194.635 285.522C194.165 285.203 193.801 284.766 193.541 284.21C193.281 283.649 193.151 283.002 193.151 282.269C193.151 281.535 193.281 280.888 193.541 280.327C193.805 279.767 194.172 279.329 194.642 279.015C195.111 278.696 195.656 278.536 196.275 278.536C196.745 278.536 197.175 278.636 197.567 278.837C197.959 279.037 198.276 279.352 198.518 279.78H198.524V278.68H199.946V285.803C199.946 286.532 199.798 287.12 199.502 287.566C199.206 288.013 198.809 288.339 198.312 288.544C197.816 288.749 197.264 288.852 196.658 288.852ZM196.576 284.757C197.191 284.757 197.681 284.531 198.046 284.08C198.415 283.624 198.6 283.018 198.6 282.262C198.6 281.505 198.415 280.901 198.046 280.45C197.681 279.994 197.191 279.767 196.576 279.767C195.993 279.767 195.519 279.981 195.154 280.409C194.794 280.833 194.614 281.451 194.614 282.262C194.614 283.073 194.794 283.693 195.154 284.121C195.519 284.545 195.993 284.757 196.576 284.757ZM201.573 285.898V278.68H202.954V279.849H202.981C203.114 279.452 203.321 279.145 203.604 278.926C203.891 278.702 204.264 278.591 204.725 278.591C204.834 278.591 204.934 278.595 205.025 278.604C205.117 278.614 205.192 278.62 205.251 278.625V279.972C205.196 279.958 205.098 279.944 204.957 279.931C204.816 279.912 204.661 279.903 204.492 279.903C204.087 279.903 203.738 280.045 203.446 280.327C203.159 280.61 203.016 281.045 203.016 281.633V285.898H201.573ZM209.305 286.062C208.589 286.062 207.974 285.901 207.459 285.577C206.949 285.254 206.554 284.809 206.276 284.244C206.003 283.674 205.866 283.027 205.866 282.303C205.866 281.569 206.01 280.917 206.297 280.348C206.584 279.778 206.98 279.331 207.486 279.008C207.992 278.68 208.573 278.516 209.229 278.516C209.913 278.516 210.506 278.675 211.007 278.994C211.513 279.313 211.905 279.757 212.183 280.327C212.461 280.892 212.6 281.546 212.6 282.289V282.679H207.288C207.315 283.33 207.502 283.857 207.849 284.258C208.2 284.659 208.692 284.859 209.325 284.859C209.799 284.859 210.189 284.752 210.494 284.538C210.799 284.324 211.002 284.046 211.103 283.704H212.49C212.404 284.169 212.21 284.579 211.909 284.935C211.613 285.29 211.239 285.568 210.788 285.769C210.341 285.965 209.847 286.062 209.305 286.062ZM207.302 281.585H211.191C211.132 281.011 210.929 280.557 210.583 280.225C210.237 279.887 209.79 279.719 209.243 279.719C208.696 279.719 208.25 279.887 207.903 280.225C207.562 280.557 207.361 281.011 207.302 281.585ZM216.626 286.042C215.997 286.042 215.448 285.885 214.979 285.57C214.509 285.251 214.145 284.812 213.885 284.251C213.625 283.686 213.495 283.032 213.495 282.289C213.495 281.546 213.625 280.895 213.885 280.334C214.149 279.769 214.516 279.329 214.985 279.015C215.455 278.696 215.999 278.536 216.619 278.536C217.089 278.536 217.517 278.634 217.904 278.83C218.292 279.026 218.602 279.325 218.834 279.726H218.848V275.713H220.29V285.898H218.875V284.798H218.861C218.62 285.217 218.303 285.529 217.911 285.734C217.524 285.939 217.095 286.042 216.626 286.042ZM216.92 284.798C217.535 284.798 218.025 284.57 218.39 284.114C218.759 283.654 218.943 283.046 218.943 282.289C218.943 281.528 218.759 280.92 218.39 280.464C218.025 280.004 217.535 279.773 216.92 279.773C216.337 279.773 215.863 279.99 215.498 280.423C215.138 280.851 214.958 281.473 214.958 282.289C214.958 283.105 215.138 283.727 215.498 284.155C215.863 284.584 216.337 284.798 216.92 284.798ZM221.917 285.898V278.68H223.359V285.898H221.917ZM222.635 277.436C222.38 277.436 222.163 277.351 221.985 277.183C221.812 277.009 221.726 276.8 221.726 276.554C221.726 276.303 221.812 276.093 221.985 275.925C222.163 275.752 222.38 275.665 222.635 275.665C222.89 275.665 223.106 275.752 223.284 275.925C223.462 276.093 223.551 276.303 223.551 276.554C223.551 276.8 223.462 277.009 223.284 277.183C223.106 277.351 222.89 277.436 222.635 277.436ZM228.076 286.062C227.361 286.062 226.745 285.901 226.23 285.577C225.72 285.254 225.326 284.809 225.048 284.244C224.774 283.674 224.638 283.027 224.638 282.303C224.638 281.569 224.781 280.917 225.068 280.348C225.355 279.778 225.752 279.331 226.258 279.008C226.764 278.68 227.345 278.516 228.001 278.516C228.685 278.516 229.277 278.675 229.778 278.994C230.284 279.313 230.676 279.757 230.954 280.327C231.232 280.892 231.371 281.546 231.371 282.289V282.679H226.06C226.087 283.33 226.274 283.857 226.62 284.258C226.971 284.659 227.463 284.859 228.097 284.859C228.571 284.859 228.96 284.752 229.266 284.538C229.571 284.324 229.774 284.046 229.874 283.704H231.262C231.175 284.169 230.981 284.579 230.681 284.935C230.384 285.29 230.011 285.568 229.56 285.769C229.113 285.965 228.618 286.062 228.076 286.062ZM226.073 281.585H229.963C229.904 281.011 229.701 280.557 229.354 280.225C229.008 279.887 228.562 279.719 228.015 279.719C227.468 279.719 227.021 279.887 226.675 280.225C226.333 280.557 226.132 281.011 226.073 281.585ZM234.064 281.742V285.898H232.622V278.68H234.037V279.767C234.529 278.946 235.256 278.536 236.218 278.536C236.715 278.536 237.159 278.646 237.551 278.864C237.947 279.078 238.259 279.397 238.487 279.821C238.715 280.245 238.829 280.771 238.829 281.4V285.898H237.387V281.578C237.387 280.999 237.248 280.564 236.97 280.272C236.692 279.976 236.304 279.828 235.808 279.828C235.315 279.828 234.901 279.981 234.563 280.286C234.231 280.587 234.064 281.072 234.064 281.742ZM243.936 278.68V279.869H242.473V283.991C242.473 284.26 242.527 284.447 242.637 284.552C242.746 284.657 242.944 284.709 243.231 284.709H243.936V285.898H243.026C241.691 285.898 241.023 285.324 241.023 284.176V279.869H239.752V278.68H241.023V276.711H242.473V278.68H243.936Z" fill="#666666"/>
</g>
<rect x="93" y="58.8984" width="380" height="242" rx="12" stroke="#E5E5E5"/>
</g>
<defs>
<filter id="filter0_d_2200_2587" x="72.5" y="38.3984" width="421" height="283" filterUnits="userSpaceOnUse" color-interpolation-filters="sRGB">
<feFlood flood-opacity="0" result="BackgroundImageFix"/>
<feColorMatrix in="SourceAlpha" type="matrix" values="0 0 0 0 0 0 0 0 0 0 0 0 0 0 0 0 0 0 127 0" result="hardAlpha"/>
<feOffset/>
<feGaussianBlur stdDeviation="10"/>
<feComposite in2="hardAlpha" operator="out"/>
<feColorMatrix type="matrix" values="0 0 0 0 0 0 0 0 0 0 0 0 0 0 0 0 0 0 0.04 0"/>
<feBlend mode="normal" in2="BackgroundImageFix" result="effect1_dropShadow_2200_2587"/>
<feBlend mode="normal" in="SourceGraphic" in2="effect1_dropShadow_2200_2587" result="shape"/>
</filter>
<clipPath id="clip0_2200_2587">
<rect x="93" y="58.8984" width="380" height="242" rx="12" fill="white"/>
</clipPath>
<clipPath id="clip1_2200_2587">
<rect width="16" height="16" fill="white" transform="translate(400 77.3984)"/>
</clipPath>
<clipPath id="clip2_2200_2587">
<rect width="12" height="12" fill="white" transform="translate(435 137.898)"/>
</clipPath>
<clipPath id="clip3_2200_2587">
<rect width="12" height="12" fill="white" transform="translate(435 185.898)"/>
</clipPath>
<clipPath id="clip4_2200_2587">
<rect width="12" height="12" fill="white" transform="translate(435 233.898)"/>
</clipPath>
<clipPath id="clip5_2200_2587">
<rect width="16" height="16" fill="white" transform="translate(105 272.398)"/>
</clipPath>
</defs>
</svg>
