<svg width="566" height="360" viewBox="0 0 566 360" fill="none" xmlns="http://www.w3.org/2000/svg">
<rect width="566" height="360" rx="16" fill="black" fill-opacity="0.04"/>
<g filter="url(#filter0_d_2200_2634)">
<g clipPath="url(#clip0_2200_2634)">
<rect x="91" y="43.8984" width="383" height="273" rx="12" fill="white"/>
<path d="M103.93 75.8984V65.7129H105.447V74.5654H110.267V75.8984H103.93ZM114.519 76.0625C113.83 76.0625 113.227 75.903 112.707 75.584C112.188 75.265 111.782 74.8229 111.49 74.2578C111.203 73.6927 111.06 73.041 111.06 72.3027C111.06 71.5553 111.203 70.8991 111.49 70.334C111.782 69.7643 112.188 69.32 112.707 69.001C113.227 68.6774 113.83 68.5156 114.519 68.5156C115.207 68.5156 115.808 68.6774 116.323 69.001C116.843 69.32 117.246 69.7643 117.533 70.334C117.825 70.8991 117.971 71.5553 117.971 72.3027C117.971 73.041 117.825 73.6927 117.533 74.2578C117.246 74.8229 116.843 75.265 116.323 75.584C115.808 75.903 115.207 76.0625 114.519 76.0625ZM114.519 74.8184C115.138 74.8184 115.626 74.5905 115.981 74.1348C116.337 73.679 116.515 73.0684 116.515 72.3027C116.515 71.528 116.335 70.9105 115.975 70.4502C115.619 69.9899 115.134 69.7598 114.519 69.7598C113.903 69.7598 113.416 69.9899 113.056 70.4502C112.7 70.9059 112.522 71.5234 112.522 72.3027C112.522 73.0729 112.7 73.6859 113.056 74.1416C113.411 74.5928 113.899 74.8184 114.519 74.8184ZM122.4 78.8516C121.516 78.8516 120.794 78.6556 120.233 78.2637C119.673 77.8717 119.345 77.3226 119.249 76.6162H120.691C120.783 76.9671 120.981 77.2314 121.286 77.4092C121.591 77.5869 121.963 77.6758 122.4 77.6758C122.984 77.6758 123.439 77.5186 123.768 77.2041C124.096 76.8896 124.26 76.4408 124.26 75.8574V74.7637H124.253C124.002 75.1829 123.686 75.4928 123.303 75.6934C122.924 75.8939 122.498 75.9941 122.024 75.9941C121.396 75.9941 120.846 75.8369 120.377 75.5225C119.908 75.2035 119.543 74.766 119.283 74.21C119.023 73.6494 118.894 73.0023 118.894 72.2686C118.894 71.5348 119.023 70.8877 119.283 70.3271C119.548 69.7666 119.914 69.3291 120.384 69.0146C120.853 68.6956 121.398 68.5361 122.018 68.5361C122.487 68.5361 122.918 68.6364 123.31 68.8369C123.701 69.0374 124.018 69.3519 124.26 69.7803H124.267V68.6797H125.688V75.8027C125.688 76.5319 125.54 77.1198 125.244 77.5664C124.948 78.013 124.551 78.3389 124.055 78.5439C123.558 78.749 123.007 78.8516 122.4 78.8516ZM122.318 74.7568C122.934 74.7568 123.424 74.5312 123.788 74.0801C124.157 73.6243 124.342 73.0182 124.342 72.2617C124.342 71.5052 124.157 70.9014 123.788 70.4502C123.424 69.9945 122.934 69.7666 122.318 69.7666C121.735 69.7666 121.261 69.9808 120.896 70.4092C120.536 70.833 120.356 71.4505 120.356 72.2617C120.356 73.0729 120.536 73.6927 120.896 74.1211C121.261 74.5449 121.735 74.7568 122.318 74.7568ZM134.062 75.8984H130.768V65.7129H134.165C135.163 65.7129 136.022 65.918 136.742 66.3281C137.467 66.7383 138.023 67.3239 138.41 68.085C138.798 68.8415 138.991 69.7438 138.991 70.792C138.991 71.8447 138.795 72.7539 138.403 73.5195C138.016 74.2806 137.453 74.8685 136.715 75.2832C135.981 75.6934 135.097 75.8984 134.062 75.8984ZM132.285 74.5791H133.967C135.156 74.5791 136.036 74.2441 136.605 73.5742C137.18 72.9043 137.467 71.9769 137.467 70.792C137.467 69.6117 137.184 68.6911 136.619 68.0303C136.054 67.3649 135.204 67.0322 134.069 67.0322H132.285V74.5791ZM142.56 76.0146C141.84 76.0146 141.243 75.8324 140.769 75.4678C140.295 75.0986 140.058 74.554 140.058 73.834C140.058 73.2871 140.192 72.8678 140.461 72.5762C140.734 72.2799 141.088 72.068 141.521 71.9404C141.958 71.8128 142.421 71.7194 142.908 71.6602C143.359 71.6055 143.717 71.5599 143.981 71.5234C144.246 71.487 144.433 71.4323 144.542 71.3594C144.656 71.2865 144.713 71.1611 144.713 70.9834V70.9219C144.713 70.571 144.585 70.2839 144.33 70.0605C144.075 69.8327 143.717 69.7188 143.257 69.7188C142.797 69.7188 142.421 69.8304 142.129 70.0537C141.837 70.2725 141.678 70.5482 141.65 70.8809H140.235C140.267 70.1927 140.557 69.6299 141.104 69.1924C141.65 68.7549 142.375 68.5361 143.277 68.5361C144.166 68.5361 144.866 68.7549 145.376 69.1924C145.886 69.6299 146.142 70.2155 146.142 70.9492V75.8984H144.72V74.873H144.692C144.542 75.1647 144.303 75.429 143.975 75.666C143.651 75.8984 143.179 76.0146 142.56 76.0146ZM142.854 74.8525C143.492 74.8525 143.961 74.6885 144.262 74.3604C144.567 74.0277 144.72 73.6403 144.72 73.1982V72.3506C144.624 72.4281 144.408 72.4987 144.07 72.5625C143.733 72.6217 143.373 72.6787 142.99 72.7334C142.594 72.7926 142.245 72.9043 141.944 73.0684C141.644 73.2324 141.493 73.4967 141.493 73.8613C141.493 74.1712 141.614 74.415 141.855 74.5928C142.102 74.766 142.434 74.8525 142.854 74.8525ZM147.769 75.8984V68.6797H149.211V75.8984H147.769ZM148.486 67.4355C148.231 67.4355 148.015 67.3512 147.837 67.1826C147.664 67.0094 147.577 66.7998 147.577 66.5537C147.577 66.3031 147.664 66.0934 147.837 65.9248C148.015 65.7516 148.231 65.665 148.486 65.665C148.742 65.665 148.958 65.7516 149.136 65.9248C149.313 66.0934 149.402 66.3031 149.402 66.5537C149.402 66.7998 149.313 67.0094 149.136 67.1826C148.958 67.3512 148.742 67.4355 148.486 67.4355ZM152.287 65.7129V75.8984H150.845V65.7129H152.287ZM154.099 78.7559V77.5391H154.878C155.106 77.5391 155.29 77.473 155.432 77.3408C155.577 77.2132 155.705 77.0013 155.814 76.7051L156.143 75.8506L153.354 68.6797H154.898L156.341 72.6377C156.437 72.9066 156.53 73.1777 156.621 73.4512C156.712 73.7201 156.801 73.9889 156.888 74.2578C156.974 73.9889 157.063 73.7201 157.154 73.4512C157.25 73.1777 157.346 72.9066 157.441 72.6377L158.863 68.6797H160.388L157.106 77.1631C156.701 78.2249 156.004 78.7559 155.015 78.7559H154.099ZM166.766 75.8984L164.004 65.7129H165.583L167.08 71.6396C167.189 72.0771 167.292 72.5169 167.388 72.959C167.483 73.3965 167.577 73.8363 167.668 74.2783C167.759 73.8363 167.855 73.3965 167.955 72.959C168.055 72.5169 168.162 72.0771 168.276 71.6396L169.821 65.7129H171.482L173.014 71.6396C173.232 72.5055 173.435 73.3737 173.622 74.2441C173.713 73.8112 173.807 73.3783 173.902 72.9453C174.003 72.5078 174.105 72.0726 174.21 71.6396L175.707 65.7129H177.293L174.518 75.8984H172.781L171.106 69.6709C171.024 69.3564 170.945 69.0352 170.867 68.707C170.794 68.3743 170.719 68.0348 170.642 67.6885C170.569 68.0348 170.496 68.3743 170.423 68.707C170.35 69.0352 170.27 69.3564 170.184 69.6709L168.522 75.8984H166.766ZM179.665 76.0146C178.945 76.0146 178.348 75.8324 177.874 75.4678C177.4 75.0986 177.163 74.554 177.163 73.834C177.163 73.2871 177.298 72.8678 177.566 72.5762C177.84 72.2799 178.193 72.068 178.626 71.9404C179.063 71.8128 179.526 71.7194 180.014 71.6602C180.465 71.6055 180.823 71.5599 181.087 71.5234C181.351 71.487 181.538 71.4323 181.647 71.3594C181.761 71.2865 181.818 71.1611 181.818 70.9834V70.9219C181.818 70.571 181.691 70.2839 181.436 70.0605C181.18 69.8327 180.823 69.7188 180.362 69.7188C179.902 69.7188 179.526 69.8304 179.234 70.0537C178.943 70.2725 178.783 70.5482 178.756 70.8809H177.341C177.373 70.1927 177.662 69.6299 178.209 69.1924C178.756 68.7549 179.48 68.5361 180.383 68.5361C181.271 68.5361 181.971 68.7549 182.481 69.1924C182.992 69.6299 183.247 70.2155 183.247 70.9492V75.8984H181.825V74.873H181.798C181.647 75.1647 181.408 75.429 181.08 75.666C180.757 75.8984 180.285 76.0146 179.665 76.0146ZM179.959 74.8525C180.597 74.8525 181.066 74.6885 181.367 74.3604C181.673 74.0277 181.825 73.6403 181.825 73.1982V72.3506C181.729 72.4281 181.513 72.4987 181.176 72.5625C180.839 72.6217 180.479 72.6787 180.096 72.7334C179.699 72.7926 179.351 72.9043 179.05 73.0684C178.749 73.2324 178.599 73.4967 178.599 73.8613C178.599 74.1712 178.719 74.415 178.961 74.5928C179.207 74.766 179.54 74.8525 179.959 74.8525ZM187.547 76.0693C186.995 76.0693 186.499 75.9805 186.057 75.8027C185.615 75.625 185.257 75.3607 184.983 75.0098C184.715 74.6589 184.564 74.2236 184.532 73.7041H185.954C186.036 74.5153 186.558 74.9209 187.52 74.9209C187.975 74.9209 188.335 74.8275 188.6 74.6406C188.868 74.4538 189.003 74.2168 189.003 73.9297C189.003 73.6836 188.907 73.4876 188.716 73.3418C188.524 73.1914 188.274 73.082 187.964 73.0137L186.768 72.7471C185.387 72.4463 184.696 71.7581 184.696 70.6826C184.696 70.0446 184.949 69.5251 185.455 69.124C185.965 68.723 186.633 68.5225 187.458 68.5225C188.274 68.5225 188.944 68.7344 189.468 69.1582C189.996 69.5775 190.27 70.1517 190.288 70.8809H188.907C188.903 70.5299 188.771 70.2406 188.511 70.0127C188.251 69.7803 187.907 69.6641 187.479 69.6641C187.068 69.6641 186.743 69.7598 186.501 69.9512C186.259 70.1426 186.139 70.3773 186.139 70.6553C186.139 70.9014 186.23 71.0996 186.412 71.25C186.599 71.4004 186.854 71.512 187.178 71.585L188.408 71.8584C189.11 72.0133 189.627 72.2526 189.96 72.5762C190.293 72.8997 190.459 73.3236 190.459 73.8477C190.459 74.3079 190.331 74.7044 190.076 75.0371C189.826 75.3652 189.481 75.6204 189.044 75.8027C188.606 75.9805 188.107 76.0693 187.547 76.0693ZM195.354 68.6797V69.8691H193.891V73.9912C193.891 74.2601 193.945 74.4469 194.055 74.5518C194.164 74.6566 194.362 74.709 194.649 74.709H195.354V75.8984H194.444C193.109 75.8984 192.441 75.3242 192.441 74.1758V69.8691H191.17V68.6797H192.441V66.7109H193.891V68.6797H195.354ZM199.455 76.0625C198.74 76.0625 198.124 75.9007 197.609 75.5771C197.099 75.2536 196.705 74.8092 196.427 74.2441C196.153 73.6745 196.017 73.0273 196.017 72.3027C196.017 71.569 196.16 70.9173 196.447 70.3477C196.734 69.778 197.131 69.3314 197.637 69.0078C198.143 68.6797 198.724 68.5156 199.38 68.5156C200.063 68.5156 200.656 68.6751 201.157 68.9941C201.663 69.3132 202.055 69.7575 202.333 70.3271C202.611 70.8923 202.75 71.5462 202.75 72.2891V72.6787H197.438C197.466 73.3304 197.653 73.8568 197.999 74.2578C198.35 74.6589 198.842 74.8594 199.476 74.8594C199.95 74.8594 200.339 74.7523 200.645 74.5381C200.95 74.3239 201.153 74.0459 201.253 73.7041H202.641C202.554 74.1689 202.36 74.5791 202.06 74.9346C201.763 75.29 201.39 75.568 200.938 75.7686C200.492 75.9645 199.997 76.0625 199.455 76.0625ZM197.452 71.585H201.342C201.283 71.0107 201.08 70.5573 200.733 70.2246C200.387 69.8874 199.94 69.7188 199.394 69.7188C198.847 69.7188 198.4 69.8874 198.054 70.2246C197.712 70.5573 197.511 71.0107 197.452 71.585Z" fill="black"/>
<rect x="383" y="55.8984" width="79" height="29" rx="6" fill="#059669"/>
<g clipPath="url(#clip1_2200_2634)">
<path d="M408.707 66.8984L406.5 64.6916C406.407 64.5983 406.297 64.5244 406.176 64.474C406.055 64.4237 405.924 64.398 405.793 64.3984H398C397.735 64.3984 397.48 64.5038 397.293 64.6913C397.105 64.8789 397 65.1332 397 65.3984V75.3984C397 75.6637 397.105 75.918 397.293 76.1055C397.48 76.2931 397.735 76.3984 398 76.3984H408C408.265 76.3984 408.52 76.2931 408.707 76.1055C408.895 75.918 409 75.6637 409 75.3984V67.6053C409 67.4739 408.975 67.3438 408.924 67.2225C408.874 67.1011 408.8 66.991 408.707 66.8984ZM408 75.3984H406.5V71.8984C406.5 71.6332 406.395 71.3789 406.207 71.1913C406.02 71.0038 405.765 70.8984 405.5 70.8984H400.5C400.235 70.8984 399.98 71.0038 399.793 71.1913C399.605 71.3789 399.5 71.6332 399.5 71.8984V75.3984H398V65.3984H405.793L408 67.6053V75.3984ZM405 66.8984C405 67.0311 404.947 67.1582 404.854 67.252C404.76 67.3458 404.633 67.3984 404.5 67.3984H401C400.867 67.3984 400.74 67.3458 400.646 67.252C400.553 67.1582 400.5 67.0311 400.5 66.8984C400.5 66.7658 400.553 66.6387 400.646 66.5449C400.74 66.4511 400.867 66.3984 401 66.3984H404.5C404.633 66.3984 404.76 66.4511 404.854 66.5449C404.947 66.6387 405 66.7658 405 66.8984Z" fill="white"/>
</g>
<path d="M423.457 76.0625C422.236 76.0625 421.272 75.7549 420.565 75.1396C419.864 74.5199 419.513 73.6722 419.513 72.5967H421.03C421.035 73.2666 421.249 73.7907 421.673 74.1689C422.101 74.5472 422.696 74.7363 423.457 74.7363C424.15 74.7363 424.703 74.5905 425.118 74.2988C425.537 74.0026 425.747 73.6061 425.747 73.1094C425.747 72.7174 425.597 72.4007 425.296 72.1592C425 71.9131 424.498 71.7057 423.792 71.5371L422.678 71.2705C421.648 71.0244 420.896 70.6826 420.422 70.2451C419.952 69.8031 419.718 69.2288 419.718 68.5225C419.718 67.9255 419.868 67.4036 420.169 66.957C420.47 66.5104 420.891 66.1641 421.434 65.918C421.98 65.6719 422.618 65.5488 423.348 65.5488C424.446 65.5488 425.319 65.8359 425.966 66.4102C426.618 66.9844 426.959 67.7682 426.991 68.7617H425.521C425.485 68.1738 425.271 67.7135 424.879 67.3809C424.487 67.0436 423.97 66.875 423.327 66.875C422.712 66.875 422.208 67.0231 421.816 67.3193C421.424 67.611 421.229 67.987 421.229 68.4473C421.229 68.8164 421.379 69.1172 421.68 69.3496C421.98 69.5775 422.479 69.7757 423.177 69.9443L424.277 70.2041C425.298 70.4456 426.05 70.7943 426.533 71.25C427.021 71.7057 427.265 72.2982 427.265 73.0273C427.265 73.638 427.107 74.1712 426.793 74.627C426.479 75.0827 426.036 75.4359 425.467 75.6865C424.897 75.9372 424.227 76.0625 423.457 76.0625ZM430.792 76.0146C430.072 76.0146 429.475 75.8324 429.001 75.4678C428.527 75.0986 428.29 74.554 428.29 73.834C428.29 73.2871 428.424 72.8678 428.693 72.5762C428.967 72.2799 429.32 72.068 429.753 71.9404C430.19 71.8128 430.653 71.7194 431.141 71.6602C431.592 71.6055 431.95 71.5599 432.214 71.5234C432.478 71.487 432.665 71.4323 432.774 71.3594C432.888 71.2865 432.945 71.1611 432.945 70.9834V70.9219C432.945 70.571 432.818 70.2839 432.562 70.0605C432.307 69.8327 431.95 69.7188 431.489 69.7188C431.029 69.7188 430.653 69.8304 430.361 70.0537C430.07 70.2725 429.91 70.5482 429.883 70.8809H428.468C428.5 70.1927 428.789 69.6299 429.336 69.1924C429.883 68.7549 430.607 68.5361 431.51 68.5361C432.398 68.5361 433.098 68.7549 433.608 69.1924C434.119 69.6299 434.374 70.2155 434.374 70.9492V75.8984H432.952V74.873H432.925C432.774 75.1647 432.535 75.429 432.207 75.666C431.883 75.8984 431.412 76.0146 430.792 76.0146ZM431.086 74.8525C431.724 74.8525 432.193 74.6885 432.494 74.3604C432.799 74.0277 432.952 73.6403 432.952 73.1982V72.3506C432.856 72.4281 432.64 72.4987 432.303 72.5625C431.965 72.6217 431.605 72.6787 431.223 72.7334C430.826 72.7926 430.478 72.9043 430.177 73.0684C429.876 73.2324 429.726 73.4967 429.726 73.8613C429.726 74.1712 429.846 74.415 430.088 74.5928C430.334 74.766 430.667 74.8525 431.086 74.8525ZM437.771 75.8984L435.023 68.6797H436.568L438.004 72.6377C438.104 72.9202 438.2 73.2028 438.291 73.4854C438.382 73.7679 438.473 74.0482 438.564 74.3262C438.656 74.0482 438.747 73.7679 438.838 73.4854C438.929 73.2028 439.022 72.9202 439.118 72.6377L440.533 68.6797H442.058L439.303 75.8984H437.771ZM445.852 76.0625C445.136 76.0625 444.521 75.9007 444.006 75.5771C443.495 75.2536 443.101 74.8092 442.823 74.2441C442.55 73.6745 442.413 73.0273 442.413 72.3027C442.413 71.569 442.557 70.9173 442.844 70.3477C443.131 69.778 443.527 69.3314 444.033 69.0078C444.539 68.6797 445.12 68.5156 445.776 68.5156C446.46 68.5156 447.052 68.6751 447.554 68.9941C448.06 69.3132 448.451 69.7575 448.729 70.3271C449.007 70.8923 449.146 71.5462 449.146 72.2891V72.6787H443.835C443.862 73.3304 444.049 73.8568 444.396 74.2578C444.746 74.6589 445.239 74.8594 445.872 74.8594C446.346 74.8594 446.736 74.7523 447.041 74.5381C447.346 74.3239 447.549 74.0459 447.649 73.7041H449.037C448.951 74.1689 448.757 74.5791 448.456 74.9346C448.16 75.29 447.786 75.568 447.335 75.7686C446.888 75.9645 446.394 76.0625 445.852 76.0625ZM443.849 71.585H447.738C447.679 71.0107 447.476 70.5573 447.13 70.2246C446.784 69.8874 446.337 69.7188 445.79 69.7188C445.243 69.7188 444.797 69.8874 444.45 70.2246C444.108 70.5573 443.908 71.0107 443.849 71.585Z" fill="white"/>
<path d="M103 96.8984H462" stroke="#E5E5E5"/>
<path d="M105.447 112.713V122.898H103.93V112.713H105.447ZM108.633 118.742V122.898H107.19V115.68H108.605V116.767C109.098 115.946 109.825 115.536 110.786 115.536C111.283 115.536 111.727 115.646 112.119 115.864C112.516 116.078 112.828 116.397 113.056 116.821C113.284 117.245 113.397 117.771 113.397 118.4V122.898H111.955V118.578C111.955 117.999 111.816 117.564 111.538 117.272C111.26 116.976 110.873 116.828 110.376 116.828C109.884 116.828 109.469 116.981 109.132 117.286C108.799 117.587 108.633 118.072 108.633 118.742ZM118.176 125.852C117.292 125.852 116.569 125.656 116.009 125.264C115.448 124.872 115.12 124.323 115.024 123.616H116.467C116.558 123.967 116.756 124.231 117.062 124.409C117.367 124.587 117.738 124.676 118.176 124.676C118.759 124.676 119.215 124.519 119.543 124.204C119.871 123.89 120.035 123.441 120.035 122.857V121.764H120.028C119.778 122.183 119.461 122.493 119.078 122.693C118.7 122.894 118.274 122.994 117.8 122.994C117.171 122.994 116.622 122.837 116.152 122.522C115.683 122.203 115.318 121.766 115.059 121.21C114.799 120.649 114.669 120.002 114.669 119.269C114.669 118.535 114.799 117.888 115.059 117.327C115.323 116.767 115.69 116.329 116.159 116.015C116.629 115.696 117.173 115.536 117.793 115.536C118.262 115.536 118.693 115.636 119.085 115.837C119.477 116.037 119.794 116.352 120.035 116.78H120.042V115.68H121.464V122.803C121.464 123.532 121.316 124.12 121.02 124.566C120.723 125.013 120.327 125.339 119.83 125.544C119.333 125.749 118.782 125.852 118.176 125.852ZM118.094 121.757C118.709 121.757 119.199 121.531 119.563 121.08C119.933 120.624 120.117 120.018 120.117 119.262C120.117 118.505 119.933 117.901 119.563 117.45C119.199 116.994 118.709 116.767 118.094 116.767C117.51 116.767 117.036 116.981 116.672 117.409C116.312 117.833 116.132 118.451 116.132 119.262C116.132 120.073 116.312 120.693 116.672 121.121C117.036 121.545 117.51 121.757 118.094 121.757ZM123.091 122.898V115.68H124.472V116.849H124.499C124.631 116.452 124.839 116.145 125.121 115.926C125.408 115.702 125.782 115.591 126.242 115.591C126.352 115.591 126.452 115.595 126.543 115.604C126.634 115.614 126.709 115.62 126.769 115.625V116.972C126.714 116.958 126.616 116.944 126.475 116.931C126.333 116.912 126.178 116.903 126.01 116.903C125.604 116.903 125.256 117.045 124.964 117.327C124.677 117.61 124.533 118.045 124.533 118.633V122.898H123.091ZM130.822 123.062C130.107 123.062 129.492 122.901 128.977 122.577C128.466 122.254 128.072 121.809 127.794 121.244C127.521 120.674 127.384 120.027 127.384 119.303C127.384 118.569 127.527 117.917 127.814 117.348C128.102 116.778 128.498 116.331 129.004 116.008C129.51 115.68 130.091 115.516 130.747 115.516C131.431 115.516 132.023 115.675 132.524 115.994C133.03 116.313 133.422 116.757 133.7 117.327C133.978 117.892 134.117 118.546 134.117 119.289V119.679H128.806C128.833 120.33 129.02 120.857 129.366 121.258C129.717 121.659 130.209 121.859 130.843 121.859C131.317 121.859 131.706 121.752 132.012 121.538C132.317 121.324 132.52 121.046 132.62 120.704H134.008C133.921 121.169 133.728 121.579 133.427 121.935C133.131 122.29 132.757 122.568 132.306 122.769C131.859 122.965 131.365 123.062 130.822 123.062ZM128.819 118.585H132.709C132.65 118.011 132.447 117.557 132.101 117.225C131.754 116.887 131.308 116.719 130.761 116.719C130.214 116.719 129.767 116.887 129.421 117.225C129.079 117.557 128.879 118.011 128.819 118.585ZM138.144 123.042C137.515 123.042 136.965 122.885 136.496 122.57C136.027 122.251 135.662 121.812 135.402 121.251C135.143 120.686 135.013 120.032 135.013 119.289C135.013 118.546 135.143 117.895 135.402 117.334C135.667 116.769 136.034 116.329 136.503 116.015C136.972 115.696 137.517 115.536 138.137 115.536C138.606 115.536 139.035 115.634 139.422 115.83C139.809 116.026 140.119 116.325 140.352 116.726H140.365V112.713H141.808V122.898H140.393V121.798H140.379C140.137 122.217 139.821 122.529 139.429 122.734C139.041 122.939 138.613 123.042 138.144 123.042ZM138.438 121.798C139.053 121.798 139.543 121.57 139.907 121.114C140.276 120.654 140.461 120.046 140.461 119.289C140.461 118.528 140.276 117.92 139.907 117.464C139.543 117.004 139.053 116.773 138.438 116.773C137.854 116.773 137.38 116.99 137.016 117.423C136.656 117.851 136.476 118.473 136.476 119.289C136.476 120.105 136.656 120.727 137.016 121.155C137.38 121.584 137.854 121.798 138.438 121.798ZM143.435 122.898V115.68H144.877V122.898H143.435ZM144.152 114.436C143.897 114.436 143.681 114.351 143.503 114.183C143.33 114.009 143.243 113.8 143.243 113.554C143.243 113.303 143.33 113.093 143.503 112.925C143.681 112.752 143.897 112.665 144.152 112.665C144.408 112.665 144.624 112.752 144.802 112.925C144.979 113.093 145.068 113.303 145.068 113.554C145.068 113.8 144.979 114.009 144.802 114.183C144.624 114.351 144.408 114.436 144.152 114.436ZM149.594 123.062C148.878 123.062 148.263 122.901 147.748 122.577C147.238 122.254 146.843 121.809 146.565 121.244C146.292 120.674 146.155 120.027 146.155 119.303C146.155 118.569 146.299 117.917 146.586 117.348C146.873 116.778 147.27 116.331 147.775 116.008C148.281 115.68 148.862 115.516 149.519 115.516C150.202 115.516 150.795 115.675 151.296 115.994C151.802 116.313 152.194 116.757 152.472 117.327C152.75 117.892 152.889 118.546 152.889 119.289V119.679H147.577C147.604 120.33 147.791 120.857 148.138 121.258C148.489 121.659 148.981 121.859 149.614 121.859C150.088 121.859 150.478 121.752 150.783 121.538C151.089 121.324 151.291 121.046 151.392 120.704H152.779C152.693 121.169 152.499 121.579 152.198 121.935C151.902 122.29 151.528 122.568 151.077 122.769C150.631 122.965 150.136 123.062 149.594 123.062ZM147.591 118.585H151.48C151.421 118.011 151.218 117.557 150.872 117.225C150.526 116.887 150.079 116.719 149.532 116.719C148.985 116.719 148.539 116.887 148.192 117.225C147.851 117.557 147.65 118.011 147.591 118.585ZM155.582 118.742V122.898H154.14V115.68H155.555V116.767C156.047 115.946 156.774 115.536 157.735 115.536C158.232 115.536 158.676 115.646 159.068 115.864C159.465 116.078 159.777 116.397 160.005 116.821C160.233 117.245 160.347 117.771 160.347 118.4V122.898H158.904V118.578C158.904 117.999 158.765 117.564 158.487 117.272C158.209 116.976 157.822 116.828 157.325 116.828C156.833 116.828 156.418 116.981 156.081 117.286C155.748 117.587 155.582 118.072 155.582 118.742ZM165.453 115.68V116.869H163.99V120.991C163.99 121.26 164.045 121.447 164.154 121.552C164.264 121.657 164.462 121.709 164.749 121.709H165.453V122.898H164.544C163.209 122.898 162.541 122.324 162.541 121.176V116.869H161.27V115.68H162.541V113.711H163.99V115.68H165.453Z" fill="#666666"/>
<rect x="103.3" y="138.198" width="358.4" height="122.4" rx="5.7" fill="black" fill-opacity="0.04"/>
<rect x="103.3" y="138.198" width="358.4" height="122.4" rx="5.7" stroke="#E5E5E5" stroke-width="0.6"/>
<path d="M119.797 160.398V151.668H123.061C123.959 151.668 124.658 151.877 125.158 152.295C125.662 152.709 125.914 153.266 125.914 153.965C125.914 154.465 125.783 154.871 125.521 155.184C125.264 155.496 124.906 155.723 124.449 155.863V155.875C124.957 155.945 125.385 156.152 125.732 156.496C126.084 156.84 126.26 157.322 126.26 157.943C126.26 158.686 126 159.281 125.48 159.73C124.965 160.176 124.191 160.398 123.16 160.398H119.797ZM121.086 159.303H123.078C123.672 159.303 124.129 159.188 124.449 158.957C124.773 158.723 124.936 158.383 124.936 157.938C124.936 157.496 124.777 157.146 124.461 156.889C124.148 156.631 123.703 156.502 123.125 156.502H121.086V159.303ZM121.086 155.43H123.043C123.539 155.43 123.926 155.311 124.203 155.072C124.484 154.834 124.625 154.51 124.625 154.1C124.625 153.689 124.484 153.365 124.203 153.127C123.926 152.885 123.539 152.764 123.043 152.764H121.086V155.43ZM130.027 160.539C129.414 160.539 128.887 160.4 128.445 160.123C128.008 159.846 127.67 159.465 127.432 158.98C127.197 158.492 127.08 157.938 127.08 157.316C127.08 156.688 127.203 156.129 127.449 155.641C127.695 155.152 128.035 154.77 128.469 154.492C128.902 154.211 129.4 154.07 129.963 154.07C130.549 154.07 131.057 154.207 131.486 154.48C131.92 154.754 132.256 155.135 132.494 155.623C132.732 156.107 132.852 156.668 132.852 157.305V157.639H128.299C128.322 158.197 128.482 158.648 128.779 158.992C129.08 159.336 129.502 159.508 130.045 159.508C130.451 159.508 130.785 159.416 131.047 159.232C131.309 159.049 131.482 158.811 131.568 158.518H132.758C132.684 158.916 132.518 159.268 132.26 159.572C132.006 159.877 131.686 160.115 131.299 160.287C130.916 160.455 130.492 160.539 130.027 160.539ZM128.311 156.701H131.645C131.594 156.209 131.42 155.82 131.123 155.535C130.826 155.246 130.443 155.102 129.975 155.102C129.506 155.102 129.123 155.246 128.826 155.535C128.533 155.82 128.361 156.209 128.311 156.701ZM136.566 160.539C135.953 160.539 135.426 160.4 134.984 160.123C134.547 159.846 134.209 159.465 133.971 158.98C133.736 158.492 133.619 157.938 133.619 157.316C133.619 156.688 133.742 156.129 133.988 155.641C134.234 155.152 134.574 154.77 135.008 154.492C135.441 154.211 135.939 154.07 136.502 154.07C137.088 154.07 137.596 154.207 138.025 154.48C138.459 154.754 138.795 155.135 139.033 155.623C139.271 156.107 139.391 156.668 139.391 157.305V157.639H134.838C134.861 158.197 135.021 158.648 135.318 158.992C135.619 159.336 136.041 159.508 136.584 159.508C136.99 159.508 137.324 159.416 137.586 159.232C137.848 159.049 138.021 158.811 138.107 158.518H139.297C139.223 158.916 139.057 159.268 138.799 159.572C138.545 159.877 138.225 160.115 137.838 160.287C137.455 160.455 137.031 160.539 136.566 160.539ZM134.85 156.701H138.184C138.133 156.209 137.959 155.82 137.662 155.535C137.365 155.246 136.982 155.102 136.514 155.102C136.045 155.102 135.662 155.246 135.365 155.535C135.072 155.82 134.9 156.209 134.85 156.701ZM143.463 154.211V155.23H142.203V160.398H140.967V155.23H139.859V154.211H140.967V153.209C140.967 152.721 141.119 152.342 141.424 152.072C141.732 151.803 142.166 151.668 142.725 151.668H143.463V152.688H142.918C142.656 152.688 142.471 152.742 142.361 152.852C142.256 152.961 142.203 153.146 142.203 153.408V154.211H143.463ZM147.359 160.398V151.668H150.682C151.615 151.668 152.355 151.912 152.902 152.4C153.449 152.889 153.723 153.551 153.723 154.387C153.723 154.996 153.566 155.516 153.254 155.945C152.941 156.371 152.514 156.682 151.971 156.877L153.857 160.398H152.393L150.652 157.094C150.633 157.094 150.613 157.094 150.594 157.094H148.66V160.398H147.359ZM148.66 155.986H150.629C151.191 155.986 151.633 155.844 151.953 155.559C152.277 155.27 152.439 154.879 152.439 154.387C152.439 153.895 152.277 153.506 151.953 153.221C151.629 152.936 151.186 152.793 150.623 152.793H148.66V155.986ZM154.924 160.398V154.211H156.16V160.398H154.924ZM155.539 153.145C155.32 153.145 155.135 153.072 154.982 152.928C154.834 152.779 154.76 152.6 154.76 152.389C154.76 152.174 154.834 151.994 154.982 151.85C155.135 151.701 155.32 151.627 155.539 151.627C155.758 151.627 155.943 151.701 156.096 151.85C156.248 151.994 156.324 152.174 156.324 152.389C156.324 152.6 156.248 152.779 156.096 152.928C155.943 153.072 155.758 153.145 155.539 153.145ZM160.701 160.521C160.299 160.521 159.93 160.434 159.594 160.258C159.262 160.082 158.992 159.814 158.785 159.455H158.773V160.398H157.561V151.668H158.797V155.107H158.809C159.008 154.764 159.273 154.508 159.605 154.34C159.938 154.172 160.305 154.088 160.707 154.088C161.238 154.088 161.705 154.225 162.107 154.498C162.51 154.768 162.822 155.145 163.045 155.629C163.271 156.109 163.385 156.668 163.385 157.305C163.385 157.941 163.273 158.502 163.051 158.986C162.828 159.467 162.516 159.844 162.113 160.117C161.711 160.387 161.24 160.521 160.701 160.521ZM160.449 159.455C160.949 159.455 161.354 159.271 161.662 158.904C161.975 158.537 162.131 158.004 162.131 157.305C162.131 156.605 161.975 156.072 161.662 155.705C161.354 155.334 160.949 155.148 160.449 155.148C159.922 155.148 159.5 155.346 159.184 155.74C158.871 156.131 158.715 156.652 158.715 157.305C158.715 157.953 158.871 158.475 159.184 158.869C159.5 159.26 159.922 159.455 160.449 159.455ZM167.117 160.539C166.504 160.539 165.977 160.4 165.535 160.123C165.098 159.846 164.76 159.465 164.521 158.98C164.287 158.492 164.17 157.938 164.17 157.316C164.17 156.688 164.293 156.129 164.539 155.641C164.785 155.152 165.125 154.77 165.559 154.492C165.992 154.211 166.49 154.07 167.053 154.07C167.639 154.07 168.146 154.207 168.576 154.48C169.01 154.754 169.346 155.135 169.584 155.623C169.822 156.107 169.941 156.668 169.941 157.305V157.639H165.389C165.412 158.197 165.572 158.648 165.869 158.992C166.17 159.336 166.592 159.508 167.135 159.508C167.541 159.508 167.875 159.416 168.137 159.232C168.398 159.049 168.572 158.811 168.658 158.518H169.848C169.773 158.916 169.607 159.268 169.35 159.572C169.096 159.877 168.775 160.115 168.389 160.287C168.006 160.455 167.582 160.539 167.117 160.539ZM165.4 156.701H168.734C168.684 156.209 168.51 155.82 168.213 155.535C167.916 155.246 167.533 155.102 167.064 155.102C166.596 155.102 166.213 155.246 165.916 155.535C165.623 155.82 165.451 156.209 165.4 156.701ZM170.861 162.848V161.805H171.529C171.725 161.805 171.883 161.748 172.004 161.635C172.129 161.525 172.238 161.344 172.332 161.09L172.613 160.357L170.223 154.211H171.547L172.783 157.604C172.865 157.834 172.945 158.066 173.023 158.301C173.102 158.531 173.178 158.762 173.252 158.992C173.326 158.762 173.402 158.531 173.48 158.301C173.562 158.066 173.645 157.834 173.727 157.604L174.945 154.211H176.252L173.439 161.482C173.092 162.393 172.494 162.848 171.646 162.848H170.861ZM179.504 160.539C178.891 160.539 178.363 160.4 177.922 160.123C177.484 159.846 177.146 159.465 176.908 158.98C176.674 158.492 176.557 157.938 176.557 157.316C176.557 156.688 176.68 156.129 176.926 155.641C177.172 155.152 177.512 154.77 177.945 154.492C178.379 154.211 178.877 154.07 179.439 154.07C180.025 154.07 180.533 154.207 180.963 154.48C181.396 154.754 181.732 155.135 181.971 155.623C182.209 156.107 182.328 156.668 182.328 157.305V157.639H177.775C177.799 158.197 177.959 158.648 178.256 158.992C178.557 159.336 178.979 159.508 179.521 159.508C179.928 159.508 180.262 159.416 180.523 159.232C180.785 159.049 180.959 158.811 181.045 158.518H182.234C182.16 158.916 181.994 159.268 181.736 159.572C181.482 159.877 181.162 160.115 180.775 160.287C180.393 160.455 179.969 160.539 179.504 160.539ZM177.787 156.701H181.121C181.07 156.209 180.896 155.82 180.6 155.535C180.303 155.246 179.92 155.102 179.451 155.102C178.982 155.102 178.6 155.246 178.303 155.535C178.01 155.82 177.838 156.209 177.787 156.701Z" fill="#333333"/>
<g clipPath="url(#clip2_2200_2634)">
<path d="M443 153.898L438 158.898L433 153.898" stroke="#666666" stroke-width="2" stroke-linecap="round" stroke-linejoin="round"/>
</g>
<path d="M119 179.898H446" stroke="#E5E5E5" stroke-width="0.6"/>
<path d="M119.094 207.898L122.264 199.168H123.834L126.98 207.898H125.568L124.795 205.631H121.273L120.477 207.898H119.094ZM121.666 204.523H124.414L123.887 202.977C123.77 202.617 123.645 202.232 123.512 201.822C123.379 201.412 123.227 200.924 123.055 200.357C122.879 200.924 122.725 201.412 122.592 201.822C122.459 202.232 122.332 202.617 122.211 202.977L121.666 204.523ZM127.783 207.898V201.711H128.984V202.748C129.176 202.365 129.436 202.076 129.764 201.881C130.092 201.686 130.447 201.588 130.83 201.588C131.252 201.588 131.621 201.695 131.938 201.91C132.258 202.125 132.482 202.398 132.611 202.73C132.779 202.395 133.033 202.121 133.373 201.91C133.717 201.695 134.117 201.588 134.574 201.588C134.957 201.588 135.305 201.672 135.617 201.84C135.93 202.008 136.178 202.258 136.361 202.59C136.545 202.918 136.637 203.33 136.637 203.826V207.898H135.395V203.932C135.395 203.49 135.271 203.17 135.025 202.971C134.779 202.771 134.488 202.672 134.152 202.672C133.738 202.672 133.412 202.801 133.174 203.059C132.936 203.312 132.816 203.637 132.816 204.031V207.898H131.598V203.85C131.598 203.494 131.482 203.209 131.252 202.994C131.025 202.779 130.736 202.672 130.385 202.672C130.025 202.672 129.707 202.799 129.43 203.053C129.156 203.307 129.02 203.678 129.02 204.166V207.898H127.783ZM140.697 208.039C140.107 208.039 139.59 207.902 139.145 207.629C138.699 207.355 138.352 206.977 138.102 206.492C137.855 206.008 137.732 205.449 137.732 204.816C137.732 204.176 137.855 203.613 138.102 203.129C138.352 202.641 138.699 202.26 139.145 201.986C139.59 201.709 140.107 201.57 140.697 201.57C141.287 201.57 141.803 201.709 142.244 201.986C142.689 202.26 143.035 202.641 143.281 203.129C143.531 203.613 143.656 204.176 143.656 204.816C143.656 205.449 143.531 206.008 143.281 206.492C143.035 206.977 142.689 207.355 142.244 207.629C141.803 207.902 141.287 208.039 140.697 208.039ZM140.697 206.973C141.229 206.973 141.646 206.777 141.951 206.387C142.256 205.996 142.408 205.473 142.408 204.816C142.408 204.152 142.254 203.623 141.945 203.229C141.641 202.834 141.225 202.637 140.697 202.637C140.17 202.637 139.752 202.834 139.443 203.229C139.139 203.619 138.986 204.148 138.986 204.816C138.986 205.477 139.139 206.002 139.443 206.393C139.748 206.779 140.166 206.973 140.697 206.973ZM146.99 208.021C146.568 208.021 146.188 207.93 145.848 207.746C145.512 207.559 145.244 207.283 145.045 206.92C144.85 206.557 144.752 206.105 144.752 205.566V201.711H145.988V205.414C145.988 205.91 146.107 206.285 146.346 206.539C146.584 206.789 146.918 206.914 147.348 206.914C147.766 206.914 148.117 206.785 148.402 206.527C148.691 206.266 148.836 205.848 148.836 205.273V201.711H150.072V207.898H148.859V206.967C148.438 207.67 147.814 208.021 146.99 208.021ZM152.703 204.336V207.898H151.467V201.711H152.68V202.643C153.102 201.939 153.725 201.588 154.549 201.588C154.975 201.588 155.355 201.682 155.691 201.869C156.031 202.053 156.299 202.326 156.494 202.689C156.689 203.053 156.787 203.504 156.787 204.043V207.898H155.551V204.195C155.551 203.699 155.432 203.326 155.193 203.076C154.955 202.822 154.623 202.695 154.197 202.695C153.775 202.695 153.42 202.826 153.131 203.088C152.846 203.346 152.703 203.762 152.703 204.336ZM161.164 201.711V202.73H159.91V206.264C159.91 206.494 159.957 206.654 160.051 206.744C160.145 206.834 160.314 206.879 160.561 206.879H161.164V207.898H160.385C159.24 207.898 158.668 207.406 158.668 206.422V202.73H157.578V201.711H158.668V200.023H159.91V201.711H161.164ZM166.238 199.168V207.898H165.002V199.168H166.238ZM170.299 208.039C169.709 208.039 169.191 207.902 168.746 207.629C168.301 207.355 167.953 206.977 167.703 206.492C167.457 206.008 167.334 205.449 167.334 204.816C167.334 204.176 167.457 203.613 167.703 203.129C167.953 202.641 168.301 202.26 168.746 201.986C169.191 201.709 169.709 201.57 170.299 201.57C170.889 201.57 171.404 201.709 171.846 201.986C172.291 202.26 172.637 202.641 172.883 203.129C173.133 203.613 173.258 204.176 173.258 204.816C173.258 205.449 173.133 206.008 172.883 206.492C172.637 206.977 172.291 207.355 171.846 207.629C171.404 207.902 170.889 208.039 170.299 208.039ZM170.299 206.973C170.83 206.973 171.248 206.777 171.553 206.387C171.857 205.996 172.01 205.473 172.01 204.816C172.01 204.152 171.855 203.623 171.547 203.229C171.242 202.834 170.826 202.637 170.299 202.637C169.771 202.637 169.354 202.834 169.045 203.229C168.74 203.619 168.588 204.148 168.588 204.816C168.588 205.477 168.74 206.002 169.045 206.393C169.35 206.779 169.768 206.973 170.299 206.973ZM176.645 208.045C176.172 208.045 175.746 207.969 175.367 207.816C174.988 207.664 174.682 207.438 174.447 207.137C174.217 206.836 174.088 206.463 174.061 206.018H175.279C175.35 206.713 175.797 207.061 176.621 207.061C177.012 207.061 177.32 206.98 177.547 206.82C177.777 206.66 177.893 206.457 177.893 206.211C177.893 206 177.811 205.832 177.646 205.707C177.482 205.578 177.268 205.484 177.002 205.426L175.977 205.197C174.793 204.939 174.201 204.35 174.201 203.428C174.201 202.881 174.418 202.436 174.852 202.092C175.289 201.748 175.861 201.576 176.568 201.576C177.268 201.576 177.842 201.758 178.291 202.121C178.744 202.48 178.979 202.973 178.994 203.598H177.811C177.807 203.297 177.693 203.049 177.471 202.854C177.248 202.654 176.953 202.555 176.586 202.555C176.234 202.555 175.955 202.637 175.748 202.801C175.541 202.965 175.438 203.166 175.438 203.404C175.438 203.615 175.516 203.785 175.672 203.914C175.832 204.043 176.051 204.139 176.328 204.201L177.383 204.436C177.984 204.568 178.428 204.773 178.713 205.051C178.998 205.328 179.141 205.691 179.141 206.141C179.141 206.535 179.031 206.875 178.812 207.16C178.598 207.441 178.303 207.66 177.928 207.816C177.553 207.969 177.125 208.045 176.645 208.045ZM183.336 201.711V202.73H182.082V206.264C182.082 206.494 182.129 206.654 182.223 206.744C182.316 206.834 182.486 206.879 182.732 206.879H183.336V207.898H182.557C181.412 207.898 180.84 207.406 180.84 206.422V202.73H179.75V201.711H180.84V200.023H182.082V201.711H183.336Z" fill="#333333"/>
<rect x="119.3" y="219.198" width="156.9" height="31.4" rx="5.7" fill="white"/>
<rect x="119.3" y="219.198" width="156.9" height="31.4" rx="5.7" stroke="#E5E5E5" stroke-width="0.6"/>
<path d="M131.486 239.398V238.367L134.627 235.566C134.959 235.266 135.236 234.996 135.459 234.758C135.682 234.516 135.848 234.277 135.957 234.043C136.07 233.809 136.127 233.545 136.127 233.252C136.127 232.756 135.979 232.363 135.682 232.074C135.385 231.781 134.98 231.635 134.469 231.635C133.914 231.635 133.482 231.807 133.174 232.15C132.865 232.494 132.711 232.961 132.711 233.551H131.498C131.498 232.953 131.619 232.428 131.861 231.975C132.107 231.521 132.451 231.168 132.893 230.914C133.338 230.656 133.861 230.527 134.463 230.527C135.025 230.527 135.523 230.641 135.957 230.867C136.391 231.09 136.73 231.402 136.977 231.805C137.227 232.203 137.352 232.666 137.352 233.193C137.352 233.775 137.191 234.301 136.871 234.77C136.551 235.234 136.076 235.748 135.447 236.311L133.256 238.279V238.291H137.398V239.398H131.486ZM139.256 239.498C139.029 239.498 138.836 239.42 138.676 239.264C138.52 239.104 138.441 238.908 138.441 238.678C138.441 238.451 138.52 238.258 138.676 238.098C138.836 237.938 139.029 237.857 139.256 237.857C139.486 237.857 139.68 237.938 139.836 238.098C139.996 238.258 140.076 238.451 140.076 238.678C140.076 238.908 139.996 239.104 139.836 239.264C139.68 239.42 139.486 239.498 139.256 239.498ZM144.002 239.521C143.42 239.521 142.9 239.406 142.443 239.176C141.99 238.941 141.627 238.621 141.354 238.215C141.084 237.805 140.938 237.338 140.914 236.814H142.186C142.225 237.283 142.412 237.67 142.748 237.975C143.088 238.275 143.508 238.426 144.008 238.426C144.535 238.426 144.961 238.248 145.285 237.893C145.613 237.537 145.777 237.082 145.777 236.527C145.777 235.977 145.619 235.523 145.303 235.168C144.986 234.809 144.574 234.629 144.066 234.629C143.621 234.629 143.238 234.721 142.918 234.904C142.598 235.084 142.375 235.346 142.25 235.689H141.025L141.312 230.668H146.533V231.781H142.479L142.285 234.354H142.297C142.809 233.811 143.463 233.539 144.26 233.539C144.791 233.539 145.264 233.668 145.678 233.926C146.096 234.18 146.424 234.531 146.662 234.98C146.904 235.426 147.025 235.934 147.025 236.504C147.025 237.094 146.898 237.615 146.645 238.068C146.395 238.521 146.043 238.877 145.59 239.135C145.137 239.393 144.607 239.521 144.002 239.521ZM151.156 239.398V230.668H152.457V235.016C152.695 234.746 152.934 234.479 153.172 234.213C153.41 233.947 153.65 233.678 153.893 233.404L156.377 230.668H158.023L154.578 234.447L158.053 239.398H156.529L153.688 235.332L152.457 236.691V239.398H151.156ZM161.094 241.93C160.336 241.93 159.717 241.762 159.236 241.426C158.756 241.09 158.475 240.619 158.393 240.014H159.629C159.707 240.314 159.877 240.541 160.139 240.693C160.4 240.846 160.719 240.922 161.094 240.922C161.594 240.922 161.984 240.787 162.266 240.518C162.547 240.248 162.688 239.863 162.688 239.363V238.426H162.682C162.467 238.785 162.195 239.051 161.867 239.223C161.543 239.395 161.178 239.48 160.771 239.48C160.232 239.48 159.762 239.346 159.359 239.076C158.957 238.803 158.645 238.428 158.422 237.951C158.199 237.471 158.088 236.916 158.088 236.287C158.088 235.658 158.199 235.104 158.422 234.623C158.648 234.143 158.963 233.768 159.365 233.498C159.768 233.225 160.234 233.088 160.766 233.088C161.168 233.088 161.537 233.174 161.873 233.346C162.209 233.518 162.48 233.787 162.688 234.154H162.693V233.211H163.912V239.316C163.912 239.941 163.785 240.445 163.531 240.828C163.277 241.211 162.938 241.49 162.512 241.666C162.086 241.842 161.613 241.93 161.094 241.93ZM161.023 238.42C161.551 238.42 161.971 238.227 162.283 237.84C162.6 237.449 162.758 236.93 162.758 236.281C162.758 235.633 162.6 235.115 162.283 234.729C161.971 234.338 161.551 234.143 161.023 234.143C160.523 234.143 160.117 234.326 159.805 234.693C159.496 235.057 159.342 235.586 159.342 236.281C159.342 236.977 159.496 237.508 159.805 237.875C160.117 238.238 160.523 238.42 161.023 238.42Z" fill="#666666"/>
<g clipPath="url(#clip3_2200_2634)">
<path d="M265.5 232.898L260.5 237.898L255.5 232.898" stroke="#999999" stroke-width="1.5" stroke-linecap="round" stroke-linejoin="round"/>
</g>
<path d="M289.297 207.898V199.168H292.619C293.553 199.168 294.293 199.412 294.84 199.9C295.387 200.389 295.66 201.051 295.66 201.887C295.66 202.496 295.504 203.016 295.191 203.445C294.879 203.871 294.451 204.182 293.908 204.377L295.795 207.898H294.33L292.59 204.594C292.57 204.594 292.551 204.594 292.531 204.594H290.598V207.898H289.297ZM290.598 203.486H292.566C293.129 203.486 293.57 203.344 293.891 203.059C294.215 202.77 294.377 202.379 294.377 201.887C294.377 201.395 294.215 201.006 293.891 200.721C293.566 200.436 293.123 200.293 292.561 200.293H290.598V203.486ZM299.246 208.039C298.633 208.039 298.105 207.9 297.664 207.623C297.227 207.346 296.889 206.965 296.65 206.48C296.416 205.992 296.299 205.438 296.299 204.816C296.299 204.188 296.422 203.629 296.668 203.141C296.914 202.652 297.254 202.27 297.688 201.992C298.121 201.711 298.619 201.57 299.182 201.57C299.768 201.57 300.275 201.707 300.705 201.98C301.139 202.254 301.475 202.635 301.713 203.123C301.951 203.607 302.07 204.168 302.07 204.805V205.139H297.518C297.541 205.697 297.701 206.148 297.998 206.492C298.299 206.836 298.721 207.008 299.264 207.008C299.67 207.008 300.004 206.916 300.266 206.732C300.527 206.549 300.701 206.311 300.787 206.018H301.977C301.902 206.416 301.736 206.768 301.479 207.072C301.225 207.377 300.904 207.615 300.518 207.787C300.135 207.955 299.711 208.039 299.246 208.039ZM297.529 204.201H300.863C300.812 203.709 300.639 203.32 300.342 203.035C300.045 202.746 299.662 202.602 299.193 202.602C298.725 202.602 298.342 202.746 298.045 203.035C297.752 203.32 297.58 203.709 297.529 204.201ZM305.1 207.998C304.482 207.998 303.971 207.842 303.564 207.529C303.158 207.213 302.955 206.746 302.955 206.129C302.955 205.66 303.07 205.301 303.301 205.051C303.535 204.797 303.838 204.615 304.209 204.506C304.584 204.396 304.98 204.316 305.398 204.266C305.785 204.219 306.092 204.18 306.318 204.148C306.545 204.117 306.705 204.07 306.799 204.008C306.896 203.945 306.945 203.838 306.945 203.686V203.633C306.945 203.332 306.836 203.086 306.617 202.895C306.398 202.699 306.092 202.602 305.697 202.602C305.303 202.602 304.98 202.697 304.73 202.889C304.48 203.076 304.344 203.312 304.32 203.598H303.107C303.135 203.008 303.383 202.525 303.852 202.15C304.32 201.775 304.941 201.588 305.715 201.588C306.477 201.588 307.076 201.775 307.514 202.15C307.951 202.525 308.17 203.027 308.17 203.656V207.898H306.951V207.02H306.928C306.799 207.27 306.594 207.496 306.312 207.699C306.035 207.898 305.631 207.998 305.1 207.998ZM305.352 207.002C305.898 207.002 306.301 206.861 306.559 206.58C306.82 206.295 306.951 205.963 306.951 205.584V204.857C306.869 204.924 306.684 204.984 306.395 205.039C306.105 205.09 305.797 205.139 305.469 205.186C305.129 205.236 304.83 205.332 304.572 205.473C304.314 205.613 304.186 205.84 304.186 206.152C304.186 206.418 304.289 206.627 304.496 206.779C304.707 206.928 304.992 207.002 305.352 207.002ZM311.855 208.045C311.383 208.045 310.957 207.969 310.578 207.816C310.199 207.664 309.893 207.438 309.658 207.137C309.428 206.836 309.299 206.463 309.271 206.018H310.49C310.561 206.713 311.008 207.061 311.832 207.061C312.223 207.061 312.531 206.98 312.758 206.82C312.988 206.66 313.104 206.457 313.104 206.211C313.104 206 313.021 205.832 312.857 205.707C312.693 205.578 312.479 205.484 312.213 205.426L311.188 205.197C310.004 204.939 309.412 204.35 309.412 203.428C309.412 202.881 309.629 202.436 310.062 202.092C310.5 201.748 311.072 201.576 311.779 201.576C312.479 201.576 313.053 201.758 313.502 202.121C313.955 202.48 314.189 202.973 314.205 203.598H313.021C313.018 203.297 312.904 203.049 312.682 202.854C312.459 202.654 312.164 202.555 311.797 202.555C311.445 202.555 311.166 202.637 310.959 202.801C310.752 202.965 310.648 203.166 310.648 203.404C310.648 203.615 310.727 203.785 310.883 203.914C311.043 204.043 311.262 204.139 311.539 204.201L312.594 204.436C313.195 204.568 313.639 204.773 313.924 205.051C314.209 205.328 314.352 205.691 314.352 206.141C314.352 206.535 314.242 206.875 314.023 207.16C313.809 207.441 313.514 207.66 313.139 207.816C312.764 207.969 312.336 208.045 311.855 208.045ZM318.107 208.039C317.518 208.039 317 207.902 316.555 207.629C316.109 207.355 315.762 206.977 315.512 206.492C315.266 206.008 315.143 205.449 315.143 204.816C315.143 204.176 315.266 203.613 315.512 203.129C315.762 202.641 316.109 202.26 316.555 201.986C317 201.709 317.518 201.57 318.107 201.57C318.697 201.57 319.213 201.709 319.654 201.986C320.1 202.26 320.445 202.641 320.691 203.129C320.941 203.613 321.066 204.176 321.066 204.816C321.066 205.449 320.941 206.008 320.691 206.492C320.445 206.977 320.1 207.355 319.654 207.629C319.213 207.902 318.697 208.039 318.107 208.039ZM318.107 206.973C318.639 206.973 319.057 206.777 319.361 206.387C319.666 205.996 319.818 205.473 319.818 204.816C319.818 204.152 319.664 203.623 319.355 203.229C319.051 202.834 318.635 202.637 318.107 202.637C317.58 202.637 317.162 202.834 316.854 203.229C316.549 203.619 316.396 204.148 316.396 204.816C316.396 205.477 316.549 206.002 316.854 206.393C317.158 206.779 317.576 206.973 318.107 206.973ZM323.398 204.336V207.898H322.162V201.711H323.375V202.643C323.797 201.939 324.42 201.588 325.244 201.588C325.67 201.588 326.051 201.682 326.387 201.869C326.727 202.053 326.994 202.326 327.189 202.689C327.385 203.053 327.482 203.504 327.482 204.043V207.898H326.246V204.195C326.246 203.699 326.127 203.326 325.889 203.076C325.65 202.822 325.318 202.695 324.893 202.695C324.471 202.695 324.115 202.826 323.826 203.088C323.541 203.346 323.398 203.762 323.398 204.336Z" fill="#333333"/>
<rect x="288.8" y="219.198" width="156.9" height="31.4" rx="5.7" fill="white"/>
<rect x="288.8" y="219.198" width="156.9" height="31.4" rx="5.7" stroke="#E5E5E5" stroke-width="0.6"/>
<path d="M304.32 239.539C303.273 239.539 302.447 239.275 301.842 238.748C301.24 238.217 300.939 237.49 300.939 236.568H302.24C302.244 237.143 302.428 237.592 302.791 237.916C303.158 238.24 303.668 238.402 304.32 238.402C304.914 238.402 305.389 238.277 305.744 238.027C306.104 237.773 306.283 237.434 306.283 237.008C306.283 236.672 306.154 236.4 305.896 236.193C305.643 235.982 305.213 235.805 304.607 235.66L303.652 235.432C302.77 235.221 302.125 234.928 301.719 234.553C301.316 234.174 301.115 233.682 301.115 233.076C301.115 232.564 301.244 232.117 301.502 231.734C301.76 231.352 302.121 231.055 302.586 230.844C303.055 230.633 303.602 230.527 304.227 230.527C305.168 230.527 305.916 230.773 306.471 231.266C307.029 231.758 307.322 232.43 307.35 233.281H306.09C306.059 232.777 305.875 232.383 305.539 232.098C305.203 231.809 304.76 231.664 304.209 231.664C303.682 231.664 303.25 231.791 302.914 232.045C302.578 232.295 302.41 232.617 302.41 233.012C302.41 233.328 302.539 233.586 302.797 233.785C303.055 233.98 303.482 234.15 304.08 234.295L305.023 234.518C305.898 234.725 306.543 235.023 306.957 235.414C307.375 235.805 307.584 236.312 307.584 236.938C307.584 237.461 307.449 237.918 307.18 238.309C306.91 238.699 306.531 239.002 306.043 239.217C305.555 239.432 304.98 239.539 304.32 239.539ZM308.721 241.848V233.211H309.934V234.102H309.951C310.146 233.762 310.414 233.508 310.754 233.34C311.094 233.172 311.465 233.088 311.867 233.088C312.398 233.088 312.865 233.225 313.268 233.498C313.67 233.768 313.982 234.145 314.205 234.629C314.432 235.109 314.545 235.668 314.545 236.305C314.545 236.941 314.434 237.502 314.211 237.986C313.988 238.467 313.676 238.844 313.273 239.117C312.871 239.387 312.4 239.521 311.861 239.521C311.459 239.521 311.096 239.434 310.771 239.258C310.447 239.082 310.182 238.818 309.975 238.467H309.957V241.848H308.721ZM311.609 238.455C312.109 238.455 312.514 238.271 312.822 237.904C313.135 237.537 313.291 237.004 313.291 236.305C313.291 235.605 313.135 235.072 312.822 234.705C312.514 234.334 312.109 234.148 311.609 234.148C311.082 234.148 310.66 234.346 310.344 234.74C310.031 235.131 309.875 235.652 309.875 236.305C309.875 236.953 310.031 237.475 310.344 237.869C310.66 238.26 311.082 238.455 311.609 238.455ZM318.295 239.539C317.705 239.539 317.188 239.402 316.742 239.129C316.297 238.855 315.949 238.477 315.699 237.992C315.453 237.508 315.33 236.949 315.33 236.316C315.33 235.676 315.453 235.113 315.699 234.629C315.949 234.141 316.297 233.76 316.742 233.486C317.188 233.209 317.705 233.07 318.295 233.07C318.885 233.07 319.4 233.209 319.842 233.486C320.287 233.76 320.633 234.141 320.879 234.629C321.129 235.113 321.254 235.676 321.254 236.316C321.254 236.949 321.129 237.508 320.879 237.992C320.633 238.477 320.287 238.855 319.842 239.129C319.4 239.402 318.885 239.539 318.295 239.539ZM318.295 238.473C318.826 238.473 319.244 238.277 319.549 237.887C319.854 237.496 320.006 236.973 320.006 236.316C320.006 235.652 319.852 235.123 319.543 234.729C319.238 234.334 318.822 234.137 318.295 234.137C317.768 234.137 317.35 234.334 317.041 234.729C316.736 235.119 316.584 235.648 316.584 236.316C316.584 236.977 316.736 237.502 317.041 237.893C317.346 238.279 317.764 238.473 318.295 238.473ZM322.35 239.398V233.211H323.586V239.398H322.35ZM322.965 232.145C322.746 232.145 322.561 232.072 322.408 231.928C322.26 231.779 322.186 231.6 322.186 231.389C322.186 231.174 322.26 230.994 322.408 230.85C322.561 230.701 322.746 230.627 322.965 230.627C323.184 230.627 323.369 230.701 323.521 230.85C323.674 230.994 323.75 231.174 323.75 231.389C323.75 231.6 323.674 231.779 323.521 231.928C323.369 232.072 323.184 232.145 322.965 232.145ZM326.223 230.668V239.398H324.986V230.668H326.223ZM330.266 239.539C329.652 239.539 329.125 239.4 328.684 239.123C328.246 238.846 327.908 238.465 327.67 237.98C327.436 237.492 327.318 236.938 327.318 236.316C327.318 235.688 327.441 235.129 327.688 234.641C327.934 234.152 328.273 233.77 328.707 233.492C329.141 233.211 329.639 233.07 330.201 233.07C330.787 233.07 331.295 233.207 331.725 233.48C332.158 233.754 332.494 234.135 332.732 234.623C332.971 235.107 333.09 235.668 333.09 236.305V236.639H328.537C328.561 237.197 328.721 237.648 329.018 237.992C329.318 238.336 329.74 238.508 330.283 238.508C330.689 238.508 331.023 238.416 331.285 238.232C331.547 238.049 331.721 237.811 331.807 237.518H332.996C332.922 237.916 332.756 238.268 332.498 238.572C332.244 238.877 331.924 239.115 331.537 239.287C331.154 239.455 330.73 239.539 330.266 239.539ZM328.549 235.701H331.883C331.832 235.209 331.658 234.82 331.361 234.535C331.064 234.246 330.682 234.102 330.213 234.102C329.744 234.102 329.361 234.246 329.064 234.535C328.771 234.82 328.6 235.209 328.549 235.701ZM336.541 239.521C336.002 239.521 335.531 239.387 335.129 239.117C334.727 238.844 334.414 238.467 334.191 237.986C333.969 237.502 333.857 236.941 333.857 236.305C333.857 235.668 333.969 235.109 334.191 234.629C334.418 234.145 334.732 233.768 335.135 233.498C335.537 233.225 336.004 233.088 336.535 233.088C336.938 233.088 337.305 233.172 337.637 233.34C337.969 233.508 338.234 233.764 338.434 234.107H338.445V230.668H339.682V239.398H338.469V238.455H338.457C338.25 238.814 337.979 239.082 337.643 239.258C337.311 239.434 336.943 239.521 336.541 239.521ZM336.793 238.455C337.32 238.455 337.74 238.26 338.053 237.869C338.369 237.475 338.527 236.953 338.527 236.305C338.527 235.652 338.369 235.131 338.053 234.74C337.74 234.346 337.32 234.148 336.793 234.148C336.293 234.148 335.887 234.334 335.574 234.705C335.266 235.072 335.111 235.605 335.111 236.305C335.111 237.004 335.266 237.537 335.574 237.904C335.887 238.271 336.293 238.455 336.793 238.455ZM344.375 230.258L341.562 240.711H340.443L343.256 230.258H344.375ZM345.23 239.398V230.668H351.102V231.811H346.531V234.383H350.762V235.514H346.531V238.256H351.102V239.398H345.23ZM351.641 239.398L353.92 236.246L351.781 233.211H353.193L353.932 234.312C354.049 234.496 354.164 234.676 354.277 234.852C354.395 235.027 354.508 235.205 354.617 235.385C354.734 235.205 354.85 235.027 354.963 234.852C355.076 234.676 355.195 234.496 355.32 234.312L356.07 233.211H357.459L355.314 236.229L357.564 239.398H356.152L355.291 238.145C355.174 237.965 355.059 237.789 354.945 237.617C354.832 237.445 354.721 237.273 354.611 237.102C354.498 237.273 354.383 237.445 354.266 237.617C354.152 237.789 354.037 237.965 353.92 238.145L353.041 239.398H351.641ZM358.408 241.848V233.211H359.621V234.102H359.639C359.834 233.762 360.102 233.508 360.441 233.34C360.781 233.172 361.152 233.088 361.555 233.088C362.086 233.088 362.553 233.225 362.955 233.498C363.357 233.768 363.67 234.145 363.893 234.629C364.119 235.109 364.232 235.668 364.232 236.305C364.232 236.941 364.121 237.502 363.898 237.986C363.676 238.467 363.363 238.844 362.961 239.117C362.559 239.387 362.088 239.521 361.549 239.521C361.146 239.521 360.783 239.434 360.459 239.258C360.135 239.082 359.869 238.818 359.662 238.467H359.645V241.848H358.408ZM361.297 238.455C361.797 238.455 362.201 238.271 362.51 237.904C362.822 237.537 362.979 237.004 362.979 236.305C362.979 235.605 362.822 235.072 362.51 234.705C362.201 234.334 361.797 234.148 361.297 234.148C360.77 234.148 360.348 234.346 360.031 234.74C359.719 235.131 359.562 235.652 359.562 236.305C359.562 236.953 359.719 237.475 360.031 237.869C360.348 238.26 360.77 238.455 361.297 238.455ZM365.322 239.398V233.211H366.559V239.398H365.322ZM365.938 232.145C365.719 232.145 365.533 232.072 365.381 231.928C365.232 231.779 365.158 231.6 365.158 231.389C365.158 231.174 365.232 230.994 365.381 230.85C365.533 230.701 365.719 230.627 365.938 230.627C366.156 230.627 366.342 230.701 366.494 230.85C366.646 230.994 366.723 231.174 366.723 231.389C366.723 231.6 366.646 231.779 366.494 231.928C366.342 232.072 366.156 232.145 365.938 232.145ZM367.959 239.398V233.211H369.143V234.213H369.166C369.279 233.873 369.457 233.609 369.699 233.422C369.945 233.23 370.266 233.135 370.66 233.135C370.754 233.135 370.84 233.139 370.918 233.146C370.996 233.154 371.061 233.16 371.111 233.164V234.318C371.064 234.307 370.98 234.295 370.859 234.283C370.738 234.268 370.605 234.26 370.461 234.26C370.113 234.26 369.814 234.381 369.564 234.623C369.318 234.865 369.195 235.238 369.195 235.742V239.398H367.959ZM374.586 239.539C373.973 239.539 373.445 239.4 373.004 239.123C372.566 238.846 372.229 238.465 371.99 237.98C371.756 237.492 371.639 236.938 371.639 236.316C371.639 235.688 371.762 235.129 372.008 234.641C372.254 234.152 372.594 233.77 373.027 233.492C373.461 233.211 373.959 233.07 374.521 233.07C375.107 233.07 375.615 233.207 376.045 233.48C376.479 233.754 376.814 234.135 377.053 234.623C377.291 235.107 377.41 235.668 377.41 236.305V236.639H372.857C372.881 237.197 373.041 237.648 373.338 237.992C373.639 238.336 374.061 238.508 374.604 238.508C375.01 238.508 375.344 238.416 375.605 238.232C375.867 238.049 376.041 237.811 376.127 237.518H377.316C377.242 237.916 377.076 238.268 376.818 238.572C376.564 238.877 376.244 239.115 375.857 239.287C375.475 239.455 375.051 239.539 374.586 239.539ZM372.869 235.701H376.203C376.152 235.209 375.979 234.82 375.682 234.535C375.385 234.246 375.002 234.102 374.533 234.102C374.064 234.102 373.682 234.246 373.385 234.535C373.092 234.82 372.92 235.209 372.869 235.701ZM380.861 239.521C380.322 239.521 379.852 239.387 379.449 239.117C379.047 238.844 378.734 238.467 378.512 237.986C378.289 237.502 378.178 236.941 378.178 236.305C378.178 235.668 378.289 235.109 378.512 234.629C378.738 234.145 379.053 233.768 379.455 233.498C379.857 233.225 380.324 233.088 380.855 233.088C381.258 233.088 381.625 233.172 381.957 233.34C382.289 233.508 382.555 233.764 382.754 234.107H382.766V230.668H384.002V239.398H382.789V238.455H382.777C382.57 238.814 382.299 239.082 381.963 239.258C381.631 239.434 381.264 239.521 380.861 239.521ZM381.113 238.455C381.641 238.455 382.061 238.26 382.373 237.869C382.689 237.475 382.848 236.953 382.848 236.305C382.848 235.652 382.689 235.131 382.373 234.74C382.061 234.346 381.641 234.148 381.113 234.148C380.613 234.148 380.207 234.334 379.895 234.705C379.586 235.072 379.432 235.605 379.432 236.305C379.432 237.004 379.586 237.537 379.895 237.904C380.207 238.271 380.613 238.455 381.113 238.455Z" fill="#666666"/>
<g clipPath="url(#clip4_2200_2634)">
<path d="M435 232.898L430 237.898L425 232.898" stroke="#999999" stroke-width="1.5" stroke-linecap="round" stroke-linejoin="round"/>
</g>
<rect x="102.5" y="272.398" width="360" height="33" rx="8.5" fill="#FFFBEB"/>
<rect x="102.5" y="272.398" width="360" height="33" rx="8.5" stroke="white"/>
<g clipPath="url(#clip5_2200_2634)">
<path d="M129.801 292.654L124.335 283.162C124.198 282.93 124.003 282.737 123.769 282.603C123.535 282.469 123.27 282.398 123.001 282.398C122.731 282.398 122.466 282.469 122.232 282.603C121.998 282.737 121.803 282.93 121.666 283.162L116.201 292.654C116.069 292.879 116 293.135 116 293.395C116 293.656 116.069 293.912 116.201 294.137C116.336 294.371 116.53 294.564 116.765 294.698C116.999 294.832 117.265 294.901 117.535 294.898H128.466C128.736 294.901 129.002 294.832 129.236 294.698C129.47 294.564 129.665 294.37 129.799 294.137C129.931 293.912 130 293.656 130.001 293.396C130.001 293.135 129.932 292.879 129.801 292.654ZM122.501 287.398C122.501 287.266 122.553 287.139 122.647 287.045C122.741 286.951 122.868 286.898 123.001 286.898C123.133 286.898 123.26 286.951 123.354 287.045C123.448 287.139 123.501 287.266 123.501 287.398V289.898C123.501 290.031 123.448 290.158 123.354 290.252C123.26 290.346 123.133 290.398 123.001 290.398C122.868 290.398 122.741 290.346 122.647 290.252C122.553 290.158 122.501 290.031 122.501 289.898V287.398ZM123.001 292.898C122.852 292.898 122.707 292.854 122.584 292.772C122.461 292.69 122.365 292.573 122.308 292.435C122.251 292.298 122.236 292.148 122.265 292.002C122.294 291.857 122.365 291.723 122.47 291.618C122.575 291.513 122.709 291.442 122.854 291.413C123 291.384 123.151 291.399 123.288 291.456C123.425 291.512 123.542 291.608 123.624 291.732C123.707 291.855 123.751 292 123.751 292.148C123.751 292.347 123.672 292.538 123.531 292.679C123.39 292.819 123.2 292.898 123.001 292.898Z" fill="#F59E0B"/>
</g>
<path d="M139.797 293.398V284.668H141.631L143.588 289.783C143.666 290.006 143.768 290.299 143.893 290.662C144.018 291.021 144.131 291.354 144.232 291.658C144.33 291.354 144.441 291.021 144.566 290.662C144.691 290.299 144.793 290.006 144.871 289.783L146.799 284.668H148.639V293.398H147.361V288.641C147.361 288.328 147.365 287.965 147.373 287.551C147.381 287.133 147.391 286.717 147.402 286.303C147.242 286.775 147.09 287.221 146.945 287.639C146.805 288.057 146.688 288.391 146.594 288.641L144.754 293.398H143.688L141.83 288.641C141.74 288.402 141.625 288.088 141.484 287.697C141.348 287.303 141.199 286.879 141.039 286.426C141.051 286.824 141.061 287.219 141.068 287.609C141.076 288 141.08 288.344 141.08 288.641V293.398H139.797ZM152.025 293.498C151.408 293.498 150.896 293.342 150.49 293.029C150.084 292.713 149.881 292.246 149.881 291.629C149.881 291.16 149.996 290.801 150.227 290.551C150.461 290.297 150.764 290.115 151.135 290.006C151.51 289.896 151.906 289.816 152.324 289.766C152.711 289.719 153.018 289.68 153.244 289.648C153.471 289.617 153.631 289.57 153.725 289.508C153.822 289.445 153.871 289.338 153.871 289.186V289.133C153.871 288.832 153.762 288.586 153.543 288.395C153.324 288.199 153.018 288.102 152.623 288.102C152.229 288.102 151.906 288.197 151.656 288.389C151.406 288.576 151.27 288.812 151.246 289.098H150.033C150.061 288.508 150.309 288.025 150.777 287.65C151.246 287.275 151.867 287.088 152.641 287.088C153.402 287.088 154.002 287.275 154.439 287.65C154.877 288.025 155.096 288.527 155.096 289.156V293.398H153.877V292.52H153.854C153.725 292.77 153.52 292.996 153.238 293.199C152.961 293.398 152.557 293.498 152.025 293.498ZM152.277 292.502C152.824 292.502 153.227 292.361 153.484 292.08C153.746 291.795 153.877 291.463 153.877 291.084V290.357C153.795 290.424 153.609 290.484 153.32 290.539C153.031 290.59 152.723 290.639 152.395 290.686C152.055 290.736 151.756 290.832 151.498 290.973C151.24 291.113 151.111 291.34 151.111 291.652C151.111 291.918 151.215 292.127 151.422 292.279C151.633 292.428 151.918 292.502 152.277 292.502ZM156.49 293.398V287.211H157.674V288.213H157.697C157.811 287.873 157.988 287.609 158.23 287.422C158.477 287.23 158.797 287.135 159.191 287.135C159.285 287.135 159.371 287.139 159.449 287.146C159.527 287.154 159.592 287.16 159.643 287.164V288.318C159.596 288.307 159.512 288.295 159.391 288.283C159.27 288.268 159.137 288.26 158.992 288.26C158.645 288.26 158.346 288.381 158.096 288.623C157.85 288.865 157.727 289.238 157.727 289.742V293.398H156.49ZM163.176 295.93C162.418 295.93 161.799 295.762 161.318 295.426C160.838 295.09 160.557 294.619 160.475 294.014H161.711C161.789 294.314 161.959 294.541 162.221 294.693C162.482 294.846 162.801 294.922 163.176 294.922C163.676 294.922 164.066 294.787 164.348 294.518C164.629 294.248 164.77 293.863 164.77 293.363V292.426H164.764C164.549 292.785 164.277 293.051 163.949 293.223C163.625 293.395 163.26 293.48 162.854 293.48C162.314 293.48 161.844 293.346 161.441 293.076C161.039 292.803 160.727 292.428 160.504 291.951C160.281 291.471 160.17 290.916 160.17 290.287C160.17 289.658 160.281 289.104 160.504 288.623C160.73 288.143 161.045 287.768 161.447 287.498C161.85 287.225 162.316 287.088 162.848 287.088C163.25 287.088 163.619 287.174 163.955 287.346C164.291 287.518 164.562 287.787 164.77 288.154H164.775V287.211H165.994V293.316C165.994 293.941 165.867 294.445 165.613 294.828C165.359 295.211 165.02 295.49 164.594 295.666C164.168 295.842 163.695 295.93 163.176 295.93ZM163.105 292.42C163.633 292.42 164.053 292.227 164.365 291.84C164.682 291.449 164.84 290.93 164.84 290.281C164.84 289.633 164.682 289.115 164.365 288.729C164.053 288.338 163.633 288.143 163.105 288.143C162.605 288.143 162.199 288.326 161.887 288.693C161.578 289.057 161.424 289.586 161.424 290.281C161.424 290.977 161.578 291.508 161.887 291.875C162.199 292.238 162.605 292.42 163.105 292.42ZM167.389 293.398V287.211H168.625V293.398H167.389ZM168.004 286.145C167.785 286.145 167.6 286.072 167.447 285.928C167.299 285.779 167.225 285.6 167.225 285.389C167.225 285.174 167.299 284.994 167.447 284.85C167.6 284.701 167.785 284.627 168.004 284.627C168.223 284.627 168.408 284.701 168.561 284.85C168.713 284.994 168.789 285.174 168.789 285.389C168.789 285.6 168.713 285.779 168.561 285.928C168.408 286.072 168.223 286.145 168.004 286.145ZM171.262 289.836V293.398H170.025V287.211H171.238V288.143C171.66 287.439 172.283 287.088 173.107 287.088C173.533 287.088 173.914 287.182 174.25 287.369C174.59 287.553 174.857 287.826 175.053 288.189C175.248 288.553 175.346 289.004 175.346 289.543V293.398H174.109V289.695C174.109 289.199 173.99 288.826 173.752 288.576C173.514 288.322 173.182 288.195 172.756 288.195C172.334 288.195 171.979 288.326 171.689 288.588C171.404 288.846 171.262 289.262 171.262 289.836ZM181 284.668V293.398H179.699V284.668H181ZM182.494 293.398V287.211H183.695V288.248C183.887 287.865 184.146 287.576 184.475 287.381C184.803 287.186 185.158 287.088 185.541 287.088C185.963 287.088 186.332 287.195 186.648 287.41C186.969 287.625 187.193 287.898 187.322 288.23C187.49 287.895 187.744 287.621 188.084 287.41C188.428 287.195 188.828 287.088 189.285 287.088C189.668 287.088 190.016 287.172 190.328 287.34C190.641 287.508 190.889 287.758 191.072 288.09C191.256 288.418 191.348 288.83 191.348 289.326V293.398H190.105V289.432C190.105 288.99 189.982 288.67 189.736 288.471C189.49 288.271 189.199 288.172 188.863 288.172C188.449 288.172 188.123 288.301 187.885 288.559C187.646 288.812 187.527 289.137 187.527 289.531V293.398H186.309V289.35C186.309 288.994 186.193 288.709 185.963 288.494C185.736 288.279 185.447 288.172 185.096 288.172C184.736 288.172 184.418 288.299 184.141 288.553C183.867 288.807 183.73 289.178 183.73 289.666V293.398H182.494ZM192.748 295.848V287.211H193.961V288.102H193.979C194.174 287.762 194.441 287.508 194.781 287.34C195.121 287.172 195.492 287.088 195.895 287.088C196.426 287.088 196.893 287.225 197.295 287.498C197.697 287.768 198.01 288.145 198.232 288.629C198.459 289.109 198.572 289.668 198.572 290.305C198.572 290.941 198.461 291.502 198.238 291.986C198.016 292.467 197.703 292.844 197.301 293.117C196.898 293.387 196.428 293.521 195.889 293.521C195.486 293.521 195.123 293.434 194.799 293.258C194.475 293.082 194.209 292.818 194.002 292.467H193.984V295.848H192.748ZM195.637 292.455C196.137 292.455 196.541 292.271 196.85 291.904C197.162 291.537 197.318 291.004 197.318 290.305C197.318 289.605 197.162 289.072 196.85 288.705C196.541 288.334 196.137 288.148 195.637 288.148C195.109 288.148 194.688 288.346 194.371 288.74C194.059 289.131 193.902 289.652 193.902 290.305C193.902 290.953 194.059 291.475 194.371 291.869C194.688 292.26 195.109 292.455 195.637 292.455ZM201.619 293.498C201.002 293.498 200.49 293.342 200.084 293.029C199.678 292.713 199.475 292.246 199.475 291.629C199.475 291.16 199.59 290.801 199.82 290.551C200.055 290.297 200.357 290.115 200.729 290.006C201.104 289.896 201.5 289.816 201.918 289.766C202.305 289.719 202.611 289.68 202.838 289.648C203.064 289.617 203.225 289.57 203.318 289.508C203.416 289.445 203.465 289.338 203.465 289.186V289.133C203.465 288.832 203.355 288.586 203.137 288.395C202.918 288.199 202.611 288.102 202.217 288.102C201.822 288.102 201.5 288.197 201.25 288.389C201 288.576 200.863 288.812 200.84 289.098H199.627C199.654 288.508 199.902 288.025 200.371 287.65C200.84 287.275 201.461 287.088 202.234 287.088C202.996 287.088 203.596 287.275 204.033 287.65C204.471 288.025 204.689 288.527 204.689 289.156V293.398H203.471V292.52H203.447C203.318 292.77 203.113 292.996 202.832 293.199C202.555 293.398 202.15 293.498 201.619 293.498ZM201.871 292.502C202.418 292.502 202.82 292.361 203.078 292.08C203.34 291.795 203.471 291.463 203.471 291.084V290.357C203.389 290.424 203.203 290.484 202.914 290.539C202.625 290.59 202.316 290.639 201.988 290.686C201.648 290.736 201.35 290.832 201.092 290.973C200.834 291.113 200.705 291.34 200.705 291.652C200.705 291.918 200.809 292.127 201.016 292.279C201.227 292.428 201.512 292.502 201.871 292.502ZM208.732 293.539C208.143 293.539 207.625 293.402 207.18 293.129C206.738 292.855 206.395 292.477 206.148 291.992C205.902 291.504 205.779 290.945 205.779 290.316C205.779 289.68 205.902 289.117 206.148 288.629C206.398 288.141 206.744 287.76 207.186 287.486C207.627 287.209 208.143 287.07 208.732 287.07C209.225 287.07 209.664 287.168 210.051 287.363C210.441 287.555 210.758 287.82 211 288.16C211.242 288.5 211.389 288.889 211.439 289.326H210.209C210.146 288.979 209.99 288.693 209.74 288.471C209.49 288.248 209.156 288.137 208.738 288.137C208.203 288.137 207.785 288.334 207.484 288.729C207.184 289.123 207.033 289.652 207.033 290.316C207.033 290.973 207.184 291.496 207.484 291.887C207.785 292.277 208.203 292.473 208.738 292.473C209.164 292.473 209.492 292.365 209.723 292.15C209.953 291.932 210.109 291.641 210.191 291.277H211.439C211.393 291.707 211.248 292.094 211.006 292.438C210.764 292.777 210.447 293.047 210.057 293.246C209.666 293.441 209.225 293.539 208.732 293.539ZM215.477 287.211V288.23H214.223V291.764C214.223 291.994 214.27 292.154 214.363 292.244C214.457 292.334 214.627 292.379 214.873 292.379H215.477V293.398H214.697C213.553 293.398 212.98 292.906 212.98 291.922V288.23H211.891V287.211H212.98V285.523H214.223V287.211H215.477ZM217.123 293.498C216.896 293.498 216.703 293.42 216.543 293.264C216.387 293.104 216.309 292.908 216.309 292.678C216.309 292.451 216.387 292.258 216.543 292.098C216.703 291.938 216.896 291.857 217.123 291.857C217.354 291.857 217.547 291.938 217.703 292.098C217.863 292.258 217.943 292.451 217.943 292.678C217.943 292.908 217.863 293.104 217.703 293.264C217.547 293.42 217.354 293.498 217.123 293.498ZM217.123 289.068C216.896 289.068 216.703 288.99 216.543 288.834C216.387 288.674 216.309 288.479 216.309 288.248C216.309 288.021 216.387 287.828 216.543 287.668C216.703 287.508 216.896 287.428 217.123 287.428C217.354 287.428 217.547 287.508 217.703 287.668C217.863 287.828 217.943 288.021 217.943 288.248C217.943 288.479 217.863 288.674 217.703 288.834C217.547 288.99 217.354 289.068 217.123 289.068ZM225.9 288.488V289.578H222.027V288.488H225.9ZM226.697 293.398V292.367L229.838 289.566C230.17 289.266 230.447 288.996 230.67 288.758C230.893 288.516 231.059 288.277 231.168 288.043C231.281 287.809 231.338 287.545 231.338 287.252C231.338 286.756 231.189 286.363 230.893 286.074C230.596 285.781 230.191 285.635 229.68 285.635C229.125 285.635 228.693 285.807 228.385 286.15C228.076 286.494 227.922 286.961 227.922 287.551H226.709C226.709 286.953 226.83 286.428 227.072 285.975C227.318 285.521 227.662 285.168 228.104 284.914C228.549 284.656 229.072 284.527 229.674 284.527C230.236 284.527 230.734 284.641 231.168 284.867C231.602 285.09 231.941 285.402 232.188 285.805C232.438 286.203 232.562 286.666 232.562 287.193C232.562 287.775 232.402 288.301 232.082 288.77C231.762 289.234 231.287 289.748 230.658 290.311L228.467 292.279V292.291H232.609V293.398H226.697ZM236.611 293.521C236.029 293.521 235.51 293.406 235.053 293.176C234.6 292.941 234.236 292.621 233.963 292.215C233.693 291.805 233.547 291.338 233.523 290.814H234.795C234.834 291.283 235.021 291.67 235.357 291.975C235.697 292.275 236.117 292.426 236.617 292.426C237.145 292.426 237.57 292.248 237.895 291.893C238.223 291.537 238.387 291.082 238.387 290.527C238.387 289.977 238.229 289.523 237.912 289.168C237.596 288.809 237.184 288.629 236.676 288.629C236.23 288.629 235.848 288.721 235.527 288.904C235.207 289.084 234.984 289.346 234.859 289.689H233.635L233.922 284.668H239.143V285.781H235.088L234.895 288.354H234.906C235.418 287.811 236.072 287.539 236.869 287.539C237.4 287.539 237.873 287.668 238.287 287.926C238.705 288.18 239.033 288.531 239.271 288.98C239.514 289.426 239.635 289.934 239.635 290.504C239.635 291.094 239.508 291.615 239.254 292.068C239.004 292.521 238.652 292.877 238.199 293.135C237.746 293.393 237.217 293.521 236.611 293.521ZM241.182 293.498C240.955 293.498 240.762 293.42 240.602 293.264C240.445 293.104 240.367 292.908 240.367 292.678C240.367 292.451 240.445 292.258 240.602 292.098C240.762 291.938 240.955 291.857 241.182 291.857C241.412 291.857 241.605 291.938 241.762 292.098C241.922 292.258 242.002 292.451 242.002 292.678C242.002 292.908 241.922 293.104 241.762 293.264C241.605 293.42 241.412 293.498 241.182 293.498ZM245.986 293.539C245.311 293.539 244.727 293.355 244.234 292.988C243.746 292.621 243.369 292.102 243.104 291.43C242.838 290.754 242.705 289.957 242.705 289.039C242.705 288.117 242.838 287.318 243.104 286.643C243.369 285.967 243.746 285.445 244.234 285.078C244.727 284.711 245.311 284.527 245.986 284.527C246.658 284.527 247.238 284.711 247.727 285.078C248.219 285.445 248.598 285.967 248.863 286.643C249.129 287.318 249.262 288.117 249.262 289.039C249.262 289.957 249.129 290.754 248.863 291.43C248.598 292.102 248.219 292.621 247.727 292.988C247.238 293.355 246.658 293.539 245.986 293.539ZM245.986 292.432C246.619 292.432 247.117 292.131 247.48 291.529C247.848 290.924 248.031 290.094 248.031 289.039C248.031 287.98 247.848 287.148 247.48 286.543C247.117 285.938 246.619 285.635 245.986 285.635C245.35 285.635 244.848 285.938 244.48 286.543C244.117 287.148 243.936 287.98 243.936 289.039C243.936 290.094 244.117 290.924 244.48 291.529C244.848 292.131 245.35 292.432 245.986 292.432ZM253.498 293.539C252.822 293.539 252.238 293.355 251.746 292.988C251.258 292.621 250.881 292.102 250.615 291.43C250.35 290.754 250.217 289.957 250.217 289.039C250.217 288.117 250.35 287.318 250.615 286.643C250.881 285.967 251.258 285.445 251.746 285.078C252.238 284.711 252.822 284.527 253.498 284.527C254.17 284.527 254.75 284.711 255.238 285.078C255.73 285.445 256.109 285.967 256.375 286.643C256.641 287.318 256.773 288.117 256.773 289.039C256.773 289.957 256.641 290.754 256.375 291.43C256.109 292.102 255.73 292.621 255.238 292.988C254.75 293.355 254.17 293.539 253.498 293.539ZM253.498 292.432C254.131 292.432 254.629 292.131 254.992 291.529C255.359 290.924 255.543 290.094 255.543 289.039C255.543 287.98 255.359 287.148 254.992 286.543C254.629 285.938 254.131 285.635 253.498 285.635C252.861 285.635 252.359 285.938 251.992 286.543C251.629 287.148 251.447 287.98 251.447 289.039C251.447 290.094 251.629 290.924 251.992 291.529C252.359 292.131 252.861 292.432 253.498 292.432ZM261.01 293.539C260.334 293.539 259.75 293.355 259.258 292.988C258.77 292.621 258.393 292.102 258.127 291.43C257.861 290.754 257.729 289.957 257.729 289.039C257.729 288.117 257.861 287.318 258.127 286.643C258.393 285.967 258.77 285.445 259.258 285.078C259.75 284.711 260.334 284.527 261.01 284.527C261.682 284.527 262.262 284.711 262.75 285.078C263.242 285.445 263.621 285.967 263.887 286.643C264.152 287.318 264.285 288.117 264.285 289.039C264.285 289.957 264.152 290.754 263.887 291.43C263.621 292.102 263.242 292.621 262.75 292.988C262.262 293.355 261.682 293.539 261.01 293.539ZM261.01 292.432C261.643 292.432 262.141 292.131 262.504 291.529C262.871 290.924 263.055 290.094 263.055 289.039C263.055 287.98 262.871 287.148 262.504 286.543C262.141 285.938 261.643 285.635 261.01 285.635C260.373 285.635 259.871 285.938 259.504 286.543C259.141 287.148 258.959 287.98 258.959 289.039C258.959 290.094 259.141 290.924 259.504 291.529C259.871 292.131 260.373 292.432 261.01 292.432ZM268.422 293.398V284.668H269.723V289.016C269.961 288.746 270.199 288.479 270.438 288.213C270.676 287.947 270.916 287.678 271.158 287.404L273.643 284.668H275.289L271.844 288.447L275.318 293.398H273.795L270.953 289.332L269.723 290.691V293.398H268.422ZM277.902 293.398L275.535 284.668H276.889L278.172 289.748C278.266 290.123 278.354 290.5 278.436 290.879C278.518 291.254 278.598 291.631 278.676 292.01C278.754 291.631 278.836 291.254 278.922 290.879C279.008 290.5 279.1 290.123 279.197 289.748L280.521 284.668H281.945L283.258 289.748C283.445 290.49 283.619 291.234 283.779 291.98C283.857 291.609 283.938 291.238 284.02 290.867C284.105 290.492 284.193 290.119 284.283 289.748L285.566 284.668H286.926L284.547 293.398H283.059L281.623 288.061C281.553 287.791 281.484 287.516 281.418 287.234C281.355 286.949 281.291 286.658 281.225 286.361C281.162 286.658 281.1 286.949 281.037 287.234C280.975 287.516 280.906 287.791 280.832 288.061L279.408 293.398H277.902ZM290.641 293.398H287.816V284.668H290.729C291.584 284.668 292.32 284.844 292.938 285.195C293.559 285.547 294.035 286.049 294.367 286.701C294.699 287.35 294.865 288.123 294.865 289.021C294.865 289.924 294.697 290.703 294.361 291.359C294.029 292.012 293.547 292.516 292.914 292.871C292.285 293.223 291.527 293.398 290.641 293.398ZM289.117 292.268H290.559C291.578 292.268 292.332 291.98 292.82 291.406C293.312 290.832 293.559 290.037 293.559 289.021C293.559 288.01 293.316 287.221 292.832 286.654C292.348 286.084 291.619 285.799 290.646 285.799H289.117V292.268Z" fill="#666666"/>
</g>
<rect x="91" y="43.8984" width="383" height="273" rx="12" stroke="#E5E5E5"/>
</g>
<defs>
<filter id="filter0_d_2200_2634" x="70.5" y="23.3984" width="424" height="314" filterUnits="userSpaceOnUse" color-interpolation-filters="sRGB">
<feFlood flood-opacity="0" result="BackgroundImageFix"/>
<feColorMatrix in="SourceAlpha" type="matrix" values="0 0 0 0 0 0 0 0 0 0 0 0 0 0 0 0 0 0 127 0" result="hardAlpha"/>
<feOffset/>
<feGaussianBlur stdDeviation="10"/>
<feComposite in2="hardAlpha" operator="out"/>
<feColorMatrix type="matrix" values="0 0 0 0 0 0 0 0 0 0 0 0 0 0 0 0 0 0 0.04 0"/>
<feBlend mode="normal" in2="BackgroundImageFix" result="effect1_dropShadow_2200_2634"/>
<feBlend mode="normal" in="SourceGraphic" in2="effect1_dropShadow_2200_2634" result="shape"/>
</filter>
<clipPath id="clip0_2200_2634">
<rect x="91" y="43.8984" width="383" height="273" rx="12" fill="white"/>
</clipPath>
<clipPath id="clip1_2200_2634">
<rect width="16" height="16" fill="white" transform="translate(395 62.3984)"/>
</clipPath>
<clipPath id="clip2_2200_2634">
<rect width="16" height="16" fill="white" transform="translate(430 147.898)"/>
</clipPath>
<clipPath id="clip3_2200_2634">
<rect width="16" height="16" fill="white" transform="translate(252.5 226.898)"/>
</clipPath>
<clipPath id="clip4_2200_2634">
<rect width="16" height="16" fill="white" transform="translate(422 226.898)"/>
</clipPath>
<clipPath id="clip5_2200_2634">
<rect width="16" height="16" fill="white" transform="translate(115 280.898)"/>
</clipPath>
</defs>
</svg>
