<svg width="16" height="16" viewBox="0 0 16 16" fill="none" xmlns="http://www.w3.org/2000/svg">
<g clip-path="url(#clip0_2200_3076)">
<path d="M9 6V5H8C7.86739 5 7.74021 5.05268 7.64645 5.14645C7.55268 5.24021 7.5 5.36739 7.5 5.5V10.5C7.5 10.6326 7.55268 10.7598 7.64645 10.8536C7.74021 10.9473 7.86739 11 8 11H9V10C9 9.73478 9.10536 9.48043 9.29289 9.29289C9.48043 9.10536 9.73478 9 10 9H13C13.2652 9 13.5196 9.10536 13.7071 9.29289C13.8946 9.48043 14 9.73478 14 10V13C14 13.2652 13.8946 13.5196 13.7071 13.7071C13.5196 13.8946 13.2652 14 13 14H10C9.73478 14 9.48043 13.8946 9.29289 13.7071C9.10536 13.5196 9 13.2652 9 13V12H8C7.60218 12 7.22064 11.842 6.93934 11.5607C6.65804 11.2794 6.5 10.8978 6.5 10.5V8.5H4.5V9C4.5 9.26522 4.39464 9.51957 4.20711 9.70711C4.01957 9.89464 3.76522 10 3.5 10H1.5C1.23478 10 0.98043 9.89464 0.792893 9.70711C0.605357 9.51957 0.5 9.26522 0.5 9V7C0.5 6.73478 0.605357 6.48043 0.792893 6.29289C0.98043 6.10536 1.23478 6 1.5 6H3.5C3.76522 6 4.01957 6.10536 4.20711 6.29289C4.39464 6.48043 4.5 6.73478 4.5 7V7.5H6.5V5.5C6.5 5.10218 6.65804 4.72064 6.93934 4.43934C7.22064 4.15804 7.60218 4 8 4H9V3C9 2.73478 9.10536 2.48043 9.29289 2.29289C9.48043 2.10536 9.73478 2 10 2H13C13.2652 2 13.5196 2.10536 13.7071 2.29289C13.8946 2.48043 14 2.73478 14 3V6C14 6.26522 13.8946 6.51957 13.7071 6.70711C13.5196 6.89464 13.2652 7 13 7H10C9.73478 7 9.48043 6.89464 9.29289 6.70711C9.10536 6.51957 9 6.26522 9 6Z" fill="#EF5237"/>
</g>
<defs>
<clipPath id="clip0_2200_3076">
<rect width="16" height="16" fill="white"/>
</clipPath>
</defs>
</svg>
