<svg width="550" height="350" viewBox="0 0 550 350" fill="none" xmlns="http://www.w3.org/2000/svg">
<path d="M0 12C0 5.37259 5.37258 0 12 0H538C544.627 0 550 5.37258 550 12V338C550 344.627 544.627 350 538 350H12C5.37257 350 0 344.627 0 338V12Z" fill="black" fill-opacity="0.04"/>
<g filter="url(#filter0_d_2200_984)">
<g clipPath="url(#clip0_2200_984)">
<rect x="30" y="50.8984" width="490" height="249" rx="12" fill="white"/>
<path d="M55.2363 83.0625C54.334 83.0625 53.5296 82.8415 52.8232 82.3994C52.1169 81.9574 51.5609 81.3421 51.1553 80.5537C50.7542 79.7653 50.5537 78.8516 50.5537 77.8125C50.5537 76.7689 50.7542 75.8529 51.1553 75.0645C51.5609 74.2715 52.1169 73.654 52.8232 73.2119C53.5296 72.7699 54.334 72.5488 55.2363 72.5488C56.1432 72.5488 56.9499 72.7699 57.6562 73.2119C58.3626 73.654 58.9163 74.2715 59.3174 75.0645C59.723 75.8529 59.9258 76.7689 59.9258 77.8125C59.9258 78.7513 59.7572 79.5898 59.4199 80.3281C59.0872 81.0664 58.6315 81.6634 58.0527 82.1191L59.3652 83.8213H57.8203L57 82.7275C56.4531 82.9508 55.8652 83.0625 55.2363 83.0625ZM54.6143 79.6104H56.1113L57.1641 80.9844C57.5423 80.6608 57.8431 80.2324 58.0664 79.6992C58.2897 79.166 58.4014 78.5371 58.4014 77.8125C58.4014 76.9831 58.2601 76.279 57.9775 75.7002C57.695 75.1214 57.3145 74.6839 56.8359 74.3877C56.3574 74.0869 55.8242 73.9365 55.2363 73.9365C54.653 73.9365 54.1221 74.0869 53.6436 74.3877C53.165 74.6839 52.7845 75.1214 52.502 75.7002C52.2194 76.279 52.0781 76.9831 52.0781 77.8125C52.0781 78.6374 52.2194 79.3392 52.502 79.918C52.7845 80.4922 53.165 80.9297 53.6436 81.2305C54.1221 81.5267 54.653 81.6748 55.2363 81.6748C55.5371 81.6748 55.8242 81.6361 56.0977 81.5586L54.6143 79.6104ZM63.9111 83.042C63.4189 83.042 62.9746 82.9349 62.5781 82.7207C62.1862 82.502 61.874 82.1807 61.6416 81.7568C61.4137 81.333 61.2998 80.8066 61.2998 80.1777V75.6797H62.7422V80C62.7422 80.5788 62.8812 81.0163 63.1592 81.3125C63.4372 81.6042 63.8268 81.75 64.3281 81.75C64.8158 81.75 65.2259 81.5996 65.5586 81.2988C65.8958 80.9935 66.0645 80.5059 66.0645 79.8359V75.6797H67.5068V82.8984H66.0918V81.8115C65.5996 82.6318 64.8727 83.042 63.9111 83.042ZM72.2168 83.0625C71.5013 83.0625 70.8861 82.9007 70.3711 82.5771C69.8607 82.2536 69.4665 81.8092 69.1885 81.2441C68.915 80.6745 68.7783 80.0273 68.7783 79.3027C68.7783 78.569 68.9219 77.9173 69.209 77.3477C69.4961 76.778 69.8926 76.3314 70.3984 76.0078C70.9043 75.6797 71.4854 75.5156 72.1416 75.5156C72.8252 75.5156 73.4176 75.6751 73.9189 75.9941C74.4248 76.3132 74.8167 76.7575 75.0947 77.3271C75.3727 77.8923 75.5117 78.5462 75.5117 79.2891V79.6787H70.2002C70.2275 80.3304 70.4144 80.8568 70.7607 81.2578C71.1117 81.6589 71.6038 81.8594 72.2373 81.8594C72.7113 81.8594 73.1009 81.7523 73.4062 81.5381C73.7116 81.3239 73.9144 81.0459 74.0146 80.7041H75.4023C75.3158 81.1689 75.1221 81.5791 74.8213 81.9346C74.5251 82.29 74.1514 82.568 73.7002 82.7686C73.2536 82.9645 72.7591 83.0625 72.2168 83.0625ZM70.2139 78.585H74.1035C74.0443 78.0107 73.8415 77.5573 73.4951 77.2246C73.1488 76.8874 72.7021 76.7188 72.1553 76.7188C71.6084 76.7188 71.1618 76.8874 70.8154 77.2246C70.4736 77.5573 70.2731 78.0107 70.2139 78.585ZM79.374 83.042C78.8818 83.042 78.4375 82.9349 78.041 82.7207C77.6491 82.502 77.3369 82.1807 77.1045 81.7568C76.8766 81.333 76.7627 80.8066 76.7627 80.1777V75.6797H78.2051V80C78.2051 80.5788 78.3441 81.0163 78.6221 81.3125C78.9001 81.6042 79.2897 81.75 79.791 81.75C80.2786 81.75 80.6888 81.5996 81.0215 81.2988C81.3587 80.9935 81.5273 80.5059 81.5273 79.8359V75.6797H82.9697V82.8984H81.5547V81.8115C81.0625 82.6318 80.3356 83.042 79.374 83.042ZM87.6797 83.0625C86.9642 83.0625 86.349 82.9007 85.834 82.5771C85.3236 82.2536 84.9294 81.8092 84.6514 81.2441C84.3779 80.6745 84.2412 80.0273 84.2412 79.3027C84.2412 78.569 84.3848 77.9173 84.6719 77.3477C84.959 76.778 85.3555 76.3314 85.8613 76.0078C86.3672 75.6797 86.9482 75.5156 87.6045 75.5156C88.2881 75.5156 88.8805 75.6751 89.3818 75.9941C89.8877 76.3132 90.2796 76.7575 90.5576 77.3271C90.8356 77.8923 90.9746 78.5462 90.9746 79.2891V79.6787H85.6631C85.6904 80.3304 85.8773 80.8568 86.2236 81.2578C86.5745 81.6589 87.0667 81.8594 87.7002 81.8594C88.1742 81.8594 88.5638 81.7523 88.8691 81.5381C89.1745 81.3239 89.3773 81.0459 89.4775 80.7041H90.8652C90.7786 81.1689 90.585 81.5791 90.2842 81.9346C89.988 82.29 89.6143 82.568 89.1631 82.7686C88.7165 82.9645 88.222 83.0625 87.6797 83.0625ZM85.6768 78.585H89.5664C89.5072 78.0107 89.3044 77.5573 88.958 77.2246C88.6117 76.8874 88.165 76.7188 87.6182 76.7188C87.0713 76.7188 86.6247 76.8874 86.2783 77.2246C85.9365 77.5573 85.736 78.0107 85.6768 78.585Z" fill="black"/>
<path d="M388 77.3984C388 69.3903 394.492 62.8984 402.5 62.8984H485.5C493.508 62.8984 500 69.3903 500 77.3984C500 85.4066 493.508 91.8984 485.5 91.8984H402.5C394.492 91.8984 388 85.4066 388 77.3984Z" fill="black" fill-opacity="0.02"/>
<path d="M396.109 82.8984L399.808 72.7129H401.64L405.311 82.8984H403.663L402.761 80.2529H398.652L397.723 82.8984H396.109ZM399.11 78.9609H402.316L401.701 77.1562C401.564 76.737 401.419 76.2881 401.264 75.8096C401.109 75.3311 400.931 74.7614 400.73 74.1006C400.525 74.7614 400.345 75.3311 400.19 75.8096C400.035 76.2881 399.887 76.737 399.746 77.1562L399.11 78.9609ZM407.689 72.7129V82.8984H406.247V72.7129H407.689ZM410.766 72.7129V82.8984H409.323V72.7129H410.766ZM420.227 83.0625C419.292 83.0625 418.467 82.8415 417.752 82.3994C417.036 81.9574 416.478 81.3421 416.077 80.5537C415.676 79.7653 415.476 78.8516 415.476 77.8125C415.476 76.7643 415.676 75.846 416.077 75.0576C416.478 74.2692 417.034 73.654 417.745 73.2119C418.461 72.7699 419.288 72.5488 420.227 72.5488C420.969 72.5488 421.642 72.6947 422.243 72.9863C422.849 73.278 423.351 73.6904 423.747 74.2236C424.144 74.7523 424.401 75.3789 424.52 76.1035H422.975C422.824 75.4108 422.503 74.8776 422.011 74.5039C421.523 74.1257 420.933 73.9365 420.24 73.9365C419.57 73.9365 418.994 74.0983 418.511 74.4219C418.028 74.7454 417.654 75.1989 417.39 75.7822C417.13 76.3656 417 77.0423 417 77.8125C417 78.5827 417.13 79.2572 417.39 79.8359C417.649 80.4147 418.021 80.8659 418.504 81.1895C418.992 81.513 419.57 81.6748 420.24 81.6748C420.928 81.6748 421.516 81.488 422.004 81.1143C422.496 80.7406 422.822 80.2096 422.981 79.5215H424.52C424.401 80.2415 424.144 80.8682 423.747 81.4014C423.351 81.93 422.849 82.3402 422.243 82.6318C421.642 82.9189 420.969 83.0625 420.227 83.0625ZM427.309 78.7422V82.8984H425.866V72.7129H427.309V76.7188C427.805 75.9303 428.523 75.5361 429.462 75.5361C429.959 75.5361 430.403 75.6455 430.795 75.8643C431.191 76.0785 431.504 76.3975 431.731 76.8213C431.959 77.2451 432.073 77.7715 432.073 78.4004V82.8984H430.631V78.5781C430.631 77.9993 430.492 77.5641 430.214 77.2725C429.936 76.9762 429.549 76.8281 429.052 76.8281C428.56 76.8281 428.145 76.9808 427.808 77.2861C427.475 77.5869 427.309 78.0723 427.309 78.7422ZM435.901 83.0146C435.181 83.0146 434.584 82.8324 434.11 82.4678C433.636 82.0986 433.399 81.554 433.399 80.834C433.399 80.2871 433.534 79.8678 433.803 79.5762C434.076 79.2799 434.429 79.068 434.862 78.9404C435.3 78.8128 435.762 78.7194 436.25 78.6602C436.701 78.6055 437.059 78.5599 437.323 78.5234C437.588 78.487 437.774 78.4323 437.884 78.3594C437.998 78.2865 438.055 78.1611 438.055 77.9834V77.9219C438.055 77.571 437.927 77.2839 437.672 77.0605C437.417 76.8327 437.059 76.7188 436.599 76.7188C436.138 76.7188 435.762 76.8304 435.471 77.0537C435.179 77.2725 435.02 77.5482 434.992 77.8809H433.577C433.609 77.1927 433.898 76.6299 434.445 76.1924C434.992 75.7549 435.717 75.5361 436.619 75.5361C437.508 75.5361 438.207 75.7549 438.718 76.1924C439.228 76.6299 439.483 77.2155 439.483 77.9492V82.8984H438.062V81.873H438.034C437.884 82.1647 437.645 82.429 437.316 82.666C436.993 82.8984 436.521 83.0146 435.901 83.0146ZM436.195 81.8525C436.833 81.8525 437.303 81.6885 437.604 81.3604C437.909 81.0277 438.062 80.6403 438.062 80.1982V79.3506C437.966 79.4281 437.749 79.4987 437.412 79.5625C437.075 79.6217 436.715 79.6787 436.332 79.7334C435.936 79.7926 435.587 79.9043 435.286 80.0684C434.985 80.2324 434.835 80.4967 434.835 80.8613C434.835 81.1712 434.956 81.415 435.197 81.5928C435.443 81.766 435.776 81.8525 436.195 81.8525ZM442.553 78.7422V82.8984H441.11V75.6797H442.525V76.7666C443.018 75.9463 443.744 75.5361 444.706 75.5361C445.203 75.5361 445.647 75.6455 446.039 75.8643C446.436 76.0785 446.748 76.3975 446.976 76.8213C447.203 77.2451 447.317 77.7715 447.317 78.4004V82.8984H445.875V78.5781C445.875 77.9993 445.736 77.5641 445.458 77.2725C445.18 76.9762 444.793 76.8281 444.296 76.8281C443.804 76.8281 443.389 76.9808 443.052 77.2861C442.719 77.5869 442.553 78.0723 442.553 78.7422ZM452.027 83.0625C451.312 83.0625 450.697 82.9007 450.182 82.5771C449.671 82.2536 449.277 81.8092 448.999 81.2441C448.726 80.6745 448.589 80.0273 448.589 79.3027C448.589 78.569 448.732 77.9173 449.02 77.3477C449.307 76.778 449.703 76.3314 450.209 76.0078C450.715 75.6797 451.296 75.5156 451.952 75.5156C452.636 75.5156 453.228 75.6751 453.729 75.9941C454.235 76.3132 454.627 76.7575 454.905 77.3271C455.183 77.8923 455.322 78.5462 455.322 79.2891V79.6787H450.011C450.038 80.3304 450.225 80.8568 450.571 81.2578C450.922 81.6589 451.414 81.8594 452.048 81.8594C452.522 81.8594 452.911 81.7523 453.217 81.5381C453.522 81.3239 453.725 81.0459 453.825 80.7041H455.213C455.126 81.1689 454.933 81.5791 454.632 81.9346C454.336 82.29 453.962 82.568 453.511 82.7686C453.064 82.9645 452.57 83.0625 452.027 83.0625ZM450.024 78.585H453.914C453.855 78.0107 453.652 77.5573 453.306 77.2246C452.959 76.8874 452.513 76.7188 451.966 76.7188C451.419 76.7188 450.972 76.8874 450.626 77.2246C450.284 77.5573 450.084 78.0107 450.024 78.585ZM458.016 72.7129V82.8984H456.573V72.7129H458.016ZM462.322 83.0693C461.771 83.0693 461.274 82.9805 460.832 82.8027C460.39 82.625 460.032 82.3607 459.759 82.0098C459.49 81.6589 459.34 81.2236 459.308 80.7041H460.729C460.812 81.5153 461.333 81.9209 462.295 81.9209C462.751 81.9209 463.111 81.8275 463.375 81.6406C463.644 81.4538 463.778 81.2168 463.778 80.9297C463.778 80.6836 463.683 80.4876 463.491 80.3418C463.3 80.1914 463.049 80.082 462.739 80.0137L461.543 79.7471C460.162 79.4463 459.472 78.7581 459.472 77.6826C459.472 77.0446 459.725 76.5251 460.23 76.124C460.741 75.723 461.409 75.5225 462.233 75.5225C463.049 75.5225 463.719 75.7344 464.243 76.1582C464.772 76.5775 465.045 77.1517 465.063 77.8809H463.683C463.678 77.5299 463.546 77.2406 463.286 77.0127C463.026 76.7803 462.682 76.6641 462.254 76.6641C461.844 76.6641 461.518 76.7598 461.276 76.9512C461.035 77.1426 460.914 77.3773 460.914 77.6553C460.914 77.9014 461.005 78.0996 461.188 78.25C461.374 78.4004 461.63 78.512 461.953 78.585L463.184 78.8584C463.885 79.0133 464.403 79.2526 464.735 79.5762C465.068 79.8997 465.234 80.3236 465.234 80.8477C465.234 81.3079 465.107 81.7044 464.852 82.0371C464.601 82.3652 464.257 82.6204 463.819 82.8027C463.382 82.9805 462.883 83.0693 462.322 83.0693Z" fill="#666666"/>
<g clipPath="url(#clip1_2200_984)">
<path d="M485 75.3984L480 80.3984L475 75.3984" stroke="#999999" stroke-width="1.5" stroke-linecap="round" stroke-linejoin="round"/>
</g>
<path d="M42 103.898H508" stroke="#E5E5E5"/>
<rect x="50.5" y="118.898" width="19" height="19" rx="3.5" fill="white"/>
<rect x="50.5" y="118.898" width="19" height="19" rx="3.5" stroke="#E5E5E5"/>
<path d="M84.8711 133.898L82.1094 123.713H83.6885L85.1855 129.64C85.2949 130.077 85.3975 130.517 85.4932 130.959C85.5889 131.396 85.6823 131.836 85.7734 132.278C85.8646 131.836 85.9603 131.396 86.0605 130.959C86.1608 130.517 86.2679 130.077 86.3818 129.64L87.9268 123.713H89.5879L91.1191 129.64C91.3379 130.506 91.5407 131.374 91.7275 132.244C91.8187 131.811 91.9121 131.378 92.0078 130.945C92.1081 130.508 92.2106 130.073 92.3154 129.64L93.8125 123.713H95.3984L92.623 133.898H90.8867L89.2119 127.671C89.1299 127.356 89.0501 127.035 88.9727 126.707C88.8997 126.374 88.8245 126.035 88.7471 125.688C88.6742 126.035 88.6012 126.374 88.5283 126.707C88.4554 127.035 88.3757 127.356 88.2891 127.671L86.6279 133.898H84.8711ZM96.4375 133.898V123.713H103.287V125.046H97.9551V128.047H102.891V129.366H97.9551V132.565H103.287V133.898H96.4375ZM104.682 133.898V123.713H108.489C109.537 123.713 110.353 123.957 110.937 124.444C111.524 124.927 111.818 125.577 111.818 126.393C111.818 126.976 111.666 127.45 111.36 127.814C111.06 128.179 110.643 128.443 110.109 128.607V128.621C110.702 128.703 111.201 128.945 111.606 129.346C112.017 129.747 112.222 130.31 112.222 131.034C112.222 131.9 111.919 132.595 111.312 133.119C110.711 133.639 109.809 133.898 108.605 133.898H104.682ZM106.186 132.62H108.51C109.202 132.62 109.736 132.486 110.109 132.217C110.488 131.943 110.677 131.547 110.677 131.027C110.677 130.512 110.492 130.104 110.123 129.804C109.758 129.503 109.239 129.353 108.564 129.353H106.186V132.62ZM106.186 128.102H108.469C109.048 128.102 109.499 127.963 109.822 127.685C110.15 127.407 110.314 127.028 110.314 126.55C110.314 126.071 110.15 125.693 109.822 125.415C109.499 125.132 109.048 124.991 108.469 124.991H106.186V128.102ZM118.019 128.17V129.441H113.5V128.17H118.019ZM123.187 134.062C122.398 134.062 121.717 133.848 121.143 133.42C120.573 132.992 120.133 132.385 119.823 131.602C119.513 130.813 119.358 129.883 119.358 128.812C119.358 127.737 119.513 126.805 119.823 126.017C120.133 125.228 120.573 124.62 121.143 124.191C121.717 123.763 122.398 123.549 123.187 123.549C123.97 123.549 124.647 123.763 125.217 124.191C125.791 124.62 126.233 125.228 126.543 126.017C126.853 126.805 127.008 127.737 127.008 128.812C127.008 129.883 126.853 130.813 126.543 131.602C126.233 132.385 125.791 132.992 125.217 133.42C124.647 133.848 123.97 134.062 123.187 134.062ZM123.187 132.771C123.925 132.771 124.506 132.42 124.93 131.718C125.358 131.011 125.572 130.043 125.572 128.812C125.572 127.577 125.358 126.607 124.93 125.9C124.506 125.194 123.925 124.841 123.187 124.841C122.444 124.841 121.858 125.194 121.43 125.9C121.006 126.607 120.794 127.577 120.794 128.812C120.794 130.043 121.006 131.011 121.43 131.718C121.858 132.42 122.444 132.771 123.187 132.771ZM131.95 134.062C131.162 134.062 130.48 133.848 129.906 133.42C129.337 132.992 128.897 132.385 128.587 131.602C128.277 130.813 128.122 129.883 128.122 128.812C128.122 127.737 128.277 126.805 128.587 126.017C128.897 125.228 129.337 124.62 129.906 124.191C130.48 123.763 131.162 123.549 131.95 123.549C132.734 123.549 133.411 123.763 133.98 124.191C134.555 124.62 134.997 125.228 135.307 126.017C135.617 126.805 135.771 127.737 135.771 128.812C135.771 129.883 135.617 130.813 135.307 131.602C134.997 132.385 134.555 132.992 133.98 133.42C133.411 133.848 132.734 134.062 131.95 134.062ZM131.95 132.771C132.688 132.771 133.27 132.42 133.693 131.718C134.122 131.011 134.336 130.043 134.336 128.812C134.336 127.577 134.122 126.607 133.693 125.9C133.27 125.194 132.688 124.841 131.95 124.841C131.207 124.841 130.622 125.194 130.193 125.9C129.77 126.607 129.558 127.577 129.558 128.812C129.558 130.043 129.77 131.011 130.193 131.718C130.622 132.42 131.207 132.771 131.95 132.771ZM140.604 123.713V133.898H139.135V125.203H139.128L136.64 126.83V125.381L139.176 123.713H140.604Z" fill="#333333"/>
<path d="M200.109 133.898L203.808 123.713H205.64L209.311 133.898H207.663L206.761 131.253H202.652L201.723 133.898H200.109ZM203.11 129.961H206.316L205.701 128.156C205.564 127.737 205.419 127.288 205.264 126.81C205.109 126.331 204.931 125.761 204.73 125.101C204.525 125.761 204.345 126.331 204.19 126.81C204.035 127.288 203.887 127.737 203.746 128.156L203.11 129.961ZM211.689 129.742V133.898H210.247V123.713H211.689V127.719C212.186 126.93 212.904 126.536 213.843 126.536C214.34 126.536 214.784 126.646 215.176 126.864C215.572 127.078 215.884 127.397 216.112 127.821C216.34 128.245 216.454 128.771 216.454 129.4V133.898H215.012V129.578C215.012 128.999 214.873 128.564 214.595 128.272C214.317 127.976 213.929 127.828 213.433 127.828C212.94 127.828 212.526 127.981 212.188 128.286C211.856 128.587 211.689 129.072 211.689 129.742ZM218.081 133.898V126.68H219.482V127.89C219.706 127.443 220.009 127.106 220.392 126.878C220.774 126.65 221.189 126.536 221.636 126.536C222.128 126.536 222.559 126.661 222.928 126.912C223.301 127.163 223.563 127.482 223.714 127.869C223.91 127.477 224.206 127.158 224.603 126.912C225.004 126.661 225.471 126.536 226.004 126.536C226.451 126.536 226.856 126.634 227.221 126.83C227.585 127.026 227.875 127.318 228.089 127.705C228.303 128.088 228.41 128.569 228.41 129.147V133.898H226.961V129.271C226.961 128.756 226.817 128.382 226.53 128.149C226.243 127.917 225.904 127.801 225.512 127.801C225.029 127.801 224.648 127.951 224.37 128.252C224.092 128.548 223.953 128.926 223.953 129.387V133.898H222.531V129.175C222.531 128.76 222.397 128.427 222.128 128.177C221.864 127.926 221.526 127.801 221.116 127.801C220.697 127.801 220.326 127.949 220.002 128.245C219.683 128.541 219.523 128.974 219.523 129.544V133.898H218.081ZM233.127 134.062C232.411 134.062 231.796 133.901 231.281 133.577C230.771 133.254 230.377 132.809 230.099 132.244C229.825 131.674 229.688 131.027 229.688 130.303C229.688 129.569 229.832 128.917 230.119 128.348C230.406 127.778 230.803 127.331 231.309 127.008C231.814 126.68 232.396 126.516 233.052 126.516C233.735 126.516 234.328 126.675 234.829 126.994C235.335 127.313 235.727 127.757 236.005 128.327C236.283 128.892 236.422 129.546 236.422 130.289V130.679H231.11C231.138 131.33 231.325 131.857 231.671 132.258C232.022 132.659 232.514 132.859 233.147 132.859C233.621 132.859 234.011 132.752 234.316 132.538C234.622 132.324 234.825 132.046 234.925 131.704H236.312C236.226 132.169 236.032 132.579 235.731 132.935C235.435 133.29 235.062 133.568 234.61 133.769C234.164 133.965 233.669 134.062 233.127 134.062ZM231.124 129.585H235.014C234.954 129.011 234.752 128.557 234.405 128.225C234.059 127.887 233.612 127.719 233.065 127.719C232.519 127.719 232.072 127.887 231.726 128.225C231.384 128.557 231.183 129.011 231.124 129.585ZM240.448 134.042C239.819 134.042 239.27 133.885 238.801 133.57C238.331 133.251 237.967 132.812 237.707 132.251C237.447 131.686 237.317 131.032 237.317 130.289C237.317 129.546 237.447 128.895 237.707 128.334C237.971 127.769 238.338 127.329 238.808 127.015C239.277 126.696 239.822 126.536 240.441 126.536C240.911 126.536 241.339 126.634 241.727 126.83C242.114 127.026 242.424 127.325 242.656 127.726H242.67V123.713H244.112V133.898H242.697V132.798H242.684C242.442 133.217 242.125 133.529 241.733 133.734C241.346 133.939 240.918 134.042 240.448 134.042ZM240.742 132.798C241.357 132.798 241.847 132.57 242.212 132.114C242.581 131.654 242.766 131.046 242.766 130.289C242.766 129.528 242.581 128.92 242.212 128.464C241.847 128.004 241.357 127.773 240.742 127.773C240.159 127.773 239.685 127.99 239.32 128.423C238.96 128.851 238.78 129.473 238.78 130.289C238.78 131.105 238.96 131.727 239.32 132.155C239.685 132.584 240.159 132.798 240.742 132.798Z" fill="#333333"/>
<path d="M300.567 133.898V132.695L304.231 129.428C304.619 129.077 304.942 128.762 305.202 128.484C305.462 128.202 305.656 127.924 305.783 127.65C305.915 127.377 305.981 127.069 305.981 126.728C305.981 126.149 305.808 125.691 305.462 125.354C305.116 125.012 304.644 124.841 304.047 124.841C303.4 124.841 302.896 125.041 302.536 125.442C302.176 125.843 301.996 126.388 301.996 127.076H300.581C300.581 126.379 300.722 125.766 301.005 125.237C301.292 124.709 301.693 124.296 302.208 124C302.728 123.699 303.338 123.549 304.04 123.549C304.696 123.549 305.277 123.681 305.783 123.945C306.289 124.205 306.686 124.57 306.973 125.039C307.264 125.504 307.41 126.044 307.41 126.659C307.41 127.338 307.223 127.951 306.85 128.498C306.476 129.04 305.922 129.64 305.188 130.296L302.632 132.593V132.606H307.465V133.898H300.567ZM313.822 123.713V133.898H312.305V123.713H313.822ZM319.113 126.68V127.869H317.65V131.991C317.65 132.26 317.705 132.447 317.814 132.552C317.924 132.657 318.122 132.709 318.409 132.709H319.113V133.898H318.204C316.869 133.898 316.201 133.324 316.201 132.176V127.869H314.93V126.68H316.201V124.711H317.65V126.68H319.113ZM323.215 134.062C322.499 134.062 321.884 133.901 321.369 133.577C320.859 133.254 320.465 132.809 320.187 132.244C319.913 131.674 319.776 131.027 319.776 130.303C319.776 129.569 319.92 128.917 320.207 128.348C320.494 127.778 320.891 127.331 321.396 127.008C321.902 126.68 322.483 126.516 323.14 126.516C323.823 126.516 324.416 126.675 324.917 126.994C325.423 127.313 325.815 127.757 326.093 128.327C326.371 128.892 326.51 129.546 326.51 130.289V130.679H321.198C321.226 131.33 321.412 131.857 321.759 132.258C322.11 132.659 322.602 132.859 323.235 132.859C323.709 132.859 324.099 132.752 324.404 132.538C324.71 132.324 324.912 132.046 325.013 131.704H326.4C326.314 132.169 326.12 132.579 325.819 132.935C325.523 133.29 325.149 133.568 324.698 133.769C324.252 133.965 323.757 134.062 323.215 134.062ZM321.212 129.585H325.102C325.042 129.011 324.84 128.557 324.493 128.225C324.147 127.887 323.7 127.719 323.153 127.719C322.606 127.719 322.16 127.887 321.813 128.225C321.472 128.557 321.271 129.011 321.212 129.585ZM327.761 133.898V126.68H329.162V127.89C329.385 127.443 329.688 127.106 330.071 126.878C330.454 126.65 330.869 126.536 331.315 126.536C331.808 126.536 332.238 126.661 332.607 126.912C332.981 127.163 333.243 127.482 333.394 127.869C333.59 127.477 333.886 127.158 334.282 126.912C334.683 126.661 335.15 126.536 335.684 126.536C336.13 126.536 336.536 126.634 336.9 126.83C337.265 127.026 337.554 127.318 337.769 127.705C337.983 128.088 338.09 128.569 338.09 129.147V133.898H336.641V129.271C336.641 128.756 336.497 128.382 336.21 128.149C335.923 127.917 335.583 127.801 335.191 127.801C334.708 127.801 334.328 127.951 334.05 128.252C333.772 128.548 333.633 128.926 333.633 129.387V133.898H332.211V129.175C332.211 128.76 332.076 128.427 331.808 128.177C331.543 127.926 331.206 127.801 330.796 127.801C330.377 127.801 330.005 127.949 329.682 128.245C329.363 128.541 329.203 128.974 329.203 129.544V133.898H327.761ZM342.396 134.069C341.845 134.069 341.348 133.98 340.906 133.803C340.464 133.625 340.106 133.361 339.833 133.01C339.564 132.659 339.414 132.224 339.382 131.704H340.804C340.886 132.515 341.408 132.921 342.369 132.921C342.825 132.921 343.185 132.827 343.449 132.641C343.718 132.454 343.853 132.217 343.853 131.93C343.853 131.684 343.757 131.488 343.565 131.342C343.374 131.191 343.123 131.082 342.813 131.014L341.617 130.747C340.236 130.446 339.546 129.758 339.546 128.683C339.546 128.045 339.799 127.525 340.305 127.124C340.815 126.723 341.483 126.522 342.308 126.522C343.123 126.522 343.793 126.734 344.317 127.158C344.846 127.577 345.119 128.152 345.138 128.881H343.757C343.752 128.53 343.62 128.241 343.36 128.013C343.101 127.78 342.757 127.664 342.328 127.664C341.918 127.664 341.592 127.76 341.351 127.951C341.109 128.143 340.988 128.377 340.988 128.655C340.988 128.901 341.079 129.1 341.262 129.25C341.449 129.4 341.704 129.512 342.027 129.585L343.258 129.858C343.96 130.013 344.477 130.253 344.81 130.576C345.142 130.9 345.309 131.324 345.309 131.848C345.309 132.308 345.181 132.704 344.926 133.037C344.675 133.365 344.331 133.62 343.894 133.803C343.456 133.98 342.957 134.069 342.396 134.069Z" fill="#333333"/>
<rect x="389" y="115.898" width="111" height="25" rx="12.5" fill="#ECFDF5"/>
<g clipPath="url(#clip2_2200_984)">
<path d="M402.875 129.148L405.5 131.773L411.5 125.773" stroke="#059669" stroke-width="1.5" stroke-linecap="round" stroke-linejoin="round"/>
</g>
<path d="M424.412 134.062C423.478 134.062 422.653 133.841 421.938 133.399C421.222 132.957 420.664 132.342 420.263 131.554C419.862 130.765 419.661 129.852 419.661 128.812C419.661 127.764 419.862 126.846 420.263 126.058C420.664 125.269 421.22 124.654 421.931 124.212C422.646 123.77 423.473 123.549 424.412 123.549C425.155 123.549 425.827 123.695 426.429 123.986C427.035 124.278 427.536 124.69 427.933 125.224C428.329 125.752 428.587 126.379 428.705 127.104H427.16C427.01 126.411 426.688 125.878 426.196 125.504C425.709 125.126 425.118 124.937 424.426 124.937C423.756 124.937 423.179 125.098 422.696 125.422C422.213 125.745 421.84 126.199 421.575 126.782C421.315 127.366 421.186 128.042 421.186 128.812C421.186 129.583 421.315 130.257 421.575 130.836C421.835 131.415 422.206 131.866 422.689 132.189C423.177 132.513 423.756 132.675 424.426 132.675C425.114 132.675 425.702 132.488 426.189 132.114C426.682 131.741 427.007 131.21 427.167 130.521H428.705C428.587 131.242 428.329 131.868 427.933 132.401C427.536 132.93 427.035 133.34 426.429 133.632C425.827 133.919 425.155 134.062 424.412 134.062ZM433.155 134.062C432.467 134.062 431.863 133.903 431.344 133.584C430.824 133.265 430.419 132.823 430.127 132.258C429.84 131.693 429.696 131.041 429.696 130.303C429.696 129.555 429.84 128.899 430.127 128.334C430.419 127.764 430.824 127.32 431.344 127.001C431.863 126.677 432.467 126.516 433.155 126.516C433.843 126.516 434.445 126.677 434.96 127.001C435.479 127.32 435.883 127.764 436.17 128.334C436.462 128.899 436.607 129.555 436.607 130.303C436.607 131.041 436.462 131.693 436.17 132.258C435.883 132.823 435.479 133.265 434.96 133.584C434.445 133.903 433.843 134.062 433.155 134.062ZM433.155 132.818C433.775 132.818 434.263 132.59 434.618 132.135C434.974 131.679 435.151 131.068 435.151 130.303C435.151 129.528 434.971 128.91 434.611 128.45C434.256 127.99 433.771 127.76 433.155 127.76C432.54 127.76 432.052 127.99 431.692 128.45C431.337 128.906 431.159 129.523 431.159 130.303C431.159 131.073 431.337 131.686 431.692 132.142C432.048 132.593 432.535 132.818 433.155 132.818ZM437.886 133.898V126.68H439.287V127.89C439.51 127.443 439.813 127.106 440.196 126.878C440.579 126.65 440.994 126.536 441.44 126.536C441.933 126.536 442.363 126.661 442.732 126.912C443.106 127.163 443.368 127.482 443.519 127.869C443.715 127.477 444.011 127.158 444.407 126.912C444.808 126.661 445.275 126.536 445.809 126.536C446.255 126.536 446.661 126.634 447.025 126.83C447.39 127.026 447.679 127.318 447.894 127.705C448.108 128.088 448.215 128.569 448.215 129.147V133.898H446.766V129.271C446.766 128.756 446.622 128.382 446.335 128.149C446.048 127.917 445.708 127.801 445.316 127.801C444.833 127.801 444.453 127.951 444.175 128.252C443.897 128.548 443.758 128.926 443.758 129.387V133.898H442.336V129.175C442.336 128.76 442.201 128.427 441.933 128.177C441.668 127.926 441.331 127.801 440.921 127.801C440.502 127.801 440.13 127.949 439.807 128.245C439.488 128.541 439.328 128.974 439.328 129.544V133.898H437.886ZM449.849 136.756V126.68H451.264V127.719H451.284C451.512 127.322 451.824 127.026 452.221 126.83C452.617 126.634 453.05 126.536 453.52 126.536C454.139 126.536 454.684 126.696 455.153 127.015C455.623 127.329 455.987 127.769 456.247 128.334C456.511 128.895 456.644 129.546 456.644 130.289C456.644 131.032 456.514 131.686 456.254 132.251C455.994 132.812 455.63 133.251 455.16 133.57C454.691 133.885 454.142 134.042 453.513 134.042C453.043 134.042 452.619 133.939 452.241 133.734C451.863 133.529 451.553 133.222 451.312 132.812H451.291V136.756H449.849ZM453.219 132.798C453.802 132.798 454.274 132.584 454.634 132.155C454.998 131.727 455.181 131.105 455.181 130.289C455.181 129.473 454.998 128.851 454.634 128.423C454.274 127.99 453.802 127.773 453.219 127.773C452.604 127.773 452.111 128.004 451.742 128.464C451.378 128.92 451.195 129.528 451.195 130.289C451.195 131.046 451.378 131.654 451.742 132.114C452.111 132.57 452.604 132.798 453.219 132.798ZM459.357 123.713V133.898H457.915V123.713H459.357ZM464.074 134.062C463.359 134.062 462.743 133.901 462.229 133.577C461.718 133.254 461.324 132.809 461.046 132.244C460.772 131.674 460.636 131.027 460.636 130.303C460.636 129.569 460.779 128.917 461.066 128.348C461.354 127.778 461.75 127.331 462.256 127.008C462.762 126.68 463.343 126.516 463.999 126.516C464.683 126.516 465.275 126.675 465.776 126.994C466.282 127.313 466.674 127.757 466.952 128.327C467.23 128.892 467.369 129.546 467.369 130.289V130.679H462.058C462.085 131.33 462.272 131.857 462.618 132.258C462.969 132.659 463.461 132.859 464.095 132.859C464.569 132.859 464.958 132.752 465.264 132.538C465.569 132.324 465.772 132.046 465.872 131.704H467.26C467.173 132.169 466.979 132.579 466.679 132.935C466.382 133.29 466.009 133.568 465.558 133.769C465.111 133.965 464.617 134.062 464.074 134.062ZM462.071 129.585H465.961C465.902 129.011 465.699 128.557 465.353 128.225C465.006 127.887 464.56 127.719 464.013 127.719C463.466 127.719 463.019 127.887 462.673 128.225C462.331 128.557 462.131 129.011 462.071 129.585ZM472.1 126.68V127.869H470.637V131.991C470.637 132.26 470.691 132.447 470.801 132.552C470.91 132.657 471.108 132.709 471.396 132.709H472.1V133.898H471.19C469.855 133.898 469.188 133.324 469.188 132.176V127.869H467.916V126.68H469.188V124.711H470.637V126.68H472.1ZM476.201 134.062C475.486 134.062 474.87 133.901 474.355 133.577C473.845 133.254 473.451 132.809 473.173 132.244C472.899 131.674 472.763 131.027 472.763 130.303C472.763 129.569 472.906 128.917 473.193 128.348C473.48 127.778 473.877 127.331 474.383 127.008C474.889 126.68 475.47 126.516 476.126 126.516C476.81 126.516 477.402 126.675 477.903 126.994C478.409 127.313 478.801 127.757 479.079 128.327C479.357 128.892 479.496 129.546 479.496 130.289V130.679H474.185C474.212 131.33 474.399 131.857 474.745 132.258C475.096 132.659 475.588 132.859 476.222 132.859C476.696 132.859 477.085 132.752 477.391 132.538C477.696 132.324 477.899 132.046 477.999 131.704H479.387C479.3 132.169 479.106 132.579 478.806 132.935C478.509 133.29 478.136 133.568 477.685 133.769C477.238 133.965 476.743 134.062 476.201 134.062ZM474.198 129.585H478.088C478.029 129.011 477.826 128.557 477.479 128.225C477.133 127.887 476.687 127.719 476.14 127.719C475.593 127.719 475.146 127.887 474.8 128.225C474.458 128.557 474.257 129.011 474.198 129.585ZM483.522 134.042C482.894 134.042 482.344 133.885 481.875 133.57C481.406 133.251 481.041 132.812 480.781 132.251C480.521 131.686 480.392 131.032 480.392 130.289C480.392 129.546 480.521 128.895 480.781 128.334C481.046 127.769 481.412 127.329 481.882 127.015C482.351 126.696 482.896 126.536 483.516 126.536C483.985 126.536 484.413 126.634 484.801 126.83C485.188 127.026 485.498 127.325 485.73 127.726H485.744V123.713H487.187V133.898H485.771V132.798H485.758C485.516 133.217 485.2 133.529 484.808 133.734C484.42 133.939 483.992 134.042 483.522 134.042ZM483.816 132.798C484.432 132.798 484.922 132.57 485.286 132.114C485.655 131.654 485.84 131.046 485.84 130.289C485.84 129.528 485.655 128.92 485.286 128.464C484.922 128.004 484.432 127.773 483.816 127.773C483.233 127.773 482.759 127.99 482.395 128.423C482.035 128.851 481.854 129.473 481.854 130.289C481.854 131.105 482.035 131.727 482.395 132.155C482.759 132.584 483.233 132.798 483.816 132.798Z" fill="#059669"/>
<rect x="50.5" y="167.898" width="19" height="19" rx="3.5" fill="white"/>
<rect x="50.5" y="167.898" width="19" height="19" rx="3.5" stroke="#E5E5E5"/>
<path d="M86.2246 182.898H82.9297V172.713H86.3271C87.3252 172.713 88.1842 172.918 88.9043 173.328C89.6289 173.738 90.1849 174.324 90.5723 175.085C90.9596 175.841 91.1533 176.744 91.1533 177.792C91.1533 178.845 90.9574 179.754 90.5654 180.52C90.1781 181.281 89.6152 181.868 88.877 182.283C88.1432 182.693 87.2591 182.898 86.2246 182.898ZM84.4473 181.579H86.1289C87.3184 181.579 88.1979 181.244 88.7676 180.574C89.3418 179.904 89.6289 178.977 89.6289 177.792C89.6289 176.612 89.3464 175.691 88.7812 175.03C88.2161 174.365 87.3662 174.032 86.2314 174.032H84.4473V181.579ZM92.6367 182.898V172.713H94.1543V181.565H98.9736V182.898H92.6367ZM102.118 182.898L98.4199 172.713H100.054L102.07 178.455C102.193 178.824 102.335 179.259 102.494 179.761C102.654 180.262 102.84 180.848 103.055 181.518C103.26 180.848 103.44 180.262 103.595 179.761C103.754 179.259 103.896 178.824 104.019 178.455L105.98 172.713H107.587L103.943 182.898H102.118ZM112.263 177.17V178.441H107.744V177.17H112.263ZM117.321 172.713V182.898H115.852V174.203H115.845L113.356 175.83V174.381L115.893 172.713H117.321ZM122.64 183.062C121.851 183.062 121.17 182.848 120.596 182.42C120.026 181.992 119.586 181.385 119.276 180.602C118.966 179.813 118.812 178.883 118.812 177.812C118.812 176.737 118.966 175.805 119.276 175.017C119.586 174.228 120.026 173.62 120.596 173.191C121.17 172.763 121.851 172.549 122.64 172.549C123.424 172.549 124.1 172.763 124.67 173.191C125.244 173.62 125.686 174.228 125.996 175.017C126.306 175.805 126.461 176.737 126.461 177.812C126.461 178.883 126.306 179.813 125.996 180.602C125.686 181.385 125.244 181.992 124.67 182.42C124.1 182.848 123.424 183.062 122.64 183.062ZM122.64 181.771C123.378 181.771 123.959 181.42 124.383 180.718C124.811 180.011 125.025 179.043 125.025 177.812C125.025 176.577 124.811 175.607 124.383 174.9C123.959 174.194 123.378 173.841 122.64 173.841C121.897 173.841 121.311 174.194 120.883 174.9C120.459 175.607 120.247 176.577 120.247 177.812C120.247 179.043 120.459 180.011 120.883 180.718C121.311 181.42 121.897 181.771 122.64 181.771ZM127.589 182.898V181.695L131.253 178.428C131.64 178.077 131.964 177.762 132.224 177.484C132.483 177.202 132.677 176.924 132.805 176.65C132.937 176.377 133.003 176.069 133.003 175.728C133.003 175.149 132.83 174.691 132.483 174.354C132.137 174.012 131.665 173.841 131.068 173.841C130.421 173.841 129.918 174.041 129.558 174.442C129.198 174.843 129.018 175.388 129.018 176.076H127.603C127.603 175.379 127.744 174.766 128.026 174.237C128.313 173.709 128.715 173.296 129.229 173C129.749 172.699 130.36 172.549 131.062 172.549C131.718 172.549 132.299 172.681 132.805 172.945C133.311 173.205 133.707 173.57 133.994 174.039C134.286 174.504 134.432 175.044 134.432 175.659C134.432 176.338 134.245 176.951 133.871 177.498C133.497 178.04 132.944 178.64 132.21 179.296L129.653 181.593V181.606H134.486V182.898H127.589Z" fill="#333333"/>
<path d="M205.236 183.062C204.334 183.062 203.53 182.841 202.823 182.399C202.117 181.957 201.561 181.342 201.155 180.554C200.754 179.765 200.554 178.852 200.554 177.812C200.554 176.769 200.754 175.853 201.155 175.064C201.561 174.271 202.117 173.654 202.823 173.212C203.53 172.77 204.334 172.549 205.236 172.549C206.143 172.549 206.95 172.77 207.656 173.212C208.363 173.654 208.916 174.271 209.317 175.064C209.723 175.853 209.926 176.769 209.926 177.812C209.926 178.852 209.723 179.765 209.317 180.554C208.916 181.342 208.363 181.957 207.656 182.399C206.95 182.841 206.143 183.062 205.236 183.062ZM205.236 181.675C205.824 181.675 206.357 181.527 206.836 181.23C207.314 180.93 207.695 180.492 207.978 179.918C208.26 179.339 208.401 178.637 208.401 177.812C208.401 176.983 208.26 176.279 207.978 175.7C207.695 175.121 207.314 174.684 206.836 174.388C206.357 174.087 205.824 173.937 205.236 173.937C204.653 173.937 204.122 174.087 203.644 174.388C203.165 174.684 202.785 175.121 202.502 175.7C202.219 176.279 202.078 176.983 202.078 177.812C202.078 178.637 202.219 179.339 202.502 179.918C202.785 180.492 203.165 180.93 203.644 181.23C204.122 181.527 204.653 181.675 205.236 181.675ZM211.3 182.898V175.68H212.701V176.89C212.924 176.443 213.228 176.106 213.61 175.878C213.993 175.65 214.408 175.536 214.854 175.536C215.347 175.536 215.777 175.661 216.146 175.912C216.52 176.163 216.782 176.482 216.933 176.869C217.129 176.477 217.425 176.158 217.821 175.912C218.222 175.661 218.689 175.536 219.223 175.536C219.669 175.536 220.075 175.634 220.439 175.83C220.804 176.026 221.093 176.318 221.308 176.705C221.522 177.088 221.629 177.569 221.629 178.147V182.898H220.18V178.271C220.18 177.756 220.036 177.382 219.749 177.149C219.462 176.917 219.122 176.801 218.73 176.801C218.247 176.801 217.867 176.951 217.589 177.252C217.311 177.548 217.172 177.926 217.172 178.387V182.898H215.75V178.175C215.75 177.76 215.616 177.427 215.347 177.177C215.082 176.926 214.745 176.801 214.335 176.801C213.916 176.801 213.544 176.949 213.221 177.245C212.902 177.541 212.742 177.974 212.742 178.544V182.898H211.3ZM225.464 183.015C224.744 183.015 224.147 182.832 223.673 182.468C223.199 182.099 222.962 181.554 222.962 180.834C222.962 180.287 223.096 179.868 223.365 179.576C223.639 179.28 223.992 179.068 224.425 178.94C224.862 178.813 225.325 178.719 225.812 178.66C226.264 178.605 226.621 178.56 226.886 178.523C227.15 178.487 227.337 178.432 227.446 178.359C227.56 178.286 227.617 178.161 227.617 177.983V177.922C227.617 177.571 227.49 177.284 227.234 177.061C226.979 176.833 226.621 176.719 226.161 176.719C225.701 176.719 225.325 176.83 225.033 177.054C224.742 177.272 224.582 177.548 224.555 177.881H223.14C223.172 177.193 223.461 176.63 224.008 176.192C224.555 175.755 225.279 175.536 226.182 175.536C227.07 175.536 227.77 175.755 228.28 176.192C228.791 176.63 229.046 177.215 229.046 177.949V182.898H227.624V181.873H227.597C227.446 182.165 227.207 182.429 226.879 182.666C226.555 182.898 226.084 183.015 225.464 183.015ZM225.758 181.853C226.396 181.853 226.865 181.688 227.166 181.36C227.471 181.028 227.624 180.64 227.624 180.198V179.351C227.528 179.428 227.312 179.499 226.975 179.562C226.637 179.622 226.277 179.679 225.895 179.733C225.498 179.793 225.149 179.904 224.849 180.068C224.548 180.232 224.397 180.497 224.397 180.861C224.397 181.171 224.518 181.415 224.76 181.593C225.006 181.766 225.339 181.853 225.758 181.853ZM230.673 182.898V175.68H232.054V176.849H232.081C232.213 176.452 232.421 176.145 232.703 175.926C232.99 175.702 233.364 175.591 233.824 175.591C233.934 175.591 234.034 175.595 234.125 175.604C234.216 175.614 234.291 175.62 234.351 175.625V176.972C234.296 176.958 234.198 176.944 234.057 176.931C233.915 176.912 233.76 176.903 233.592 176.903C233.186 176.903 232.838 177.045 232.546 177.327C232.259 177.61 232.115 178.045 232.115 178.633V182.898H230.673Z" fill="#333333"/>
<path d="M304.279 183.062C303.527 183.062 302.876 182.914 302.324 182.618C301.777 182.322 301.354 181.916 301.053 181.401C300.752 180.886 300.602 180.301 300.602 179.645H302.099C302.099 180.324 302.288 180.852 302.666 181.23C303.049 181.609 303.577 181.798 304.252 181.798C304.899 181.798 305.423 181.634 305.824 181.306C306.23 180.978 306.433 180.538 306.433 179.986C306.433 179.48 306.216 179.075 305.783 178.77C305.355 178.46 304.79 178.305 304.088 178.305H303.24V177.067H304.088C304.708 177.067 305.207 176.926 305.585 176.644C305.968 176.361 306.159 175.985 306.159 175.516C306.159 174.987 305.981 174.57 305.626 174.265C305.271 173.959 304.801 173.807 304.218 173.807C303.616 173.807 303.14 173.975 302.789 174.312C302.443 174.65 302.27 175.115 302.27 175.707H300.813C300.813 175.092 300.957 174.547 301.244 174.073C301.531 173.595 301.93 173.221 302.44 172.952C302.951 172.683 303.546 172.549 304.225 172.549C304.872 172.549 305.451 172.672 305.961 172.918C306.471 173.16 306.872 173.497 307.164 173.93C307.46 174.358 307.608 174.848 307.608 175.399C307.608 175.937 307.44 176.404 307.103 176.801C306.765 177.193 306.312 177.466 305.742 177.621V177.642C306.412 177.746 306.943 178.02 307.335 178.462C307.727 178.904 307.923 179.426 307.923 180.027C307.923 180.62 307.766 181.144 307.451 181.6C307.137 182.055 306.704 182.413 306.152 182.673C305.605 182.933 304.981 183.062 304.279 183.062ZM314.26 172.713V182.898H312.742V172.713H314.26ZM319.551 175.68V176.869H318.088V180.991C318.088 181.26 318.143 181.447 318.252 181.552C318.361 181.657 318.56 181.709 318.847 181.709H319.551V182.898H318.642C317.306 182.898 316.639 182.324 316.639 181.176V176.869H315.367V175.68H316.639V173.711H318.088V175.68H319.551ZM323.652 183.062C322.937 183.062 322.322 182.901 321.807 182.577C321.296 182.254 320.902 181.809 320.624 181.244C320.351 180.674 320.214 180.027 320.214 179.303C320.214 178.569 320.357 177.917 320.645 177.348C320.932 176.778 321.328 176.331 321.834 176.008C322.34 175.68 322.921 175.516 323.577 175.516C324.261 175.516 324.853 175.675 325.354 175.994C325.86 176.313 326.252 176.757 326.53 177.327C326.808 177.892 326.947 178.546 326.947 179.289V179.679H321.636C321.663 180.33 321.85 180.857 322.196 181.258C322.547 181.659 323.039 181.859 323.673 181.859C324.147 181.859 324.536 181.752 324.842 181.538C325.147 181.324 325.35 181.046 325.45 180.704H326.838C326.751 181.169 326.558 181.579 326.257 181.935C325.961 182.29 325.587 182.568 325.136 182.769C324.689 182.965 324.195 183.062 323.652 183.062ZM321.649 178.585H325.539C325.48 178.011 325.277 177.557 324.931 177.225C324.584 176.887 324.138 176.719 323.591 176.719C323.044 176.719 322.597 176.887 322.251 177.225C321.909 177.557 321.709 178.011 321.649 178.585ZM328.198 182.898V175.68H329.6V176.89C329.823 176.443 330.126 176.106 330.509 175.878C330.892 175.65 331.306 175.536 331.753 175.536C332.245 175.536 332.676 175.661 333.045 175.912C333.419 176.163 333.681 176.482 333.831 176.869C334.027 176.477 334.323 176.158 334.72 175.912C335.121 175.661 335.588 175.536 336.121 175.536C336.568 175.536 336.973 175.634 337.338 175.83C337.702 176.026 337.992 176.318 338.206 176.705C338.42 177.088 338.527 177.569 338.527 178.147V182.898H337.078V178.271C337.078 177.756 336.935 177.382 336.647 177.149C336.36 176.917 336.021 176.801 335.629 176.801C335.146 176.801 334.765 176.951 334.487 177.252C334.209 177.548 334.07 177.926 334.07 178.387V182.898H332.648V178.175C332.648 177.76 332.514 177.427 332.245 177.177C331.981 176.926 331.644 176.801 331.233 176.801C330.814 176.801 330.443 176.949 330.119 177.245C329.8 177.541 329.641 177.974 329.641 178.544V182.898H328.198ZM342.834 183.069C342.283 183.069 341.786 182.98 341.344 182.803C340.902 182.625 340.544 182.361 340.271 182.01C340.002 181.659 339.851 181.224 339.819 180.704H341.241C341.323 181.515 341.845 181.921 342.807 181.921C343.262 181.921 343.622 181.827 343.887 181.641C344.156 181.454 344.29 181.217 344.29 180.93C344.29 180.684 344.194 180.488 344.003 180.342C343.812 180.191 343.561 180.082 343.251 180.014L342.055 179.747C340.674 179.446 339.983 178.758 339.983 177.683C339.983 177.045 340.236 176.525 340.742 176.124C341.253 175.723 341.92 175.522 342.745 175.522C343.561 175.522 344.231 175.734 344.755 176.158C345.284 176.577 345.557 177.152 345.575 177.881H344.194C344.19 177.53 344.058 177.241 343.798 177.013C343.538 176.78 343.194 176.664 342.766 176.664C342.355 176.664 342.03 176.76 341.788 176.951C341.547 177.143 341.426 177.377 341.426 177.655C341.426 177.901 341.517 178.1 341.699 178.25C341.886 178.4 342.141 178.512 342.465 178.585L343.695 178.858C344.397 179.013 344.914 179.253 345.247 179.576C345.58 179.9 345.746 180.324 345.746 180.848C345.746 181.308 345.618 181.704 345.363 182.037C345.113 182.365 344.769 182.62 344.331 182.803C343.894 182.98 343.395 183.069 342.834 183.069Z" fill="#333333"/>
<rect x="389" y="164.898" width="111" height="25" rx="12.5" fill="#ECFDF5"/>
<g clipPath="url(#clip3_2200_984)">
<path d="M402.875 178.148L405.5 180.773L411.5 174.773" stroke="#059669" stroke-width="1.5" stroke-linecap="round" stroke-linejoin="round"/>
</g>
<path d="M424.412 183.062C423.478 183.062 422.653 182.841 421.938 182.399C421.222 181.957 420.664 181.342 420.263 180.554C419.862 179.765 419.661 178.852 419.661 177.812C419.661 176.764 419.862 175.846 420.263 175.058C420.664 174.269 421.22 173.654 421.931 173.212C422.646 172.77 423.473 172.549 424.412 172.549C425.155 172.549 425.827 172.695 426.429 172.986C427.035 173.278 427.536 173.69 427.933 174.224C428.329 174.752 428.587 175.379 428.705 176.104H427.16C427.01 175.411 426.688 174.878 426.196 174.504C425.709 174.126 425.118 173.937 424.426 173.937C423.756 173.937 423.179 174.098 422.696 174.422C422.213 174.745 421.84 175.199 421.575 175.782C421.315 176.366 421.186 177.042 421.186 177.812C421.186 178.583 421.315 179.257 421.575 179.836C421.835 180.415 422.206 180.866 422.689 181.189C423.177 181.513 423.756 181.675 424.426 181.675C425.114 181.675 425.702 181.488 426.189 181.114C426.682 180.741 427.007 180.21 427.167 179.521H428.705C428.587 180.242 428.329 180.868 427.933 181.401C427.536 181.93 427.035 182.34 426.429 182.632C425.827 182.919 425.155 183.062 424.412 183.062ZM433.155 183.062C432.467 183.062 431.863 182.903 431.344 182.584C430.824 182.265 430.419 181.823 430.127 181.258C429.84 180.693 429.696 180.041 429.696 179.303C429.696 178.555 429.84 177.899 430.127 177.334C430.419 176.764 430.824 176.32 431.344 176.001C431.863 175.677 432.467 175.516 433.155 175.516C433.843 175.516 434.445 175.677 434.96 176.001C435.479 176.32 435.883 176.764 436.17 177.334C436.462 177.899 436.607 178.555 436.607 179.303C436.607 180.041 436.462 180.693 436.17 181.258C435.883 181.823 435.479 182.265 434.96 182.584C434.445 182.903 433.843 183.062 433.155 183.062ZM433.155 181.818C433.775 181.818 434.263 181.59 434.618 181.135C434.974 180.679 435.151 180.068 435.151 179.303C435.151 178.528 434.971 177.91 434.611 177.45C434.256 176.99 433.771 176.76 433.155 176.76C432.54 176.76 432.052 176.99 431.692 177.45C431.337 177.906 431.159 178.523 431.159 179.303C431.159 180.073 431.337 180.686 431.692 181.142C432.048 181.593 432.535 181.818 433.155 181.818ZM437.886 182.898V175.68H439.287V176.89C439.51 176.443 439.813 176.106 440.196 175.878C440.579 175.65 440.994 175.536 441.44 175.536C441.933 175.536 442.363 175.661 442.732 175.912C443.106 176.163 443.368 176.482 443.519 176.869C443.715 176.477 444.011 176.158 444.407 175.912C444.808 175.661 445.275 175.536 445.809 175.536C446.255 175.536 446.661 175.634 447.025 175.83C447.39 176.026 447.679 176.318 447.894 176.705C448.108 177.088 448.215 177.569 448.215 178.147V182.898H446.766V178.271C446.766 177.756 446.622 177.382 446.335 177.149C446.048 176.917 445.708 176.801 445.316 176.801C444.833 176.801 444.453 176.951 444.175 177.252C443.897 177.548 443.758 177.926 443.758 178.387V182.898H442.336V178.175C442.336 177.76 442.201 177.427 441.933 177.177C441.668 176.926 441.331 176.801 440.921 176.801C440.502 176.801 440.13 176.949 439.807 177.245C439.488 177.541 439.328 177.974 439.328 178.544V182.898H437.886ZM449.849 185.756V175.68H451.264V176.719H451.284C451.512 176.322 451.824 176.026 452.221 175.83C452.617 175.634 453.05 175.536 453.52 175.536C454.139 175.536 454.684 175.696 455.153 176.015C455.623 176.329 455.987 176.769 456.247 177.334C456.511 177.895 456.644 178.546 456.644 179.289C456.644 180.032 456.514 180.686 456.254 181.251C455.994 181.812 455.63 182.251 455.16 182.57C454.691 182.885 454.142 183.042 453.513 183.042C453.043 183.042 452.619 182.939 452.241 182.734C451.863 182.529 451.553 182.222 451.312 181.812H451.291V185.756H449.849ZM453.219 181.798C453.802 181.798 454.274 181.584 454.634 181.155C454.998 180.727 455.181 180.105 455.181 179.289C455.181 178.473 454.998 177.851 454.634 177.423C454.274 176.99 453.802 176.773 453.219 176.773C452.604 176.773 452.111 177.004 451.742 177.464C451.378 177.92 451.195 178.528 451.195 179.289C451.195 180.046 451.378 180.654 451.742 181.114C452.111 181.57 452.604 181.798 453.219 181.798ZM459.357 172.713V182.898H457.915V172.713H459.357ZM464.074 183.062C463.359 183.062 462.743 182.901 462.229 182.577C461.718 182.254 461.324 181.809 461.046 181.244C460.772 180.674 460.636 180.027 460.636 179.303C460.636 178.569 460.779 177.917 461.066 177.348C461.354 176.778 461.75 176.331 462.256 176.008C462.762 175.68 463.343 175.516 463.999 175.516C464.683 175.516 465.275 175.675 465.776 175.994C466.282 176.313 466.674 176.757 466.952 177.327C467.23 177.892 467.369 178.546 467.369 179.289V179.679H462.058C462.085 180.33 462.272 180.857 462.618 181.258C462.969 181.659 463.461 181.859 464.095 181.859C464.569 181.859 464.958 181.752 465.264 181.538C465.569 181.324 465.772 181.046 465.872 180.704H467.26C467.173 181.169 466.979 181.579 466.679 181.935C466.382 182.29 466.009 182.568 465.558 182.769C465.111 182.965 464.617 183.062 464.074 183.062ZM462.071 178.585H465.961C465.902 178.011 465.699 177.557 465.353 177.225C465.006 176.887 464.56 176.719 464.013 176.719C463.466 176.719 463.019 176.887 462.673 177.225C462.331 177.557 462.131 178.011 462.071 178.585ZM472.1 175.68V176.869H470.637V180.991C470.637 181.26 470.691 181.447 470.801 181.552C470.91 181.657 471.108 181.709 471.396 181.709H472.1V182.898H471.19C469.855 182.898 469.188 182.324 469.188 181.176V176.869H467.916V175.68H469.188V173.711H470.637V175.68H472.1ZM476.201 183.062C475.486 183.062 474.87 182.901 474.355 182.577C473.845 182.254 473.451 181.809 473.173 181.244C472.899 180.674 472.763 180.027 472.763 179.303C472.763 178.569 472.906 177.917 473.193 177.348C473.48 176.778 473.877 176.331 474.383 176.008C474.889 175.68 475.47 175.516 476.126 175.516C476.81 175.516 477.402 175.675 477.903 175.994C478.409 176.313 478.801 176.757 479.079 177.327C479.357 177.892 479.496 178.546 479.496 179.289V179.679H474.185C474.212 180.33 474.399 180.857 474.745 181.258C475.096 181.659 475.588 181.859 476.222 181.859C476.696 181.859 477.085 181.752 477.391 181.538C477.696 181.324 477.899 181.046 477.999 180.704H479.387C479.3 181.169 479.106 181.579 478.806 181.935C478.509 182.29 478.136 182.568 477.685 182.769C477.238 182.965 476.743 183.062 476.201 183.062ZM474.198 178.585H478.088C478.029 178.011 477.826 177.557 477.479 177.225C477.133 176.887 476.687 176.719 476.14 176.719C475.593 176.719 475.146 176.887 474.8 177.225C474.458 177.557 474.257 178.011 474.198 178.585ZM483.522 183.042C482.894 183.042 482.344 182.885 481.875 182.57C481.406 182.251 481.041 181.812 480.781 181.251C480.521 180.686 480.392 180.032 480.392 179.289C480.392 178.546 480.521 177.895 480.781 177.334C481.046 176.769 481.412 176.329 481.882 176.015C482.351 175.696 482.896 175.536 483.516 175.536C483.985 175.536 484.413 175.634 484.801 175.83C485.188 176.026 485.498 176.325 485.73 176.726H485.744V172.713H487.187V182.898H485.771V181.798H485.758C485.516 182.217 485.2 182.529 484.808 182.734C484.42 182.939 483.992 183.042 483.522 183.042ZM483.816 181.798C484.432 181.798 484.922 181.57 485.286 181.114C485.655 180.654 485.84 180.046 485.84 179.289C485.84 178.528 485.655 177.92 485.286 177.464C484.922 177.004 484.432 176.773 483.816 176.773C483.233 176.773 482.759 176.99 482.395 177.423C482.035 177.851 481.854 178.473 481.854 179.289C481.854 180.105 482.035 180.727 482.395 181.155C482.759 181.584 483.233 181.798 483.816 181.798Z" fill="#059669"/>
<rect x="50.5" y="216.898" width="19" height="19" rx="3.5" fill="white"/>
<rect x="50.5" y="216.898" width="19" height="19" rx="3.5" stroke="#E5E5E5"/>
<path d="M84.8711 231.898L82.1094 221.713H83.6885L85.1855 227.64C85.2949 228.077 85.3975 228.517 85.4932 228.959C85.5889 229.396 85.6823 229.836 85.7734 230.278C85.8646 229.836 85.9603 229.396 86.0605 228.959C86.1608 228.517 86.2679 228.077 86.3818 227.64L87.9268 221.713H89.5879L91.1191 227.64C91.3379 228.506 91.5407 229.374 91.7275 230.244C91.8187 229.811 91.9121 229.378 92.0078 228.945C92.1081 228.508 92.2106 228.073 92.3154 227.64L93.8125 221.713H95.3984L92.623 231.898H90.8867L89.2119 225.671C89.1299 225.356 89.0501 225.035 88.9727 224.707C88.8997 224.374 88.8245 224.035 88.7471 223.688C88.6742 224.035 88.6012 224.374 88.5283 224.707C88.4554 225.035 88.3757 225.356 88.2891 225.671L86.6279 231.898H84.8711ZM96.4375 231.898V221.713H103.287V223.046H97.9551V226.047H102.891V227.366H97.9551V230.565H103.287V231.898H96.4375ZM104.682 231.898V221.713H108.489C109.537 221.713 110.353 221.957 110.937 222.444C111.524 222.927 111.818 223.577 111.818 224.393C111.818 224.976 111.666 225.45 111.36 225.814C111.06 226.179 110.643 226.443 110.109 226.607V226.621C110.702 226.703 111.201 226.945 111.606 227.346C112.017 227.747 112.222 228.31 112.222 229.034C112.222 229.9 111.919 230.595 111.312 231.119C110.711 231.639 109.809 231.898 108.605 231.898H104.682ZM106.186 230.62H108.51C109.202 230.62 109.736 230.486 110.109 230.217C110.488 229.943 110.677 229.547 110.677 229.027C110.677 228.512 110.492 228.104 110.123 227.804C109.758 227.503 109.239 227.353 108.564 227.353H106.186V230.62ZM106.186 226.102H108.469C109.048 226.102 109.499 225.963 109.822 225.685C110.15 225.407 110.314 225.028 110.314 224.55C110.314 224.071 110.15 223.693 109.822 223.415C109.499 223.132 109.048 222.991 108.469 222.991H106.186V226.102ZM118.019 226.17V227.441H113.5V226.17H118.019ZM123.187 232.062C122.398 232.062 121.717 231.848 121.143 231.42C120.573 230.992 120.133 230.385 119.823 229.602C119.513 228.813 119.358 227.883 119.358 226.812C119.358 225.737 119.513 224.805 119.823 224.017C120.133 223.228 120.573 222.62 121.143 222.191C121.717 221.763 122.398 221.549 123.187 221.549C123.97 221.549 124.647 221.763 125.217 222.191C125.791 222.62 126.233 223.228 126.543 224.017C126.853 224.805 127.008 225.737 127.008 226.812C127.008 227.883 126.853 228.813 126.543 229.602C126.233 230.385 125.791 230.992 125.217 231.42C124.647 231.848 123.97 232.062 123.187 232.062ZM123.187 230.771C123.925 230.771 124.506 230.42 124.93 229.718C125.358 229.011 125.572 228.043 125.572 226.812C125.572 225.577 125.358 224.607 124.93 223.9C124.506 223.194 123.925 222.841 123.187 222.841C122.444 222.841 121.858 223.194 121.43 223.9C121.006 224.607 120.794 225.577 120.794 226.812C120.794 228.043 121.006 229.011 121.43 229.718C121.858 230.42 122.444 230.771 123.187 230.771ZM131.95 232.062C131.162 232.062 130.48 231.848 129.906 231.42C129.337 230.992 128.897 230.385 128.587 229.602C128.277 228.813 128.122 227.883 128.122 226.812C128.122 225.737 128.277 224.805 128.587 224.017C128.897 223.228 129.337 222.62 129.906 222.191C130.48 221.763 131.162 221.549 131.95 221.549C132.734 221.549 133.411 221.763 133.98 222.191C134.555 222.62 134.997 223.228 135.307 224.017C135.617 224.805 135.771 225.737 135.771 226.812C135.771 227.883 135.617 228.813 135.307 229.602C134.997 230.385 134.555 230.992 133.98 231.42C133.411 231.848 132.734 232.062 131.95 232.062ZM131.95 230.771C132.688 230.771 133.27 230.42 133.693 229.718C134.122 229.011 134.336 228.043 134.336 226.812C134.336 225.577 134.122 224.607 133.693 223.9C133.27 223.194 132.688 222.841 131.95 222.841C131.207 222.841 130.622 223.194 130.193 223.9C129.77 224.607 129.558 225.577 129.558 226.812C129.558 228.043 129.77 229.011 130.193 229.718C130.622 230.42 131.207 230.771 131.95 230.771ZM136.899 231.898V230.695L140.563 227.428C140.951 227.077 141.274 226.762 141.534 226.484C141.794 226.202 141.988 225.924 142.115 225.65C142.247 225.377 142.313 225.069 142.313 224.728C142.313 224.149 142.14 223.691 141.794 223.354C141.448 223.012 140.976 222.841 140.379 222.841C139.732 222.841 139.228 223.041 138.868 223.442C138.508 223.843 138.328 224.388 138.328 225.076H136.913C136.913 224.379 137.054 223.766 137.337 223.237C137.624 222.709 138.025 222.296 138.54 222C139.06 221.699 139.67 221.549 140.372 221.549C141.028 221.549 141.609 221.681 142.115 221.945C142.621 222.205 143.018 222.57 143.305 223.039C143.596 223.504 143.742 224.044 143.742 224.659C143.742 225.338 143.555 225.951 143.182 226.498C142.808 227.04 142.254 227.64 141.521 228.296L138.964 230.593V230.606H143.797V231.898H136.899Z" fill="#333333"/>
<path d="M204.225 231.898H200.93V221.713H204.327C205.325 221.713 206.184 221.918 206.904 222.328C207.629 222.738 208.185 223.324 208.572 224.085C208.96 224.841 209.153 225.744 209.153 226.792C209.153 227.845 208.957 228.754 208.565 229.52C208.178 230.281 207.615 230.868 206.877 231.283C206.143 231.693 205.259 231.898 204.225 231.898ZM202.447 230.579H204.129C205.318 230.579 206.198 230.244 206.768 229.574C207.342 228.904 207.629 227.977 207.629 226.792C207.629 225.612 207.346 224.691 206.781 224.03C206.216 223.365 205.366 223.032 204.231 223.032H202.447V230.579ZM212.722 232.015C212.002 232.015 211.405 231.832 210.931 231.468C210.457 231.099 210.22 230.554 210.22 229.834C210.22 229.287 210.354 228.868 210.623 228.576C210.896 228.28 211.25 228.068 211.683 227.94C212.12 227.813 212.583 227.719 213.07 227.66C213.521 227.605 213.879 227.56 214.144 227.523C214.408 227.487 214.595 227.432 214.704 227.359C214.818 227.286 214.875 227.161 214.875 226.983V226.922C214.875 226.571 214.747 226.284 214.492 226.061C214.237 225.833 213.879 225.719 213.419 225.719C212.959 225.719 212.583 225.83 212.291 226.054C211.999 226.272 211.84 226.548 211.812 226.881H210.397C210.429 226.193 210.719 225.63 211.266 225.192C211.812 224.755 212.537 224.536 213.439 224.536C214.328 224.536 215.028 224.755 215.538 225.192C216.049 225.63 216.304 226.215 216.304 226.949V231.898H214.882V230.873H214.854C214.704 231.165 214.465 231.429 214.137 231.666C213.813 231.898 213.341 232.015 212.722 232.015ZM213.016 230.853C213.654 230.853 214.123 230.688 214.424 230.36C214.729 230.028 214.882 229.64 214.882 229.198V228.351C214.786 228.428 214.57 228.499 214.232 228.562C213.895 228.622 213.535 228.679 213.152 228.733C212.756 228.793 212.407 228.904 212.106 229.068C211.806 229.232 211.655 229.497 211.655 229.861C211.655 230.171 211.776 230.415 212.018 230.593C212.264 230.766 212.596 230.853 213.016 230.853ZM219.373 227.742V231.898H217.931V224.68H219.346V225.767C219.838 224.946 220.565 224.536 221.526 224.536C222.023 224.536 222.467 224.646 222.859 224.864C223.256 225.078 223.568 225.397 223.796 225.821C224.024 226.245 224.138 226.771 224.138 227.4V231.898H222.695V227.578C222.695 226.999 222.556 226.564 222.278 226.272C222 225.976 221.613 225.828 221.116 225.828C220.624 225.828 220.209 225.981 219.872 226.286C219.539 226.587 219.373 227.072 219.373 227.742ZM225.765 231.898V224.68H227.207V231.898H225.765ZM226.482 223.436C226.227 223.436 226.011 223.351 225.833 223.183C225.66 223.009 225.573 222.8 225.573 222.554C225.573 222.303 225.66 222.093 225.833 221.925C226.011 221.752 226.227 221.665 226.482 221.665C226.738 221.665 226.954 221.752 227.132 221.925C227.31 222.093 227.398 222.303 227.398 222.554C227.398 222.8 227.31 223.009 227.132 223.183C226.954 223.351 226.738 223.436 226.482 223.436ZM231.924 232.062C231.208 232.062 230.593 231.901 230.078 231.577C229.568 231.254 229.174 230.809 228.896 230.244C228.622 229.674 228.485 229.027 228.485 228.303C228.485 227.569 228.629 226.917 228.916 226.348C229.203 225.778 229.6 225.331 230.105 225.008C230.611 224.68 231.192 224.516 231.849 224.516C232.532 224.516 233.125 224.675 233.626 224.994C234.132 225.313 234.524 225.757 234.802 226.327C235.08 226.892 235.219 227.546 235.219 228.289V228.679H229.907C229.935 229.33 230.121 229.857 230.468 230.258C230.819 230.659 231.311 230.859 231.944 230.859C232.418 230.859 232.808 230.752 233.113 230.538C233.419 230.324 233.621 230.046 233.722 229.704H235.109C235.023 230.169 234.829 230.579 234.528 230.935C234.232 231.29 233.858 231.568 233.407 231.769C232.961 231.965 232.466 232.062 231.924 232.062ZM229.921 227.585H233.811C233.751 227.011 233.549 226.557 233.202 226.225C232.856 225.887 232.409 225.719 231.862 225.719C231.315 225.719 230.869 225.887 230.522 226.225C230.181 226.557 229.98 227.011 229.921 227.585ZM237.912 221.713V231.898H236.47V221.713H237.912Z" fill="#333333"/>
<path d="M304.272 221.713V231.898H302.803V223.203H302.796L300.308 224.83V223.381L302.844 221.713H304.272ZM310.992 221.713V231.898H309.475V221.713H310.992ZM316.283 224.68V225.869H314.82V229.991C314.82 230.26 314.875 230.447 314.984 230.552C315.094 230.657 315.292 230.709 315.579 230.709H316.283V231.898H315.374C314.039 231.898 313.371 231.324 313.371 230.176V225.869H312.1V224.68H313.371V222.711H314.82V224.68H316.283ZM320.385 232.062C319.669 232.062 319.054 231.901 318.539 231.577C318.029 231.254 317.634 230.809 317.356 230.244C317.083 229.674 316.946 229.027 316.946 228.303C316.946 227.569 317.09 226.917 317.377 226.348C317.664 225.778 318.061 225.331 318.566 225.008C319.072 224.68 319.653 224.516 320.31 224.516C320.993 224.516 321.586 224.675 322.087 224.994C322.593 225.313 322.985 225.757 323.263 226.327C323.541 226.892 323.68 227.546 323.68 228.289V228.679H318.368C318.396 229.33 318.582 229.857 318.929 230.258C319.28 230.659 319.772 230.859 320.405 230.859C320.879 230.859 321.269 230.752 321.574 230.538C321.88 230.324 322.082 230.046 322.183 229.704H323.57C323.484 230.169 323.29 230.579 322.989 230.935C322.693 231.29 322.319 231.568 321.868 231.769C321.422 231.965 320.927 232.062 320.385 232.062ZM318.382 227.585H322.271C322.212 227.011 322.009 226.557 321.663 226.225C321.317 225.887 320.87 225.719 320.323 225.719C319.776 225.719 319.33 225.887 318.983 226.225C318.642 226.557 318.441 227.011 318.382 227.585ZM324.931 231.898V224.68H326.332V225.89C326.555 225.443 326.858 225.106 327.241 224.878C327.624 224.65 328.039 224.536 328.485 224.536C328.978 224.536 329.408 224.661 329.777 224.912C330.151 225.163 330.413 225.482 330.563 225.869C330.759 225.477 331.056 225.158 331.452 224.912C331.853 224.661 332.32 224.536 332.854 224.536C333.3 224.536 333.706 224.634 334.07 224.83C334.435 225.026 334.724 225.318 334.938 225.705C335.153 226.088 335.26 226.569 335.26 227.147V231.898H333.811V227.271C333.811 226.756 333.667 226.382 333.38 226.149C333.093 225.917 332.753 225.801 332.361 225.801C331.878 225.801 331.498 225.951 331.22 226.252C330.942 226.548 330.803 226.926 330.803 227.387V231.898H329.381V227.175C329.381 226.76 329.246 226.427 328.978 226.177C328.713 225.926 328.376 225.801 327.966 225.801C327.547 225.801 327.175 225.949 326.852 226.245C326.533 226.541 326.373 226.974 326.373 227.544V231.898H324.931ZM339.566 232.069C339.015 232.069 338.518 231.98 338.076 231.803C337.634 231.625 337.276 231.361 337.003 231.01C336.734 230.659 336.584 230.224 336.552 229.704H337.974C338.056 230.515 338.577 230.921 339.539 230.921C339.995 230.921 340.355 230.827 340.619 230.641C340.888 230.454 341.022 230.217 341.022 229.93C341.022 229.684 340.927 229.488 340.735 229.342C340.544 229.191 340.293 229.082 339.983 229.014L338.787 228.747C337.406 228.446 336.716 227.758 336.716 226.683C336.716 226.045 336.969 225.525 337.475 225.124C337.985 224.723 338.653 224.522 339.478 224.522C340.293 224.522 340.963 224.734 341.487 225.158C342.016 225.577 342.289 226.152 342.308 226.881H340.927C340.922 226.53 340.79 226.241 340.53 226.013C340.271 225.78 339.926 225.664 339.498 225.664C339.088 225.664 338.762 225.76 338.521 225.951C338.279 226.143 338.158 226.377 338.158 226.655C338.158 226.901 338.249 227.1 338.432 227.25C338.618 227.4 338.874 227.512 339.197 227.585L340.428 227.858C341.13 228.013 341.647 228.253 341.979 228.576C342.312 228.9 342.479 229.324 342.479 229.848C342.479 230.308 342.351 230.704 342.096 231.037C341.845 231.365 341.501 231.62 341.063 231.803C340.626 231.98 340.127 232.069 339.566 232.069Z" fill="#333333"/>
<rect x="397" y="213.898" width="103" height="25" rx="12.5" fill="#FFEDD5"/>
<g clipPath="url(#clip4_2200_984)">
<path d="M415 221.898V223.398" stroke="#EA580C" stroke-width="1.5" stroke-linecap="round" stroke-linejoin="round"/>
<path d="M418.182 223.217L417.121 224.278" stroke="#EA580C" stroke-width="1.5" stroke-linecap="round" stroke-linejoin="round"/>
<path d="M419.5 226.398H418" stroke="#EA580C" stroke-width="1.5" stroke-linecap="round" stroke-linejoin="round"/>
<path d="M418.182 229.58L417.121 228.52" stroke="#EA580C" stroke-width="1.5" stroke-linecap="round" stroke-linejoin="round"/>
<path d="M415 230.898V229.398" stroke="#EA580C" stroke-width="1.5" stroke-linecap="round" stroke-linejoin="round"/>
<path d="M411.818 229.58L412.879 228.52" stroke="#EA580C" stroke-width="1.5" stroke-linecap="round" stroke-linejoin="round"/>
<path d="M410.5 226.398H412" stroke="#EA580C" stroke-width="1.5" stroke-linecap="round" stroke-linejoin="round"/>
<path d="M411.818 223.217L412.879 224.278" stroke="#EA580C" stroke-width="1.5" stroke-linecap="round" stroke-linejoin="round"/>
</g>
<path d="M428.787 231.898V221.713H432.561C433.65 221.713 434.513 221.998 435.151 222.567C435.789 223.137 436.108 223.91 436.108 224.885C436.108 225.536 435.96 226.102 435.664 226.58C435.368 227.054 434.951 227.421 434.413 227.681C433.875 227.936 433.242 228.063 432.513 228.063H430.305V231.898H428.787ZM430.305 226.751H432.485C433.142 226.751 433.659 226.585 434.037 226.252C434.42 225.915 434.611 225.459 434.611 224.885C434.611 224.311 434.42 223.859 434.037 223.531C433.659 223.199 433.142 223.032 432.485 223.032H430.305V226.751ZM437.216 231.898V224.68H438.597V225.849H438.624C438.756 225.452 438.964 225.145 439.246 224.926C439.533 224.702 439.907 224.591 440.367 224.591C440.477 224.591 440.577 224.595 440.668 224.604C440.759 224.614 440.834 224.62 440.894 224.625V225.972C440.839 225.958 440.741 225.944 440.6 225.931C440.458 225.912 440.303 225.903 440.135 225.903C439.729 225.903 439.381 226.045 439.089 226.327C438.802 226.61 438.658 227.045 438.658 227.633V231.898H437.216ZM444.947 232.062C444.232 232.062 443.617 231.901 443.102 231.577C442.591 231.254 442.197 230.809 441.919 230.244C441.646 229.674 441.509 229.027 441.509 228.303C441.509 227.569 441.652 226.917 441.939 226.348C442.227 225.778 442.623 225.331 443.129 225.008C443.635 224.68 444.216 224.516 444.872 224.516C445.556 224.516 446.148 224.675 446.649 224.994C447.155 225.313 447.547 225.757 447.825 226.327C448.103 226.892 448.242 227.546 448.242 228.289V228.679H442.931C442.958 229.33 443.145 229.857 443.491 230.258C443.842 230.659 444.334 230.859 444.968 230.859C445.442 230.859 445.831 230.752 446.137 230.538C446.442 230.324 446.645 230.046 446.745 229.704H448.133C448.046 230.169 447.853 230.579 447.552 230.935C447.256 231.29 446.882 231.568 446.431 231.769C445.984 231.965 445.49 232.062 444.947 232.062ZM442.944 227.585H446.834C446.775 227.011 446.572 226.557 446.226 226.225C445.879 225.887 445.433 225.719 444.886 225.719C444.339 225.719 443.892 225.887 443.546 226.225C443.204 226.557 443.004 227.011 442.944 227.585ZM449.493 234.756V224.68H450.908V225.719H450.929C451.157 225.322 451.469 225.026 451.865 224.83C452.262 224.634 452.695 224.536 453.164 224.536C453.784 224.536 454.328 224.696 454.798 225.015C455.267 225.329 455.632 225.769 455.892 226.334C456.156 226.895 456.288 227.546 456.288 228.289C456.288 229.032 456.158 229.686 455.898 230.251C455.639 230.812 455.274 231.251 454.805 231.57C454.335 231.885 453.786 232.042 453.157 232.042C452.688 232.042 452.264 231.939 451.886 231.734C451.507 231.529 451.198 231.222 450.956 230.812H450.936V234.756H449.493ZM452.863 230.798C453.447 230.798 453.918 230.584 454.278 230.155C454.643 229.727 454.825 229.105 454.825 228.289C454.825 227.473 454.643 226.851 454.278 226.423C453.918 225.99 453.447 225.773 452.863 225.773C452.248 225.773 451.756 226.004 451.387 226.464C451.022 226.92 450.84 227.528 450.84 228.289C450.84 229.046 451.022 229.654 451.387 230.114C451.756 230.57 452.248 230.798 452.863 230.798ZM459.843 232.015C459.123 232.015 458.526 231.832 458.052 231.468C457.578 231.099 457.341 230.554 457.341 229.834C457.341 229.287 457.475 228.868 457.744 228.576C458.018 228.28 458.371 228.068 458.804 227.94C459.241 227.813 459.704 227.719 460.191 227.66C460.643 227.605 461 227.56 461.265 227.523C461.529 227.487 461.716 227.432 461.825 227.359C461.939 227.286 461.996 227.161 461.996 226.983V226.922C461.996 226.571 461.868 226.284 461.613 226.061C461.358 225.833 461 225.719 460.54 225.719C460.08 225.719 459.704 225.83 459.412 226.054C459.12 226.272 458.961 226.548 458.934 226.881H457.519C457.55 226.193 457.84 225.63 458.387 225.192C458.934 224.755 459.658 224.536 460.561 224.536C461.449 224.536 462.149 224.755 462.659 225.192C463.17 225.63 463.425 226.215 463.425 226.949V231.898H462.003V230.873H461.976C461.825 231.165 461.586 231.429 461.258 231.666C460.934 231.898 460.463 232.015 459.843 232.015ZM460.137 230.853C460.775 230.853 461.244 230.688 461.545 230.36C461.85 230.028 462.003 229.64 462.003 229.198V228.351C461.907 228.428 461.691 228.499 461.354 228.562C461.016 228.622 460.656 228.679 460.273 228.733C459.877 228.793 459.528 228.904 459.228 229.068C458.927 229.232 458.776 229.497 458.776 229.861C458.776 230.171 458.897 230.415 459.139 230.593C459.385 230.766 459.717 230.853 460.137 230.853ZM465.052 231.898V224.68H466.433V225.849H466.46C466.592 225.452 466.799 225.145 467.082 224.926C467.369 224.702 467.743 224.591 468.203 224.591C468.312 224.591 468.413 224.595 468.504 224.604C468.595 224.614 468.67 224.62 468.729 224.625V225.972C468.675 225.958 468.577 225.944 468.436 225.931C468.294 225.912 468.139 225.903 467.971 225.903C467.565 225.903 467.216 226.045 466.925 226.327C466.638 226.61 466.494 227.045 466.494 227.633V231.898H465.052ZM469.837 231.898V224.68H471.279V231.898H469.837ZM470.555 223.436C470.299 223.436 470.083 223.351 469.905 223.183C469.732 223.009 469.646 222.8 469.646 222.554C469.646 222.303 469.732 222.093 469.905 221.925C470.083 221.752 470.299 221.665 470.555 221.665C470.81 221.665 471.026 221.752 471.204 221.925C471.382 222.093 471.471 222.303 471.471 222.554C471.471 222.8 471.382 223.009 471.204 223.183C471.026 223.351 470.81 223.436 470.555 223.436ZM474.355 227.742V231.898H472.913V224.68H474.328V225.767C474.82 224.946 475.547 224.536 476.509 224.536C477.006 224.536 477.45 224.646 477.842 224.864C478.238 225.078 478.55 225.397 478.778 225.821C479.006 226.245 479.12 226.771 479.12 227.4V231.898H477.678V227.578C477.678 226.999 477.539 226.564 477.261 226.272C476.983 225.976 476.595 225.828 476.099 225.828C475.606 225.828 475.192 225.981 474.854 226.286C474.522 226.587 474.355 227.072 474.355 227.742ZM483.898 234.852C483.014 234.852 482.292 234.656 481.731 234.264C481.171 233.872 480.843 233.323 480.747 232.616H482.189C482.281 232.967 482.479 233.231 482.784 233.409C483.09 233.587 483.461 233.676 483.898 233.676C484.482 233.676 484.938 233.519 485.266 233.204C485.594 232.89 485.758 232.441 485.758 231.857V230.764H485.751C485.5 231.183 485.184 231.493 484.801 231.693C484.423 231.894 483.996 231.994 483.522 231.994C482.894 231.994 482.344 231.837 481.875 231.522C481.406 231.203 481.041 230.766 480.781 230.21C480.521 229.649 480.392 229.002 480.392 228.269C480.392 227.535 480.521 226.888 480.781 226.327C481.046 225.767 481.412 225.329 481.882 225.015C482.351 224.696 482.896 224.536 483.516 224.536C483.985 224.536 484.416 224.636 484.808 224.837C485.2 225.037 485.516 225.352 485.758 225.78H485.765V224.68H487.187V231.803C487.187 232.532 487.038 233.12 486.742 233.566C486.446 234.013 486.049 234.339 485.553 234.544C485.056 234.749 484.505 234.852 483.898 234.852ZM483.816 230.757C484.432 230.757 484.922 230.531 485.286 230.08C485.655 229.624 485.84 229.018 485.84 228.262C485.84 227.505 485.655 226.901 485.286 226.45C484.922 225.994 484.432 225.767 483.816 225.767C483.233 225.767 482.759 225.981 482.395 226.409C482.035 226.833 481.854 227.451 481.854 228.262C481.854 229.073 482.035 229.693 482.395 230.121C482.759 230.545 483.233 230.757 483.816 230.757Z" fill="#EA580C"/>
<rect x="50.5" y="265.898" width="19" height="19" rx="3.5" fill="white"/>
<rect x="50.5" y="265.898" width="19" height="19" rx="3.5" stroke="#E5E5E5"/>
<path d="M86.2246 280.898H82.9297V270.713H86.3271C87.3252 270.713 88.1842 270.918 88.9043 271.328C89.6289 271.738 90.1849 272.324 90.5723 273.085C90.9596 273.841 91.1533 274.744 91.1533 275.792C91.1533 276.845 90.9574 277.754 90.5654 278.52C90.1781 279.281 89.6152 279.868 88.877 280.283C88.1432 280.693 87.2591 280.898 86.2246 280.898ZM84.4473 279.579H86.1289C87.3184 279.579 88.1979 279.244 88.7676 278.574C89.3418 277.904 89.6289 276.977 89.6289 275.792C89.6289 274.612 89.3464 273.691 88.7812 273.03C88.2161 272.365 87.3662 272.032 86.2314 272.032H84.4473V279.579ZM92.6367 280.898V270.713H94.1543V279.565H98.9736V280.898H92.6367ZM102.118 280.898L98.4199 270.713H100.054L102.07 276.455C102.193 276.824 102.335 277.259 102.494 277.761C102.654 278.262 102.84 278.848 103.055 279.518C103.26 278.848 103.44 278.262 103.595 277.761C103.754 277.259 103.896 276.824 104.019 276.455L105.98 270.713H107.587L103.943 280.898H102.118ZM112.263 275.17V276.441H107.744V275.17H112.263ZM117.321 270.713V280.898H115.852V272.203H115.845L113.356 273.83V272.381L115.893 270.713H117.321ZM122.64 281.062C121.851 281.062 121.17 280.848 120.596 280.42C120.026 279.992 119.586 279.385 119.276 278.602C118.966 277.813 118.812 276.883 118.812 275.812C118.812 274.737 118.966 273.805 119.276 273.017C119.586 272.228 120.026 271.62 120.596 271.191C121.17 270.763 121.851 270.549 122.64 270.549C123.424 270.549 124.1 270.763 124.67 271.191C125.244 271.62 125.686 272.228 125.996 273.017C126.306 273.805 126.461 274.737 126.461 275.812C126.461 276.883 126.306 277.813 125.996 278.602C125.686 279.385 125.244 279.992 124.67 280.42C124.1 280.848 123.424 281.062 122.64 281.062ZM122.64 279.771C123.378 279.771 123.959 279.42 124.383 278.718C124.811 278.011 125.025 277.043 125.025 275.812C125.025 274.577 124.811 273.607 124.383 272.9C123.959 272.194 123.378 271.841 122.64 271.841C121.897 271.841 121.311 272.194 120.883 272.9C120.459 273.607 120.247 274.577 120.247 275.812C120.247 277.043 120.459 278.011 120.883 278.718C121.311 279.42 121.897 279.771 122.64 279.771ZM131.301 281.062C130.549 281.062 129.897 280.914 129.346 280.618C128.799 280.322 128.375 279.916 128.074 279.401C127.773 278.886 127.623 278.301 127.623 277.645H129.12C129.12 278.324 129.309 278.852 129.688 279.23C130.07 279.609 130.599 279.798 131.273 279.798C131.921 279.798 132.445 279.634 132.846 279.306C133.251 278.978 133.454 278.538 133.454 277.986C133.454 277.48 133.238 277.075 132.805 276.77C132.376 276.46 131.811 276.305 131.109 276.305H130.262V275.067H131.109C131.729 275.067 132.228 274.926 132.606 274.644C132.989 274.361 133.181 273.985 133.181 273.516C133.181 272.987 133.003 272.57 132.647 272.265C132.292 271.959 131.823 271.807 131.239 271.807C130.638 271.807 130.161 271.975 129.811 272.312C129.464 272.65 129.291 273.115 129.291 273.707H127.835C127.835 273.092 127.979 272.547 128.266 272.073C128.553 271.595 128.951 271.221 129.462 270.952C129.972 270.683 130.567 270.549 131.246 270.549C131.893 270.549 132.472 270.672 132.982 270.918C133.493 271.16 133.894 271.497 134.186 271.93C134.482 272.358 134.63 272.848 134.63 273.399C134.63 273.937 134.461 274.404 134.124 274.801C133.787 275.193 133.333 275.466 132.764 275.621V275.642C133.434 275.746 133.965 276.02 134.356 276.462C134.748 276.904 134.944 277.426 134.944 278.027C134.944 278.62 134.787 279.144 134.473 279.6C134.158 280.055 133.725 280.413 133.174 280.673C132.627 280.933 132.003 281.062 131.301 281.062Z" fill="#333333"/>
<path d="M200.93 280.898V270.713H204.806C205.895 270.713 206.758 270.998 207.396 271.567C208.035 272.137 208.354 272.91 208.354 273.885C208.354 274.596 208.171 275.202 207.807 275.703C207.442 276.2 206.943 276.562 206.31 276.79L208.511 280.898H206.802L204.771 277.043C204.749 277.043 204.726 277.043 204.703 277.043H202.447V280.898H200.93ZM202.447 275.751H204.744C205.4 275.751 205.915 275.585 206.289 275.252C206.667 274.915 206.856 274.459 206.856 273.885C206.856 273.311 206.667 272.857 206.289 272.524C205.911 272.192 205.394 272.025 204.737 272.025H202.447V275.751ZM212.558 281.062C211.869 281.062 211.266 280.903 210.746 280.584C210.227 280.265 209.821 279.823 209.529 279.258C209.242 278.693 209.099 278.041 209.099 277.303C209.099 276.555 209.242 275.899 209.529 275.334C209.821 274.764 210.227 274.32 210.746 274.001C211.266 273.677 211.869 273.516 212.558 273.516C213.246 273.516 213.847 273.677 214.362 274.001C214.882 274.32 215.285 274.764 215.572 275.334C215.864 275.899 216.01 276.555 216.01 277.303C216.01 278.041 215.864 278.693 215.572 279.258C215.285 279.823 214.882 280.265 214.362 280.584C213.847 280.903 213.246 281.062 212.558 281.062ZM212.558 279.818C213.177 279.818 213.665 279.59 214.021 279.135C214.376 278.679 214.554 278.068 214.554 277.303C214.554 276.528 214.374 275.91 214.014 275.45C213.658 274.99 213.173 274.76 212.558 274.76C211.942 274.76 211.455 274.99 211.095 275.45C210.739 275.906 210.562 276.523 210.562 277.303C210.562 278.073 210.739 278.686 211.095 279.142C211.45 279.593 211.938 279.818 212.558 279.818ZM219.961 281.069C219.41 281.069 218.913 280.98 218.471 280.803C218.029 280.625 217.671 280.361 217.397 280.01C217.129 279.659 216.978 279.224 216.946 278.704H218.368C218.45 279.515 218.972 279.921 219.934 279.921C220.389 279.921 220.749 279.827 221.014 279.641C221.283 279.454 221.417 279.217 221.417 278.93C221.417 278.684 221.321 278.488 221.13 278.342C220.938 278.191 220.688 278.082 220.378 278.014L219.182 277.747C217.801 277.446 217.11 276.758 217.11 275.683C217.11 275.045 217.363 274.525 217.869 274.124C218.38 273.723 219.047 273.522 219.872 273.522C220.688 273.522 221.358 273.734 221.882 274.158C222.41 274.577 222.684 275.152 222.702 275.881H221.321C221.317 275.53 221.185 275.241 220.925 275.013C220.665 274.78 220.321 274.664 219.893 274.664C219.482 274.664 219.157 274.76 218.915 274.951C218.674 275.143 218.553 275.377 218.553 275.655C218.553 275.901 218.644 276.1 218.826 276.25C219.013 276.4 219.268 276.512 219.592 276.585L220.822 276.858C221.524 277.013 222.041 277.253 222.374 277.576C222.707 277.9 222.873 278.324 222.873 278.848C222.873 279.308 222.745 279.704 222.49 280.037C222.24 280.365 221.896 280.62 221.458 280.803C221.021 280.98 220.521 281.069 219.961 281.069ZM224.151 280.898V273.68H225.594V280.898H224.151ZM224.869 272.436C224.614 272.436 224.397 272.351 224.22 272.183C224.047 272.009 223.96 271.8 223.96 271.554C223.96 271.303 224.047 271.093 224.22 270.925C224.397 270.752 224.614 270.665 224.869 270.665C225.124 270.665 225.341 270.752 225.519 270.925C225.696 271.093 225.785 271.303 225.785 271.554C225.785 271.8 225.696 272.009 225.519 272.183C225.341 272.351 225.124 272.436 224.869 272.436Z" fill="#333333"/>
<path d="M300.369 278.526V277.31L305.113 270.713H306.973V277.255H308.456V278.526H306.973V280.898H305.53V278.526H300.369ZM305.53 277.255V272.306H305.517L301.976 277.241V277.255H305.53ZM314.615 270.713V280.898H313.098V270.713H314.615ZM319.906 273.68V274.869H318.443V278.991C318.443 279.26 318.498 279.447 318.607 279.552C318.717 279.657 318.915 279.709 319.202 279.709H319.906V280.898H318.997C317.662 280.898 316.994 280.324 316.994 279.176V274.869H315.723V273.68H316.994V271.711H318.443V273.68H319.906ZM324.008 281.062C323.292 281.062 322.677 280.901 322.162 280.577C321.652 280.254 321.257 279.809 320.979 279.244C320.706 278.674 320.569 278.027 320.569 277.303C320.569 276.569 320.713 275.917 321 275.348C321.287 274.778 321.684 274.331 322.189 274.008C322.695 273.68 323.276 273.516 323.933 273.516C324.616 273.516 325.209 273.675 325.71 273.994C326.216 274.313 326.608 274.757 326.886 275.327C327.164 275.892 327.303 276.546 327.303 277.289V277.679H321.991C322.019 278.33 322.205 278.857 322.552 279.258C322.903 279.659 323.395 279.859 324.028 279.859C324.502 279.859 324.892 279.752 325.197 279.538C325.503 279.324 325.705 279.046 325.806 278.704H327.193C327.107 279.169 326.913 279.579 326.612 279.935C326.316 280.29 325.942 280.568 325.491 280.769C325.045 280.965 324.55 281.062 324.008 281.062ZM322.005 276.585H325.895C325.835 276.011 325.632 275.557 325.286 275.225C324.94 274.887 324.493 274.719 323.946 274.719C323.399 274.719 322.953 274.887 322.606 275.225C322.265 275.557 322.064 276.011 322.005 276.585ZM328.554 280.898V273.68H329.955V274.89C330.178 274.443 330.481 274.106 330.864 273.878C331.247 273.65 331.662 273.536 332.108 273.536C332.601 273.536 333.031 273.661 333.4 273.912C333.774 274.163 334.036 274.482 334.187 274.869C334.382 274.477 334.679 274.158 335.075 273.912C335.476 273.661 335.943 273.536 336.477 273.536C336.923 273.536 337.329 273.634 337.693 273.83C338.058 274.026 338.347 274.318 338.562 274.705C338.776 275.088 338.883 275.569 338.883 276.147V280.898H337.434V276.271C337.434 275.756 337.29 275.382 337.003 275.149C336.716 274.917 336.376 274.801 335.984 274.801C335.501 274.801 335.121 274.951 334.843 275.252C334.565 275.548 334.426 275.926 334.426 276.387V280.898H333.004V276.175C333.004 275.76 332.869 275.427 332.601 275.177C332.336 274.926 331.999 274.801 331.589 274.801C331.17 274.801 330.798 274.949 330.475 275.245C330.156 275.541 329.996 275.974 329.996 276.544V280.898H328.554ZM343.189 281.069C342.638 281.069 342.141 280.98 341.699 280.803C341.257 280.625 340.899 280.361 340.626 280.01C340.357 279.659 340.207 279.224 340.175 278.704H341.597C341.679 279.515 342.201 279.921 343.162 279.921C343.618 279.921 343.978 279.827 344.242 279.641C344.511 279.454 344.646 279.217 344.646 278.93C344.646 278.684 344.55 278.488 344.358 278.342C344.167 278.191 343.916 278.082 343.606 278.014L342.41 277.747C341.029 277.446 340.339 276.758 340.339 275.683C340.339 275.045 340.592 274.525 341.098 274.124C341.608 273.723 342.276 273.522 343.101 273.522C343.916 273.522 344.586 273.734 345.11 274.158C345.639 274.577 345.912 275.152 345.931 275.881H344.55C344.545 275.53 344.413 275.241 344.153 275.013C343.894 274.78 343.549 274.664 343.121 274.664C342.711 274.664 342.385 274.76 342.144 274.951C341.902 275.143 341.781 275.377 341.781 275.655C341.781 275.901 341.872 276.1 342.055 276.25C342.242 276.4 342.497 276.512 342.82 276.585L344.051 276.858C344.753 277.013 345.27 277.253 345.603 277.576C345.935 277.9 346.102 278.324 346.102 278.848C346.102 279.308 345.974 279.704 345.719 280.037C345.468 280.365 345.124 280.62 344.687 280.803C344.249 280.98 343.75 281.069 343.189 281.069Z" fill="#333333"/>
<rect x="397" y="262.898" width="103" height="25" rx="12.5" fill="#FFEDD5"/>
<g clipPath="url(#clip5_2200_984)">
<path d="M415 270.898V272.398" stroke="#EA580C" stroke-width="1.5" stroke-linecap="round" stroke-linejoin="round"/>
<path d="M418.182 272.217L417.121 273.278" stroke="#EA580C" stroke-width="1.5" stroke-linecap="round" stroke-linejoin="round"/>
<path d="M419.5 275.398H418" stroke="#EA580C" stroke-width="1.5" stroke-linecap="round" stroke-linejoin="round"/>
<path d="M418.182 278.58L417.121 277.52" stroke="#EA580C" stroke-width="1.5" stroke-linecap="round" stroke-linejoin="round"/>
<path d="M415 279.898V278.398" stroke="#EA580C" stroke-width="1.5" stroke-linecap="round" stroke-linejoin="round"/>
<path d="M411.818 278.58L412.879 277.52" stroke="#EA580C" stroke-width="1.5" stroke-linecap="round" stroke-linejoin="round"/>
<path d="M410.5 275.398H412" stroke="#EA580C" stroke-width="1.5" stroke-linecap="round" stroke-linejoin="round"/>
<path d="M411.818 272.217L412.879 273.278" stroke="#EA580C" stroke-width="1.5" stroke-linecap="round" stroke-linejoin="round"/>
</g>
<path d="M428.787 280.898V270.713H432.561C433.65 270.713 434.513 270.998 435.151 271.567C435.789 272.137 436.108 272.91 436.108 273.885C436.108 274.536 435.96 275.102 435.664 275.58C435.368 276.054 434.951 276.421 434.413 276.681C433.875 276.936 433.242 277.063 432.513 277.063H430.305V280.898H428.787ZM430.305 275.751H432.485C433.142 275.751 433.659 275.585 434.037 275.252C434.42 274.915 434.611 274.459 434.611 273.885C434.611 273.311 434.42 272.859 434.037 272.531C433.659 272.199 433.142 272.032 432.485 272.032H430.305V275.751ZM437.216 280.898V273.68H438.597V274.849H438.624C438.756 274.452 438.964 274.145 439.246 273.926C439.533 273.702 439.907 273.591 440.367 273.591C440.477 273.591 440.577 273.595 440.668 273.604C440.759 273.614 440.834 273.62 440.894 273.625V274.972C440.839 274.958 440.741 274.944 440.6 274.931C440.458 274.912 440.303 274.903 440.135 274.903C439.729 274.903 439.381 275.045 439.089 275.327C438.802 275.61 438.658 276.045 438.658 276.633V280.898H437.216ZM444.947 281.062C444.232 281.062 443.617 280.901 443.102 280.577C442.591 280.254 442.197 279.809 441.919 279.244C441.646 278.674 441.509 278.027 441.509 277.303C441.509 276.569 441.652 275.917 441.939 275.348C442.227 274.778 442.623 274.331 443.129 274.008C443.635 273.68 444.216 273.516 444.872 273.516C445.556 273.516 446.148 273.675 446.649 273.994C447.155 274.313 447.547 274.757 447.825 275.327C448.103 275.892 448.242 276.546 448.242 277.289V277.679H442.931C442.958 278.33 443.145 278.857 443.491 279.258C443.842 279.659 444.334 279.859 444.968 279.859C445.442 279.859 445.831 279.752 446.137 279.538C446.442 279.324 446.645 279.046 446.745 278.704H448.133C448.046 279.169 447.853 279.579 447.552 279.935C447.256 280.29 446.882 280.568 446.431 280.769C445.984 280.965 445.49 281.062 444.947 281.062ZM442.944 276.585H446.834C446.775 276.011 446.572 275.557 446.226 275.225C445.879 274.887 445.433 274.719 444.886 274.719C444.339 274.719 443.892 274.887 443.546 275.225C443.204 275.557 443.004 276.011 442.944 276.585ZM449.493 283.756V273.68H450.908V274.719H450.929C451.157 274.322 451.469 274.026 451.865 273.83C452.262 273.634 452.695 273.536 453.164 273.536C453.784 273.536 454.328 273.696 454.798 274.015C455.267 274.329 455.632 274.769 455.892 275.334C456.156 275.895 456.288 276.546 456.288 277.289C456.288 278.032 456.158 278.686 455.898 279.251C455.639 279.812 455.274 280.251 454.805 280.57C454.335 280.885 453.786 281.042 453.157 281.042C452.688 281.042 452.264 280.939 451.886 280.734C451.507 280.529 451.198 280.222 450.956 279.812H450.936V283.756H449.493ZM452.863 279.798C453.447 279.798 453.918 279.584 454.278 279.155C454.643 278.727 454.825 278.105 454.825 277.289C454.825 276.473 454.643 275.851 454.278 275.423C453.918 274.99 453.447 274.773 452.863 274.773C452.248 274.773 451.756 275.004 451.387 275.464C451.022 275.92 450.84 276.528 450.84 277.289C450.84 278.046 451.022 278.654 451.387 279.114C451.756 279.57 452.248 279.798 452.863 279.798ZM459.843 281.015C459.123 281.015 458.526 280.832 458.052 280.468C457.578 280.099 457.341 279.554 457.341 278.834C457.341 278.287 457.475 277.868 457.744 277.576C458.018 277.28 458.371 277.068 458.804 276.94C459.241 276.813 459.704 276.719 460.191 276.66C460.643 276.605 461 276.56 461.265 276.523C461.529 276.487 461.716 276.432 461.825 276.359C461.939 276.286 461.996 276.161 461.996 275.983V275.922C461.996 275.571 461.868 275.284 461.613 275.061C461.358 274.833 461 274.719 460.54 274.719C460.08 274.719 459.704 274.83 459.412 275.054C459.12 275.272 458.961 275.548 458.934 275.881H457.519C457.55 275.193 457.84 274.63 458.387 274.192C458.934 273.755 459.658 273.536 460.561 273.536C461.449 273.536 462.149 273.755 462.659 274.192C463.17 274.63 463.425 275.215 463.425 275.949V280.898H462.003V279.873H461.976C461.825 280.165 461.586 280.429 461.258 280.666C460.934 280.898 460.463 281.015 459.843 281.015ZM460.137 279.853C460.775 279.853 461.244 279.688 461.545 279.36C461.85 279.028 462.003 278.64 462.003 278.198V277.351C461.907 277.428 461.691 277.499 461.354 277.562C461.016 277.622 460.656 277.679 460.273 277.733C459.877 277.793 459.528 277.904 459.228 278.068C458.927 278.232 458.776 278.497 458.776 278.861C458.776 279.171 458.897 279.415 459.139 279.593C459.385 279.766 459.717 279.853 460.137 279.853ZM465.052 280.898V273.68H466.433V274.849H466.46C466.592 274.452 466.799 274.145 467.082 273.926C467.369 273.702 467.743 273.591 468.203 273.591C468.312 273.591 468.413 273.595 468.504 273.604C468.595 273.614 468.67 273.62 468.729 273.625V274.972C468.675 274.958 468.577 274.944 468.436 274.931C468.294 274.912 468.139 274.903 467.971 274.903C467.565 274.903 467.216 275.045 466.925 275.327C466.638 275.61 466.494 276.045 466.494 276.633V280.898H465.052ZM469.837 280.898V273.68H471.279V280.898H469.837ZM470.555 272.436C470.299 272.436 470.083 272.351 469.905 272.183C469.732 272.009 469.646 271.8 469.646 271.554C469.646 271.303 469.732 271.093 469.905 270.925C470.083 270.752 470.299 270.665 470.555 270.665C470.81 270.665 471.026 270.752 471.204 270.925C471.382 271.093 471.471 271.303 471.471 271.554C471.471 271.8 471.382 272.009 471.204 272.183C471.026 272.351 470.81 272.436 470.555 272.436ZM474.355 276.742V280.898H472.913V273.68H474.328V274.767C474.82 273.946 475.547 273.536 476.509 273.536C477.006 273.536 477.45 273.646 477.842 273.864C478.238 274.078 478.55 274.397 478.778 274.821C479.006 275.245 479.12 275.771 479.12 276.4V280.898H477.678V276.578C477.678 275.999 477.539 275.564 477.261 275.272C476.983 274.976 476.595 274.828 476.099 274.828C475.606 274.828 475.192 274.981 474.854 275.286C474.522 275.587 474.355 276.072 474.355 276.742ZM483.898 283.852C483.014 283.852 482.292 283.656 481.731 283.264C481.171 282.872 480.843 282.323 480.747 281.616H482.189C482.281 281.967 482.479 282.231 482.784 282.409C483.09 282.587 483.461 282.676 483.898 282.676C484.482 282.676 484.938 282.519 485.266 282.204C485.594 281.89 485.758 281.441 485.758 280.857V279.764H485.751C485.5 280.183 485.184 280.493 484.801 280.693C484.423 280.894 483.996 280.994 483.522 280.994C482.894 280.994 482.344 280.837 481.875 280.522C481.406 280.203 481.041 279.766 480.781 279.21C480.521 278.649 480.392 278.002 480.392 277.269C480.392 276.535 480.521 275.888 480.781 275.327C481.046 274.767 481.412 274.329 481.882 274.015C482.351 273.696 482.896 273.536 483.516 273.536C483.985 273.536 484.416 273.636 484.808 273.837C485.2 274.037 485.516 274.352 485.758 274.78H485.765V273.68H487.187V280.803C487.187 281.532 487.038 282.12 486.742 282.566C486.446 283.013 486.049 283.339 485.553 283.544C485.056 283.749 484.505 283.852 483.898 283.852ZM483.816 279.757C484.432 279.757 484.922 279.531 485.286 279.08C485.655 278.624 485.84 278.018 485.84 277.262C485.84 276.505 485.655 275.901 485.286 275.45C484.922 274.994 484.432 274.767 483.816 274.767C483.233 274.767 482.759 274.981 482.395 275.409C482.035 275.833 481.854 276.451 481.854 277.262C481.854 278.073 482.035 278.693 482.395 279.121C482.759 279.545 483.233 279.757 483.816 279.757Z" fill="#EA580C"/>
</g>
<rect x="30" y="50.8984" width="490" height="249" rx="12" stroke="#E5E5E5"/>
</g>
<defs>
<filter id="filter0_d_2200_984" x="9.5" y="30.3984" width="531" height="290" filterUnits="userSpaceOnUse" color-interpolation-filters="sRGB">
<feFlood flood-opacity="0" result="BackgroundImageFix"/>
<feColorMatrix in="SourceAlpha" type="matrix" values="0 0 0 0 0 0 0 0 0 0 0 0 0 0 0 0 0 0 127 0" result="hardAlpha"/>
<feOffset/>
<feGaussianBlur stdDeviation="10"/>
<feComposite in2="hardAlpha" operator="out"/>
<feColorMatrix type="matrix" values="0 0 0 0 0 0 0 0 0 0 0 0 0 0 0 0 0 0 0.04 0"/>
<feBlend mode="normal" in2="BackgroundImageFix" result="effect1_dropShadow_2200_984"/>
<feBlend mode="normal" in="SourceGraphic" in2="effect1_dropShadow_2200_984" result="shape"/>
</filter>
<clipPath id="clip0_2200_984">
<rect x="30" y="50.8984" width="490" height="249" rx="12" fill="white"/>
</clipPath>
<clipPath id="clip1_2200_984">
<rect width="16" height="16" fill="white" transform="translate(472 69.3984)"/>
</clipPath>
<clipPath id="clip2_2200_984">
<rect width="12" height="12" fill="white" transform="translate(401 122.398)"/>
</clipPath>
<clipPath id="clip3_2200_984">
<rect width="12" height="12" fill="white" transform="translate(401 171.398)"/>
</clipPath>
<clipPath id="clip4_2200_984">
<rect width="12" height="12" fill="white" transform="translate(409 220.398)"/>
</clipPath>
<clipPath id="clip5_2200_984">
<rect width="12" height="12" fill="white" transform="translate(409 269.398)"/>
</clipPath>
</defs>
</svg>
