<svg width="64" height="64" viewBox="0 0 64 64" fill="none" xmlns="http://www.w3.org/2000/svg">
<path d="M0 12C0 5.37258 5.37258 0 12 0H52C58.6274 0 64 5.37258 64 12V52C64 58.6274 58.6274 64 52 64H12C5.37258 64 0 58.6274 0 52V12Z" fill="white"/>
<path d="M32.0355 12.3984C20.952 12.3984 12 21.3505 12 32.3629C12 43.3753 20.952 52.3984 32.0355 52.3984C43.119 52.3984 52.071 43.4464 52.071 32.3629C52.071 21.2794 43.119 12.3984 32.0355 12.3984ZM32.0355 49.4855C22.5861 49.4855 14.913 41.8123 14.913 32.3629C14.913 22.9135 22.5861 15.3114 32.0355 15.3114C41.4849 15.3114 49.1581 22.9846 49.1581 32.434C49.1581 41.8123 41.4849 49.4855 32.0355 49.4855Z" fill="#333333"/>
<path d="M32.0355 17.8672C24.0071 17.8672 17.4707 24.3326 17.4707 32.361C17.4707 40.3894 24.0071 46.9258 32.0355 46.9258C40.064 46.9258 46.6004 40.3894 46.6004 32.361C46.6004 24.3326 40.064 17.8672 32.0355 17.8672ZM32.0355 43.7286C25.7833 43.7286 20.6679 38.6132 20.6679 32.361C20.6679 26.1088 25.7833 20.9933 32.0355 20.9933C38.2878 20.9933 43.4032 26.1088 43.4032 32.361C43.4032 38.6842 38.2878 43.7286 32.0355 43.7286Z" fill="#333333"/>
</svg>
