<svg width="550" height="450" viewBox="0 0 550 450" fill="none" xmlns="http://www.w3.org/2000/svg">
<rect width="550" height="450" rx="16" fill="#F4F2F0"/>
<g filter="url(#filter0_d_2201_120)">
<g clipPath="url(#clip0_2201_120)">
<rect x="73" y="69" width="403" height="312" rx="12" fill="white"/>
<path d="M93.3281 87.6475V86.3145H101.333V87.6475H98.0996V96.5H96.5752V87.6475H93.3281ZM103.917 96.6641C103.229 96.6641 102.625 96.5046 102.105 96.1855C101.586 95.8665 101.18 95.4245 100.889 94.8594C100.602 94.2943 100.458 93.6426 100.458 92.9043C100.458 92.1569 100.602 91.5007 100.889 90.9355C101.18 90.3659 101.586 89.9215 102.105 89.6025C102.625 89.279 103.229 89.1172 103.917 89.1172C104.605 89.1172 105.207 89.279 105.722 89.6025C106.241 89.9215 106.645 90.3659 106.932 90.9355C107.223 91.5007 107.369 92.1569 107.369 92.9043C107.369 93.6426 107.223 94.2943 106.932 94.8594C106.645 95.4245 106.241 95.8665 105.722 96.1855C105.207 96.5046 104.605 96.6641 103.917 96.6641ZM103.917 95.4199C104.537 95.4199 105.024 95.1921 105.38 94.7363C105.735 94.2806 105.913 93.6699 105.913 92.9043C105.913 92.1296 105.733 91.512 105.373 91.0518C105.018 90.5915 104.532 90.3613 103.917 90.3613C103.302 90.3613 102.814 90.5915 102.454 91.0518C102.099 91.5075 101.921 92.125 101.921 92.9043C101.921 93.6745 102.099 94.2874 102.454 94.7432C102.81 95.1943 103.297 95.4199 103.917 95.4199ZM111.423 96.6436C110.794 96.6436 110.245 96.4863 109.775 96.1719C109.306 95.8529 108.941 95.4131 108.682 94.8525C108.422 94.2874 108.292 93.6335 108.292 92.8906C108.292 92.1478 108.422 91.4961 108.682 90.9355C108.946 90.3704 109.313 89.9307 109.782 89.6162C110.252 89.2972 110.796 89.1377 111.416 89.1377C111.885 89.1377 112.314 89.2357 112.701 89.4316C113.089 89.6276 113.398 89.9261 113.631 90.3271H113.645V86.3145H115.087V96.5H113.672V95.3994H113.658C113.417 95.8187 113.1 96.1309 112.708 96.3359C112.321 96.541 111.892 96.6436 111.423 96.6436ZM111.717 95.3994C112.332 95.3994 112.822 95.1715 113.187 94.7158C113.556 94.2555 113.74 93.6471 113.74 92.8906C113.74 92.1296 113.556 91.5212 113.187 91.0654C112.822 90.6051 112.332 90.375 111.717 90.375C111.133 90.375 110.66 90.5915 110.295 91.0244C109.935 91.4528 109.755 92.0749 109.755 92.8906C109.755 93.7064 109.935 94.3285 110.295 94.7568C110.66 95.1852 111.133 95.3994 111.717 95.3994ZM118.915 96.6162C118.195 96.6162 117.598 96.4339 117.124 96.0693C116.65 95.7002 116.413 95.1556 116.413 94.4355C116.413 93.8887 116.548 93.4694 116.816 93.1777C117.09 92.8815 117.443 92.6696 117.876 92.542C118.313 92.4144 118.776 92.321 119.264 92.2617C119.715 92.207 120.073 92.1615 120.337 92.125C120.601 92.0885 120.788 92.0339 120.897 91.9609C121.011 91.888 121.068 91.7627 121.068 91.585V91.5234C121.068 91.1725 120.941 90.8854 120.686 90.6621C120.43 90.4342 120.073 90.3203 119.612 90.3203C119.152 90.3203 118.776 90.432 118.484 90.6553C118.193 90.874 118.033 91.1497 118.006 91.4824H116.591C116.623 90.7943 116.912 90.2314 117.459 89.7939C118.006 89.3564 118.73 89.1377 119.633 89.1377C120.521 89.1377 121.221 89.3564 121.731 89.7939C122.242 90.2314 122.497 90.8171 122.497 91.5508V96.5H121.075V95.4746H121.048C120.897 95.7663 120.658 96.0306 120.33 96.2676C120.007 96.5 119.535 96.6162 118.915 96.6162ZM119.209 95.4541C119.847 95.4541 120.316 95.29 120.617 94.9619C120.923 94.6292 121.075 94.2419 121.075 93.7998V92.9521C120.979 93.0296 120.763 93.1003 120.426 93.1641C120.089 93.2233 119.729 93.2803 119.346 93.335C118.949 93.3942 118.601 93.5059 118.3 93.6699C117.999 93.834 117.849 94.0983 117.849 94.4629C117.849 94.7728 117.969 95.0166 118.211 95.1943C118.457 95.3675 118.79 95.4541 119.209 95.4541ZM123.892 99.3574V98.1406H124.671C124.899 98.1406 125.083 98.0745 125.225 97.9424C125.37 97.8148 125.498 97.6029 125.607 97.3066L125.936 96.4521L123.146 89.2812H124.691L126.134 93.2393C126.229 93.5081 126.323 93.7793 126.414 94.0527C126.505 94.3216 126.594 94.5905 126.681 94.8594C126.767 94.5905 126.856 94.3216 126.947 94.0527C127.043 93.7793 127.139 93.5081 127.234 93.2393L128.656 89.2812H130.181L126.899 97.7646C126.494 98.8265 125.797 99.3574 124.808 99.3574H123.892ZM131.637 89.9033L131.479 86.3145H132.86L132.703 89.9033H131.637ZM137.023 96.6709C136.472 96.6709 135.975 96.582 135.533 96.4043C135.091 96.2266 134.733 95.9622 134.46 95.6113C134.191 95.2604 134.041 94.8252 134.009 94.3057H135.431C135.513 95.1169 136.035 95.5225 136.996 95.5225C137.452 95.5225 137.812 95.429 138.076 95.2422C138.345 95.0553 138.479 94.8184 138.479 94.5312C138.479 94.2852 138.384 94.0892 138.192 93.9434C138.001 93.793 137.75 93.6836 137.44 93.6152L136.244 93.3486C134.863 93.0479 134.173 92.3597 134.173 91.2842C134.173 90.6462 134.426 90.1266 134.932 89.7256C135.442 89.3245 136.11 89.124 136.935 89.124C137.75 89.124 138.42 89.3359 138.944 89.7598C139.473 90.179 139.746 90.7533 139.765 91.4824H138.384C138.379 91.1315 138.247 90.8421 137.987 90.6143C137.728 90.3818 137.383 90.2656 136.955 90.2656C136.545 90.2656 136.219 90.3613 135.978 90.5527C135.736 90.7441 135.615 90.9788 135.615 91.2568C135.615 91.5029 135.706 91.7012 135.889 91.8516C136.076 92.002 136.331 92.1136 136.654 92.1865L137.885 92.46C138.587 92.6149 139.104 92.8542 139.437 93.1777C139.769 93.5013 139.936 93.9251 139.936 94.4492C139.936 94.9095 139.808 95.306 139.553 95.6387C139.302 95.9668 138.958 96.222 138.521 96.4043C138.083 96.582 137.584 96.6709 137.023 96.6709ZM144.666 96.5V86.3145H148.542C149.631 86.3145 150.495 86.5993 151.133 87.1689C151.771 87.7386 152.09 88.5111 152.09 89.4863C152.09 90.1973 151.908 90.8034 151.543 91.3047C151.178 91.8014 150.679 92.1637 150.046 92.3916L152.247 96.5H150.538L148.508 92.6445C148.485 92.6445 148.462 92.6445 148.439 92.6445H146.184V96.5H144.666ZM146.184 91.3525H148.48C149.137 91.3525 149.652 91.1862 150.025 90.8535C150.404 90.5163 150.593 90.0605 150.593 89.4863C150.593 88.9121 150.404 88.4587 150.025 88.126C149.647 87.7933 149.13 87.627 148.474 87.627H146.184V91.3525ZM156.273 96.6641C155.558 96.6641 154.943 96.5023 154.428 96.1787C153.917 95.8551 153.523 95.4108 153.245 94.8457C152.972 94.276 152.835 93.6289 152.835 92.9043C152.835 92.1706 152.979 91.5189 153.266 90.9492C153.553 90.3796 153.949 89.9329 154.455 89.6094C154.961 89.2812 155.542 89.1172 156.198 89.1172C156.882 89.1172 157.474 89.2767 157.976 89.5957C158.481 89.9147 158.873 90.359 159.151 90.9287C159.429 91.4938 159.568 92.1478 159.568 92.8906V93.2803H154.257C154.284 93.932 154.471 94.4583 154.817 94.8594C155.168 95.2604 155.66 95.4609 156.294 95.4609C156.768 95.4609 157.158 95.3538 157.463 95.1396C157.768 94.9255 157.971 94.6475 158.071 94.3057H159.459C159.372 94.7705 159.179 95.1807 158.878 95.5361C158.582 95.8916 158.208 96.1696 157.757 96.3701C157.31 96.5661 156.816 96.6641 156.273 96.6641ZM154.271 92.1865H158.16C158.101 91.6123 157.898 91.1589 157.552 90.8262C157.205 90.4889 156.759 90.3203 156.212 90.3203C155.665 90.3203 155.218 90.4889 154.872 90.8262C154.53 91.1589 154.33 91.6123 154.271 92.1865ZM162.645 96.5L159.896 89.2812H161.441L162.877 93.2393C162.977 93.5218 163.073 93.8044 163.164 94.0869C163.255 94.3695 163.346 94.6497 163.438 94.9277C163.529 94.6497 163.62 94.3695 163.711 94.0869C163.802 93.8044 163.896 93.5218 163.991 93.2393L165.406 89.2812H166.931L164.176 96.5H162.645ZM170.725 96.6641C170.009 96.6641 169.394 96.5023 168.879 96.1787C168.368 95.8551 167.974 95.4108 167.696 94.8457C167.423 94.276 167.286 93.6289 167.286 92.9043C167.286 92.1706 167.43 91.5189 167.717 90.9492C168.004 90.3796 168.4 89.9329 168.906 89.6094C169.412 89.2812 169.993 89.1172 170.649 89.1172C171.333 89.1172 171.925 89.2767 172.427 89.5957C172.933 89.9147 173.325 90.359 173.603 90.9287C173.881 91.4938 174.02 92.1478 174.02 92.8906V93.2803H168.708C168.735 93.932 168.922 94.4583 169.269 94.8594C169.619 95.2604 170.112 95.4609 170.745 95.4609C171.219 95.4609 171.609 95.3538 171.914 95.1396C172.219 94.9255 172.422 94.6475 172.522 94.3057H173.91C173.824 94.7705 173.63 95.1807 173.329 95.5361C173.033 95.8916 172.659 96.1696 172.208 96.3701C171.761 96.5661 171.267 96.6641 170.725 96.6641ZM168.722 92.1865H172.611C172.552 91.6123 172.349 91.1589 172.003 90.8262C171.657 90.4889 171.21 90.3203 170.663 90.3203C170.116 90.3203 169.67 90.4889 169.323 90.8262C168.981 91.1589 168.781 91.6123 168.722 92.1865ZM176.713 92.3438V96.5H175.271V89.2812H176.686V90.3682C177.178 89.5479 177.905 89.1377 178.866 89.1377C179.363 89.1377 179.807 89.2471 180.199 89.4658C180.596 89.68 180.908 89.999 181.136 90.4229C181.364 90.8467 181.478 91.373 181.478 92.002V96.5H180.035V92.1797C180.035 91.6009 179.896 91.1657 179.618 90.874C179.34 90.5778 178.953 90.4297 178.456 90.4297C177.964 90.4297 177.549 90.5824 177.212 90.8877C176.879 91.1885 176.713 91.6738 176.713 92.3438ZM185.716 96.6436C185.224 96.6436 184.779 96.5365 184.383 96.3223C183.991 96.1035 183.679 95.7822 183.446 95.3584C183.218 94.9346 183.104 94.4082 183.104 93.7793V89.2812H184.547V93.6016C184.547 94.1803 184.686 94.6178 184.964 94.9141C185.242 95.2057 185.632 95.3516 186.133 95.3516C186.62 95.3516 187.031 95.2012 187.363 94.9004C187.701 94.5951 187.869 94.1074 187.869 93.4375V89.2812H189.312V96.5H187.896V95.4131C187.404 96.2334 186.677 96.6436 185.716 96.6436ZM194.021 96.6641C193.306 96.6641 192.691 96.5023 192.176 96.1787C191.665 95.8551 191.271 95.4108 190.993 94.8457C190.72 94.276 190.583 93.6289 190.583 92.9043C190.583 92.1706 190.727 91.5189 191.014 90.9492C191.301 90.3796 191.697 89.9329 192.203 89.6094C192.709 89.2812 193.29 89.1172 193.946 89.1172C194.63 89.1172 195.222 89.2767 195.724 89.5957C196.229 89.9147 196.621 90.359 196.899 90.9287C197.177 91.4938 197.316 92.1478 197.316 92.8906V93.2803H192.005C192.032 93.932 192.219 94.4583 192.565 94.8594C192.916 95.2604 193.409 95.4609 194.042 95.4609C194.516 95.4609 194.906 95.3538 195.211 95.1396C195.516 94.9255 195.719 94.6475 195.819 94.3057H197.207C197.12 94.7705 196.927 95.1807 196.626 95.5361C196.33 95.8916 195.956 96.1696 195.505 96.3701C195.058 96.5661 194.564 96.6641 194.021 96.6641ZM192.019 92.1865H195.908C195.849 91.6123 195.646 91.1589 195.3 90.8262C194.953 90.4889 194.507 90.3203 193.96 90.3203C193.413 90.3203 192.966 90.4889 192.62 90.8262C192.278 91.1589 192.078 91.6123 192.019 92.1865Z" fill="black"/>
<rect x="428" y="77" width="28" height="28" rx="6" fill="#E5E5E5"/>
<g clipPath="url(#clip1_2201_120)">
<path d="M447.499 91.135C447.502 91.045 447.502 90.955 447.499 90.865L448.432 89.7C448.48 89.6389 448.514 89.5671 448.53 89.4904C448.546 89.4138 448.544 89.3344 448.524 89.2588C448.371 88.6842 448.142 88.1326 447.844 87.6182C447.805 87.5509 447.751 87.4936 447.686 87.451C447.621 87.4083 447.546 87.3815 447.469 87.3725L445.987 87.2075C445.925 87.1425 445.862 87.08 445.799 87.02L445.624 85.5338C445.615 85.4564 445.588 85.3822 445.545 85.3171C445.503 85.252 445.445 85.1978 445.378 85.1588C444.863 84.8608 444.312 84.6326 443.737 84.48C443.662 84.4598 443.582 84.4577 443.506 84.4737C443.429 84.4898 443.357 84.5236 443.296 84.5725L442.134 85.5C442.044 85.5 441.954 85.5 441.864 85.5L440.699 84.5694C440.638 84.5205 440.566 84.4867 440.489 84.4706C440.413 84.4545 440.333 84.4567 440.258 84.4769C439.683 84.63 439.132 84.8587 438.617 85.1569C438.55 85.196 438.493 85.2502 438.45 85.3153C438.407 85.3804 438.38 85.4546 438.372 85.5319L438.207 87.0169C438.142 87.079 438.079 87.1415 438.019 87.2044L436.533 87.375C436.455 87.384 436.381 87.411 436.316 87.4537C436.251 87.4965 436.197 87.5539 436.158 87.6213C435.86 88.1358 435.631 88.6874 435.478 89.2619C435.458 89.3376 435.456 89.417 435.472 89.4936C435.489 89.5703 435.523 89.642 435.572 89.7032L436.499 90.865C436.499 90.955 436.499 91.045 436.499 91.135L435.568 92.3C435.52 92.3612 435.486 92.433 435.47 92.5096C435.454 92.5863 435.456 92.6656 435.476 92.7413C435.629 93.3158 435.858 93.8675 436.156 94.3819C436.195 94.4492 436.249 94.5065 436.314 94.5491C436.379 94.5917 436.454 94.6186 436.531 94.6275L438.013 94.7925C438.076 94.8575 438.138 94.92 438.201 94.98L438.374 96.4663C438.383 96.5436 438.41 96.6178 438.453 96.6829C438.496 96.7481 438.553 96.8023 438.62 96.8413C439.135 97.1392 439.686 97.3676 440.261 97.5207C440.337 97.5408 440.416 97.5428 440.493 97.5267C440.569 97.5105 440.641 97.4765 440.702 97.4275L441.864 96.5C441.954 96.5025 442.044 96.5025 442.134 96.5L443.299 97.4325C443.36 97.4814 443.432 97.5153 443.509 97.5313C443.585 97.5474 443.665 97.5452 443.74 97.525C444.315 97.3722 444.867 97.1435 445.381 96.845C445.448 96.806 445.505 96.7517 445.548 96.6866C445.591 96.6215 445.618 96.5473 445.627 96.47L445.792 94.9875C445.857 94.9259 445.919 94.8634 445.979 94.8L447.465 94.625C447.543 94.616 447.617 94.5891 447.682 94.5463C447.747 94.5036 447.801 94.4462 447.84 94.3788C448.138 93.8643 448.367 93.3126 448.52 92.7382C448.54 92.6625 448.542 92.5831 448.526 92.5064C448.51 92.4298 448.476 92.358 448.427 92.2969L447.499 91.135ZM441.999 93.5C441.505 93.5 441.021 93.3534 440.61 93.0787C440.199 92.804 439.879 92.4136 439.689 91.9567C439.5 91.4999 439.451 90.9973 439.547 90.5123C439.644 90.0274 439.882 89.5819 440.231 89.2323C440.581 88.8826 441.026 88.6445 441.511 88.5481C441.996 88.4516 442.499 88.5011 442.956 88.6903C443.413 88.8795 443.803 89.2 444.078 89.6111C444.352 90.0222 444.499 90.5056 444.499 91C444.499 91.6631 444.236 92.299 443.767 92.7678C443.298 93.2366 442.662 93.5 441.999 93.5Z" fill="#666666"/>
</g>
<path d="M85 113H464" stroke="#E5E5E5"/>
<path d="M85.8438 150.578V147.797L96.6875 132.719H100.938V147.672H104.328V150.578H100.938V156H97.6406V150.578H85.8438ZM97.6406 147.672V136.359H97.6094L89.5156 147.641V147.672H97.6406ZM104.922 160.547L106.219 152.562H109.594L107.281 160.547H104.922ZM112.828 156V153.25L121.203 145.781C122.089 144.979 122.828 144.26 123.422 143.625C124.016 142.979 124.458 142.344 124.75 141.719C125.052 141.094 125.203 140.391 125.203 139.609C125.203 138.286 124.807 137.24 124.016 136.469C123.224 135.688 122.146 135.297 120.781 135.297C119.302 135.297 118.151 135.755 117.328 136.672C116.505 137.589 116.094 138.833 116.094 140.406H112.859C112.859 138.812 113.182 137.411 113.828 136.203C114.484 134.995 115.401 134.052 116.578 133.375C117.766 132.688 119.161 132.344 120.766 132.344C122.266 132.344 123.594 132.646 124.75 133.25C125.906 133.844 126.812 134.677 127.469 135.75C128.135 136.812 128.469 138.047 128.469 139.453C128.469 141.005 128.042 142.406 127.188 143.656C126.333 144.896 125.068 146.266 123.391 147.766L117.547 153.016V153.047H128.594V156H112.828ZM139.266 156.328C137.714 156.328 136.328 156.021 135.109 155.406C133.901 154.781 132.932 153.927 132.203 152.844C131.484 151.75 131.094 150.505 131.031 149.109H134.422C134.526 150.359 135.026 151.391 135.922 152.203C136.828 153.005 137.948 153.406 139.281 153.406C140.688 153.406 141.823 152.932 142.688 151.984C143.562 151.036 144 149.823 144 148.344C144 146.875 143.578 145.667 142.734 144.719C141.891 143.76 140.792 143.281 139.438 143.281C138.25 143.281 137.229 143.526 136.375 144.016C135.521 144.495 134.927 145.193 134.594 146.109H131.328L132.094 132.719H146.016V135.688H135.203L134.688 142.547H134.719C136.083 141.099 137.828 140.375 139.953 140.375C141.37 140.375 142.63 140.719 143.734 141.406C144.849 142.083 145.724 143.021 146.359 144.219C147.005 145.406 147.328 146.76 147.328 148.281C147.328 149.854 146.99 151.245 146.312 152.453C145.646 153.661 144.708 154.609 143.5 155.297C142.292 155.984 140.88 156.328 139.266 156.328ZM158.609 156.375C156.807 156.375 155.25 155.885 153.938 154.906C152.635 153.927 151.63 152.542 150.922 150.75C150.214 148.948 149.859 146.823 149.859 144.375C149.859 141.917 150.214 139.786 150.922 137.984C151.63 136.182 152.635 134.792 153.938 133.812C155.25 132.833 156.807 132.344 158.609 132.344C160.401 132.344 161.948 132.833 163.25 133.812C164.562 134.792 165.573 136.182 166.281 137.984C166.99 139.786 167.344 141.917 167.344 144.375C167.344 146.823 166.99 148.948 166.281 150.75C165.573 152.542 164.562 153.927 163.25 154.906C161.948 155.885 160.401 156.375 158.609 156.375ZM158.609 153.422C160.297 153.422 161.625 152.62 162.594 151.016C163.573 149.401 164.062 147.188 164.062 144.375C164.062 141.552 163.573 139.333 162.594 137.719C161.625 136.104 160.297 135.297 158.609 135.297C156.911 135.297 155.573 136.104 154.594 137.719C153.625 139.333 153.141 141.552 153.141 144.375C153.141 147.188 153.625 149.401 154.594 151.016C155.573 152.62 156.911 153.422 158.609 153.422ZM171.391 156.266C170.786 156.266 170.271 156.057 169.844 155.641C169.427 155.214 169.219 154.693 169.219 154.078C169.219 153.474 169.427 152.958 169.844 152.531C170.271 152.104 170.786 151.891 171.391 151.891C172.005 151.891 172.521 152.104 172.938 152.531C173.365 152.958 173.578 153.474 173.578 154.078C173.578 154.693 173.365 155.214 172.938 155.641C172.521 156.057 172.005 156.266 171.391 156.266ZM184.203 156.375C182.401 156.375 180.844 155.885 179.531 154.906C178.229 153.927 177.224 152.542 176.516 150.75C175.807 148.948 175.453 146.823 175.453 144.375C175.453 141.917 175.807 139.786 176.516 137.984C177.224 136.182 178.229 134.792 179.531 133.812C180.844 132.833 182.401 132.344 184.203 132.344C185.995 132.344 187.542 132.833 188.844 133.812C190.156 134.792 191.167 136.182 191.875 137.984C192.583 139.786 192.938 141.917 192.938 144.375C192.938 146.823 192.583 148.948 191.875 150.75C191.167 152.542 190.156 153.927 188.844 154.906C187.542 155.885 185.995 156.375 184.203 156.375ZM184.203 153.422C185.891 153.422 187.219 152.62 188.188 151.016C189.167 149.401 189.656 147.188 189.656 144.375C189.656 141.552 189.167 139.333 188.188 137.719C187.219 136.104 185.891 135.297 184.203 135.297C182.505 135.297 181.167 136.104 180.188 137.719C179.219 139.333 178.734 141.552 178.734 144.375C178.734 147.188 179.219 149.401 180.188 151.016C181.167 152.62 182.505 153.422 184.203 153.422ZM204.234 156.375C202.432 156.375 200.875 155.885 199.562 154.906C198.26 153.927 197.255 152.542 196.547 150.75C195.839 148.948 195.484 146.823 195.484 144.375C195.484 141.917 195.839 139.786 196.547 137.984C197.255 136.182 198.26 134.792 199.562 133.812C200.875 132.833 202.432 132.344 204.234 132.344C206.026 132.344 207.573 132.833 208.875 133.812C210.188 134.792 211.198 136.182 211.906 137.984C212.615 139.786 212.969 141.917 212.969 144.375C212.969 146.823 212.615 148.948 211.906 150.75C211.198 152.542 210.188 153.927 208.875 154.906C207.573 155.885 206.026 156.375 204.234 156.375ZM204.234 153.422C205.922 153.422 207.25 152.62 208.219 151.016C209.198 149.401 209.688 147.188 209.688 144.375C209.688 141.552 209.198 139.333 208.219 137.719C207.25 136.104 205.922 135.297 204.234 135.297C202.536 135.297 201.198 136.104 200.219 137.719C199.25 139.333 198.766 141.552 198.766 144.375C198.766 147.188 199.25 149.401 200.219 151.016C201.198 152.62 202.536 153.422 204.234 153.422ZM224.266 156.375C222.464 156.375 220.906 155.885 219.594 154.906C218.292 153.927 217.286 152.542 216.578 150.75C215.87 148.948 215.516 146.823 215.516 144.375C215.516 141.917 215.87 139.786 216.578 137.984C217.286 136.182 218.292 134.792 219.594 133.812C220.906 132.833 222.464 132.344 224.266 132.344C226.057 132.344 227.604 132.833 228.906 133.812C230.219 134.792 231.229 136.182 231.938 137.984C232.646 139.786 233 141.917 233 144.375C233 146.823 232.646 148.948 231.938 150.75C231.229 152.542 230.219 153.927 228.906 154.906C227.604 155.885 226.057 156.375 224.266 156.375ZM224.266 153.422C225.953 153.422 227.281 152.62 228.25 151.016C229.229 149.401 229.719 147.188 229.719 144.375C229.719 141.552 229.229 139.333 228.25 137.719C227.281 136.104 225.953 135.297 224.266 135.297C222.568 135.297 221.229 136.104 220.25 137.719C219.281 139.333 218.797 141.552 218.797 144.375C218.797 147.188 219.281 149.401 220.25 151.016C221.229 152.62 222.568 153.422 224.266 153.422Z" fill="#1A1A1A"/>
<path d="M240.93 156V144.359H242.578V151.273H242.602L246.117 147.75H248.164L244.672 151.297L248.398 156H246.375L243.414 152.289L242.578 153.102V156H240.93ZM251.086 156L248.531 147.75H250.258L251.203 151.125C251.344 151.625 251.477 152.135 251.602 152.656C251.732 153.177 251.859 153.693 251.984 154.203C252.12 153.693 252.253 153.177 252.383 152.656C252.518 152.135 252.654 151.625 252.789 151.125L253.75 147.75H255.32L256.266 151.125C256.406 151.62 256.542 152.125 256.672 152.641C256.802 153.156 256.932 153.667 257.062 154.172C257.188 153.667 257.312 153.156 257.438 152.641C257.568 152.125 257.703 151.62 257.844 151.125L258.797 147.75H260.539L257.984 156H256.266L255.219 152.406C255.099 151.99 254.982 151.562 254.867 151.125C254.758 150.688 254.648 150.253 254.539 149.82C254.424 150.253 254.31 150.688 254.195 151.125C254.086 151.562 253.969 151.99 253.844 152.406L252.781 156H251.086ZM264.57 156.164C263.852 156.164 263.224 155.984 262.688 155.625C262.151 155.26 261.734 154.758 261.438 154.117C261.141 153.471 260.992 152.724 260.992 151.875C260.992 151.026 261.141 150.281 261.438 149.641C261.74 148.995 262.159 148.492 262.695 148.133C263.232 147.768 263.854 147.586 264.562 147.586C265.099 147.586 265.589 147.698 266.031 147.922C266.474 148.146 266.828 148.487 267.094 148.945H267.109V144.359H268.758V156H267.141V154.742H267.125C266.849 155.221 266.487 155.578 266.039 155.812C265.596 156.047 265.107 156.164 264.57 156.164ZM264.906 154.742C265.609 154.742 266.169 154.482 266.586 153.961C267.008 153.435 267.219 152.74 267.219 151.875C267.219 151.005 267.008 150.31 266.586 149.789C266.169 149.263 265.609 149 264.906 149C264.24 149 263.698 149.247 263.281 149.742C262.87 150.232 262.664 150.943 262.664 151.875C262.664 152.807 262.87 153.518 263.281 154.008C263.698 154.497 264.24 154.742 264.906 154.742Z" fill="#999999"/>
<rect x="85" y="172" width="84" height="25" rx="12.5" fill="#ECFDF5"/>
<g clipPath="url(#clip2_2201_120)">
<path d="M96 187.5L102 181.5" stroke="#059669" stroke-width="1.5" stroke-linecap="round" stroke-linejoin="round"/>
<path d="M97.125 181.5H102V186.375" stroke="#059669" stroke-width="1.5" stroke-linecap="round" stroke-linejoin="round"/>
</g>
<path d="M115.301 188.318V185.591H112.607V184.333H115.301V181.612H116.613V184.333H119.313V185.591H116.613V188.318H115.301ZM124.687 179.814V190H123.217V181.305H123.21L120.722 182.932V181.482L123.258 179.814H124.687ZM129.718 190.144C129.039 190.144 128.433 190.009 127.899 189.74C127.371 189.467 126.947 189.093 126.628 188.619C126.313 188.141 126.143 187.596 126.115 186.985H127.599C127.644 187.532 127.863 187.983 128.255 188.339C128.651 188.69 129.141 188.865 129.725 188.865C130.34 188.865 130.837 188.658 131.215 188.243C131.598 187.828 131.789 187.298 131.789 186.65C131.789 186.008 131.604 185.479 131.235 185.064C130.866 184.645 130.385 184.436 129.793 184.436C129.273 184.436 128.827 184.543 128.453 184.757C128.079 184.966 127.82 185.272 127.674 185.673H126.245L126.58 179.814H132.671V181.113H127.94L127.715 184.114H127.729C128.326 183.481 129.089 183.164 130.019 183.164C130.638 183.164 131.19 183.314 131.673 183.615C132.16 183.911 132.543 184.322 132.821 184.846C133.104 185.365 133.245 185.958 133.245 186.623C133.245 187.311 133.097 187.92 132.801 188.448C132.509 188.977 132.099 189.392 131.57 189.692C131.042 189.993 130.424 190.144 129.718 190.144ZM135.05 190.116C134.785 190.116 134.56 190.025 134.373 189.843C134.191 189.656 134.1 189.428 134.1 189.159C134.1 188.895 134.191 188.669 134.373 188.482C134.56 188.296 134.785 188.202 135.05 188.202C135.319 188.202 135.544 188.296 135.727 188.482C135.913 188.669 136.007 188.895 136.007 189.159C136.007 189.428 135.913 189.656 135.727 189.843C135.544 190.025 135.319 190.116 135.05 190.116ZM137.278 190V188.797L140.942 185.529C141.33 185.178 141.653 184.864 141.913 184.586C142.173 184.303 142.367 184.025 142.494 183.752C142.626 183.479 142.692 183.171 142.692 182.829C142.692 182.25 142.519 181.792 142.173 181.455C141.826 181.113 141.355 180.942 140.758 180.942C140.111 180.942 139.607 181.143 139.247 181.544C138.887 181.945 138.707 182.49 138.707 183.178H137.292C137.292 182.48 137.433 181.868 137.716 181.339C138.003 180.81 138.404 180.398 138.919 180.102C139.438 179.801 140.049 179.65 140.751 179.65C141.407 179.65 141.988 179.783 142.494 180.047C143 180.307 143.396 180.671 143.684 181.141C143.975 181.605 144.121 182.146 144.121 182.761C144.121 183.44 143.934 184.053 143.561 184.6C143.187 185.142 142.633 185.741 141.899 186.397L139.343 188.694V188.708H144.176V190H137.278ZM153.917 190.164C153.475 190.164 153.09 190.062 152.762 189.856C152.434 189.651 152.176 189.369 151.989 189.009C151.807 188.649 151.716 188.239 151.716 187.778V187.573C151.716 187.113 151.807 186.703 151.989 186.343C152.176 185.983 152.434 185.7 152.762 185.495C153.09 185.29 153.475 185.188 153.917 185.188C154.354 185.188 154.737 185.29 155.065 185.495C155.394 185.7 155.649 185.983 155.831 186.343C156.018 186.703 156.111 187.113 156.111 187.573V187.778C156.111 188.239 156.018 188.649 155.831 189.009C155.649 189.369 155.394 189.651 155.065 189.856C154.737 190.062 154.354 190.164 153.917 190.164ZM147.84 184.627C147.402 184.627 147.017 184.524 146.685 184.319C146.356 184.114 146.101 183.832 145.919 183.472C145.737 183.112 145.646 182.701 145.646 182.241V182.036C145.646 181.576 145.737 181.166 145.919 180.806C146.101 180.446 146.356 180.163 146.685 179.958C147.017 179.753 147.402 179.65 147.84 179.65C148.282 179.65 148.667 179.753 148.995 179.958C149.323 180.163 149.578 180.446 149.761 180.806C149.943 181.166 150.034 181.576 150.034 182.036V182.241C150.034 182.701 149.943 183.112 149.761 183.472C149.578 183.832 149.323 184.114 148.995 184.319C148.667 184.524 148.282 184.627 147.84 184.627ZM146.712 190L153.712 179.814H155.004L148.004 190H146.712ZM153.917 189.152C154.227 189.152 154.473 189.034 154.655 188.797C154.838 188.555 154.929 188.216 154.929 187.778V187.573C154.929 187.136 154.838 186.796 154.655 186.555C154.473 186.313 154.227 186.192 153.917 186.192C153.603 186.192 153.352 186.313 153.165 186.555C152.983 186.796 152.892 187.136 152.892 187.573V187.778C152.892 188.216 152.983 188.555 153.165 188.797C153.352 189.034 153.603 189.152 153.917 189.152ZM147.84 183.622C148.154 183.622 148.403 183.501 148.585 183.26C148.767 183.018 148.858 182.679 148.858 182.241V182.036C148.858 181.599 148.767 181.259 148.585 181.018C148.403 180.776 148.154 180.655 147.84 180.655C147.53 180.655 147.282 180.776 147.095 181.018C146.912 181.259 146.821 181.599 146.821 182.036V182.241C146.821 182.679 146.912 183.018 147.095 183.26C147.282 183.501 147.53 183.622 147.84 183.622Z" fill="#059669"/>
<path d="M179.496 189L177.141 182.812H178.465L179.695 186.205C179.781 186.447 179.863 186.689 179.941 186.932C180.02 187.174 180.098 187.414 180.176 187.652C180.254 187.414 180.332 187.174 180.41 186.932C180.488 186.689 180.568 186.447 180.65 186.205L181.863 182.812H183.17L180.809 189H179.496ZM186.188 189.146C185.715 189.146 185.289 189.07 184.91 188.918C184.531 188.766 184.225 188.539 183.99 188.238C183.76 187.938 183.631 187.564 183.604 187.119H184.822C184.893 187.814 185.34 188.162 186.164 188.162C186.555 188.162 186.863 188.082 187.09 187.922C187.32 187.762 187.436 187.559 187.436 187.312C187.436 187.102 187.354 186.934 187.189 186.809C187.025 186.68 186.811 186.586 186.545 186.527L185.52 186.299C184.336 186.041 183.744 185.451 183.744 184.529C183.744 183.982 183.961 183.537 184.395 183.193C184.832 182.85 185.404 182.678 186.111 182.678C186.811 182.678 187.385 182.859 187.834 183.223C188.287 183.582 188.521 184.074 188.537 184.699H187.354C187.35 184.398 187.236 184.15 187.014 183.955C186.791 183.756 186.496 183.656 186.129 183.656C185.777 183.656 185.498 183.738 185.291 183.902C185.084 184.066 184.98 184.268 184.98 184.506C184.98 184.717 185.059 184.887 185.215 185.016C185.375 185.145 185.594 185.24 185.871 185.303L186.926 185.537C187.527 185.67 187.971 185.875 188.256 186.152C188.541 186.43 188.684 186.793 188.684 187.242C188.684 187.637 188.574 187.977 188.355 188.262C188.141 188.543 187.846 188.762 187.471 188.918C187.096 189.07 186.668 189.146 186.188 189.146ZM193.875 180.27V189H192.639V180.27H193.875ZM197.162 189.1C196.545 189.1 196.033 188.943 195.627 188.631C195.221 188.314 195.018 187.848 195.018 187.23C195.018 186.762 195.133 186.402 195.363 186.152C195.598 185.898 195.9 185.717 196.271 185.607C196.646 185.498 197.043 185.418 197.461 185.367C197.848 185.32 198.154 185.281 198.381 185.25C198.607 185.219 198.768 185.172 198.861 185.109C198.959 185.047 199.008 184.939 199.008 184.787V184.734C199.008 184.434 198.898 184.188 198.68 183.996C198.461 183.801 198.154 183.703 197.76 183.703C197.365 183.703 197.043 183.799 196.793 183.99C196.543 184.178 196.406 184.414 196.383 184.699H195.17C195.197 184.109 195.445 183.627 195.914 183.252C196.383 182.877 197.004 182.689 197.777 182.689C198.539 182.689 199.139 182.877 199.576 183.252C200.014 183.627 200.232 184.129 200.232 184.758V189H199.014V188.121H198.99C198.861 188.371 198.656 188.598 198.375 188.801C198.098 189 197.693 189.1 197.162 189.1ZM197.414 188.104C197.961 188.104 198.363 187.963 198.621 187.682C198.883 187.396 199.014 187.064 199.014 186.686V185.959C198.932 186.025 198.746 186.086 198.457 186.141C198.168 186.191 197.859 186.24 197.531 186.287C197.191 186.338 196.893 186.434 196.635 186.574C196.377 186.715 196.248 186.941 196.248 187.254C196.248 187.52 196.352 187.729 196.559 187.881C196.77 188.029 197.055 188.104 197.414 188.104ZM203.918 189.146C203.445 189.146 203.02 189.07 202.641 188.918C202.262 188.766 201.955 188.539 201.721 188.238C201.49 187.938 201.361 187.564 201.334 187.119H202.553C202.623 187.814 203.07 188.162 203.895 188.162C204.285 188.162 204.594 188.082 204.82 187.922C205.051 187.762 205.166 187.559 205.166 187.312C205.166 187.102 205.084 186.934 204.92 186.809C204.756 186.68 204.541 186.586 204.275 186.527L203.25 186.299C202.066 186.041 201.475 185.451 201.475 184.529C201.475 183.982 201.691 183.537 202.125 183.193C202.562 182.85 203.135 182.678 203.842 182.678C204.541 182.678 205.115 182.859 205.564 183.223C206.018 183.582 206.252 184.074 206.268 184.699H205.084C205.08 184.398 204.967 184.15 204.744 183.955C204.521 183.756 204.227 183.656 203.859 183.656C203.508 183.656 203.229 183.738 203.021 183.902C202.814 184.066 202.711 184.268 202.711 184.506C202.711 184.717 202.789 184.887 202.945 185.016C203.105 185.145 203.324 185.24 203.602 185.303L204.656 185.537C205.258 185.67 205.701 185.875 205.986 186.152C206.271 186.43 206.414 186.793 206.414 187.242C206.414 187.637 206.305 187.977 206.086 188.262C205.871 188.543 205.576 188.762 205.201 188.918C204.826 189.07 204.398 189.146 203.918 189.146ZM210.609 182.812V183.832H209.355V187.365C209.355 187.596 209.402 187.756 209.496 187.846C209.59 187.936 209.76 187.98 210.006 187.98H210.609V189H209.83C208.686 189 208.113 188.508 208.113 187.523V183.832H207.023V182.812H208.113V181.125H209.355V182.812H210.609ZM215.807 189L213.891 182.812H215.186L215.895 185.344C216 185.719 216.1 186.102 216.193 186.492C216.291 186.883 216.387 187.27 216.48 187.652C216.582 187.27 216.682 186.883 216.779 186.492C216.881 186.102 216.982 185.719 217.084 185.344L217.805 182.812H218.982L219.691 185.344C219.797 185.715 219.898 186.094 219.996 186.48C220.094 186.867 220.191 187.25 220.289 187.629C220.383 187.25 220.477 186.867 220.57 186.48C220.668 186.094 220.77 185.715 220.875 185.344L221.59 182.812H222.896L220.98 189H219.691L218.906 186.305C218.816 185.992 218.729 185.672 218.643 185.344C218.561 185.016 218.479 184.689 218.396 184.365C218.311 184.689 218.225 185.016 218.139 185.344C218.057 185.672 217.969 185.992 217.875 186.305L217.078 189H215.807ZM226.184 189.141C225.57 189.141 225.043 189.002 224.602 188.725C224.164 188.447 223.826 188.066 223.588 187.582C223.354 187.094 223.236 186.539 223.236 185.918C223.236 185.289 223.359 184.73 223.605 184.242C223.852 183.754 224.191 183.371 224.625 183.094C225.059 182.812 225.557 182.672 226.119 182.672C226.705 182.672 227.213 182.809 227.643 183.082C228.076 183.355 228.412 183.736 228.65 184.225C228.889 184.709 229.008 185.27 229.008 185.906V186.24H224.455C224.479 186.799 224.639 187.25 224.936 187.594C225.236 187.938 225.658 188.109 226.201 188.109C226.607 188.109 226.941 188.018 227.203 187.834C227.465 187.65 227.639 187.412 227.725 187.119H228.914C228.84 187.518 228.674 187.869 228.416 188.174C228.162 188.479 227.842 188.717 227.455 188.889C227.072 189.057 226.648 189.141 226.184 189.141ZM224.467 185.303H227.801C227.75 184.811 227.576 184.422 227.279 184.137C226.982 183.848 226.6 183.703 226.131 183.703C225.662 183.703 225.279 183.848 224.982 184.137C224.689 184.422 224.518 184.811 224.467 185.303ZM232.723 189.141C232.109 189.141 231.582 189.002 231.141 188.725C230.703 188.447 230.365 188.066 230.127 187.582C229.893 187.094 229.775 186.539 229.775 185.918C229.775 185.289 229.898 184.73 230.145 184.242C230.391 183.754 230.73 183.371 231.164 183.094C231.598 182.812 232.096 182.672 232.658 182.672C233.244 182.672 233.752 182.809 234.182 183.082C234.615 183.355 234.951 183.736 235.189 184.225C235.428 184.709 235.547 185.27 235.547 185.906V186.24H230.994C231.018 186.799 231.178 187.25 231.475 187.594C231.775 187.938 232.197 188.109 232.74 188.109C233.146 188.109 233.48 188.018 233.742 187.834C234.004 187.65 234.178 187.412 234.264 187.119H235.453C235.379 187.518 235.213 187.869 234.955 188.174C234.701 188.479 234.381 188.717 233.994 188.889C233.611 189.057 233.188 189.141 232.723 189.141ZM231.006 185.303H234.34C234.289 184.811 234.115 184.422 233.818 184.137C233.521 183.848 233.139 183.703 232.67 183.703C232.201 183.703 231.818 183.848 231.521 184.137C231.229 184.422 231.057 184.811 231.006 185.303ZM236.619 189V180.27H237.855V185.455H237.873L240.51 182.812H242.045L239.426 185.473L242.221 189H240.703L238.482 186.217L237.855 186.826V189H236.619Z" fill="#999999"/>
<rect x="85.3" y="209.3" width="378.4" height="159.4" rx="5.7" fill="white"/>
<rect x="85.3" y="209.3" width="378.4" height="159.4" rx="5.7" stroke="#E5E5E5" stroke-width="0.6"/>
<path d="M102.789 355V347.725H104.318L105.948 351.987C106.013 352.173 106.098 352.417 106.202 352.72C106.306 353.019 106.401 353.296 106.485 353.55C106.567 353.296 106.66 353.019 106.764 352.72C106.868 352.417 106.953 352.173 107.018 351.987L108.624 347.725H110.157V355H109.093V351.035C109.093 350.775 109.096 350.472 109.103 350.127C109.109 349.779 109.117 349.432 109.127 349.087C108.994 349.481 108.867 349.852 108.746 350.2C108.629 350.549 108.531 350.827 108.453 351.035L106.92 355H106.031L104.484 351.035C104.409 350.837 104.313 350.575 104.195 350.249C104.082 349.92 103.958 349.567 103.824 349.189C103.834 349.521 103.842 349.85 103.849 350.176C103.855 350.501 103.859 350.788 103.859 351.035V355H102.789ZM113.624 355.117C113.133 355.117 112.701 355.003 112.33 354.775C111.959 354.548 111.669 354.232 111.461 353.828C111.256 353.424 111.153 352.959 111.153 352.432C111.153 351.898 111.256 351.429 111.461 351.025C111.669 350.618 111.959 350.301 112.33 350.073C112.701 349.842 113.133 349.727 113.624 349.727C114.116 349.727 114.545 349.842 114.913 350.073C115.284 350.301 115.572 350.618 115.777 351.025C115.986 351.429 116.09 351.898 116.09 352.432C116.09 352.959 115.986 353.424 115.777 353.828C115.572 354.232 115.284 354.548 114.913 354.775C114.545 355.003 114.116 355.117 113.624 355.117ZM113.624 354.229C114.067 354.229 114.415 354.066 114.669 353.74C114.923 353.415 115.05 352.979 115.05 352.432C115.05 351.878 114.921 351.437 114.664 351.108C114.41 350.78 114.064 350.615 113.624 350.615C113.185 350.615 112.836 350.78 112.579 351.108C112.325 351.434 112.198 351.875 112.198 352.432C112.198 352.982 112.325 353.42 112.579 353.745C112.833 354.067 113.181 354.229 113.624 354.229ZM118.033 352.031V355H117.003V349.844H118.014V350.62C118.365 350.034 118.885 349.741 119.571 349.741C119.926 349.741 120.244 349.819 120.524 349.976C120.807 350.129 121.03 350.356 121.193 350.659C121.355 350.962 121.437 351.338 121.437 351.787V355H120.406V351.914C120.406 351.501 120.307 351.19 120.109 350.981C119.91 350.77 119.633 350.664 119.278 350.664C118.927 350.664 118.631 350.773 118.39 350.991C118.152 351.206 118.033 351.553 118.033 352.031Z" fill="#999999"/>
<path d="M158.314 348.677V347.725H164.031V348.677H161.722V355H160.633V348.677H158.314ZM165.75 355.103C165.399 355.103 165.081 355.026 164.798 354.873C164.518 354.717 164.295 354.487 164.129 354.185C163.966 353.882 163.885 353.506 163.885 353.057V349.844H164.915V352.93C164.915 353.343 165.014 353.656 165.213 353.867C165.412 354.076 165.69 354.18 166.048 354.18C166.396 354.18 166.689 354.072 166.927 353.857C167.168 353.639 167.288 353.291 167.288 352.812V349.844H168.318V355H167.308V354.224C166.956 354.81 166.437 355.103 165.75 355.103ZM171.683 355.117C171.172 355.117 170.732 355.002 170.364 354.771C170 354.539 169.718 354.222 169.52 353.818C169.324 353.411 169.227 352.949 169.227 352.432C169.227 351.908 169.329 351.442 169.534 351.035C169.739 350.628 170.023 350.309 170.384 350.078C170.745 349.844 171.16 349.727 171.629 349.727C172.117 349.727 172.541 349.84 172.899 350.068C173.26 350.296 173.54 350.614 173.738 351.021C173.937 351.424 174.036 351.891 174.036 352.422V352.7H170.242C170.262 353.166 170.395 353.542 170.643 353.828C170.893 354.115 171.245 354.258 171.697 354.258C172.036 354.258 172.314 354.181 172.532 354.028C172.75 353.875 172.895 353.677 172.967 353.433H173.958C173.896 353.765 173.758 354.058 173.543 354.312C173.332 354.565 173.065 354.764 172.742 354.907C172.423 355.047 172.07 355.117 171.683 355.117ZM170.252 351.919H173.03C172.988 351.509 172.843 351.185 172.596 350.947C172.348 350.706 172.029 350.586 171.639 350.586C171.248 350.586 170.929 350.706 170.682 350.947C170.438 351.185 170.294 351.509 170.252 351.919Z" fill="#999999"/>
<path d="M212.246 355L210.274 347.725H211.402L212.471 351.958C212.549 352.271 212.622 352.585 212.691 352.9C212.759 353.213 212.826 353.527 212.891 353.843C212.956 353.527 213.024 353.213 213.096 352.9C213.167 352.585 213.244 352.271 213.325 351.958L214.429 347.725H215.615L216.709 351.958C216.865 352.576 217.01 353.197 217.144 353.818C217.209 353.509 217.276 353.2 217.344 352.891C217.416 352.578 217.489 352.267 217.564 351.958L218.633 347.725H219.766L217.783 355H216.543L215.347 350.552C215.288 350.327 215.231 350.098 215.176 349.863C215.124 349.626 215.07 349.383 215.015 349.136C214.963 349.383 214.911 349.626 214.859 349.863C214.806 350.098 214.749 350.327 214.688 350.552L213.501 355H212.246ZM222.09 355.117C221.579 355.117 221.139 355.002 220.772 354.771C220.407 354.539 220.125 354.222 219.927 353.818C219.732 353.411 219.634 352.949 219.634 352.432C219.634 351.908 219.736 351.442 219.942 351.035C220.147 350.628 220.43 350.309 220.791 350.078C221.152 349.844 221.568 349.727 222.036 349.727C222.525 349.727 222.948 349.84 223.306 350.068C223.667 350.296 223.947 350.614 224.146 351.021C224.344 351.424 224.444 351.891 224.444 352.422V352.7H220.65C220.669 353.166 220.803 353.542 221.05 353.828C221.301 354.115 221.652 354.258 222.105 354.258C222.443 354.258 222.721 354.181 222.94 354.028C223.158 353.875 223.303 353.677 223.374 353.433H224.365C224.304 353.765 224.165 354.058 223.95 354.312C223.739 354.565 223.472 354.764 223.15 354.907C222.831 355.047 222.477 355.117 222.09 355.117ZM220.659 351.919H223.438C223.395 351.509 223.25 351.185 223.003 350.947C222.756 350.706 222.437 350.586 222.046 350.586C221.655 350.586 221.336 350.706 221.089 350.947C220.845 351.185 220.702 351.509 220.659 351.919ZM227.319 355.103C226.87 355.103 226.478 354.99 226.143 354.766C225.807 354.538 225.547 354.224 225.361 353.823C225.176 353.42 225.083 352.952 225.083 352.422C225.083 351.891 225.176 351.426 225.361 351.025C225.55 350.622 225.812 350.308 226.148 350.083C226.483 349.855 226.872 349.741 227.315 349.741C227.65 349.741 227.956 349.811 228.233 349.951C228.509 350.091 228.731 350.304 228.897 350.591H228.906V347.725H229.937V355H228.926V354.214H228.916C228.744 354.513 228.517 354.736 228.237 354.883C227.961 355.029 227.655 355.103 227.319 355.103ZM227.529 354.214C227.969 354.214 228.319 354.051 228.579 353.726C228.843 353.397 228.975 352.962 228.975 352.422C228.975 351.878 228.843 351.444 228.579 351.118C228.319 350.789 227.969 350.625 227.529 350.625C227.113 350.625 226.774 350.78 226.514 351.089C226.257 351.395 226.128 351.839 226.128 352.422C226.128 353.005 226.257 353.449 226.514 353.755C226.774 354.061 227.113 354.214 227.529 354.214Z" fill="#999999"/>
<path d="M266.042 348.677V347.725H271.76V348.677H269.45V355H268.361V348.677H266.042ZM273.61 352.031V355H272.58V347.725H273.61V350.586C273.965 350.023 274.478 349.741 275.149 349.741C275.503 349.741 275.821 349.819 276.101 349.976C276.384 350.129 276.607 350.356 276.77 350.659C276.932 350.962 277.014 351.338 277.014 351.787V355H275.984V351.914C275.984 351.501 275.884 351.19 275.686 350.981C275.487 350.77 275.21 350.664 274.856 350.664C274.504 350.664 274.208 350.773 273.967 350.991C273.729 351.206 273.61 351.553 273.61 352.031ZM280.041 355.103C279.69 355.103 279.372 355.026 279.089 354.873C278.809 354.717 278.586 354.487 278.42 354.185C278.257 353.882 278.176 353.506 278.176 353.057V349.844H279.206V352.93C279.206 353.343 279.305 353.656 279.504 353.867C279.703 354.076 279.981 354.18 280.339 354.18C280.687 354.18 280.98 354.072 281.218 353.857C281.459 353.639 281.579 353.291 281.579 352.812V349.844H282.61V355H281.599V354.224C281.247 354.81 280.728 355.103 280.041 355.103Z" fill="#999999"/>
<path d="M323.746 355V347.725H328.483V348.677H324.83V350.854H328.204V351.792H324.83V355H323.746ZM329.171 355V349.844H330.157V350.679H330.177C330.271 350.396 330.419 350.176 330.621 350.02C330.826 349.86 331.093 349.78 331.422 349.78C331.5 349.78 331.572 349.784 331.637 349.79C331.702 349.797 331.756 349.801 331.798 349.805V350.767C331.759 350.757 331.689 350.747 331.588 350.737C331.487 350.724 331.376 350.718 331.256 350.718C330.966 350.718 330.717 350.819 330.509 351.021C330.304 351.222 330.201 351.533 330.201 351.953V355H329.171ZM332.589 355V349.844H333.619V355H332.589ZM333.102 348.955C332.919 348.955 332.765 348.895 332.638 348.774C332.514 348.651 332.452 348.501 332.452 348.325C332.452 348.146 332.514 347.996 332.638 347.876C332.765 347.752 332.919 347.69 333.102 347.69C333.284 347.69 333.439 347.752 333.566 347.876C333.693 347.996 333.756 348.146 333.756 348.325C333.756 348.501 333.693 348.651 333.566 348.774C333.439 348.895 333.284 348.955 333.102 348.955Z" fill="#999999"/>
<path d="M378.538 355.117C377.666 355.117 376.977 354.897 376.473 354.458C375.971 354.015 375.721 353.41 375.721 352.642H376.805C376.808 353.12 376.961 353.494 377.264 353.765C377.57 354.035 377.995 354.17 378.538 354.17C379.033 354.17 379.429 354.066 379.725 353.857C380.024 353.646 380.174 353.363 380.174 353.008C380.174 352.728 380.067 352.502 379.852 352.329C379.64 352.153 379.282 352.005 378.777 351.885L377.982 351.694C377.246 351.519 376.709 351.274 376.37 350.962C376.035 350.646 375.867 350.236 375.867 349.731C375.867 349.305 375.975 348.932 376.19 348.613C376.404 348.294 376.706 348.047 377.093 347.871C377.484 347.695 377.939 347.607 378.46 347.607C379.245 347.607 379.868 347.812 380.33 348.223C380.796 348.633 381.04 349.193 381.063 349.902H380.013C379.987 349.482 379.834 349.154 379.554 348.916C379.274 348.675 378.904 348.555 378.445 348.555C378.006 348.555 377.646 348.66 377.366 348.872C377.086 349.08 376.946 349.349 376.946 349.678C376.946 349.941 377.054 350.156 377.269 350.322C377.484 350.485 377.84 350.627 378.338 350.747L379.124 350.933C379.853 351.105 380.39 351.354 380.735 351.68C381.084 352.005 381.258 352.428 381.258 352.949C381.258 353.385 381.146 353.766 380.921 354.092C380.696 354.417 380.381 354.67 379.974 354.849C379.567 355.028 379.088 355.117 378.538 355.117ZM383.777 355.083C383.263 355.083 382.837 354.953 382.498 354.692C382.16 354.429 381.99 354.04 381.99 353.525C381.99 353.135 382.086 352.835 382.278 352.627C382.474 352.415 382.726 352.264 383.035 352.173C383.348 352.082 383.678 352.015 384.027 351.973C384.349 351.934 384.604 351.901 384.793 351.875C384.982 351.849 385.115 351.81 385.194 351.758C385.275 351.706 385.316 351.616 385.316 351.489V351.445C385.316 351.195 385.224 350.99 385.042 350.83C384.86 350.667 384.604 350.586 384.276 350.586C383.947 350.586 383.678 350.666 383.47 350.825C383.262 350.981 383.148 351.178 383.128 351.416H382.117C382.14 350.924 382.347 350.522 382.737 350.21C383.128 349.897 383.646 349.741 384.29 349.741C384.925 349.741 385.425 349.897 385.789 350.21C386.154 350.522 386.336 350.941 386.336 351.465V355H385.32V354.268H385.301C385.194 354.476 385.023 354.665 384.788 354.834C384.557 355 384.22 355.083 383.777 355.083ZM383.987 354.253C384.443 354.253 384.778 354.136 384.993 353.901C385.211 353.664 385.32 353.387 385.32 353.071V352.466C385.252 352.521 385.097 352.572 384.857 352.617C384.616 352.66 384.359 352.7 384.085 352.739C383.802 352.782 383.553 352.861 383.338 352.979C383.123 353.096 383.016 353.285 383.016 353.545C383.016 353.766 383.102 353.94 383.275 354.067C383.45 354.191 383.688 354.253 383.987 354.253ZM389.984 349.844V350.693H388.939V353.638C388.939 353.83 388.978 353.963 389.056 354.038C389.134 354.113 389.276 354.15 389.481 354.15H389.984V355H389.334C388.38 355 387.903 354.59 387.903 353.77V350.693H386.995V349.844H387.903V348.438H388.939V349.844H389.984Z" fill="#999999"/>
<path d="M431.382 355.117C430.51 355.117 429.821 354.897 429.317 354.458C428.815 354.015 428.565 353.41 428.565 352.642H429.649C429.652 353.12 429.805 353.494 430.108 353.765C430.414 354.035 430.838 354.17 431.382 354.17C431.877 354.17 432.272 354.066 432.569 353.857C432.868 353.646 433.018 353.363 433.018 353.008C433.018 352.728 432.91 352.502 432.695 352.329C432.484 352.153 432.126 352.005 431.621 351.885L430.825 351.694C430.09 351.519 429.553 351.274 429.214 350.962C428.879 350.646 428.711 350.236 428.711 349.731C428.711 349.305 428.819 348.932 429.033 348.613C429.248 348.294 429.549 348.047 429.937 347.871C430.327 347.695 430.783 347.607 431.304 347.607C432.088 347.607 432.712 347.812 433.174 348.223C433.639 348.633 433.884 349.193 433.906 349.902H432.857C432.831 349.482 432.678 349.154 432.398 348.916C432.118 348.675 431.748 348.555 431.289 348.555C430.85 348.555 430.49 348.66 430.21 348.872C429.93 349.08 429.79 349.349 429.79 349.678C429.79 349.941 429.898 350.156 430.112 350.322C430.327 350.485 430.684 350.627 431.182 350.747L431.968 350.933C432.697 351.105 433.234 351.354 433.579 351.68C433.928 352.005 434.102 352.428 434.102 352.949C434.102 353.385 433.989 353.766 433.765 354.092C433.54 354.417 433.224 354.67 432.818 354.849C432.411 355.028 431.932 355.117 431.382 355.117ZM436.914 355.103C436.563 355.103 436.245 355.026 435.962 354.873C435.682 354.717 435.459 354.487 435.293 354.185C435.13 353.882 435.049 353.506 435.049 353.057V349.844H436.079V352.93C436.079 353.343 436.179 353.656 436.377 353.867C436.576 354.076 436.854 354.18 437.212 354.18C437.56 354.18 437.853 354.072 438.091 353.857C438.332 353.639 438.452 353.291 438.452 352.812V349.844H439.483V355H438.472V354.224C438.12 354.81 437.601 355.103 436.914 355.103ZM441.675 352.031V355H440.645V349.844H441.655V350.62C442.007 350.034 442.526 349.741 443.213 349.741C443.568 349.741 443.885 349.819 444.165 349.976C444.448 350.129 444.671 350.356 444.834 350.659C444.997 350.962 445.078 351.338 445.078 351.787V355H444.048V351.914C444.048 351.501 443.949 351.19 443.75 350.981C443.552 350.77 443.275 350.664 442.92 350.664C442.569 350.664 442.272 350.773 442.031 350.991C441.794 351.206 441.675 351.553 441.675 352.031Z" fill="#999999"/>
<path d="M101 225H447" stroke="black" stroke-opacity="0.1" stroke-width="0.6"/>
<path d="M101 251H447" stroke="black" stroke-opacity="0.1" stroke-width="0.6"/>
<path d="M101 277H447" stroke="black" stroke-opacity="0.1" stroke-width="0.6"/>
<path d="M101 303H447" stroke="black" stroke-opacity="0.1" stroke-width="0.6"/>
<path d="M101 329H447" stroke="black" stroke-opacity="0.1" stroke-width="0.6"/>
<path d="M125.942 265L101 303V329.5H447V306.5L429.488 275H407.73L392.871 235L359.439 232L345.11 245L312.209 253L302.656 275H277.715L265.509 259.5H233.669L209.788 306.5H177.948L154.067 265H125.942Z" fill="url(#paint0_linear_2201_120)"/>
<path d="M101 303L125.942 265H154.067L177.948 306.5H209.788L233.669 259.5H265.509L277.715 275H302.656L312.209 253L345.11 245L359.439 232L392.871 235L407.73 275H429.488L447 306.5" stroke="#EF5237"/>
</g>
<rect x="73" y="69" width="403" height="312" rx="12" stroke="#E5E5E5"/>
</g>
<defs>
<filter id="filter0_d_2201_120" x="52.5" y="48.5" width="444" height="353" filterUnits="userSpaceOnUse" color-interpolation-filters="sRGB">
<feFlood flood-opacity="0" result="BackgroundImageFix"/>
<feColorMatrix in="SourceAlpha" type="matrix" values="0 0 0 0 0 0 0 0 0 0 0 0 0 0 0 0 0 0 127 0" result="hardAlpha"/>
<feOffset/>
<feGaussianBlur stdDeviation="10"/>
<feComposite in2="hardAlpha" operator="out"/>
<feColorMatrix type="matrix" values="0 0 0 0 0 0 0 0 0 0 0 0 0 0 0 0 0 0 0.04 0"/>
<feBlend mode="normal" in2="BackgroundImageFix" result="effect1_dropShadow_2201_120"/>
<feBlend mode="normal" in="SourceGraphic" in2="effect1_dropShadow_2201_120" result="shape"/>
</filter>
<linearGradient id="paint0_linear_2201_120" x1="274" y1="232" x2="274" y2="329.5" gradientUnits="userSpaceOnUse">
<stop stop-color="#EF5237" stop-opacity="0.2"/>
<stop offset="1" stop-color="#EF5237" stop-opacity="0"/>
</linearGradient>
<clipPath id="clip0_2201_120">
<rect x="73" y="69" width="403" height="312" rx="12" fill="white"/>
</clipPath>
<clipPath id="clip1_2201_120">
<rect width="16" height="16" fill="white" transform="translate(434 83)"/>
</clipPath>
<clipPath id="clip2_2201_120">
<rect width="12" height="12" fill="white" transform="translate(93 178.5)"/>
</clipPath>
</defs>
</svg>
